<svg width="100" height="100" viewBox="0 0 100 100" fill="none" xmlns="http://www.w3.org/2000/svg">
<path d="M49.999 37.5V54.1667M49.999 70.8333H50.0407M44.2295 16.2155L9.95912 75.4098C8.05827 78.693 7.10784 80.3347 7.24831 81.682C7.37084 82.8572 7.98655 83.9252 8.9422 84.62C10.0379 85.4166 11.9348 85.4166 15.7286 85.4166H84.2693C88.0632 85.4166 89.9601 85.4166 91.0558 84.62C92.0114 83.9252 92.6271 82.8572 92.7497 81.682C92.8901 80.3347 91.9397 78.693 90.0388 75.4097L55.7685 16.2155C53.8745 12.944 52.9274 11.3082 51.6919 10.7588C50.6142 10.2796 49.3838 10.2796 48.3061 10.7588C47.0705 11.3082 46.1235 12.944 44.2295 16.2155Z" stroke="#D83F35" stroke-width="2" stroke-linecap="round" stroke-linejoin="round"/>
</svg>
