<svg width="199" height="195" viewBox="0 0 199 195" fill="none" xmlns="http://www.w3.org/2000/svg">
<path d="M123.562 98.7672L132.776 133.044M141.99 167.322L142.076 167.299M99.9289 58.1824L62.173 198.87C60.0788 206.674 59.0317 210.575 60.0655 213.269C60.9672 215.618 62.8239 217.474 65.1735 218.375C67.8673 219.407 71.7686 218.358 79.5711 216.261L220.535 178.368C228.337 176.27 232.238 175.222 234.051 172.978C235.633 171.02 236.309 168.483 235.911 165.999C235.455 163.15 232.593 160.299 226.868 154.598L123.66 51.8029C117.956 46.1218 115.104 43.2812 112.26 42.8343C109.778 42.4446 107.248 43.1248 105.296 44.7062C103.059 46.5192 102.016 50.4069 99.9289 58.1824Z" stroke="#3C5AE7" stroke-opacity="0.5" stroke-width="5" stroke-linecap="round" stroke-linejoin="round"/>
</svg>
