<svg width="15" height="15" viewBox="0 0 15 15" fill="none" xmlns="http://www.w3.org/2000/svg">
<path d="M10 4.375C10 3.79377 10 3.50315 9.93611 3.26471C9.76274 2.61767 9.25733 2.11226 8.61029 1.93889C8.37185 1.875 8.08123 1.875 7.5 1.875C6.91877 1.875 6.62815 1.875 6.38971 1.93889C5.74267 2.11226 5.23726 2.61767 5.06389 3.26471C5 3.50315 5 3.79377 5 4.375M8 10.9375H11.0625C11.2375 10.9375 11.325 10.9375 11.3919 10.9034C11.4507 10.8735 11.4985 10.8257 11.5284 10.7669C11.5625 10.7 11.5625 10.6125 11.5625 10.4375V8.9375C11.5625 8.76248 11.5625 8.67498 11.5284 8.60813C11.4985 8.54933 11.4507 8.50152 11.3919 8.47156C11.325 8.4375 11.2375 8.4375 11.0625 8.4375H8C7.82498 8.4375 7.73748 8.4375 7.67063 8.47156C7.61183 8.50152 7.56402 8.54933 7.53406 8.60813C7.5 8.67498 7.5 8.76248 7.5 8.9375V10.4375C7.5 10.6125 7.5 10.7 7.53406 10.7669C7.56402 10.8257 7.61183 10.8735 7.67063 10.9034C7.73748 10.9375 7.82498 10.9375 8 10.9375ZM4.25 13.125H10.75C11.8001 13.125 12.3251 13.125 12.7262 12.9206C13.079 12.7409 13.3659 12.454 13.5456 12.1012C13.75 11.7001 13.75 11.1751 13.75 10.125V7.375C13.75 6.3249 13.75 5.79985 13.5456 5.39877C13.3659 5.04596 13.079 4.75913 12.7262 4.57936C12.3251 4.375 11.8001 4.375 10.75 4.375H4.25C3.1999 4.375 2.67485 4.375 2.27377 4.57936C1.92096 4.75913 1.63413 5.04596 1.45436 5.39877C1.25 5.79985 1.25 6.3249 1.25 7.375V10.125C1.25 11.1751 1.25 11.7001 1.45436 12.1012C1.63413 12.454 1.92096 12.7409 2.27377 12.9206C2.67485 13.125 3.1999 13.125 4.25 13.125Z" stroke="#3C5AE7" stroke-linecap="round" stroke-linejoin="round"/>
</svg>
