<svg width="224" height="195" viewBox="0 0 224 195" fill="none" xmlns="http://www.w3.org/2000/svg">
<path d="M236.248 177.474L201.764 140.702C198.188 136.888 196.399 134.981 194.291 134.221C192.437 133.552 190.418 133.487 188.525 134.036C186.372 134.66 184.465 136.448 180.651 140.024L161.585 157.905C157.771 161.481 155.864 163.27 155.104 165.378C154.435 167.232 154.37 169.251 154.918 171.144C155.542 173.297 157.331 175.204 160.907 179.018L195.391 215.789M65.1307 158.771C75.7113 170.054 93.4347 170.623 104.717 160.042C116 149.462 116.568 131.738 105.988 120.456C116.568 131.738 134.292 132.307 145.574 121.726C156.857 111.146 157.426 93.4224 146.845 82.14C157.426 93.4224 175.149 93.9914 186.432 83.4108C197.714 72.8302 198.283 55.1068 187.702 43.8244M176.324 233.67L255.315 159.593C262.942 152.44 266.756 148.864 268.277 144.647C269.615 140.938 269.745 136.901 268.648 133.114C267.4 128.808 263.823 124.995 256.67 117.367L182.594 38.3768C175.441 30.7494 171.864 26.9357 167.648 25.4144C163.939 24.0763 159.902 23.9467 156.114 25.0442C151.809 26.2919 147.995 29.8683 140.368 37.0213L61.3774 111.098C53.75 118.251 49.9363 121.828 48.4151 126.044C47.077 129.753 46.9474 133.79 48.0449 137.577C49.2925 141.883 52.869 145.696 60.0219 153.324L134.099 232.314C141.252 239.942 144.828 243.755 149.045 245.277C152.754 246.615 156.791 246.744 160.578 245.647C164.883 244.399 168.697 240.823 176.324 233.67Z" stroke="#3C5AE7" stroke-opacity="0.5" stroke-width="6" stroke-linecap="round" stroke-linejoin="round"/>
</svg>
