<svg width="181" height="121" viewBox="0 0 181 121" fill="none" xmlns="http://www.w3.org/2000/svg">
<g clip-path="url(#clip0_5818_10282)">
<path d="M151.21 2.27823L66.9806 97.5744M85.459 -8.68584L106.636 10.0318M48.0237 33.668L69.2007 52.3856M152.972 128.315L192.279 83.8434C200.142 74.9483 204.073 70.5007 205.344 65.5731C206.463 61.2387 206.181 56.6614 204.538 52.4972C202.671 47.7631 198.223 43.8321 189.328 35.9699L144.857 -3.33705C135.962 -11.1992 131.514 -15.1303 126.586 -16.4021C122.252 -17.5208 117.675 -17.2386 113.511 -15.596C108.777 -13.7286 104.845 -9.28103 96.9833 -0.385885L57.6763 44.0857C49.8142 52.9808 45.8831 57.4284 44.6113 62.3559C43.4925 66.6904 43.7747 71.2677 45.4173 75.4319C47.2848 80.1659 51.7323 84.097 60.6275 91.9591L105.099 131.266C113.994 139.128 118.442 143.059 123.369 144.331C127.704 145.45 132.281 145.168 136.445 143.525C141.179 141.658 145.11 137.21 152.972 128.315Z" stroke="#3C5AE7" stroke-opacity="0.1" stroke-width="10" stroke-linecap="round" stroke-linejoin="round"/>
</g>
<defs>
<clipPath id="clip0_5818_10282">
<rect width="169.579" height="169.579" fill="white" transform="translate(0 66.6631) rotate(-48.5275)"/>
</clipPath>
</defs>
</svg>
