<svg width="10" height="10" viewBox="0 0 10 10" fill="none" xmlns="http://www.w3.org/2000/svg">
<g clip-path="url(#clip0_8032_18080)">
<path d="M8.75 4.16668H1.25M6.66667 0.833344V2.50001M3.33333 0.833344V2.50001M3.75 6.66668L4.58333 7.50001L6.45833 5.62501M3.25 9.16668H6.75C7.45007 9.16668 7.8001 9.16668 8.06749 9.03043C8.30269 8.91059 8.49392 8.71937 8.61376 8.48416C8.75 8.21677 8.75 7.86674 8.75 7.16668V3.66668C8.75 2.96661 8.75 2.61658 8.61376 2.34919C8.49392 2.11399 8.30269 1.92276 8.06749 1.80292C7.8001 1.66668 7.45007 1.66668 6.75 1.66668H3.25C2.54993 1.66668 2.1999 1.66668 1.93251 1.80292C1.69731 1.92276 1.50608 2.11399 1.38624 2.34919C1.25 2.61658 1.25 2.96661 1.25 3.66668V7.16668C1.25 7.86674 1.25 8.21677 1.38624 8.48416C1.50608 8.71937 1.69731 8.91059 1.93251 9.03043C2.1999 9.16668 2.54993 9.16668 3.25 9.16668Z" stroke="white" stroke-linecap="round" stroke-linejoin="round"/>
</g>
<defs>
<clipPath id="clip0_8032_18080">
<rect width="10" height="10" fill="white"/>
</clipPath>
</defs>
</svg>
