<svg width="145" height="133" viewBox="0 0 145 133" fill="none" xmlns="http://www.w3.org/2000/svg">
<path d="M4.64473 75.6812C3.90634 73.1934 3.53714 71.9496 3.32998 70.8711C1.33193 60.469 6.95313 50.1025 16.7609 46.102C17.7778 45.6873 19.0888 45.2982 21.7108 44.5199C22.7212 44.22 23.2263 44.0701 23.6475 43.9168C29.0259 41.9596 32.7958 37.0794 33.3313 31.3811C33.3733 30.9349 33.3897 30.441 33.4225 29.4532C33.4554 28.4654 33.4718 27.9716 33.5137 27.5253C34.0493 21.827 37.8192 16.9469 43.1975 14.9896C43.6187 14.8363 44.0925 14.6957 45.0399 14.4145L79.3947 4.21769C80.3421 3.93647 80.8159 3.79586 81.2525 3.69454C86.8277 2.40066 92.6496 4.43388 96.2072 8.91729C96.4858 9.2684 96.769 9.67335 97.3354 10.4833C97.9018 11.2932 98.185 11.6981 98.4636 12.0492C102.021 16.5327 107.843 18.5659 113.418 17.272C113.855 17.1707 114.36 17.0207 115.37 16.7209C117.992 15.9426 119.303 15.5535 120.382 15.3463C130.784 13.3483 141.151 18.9695 145.151 28.7772C145.566 29.7941 145.935 31.038 146.673 33.5258L163.162 89.0787C166.703 101.01 168.474 106.976 167.505 112.222C166.652 116.837 164.36 121.064 160.958 124.296C157.09 127.971 151.124 129.741 139.192 133.283L65.3375 155.204C53.406 158.745 47.4402 160.516 42.1938 159.546C37.5789 158.694 33.3524 156.402 30.1201 152.999C26.4454 149.131 24.6747 143.166 21.1334 131.234L4.64473 75.6812Z" stroke="#3C5AE7" stroke-opacity="0.5" stroke-width="5" stroke-linecap="round" stroke-linejoin="round"/>
<path d="M92.78 112.287C108.468 107.63 117.411 91.1381 112.755 75.45C108.098 59.762 91.6059 50.819 75.9178 55.4754C60.2298 60.1317 51.2868 76.6241 55.9432 92.3122C60.5995 108 77.0919 116.943 92.78 112.287Z" stroke="#3C5AE7" stroke-opacity="0.5" stroke-width="5" stroke-linecap="round" stroke-linejoin="round"/>
</svg>
