<svg width="40" height="40" viewBox="0 0 40 40" fill="none" xmlns="http://www.w3.org/2000/svg">
<path d="M36.6666 19.1666V24.3333C36.6666 28.067 36.6666 29.9338 35.94 31.3599C35.3009 32.6143 34.281 33.6342 33.0266 34.2734C31.6005 35 29.7337 35 26 35H14C10.2663 35 8.39945 35 6.97338 34.2734C5.71896 33.6342 4.69909 32.6143 4.05994 31.3599C3.33331 29.9338 3.33331 28.067 3.33331 24.3333V15.6666C3.33331 11.933 3.33331 10.0661 4.05994 8.64004C4.69909 7.38563 5.71896 6.36576 6.97338 5.7266C8.39945 4.99998 10.2663 4.99998 14 4.99998H20.8333M31.6666 13.3333V3.33331M26.6666 8.33331H36.6666M26.6666 20C26.6666 23.6819 23.6819 26.6666 20 26.6666C16.3181 26.6666 13.3333 23.6819 13.3333 20C13.3333 16.3181 16.3181 13.3333 20 13.3333C23.6819 13.3333 26.6666 16.3181 26.6666 20Z" stroke="#3A3D42" stroke-width="2" stroke-linecap="round" stroke-linejoin="round"/>
</svg>
