<svg width="135" height="101" viewBox="0 0 135 101" fill="none" xmlns="http://www.w3.org/2000/svg">
<path d="M52.0275 37.9636C56.3485 46.9633 62.2389 55.3982 69.6987 62.858C77.1585 70.3178 85.5934 76.2082 94.5931 80.5292C95.3673 80.9009 95.7543 81.0867 96.2441 81.2295C97.9846 81.7368 100.122 81.3724 101.596 80.3169C102.011 80.0199 102.366 79.665 103.075 78.9554C105.246 76.7849 106.331 75.6997 107.422 74.9901C111.538 72.3144 116.843 72.3144 120.959 74.9901C122.05 75.6997 123.135 76.7849 125.306 78.9554L126.515 80.1652C129.815 83.4645 131.465 85.1142 132.361 86.886C134.143 90.4096 134.143 94.5708 132.361 98.0944C131.465 99.8662 129.815 101.516 126.515 104.815L125.537 105.794C122.249 109.082 120.605 110.726 118.37 111.982C115.889 113.375 112.037 114.377 109.192 114.368C106.629 114.361 104.876 113.863 101.372 112.869C82.5398 107.523 64.7693 97.4382 49.9439 82.6128C35.1186 67.7874 25.0333 50.0169 19.6881 31.1846C18.6935 27.6803 18.1962 25.9282 18.1885 23.3645C18.1801 20.5197 19.1819 16.6675 20.5751 14.1872C21.8308 11.952 23.4748 10.308 26.7629 7.01989L27.7415 6.04124C31.0409 2.74187 32.6906 1.09219 34.4623 0.196046C37.9859 -1.58618 42.1472 -1.58618 45.6708 0.196044C47.4425 1.09218 49.0922 2.74187 52.3916 6.04124L53.6014 7.25105C55.7718 9.42153 56.8571 10.5068 57.5666 11.5981C60.2424 15.7135 60.2424 21.019 57.5666 25.1345C56.8571 26.2258 55.7718 27.311 53.6014 29.4815C52.8917 30.1911 52.5368 30.546 52.2398 30.9608C51.1843 32.4348 50.8199 34.5721 51.3273 36.3126C51.47 36.8024 51.6559 37.1895 52.0275 37.9636Z" stroke="#3C5AE7" stroke-opacity="0.1" stroke-width="6" stroke-linecap="round" stroke-linejoin="round"/>
</svg>
