<svg width="165" height="101" viewBox="0 0 165 101" fill="none" xmlns="http://www.w3.org/2000/svg">
<g clip-path="url(#clip0_5322_31178)">
<path d="M32.2324 63.1797L94.0036 69.2672C99.0057 69.7601 101.507 70.0066 103.732 69.395C105.698 68.8547 107.501 67.8402 108.983 66.4405C110.661 64.8558 111.749 62.5902 113.924 58.0591L140.787 2.10259M97.9857 119.082L154.434 87.3218C163.554 82.1908 168.113 79.6253 170.598 75.8908C172.784 72.6058 173.873 68.7133 173.71 64.771C173.525 60.2893 170.96 55.7296 165.829 46.6101L146.284 11.8725C141.153 2.75306 138.588 -1.80667 134.853 -4.2913C131.568 -6.47683 127.676 -7.56631 123.733 -7.40358C119.252 -7.21858 114.692 -4.6531 105.573 0.477862L49.124 32.238C40.0045 37.3689 35.4448 39.9344 32.9602 43.6689C30.7746 46.9539 29.6851 50.8465 29.8479 54.7887C30.0329 59.2705 32.5984 63.8302 37.7293 72.9497L57.274 107.687C62.405 116.807 64.9704 121.366 68.705 123.851C71.99 126.037 75.8825 127.126 79.8248 126.963C84.3065 126.778 88.8662 124.213 97.9857 119.082Z" stroke="#3C5AE7" stroke-opacity="0.1" stroke-width="6" stroke-linecap="round" stroke-linejoin="round"/>
</g>
<defs>
<clipPath id="clip0_5322_31178">
<rect width="149.469" height="149.469" fill="white" transform="translate(0 31.293) rotate(-29.3638)"/>
</clipPath>
</defs>
</svg>
