<svg width="50" height="50" viewBox="0 0 50 50" fill="none" xmlns="http://www.w3.org/2000/svg">
<path d="M18.75 31.2498H31.25M43.75 16.6665H6.25M33.3333 4.1665V10.4165M16.6667 4.1665V10.4165M16.25 45.8332H33.75C37.2503 45.8332 39.0005 45.8332 40.3374 45.152C41.5135 44.5528 42.4696 43.5966 43.0688 42.4206C43.75 41.0837 43.75 39.3335 43.75 35.8332V18.3332C43.75 14.8328 43.75 13.0827 43.0688 11.7457C42.4696 10.5697 41.5135 9.61359 40.3374 9.01438C39.0005 8.33317 37.2503 8.33317 33.75 8.33317H16.25C12.7497 8.33317 10.9995 8.33317 9.66256 9.01438C8.48655 9.61359 7.53042 10.5697 6.93121 11.7457C6.25 13.0827 6.25 14.8328 6.25 18.3332V35.8332C6.25 39.3335 6.25 41.0837 6.93121 42.4206C7.53042 43.5966 8.48655 44.5528 9.66256 45.152C10.9995 45.8332 12.7497 45.8332 16.25 45.8332Z" stroke="#3C5AE7" stroke-width="2" stroke-linecap="round" stroke-linejoin="round"/>
</svg>
