<svg width="21" height="21" viewBox="0 0 21 21" fill="none" xmlns="http://www.w3.org/2000/svg">
<path d="M12.25 9.625H7M8.75 13.125H7M14 6.125H7M17.5 5.95V15.05C17.5 16.5201 17.5 17.2552 17.2139 17.8167C16.9622 18.3106 16.5607 18.7122 16.0667 18.9639C15.5052 19.25 14.7701 19.25 13.3 19.25H7.7C6.22986 19.25 5.49479 19.25 4.93327 18.9639C4.43935 18.7122 4.03778 18.3106 3.78611 17.8167C3.5 17.2552 3.5 16.5201 3.5 15.05V5.95C3.5 4.47986 3.5 3.74479 3.78611 3.18327C4.03778 2.68935 4.43935 2.28778 4.93327 2.03611C5.49479 1.75 6.22986 1.75 7.7 1.75H13.3C14.7701 1.75 15.5052 1.75 16.0667 2.03611C16.5607 2.28778 16.9622 2.68935 17.2139 3.18327C17.5 3.74479 17.5 4.47986 17.5 5.95Z" stroke="white" stroke-linecap="round" stroke-linejoin="round"/>
</svg>
