<svg width="55" height="55" viewBox="0 0 55 55" fill="none" xmlns="http://www.w3.org/2000/svg">
<path d="M18.5625 48.6315C15.3774 44.086 13.5037 38.5558 13.5037 32.5845C13.5037 24.8516 19.7689 18.584 27.4972 18.584C35.2255 18.584 41.4908 24.8516 41.4908 32.5845" stroke="white" stroke-width="2" stroke-linecap="round" stroke-linejoin="round"/>
<path d="M18.5628 48.6315C15.3776 44.086 13.5039 38.5558 13.5039 32.5845C13.5039 24.8516 19.7692 18.584 27.4975 18.584C35.2258 18.584 41.491 24.8516 41.491 32.5845" stroke="white" stroke-width="2" stroke-linecap="round" stroke-linejoin="round"/>
<path d="M42.2492 46.5477C41.9972 46.5617 41.7498 46.585 41.4955 46.585C33.7672 46.585 27.502 40.3174 27.502 32.5845" stroke="white" stroke-width="2" stroke-linecap="round" stroke-linejoin="round"/>
<path d="M42.2494 46.5479C41.9974 46.5619 41.7501 46.5853 41.4957 46.5853C33.7674 46.5853 27.5022 40.3177 27.5022 32.5847" stroke="white" stroke-width="2" stroke-linecap="round" stroke-linejoin="round"/>
<path d="M30.4091 50.4163C24.4635 46.7085 20.5037 40.1096 20.5037 32.5843C20.5037 28.7178 23.6375 25.584 27.5016 25.584C31.3658 25.584 34.4995 28.7178 34.4995 32.5843C34.4995 36.4508 37.6333 39.5846 41.4975 39.5846C45.3616 39.5846 48.4954 36.4508 48.4954 32.5843C48.4954 20.9849 39.0964 11.5835 27.5039 11.5835C15.9115 11.5835 6.51245 20.9849 6.51245 32.5843C6.51245 35.1698 6.8018 37.6875 7.33382 40.1143" stroke="white" stroke-width="2" stroke-linecap="round" stroke-linejoin="round"/>
<path d="M30.4091 50.4166C24.4635 46.7088 20.5037 40.1099 20.5037 32.5846C20.5037 28.7181 23.6375 25.5843 27.5016 25.5843C31.3658 25.5843 34.4995 28.7181 34.4995 32.5846C34.4995 36.451 37.6333 39.5848 41.4975 39.5848C45.3616 39.5848 48.4954 36.451 48.4954 32.5846C48.4954 20.9851 39.0964 11.5837 27.5039 11.5837C15.9115 11.5837 6.51245 20.9851 6.51245 32.5846C6.51245 35.17 6.8018 37.6878 7.33382 40.1145" stroke="white" stroke-width="2" stroke-linecap="round" stroke-linejoin="round"/>
<path d="M47.0382 13.4363C42.2663 8.01572 35.2894 4.58325 27.5004 4.58325C19.7114 4.58325 12.7345 8.01572 7.96265 13.4363" stroke="white" stroke-width="2" stroke-linecap="round" stroke-linejoin="round"/>
<path d="M47.0382 13.4363C42.2663 8.01572 35.2894 4.58325 27.5004 4.58325C19.7114 4.58325 12.7345 8.01572 7.96265 13.4363" stroke="white" stroke-width="2" stroke-linecap="round" stroke-linejoin="round"/>
</svg>
