<svg width="48" height="48" viewBox="0 0 48 48" fill="none" xmlns="http://www.w3.org/2000/svg">
<path opacity="0.3" d="M22.3397 9.13993C22.7292 10.1057 23.3977 10.9335 24.2597 11.5177C25.1218 12.1019 26.1384 12.416 27.1797 12.4199H33.1797C35.0687 12.4457 36.9163 12.9768 38.5306 13.9581C40.145 14.9394 41.4671 16.335 42.3597 17.9999C42.182 15.2071 40.9484 12.5866 38.9092 10.67C36.8701 8.75344 34.1782 7.68444 31.3797 7.67993H21.7197L22.3397 9.13993Z" fill="#DCE2FF"/>
<path d="M33.3199 12.2199H27.3199C26.2818 12.2244 25.2664 11.9157 24.4065 11.3341C23.5466 10.7525 22.8821 9.92507 22.4999 8.95988L21.9999 7.27988C21.6088 6.29491 20.9261 5.45293 20.0432 4.86673C19.1603 4.28052 18.1194 3.97807 17.0599 3.99988H13.0599C11.8553 3.99725 10.662 4.23224 9.54836 4.6914C8.43471 5.15055 7.42256 5.82485 6.56985 6.6757C5.71715 7.52655 5.04064 8.53723 4.57905 9.64987C4.11747 10.7625 3.87988 11.9553 3.87988 13.1599V33.4399C3.87988 34.8266 4.15303 36.1998 4.68371 37.481C5.2144 38.7622 5.99225 39.9263 6.97284 40.9069C8.95322 42.8873 11.6392 43.9999 14.4399 43.9999H33.3199C34.7074 44.0025 36.0817 43.7312 37.3641 43.2014C38.6465 42.6717 39.8117 41.8939 40.7928 40.9128C41.7739 39.9317 42.5517 38.7665 43.0814 37.4841C43.6112 36.2017 43.8825 34.8274 43.8799 33.4399V22.7799C43.8799 19.9792 42.7673 17.2932 40.7869 15.3128C38.8065 13.3324 36.1206 12.2199 33.3199 12.2199ZM30.8799 30.4999L25.2799 35.2599C24.982 35.5071 24.607 35.6424 24.2199 35.6424C23.8328 35.6424 23.4578 35.5071 23.1599 35.2599L21.8199 34.1999L17.1599 30.5399C16.8788 30.2957 16.6986 29.9558 16.6542 29.5862C16.6099 29.2165 16.7046 28.8436 16.9199 28.5399C17.1614 28.2548 17.5018 28.0716 17.8728 28.0271C18.2437 27.9826 18.6178 28.0801 18.9199 28.2999L22.6199 31.2199V21.0199C22.6199 20.6221 22.7779 20.2405 23.0592 19.9592C23.3405 19.6779 23.7221 19.5199 24.1199 19.5199C24.5177 19.5199 24.8992 19.6779 25.1805 19.9592C25.4618 20.2405 25.6199 20.6221 25.6199 21.0199V31.0199L28.8399 28.2599C29.1348 28.0329 29.5044 27.9254 29.8751 27.9588C30.2457 27.9922 30.5902 28.1639 30.8399 28.4399C31.1129 28.7108 31.2697 29.0773 31.2772 29.4618C31.2847 29.8463 31.1422 30.2186 30.8799 30.4999Z" fill="#DCE2FF"/>
</svg>
