<svg width="74" height="74" viewBox="0 0 74 74" fill="none" xmlns="http://www.w3.org/2000/svg">
<path opacity="0.3" d="M34.1036 13.9404C34.6853 15.4158 35.6976 16.682 37.0087 17.5742C38.3198 18.4664 39.8692 18.9434 41.4551 18.9431H50.6063C53.4881 18.9793 56.3074 19.788 58.7701 21.2849C61.2329 22.7819 63.2488 24.9122 64.6077 27.4538C64.3438 23.1916 62.4644 19.1905 59.3528 16.2658C56.2411 13.3412 52.1313 11.7132 47.861 11.7136H33.1274L34.1036 13.9404Z" fill="#DCE2FF"/>
<path d="M51.0027 18.6381H41.8515C40.2682 18.645 38.7196 18.1742 37.408 17.2871C36.0965 16.4 35.083 15.138 34.5 13.6659L33.5544 11.1035C32.9657 9.63296 31.9517 8.3714 30.6421 7.48023C29.3325 6.58906 27.7869 6.1088 26.2029 6.10086H20.102C18.2648 6.09685 16.4448 6.45526 14.7462 7.15557C13.0477 7.85588 11.5039 8.88433 10.2034 10.182C8.90283 11.4798 7.87101 13.0213 7.167 14.7183C6.46299 16.4153 6.10061 18.2345 6.10061 20.0718V51.003C6.0966 53.1192 6.51045 55.2154 7.31844 57.1713C8.12643 59.1272 9.31265 60.9044 10.809 62.4008C12.3054 63.8972 14.0826 65.0834 16.0385 65.8914C17.9944 66.6994 20.0906 67.1132 22.2068 67.1092H51.0027C53.119 67.1132 55.2152 66.6994 57.1711 65.8914C59.127 65.0834 60.9041 63.8972 62.4005 62.4008C63.8969 60.9044 65.0831 59.1272 65.8911 57.1713C66.6991 55.2154 67.113 53.1192 67.1089 51.003V34.7443C67.1089 32.6292 66.6923 30.5348 65.8829 28.5807C65.0735 26.6266 63.8871 24.8511 62.3915 23.3555C60.896 21.8599 59.1204 20.6735 57.1663 19.8641C55.2122 19.0547 53.1178 18.6381 51.0027 18.6381ZM47.5253 40.6926C47.1294 41.1523 46.5691 41.4386 45.9646 41.4899C45.3601 41.5412 44.7595 41.3535 44.2918 40.9671L39.4112 36.7576V52.0096C39.4112 52.6164 39.1701 53.1983 38.7411 53.6274C38.312 54.0564 37.7301 54.2974 37.1234 54.2974C36.5166 54.2974 35.9347 54.0564 35.5056 53.6274C35.0766 53.1983 34.8355 52.6164 34.8355 52.0096V36.605L29.1923 40.9976C28.9619 41.2151 28.6889 41.3823 28.3905 41.4888C28.0921 41.5952 27.7748 41.6385 27.4588 41.6159C27.1428 41.5934 26.835 41.5054 26.5547 41.3576C26.2745 41.2099 26.028 41.0055 25.8309 40.7575C25.6338 40.5095 25.4903 40.2233 25.4096 39.9169C25.3288 39.6106 25.3126 39.2908 25.3619 38.9779C25.4112 38.6649 25.525 38.3656 25.696 38.099C25.867 37.8323 26.0915 37.604 26.3554 37.4286L33.5544 31.7854L35.6286 30.1687C36.083 29.7916 36.6549 29.5853 37.2454 29.5853C37.8358 29.5853 38.4077 29.7916 38.8621 30.1687L47.4033 37.4286C47.6319 37.631 47.8171 37.8777 47.9476 38.1537C48.0782 38.4297 48.1514 38.7294 48.1628 39.0345C48.1742 39.3396 48.1235 39.6439 48.014 39.9289C47.9044 40.2139 47.7381 40.4737 47.5253 40.6926Z" fill="#DCE2FF"/>
</svg>
