<svg width="223" height="150" viewBox="0 0 223 150" fill="none" xmlns="http://www.w3.org/2000/svg">
<g clip-path="url(#clip0_2850_2609)">
<path d="M134.278 34.8267C141.078 30.8069 144.478 28.797 147.709 27.8954C156.478 25.4487 165.886 27.866 172.389 34.2366C174.785 36.5841 176.795 39.984 180.815 46.7837L220.582 114.052C227.844 126.337 231.475 132.479 231.859 138.585C232.196 143.955 230.824 149.295 227.939 153.838C224.661 159.002 218.518 162.634 206.233 169.896L159.438 197.56C147.153 204.822 141.011 208.454 134.905 208.837C129.535 209.174 124.195 207.802 119.652 204.918C114.488 201.639 110.856 195.496 103.594 183.212L63.827 115.943C59.8072 109.144 57.7973 105.744 56.8957 102.513C54.449 93.7439 56.8663 84.3359 63.2369 77.8327C65.5845 75.4362 68.9843 73.4263 75.784 69.4065M96.1278 77.1141L131.224 56.3661C135.319 53.9453 137.367 52.7349 138.46 51.0133C139.421 49.499 139.878 47.7192 139.766 45.929C139.638 43.8938 138.428 41.8463 136.007 37.7514L132.549 31.902C130.128 27.807 128.918 25.7595 127.196 24.6666C125.682 23.7052 123.902 23.2479 122.112 23.3602C120.077 23.4879 118.029 24.6983 113.934 27.1192L78.8379 47.8671C74.7429 50.2879 72.6954 51.4983 71.6025 53.2199C70.6411 54.7342 70.1838 56.514 70.2961 58.3042C70.4238 60.3394 71.6342 62.3869 74.055 66.4819L77.513 72.3312C79.9338 76.4262 81.1443 78.4737 82.8658 79.5666C84.3801 80.528 86.16 80.9853 87.9502 80.873C89.9854 80.7453 92.0328 79.5349 96.1278 77.1141Z" stroke="#3C5AE7" stroke-opacity="0.3" stroke-width="3" stroke-linecap="round" stroke-linejoin="round"/>
</g>
<defs>
<clipPath id="clip0_2850_2609">
<rect width="203.852" height="203.852" fill="white" transform="translate(0 74.7395) rotate(-30.5903)"/>
</clipPath>
</defs>
</svg>
