<svg width="15" height="15" viewBox="0 0 15 15" fill="none" xmlns="http://www.w3.org/2000/svg">
<path d="M9.375 13.125V9.75C9.375 9.39997 9.375 9.22495 9.30688 9.09126C9.24696 8.97365 9.15135 8.87804 9.03374 8.81812C8.90005 8.75 8.72503 8.75 8.375 8.75H6.625C6.27497 8.75 6.09995 8.75 5.96626 8.81812C5.84865 8.87804 5.75304 8.97365 5.69312 9.09126C5.625 9.22495 5.625 9.39997 5.625 9.75V13.125M1.875 4.375C1.875 5.41053 2.71447 6.25 3.75 6.25C4.78553 6.25 5.625 5.41053 5.625 4.375C5.625 5.41053 6.46447 6.25 7.5 6.25C8.53553 6.25 9.375 5.41053 9.375 4.375C9.375 5.41053 10.2145 6.25 11.25 6.25C12.2855 6.25 13.125 5.41053 13.125 4.375M3.875 13.125H11.125C11.8251 13.125 12.1751 13.125 12.4425 12.9888C12.6777 12.8689 12.8689 12.6777 12.9888 12.4425C13.125 12.1751 13.125 11.8251 13.125 11.125V3.875C13.125 3.17493 13.125 2.8249 12.9888 2.55751C12.8689 2.32231 12.6777 2.13108 12.4425 2.01124C12.1751 1.875 11.8251 1.875 11.125 1.875H3.875C3.17493 1.875 2.8249 1.875 2.55751 2.01124C2.32231 2.13108 2.13108 2.32231 2.01124 2.55751C1.875 2.8249 1.875 3.17493 1.875 3.875V11.125C1.875 11.8251 1.875 12.1751 2.01124 12.4425C2.13108 12.6777 2.32231 12.8689 2.55751 12.9888C2.8249 13.125 3.17493 13.125 3.875 13.125Z" stroke="#3C5AE7" stroke-linecap="round" stroke-linejoin="round"/>
</svg>
