<svg width="73" height="73" viewBox="0 0 73 73" fill="none" xmlns="http://www.w3.org/2000/svg">
<path d="M27.6486 27.375C28.3637 25.3421 29.7752 23.628 31.633 22.5361C33.4909 21.4442 35.6752 21.0451 37.7991 21.4094C39.9231 21.7737 41.8495 22.8779 43.2373 24.5265C44.6251 26.1751 45.3847 28.2617 45.3815 30.4166C45.3815 36.5 36.2565 39.5416 36.2565 39.5416M36.4999 51.7083H36.5303M6.08325 25.9233V47.0767C6.08325 47.8206 6.08325 48.1926 6.16729 48.5427C6.2418 48.853 6.3647 49.1497 6.53147 49.4219C6.71957 49.7288 6.9826 49.9919 7.50867 50.5179L22.482 65.4913C23.0081 66.0173 23.2711 66.2804 23.5781 66.4685C23.8502 66.6352 24.1469 66.7581 24.4573 66.8326C24.8073 66.9167 25.1793 66.9167 25.9233 66.9167H47.0766C47.8205 66.9167 48.1925 66.9167 48.5426 66.8326C48.8529 66.7581 49.1496 66.6352 49.4218 66.4685C49.7287 66.2804 49.9918 66.0173 50.5178 65.4913L65.4912 50.5179C66.0172 49.9919 66.2803 49.7288 66.4684 49.4219C66.6351 49.1497 66.758 48.853 66.8325 48.5427C66.9166 48.1926 66.9166 47.8206 66.9166 47.0767V25.9233C66.9166 25.1794 66.9166 24.8074 66.8325 24.4573C66.758 24.147 66.6351 23.8503 66.4684 23.5781C66.2803 23.2712 66.0172 23.0082 65.4912 22.4821L50.5178 7.50876C49.9918 6.9827 49.7287 6.71966 49.4218 6.53156C49.1496 6.36479 48.8529 6.2419 48.5426 6.16738C48.1925 6.08334 47.8205 6.08334 47.0766 6.08334H25.9233C25.1793 6.08334 24.8073 6.08334 24.4573 6.16738C24.1469 6.2419 23.8502 6.36479 23.5781 6.53156C23.2711 6.71967 23.0081 6.9827 22.482 7.50876L7.50867 22.4821C6.9826 23.0082 6.71957 23.2712 6.53147 23.5781C6.3647 23.8503 6.2418 24.147 6.16729 24.4573C6.08325 24.8074 6.08325 25.1794 6.08325 25.9233Z" stroke="#DF2D2D" stroke-width="2" stroke-linecap="round" stroke-linejoin="round"/>
</svg>
