<svg width="163" height="102" viewBox="0 0 163 102" fill="none" xmlns="http://www.w3.org/2000/svg">
<g opacity="0.2">
<path d="M68.175 67.5C69.9383 62.4875 73.4186 58.2608 77.9997 55.5685C82.5807 52.8762 87.9667 51.892 93.2038 52.7903C98.4409 53.6886 103.191 56.4114 106.613 60.4765C110.035 64.5415 111.908 69.6864 111.9 75C111.9 90 89.4 97.5 89.4 97.5M90 127.5H90.075M165 90C165 131.421 131.421 165 90 165C48.5786 165 15 131.421 15 90C15 48.5786 48.5786 15 90 15C131.421 15 165 48.5786 165 90Z" stroke="#3C5AE7" stroke-width="5" stroke-linecap="round" stroke-linejoin="round"/>
</g>
</svg>
