<svg width="19" height="19" viewBox="0 0 19 19" fill="none" xmlns="http://www.w3.org/2000/svg">
<path d="M9.49996 9.49992L6.11726 6.681C5.61467 6.26218 5.36337 6.05276 5.18271 5.79606C5.02264 5.5686 4.90377 5.3148 4.83151 5.04622C4.74996 4.7431 4.74996 4.41599 4.74996 3.76176V1.58325M9.49996 9.49992L12.8827 6.681C13.3853 6.26218 13.6365 6.05276 13.8172 5.79606C13.9773 5.5686 14.0961 5.3148 14.1684 5.04622C14.25 4.7431 14.25 4.41599 14.25 3.76176V1.58325M9.49996 9.49992L6.11726 12.3188C5.61467 12.7377 5.36337 12.9471 5.18271 13.2038C5.02264 13.4312 4.90377 13.685 4.83151 13.9536C4.74996 14.2567 4.74996 14.5838 4.74996 15.2381V17.4166M9.49996 9.49992L12.8827 12.3188C13.3853 12.7377 13.6365 12.9471 13.8172 13.2038C13.9773 13.4312 14.0961 13.685 14.1684 13.9536C14.25 14.2567 14.25 14.5838 14.25 15.2381V17.4166M3.16663 1.58325H15.8333M3.16663 17.4166H15.8333" stroke="#B06832" stroke-linecap="round" stroke-linejoin="round"/>
</svg>
