<svg width="21" height="21" viewBox="0 0 21 21" fill="none" xmlns="http://www.w3.org/2000/svg">
<path d="M5.24963 17.5004L13.0101 9.73995C13.3566 9.39344 13.5298 9.22018 13.7296 9.15526C13.9053 9.09816 14.0947 9.09816 14.2704 9.15526C14.4702 9.22018 14.6434 9.39344 14.9899 9.73995L18.7296 13.4796M9.1875 7.4375C9.1875 8.404 8.404 9.1875 7.4375 9.1875C6.471 9.1875 5.6875 8.404 5.6875 7.4375C5.6875 6.471 6.471 5.6875 7.4375 5.6875C8.404 5.6875 9.1875 6.471 9.1875 7.4375ZM19.25 10.5C19.25 15.3325 15.3325 19.25 10.5 19.25C5.66751 19.25 1.75 15.3325 1.75 10.5C1.75 5.66751 5.66751 1.75 10.5 1.75C15.3325 1.75 19.25 5.66751 19.25 10.5Z" stroke="white" stroke-linecap="round" stroke-linejoin="round"/>
</svg>
