<svg width="86" height="86" viewBox="0 0 86 86" fill="none" xmlns="http://www.w3.org/2000/svg">
<path d="M61.875 2.0415L83.9583 24.1248M83.9583 2.0415L61.875 24.1248M44.2083 4.24984H23.45C16.0293 4.24984 12.319 4.24984 9.48463 5.694C6.99148 6.96432 4.96449 8.99132 3.69416 11.4845C2.25 14.3188 2.25 18.0291 2.25 25.4498V62.5498C2.25 69.9705 2.25 73.6809 3.69416 76.5152C4.96449 79.0084 6.99148 81.0354 9.48463 82.3057C12.319 83.7498 16.0293 83.7498 23.45 83.7498H64.0833C68.1907 83.7498 70.2444 83.7498 71.9294 83.2984C76.5018 82.0732 80.0733 78.5017 81.2985 73.9292C81.75 72.2442 81.75 70.1906 81.75 66.0832M35.375 28.5415C35.375 33.42 31.4202 37.3748 26.5417 37.3748C21.6632 37.3748 17.7083 33.42 17.7083 28.5415C17.7083 23.663 21.6632 19.7082 26.5417 19.7082C31.4202 19.7082 35.375 23.663 35.375 28.5415ZM55.206 43.6383L17.8459 77.6021C15.7445 79.5124 14.6938 80.4676 14.6009 81.295C14.5203 82.0122 14.7953 82.7236 15.3374 83.2001C15.9628 83.7498 17.3827 83.7498 20.2227 83.7498H61.6806C68.0369 83.7498 71.2151 83.7498 73.7113 82.682C76.845 81.3415 79.3416 78.8449 80.6822 75.7111C81.75 73.2149 81.75 70.0367 81.75 63.6804C81.75 61.5417 81.75 60.4724 81.5162 59.4765C81.2224 58.225 80.659 57.0527 79.8652 56.0414C79.2336 55.2367 78.3986 54.5687 76.7286 53.2327L64.3741 43.3491C62.7026 42.0119 61.8669 41.3434 60.9466 41.1074C60.1354 40.8994 59.2818 40.9264 58.4854 41.1851C57.5818 41.4785 56.7898 42.1985 55.206 43.6383Z" stroke="#3C5AE7" stroke-width="4" stroke-linecap="round" stroke-linejoin="round"/>
</svg>
