<svg width="157" height="140" viewBox="0 0 157 140" fill="none" xmlns="http://www.w3.org/2000/svg">
<g clip-path="url(#clip0_4160_2251)">
<path d="M107.755 -11.6613L116.657 18.6877C117.864 22.8026 118.468 24.8601 119.73 26.1969C120.84 27.3728 122.293 28.1671 123.883 28.466C125.689 28.8058 127.747 28.2023 131.862 26.9953L162.211 18.0934M145.576 62.87L86.7966 80.1112M154.197 92.2598L95.4172 109.501M92.8709 46.4111L78.176 50.7214M107.175 -13.6416L68.9678 -2.43484C56.623 1.18616 50.4505 2.99667 46.4401 6.78218C42.9124 10.112 40.5295 14.4732 39.6328 19.2406C38.6133 24.6604 40.4238 30.8328 44.0448 43.1777L66.4584 119.591C70.0794 131.936 71.8899 138.108 75.6755 142.119C79.0053 145.647 83.3664 148.03 88.1338 148.926C93.5536 149.946 99.7261 148.135 112.071 144.514L159.095 130.721C171.44 127.1 177.612 125.29 181.622 121.504C185.15 118.174 187.533 113.813 188.43 109.046C189.449 103.626 187.639 97.4535 184.018 85.1087L164.19 17.5121L107.175 -13.6416Z" stroke="#3C5AE7" stroke-opacity="0.25" stroke-width="5" stroke-linecap="round" stroke-linejoin="round"/>
</g>
<defs>
<clipPath id="clip0_4160_2251">
<rect width="183.768" height="183.768" fill="white" transform="translate(0 1.83569) rotate(-16.3475)"/>
</clipPath>
</defs>
</svg>
