<svg width="28" height="28" viewBox="0 0 28 28" fill="none" xmlns="http://www.w3.org/2000/svg">
<path d="M20.7667 11.6667C22.0735 11.6667 22.7268 11.6667 23.226 11.4123C23.665 11.1886 24.022 10.8317 24.2457 10.3926C24.5 9.89352 24.5 9.24012 24.5 7.93333V7.23333C24.5 5.92654 24.5 5.27315 24.2457 4.77402C24.022 4.33498 23.665 3.97802 23.226 3.75432C22.7269 3.5 22.0735 3.5 20.7667 3.5L7.23333 3.5C5.92654 3.5 5.27315 3.5 4.77402 3.75432C4.33498 3.97802 3.97802 4.33498 3.75432 4.77402C3.5 5.27315 3.5 5.92654 3.5 7.23333L3.5 7.93333C3.5 9.24012 3.5 9.89352 3.75432 10.3926C3.97802 10.8317 4.33498 11.1886 4.77402 11.4123C5.27315 11.6667 5.92654 11.6667 7.23333 11.6667L20.7667 11.6667Z" stroke="white" stroke-width="2" stroke-linecap="round" stroke-linejoin="round"/>
<path d="M20.7667 24.5C22.0735 24.5 22.7268 24.5 23.226 24.2457C23.665 24.022 24.022 23.665 24.2457 23.226C24.5 22.7269 24.5 22.0735 24.5 20.7667V20.0667C24.5 18.7599 24.5 18.1065 24.2457 17.6074C24.022 17.1683 23.665 16.8114 23.226 16.5877C22.7269 16.3333 22.0735 16.3333 20.7667 16.3333L7.23333 16.3333C5.92654 16.3333 5.27315 16.3333 4.77402 16.5877C4.33498 16.8114 3.97802 17.1683 3.75432 17.6074C3.5 18.1065 3.5 18.7599 3.5 20.0667L3.5 20.7667C3.5 22.0735 3.5 22.7268 3.75432 23.226C3.97802 23.665 4.33498 24.022 4.77402 24.2457C5.27315 24.5 5.92654 24.5 7.23333 24.5H20.7667Z" stroke="white" stroke-width="2" stroke-linecap="round" stroke-linejoin="round"/>
</svg>
