<svg width="28" height="19" viewBox="0 0 28 19" fill="none" xmlns="http://www.w3.org/2000/svg">
<path d="M0.905 4.36527C1.509 2.84827 2.363 1.51127 3.47 0.350273C3.683 0.111273 3.925 -0.00572699 4.195 0.00127298C4.465 0.00727254 4.693 0.114273 4.88 0.321273C5.059 0.514273 5.134 0.742273 5.104 1.00627C5.074 1.26927 4.96 1.51127 4.759 1.73027C3.82 2.71027 3.105 3.83827 2.615 5.11527C2.125 6.39127 1.88 7.74627 1.88 9.17927C1.88 10.6193 2.125 11.9753 2.615 13.2493C3.105 14.5213 3.82 15.6483 4.759 16.6283C4.96 16.8473 5.074 17.0903 5.104 17.3533C5.134 17.6163 5.059 17.8443 4.88 18.0383C4.693 18.2443 4.465 18.3493 4.195 18.3523C3.925 18.3563 3.683 18.2443 3.47 18.0173C2.363 16.8583 1.509 15.5183 0.905 13.9993C0.302 12.4783 0 10.8723 0 9.17927C0 7.48627 0.302 5.88127 0.905 4.36527Z" fill="#FE1212" fill-opacity="0.5"/>
<path d="M4.31922 5.7193C4.73222 4.6193 5.32922 3.6513 6.10922 2.8113C6.31622 2.5713 6.56022 2.4483 6.84322 2.4413C7.12722 2.4343 7.36222 2.5403 7.54822 2.7603C7.72922 2.9733 7.80322 3.2063 7.77422 3.4603C7.74322 3.7133 7.62222 3.9543 7.40822 4.1803C6.80922 4.8543 6.35222 5.6153 6.03922 6.4653C5.72522 7.3153 5.56922 8.2193 5.56922 9.1783C5.56922 10.1383 5.72522 11.0433 6.03922 11.8933C6.35222 12.7433 6.80922 13.5043 7.40822 14.1783C7.62222 14.4053 7.74322 14.6453 7.77422 14.8983C7.80322 15.1513 7.72922 15.3813 7.54822 15.5873C7.36222 15.8153 7.12722 15.9243 6.84322 15.9173C6.56022 15.9103 6.31622 15.7853 6.10922 15.5383C5.32922 14.6993 4.73222 13.7303 4.31922 12.6333C3.90622 11.5363 3.69922 10.3853 3.69922 9.1783C3.69922 7.9723 3.90622 6.8193 4.31922 5.7193Z" fill="#FE1212" fill-opacity="0.5"/>
<path d="M7.71867 7.19429C7.93867 6.55729 8.25567 5.98329 8.66867 5.46929C8.86167 5.20929 9.10667 5.07229 9.40367 5.05929C9.69967 5.04629 9.94567 5.15229 10.1387 5.37929C10.3117 5.57929 10.3797 5.80129 10.3437 6.04429C10.3067 6.28729 10.1977 6.53629 10.0187 6.78929C9.77167 7.11529 9.58367 7.48129 9.45367 7.88429C9.32367 8.28729 9.25767 8.71829 9.25767 9.17829C9.25767 9.63829 9.32367 10.0703 9.45367 10.4743C9.58367 10.8763 9.77167 11.2413 10.0187 11.5693C10.1977 11.8213 10.3067 12.0693 10.3437 12.3133C10.3797 12.5573 10.3117 12.7773 10.1387 12.9783C9.94567 13.2043 9.69967 13.3123 9.40367 13.2983C9.10667 13.2843 8.86167 13.1483 8.66867 12.8883C8.25567 12.3753 7.93867 11.8003 7.71867 11.1633C7.49867 10.5273 7.38867 9.86529 7.38867 9.17829C7.38867 8.49229 7.49867 7.83029 7.71867 7.19429Z" fill="#FE1212" fill-opacity="0.5"/>
<path d="M12.3326 11.3793C11.9496 11.1463 11.6416 10.8373 11.4076 10.4503C11.1746 10.0643 11.0586 9.6363 11.0586 9.1703C11.0586 8.7033 11.1746 8.2793 11.4076 7.8963C11.6416 7.5123 11.9496 7.2043 12.3326 6.9713C12.7156 6.7373 13.1356 6.6203 13.5886 6.6203C14.0416 6.6203 14.4586 6.7373 14.8426 6.9713C15.2256 7.2043 15.5336 7.5123 15.7676 7.8963C16.0006 8.2793 16.1166 8.7033 16.1166 9.1703C16.1166 9.6363 16.0006 10.0643 15.7676 10.4503C15.5336 10.8373 15.2256 11.1463 14.8426 11.3793C14.4586 11.6123 14.0416 11.7303 13.5886 11.7303C13.1356 11.7303 12.7156 11.6123 12.3326 11.3793Z" fill="#FE1212" fill-opacity="0.5"/>
<path d="M19.4523 11.1643C19.2283 11.8013 18.9143 12.3773 18.5073 12.8903C18.3073 13.1493 18.0603 13.2863 17.7673 13.3003C17.4733 13.3133 17.2303 13.2063 17.0373 12.9793C16.8503 12.7793 16.7773 12.5583 16.8173 12.3133C16.8573 12.0703 16.9683 11.8223 17.1473 11.5693C17.4003 11.2423 17.5923 10.8783 17.7233 10.4763C17.8523 10.0723 17.9173 9.63932 17.9173 9.17932C17.9173 8.71932 17.8523 8.28932 17.7233 7.88632C17.5923 7.48232 17.4003 7.11632 17.1473 6.78932C16.9683 6.53732 16.8573 6.28832 16.8173 6.04532C16.7773 5.80232 16.8503 5.58132 17.0373 5.38132C17.2303 5.15432 17.4733 5.04732 17.7673 5.06032C18.0603 5.07332 18.3073 5.21032 18.5073 5.47032C18.9143 5.98332 19.2283 6.55932 19.4523 7.19632C19.6753 7.83232 19.7873 8.49332 19.7873 9.17932C19.7873 9.86632 19.6753 10.5273 19.4523 11.1643Z" fill="#FE1212" fill-opacity="0.5"/>
<path d="M22.8569 12.6333C22.4439 13.7303 21.8469 14.6983 21.0669 15.5383C20.8539 15.7853 20.6069 15.9103 20.3279 15.9173C20.0469 15.9243 19.8139 15.8153 19.6279 15.5873C19.4479 15.3813 19.3729 15.1513 19.4029 14.8983C19.4319 14.6453 19.5499 14.4043 19.7569 14.1783C20.3569 13.5043 20.8159 12.7433 21.1319 11.8933C21.4489 11.0433 21.6069 10.1383 21.6069 9.1783C21.6069 8.2193 21.4489 7.3153 21.1319 6.4653C20.8159 5.6153 20.3569 4.8543 19.7569 4.1803C19.5499 3.9543 19.4319 3.7133 19.4029 3.4603C19.3729 3.2063 19.4479 2.9743 19.6279 2.7603C19.8139 2.5413 20.0469 2.4343 20.3279 2.4413C20.6069 2.4473 20.8539 2.5713 21.0669 2.8113C21.8469 3.6513 22.4439 4.6193 22.8569 5.7193C23.2699 6.8193 23.4769 7.9723 23.4769 9.1783C23.4769 10.3853 23.2699 11.5363 22.8569 12.6333Z" fill="#FE1212" fill-opacity="0.5"/>
<path d="M26.2659 13.9983C25.6599 15.5183 24.8059 16.8573 23.7059 18.0173C23.4939 18.2433 23.2499 18.3553 22.9769 18.3523C22.7029 18.3493 22.4769 18.2433 22.2969 18.0373C22.1169 17.8443 22.0419 17.6153 22.0719 17.3523C22.1019 17.0893 22.2169 16.8473 22.4159 16.6273C23.3499 15.6473 24.0629 14.5203 24.5559 13.2483C25.0499 11.9753 25.2959 10.6183 25.2959 9.1783C25.2959 7.7453 25.0499 6.3913 24.5559 5.1143C24.0629 3.8373 23.3499 2.7093 22.4159 1.7293C22.2169 1.5103 22.1019 1.2683 22.0719 1.0053C22.0419 0.741297 22.1169 0.513296 22.2969 0.320296C22.4769 0.113296 22.7029 0.00629596 22.9769 0.000296392C23.2499 -0.00670358 23.4939 0.110296 23.7059 0.350296C24.8059 1.5103 25.6599 2.8483 26.2659 4.3643C26.8719 5.8803 27.1759 7.4853 27.1759 9.1783C27.1759 10.8713 26.8719 12.4773 26.2659 13.9983Z" fill="#FE1212" fill-opacity="0.5"/>
</svg>
