<svg width="15" height="15" viewBox="0 0 15 15" fill="none" xmlns="http://www.w3.org/2000/svg">
<path d="M1.25 4.375L6.35307 7.94715C6.76631 8.23641 6.97292 8.38105 7.19766 8.43707C7.39618 8.48655 7.60382 8.48655 7.80234 8.43707C8.02708 8.38105 8.23369 8.23641 8.64692 7.94715L13.75 4.375M4.25 12.5H10.75C11.8001 12.5 12.3251 12.5 12.7262 12.2956C13.079 12.1159 13.3659 11.829 13.5456 11.4762C13.75 11.0751 13.75 10.5501 13.75 9.5V5.5C13.75 4.4499 13.75 3.92485 13.5456 3.52377C13.3659 3.17096 13.079 2.88413 12.7262 2.70436C12.3251 2.5 11.8001 2.5 10.75 2.5H4.25C3.1999 2.5 2.67485 2.5 2.27377 2.70436C1.92096 2.88413 1.63413 3.17096 1.45436 3.52377C1.25 3.92485 1.25 4.4499 1.25 5.5V9.5C1.25 10.5501 1.25 11.0751 1.45436 11.4762C1.63413 11.829 1.92096 12.1159 2.27377 12.2956C2.67485 12.5 3.1999 12.5 4.25 12.5Z" stroke="#3C5AE7" stroke-linecap="round" stroke-linejoin="round"/>
</svg>
