<svg width="19" height="19" viewBox="0 0 19 19" fill="none" xmlns="http://www.w3.org/2000/svg">
<path d="M16.625 7.91669C16.625 13.4584 9.5 18.2084 9.5 18.2084C9.5 18.2084 2.375 13.4584 2.375 7.91669C2.375 6.02702 3.12567 4.21475 4.46186 2.87855C5.79806 1.54235 7.61033 0.791687 9.5 0.791687C11.3897 0.791687 13.2019 1.54235 14.5381 2.87855C15.8743 4.21475 16.625 6.02702 16.625 7.91669Z" stroke="#3C5AE7" stroke-linecap="round" stroke-linejoin="round"/>
<path d="M9.5 10.2917C10.8117 10.2917 11.875 9.22836 11.875 7.91669C11.875 6.60501 10.8117 5.54169 9.5 5.54169C8.18832 5.54169 7.125 6.60501 7.125 7.91669C7.125 9.22836 8.18832 10.2917 9.5 10.2917Z" stroke="#3C5AE7" stroke-linecap="round" stroke-linejoin="round"/>
</svg>
