<svg width="174" height="135" viewBox="0 0 174 135" fill="none" xmlns="http://www.w3.org/2000/svg">
<path d="M91.872 53.7696C93.4137 49.3869 96.4567 45.6913 100.462 43.3373C104.468 40.9833 109.177 40.1228 113.756 40.9082C118.335 41.6936 122.488 44.0743 125.48 47.6286C128.472 51.1828 130.11 55.6813 130.103 60.3272C130.103 73.4424 110.43 80 110.43 80M110.684 106.25H110.771M109.372 150C150.448 150 183.747 116.701 183.747 75.625C183.747 34.5488 150.448 1.25 109.372 1.25C68.2958 1.25 34.997 34.5488 34.997 75.625C34.997 83.9375 36.3606 91.9314 38.8765 99.3954C39.8232 102.204 40.2966 103.609 40.382 104.687C40.4663 105.753 40.4025 106.5 40.1389 107.536C39.872 108.585 39.2827 109.675 38.104 111.857L23.792 138.348C21.7506 142.127 20.7298 144.016 20.9583 145.474C21.1572 146.744 21.9048 147.863 23.0022 148.532C24.2623 149.301 26.3983 149.08 30.6704 148.638L75.4794 144.006C76.8363 143.866 77.5148 143.796 78.1332 143.82C78.7415 143.843 79.1709 143.9 79.764 144.037C80.3671 144.176 81.1254 144.468 82.6421 145.052C90.9375 148.248 99.9502 150 109.372 150Z" stroke="#3C5AE7" stroke-opacity="0.1" stroke-width="7" stroke-linecap="round" stroke-linejoin="round"/>
</svg>
