<svg width="18" height="18" viewBox="0 0 18 18" fill="none" xmlns="http://www.w3.org/2000/svg">
<path d="M17.25 9C17.25 13.5563 13.5563 17.25 9 17.25C7.90262 17.25 6.85528 17.0357 5.89753 16.6468C5.71423 16.5723 5.62258 16.5351 5.54849 16.5185C5.47602 16.5023 5.42239 16.4963 5.34812 16.4963C5.2722 16.4963 5.1895 16.5101 5.0241 16.5377L1.7627 17.0812C1.42117 17.1381 1.2504 17.1666 1.12692 17.1136C1.01884 17.0673 0.932719 16.9812 0.886364 16.8731C0.8334 16.7496 0.861861 16.5788 0.918783 16.2373L1.46235 12.9759C1.48992 12.8105 1.5037 12.7278 1.50369 12.6519C1.50368 12.5776 1.49774 12.524 1.4815 12.4515C1.46489 12.3774 1.42767 12.2858 1.35322 12.1025C0.964258 11.1447 0.75 10.0974 0.75 9C0.75 4.44365 4.44365 0.75 9 0.75C13.5563 0.75 17.25 4.44365 17.25 9Z" stroke="#3C5AE7" stroke-width="1.5" stroke-linecap="round" stroke-linejoin="round"/>
</svg>
