<svg width="15" height="15" viewBox="0 0 15 15" fill="none" xmlns="http://www.w3.org/2000/svg">
<path d="M4.6875 7.5H4.69375M7.5 7.5H7.50625M10.3125 7.5H10.3188M7.5 13.125C10.6066 13.125 13.125 10.6066 13.125 7.5C13.125 4.3934 10.6066 1.875 7.5 1.875C4.3934 1.875 1.875 4.3934 1.875 7.5C1.875 8.24821 2.02109 8.96231 2.28629 9.61532C2.33705 9.7403 2.36242 9.80279 2.37375 9.8533C2.38482 9.90271 2.38887 9.93928 2.38888 9.98992C2.38889 10.0417 2.37949 10.0981 2.36069 10.2108L1.99008 12.4345C1.95127 12.6674 1.93186 12.7838 1.96798 12.868C1.99958 12.9417 2.0583 13.0004 2.13199 13.032C2.21618 13.0681 2.33261 13.0487 2.56548 13.0099L4.78916 12.6393C4.90193 12.6205 4.95832 12.6111 5.01008 12.6111C5.06072 12.6111 5.09729 12.6152 5.1467 12.6263C5.19721 12.6376 5.2597 12.663 5.38468 12.7137C6.03769 12.9789 6.75179 13.125 7.5 13.125ZM5 7.5C5 7.67259 4.86009 7.8125 4.6875 7.8125C4.51491 7.8125 4.375 7.67259 4.375 7.5C4.375 7.32741 4.51491 7.1875 4.6875 7.1875C4.86009 7.1875 5 7.32741 5 7.5ZM7.8125 7.5C7.8125 7.67259 7.67259 7.8125 7.5 7.8125C7.32741 7.8125 7.1875 7.67259 7.1875 7.5C7.1875 7.32741 7.32741 7.1875 7.5 7.1875C7.67259 7.1875 7.8125 7.32741 7.8125 7.5ZM10.625 7.5C10.625 7.67259 10.4851 7.8125 10.3125 7.8125C10.1399 7.8125 10 7.67259 10 7.5C10 7.32741 10.1399 7.1875 10.3125 7.1875C10.4851 7.1875 10.625 7.32741 10.625 7.5Z" stroke="white" stroke-linecap="round" stroke-linejoin="round"/>
</svg>
