<svg width="13" height="13" viewBox="0 0 13 13" fill="none" xmlns="http://www.w3.org/2000/svg">
<g clip-path="url(#clip0_3592_4657)">
<path d="M1.84903 5.81993C1.52656 5.69452 1.36532 5.63181 1.31824 5.54146C1.27743 5.46314 1.27738 5.36984 1.3181 5.29146C1.36506 5.20106 1.52623 5.13816 1.84856 5.01237L10.9961 1.44261C11.2871 1.32906 11.4325 1.27228 11.5255 1.30334C11.6062 1.33031 11.6696 1.39367 11.6966 1.4744C11.7276 1.56737 11.6709 1.71285 11.5573 2.00383L7.98754 11.1514C7.86175 11.4737 7.79886 11.6349 7.70845 11.6818C7.63008 11.7225 7.53678 11.7225 7.45845 11.6817C7.3681 11.6346 7.3054 11.4734 7.17999 11.1509L5.75643 7.4903C5.73097 7.42484 5.71824 7.39211 5.69859 7.36455C5.68116 7.34012 5.6598 7.31876 5.63537 7.30133C5.60781 7.28167 5.57508 7.26894 5.50962 7.24349L1.84903 5.81993Z" stroke="white" stroke-linecap="round" stroke-linejoin="round"/>
</g>
<defs>
<clipPath id="clip0_3592_4657">
<rect width="13" height="13" fill="white"/>
</clipPath>
</defs>
</svg>
