<svg width="19" height="19" viewBox="0 0 19 19" fill="none" xmlns="http://www.w3.org/2000/svg">
<path d="M8.70833 3.16667H6.175C4.84488 3.16667 4.17981 3.16667 3.67177 3.42553C3.22489 3.65323 2.86156 4.01655 2.63386 4.46344C2.375 4.97148 2.375 5.63654 2.375 6.96667V12.825C2.375 14.1551 2.375 14.8202 2.63386 15.3282C2.86156 15.7751 3.22489 16.1384 3.67177 16.3661C4.17981 16.625 4.84488 16.625 6.175 16.625H12.0333C13.3635 16.625 14.0285 16.625 14.5366 16.3661C14.9834 16.1384 15.3468 15.7751 15.5745 15.3282C15.8333 14.8202 15.8333 14.1551 15.8333 12.825V10.2917M10.2917 13.4583H5.54167M11.875 10.2917H5.54167M15.9294 3.07062C16.8569 3.99812 16.8569 5.50188 15.9294 6.42938C15.0019 7.35687 13.4981 7.35687 12.5706 6.42938C11.6431 5.50188 11.6431 3.99812 12.5706 3.07062C13.4981 2.14313 15.0019 2.14313 15.9294 3.07062Z" stroke="#3C5AE7" stroke-linecap="round" stroke-linejoin="round"/>
</svg>
