<svg width="167" height="111" viewBox="0 0 167 111" fill="none" xmlns="http://www.w3.org/2000/svg">
<g clip-path="url(#clip0_5322_30128)">
<path d="M123.889 35.7181L127.958 29.8395M105.579 62.1719L109.648 56.2933M87.2691 88.6257L91.338 82.7471M111.948 -7.32713L191.897 48.0101C198.481 52.5677 201.774 54.8465 203.402 57.8688C204.834 60.5272 205.388 63.5708 204.984 66.5632C204.524 69.9652 202.245 73.2575 197.688 79.8422L192.398 87.4844C181.035 79.6192 165.447 82.455 157.582 93.8184C149.717 105.182 152.553 120.77 163.916 128.635L158.626 136.277C154.069 142.862 151.79 146.154 148.768 147.782C146.109 149.214 143.066 149.768 140.073 149.364C136.671 148.904 133.379 146.626 126.794 142.068L46.845 86.7308C40.2603 82.1732 36.9679 79.8944 35.3399 76.8721C33.9078 74.2137 33.3541 71.1702 33.7582 68.1777C34.2175 64.7757 36.4963 61.4834 41.0539 54.8987L46.3435 47.2565C57.7068 55.1217 73.2947 52.2859 81.1598 40.9225C89.025 29.5592 86.1892 13.9713 74.8259 6.10614L80.1155 -1.53607C84.6731 -8.12074 86.9519 -11.4131 89.9741 -13.0411C92.6326 -14.4732 95.6761 -15.0269 98.6686 -14.6229C102.071 -14.1635 105.363 -11.8847 111.948 -7.32713Z" stroke="#3C5AE7" stroke-opacity="0.1" stroke-width="10" stroke-linecap="round" stroke-linejoin="round"/>
</g>
<defs>
<clipPath id="clip0_5322_30128">
<rect width="171.586" height="171.586" fill="white" transform="translate(97.6543 -52) rotate(34.6892)"/>
</clipPath>
</defs>
</svg>
