<svg width="15" height="18" viewBox="0 0 15 18" fill="none" xmlns="http://www.w3.org/2000/svg">
<path d="M7.16667 8.83333L3.60593 5.86605C3.07689 5.42518 2.81237 5.20475 2.6222 4.93453C2.4537 4.69511 2.32857 4.42795 2.25251 4.14523C2.16667 3.82616 2.16667 3.48183 2.16667 2.79317V0.5M7.16667 8.83333L10.7274 5.86605C11.2564 5.42518 11.521 5.20475 11.7111 4.93453C11.8796 4.69511 12.0048 4.42795 12.0808 4.14523C12.1667 3.82616 12.1667 3.48183 12.1667 2.79317V0.5M7.16667 8.83333L3.60593 11.8006C3.07689 12.2415 2.81237 12.4619 2.6222 12.7321C2.4537 12.9716 2.32857 13.2387 2.25251 13.5214C2.16667 13.8405 2.16667 14.1848 2.16667 14.8735V17.1667M7.16667 8.83333L10.7274 11.8006C11.2564 12.2415 11.521 12.4619 11.7111 12.7321C11.8796 12.9716 12.0048 13.2387 12.0808 13.5214C12.1667 13.8405 12.1667 14.1848 12.1667 14.8735V17.1667M0.5 0.5H13.8333M0.5 17.1667H13.8333" stroke="#3C5AE7" stroke-linecap="round" stroke-linejoin="round"/>
</svg>
