<svg width="15" height="15" viewBox="0 0 15 15" fill="none" xmlns="http://www.w3.org/2000/svg">
<path d="M5.23767 5.53335C5.67267 6.43936 6.26566 7.28851 7.01665 8.03949C7.76764 8.79048 8.61679 9.38347 9.5228 9.81847C9.60073 9.85589 9.6397 9.8746 9.689 9.88897C9.86422 9.94005 10.0794 9.90336 10.2278 9.7971C10.2695 9.7672 10.3053 9.73148 10.3767 9.66003C10.5952 9.44153 10.7045 9.33228 10.8143 9.26085C11.2286 8.99148 11.7627 8.99148 12.177 9.26085C12.2869 9.33228 12.3962 9.44153 12.6147 9.66003L12.7365 9.78183C13.0686 10.114 13.2347 10.2801 13.3249 10.4584C13.5043 10.8131 13.5043 11.2321 13.3249 11.5868C13.2347 11.7651 13.0686 11.9312 12.7365 12.2634L12.6379 12.3619C12.3069 12.6929 12.1414 12.8584 11.9164 12.9848C11.6667 13.1251 11.2789 13.2259 10.9925 13.2251C10.7344 13.2243 10.558 13.1743 10.2052 13.0741C8.30938 12.536 6.5204 11.5207 5.02791 10.0282C3.53542 8.53574 2.52013 6.74677 1.98202 4.8509C1.88189 4.49812 1.83183 4.32173 1.83106 4.06364C1.83021 3.77725 1.93106 3.38944 2.07132 3.13975C2.19773 2.91473 2.36323 2.74922 2.69425 2.41821L2.79277 2.31969C3.12492 1.98753 3.291 1.82146 3.46936 1.73124C3.82409 1.55182 4.243 1.55182 4.59773 1.73124C4.77609 1.82146 4.94217 1.98753 5.27432 2.31969L5.39611 2.44148C5.61462 2.65998 5.72387 2.76924 5.7953 2.8791C6.06467 3.2934 6.06467 3.82752 5.7953 4.24182C5.72387 4.35168 5.61462 4.46094 5.39611 4.67944C5.32467 4.75088 5.28894 4.78661 5.25904 4.82836C5.15279 4.97676 5.1161 5.19192 5.16717 5.36714C5.18155 5.41645 5.20026 5.45541 5.23767 5.53335Z" stroke="#3C5AE7" stroke-linecap="round" stroke-linejoin="round"/>
</svg>
