<svg width="13" height="13" viewBox="0 0 13 13" fill="none" xmlns="http://www.w3.org/2000/svg">
<g clip-path="url(#clip0_4241_3579)">
<path d="M11.4886 8.60708C11.144 9.42201 10.6051 10.1401 9.91883 10.6986C9.23259 11.2571 8.41998 11.639 7.55205 11.8109C6.68412 11.9828 5.78729 11.9395 4.93997 11.6847C4.09266 11.4299 3.32065 10.9715 2.69145 10.3494C2.06224 9.72738 1.595 8.96066 1.33057 8.1163C1.06614 7.27195 1.01257 6.37568 1.17455 5.50584C1.33653 4.636 1.70912 3.81909 2.25975 3.12651C2.81038 2.43394 3.52229 1.88679 4.33323 1.53291M11.5042 4.42713C11.7211 4.95063 11.8541 5.50407 11.8992 6.06712C11.9104 6.20622 11.916 6.27577 11.8883 6.33842C11.8653 6.39075 11.8196 6.44028 11.7692 6.46746C11.709 6.5 11.6337 6.5 11.4832 6.5H6.93323C6.78155 6.5 6.70571 6.5 6.64777 6.47048C6.59681 6.44451 6.55538 6.40308 6.52941 6.35212C6.49989 6.29419 6.49989 6.21834 6.49989 6.06666V1.51666C6.49989 1.36615 6.49989 1.2909 6.53243 1.23065C6.55961 1.18033 6.60914 1.13462 6.66147 1.11155C6.72412 1.08393 6.79367 1.0895 6.93277 1.10065C7.49582 1.1458 8.04926 1.27881 8.57276 1.49565C9.22994 1.76786 9.82707 2.16685 10.3301 2.66984C10.833 3.17282 11.232 3.76995 11.5042 4.42713Z" stroke="white" stroke-linecap="round" stroke-linejoin="round"/>
</g>
<defs>
<clipPath id="clip0_4241_3579">
<rect width="13" height="13" fill="white"/>
</clipPath>
</defs>
</svg>
