<svg width="158" height="138" viewBox="0 0 158 138" fill="none" xmlns="http://www.w3.org/2000/svg">
<g opacity="0.2">
<path d="M140.834 66.8959V47.8834C140.834 36.0523 140.834 30.1367 138.531 25.6178C136.506 21.6429 133.274 18.4112 129.299 16.3859C124.78 14.0834 118.865 14.0834 107.034 14.0834H61.967C50.1359 14.0834 44.2203 14.0834 39.7014 16.3859C35.7265 18.4112 32.4948 21.6429 30.4695 25.6178C28.167 30.1367 28.167 36.0523 28.167 47.8834V121.117C28.167 132.948 28.167 138.863 30.4695 143.382C32.4948 147.357 35.7265 150.589 39.7014 152.614C44.2203 154.917 50.1359 154.917 61.967 154.917H98.5837M98.5837 77.4584H56.3337M70.417 105.625H56.3337M112.667 49.2917H56.3337M116.188 105.641C117.429 102.114 119.877 99.1397 123.101 97.2453C126.324 95.3509 130.114 94.6584 133.799 95.2905C137.484 95.9225 140.827 97.8384 143.234 100.699C145.642 103.559 146.96 107.179 146.955 110.918C146.955 121.473 131.123 126.75 131.123 126.75M131.327 147.875H131.397" stroke="#3C5AE7" stroke-width="6" stroke-linecap="round" stroke-linejoin="round"/>
</g>
</svg>
