<svg width="180" height="195" viewBox="0 0 180 195" fill="none" xmlns="http://www.w3.org/2000/svg">
<g clip-path="url(#clip0_4833_3201)">
<path d="M118.17 105.279L113.887 96.9842M137.444 142.606L133.161 134.311M156.718 179.933L152.435 171.638M61.222 92.6587L174.033 34.4078C183.324 29.6102 187.969 27.2114 192.452 27.1871C196.395 27.1658 200.243 28.3932 203.445 30.6935C207.086 33.3086 209.485 37.9542 214.282 47.2454L219.851 58.0287C203.817 66.3081 197.53 86.0179 205.809 102.052C214.089 118.086 233.799 124.372 249.833 116.093L255.401 126.876C260.198 136.168 262.597 140.813 262.621 145.296C262.643 149.238 261.415 153.087 259.115 156.289C256.5 159.93 251.854 162.329 242.563 167.126L129.752 225.377C120.461 230.175 115.816 232.574 111.333 232.598C107.39 232.619 103.542 231.392 100.34 229.091C96.699 226.476 94.3002 221.831 89.5026 212.54L83.9345 201.756C99.9685 193.477 106.255 173.767 97.9757 157.733C89.6963 141.699 69.9865 135.412 53.9524 143.692L48.3843 132.908C43.5868 123.617 41.188 118.972 41.1637 114.489C41.1424 110.546 42.3698 106.698 44.6701 103.496C47.2852 99.855 51.9308 97.4562 61.222 92.6587Z" stroke="#3C5AE7" stroke-opacity="0.5" stroke-width="6" stroke-linecap="round" stroke-linejoin="round"/>
</g>
<defs>
<clipPath id="clip0_4833_3201">
<rect width="224.051" height="224.051" fill="white" transform="translate(0.955811 81.7515) rotate(-27.31)"/>
</clipPath>
</defs>
</svg>
