<svg width="165" height="135" viewBox="0 0 165 135" fill="none" xmlns="http://www.w3.org/2000/svg">
<path d="M174.125 91.209L111.157 28.2411C106.855 23.939 104.704 21.7879 102.194 20.2496C99.968 18.8857 97.5415 17.8806 95.0034 17.2713C92.1406 16.584 89.0984 16.584 83.0143 16.584L49.75 16.584M24.875 72.1382L24.875 88.5102C24.875 92.5663 24.875 94.5944 25.3332 96.5029C25.7394 98.195 26.4095 99.8126 27.3187 101.296C28.3443 102.97 29.7783 104.404 32.6464 107.272L97.3214 171.947C103.889 178.514 107.172 181.798 110.959 183.028C114.289 184.111 117.877 184.111 121.208 183.028C124.994 181.798 128.278 178.514 134.845 171.947L155.363 151.429C161.93 144.862 165.214 141.578 166.444 137.792C167.527 134.461 167.527 130.873 166.444 127.543C165.214 123.756 161.93 120.473 155.363 113.905L94.8339 53.3763C91.9658 50.5081 90.5318 49.0741 88.8582 48.0485C87.3745 47.1393 85.7569 46.4693 84.0648 46.063C82.1562 45.6048 80.1282 45.6048 76.072 45.6048H51.4083C42.1208 45.6048 37.477 45.6048 33.9297 47.4123C30.8093 49.0022 28.2724 51.5391 26.6825 54.6595C24.875 58.2068 24.875 62.8506 24.875 72.1382Z" stroke="#3C5AE7" stroke-opacity="0.1" stroke-width="7" stroke-linecap="round" stroke-linejoin="round"/>
</svg>
