<svg width="85" height="85" viewBox="0 0 85 85" fill="none" xmlns="http://www.w3.org/2000/svg">
<path d="M23.0208 23.0208H23.0563M61.9792 23.0208H62.0146M23.0208 61.9792H23.0563M46.0417 46.0417H46.0771M61.9792 61.9792H62.0146M60.2083 74.375H74.375V60.2083M49.5833 58.4375V74.375M74.375 49.5833H58.4375M55.25 35.4167H68.7083C70.6919 35.4167 71.6836 35.4167 72.4412 35.0306C73.1076 34.6911 73.6494 34.1493 73.989 33.4829C74.375 32.7253 74.375 31.7335 74.375 29.75V16.2917C74.375 14.3081 74.375 13.3164 73.989 12.5588C73.6494 11.8924 73.1076 11.3506 72.4412 11.011C71.6836 10.625 70.6919 10.625 68.7083 10.625H55.25C53.2665 10.625 52.2747 10.625 51.5171 11.011C50.8507 11.3506 50.3089 11.8924 49.9694 12.5588C49.5833 13.3164 49.5833 14.3081 49.5833 16.2917V29.75C49.5833 31.7335 49.5833 32.7253 49.9694 33.4829C50.3089 34.1493 50.8507 34.6911 51.5171 35.0306C52.2747 35.4167 53.2665 35.4167 55.25 35.4167ZM16.2917 35.4167H29.75C31.7335 35.4167 32.7253 35.4167 33.4829 35.0306C34.1493 34.6911 34.6911 34.1493 35.0306 33.4829C35.4167 32.7253 35.4167 31.7335 35.4167 29.75V16.2917C35.4167 14.3081 35.4167 13.3164 35.0306 12.5588C34.6911 11.8924 34.1493 11.3506 33.4829 11.011C32.7253 10.625 31.7335 10.625 29.75 10.625H16.2917C14.3081 10.625 13.3164 10.625 12.5588 11.011C11.8924 11.3506 11.3506 11.8924 11.011 12.5588C10.625 13.3164 10.625 14.3081 10.625 16.2917V29.75C10.625 31.7335 10.625 32.7253 11.011 33.4829C11.3506 34.1493 11.8924 34.6911 12.5588 35.0306C13.3164 35.4167 14.3081 35.4167 16.2917 35.4167ZM16.2917 74.375H29.75C31.7335 74.375 32.7253 74.375 33.4829 73.989C34.1493 73.6494 34.6911 73.1076 35.0306 72.4412C35.4167 71.6836 35.4167 70.6919 35.4167 68.7083V55.25C35.4167 53.2665 35.4167 52.2747 35.0306 51.5171C34.6911 50.8507 34.1493 50.3089 33.4829 49.9694C32.7253 49.5833 31.7335 49.5833 29.75 49.5833H16.2917C14.3081 49.5833 13.3164 49.5833 12.5588 49.9694C11.8924 50.3089 11.3506 50.8507 11.011 51.5171C10.625 52.2747 10.625 53.2665 10.625 55.25V68.7083C10.625 70.6919 10.625 71.6836 11.011 72.4412C11.3506 73.1076 11.8924 73.6494 12.5588 73.989C13.3164 74.375 14.3081 74.375 16.2917 74.375Z" stroke="#3C5AE7" stroke-width="6" stroke-linecap="round" stroke-linejoin="round"/>
</svg>
