<svg width="192" height="195" viewBox="0 0 192 195" fill="none" xmlns="http://www.w3.org/2000/svg">
<g clip-path="url(#clip0_4833_3196)">
<path d="M74.9283 109.114L75.0043 109.074M158.545 65.9285L158.621 65.8893M118.113 192.73L118.189 192.691M149.857 133.005L149.933 132.966M201.73 149.545L201.806 149.506M211.67 178.113L242.076 162.41L226.372 132.004M171.199 155.684L188.865 189.891M214.595 109.199L180.388 126.866M157.843 99.9931L186.729 85.0746C190.986 82.8759 193.114 81.7765 194.313 80.1082C195.366 78.6407 195.929 76.8772 195.919 75.0705C195.908 73.0166 194.808 70.8879 192.609 66.6307L177.691 37.7449C175.492 33.4877 174.393 31.3591 172.725 30.1609C171.257 29.107 169.494 28.5447 167.687 28.5546C165.633 28.5659 163.504 29.6653 159.247 31.864L130.361 46.7825C126.104 48.9812 123.976 50.0806 122.777 51.7489C121.723 53.2164 121.161 54.9798 121.171 56.7865C121.182 58.8405 122.282 60.9691 124.48 65.2264L139.399 94.1121C141.598 98.3694 142.697 100.498 144.365 101.696C145.833 102.75 147.596 103.312 149.403 103.302C151.457 103.291 153.586 102.192 157.843 99.9931ZM74.2261 143.178L103.112 128.26C107.369 126.061 109.498 124.962 110.696 123.293C111.75 121.826 112.312 120.062 112.302 118.256C112.291 116.202 111.192 114.073 108.993 109.816L94.0744 80.93C91.8756 76.6728 90.7763 74.5442 89.108 73.346C87.6405 72.2921 85.877 71.7298 84.0703 71.7397C82.0163 71.751 79.8877 72.8504 75.6305 75.0491L46.7447 89.9676C42.4875 92.1663 40.3589 93.2656 39.1607 94.934C38.1068 96.4014 37.5445 98.1649 37.5544 99.9716C37.5657 102.026 38.6651 104.154 40.8638 108.411L55.7823 137.297C57.981 141.554 59.0803 143.683 60.7487 144.881C62.2161 145.935 63.9796 146.497 65.7863 146.488C67.8403 146.476 69.9689 145.377 74.2261 143.178ZM117.411 226.795L146.297 211.876C150.554 209.678 152.683 208.578 153.881 206.91C154.935 205.442 155.497 203.679 155.487 201.872C155.476 199.818 154.377 197.69 152.178 193.432L137.259 164.547C135.061 160.289 133.961 158.161 132.293 156.963C130.826 155.909 129.062 155.346 127.255 155.356C125.201 155.368 123.073 156.467 118.816 158.666L89.9298 173.584C85.6726 175.783 83.5439 176.882 82.3458 178.551C81.2919 180.018 80.7296 181.782 80.7395 183.588C80.7508 185.642 81.8501 187.771 84.0489 192.028L98.9673 220.914C101.166 225.171 102.265 227.3 103.934 228.498C105.401 229.552 107.165 230.114 108.971 230.104C111.025 230.093 113.154 228.994 117.411 226.795Z" stroke="#3C5AE7" stroke-opacity="0.5" stroke-width="5" stroke-linecap="round" stroke-linejoin="round"/>
</g>
<defs>
<clipPath id="clip0_4833_3196">
<rect width="205.331" height="205.331" fill="white" transform="translate(0 85.2222) rotate(-27.3148)"/>
</clipPath>
</defs>
</svg>
