<svg width="47" height="47" viewBox="0 0 47 47" fill="none" xmlns="http://www.w3.org/2000/svg">
<path d="M22.0953 6.76245C22.5466 5.84803 22.7723 5.39082 23.0787 5.24474C23.3453 5.11764 23.655 5.11764 23.9215 5.24474C24.2279 5.39082 24.4536 5.84803 24.905 6.76245L29.1872 15.4378C29.3205 15.7078 29.3871 15.8427 29.4844 15.9475C29.5707 16.0403 29.6741 16.1155 29.7889 16.1689C29.9186 16.2292 30.0676 16.251 30.3655 16.2946L39.9442 17.6946C40.9529 17.8421 41.4572 17.9158 41.6906 18.1621C41.8937 18.3765 41.9892 18.671 41.9505 18.9638C41.9061 19.3002 41.541 19.6558 40.8107 20.3671L33.8821 27.1156C33.6661 27.326 33.5581 27.4312 33.4884 27.5563C33.4267 27.6671 33.3871 27.7889 33.3719 27.9148C33.3546 28.057 33.3801 28.2056 33.4311 28.5027L35.0659 38.0347C35.2383 39.04 35.3246 39.5427 35.1625 39.841C35.0216 40.1006 34.771 40.2826 34.4806 40.3364C34.1468 40.3983 33.6954 40.1609 32.7926 39.6861L24.2293 35.1828C23.9625 35.0425 23.8291 34.9723 23.6886 34.9448C23.5641 34.9204 23.4361 34.9204 23.3117 34.9448C23.1711 34.9723 23.0377 35.0425 22.7709 35.1828L14.2076 39.6861C13.3048 40.1609 12.8534 40.3983 12.5197 40.3364C12.2292 40.2826 11.9787 40.1006 11.8377 39.841C11.6757 39.5427 11.7619 39.04 11.9343 38.0347L13.5691 28.5027C13.6201 28.2056 13.6456 28.057 13.6284 27.9148C13.6131 27.7889 13.5735 27.6671 13.5118 27.5563C13.4421 27.4312 13.3341 27.326 13.1181 27.1156L6.18951 20.3671C5.45925 19.6558 5.09413 19.3002 5.0497 18.9638C5.01104 18.671 5.10654 18.3765 5.30961 18.1621C5.54302 17.9158 6.04736 17.8421 7.05604 17.6946L16.6348 16.2946C16.9327 16.251 17.0816 16.2292 17.2113 16.1689C17.3262 16.1155 17.4296 16.0403 17.5158 15.9475C17.6131 15.8427 17.6798 15.7078 17.813 15.4378L22.0953 6.76245Z" fill="#FDB105"/>
</svg>
