<svg width="170" height="119" viewBox="0 0 170 119" fill="none" xmlns="http://www.w3.org/2000/svg">
<path d="M82.5625 111.877L57.4375 86.7521M82.5625 111.877C94.2611 107.428 105.484 101.816 116.063 95.1271M82.5625 111.877V153.752C82.5625 153.752 107.939 149.146 116.063 137.002C125.108 123.435 116.063 95.1271 116.063 95.1271M57.4375 86.7521C61.8942 75.1898 67.506 64.1066 74.1875 53.6708C83.9459 38.0681 97.5339 25.2214 113.659 16.3526C129.784 7.48382 147.91 2.88793 166.313 3.00208C166.313 25.7821 159.78 65.8146 116.063 95.1271M57.4375 86.7521H15.5625C15.5625 86.7521 20.1688 61.3758 32.3125 53.2521C45.88 44.2071 74.1875 53.2521 74.1875 53.2521M19.75 124.44C7.18753 134.992 3.00003 166.315 3.00003 166.315C3.00003 166.315 34.3225 162.127 44.875 149.565C50.8213 142.53 50.7375 131.726 44.1213 125.193C40.866 122.086 36.5779 120.291 32.0799 120.152C27.582 120.013 23.1911 121.54 19.75 124.44Z" stroke="#257367" stroke-opacity="0.2" stroke-width="6" stroke-linecap="round" stroke-linejoin="round"/>
</svg>
