<svg width="18" height="18" viewBox="0 0 18 18" fill="none" xmlns="http://www.w3.org/2000/svg">
<path d="M7.87464 10.125L15.7496 2.25001M7.97033 10.3711L9.94141 15.4396C10.1151 15.8861 10.2019 16.1093 10.327 16.1745C10.4354 16.231 10.5646 16.2311 10.6731 16.1747C10.7983 16.1097 10.8854 15.8865 11.0596 15.4402L16.0023 2.77441C16.1595 2.37152 16.2381 2.17008 16.1951 2.04136C16.1578 1.92957 16.0701 1.84184 15.9583 1.8045C15.8296 1.7615 15.6281 1.84011 15.2252 1.99733L2.55943 6.94009C2.11313 7.11426 1.88997 7.20134 1.82494 7.32652C1.76857 7.43503 1.76864 7.56422 1.82515 7.67267C1.89033 7.79777 2.11358 7.88459 2.56009 8.05824L7.62859 10.0293C7.71923 10.0646 7.76455 10.0822 7.80271 10.1094C7.83653 10.1335 7.86611 10.1631 7.89024 10.1969C7.91746 10.2351 7.93508 10.2804 7.97033 10.3711Z" stroke="#F5F8FE" stroke-linecap="round" stroke-linejoin="round"/>
</svg>
