<svg width="24" height="24" viewBox="0 0 24 24" fill="none" xmlns="http://www.w3.org/2000/svg">
<path d="M17.3999 13.8221L15.9582 14.9124L14.8679 13.4707" stroke="#3C5AE7" stroke-width="1.5" stroke-linecap="round" stroke-linejoin="round"/>
<path d="M15.8779 14.804C16.2948 14.0025 16.4563 13.0926 16.3407 12.1966C16.2251 11.3006 15.8378 10.4615 15.231 9.79212C14.6242 9.12278 13.827 8.65532 12.9466 8.45261C12.0662 8.24991 11.1448 8.32167 10.3064 8.65826M6.50586 11.768L7.94586 10.6794L9.03614 12.1194" stroke="#3C5AE7" stroke-width="1.5" stroke-linecap="round" stroke-linejoin="round"/>
<path d="M8.02633 10.7881C7.60937 11.5896 7.44784 12.4995 7.56349 13.3955C7.67913 14.2915 8.06639 15.1306 8.67318 15.7999C9.27997 16.4693 10.0772 16.9367 10.9576 17.1394C11.838 17.3422 12.7594 17.2704 13.5978 16.9338" stroke="#3C5AE7" stroke-width="1.5" stroke-linecap="round" stroke-linejoin="round"/>
<path d="M23.1429 7.71415C23.1429 7.25949 22.9623 6.82345 22.6408 6.50196C22.3193 6.18047 21.8833 5.99986 21.4286 5.99986H18L15.4286 2.57129H8.57146L6.00003 5.99986H2.57146C2.11681 5.99986 1.68077 6.18047 1.35928 6.50196C1.03779 6.82345 0.857178 7.25949 0.857178 7.71415V19.7141C0.857178 20.1688 1.03779 20.6048 1.35928 20.9263C1.68077 21.2478 2.11681 21.4284 2.57146 21.4284H21.4286C21.8833 21.4284 22.3193 21.2478 22.6408 20.9263C22.9623 20.6048 23.1429 20.1688 23.1429 19.7141V7.71415Z" stroke="#3C5AE7" stroke-width="1.5" stroke-linecap="round" stroke-linejoin="round"/>
</svg>
