<svg width="21" height="21" viewBox="0 0 21 21" fill="none" xmlns="http://www.w3.org/2000/svg">
<path d="M14 3.5C14.8137 3.5 15.2206 3.5 15.5544 3.58944C16.4603 3.83217 17.1678 4.53973 17.4106 5.4456C17.5 5.77941 17.5 6.18627 17.5 7V15.05C17.5 16.5201 17.5 17.2552 17.2139 17.8167C16.9622 18.3107 16.5607 18.7122 16.0667 18.9639C15.5052 19.25 14.7701 19.25 13.3 19.25H7.7C6.22986 19.25 5.49479 19.25 4.93327 18.9639C4.43935 18.7122 4.03778 18.3107 3.78611 17.8167C3.5 17.2552 3.5 16.5201 3.5 15.05V7C3.5 6.18627 3.5 5.77941 3.58944 5.4456C3.83217 4.53973 4.53973 3.83217 5.4456 3.58944C5.77941 3.5 6.18627 3.5 7 3.5M7.875 13.125L9.625 14.875L13.5625 10.9375M8.4 5.25H12.6C13.09 5.25 13.3351 5.25 13.5222 5.15463C13.6869 5.07074 13.8207 4.93688 13.9046 4.77224C14 4.58507 14 4.34005 14 3.85V3.15C14 2.65995 14 2.41493 13.9046 2.22776C13.8207 2.06312 13.6869 1.92926 13.5222 1.84537C13.3351 1.75 13.09 1.75 12.6 1.75H8.4C7.90995 1.75 7.66493 1.75 7.47776 1.84537C7.31312 1.92926 7.17926 2.06312 7.09537 2.22776C7 2.41493 7 2.65995 7 3.15V3.85C7 4.34005 7 4.58507 7.09537 4.77224C7.17926 4.93688 7.31312 5.07074 7.47776 5.15463C7.66493 5.25 7.90995 5.25 8.4 5.25Z" stroke="white" stroke-linecap="round" stroke-linejoin="round"/>
</svg>
