<svg width="56" height="56" viewBox="0 0 56 56" fill="none" xmlns="http://www.w3.org/2000/svg">
<path d="M7 14H11.6667H49" stroke="#EA4335" stroke-width="4" stroke-linecap="round" stroke-linejoin="round"/>
<path d="M18.6667 14V9.33329C18.6667 8.09562 19.1583 6.90863 20.0335 6.03346C20.9087 5.15829 22.0956 4.66663 23.3333 4.66663H32.6667C33.9043 4.66663 35.0913 5.15829 35.9665 6.03346C36.8417 6.90863 37.3333 8.09562 37.3333 9.33329V14M44.3333 14V46.6666C44.3333 47.9043 43.8417 49.0913 42.9665 49.9665C42.0913 50.8416 40.9043 51.3333 39.6667 51.3333H16.3333C15.0956 51.3333 13.9087 50.8416 13.0335 49.9665C12.1583 49.0913 11.6667 47.9043 11.6667 46.6666V14H44.3333Z" stroke="#EA4335" stroke-width="4" stroke-linecap="round" stroke-linejoin="round"/>
<path d="M23.3333 25.6666V39.6666" stroke="#EA4335" stroke-width="4" stroke-linecap="round" stroke-linejoin="round"/>
<path d="M32.6667 25.6666V39.6666" stroke="#EA4335" stroke-width="4" stroke-linecap="round" stroke-linejoin="round"/>
</svg>
