<svg width="31" height="31" viewBox="0 0 31 31" fill="none" xmlns="http://www.w3.org/2000/svg">
<path d="M20.6667 23.25L23.25 25.8333L28.4167 20.6667M15.5 19.375H10.3334C7.92601 19.375 6.72233 19.375 5.77284 19.7683C4.50686 20.2927 3.50105 21.2985 2.97666 22.5645C2.58337 23.514 2.58337 24.7176 2.58337 27.125M20.0209 4.25056C21.9143 5.01702 23.25 6.87336 23.25 9.04167C23.25 11.21 21.9143 13.0663 20.0209 13.8328M17.4375 9.04167C17.4375 11.8951 15.1243 14.2083 12.2709 14.2083C9.4174 14.2083 7.10421 11.8951 7.10421 9.04167C7.10421 6.1882 9.4174 3.875 12.2709 3.875C15.1243 3.875 17.4375 6.1882 17.4375 9.04167Z" stroke="#3C5AE7" stroke-width="2" stroke-linecap="round" stroke-linejoin="round"/>
</svg>
