<svg width="74" height="74" viewBox="0 0 74 74" fill="none" xmlns="http://www.w3.org/2000/svg">
<path opacity="0.3" d="M49.3545 6.10101H24.6455C14.6212 6.10101 6.49495 14.2273 6.49495 24.2515V48.9606C6.49495 58.9849 14.6212 67.1111 24.6455 67.1111H49.3545C59.3788 67.1111 67.505 58.9849 67.505 48.9606V24.2515C67.505 14.2273 59.3788 6.10101 49.3545 6.10101Z" fill="#3C5AE7"/>
<path d="M24.1574 30.9626C22.9507 30.9626 21.7711 30.6048 20.7678 29.9344C19.7645 29.264 18.9825 28.3112 18.5208 27.1964C18.059 26.0816 17.9382 24.8548 18.1736 23.6714C18.409 22.4879 18.9901 21.4008 19.8433 20.5476C20.6966 19.6943 21.7836 19.1132 22.9671 18.8778C24.1506 18.6424 25.3773 18.7632 26.4921 19.225C27.6069 19.6868 28.5598 20.4688 29.2302 21.4721C29.9006 22.4754 30.2584 23.655 30.2584 24.8616C30.2584 26.4797 29.6156 28.0315 28.4714 29.1757C27.3273 30.3198 25.7755 30.9626 24.1574 30.9626ZM67.5051 46.9473L60.5194 39.9006C59.6062 38.9685 58.511 38.2341 57.302 37.7431C56.093 37.2521 54.7959 37.015 53.4913 37.0464C52.1868 37.0779 50.9027 37.3773 49.7187 37.926C48.5348 38.4748 47.4763 39.2611 46.6091 40.2362L40.5081 46.8558C39.9027 47.5343 39.1685 48.0858 38.3481 48.4782C37.5277 48.8705 36.6376 49.096 35.7294 49.1414C34.8211 49.1868 33.9129 49.0513 33.0575 48.7427C32.2021 48.4341 31.4165 47.9586 30.7465 47.3438C29.0608 45.812 26.8831 44.9331 24.6063 44.866C22.3296 44.7989 20.1039 45.5479 18.3309 46.9778L7.65414 55.5802C8.95808 58.9785 11.2634 61.9007 14.2649 63.9598C17.2664 66.0189 20.8225 67.1178 24.4624 67.1111H49.5071C54.3083 67.0311 58.8857 65.0675 62.2525 61.6436C65.6193 58.2198 67.5057 53.61 67.5051 48.8081V46.9473Z" fill="#3C5AE7"/>
</svg>
