<svg width="15" height="13" viewBox="0 0 15 13" fill="none" xmlns="http://www.w3.org/2000/svg">
<path d="M13.75 4.00001V6.50001M6.40625 2.43751H4.25C3.1999 2.43751 2.67485 2.43751 2.27377 2.64187C1.92096 2.82163 1.63412 3.10847 1.45436 3.46127C1.25 3.86236 1.25 4.38741 1.25 5.43751L1.25 6.18751C1.25 6.76993 1.25 7.06115 1.34515 7.29086C1.47202 7.59715 1.71536 7.84049 2.02165 7.96735C2.25136 8.06251 2.54257 8.06251 3.125 8.06251V10.7188C3.125 10.8639 3.125 10.9364 3.13102 10.9975C3.18947 11.591 3.65901 12.0605 4.25248 12.119C4.31359 12.125 4.38615 12.125 4.53125 12.125C4.67636 12.125 4.74891 12.125 4.81002 12.119C5.40349 12.0605 5.87303 11.591 5.93148 10.9975C5.9375 10.9364 5.9375 10.8639 5.9375 10.7188V8.06251H6.40625C7.51027 8.06251 8.86078 8.65431 9.90269 9.22228C10.5105 9.55363 10.8144 9.7193 11.0135 9.69492C11.1981 9.67232 11.3376 9.58944 11.4458 9.4382C11.5625 9.2751 11.5625 8.94876 11.5625 8.29608V2.20393C11.5625 1.55125 11.5625 1.22491 11.4458 1.06181C11.3376 0.910569 11.1981 0.827693 11.0135 0.805086C10.8144 0.780707 10.5105 0.94638 9.90269 1.27773C8.86078 1.8457 7.51027 2.43751 6.40625 2.43751Z" stroke="#3C5AE7" stroke-linecap="round" stroke-linejoin="round"/>
</svg>
