<svg width="19" height="19" viewBox="0 0 19 19" fill="none" xmlns="http://www.w3.org/2000/svg">
<path d="M11.875 16.625V12.35C11.875 11.9066 11.875 11.6849 11.7887 11.5156C11.7128 11.3666 11.5917 11.2455 11.4427 11.1696C11.2734 11.0833 11.0517 11.0833 10.6083 11.0833H8.39167C7.94829 11.0833 7.7266 11.0833 7.55726 11.1696C7.4083 11.2455 7.28719 11.3666 7.21129 11.5156C7.125 11.6849 7.125 11.9066 7.125 12.35V16.625M2.375 5.54167C2.375 6.85334 3.43832 7.91667 4.75 7.91667C6.06168 7.91667 7.125 6.85334 7.125 5.54167C7.125 6.85334 8.18832 7.91667 9.5 7.91667C10.8117 7.91667 11.875 6.85334 11.875 5.54167C11.875 6.85334 12.9383 7.91667 14.25 7.91667C15.5617 7.91667 16.625 6.85334 16.625 5.54167M4.90833 16.625H14.0917C14.9784 16.625 15.4218 16.625 15.7605 16.4524C16.0584 16.3006 16.3006 16.0584 16.4524 15.7605C16.625 15.4218 16.625 14.9784 16.625 14.0917V4.90833C16.625 4.02158 16.625 3.57821 16.4524 3.23952C16.3006 2.94159 16.0584 2.69937 15.7605 2.54757C15.4218 2.375 14.9784 2.375 14.0917 2.375H4.90833C4.02158 2.375 3.57821 2.375 3.23952 2.54757C2.94159 2.69937 2.69937 2.94159 2.54757 3.23952C2.375 3.57821 2.375 4.02158 2.375 4.90833V14.0917C2.375 14.9784 2.375 15.4218 2.54757 15.7605C2.69937 16.0584 2.94159 16.3006 3.23952 16.4524C3.57821 16.625 4.02158 16.625 4.90833 16.625Z" stroke="#393842" stroke-width="1.5" stroke-linecap="round" stroke-linejoin="round"/>
</svg>
