<svg width="19" height="19" viewBox="0 0 19 19" fill="none" xmlns="http://www.w3.org/2000/svg">
<path d="M12.6667 3.16659C13.4029 3.16659 13.771 3.16659 14.073 3.24751C14.8926 3.46712 15.5328 4.1073 15.7524 4.92689C15.8333 5.22891 15.8333 5.59702 15.8333 6.33325V13.6166C15.8333 14.9467 15.8333 15.6118 15.5745 16.1198C15.3468 16.5667 14.9834 16.93 14.5366 17.1577C14.0285 17.4166 13.3634 17.4166 12.0333 17.4166H6.96666C5.63653 17.4166 4.97147 17.4166 4.46343 17.1577C4.01654 16.93 3.65322 16.5667 3.42552 16.1198C3.16666 15.6118 3.16666 14.9467 3.16666 13.6166V6.33325C3.16666 5.59702 3.16666 5.22891 3.24758 4.92689C3.46719 4.1073 4.10737 3.46712 4.92696 3.24751C5.22898 3.16659 5.5971 3.16659 6.33332 3.16659M7.59999 4.74992H11.4C11.8434 4.74992 12.0651 4.74992 12.2344 4.66363C12.3834 4.58773 12.5045 4.46662 12.5804 4.31766C12.6667 4.14831 12.6667 3.92663 12.6667 3.48325V2.84992C12.6667 2.40654 12.6667 2.18486 12.5804 2.01551C12.5045 1.86655 12.3834 1.74544 12.2344 1.66954C12.0651 1.58325 11.8434 1.58325 11.4 1.58325H7.59999C7.15661 1.58325 6.93493 1.58325 6.76558 1.66954C6.61662 1.74544 6.49551 1.86655 6.41961 2.01551C6.33332 2.18486 6.33332 2.40654 6.33332 2.84992V3.48325C6.33332 3.92663 6.33332 4.14831 6.41961 4.31766C6.49551 4.46662 6.61662 4.58773 6.76558 4.66363C6.93493 4.74992 7.15661 4.74992 7.59999 4.74992Z" stroke="white" stroke-width="1.5" stroke-linecap="round" stroke-linejoin="round"/>
</svg>
