<svg width="19" height="19" viewBox="0 0 19 19" fill="none" xmlns="http://www.w3.org/2000/svg">
<path d="M12.825 16.625H5.48734C5.00773 16.625 4.76793 16.625 4.65689 16.5302C4.56054 16.4479 4.50941 16.3244 4.51935 16.1981C4.5308 16.0525 4.70037 15.883 5.0395 15.5438L11.771 8.81234C12.0845 8.49883 12.2413 8.34207 12.422 8.28333C12.581 8.23167 12.7523 8.23167 12.9113 8.28333C13.0921 8.34207 13.2488 8.49882 13.5623 8.81233L16.625 11.875V12.825M12.825 16.625C14.1551 16.625 14.8202 16.625 15.3282 16.3661C15.7751 16.1384 16.1384 15.7751 16.3661 15.3282C16.625 14.8202 16.625 14.1551 16.625 12.825M12.825 16.625H6.175C4.84488 16.625 4.17981 16.625 3.67177 16.3661C3.22489 16.1384 2.86156 15.7751 2.63386 15.3282C2.375 14.8202 2.375 14.1551 2.375 12.825V6.175C2.375 4.84488 2.375 4.17981 2.63386 3.67177C2.86156 3.22489 3.22489 2.86156 3.67177 2.63386C4.17981 2.375 4.84488 2.375 6.175 2.375H12.825C14.1551 2.375 14.8202 2.375 15.3282 2.63386C15.7751 2.86156 16.1384 3.22489 16.3661 3.67177C16.625 4.17981 16.625 4.84488 16.625 6.175V12.825M8.3125 6.72917C8.3125 7.60362 7.60362 8.3125 6.72917 8.3125C5.85472 8.3125 5.14583 7.60362 5.14583 6.72917C5.14583 5.85472 5.85472 5.14583 6.72917 5.14583C7.60362 5.14583 8.3125 5.85472 8.3125 6.72917Z" stroke="white" stroke-width="1.5" stroke-linecap="round" stroke-linejoin="round"/>
</svg>
