<svg width="19" height="19" viewBox="0 0 19 19" fill="none" xmlns="http://www.w3.org/2000/svg">
<path d="M11.0833 1.79663V5.06664C11.0833 5.51002 11.0833 5.7317 11.1696 5.90105C11.2455 6.05001 11.3666 6.17112 11.5156 6.24702C11.6849 6.33331 11.9066 6.33331 12.35 6.33331H15.62M12.6667 10.2916H6.33332M12.6667 13.4583H6.33332M7.91666 7.12492H6.33332M11.0833 1.58325H6.96666C5.63653 1.58325 4.97147 1.58325 4.46343 1.84211C4.01654 2.06981 3.65322 2.43314 3.42552 2.88002C3.16666 3.38806 3.16666 4.05313 3.16666 5.38325V13.6166C3.16666 14.9467 3.16666 15.6118 3.42552 16.1198C3.65322 16.5667 4.01654 16.93 4.46343 17.1577C4.97147 17.4166 5.63653 17.4166 6.96666 17.4166H12.0333C13.3634 17.4166 14.0285 17.4166 14.5366 17.1577C14.9834 16.93 15.3468 16.5667 15.5745 16.1198C15.8333 15.6118 15.8333 14.9467 15.8333 13.6166V6.33325L11.0833 1.58325Z" stroke="white" stroke-width="1.5" stroke-linecap="round" stroke-linejoin="round"/>
</svg>
