<svg width="19" height="19" viewBox="0 0 19 19" fill="none" xmlns="http://www.w3.org/2000/svg">
<g clip-path="url(#clip0_122_3133)">
<path d="M4.82475 8.88944C4.77554 8.57233 4.75001 8.24745 4.75001 7.91665C4.75001 4.41884 7.6042 1.58331 11.125 1.58331C14.6458 1.58331 17.5 4.41884 17.5 7.91665C17.5 8.70679 17.3544 9.46313 17.0883 10.1606C17.033 10.3055 17.0054 10.3779 16.9928 10.4345C16.9804 10.4905 16.9756 10.5299 16.9743 10.5873C16.9729 10.6452 16.9808 10.709 16.9965 10.8366L17.3152 13.4255C17.3497 13.7057 17.3669 13.8459 17.3203 13.9477C17.2795 14.037 17.2069 14.1079 17.1167 14.1467C17.0138 14.1909 16.8741 14.1705 16.5947 14.1295L14.0731 13.7599C13.9414 13.7406 13.8756 13.7309 13.8156 13.7313C13.7563 13.7316 13.7152 13.736 13.6572 13.7482C13.5985 13.7605 13.5236 13.7886 13.3737 13.8447C12.6744 14.1067 11.9165 14.25 11.125 14.25C10.7939 14.25 10.4688 14.2249 10.1513 14.1766M6.04171 17.4166C8.38892 17.4166 10.2917 15.4672 10.2917 13.0625C10.2917 10.6577 8.38892 8.70831 6.04171 8.70831C3.6945 8.70831 1.79171 10.6577 1.79171 13.0625C1.79171 13.5459 1.86859 14.0109 2.01052 14.4453C2.07051 14.629 2.10051 14.7208 2.11035 14.7835C2.12063 14.849 2.12243 14.8858 2.1186 14.952C2.11494 15.0154 2.09908 15.087 2.06736 15.2303L1.58337 17.4166L3.95426 17.0929C4.08367 17.0752 4.14837 17.0663 4.20487 17.0667C4.26437 17.0671 4.29595 17.0704 4.35429 17.082C4.40971 17.093 4.49208 17.1221 4.65684 17.1803C5.09093 17.3335 5.55683 17.4166 6.04171 17.4166Z" stroke="#393842" stroke-width="1.5" stroke-linecap="round" stroke-linejoin="round"/>
</g>
<defs>
<clipPath id="clip0_122_3133">
<rect width="19" height="19" fill="white"/>
</clipPath>
</defs>
</svg>
