<svg width="14" height="15" viewBox="0 0 14 15" fill="none" xmlns="http://www.w3.org/2000/svg">
<path d="M11.0834 13.125V9.375M9.33342 11.25H12.8334M7.00008 9.375H4.66675C3.57955 9.375 3.03595 9.375 2.60715 9.5653C2.03542 9.81904 1.58118 10.3057 1.34436 10.9183C1.16675 11.3777 1.16675 11.9601 1.16675 13.125M9.04175 2.05672C9.89687 2.42759 10.5001 3.32582 10.5001 4.375C10.5001 5.42418 9.89687 6.32241 9.04175 6.69328M7.87508 4.375C7.87508 5.75571 6.83041 6.875 5.54175 6.875C4.25308 6.875 3.20841 5.75571 3.20841 4.375C3.20841 2.99429 4.25308 1.875 5.54175 1.875C6.83041 1.875 7.87508 2.99429 7.87508 4.375Z" stroke="white" stroke-linecap="round" stroke-linejoin="round"/>
</svg>
