<svg width="19" height="19" viewBox="0 0 19 19" fill="none" xmlns="http://www.w3.org/2000/svg">
<path d="M11.0833 8.70837H6.33329M7.91663 11.875H6.33329M12.6666 5.54171H6.33329M15.8333 5.38337V13.6167C15.8333 14.9468 15.8333 15.6119 15.5744 16.1199C15.3467 16.5668 14.9834 16.9301 14.5365 17.1578C14.0285 17.4167 13.3634 17.4167 12.0333 17.4167H6.96663C5.6365 17.4167 4.97144 17.4167 4.4634 17.1578C4.01651 16.9301 3.65318 16.5668 3.42549 16.1199C3.16663 15.6119 3.16663 14.9468 3.16663 13.6167V5.38337C3.16663 4.05325 3.16663 3.38819 3.42549 2.88015C3.65318 2.43326 4.01651 2.06993 4.4634 1.84223C4.97144 1.58337 5.6365 1.58337 6.96663 1.58337H12.0333C13.3634 1.58337 14.0285 1.58337 14.5365 1.84223C14.9834 2.06993 15.3467 2.43326 15.5744 2.88015C15.8333 3.38819 15.8333 4.05325 15.8333 5.38337Z" stroke="white" stroke-width="1.5" stroke-linecap="round" stroke-linejoin="round"/>
</svg>
