<svg width="19" height="19" viewBox="0 0 19 19" fill="none" xmlns="http://www.w3.org/2000/svg">
<path d="M15.8337 7.52087V5.38337C15.8337 4.05325 15.8337 3.38819 15.5748 2.88015C15.3471 2.43326 14.9838 2.06993 14.5369 1.84223C14.0288 1.58337 13.3638 1.58337 12.0337 1.58337H6.96699C5.63687 1.58337 4.97181 1.58337 4.46376 1.84223C4.01688 2.06993 3.65355 2.43326 3.42585 2.88015C3.16699 3.38819 3.16699 4.05325 3.16699 5.38337V13.6167C3.16699 14.9468 3.16699 15.6119 3.42585 16.1199C3.65355 16.5668 4.01688 16.9301 4.46376 17.1578C4.97181 17.4167 5.63687 17.4167 6.96699 17.4167H11.0837M11.0837 8.70837H6.33366M7.91699 11.875H6.33366M12.667 5.54171H6.33366M13.0628 11.8768C13.2023 11.4803 13.4776 11.1459 13.84 10.9329C14.2024 10.72 14.6285 10.6421 15.0428 10.7132C15.4571 10.7842 15.8329 10.9996 16.1036 11.3212C16.3743 11.6428 16.5224 12.0498 16.5218 12.4701C16.5218 13.6567 14.7419 14.25 14.7419 14.25M14.7648 16.625H14.7727" stroke="white" stroke-width="1.5" stroke-linecap="round" stroke-linejoin="round"/>
</svg>
