<svg width="19" height="19" viewBox="0 0 19 19" fill="none" xmlns="http://www.w3.org/2000/svg">
<path d="M12.6663 6.33333C12.6663 7.17318 12.3327 7.97864 11.7388 8.5725C11.1449 9.16637 10.3395 9.5 9.49963 9.5C8.65978 9.5 7.85433 9.16637 7.26046 8.5725C6.6666 7.97864 6.33297 7.17318 6.33297 6.33333M2.87593 5.85943L2.32176 12.5094C2.20272 13.938 2.14319 14.6523 2.38468 15.2033C2.59684 15.6874 2.96445 16.0869 3.42928 16.3386C3.95834 16.625 4.67511 16.625 6.10864 16.625H12.8906C14.3242 16.625 15.0409 16.625 15.57 16.3386C16.0348 16.0869 16.4024 15.6874 16.6146 15.2033C16.8561 14.6523 16.7966 13.938 16.6775 12.5094L16.1233 5.85943C16.0209 4.63026 15.9697 4.01568 15.6975 3.55051C15.4578 3.14089 15.1009 2.81248 14.6728 2.60763C14.1866 2.375 13.5699 2.375 12.3365 2.375L6.66281 2.375C5.42938 2.375 4.81266 2.375 4.3265 2.60763C3.89839 2.81248 3.54147 3.14089 3.30177 3.55051C3.02958 4.01568 2.97836 4.63026 2.87593 5.85943Z" stroke="#393842" stroke-width="1.5" stroke-linecap="round" stroke-linejoin="round"/>
</svg>
