<svg width="19" height="19" viewBox="0 0 19 19" fill="none" xmlns="http://www.w3.org/2000/svg">
<path d="M7.91671 6.33332V5.54166M7.91671 9.89582V9.10416M7.91671 13.4583V12.6667M4.11671 3.16666H14.8834C15.7701 3.16666 16.2135 3.16666 16.5522 3.33923C16.8501 3.49103 17.0923 3.73325 17.2441 4.03117C17.4167 4.36987 17.4167 4.81324 17.4167 5.69999V6.72916C15.8864 6.72916 14.6459 7.9697 14.6459 9.49999C14.6459 11.0303 15.8864 12.2708 17.4167 12.2708V13.3C17.4167 14.1867 17.4167 14.6301 17.2441 14.9688C17.0923 15.2667 16.8501 15.5089 16.5522 15.6607C16.2135 15.8333 15.7701 15.8333 14.8834 15.8333H4.11671C3.22996 15.8333 2.78658 15.8333 2.44789 15.6607C2.14997 15.5089 1.90775 15.2667 1.75595 14.9688C1.58337 14.6301 1.58337 14.1867 1.58337 13.3V12.2708C3.11366 12.2708 4.35421 11.0303 4.35421 9.49999C4.35421 7.9697 3.11366 6.72916 1.58337 6.72916V5.69999C1.58337 4.81324 1.58337 4.36987 1.75595 4.03117C1.90775 3.73325 2.14997 3.49103 2.44789 3.33923C2.78658 3.16666 3.22996 3.16666 4.11671 3.16666Z" stroke="#393842" stroke-width="1.5" stroke-linecap="round" stroke-linejoin="round"/>
</svg>
