<svg width="15" height="15" viewBox="0 0 15 15" fill="none" xmlns="http://www.w3.org/2000/svg">
<path d="M11.25 9.89805C12.16 10.3552 12.9401 11.0887 13.5095 12.006C13.6223 12.1877 13.6787 12.2785 13.6982 12.4043C13.7378 12.6599 13.563 12.9741 13.325 13.0752C13.2078 13.125 13.0761 13.125 12.8125 13.125M10 7.20765C10.9261 6.74743 11.5625 5.79179 11.5625 4.6875C11.5625 3.58321 10.9261 2.62757 10 2.16735M8.75002 4.6875C8.75002 6.2408 7.49082 7.5 5.93752 7.5C4.38422 7.5 3.12502 6.2408 3.12502 4.6875C3.12502 3.1342 4.38422 1.875 5.93752 1.875C7.49082 1.875 8.75002 3.1342 8.75002 4.6875ZM1.59954 11.8365C2.59598 10.3403 4.16838 9.375 5.93752 9.375C7.70666 9.375 9.27906 10.3403 10.2755 11.8365C10.4938 12.1642 10.6029 12.3281 10.5904 12.5374C10.5806 12.7005 10.4737 12.9 10.3435 12.9985C10.1762 13.125 9.94616 13.125 9.48605 13.125H2.38899C1.92888 13.125 1.69882 13.125 1.53154 12.9985C1.4013 12.9 1.29445 12.7005 1.28467 12.5374C1.2721 12.3281 1.38125 12.1642 1.59954 11.8365Z" stroke="white" stroke-linecap="round" stroke-linejoin="round"/>
</svg>
