<svg width="285" height="124" viewBox="0 0 285 124" fill="none" xmlns="http://www.w3.org/2000/svg">
<path d="M198.37 28.1534C197.644 25.8137 196.363 23.744 194.528 21.97C192.69 20.1831 190.181 18.769 186.985 17.702C183.788 16.6351 179.706 16.0951 174.779 16.0951H152.192H148.335V16.4551C148.335 16.4551 152.192 19.0518 152.192 25.9422V76.0779H163.076V24.9909H174.594C177.342 24.9909 179.614 25.2351 181.411 25.698C183.206 26.1736 184.646 26.8549 185.703 27.742C186.772 28.629 187.513 29.7474 187.949 31.0843C188.372 32.4212 188.596 33.9768 188.596 35.7637C188.596 37.5506 188.398 39.029 188.001 40.3915C187.605 41.7542 186.891 42.924 185.849 43.9139C184.806 44.8909 183.391 45.6494 181.595 46.1893C179.798 46.7163 177.5 46.9863 174.687 46.9863H170.579L166.722 55.9721H174.965C179.785 55.9721 183.775 55.4193 186.945 54.3267C190.115 53.234 192.625 51.7427 194.487 49.8788C196.35 48.0147 197.644 45.8294 198.37 43.3354C199.098 40.8415 199.466 38.2319 199.466 35.5066C199.466 32.9613 199.098 30.5059 198.37 28.1662V28.1534Z" fill="white"/>
<path d="M207.896 16.097V16.4569C207.896 16.4569 211.752 19.0537 211.752 25.9442V76.0799H222.822V16.0585L211.752 16.097H207.896Z" fill="white"/>
<path d="M277.491 25.351L281.347 16.0951H235.789V16.4551C235.789 16.4551 239.647 19.0518 239.647 25.9422V76.0779H250.716V52.6812H272.405L276.262 43.4254H250.716V25.351H277.503H277.491Z" fill="white"/>
<path d="M222.801 88.5626H152.107V89.5652H222.801V88.5626Z" fill="#C5994F"/>
<path d="M231.18 88.7783C231.18 90.4366 232.501 91.465 234.139 91.465H235.553C235.182 92.4164 234.126 92.8791 232.989 92.8791C231.497 92.8791 230.03 92.1464 230.03 90.6166V89.4083L228.367 89.7297V90.4238C228.367 92.892 230.573 93.9719 232.897 93.9719C235.368 93.9719 237.442 92.8791 237.442 90.2825V85.963H234.575C232.87 85.963 231.194 86.8501 231.194 88.7783H231.18ZM235.764 90.1795C235.764 90.1795 235.764 90.3081 235.764 90.3595H234.496C233.571 90.3595 232.845 89.7682 232.845 88.7269C232.845 87.6213 233.636 87.0557 234.535 87.0557H235.764V90.1795Z" fill="#C5994F"/>
<path d="M233.71 84.6802C234.132 84.6802 234.49 84.3459 234.49 83.9346C234.49 83.5233 234.146 83.189 233.71 83.189C233.274 83.189 232.944 83.5233 232.944 83.9346C232.944 84.3459 233.288 84.6802 233.71 84.6802Z" fill="#C5994F"/>
<path d="M235.792 84.6802C236.216 84.6802 236.558 84.3459 236.558 83.9346C236.558 83.5233 236.216 83.189 235.792 83.189C235.37 83.189 235.026 83.5233 235.026 83.9346C235.026 84.3459 235.356 84.6802 235.792 84.6802Z" fill="#C5994F"/>
<path d="M238.887 88.7943C238.887 90.4526 240.208 91.4681 241.846 91.4681H243.457C243.338 92.6124 242.691 93.0495 241.41 93.0495H240.46V94.0649H241.675C243.879 94.0649 245.122 93.255 245.122 90.8126V85.979H242.255C240.565 85.979 238.874 86.8659 238.874 88.8072L238.887 88.7943ZM243.47 90.3755H242.19C241.278 90.3755 240.538 89.7971 240.538 88.7556C240.538 87.6502 241.331 87.0717 242.243 87.0717H243.457V90.3883L243.47 90.3755Z" fill="#C5994F"/>
<path d="M261.38 85.1317C261.841 85.1317 262.225 84.7716 262.225 84.3089C262.225 83.8462 261.841 83.4861 261.38 83.4861C260.918 83.4861 260.534 83.8589 260.534 84.3089C260.534 84.7589 260.904 85.1317 261.38 85.1317Z" fill="#C5994F"/>
<path d="M276.1 86.6577H272.334L271.991 87.3905V86.1821L270.341 86.4906V90.3859H263.142H262.163V86.375L260.514 86.6964V90.3986H251.597V88.7018C251.597 86.8121 250.527 85.9893 248.572 85.9893H247.053V87.0692H248.163C249.365 87.0692 249.945 87.4676 249.945 88.496V90.3986H246.353V91.4914H260.514C261.069 91.4914 261.53 91.2857 261.821 90.9387L262.217 91.4914H263.154H279.309V89.396C279.309 87.4547 277.803 86.6964 276.127 86.6964L276.1 86.6577ZM277.619 90.373H271.991V87.7377H275.954C276.972 87.7377 277.619 88.2904 277.619 89.1517V90.3601V90.373Z" fill="#C5994F"/>
<path d="M154.032 100.774C154.455 100.774 154.798 100.44 154.798 100.028C154.798 99.6169 154.455 99.2698 154.032 99.2698C153.609 99.2698 153.266 99.604 153.266 100.028C153.266 100.452 153.609 100.774 154.032 100.774Z" fill="#C5994F"/>
<path d="M156.088 100.774C156.511 100.774 156.855 100.44 156.855 100.028C156.855 99.6169 156.511 99.2698 156.088 99.2698C155.666 99.2698 155.322 99.604 155.322 100.028C155.322 100.452 155.653 100.774 156.088 100.774Z" fill="#C5994F"/>
<path d="M164.033 101.94H161.919L161.206 104.498C160.902 105.668 160.572 106.311 159.463 106.311H158.221V101.606L156.57 101.927V102.3H154.668C153.109 102.3 151.934 103.303 151.934 104.845C151.934 106.388 153.109 107.391 154.668 107.391H156.293L156.834 106.593C157.138 107.095 157.693 107.391 158.393 107.391H159.582C161.471 107.391 162.448 106.465 162.897 104.704L163.306 103.033H164.073C164.958 103.033 165.75 103.624 165.75 104.691V106.298H162.21L162.989 107.391H167.401V104.781C167.401 102.853 165.75 101.927 164.046 101.927L164.033 101.94ZM155.038 106.311C154.153 106.311 153.572 105.732 153.572 104.858C153.572 103.984 154.153 103.405 155.038 103.405H156.557V105.642C156.557 105.886 156.596 106.105 156.662 106.311H155.038Z" fill="#C5994F"/>
<path d="M188.678 106.3H183.698H181.915C182.747 105.709 183.21 104.886 183.21 104.102C183.21 102.932 182.165 101.878 180.132 101.878C179.035 101.878 177.939 102.173 177.067 102.482L176.499 103.253L176.593 103.318L176.499 103.343L176.75 103.896C177.451 105.053 177.873 105.786 178.415 106.3H174.874H170.582V98.3297L168.931 98.6511V105.773C168.931 106.737 169.592 107.393 170.594 107.393H174.874H178.098C178.864 107.393 179.392 107.161 179.947 106.994C180.356 107.148 180.792 107.393 181.505 107.393H183.686H190.316V98.3297L188.651 98.6382V106.3H188.678ZM180.21 106.094C179.471 105.644 178.797 104.642 178.296 103.806C178.242 103.729 178.071 103.51 177.925 103.33C178.507 103.15 179.22 102.983 179.788 102.983C180.832 102.983 181.558 103.549 181.558 104.41C181.558 105.066 181.136 105.773 180.21 106.094Z" fill="#C5994F"/>
<path d="M192.276 107.395H193.941V98.3449L192.276 98.6534V107.395Z" fill="#C5994F"/>
<path d="M204.582 102.663C205.004 102.663 205.348 102.328 205.348 101.917C205.348 101.506 205.017 101.171 204.582 101.171C204.146 101.171 203.815 101.506 203.815 101.917C203.815 102.328 204.159 102.663 204.582 102.663Z" fill="#C5994F"/>
<path d="M202.502 102.663C202.925 102.663 203.269 102.328 203.269 101.917C203.269 101.506 202.925 101.171 202.502 101.171C202.08 101.171 201.736 101.506 201.736 101.917C201.736 102.328 202.08 102.663 202.502 102.663Z" fill="#C5994F"/>
<path d="M206.863 106.3H201.275C200.114 106.3 199.77 105.889 199.77 104.719V103.587L198.119 103.909V104.397C198.119 106.531 199.161 107.393 201.091 107.393H208.526V102.289L206.877 102.611V106.313L206.863 106.3Z" fill="#C5994F"/>
<path d="M210.469 107.395H212.121V98.3449L210.469 98.6534V107.395Z" fill="#C5994F"/>
<path d="M214.09 107.83C214.09 108.858 213.601 109.308 212.61 109.462L212.98 110.465C214.922 110.221 215.742 109.192 215.742 107.47V102.289L214.09 102.611V107.83Z" fill="#C5994F"/>
<path d="M238.838 101.054C239.261 101.054 239.605 100.72 239.605 100.309C239.605 99.8972 239.261 99.563 238.838 99.563C238.416 99.563 238.072 99.8972 238.072 100.309C238.072 100.72 238.416 101.054 238.838 101.054Z" fill="#C5994F"/>
<path d="M239.817 99.3454C240.24 99.3454 240.584 99.0111 240.584 98.5998C240.584 98.1884 240.24 97.8541 239.817 97.8541C239.395 97.8541 239.051 98.1884 239.051 98.5998C239.051 99.0111 239.382 99.3454 239.817 99.3454Z" fill="#C5994F"/>
<path d="M240.138 100.309C240.138 100.707 240.468 101.054 240.904 101.054C241.34 101.054 241.67 100.72 241.67 100.309C241.67 99.8972 241.326 99.563 240.904 99.563C240.481 99.563 240.138 99.8972 240.138 100.309Z" fill="#C5994F"/>
<path d="M247.816 101.054C248.238 101.054 248.596 100.72 248.596 100.309C248.596 99.8972 248.252 99.563 247.816 99.563C247.38 99.563 247.05 99.8972 247.05 100.309C247.05 100.72 247.393 101.054 247.816 101.054Z" fill="#C5994F"/>
<path d="M249.897 101.054C250.319 101.054 250.663 100.72 250.663 100.309C250.663 99.8972 250.332 99.563 249.897 99.563C249.461 99.563 249.13 99.8972 249.13 100.309C249.13 100.72 249.461 101.054 249.897 101.054Z" fill="#C5994F"/>
<path d="M265.596 106.3H263.509C263.563 106.145 263.588 105.966 263.588 105.773V102.649L261.938 102.97V106.3H259.626V102.675L257.962 102.983V106.3H250.657V102.289L249.006 102.61V106.313H241.648V102.302L239.997 102.623V106.325H232.429V104.809C232.429 102.88 230.778 101.955 229.073 101.955H226.96L226.246 104.513C225.943 105.683 225.612 106.325 224.503 106.325H224.226C224.226 106.325 224.213 106.351 224.186 106.364C224.172 106.364 224.186 106.325 224.159 106.325H219.128V98.3552L217.477 98.6766V105.798C217.477 106.763 218.137 107.418 219.14 107.418H224.159C224.159 107.418 224.172 107.392 224.186 107.38C224.199 107.38 224.199 107.418 224.226 107.418H224.595C226.498 107.418 227.462 106.493 227.911 104.731L228.32 103.06H229.073C229.958 103.06 230.751 103.652 230.751 104.719V106.325H227.212L227.99 107.418H239.958C240.513 107.418 240.974 107.213 241.266 106.865L241.661 107.418H248.966C249.521 107.418 249.983 107.213 250.273 106.865L250.671 107.418H261.911C262.48 107.418 262.941 107.2 263.246 106.84L263.655 107.418H267.248V102.315L265.596 102.636V106.338V106.3Z" fill="#C5994F"/>
<path d="M273.979 106.302H271.707V99.836L270.056 100.157V106.302H268.458V107.395H275.63V98.3449L273.979 98.6405V106.302Z" fill="#C5994F"/>
<path d="M277.57 98.6534V107.395H279.235V98.3449L277.57 98.6534Z" fill="#C5994F"/>
<path d="M127.412 62C127.412 95.3466 99.6466 122.368 65.3824 122.368C31.1184 122.368 3.35303 95.3466 3.35303 62C3.35303 28.6535 31.1315 1.63159 65.3824 1.63159C99.6334 1.63159 127.412 28.6535 127.412 62ZM65.3824 6.15665C33.6941 6.15665 8.00262 31.1602 8.00262 62C8.00262 92.8398 33.6941 117.843 65.3824 117.843C97.0707 117.843 122.762 92.8398 122.762 62C122.762 31.1602 97.0707 6.15665 65.3824 6.15665Z" fill="white"/>
<path d="M65.3839 19.9239C41.502 19.9239 22.1509 38.7569 22.1509 61.9992C22.1509 85.2417 41.502 104.075 65.3839 104.075C89.2657 104.075 108.617 85.2417 108.617 61.9992C108.617 38.7569 89.2657 19.9239 65.3839 19.9239ZM65.3839 102.262C42.5322 102.262 24.0133 84.2389 24.0133 61.9992C24.0133 39.7596 42.5322 21.7366 65.3839 21.7366C88.2353 21.7366 106.754 39.7596 106.754 61.9992C106.754 84.2389 88.2353 102.262 65.3839 102.262Z" fill="white"/>
<path d="M118.599 54.2608L112.034 55.4564L111.783 54.0036L118.348 52.7953L118.612 54.2608H118.599Z" fill="white"/>
<path d="M118.237 71.8453L111.633 70.7526L111.91 69.2999L118.501 70.3798L118.251 71.8453H118.237Z" fill="white"/>
<path d="M112.137 68.0553L112.295 66.5898L114.712 66.834L114.858 65.5614C114.977 64.4943 115.756 63.6588 117.117 63.8001C118.385 63.9287 119.256 64.8158 119.085 66.4098C118.9 68.1324 117.711 68.6338 116.35 68.4924L112.137 68.0553ZM116.786 67.0525C117.486 67.1297 117.988 66.8598 118.054 66.2813C118.107 65.7799 117.777 65.3685 117.024 65.2914C116.324 65.2142 115.875 65.5356 115.809 66.0241L115.703 66.9368L116.773 67.0525H116.786Z" fill="white"/>
<path d="M116.726 57.6311L116.793 58.7109L119.091 58.5823L119.183 60.0607L116.885 60.1893L116.951 61.2305L119.17 61.102L119.263 62.5675L116.026 62.7474L115.723 57.6825L112.288 57.8754L112.196 56.397L118.88 56.0242L118.972 57.5025L116.74 57.6311H116.726Z" fill="white"/>
<path d="M18.603 56.2391L12.2363 55.3007L12.4609 53.848L16.5821 54.4523L16.7538 53.3339L17.8501 53.5009L17.8236 53.668C17.7708 54.0023 17.8369 54.2851 18.035 54.5293C18.2199 54.7608 18.4709 54.9408 18.7747 55.0436L18.5898 56.2519L18.603 56.2391Z" fill="white"/>
<path d="M14.4042 57.9648C14.5891 57.6819 14.8401 57.4505 15.1703 57.2834C15.5006 57.1162 15.8704 57.0392 16.3063 57.0648C16.8214 57.0906 17.2442 57.2192 17.5743 57.4634C17.9046 57.6948 18.1292 57.9904 18.2746 58.3376C18.4197 58.6846 18.4726 59.0317 18.4593 59.4045C18.4065 60.2402 18.0895 60.8315 17.4952 61.1656C16.9007 61.4999 16.0553 61.6414 14.9854 61.59C13.7702 61.5257 12.9248 61.2686 12.4493 60.8186C11.9738 60.3686 11.7624 59.7773 11.802 59.0574C11.8285 58.5047 12.0002 58.0547 12.3172 57.7076C12.6342 57.3477 13.0569 57.1291 13.5985 57.0392L13.7174 58.4275C13.2154 58.5047 12.9644 58.736 12.938 59.1088C12.9248 59.4559 13.0569 59.7001 13.3607 59.8545C13.6645 60.0087 14.0608 60.1116 14.5495 60.1372V60.1116C14.391 59.9444 14.2721 59.7517 14.1929 59.5459C14.1136 59.3402 14.0872 59.1088 14.1004 58.8646C14.1136 58.5561 14.2193 58.2604 14.4042 57.9775V57.9648ZM15.5006 58.6846C15.3024 58.8388 15.21 59.0317 15.1968 59.2759C15.1836 59.5074 15.2628 59.7259 15.4478 59.9059C15.6327 60.0858 15.8836 60.1886 16.2007 60.2015C16.5309 60.2144 16.7951 60.1501 16.9932 59.983C17.1914 59.8287 17.297 59.6231 17.3103 59.3789C17.3233 59.1346 17.2442 58.9289 17.0724 58.7618C16.9007 58.5946 16.6497 58.4918 16.3063 58.4789C15.9761 58.466 15.6987 58.5303 15.5138 58.6846H15.5006Z" fill="white"/>
<path d="M18.2007 62.2686L18.4519 66.8065L17.0517 66.8835L11.8737 64.5953L11.7812 62.8855L16.9591 65.2509L16.8007 62.3456L18.2007 62.2686Z" fill="white"/>
<path d="M18.9716 70.0468L12.6049 70.9724L12.3804 69.5196L16.5016 68.9155L16.3298 67.797L17.4263 67.6428L17.4526 67.8099C17.5054 68.1442 17.6507 68.4013 17.915 68.5684C18.1659 68.7355 18.4565 68.8383 18.7735 68.8512L18.9584 70.0597L18.9716 70.0468Z" fill="white"/>
<path d="M109.574 33.4482C109.917 33.204 110.01 32.754 109.759 32.4069C109.508 32.0726 109.032 31.9826 108.689 32.227C108.345 32.4712 108.253 32.9468 108.504 33.281C108.755 33.6153 109.23 33.6925 109.574 33.4482Z" fill="white"/>
<path d="M111.428 40.7106L110.12 38.0495L109.327 38.1396L110.292 37.561L109.446 36.237L106.712 37.8311C106.369 37.2783 106.025 36.7384 105.655 36.2112L108.297 34.3987L107.346 33.1003L104.731 34.9001C104.361 34.3987 103.991 33.8973 103.608 33.4088L104.414 32.766C105.616 31.8019 105.708 30.7092 104.599 29.3852L103.872 28.5366L103.053 29.2437L103.502 29.7579C104.123 30.4906 104.097 30.9535 103.555 31.3906L102.604 32.1618C102.036 31.4934 101.468 30.8378 100.861 30.2078L100.055 30.9277C101.415 32.3676 102.697 33.9102 103.859 35.5043C104.176 35.9414 104.559 36.1984 105.008 36.237L104.797 36.8797C106.474 39.3608 107.914 42.0091 109.076 44.8115L110.609 44.0529C112.141 43.2946 112.035 41.8934 111.414 40.7235L111.428 40.7106ZM110.094 42.5104L109.407 42.8446C108.839 41.5976 108.205 40.3892 107.531 39.2065L109.01 38.3067L110.384 41.0706C110.714 41.7005 110.582 42.2533 110.08 42.4976L110.094 42.5104Z" fill="white"/>
<path d="M98.1428 23.0875L96.0558 25.7871C94.7349 27.4968 92.7667 27.1111 91.2081 25.967C89.7023 24.8615 88.7247 23.0875 90.0059 21.4291L90.5211 20.7736L91.8289 21.7377L91.2081 22.5476C90.4815 23.4861 91.0891 24.5401 91.9345 25.1571C92.5421 25.6071 93.3082 25.8129 93.9555 25.4914L93.2158 24.9515C92.1459 24.1672 91.8552 22.8946 92.6478 21.8791C93.612 20.6321 95.1443 20.8635 96.2539 21.6863L98.1561 23.0875H98.1428ZM95.5669 22.5347C95.0782 22.1748 94.4309 22.2004 93.9818 22.7918C93.5592 23.3446 93.665 23.9746 94.18 24.3474L94.7745 24.7843C94.7745 24.7843 94.8405 24.7073 94.8537 24.6815L96.1746 22.9718L95.5669 22.5347ZM96.2275 20.4779C95.9237 20.2593 95.8709 19.8351 96.0953 19.5394C96.3331 19.2438 96.7559 19.1795 97.0596 19.398C97.3634 19.6293 97.4295 20.0408 97.1916 20.3494C96.9671 20.645 96.5312 20.7093 96.2142 20.4779H96.2275ZM97.6409 21.5192C97.3369 21.3006 97.2841 20.8764 97.5088 20.5807C97.7465 20.2851 98.1691 20.2208 98.4729 20.4393C98.7769 20.6706 98.8427 21.0821 98.605 21.3906C98.3805 21.6863 97.9447 21.7506 97.6409 21.5192Z" fill="white"/>
<path d="M102.805 27.3427L100.123 30.0552C98.6306 31.5591 97.4022 31.2377 96.1077 30.0165L95.4736 29.4252L96.187 28.7054L96.6361 29.1296C97.2965 29.7594 97.8381 29.8879 98.4987 29.3738L97.6928 28.6282C96.7285 27.7155 96.5965 26.4427 97.5079 25.5171C98.6175 24.3988 100.097 24.823 101.101 25.7615L102.818 27.3683L102.805 27.3427ZM99.2646 28.6153L100.863 26.9955L100.321 26.4813C99.8854 26.0699 99.2383 26.0185 98.7231 26.5327C98.2344 27.0341 98.2608 27.6639 98.7231 28.101L99.2646 28.6024V28.6153Z" fill="white"/>
<path d="M42.9038 17.5589C43.2473 17.3918 43.3794 16.9803 43.2076 16.6589C43.0359 16.3248 42.6133 16.1962 42.2698 16.3633C41.9264 16.5305 41.7943 16.9418 41.9792 17.276C42.1509 17.5974 42.5735 17.7389 42.9038 17.5589Z" fill="white"/>
<path d="M41.3458 18.342C41.6891 18.1748 41.8212 17.7635 41.6495 17.4421C41.4777 17.1079 41.0551 16.9793 40.7117 17.1464C40.3815 17.3135 40.2361 17.725 40.421 18.0591C40.5929 18.3805 41.0023 18.522 41.3458 18.342Z" fill="white"/>
<path d="M64.2597 10.4375C64.2597 10.7974 64.5767 11.0931 64.9598 11.0931C65.3429 11.0931 65.6468 10.7846 65.6468 10.4118C65.6468 10.039 65.3296 9.74329 64.9335 9.74329C64.5504 9.74329 64.2465 10.0518 64.2597 10.4375Z" fill="white"/>
<path d="M63.1882 11.1193C63.5713 11.1193 63.8751 10.8108 63.8751 10.438C63.8751 10.0652 63.5581 9.76953 63.175 9.76953C62.7919 9.76953 62.4881 10.0781 62.5014 10.4509C62.5014 10.8237 62.8184 11.1193 63.2015 11.1065L63.1882 11.1193Z" fill="white"/>
<path d="M64.0296 9.65272C64.4127 9.65272 64.7165 9.34419 64.7165 8.97139C64.7165 8.59859 64.3994 8.30292 64.0033 8.30292C63.6202 8.30292 63.3164 8.61143 63.3295 8.99711C63.3295 9.35705 63.6465 9.66558 64.0296 9.65272Z" fill="white"/>
<path d="M68.9389 11.2078C69.322 11.2335 69.6523 10.9507 69.6786 10.5779C69.7051 10.2051 69.4146 9.88372 69.0315 9.85801C68.6484 9.83229 68.3312 10.1151 68.3049 10.5008C68.2784 10.8736 68.5691 11.1821 68.9522 11.2078H68.9389Z" fill="white"/>
<path d="M67.1805 11.0931C67.5635 11.1188 67.8938 10.836 67.9203 10.4632C67.9466 10.0904 67.6561 9.76904 67.273 9.74332C66.8899 9.71761 66.5729 10.0004 66.5466 10.3732C66.5201 10.746 66.8106 11.0546 67.1937 11.0803L67.1805 11.0931Z" fill="white"/>
<path d="M47.6941 19.4597L46.0694 15.5645L44.7881 16.0659L46.0165 19.0355C44.3522 19.7424 42.5822 20.6553 41.7235 21.1438C41.0499 21.5164 40.7066 21.4136 40.3498 20.7581L39.8611 19.871L38.4214 20.6295L38.7384 21.2081C39.5839 22.7249 40.6538 22.8148 42.0275 22.1335C43.8371 21.1309 45.7259 20.2309 47.6809 19.4597H47.6941Z" fill="white"/>
<path d="M74.3192 16.9557C74.874 17.0585 75.3494 16.9557 75.6929 16.6472L75.9835 17.2899C76.908 17.4956 77.8063 17.727 78.7045 17.9841L79.8008 13.9218L78.2157 13.5233L77.41 16.5442C76.9608 16.4286 76.5119 16.3258 76.0495 16.2229C76.1288 16.0815 76.1947 15.9015 76.2344 15.7215L76.6835 13.5619L75.072 13.2405L74.504 15.9144C73.9625 15.8115 73.4077 15.7215 72.8661 15.6316L73.2491 12.9962L71.6245 12.7648L71.2281 15.4002C70.6338 15.3359 69.8677 15.2588 69.2601 15.2073L69.5243 12.0835L67.8995 11.9549L67.6353 15.1174C66.9617 15.0916 66.2881 15.0659 65.6143 15.0659V11.9292H64.0029L63.9766 15.0916C63.3688 15.1045 62.7745 15.1431 62.1801 15.1816L62.048 14.1146C61.8366 12.5463 60.4233 11.9807 59.0231 12.1606L57.1077 12.4434L56.9493 14.526C56.8304 15.3616 56.6058 15.8758 55.919 15.9786L55.1265 16.1458L53.6735 10.528L52.0884 10.9008L53.4225 16.0172C53.647 16.9428 54.4131 17.3799 55.351 17.1871C55.6284 17.1357 55.9057 17.0714 56.1699 17.02C57.121 16.8399 57.7946 16.4543 58.1513 15.7987L58.9175 16.57C60.6082 16.3387 62.3254 16.21 64.0689 16.1586C64.6106 16.1586 64.9672 15.9272 65.2577 15.593L65.7333 16.1329C66.3674 16.1329 67.0145 16.1586 67.6485 16.1972C68.19 16.2229 68.6392 16.0429 68.9562 15.7215L69.3129 16.3C71.0037 16.4414 72.6813 16.6599 74.3192 16.9684V16.9557ZM58.2437 15.5801C58.3758 15.2716 58.5212 14.8988 58.5872 14.5131L58.7324 13.2662L59.1552 13.2148C59.7495 13.1376 60.3044 13.4847 60.3968 14.2175L60.5422 15.3102C59.776 15.3873 59.0099 15.4773 58.2437 15.593V15.5801Z" fill="white"/>
<path d="M87.6485 13.9321L86.1427 13.3022L83.8575 18.6372C83.382 18.4443 82.8932 18.2644 82.4177 18.0844L83.9765 13.6236L82.431 13.0837L80.8722 17.5445C80.4893 17.4159 80.1062 17.2874 79.7231 17.1717L79.4326 18.2001C81.3215 18.7786 83.1706 19.4598 84.9539 20.257L87.6485 13.9321Z" fill="white"/>
<path d="M47.6645 12.1724L50.1611 18.5744L48.6156 19.1142L46.1191 12.7123L47.6645 12.1595V12.1724Z" fill="white"/>
<path d="M52.773 17.5984C53.1824 18.9611 52.7465 20.0024 51.2407 20.6964L50.5803 19.8609C51.2274 19.5139 51.5312 19.1282 51.3067 18.4083L50.0254 14.1917L51.5974 13.7418L52.773 17.5984Z" fill="white"/>
<path d="M90.4989 15.2845L87.4345 21.4422L85.9683 20.7224L89.0327 14.5775L90.4989 15.2974V15.2845Z" fill="white"/>
<path d="M16.9912 40.3778C16.6346 40.2236 16.2251 40.3778 16.0666 40.7121C15.9081 41.0463 16.0666 41.4449 16.41 41.599C16.7535 41.7534 17.1629 41.599 17.3215 41.2649C17.4799 40.9179 17.3215 40.5193 16.9912 40.3651V40.3778Z" fill="white"/>
<path d="M17.7251 38.8109C17.3685 38.6565 16.9589 38.8109 16.8005 39.145C16.6419 39.4793 16.8005 39.8778 17.1438 40.0321C17.4873 40.1863 17.8967 40.0321 18.0553 39.6978C18.2137 39.3508 18.0553 38.9523 17.7251 38.798V38.8109Z" fill="white"/>
<path d="M27.2694 35.0044C27.1108 34.9145 26.4769 34.5545 25.3409 33.8474C24.02 33.0248 22.6066 33.7061 21.8537 34.8759L20.9159 36.3157L22.4084 37.9482C23.0029 38.5653 23.3199 39.0667 23.0029 39.6708L22.9764 39.7224L22.884 39.8895L22.6066 40.4036L19.2912 38.7325L18.5383 40.1466L19.1061 40.4294L18.5251 41.5349C17.9701 42.6147 18.2608 43.8232 19.3836 44.376C20.5063 44.9288 21.7348 44.453 22.3028 43.3732L22.3689 43.2446C22.4482 43.0776 22.5273 42.8976 22.6066 42.7305L22.7783 42.3577L22.4349 41.702C22.8708 41.625 23.2274 41.3549 23.5048 40.9436C23.6237 40.725 23.9935 40.0565 23.9935 40.0565C24.4559 39.221 24.5352 38.6168 24.2842 37.8968L25.407 37.7169C26.0013 36.7785 26.6353 35.8657 27.2958 34.9916L27.2694 35.0044ZM21.5102 42.5891C21.2592 43.1032 20.7442 43.2831 20.2158 43.0389C19.661 42.7947 19.4761 42.2934 19.7271 41.7663L20.1232 40.9436L21.3518 41.5734C21.5367 41.6635 21.7216 41.7278 21.8934 41.7663L21.4971 42.5891H21.5102ZM24.2445 37.5883L24.1652 37.704C24.02 37.3954 23.6898 36.9712 23.4653 36.7399C23.2406 36.5085 22.567 35.7758 22.567 35.7758L22.7915 35.4287C23.1085 34.9401 23.7426 34.7345 24.3766 35.1329L25.4333 35.7758C25.0239 36.367 24.6276 36.9712 24.2313 37.5883H24.2445Z" fill="white"/>
<path d="M30.4364 31.2097C30.8987 30.7084 31.0969 30.2456 31.295 29.7956C31.6781 29.6799 32.1138 29.5257 32.5497 29.0757C33.5801 28.0216 34.7558 27.0832 35.9181 26.1705L31.546 20.8098L30.2779 21.8253L34.0161 26.4148C33.3423 26.9803 32.682 27.5717 32.0347 28.163C32.1272 27.4045 31.8893 26.6975 31.4667 26.2989C30.7931 25.6691 29.6174 25.682 28.4683 26.8646C27.8606 27.4817 27.4247 28.2402 27.1077 28.8958C27.1077 28.8958 27.2794 29.6543 27.2926 29.7186C27.3191 29.8214 27.5173 29.8985 27.6625 29.937C27.8211 29.9757 29.3269 30.2456 29.8816 30.297C29.1683 31.0555 28.4814 31.8267 27.8211 32.6237H27.8078L23.1318 28.9729L22.1279 30.2327L26.3153 33.5237C27.0812 34.115 28.006 34.0251 28.6003 33.2795C29.1815 32.5724 29.7891 31.8783 30.4231 31.2097H30.4364ZM28.3758 28.7801C28.5607 28.4458 28.7852 28.0731 29.0231 27.8289C29.5118 27.3275 30.1193 27.2245 30.5685 27.6487C30.8855 27.9445 31.0308 28.4202 30.8459 28.9729C30.2119 29.0372 28.5872 28.8059 28.3758 28.7801Z" fill="white"/>
<path d="M33.9991 19.0388L38.0676 24.6181L36.7465 25.5693L32.6782 19.9901L33.9991 19.0516V19.0388Z" fill="white"/>
<path d="M22.7659 82.8672C22.5679 83.3557 22.1451 83.7285 21.5111 84.0113C20.877 84.294 20.309 84.3454 19.8071 84.1655C19.3051 83.9984 18.909 83.6127 18.6315 83.0343L18.0503 81.8002L16.0954 82.6615L15.4878 81.3502L21.4715 78.7148L22.6603 81.2732C22.9377 81.8644 22.964 82.3914 22.7659 82.8799V82.8672ZM19.7412 82.2629C19.8601 82.5071 20.0185 82.6615 20.2166 82.7386C20.4148 82.8029 20.6393 82.79 20.8903 82.6744C21.1412 82.5587 21.2998 82.4172 21.3791 82.2244C21.4582 82.0315 21.445 81.8131 21.3261 81.5688L20.8639 80.566L19.2788 81.2732L19.7412 82.2758V82.2629Z" fill="white"/>
<path d="M21.645 90.5827C21.2091 90.5827 20.7995 90.4797 20.4297 90.2613C20.0598 90.0299 19.7428 89.7085 19.4919 89.2843C19.0825 88.6414 18.9504 88.0116 19.0692 87.3946C19.1881 86.7775 19.6107 86.2632 20.3241 85.839L23.8641 83.7307L24.6433 84.9648L21.2486 86.9831C20.4825 87.4331 20.2976 87.973 20.6806 88.5772C21.0637 89.1942 21.6449 89.2714 22.3979 88.8214L25.7925 86.8031L26.5719 88.0373L23.0319 90.1456C22.5564 90.4283 22.0941 90.5827 21.645 90.5956V90.5827Z" fill="white"/>
<path d="M29.5754 92.5216C29.5359 92.9587 29.2981 93.3444 28.8887 93.6657C28.6509 93.8585 28.3999 93.9613 28.1622 94C27.9112 94.0385 27.6735 94 27.4356 93.9099L27.4093 93.9357C27.4753 94.2314 27.4621 94.5141 27.3695 94.7841C27.2772 95.0669 27.079 95.3113 26.7885 95.5427C26.3129 95.9155 25.8242 96.0954 25.3618 96.044C24.8863 96.0054 24.4637 95.7611 24.0939 95.3113L22.0068 92.7917L27.1186 88.7936L29.1265 91.2232C29.4831 91.6474 29.6284 92.0845 29.5887 92.5216H29.5754ZM24.8731 94.2443C25.0184 94.4242 25.1769 94.5143 25.3618 94.527C25.5335 94.5399 25.7185 94.4756 25.8902 94.347C26.0751 94.2057 26.1675 94.0514 26.194 93.8714C26.2205 93.6915 26.1544 93.5244 26.0091 93.3444L25.0845 92.2131L23.9485 93.1002L24.8731 94.2314V94.2443ZM26.8413 92.5859C26.9734 92.753 27.1318 92.8431 27.2904 92.8559C27.4488 92.8687 27.6207 92.8173 27.7923 92.6758C27.964 92.5474 28.0565 92.3931 28.0698 92.2389C28.0961 92.0716 28.0301 91.9175 27.898 91.7504L27.0262 90.6962L25.9563 91.5318L26.828 92.5859H26.8413Z" fill="white"/>
<path d="M26.3423 97.856L30.9258 93.2924L31.9824 94.3079L28.4028 97.8688L30.5294 99.8999L29.5256 100.903L26.3423 97.8688V97.856Z" fill="white"/>
<path d="M30.3599 101.545L34.5735 96.6472L35.7095 97.5726L31.4958 102.471L30.3599 101.545Z" fill="white"/>
<path d="M37.5429 105.454C37.1335 105.621 36.6977 105.685 36.2353 105.647C35.7862 105.608 35.3503 105.441 34.9277 105.158C34.4522 104.837 34.1087 104.438 33.884 103.975C33.6596 103.512 33.5935 102.998 33.6728 102.433C33.7521 101.88 33.9898 101.314 34.3992 100.736C34.8088 100.17 35.2579 99.7459 35.7729 99.4759C36.2881 99.206 36.8033 99.0902 37.3317 99.1288C37.8601 99.1673 38.3619 99.3473 38.8375 99.6687C39.2469 99.9515 39.5509 100.286 39.7621 100.671C39.9602 101.057 40.0659 101.469 40.0659 101.88C40.0659 102.291 39.9735 102.69 39.8018 103.05L38.4544 102.407C38.5865 102.111 38.6261 101.803 38.5601 101.507C38.4942 101.211 38.3223 100.967 38.045 100.774C37.8336 100.633 37.5827 100.556 37.3185 100.543C37.0412 100.543 36.7637 100.62 36.473 100.787C36.1825 100.954 35.9052 101.224 35.6541 101.584C35.39 101.944 35.2314 102.291 35.1786 102.613C35.1126 102.934 35.1391 103.217 35.2447 103.474C35.3503 103.718 35.5089 103.911 35.7201 104.052C36.0108 104.245 36.3013 104.309 36.6184 104.245C36.9354 104.181 37.2259 104.014 37.5034 103.731L38.6526 104.682C38.3223 105.017 37.9525 105.274 37.5429 105.454Z" fill="white"/>
<path d="M40.3105 108.169L43.3089 102.487L44.6298 103.142L41.6314 108.824L40.3105 108.169Z" fill="white"/>
<path d="M47.9777 111.468L46.4321 110.864L45.9699 106.21H45.9435L44.3584 110.067L43.1035 109.579L45.5341 103.652L47.1059 104.269L47.5683 108.833H47.5946L49.14 105.066L50.3948 105.555L47.9644 111.481L47.9777 111.468Z" fill="white"/>
<path d="M56.6221 107.127L53.0557 112.835L51.312 112.398L50.9819 105.726L52.5273 106.112L52.6198 110.945H52.6462L55.0898 106.754L56.6221 107.127Z" fill="white"/>
<path d="M58.4213 109.836L61.1819 110.17L61.0235 111.417L58.2629 111.07L58.091 112.369L60.997 112.729L60.8254 114.065L56.4531 113.526L57.2853 107.188L61.6576 107.728L61.4857 109.013L58.5797 108.653L58.4213 109.836Z" fill="white"/>
<path d="M65.3245 109.146C65.1528 108.991 64.9151 108.914 64.6244 108.914C64.3602 108.914 64.162 108.966 64.0036 109.081C63.845 109.197 63.7659 109.338 63.7659 109.518C63.7659 109.673 63.8187 109.788 63.9375 109.878C64.0564 109.968 64.2282 110.033 64.466 110.097L65.364 110.367C65.7604 110.483 66.0906 110.611 66.3283 110.727C66.5661 110.842 66.7775 111.048 66.9491 111.318C67.121 111.588 67.2001 111.961 67.187 112.424C67.187 113.079 66.9361 113.581 66.4605 113.902C65.985 114.223 65.4038 114.378 64.6772 114.365C63.9508 114.365 63.3563 114.159 62.8808 113.786C62.4052 113.414 62.1412 112.886 62.0884 112.205L63.5545 112.064C63.5809 112.411 63.6998 112.681 63.9112 112.861C64.1224 113.041 64.3867 113.131 64.7169 113.131C64.9942 113.131 65.2189 113.079 65.3905 112.964C65.5622 112.848 65.6547 112.694 65.6547 112.475C65.6547 112.282 65.6019 112.128 65.4698 112.038C65.3377 111.948 65.1263 111.845 64.8093 111.755L63.9903 111.498C63.6338 111.382 63.33 111.267 63.0923 111.151C62.8544 111.035 62.6694 110.842 62.511 110.598C62.3524 110.354 62.2864 110.02 62.2864 109.608C62.2864 108.978 62.5241 108.503 62.9601 108.169C63.4091 107.834 63.9771 107.68 64.6772 107.693C65.3245 107.693 65.8529 107.886 66.2755 108.233C66.6982 108.58 66.9491 109.068 67.0284 109.711L65.6019 109.801C65.5754 109.531 65.4698 109.313 65.2982 109.158L65.3245 109.146Z" fill="white"/>
<path d="M72.617 108.783L70.8074 108.95L71.2961 113.912L69.8166 114.053L69.3279 109.091L67.5183 109.258L67.3862 107.857L72.4716 107.382L72.6037 108.783H72.617Z" fill="white"/>
<path d="M79.1298 105.956L80.6223 112.178L79.275 112.487L78.2315 108.129H78.205L78.1127 112.744L77.0955 112.975L74.9161 108.874H74.8896L75.9332 113.232L74.6124 113.528L73.1196 107.306L75.2462 106.83L77.0164 110.391H77.0427L77.0164 106.432L79.1298 105.956Z" fill="white"/>
<path d="M82.399 107.41L85.0011 106.446L85.4634 107.616L82.8612 108.58L83.3368 109.802L86.071 108.786L86.5599 110.046L82.4386 111.576L80.1006 105.611L84.2218 104.081L84.6973 105.289L81.9631 106.305L82.399 107.41Z" fill="white"/>
<path d="M92.8376 106.959L91.3713 107.718L87.4219 105.044H87.3954L89.4033 108.733L88.2144 109.35L85.1367 103.707L86.6293 102.935L90.5128 105.545H90.5393L88.5844 101.933L89.7732 101.316L92.8508 106.959H92.8376Z" fill="white"/>
<path d="M95.3686 99.2459L93.8891 100.262L96.8347 104.337L95.6196 105.172L92.6738 101.097L91.1945 102.113L90.3623 100.968L94.5496 98.1147L95.3817 99.2587L95.3686 99.2459Z" fill="white"/>
<path d="M98.418 96.4948L99.4086 97.4976L101.416 95.6206L102.301 96.5204L100.294 98.3974L102.037 100.171L100.967 101.174L96.4233 96.5591L99.6068 93.5895L100.531 94.528L98.418 96.4948Z" fill="white"/>
<path d="M107.533 92.8439C107.692 93.2425 107.718 93.6538 107.612 94.0653C107.507 94.4766 107.295 94.875 106.978 95.2478C106.49 95.8264 105.922 96.1605 105.288 96.2506C104.654 96.3407 104.006 96.122 103.359 95.6078L100.163 93.0496L101.1 91.9312L104.178 94.3865C104.865 94.9393 105.446 94.9393 105.909 94.3865C106.384 93.8337 106.265 93.281 105.578 92.7282L102.501 90.2728L103.438 89.1545L106.635 91.7127C107.071 92.0597 107.361 92.4325 107.52 92.8439H107.533Z" fill="white"/>
<path d="M112.335 87.444L111.45 88.8195L106.655 88.4338V88.4596L110.261 90.6578L109.548 91.7763L103.987 88.3953L104.885 86.9941L109.588 87.3541V87.3283L106.061 85.1686L106.774 84.0501L112.335 87.4311V87.444Z" fill="white"/>
<path d="M109.913 79.3829C110.627 79.1386 111.485 79.2287 112.489 79.6787C113.493 80.1158 114.14 80.6813 114.418 81.3626C114.695 82.044 114.655 82.7896 114.285 83.5866L113.229 85.8749L107.245 83.2523L108.302 80.9642C108.672 80.1672 109.213 79.64 109.926 79.3957L109.913 79.3829ZM112.965 83.2523C113.189 82.7638 113.229 82.3396 113.07 81.9797C112.925 81.6198 112.515 81.2983 111.868 81.0027C111.221 80.7199 110.693 80.6299 110.323 80.7584C109.94 80.887 109.636 81.1955 109.411 81.684L109.055 82.4426L112.608 83.9979L112.965 83.2396V83.2523Z" fill="white"/>
<path fill-rule="evenodd" clip-rule="evenodd" d="M102.079 62.4267V62.3497C88.606 60.5243 76.3349 65.0493 65.3714 74.6521C54.4078 65.0493 42.1367 60.5243 28.6636 62.3497V62.4267C42.7179 63.0181 54.4871 70.0886 63.9052 78.6886C65.7545 80.3727 68.6471 83.2138 70.0473 84.8721L69.3341 85.4634C68.7 85.9777 68.6207 86.9031 69.1622 87.5202C69.6907 88.1373 70.6417 88.2144 71.2758 87.6874L71.9891 87.096C72.4513 87.6488 72.8741 88.163 73.059 88.3944C73.059 88.3944 74.5516 90.567 76.0706 92.6496C79.7956 97.7274 84.5905 95.7605 85.0396 93.2408C85.5018 90.6055 83.0317 89.5 81.0239 89.7956C81.0239 89.7956 80.6276 89.7956 80.1785 89.667C78.7387 89.0886 76.4537 86.5561 74.9082 84.7049L76.3084 83.548C76.9424 83.0338 77.0217 82.1083 76.48 81.4912C75.9518 80.8741 75.0007 80.797 74.3667 81.324L73.0325 82.4295C71.487 80.6299 69.9151 78.9458 68.3037 77.3775C76.4272 70.307 88.0247 63.0437 102.079 62.4525V62.4267Z" fill="#C4984F"/>
<path d="M72.7452 36.2787L81.1064 37.0628C80.2875 33.9648 76.655 32.7306 72.9829 33.1806C74.0926 32.1007 76.9984 31.3166 79.6138 31.4965C77.1437 28.7969 74.0265 28.6941 70.262 30.3396L73.5641 27.0872C70.8695 26.033 68.2013 27.4858 66.9067 29.2983C66.9067 28.4755 66.1407 24.9917 65.3746 24.4005C64.6084 24.9917 63.8423 28.4755 63.8423 29.2983C62.5479 27.4729 59.8796 26.0201 57.185 27.0872L60.4872 30.3396C56.7227 28.6941 53.6185 28.8098 51.1353 31.4965C53.7506 31.3166 56.6566 32.1007 57.7663 33.1806C54.0941 32.7306 50.4615 33.9777 49.6426 37.0628L58.004 36.2787C54.8998 37.1914 52.3241 38.0398 51.4258 43.2463L59.9852 38.9654C57.3963 40.7267 56.2472 46.023 58.1492 48.1698C58.7964 46.7815 61.9799 41.4465 63.2743 40.3795C64.2782 48.0799 63.5781 60.6009 63.0233 63.172L62.2969 64.1232C60.6853 64.1619 57.7398 64.2647 56.0886 64.5603C57.119 65.126 58.1493 65.743 59.1267 66.3601C62.4025 65.9873 66.6822 65.923 68.6239 66.7071C66.2859 66.6815 63.5913 67.1571 61.2005 67.7228C62.5479 68.6484 63.6311 69.4581 64.199 69.9081C64.5291 70.1653 64.9519 70.2809 65.3481 70.2809C65.7444 70.2809 66.167 70.1653 66.4973 69.9081C67.6861 68.9696 71.1866 66.3857 74.6076 64.5732C72.9566 64.2647 70.0109 64.149 68.3994 64.1232L67.6729 63.172C67.1181 60.6009 66.418 48.0928 67.4219 40.3795C68.7165 41.4594 71.8997 46.7815 72.547 48.1698C74.4492 46.023 73.2999 40.7267 70.711 38.9654L79.2705 43.2463C78.3723 38.0398 75.7965 37.1914 72.6924 36.2787H72.7452Z" fill="#C4984F"/>
<path fill-rule="evenodd" clip-rule="evenodd" d="M60.7 84.871C61.4529 83.9711 62.6682 82.7114 63.9098 81.4773C63.3946 80.9888 62.9059 80.5259 62.4833 80.1402C61.9946 79.6904 61.4927 79.2404 60.9775 78.8033C59.868 79.9475 58.7716 81.1559 57.7017 82.4029L56.3675 81.2973C55.7335 80.783 54.7957 80.8602 54.254 81.4644C53.7257 82.0814 53.805 82.9942 54.4258 83.5212L55.8259 84.6783C54.2672 86.5422 51.9822 89.0618 50.5555 89.6404C50.1064 89.7817 49.7233 89.769 49.7101 89.769C47.7024 89.4732 45.2324 90.5787 45.6946 93.214C46.1437 95.7466 50.9386 97.7006 54.6636 92.6228C56.1826 90.5402 57.6752 88.3676 57.6752 88.3676C57.8601 88.1362 58.2829 87.6221 58.7451 87.0694L59.4584 87.6606C60.0925 88.1749 61.0303 88.0977 61.572 87.4936C62.1002 86.8765 62.0209 85.9638 61.4001 85.4366L60.6868 84.8453L60.7 84.871Z" fill="#C4984F"/>
</svg>
