<svg width="111" height="61" viewBox="0 0 111 61" fill="none" xmlns="http://www.w3.org/2000/svg">
<g clip-path="url(#clip0_2725_7438)">
<path d="M9.05447 43.4984H0C0 33.8509 7.96794 26 17.7594 26V34.9214C12.9597 34.9214 9.05447 38.7693 9.05447 43.4984Z" fill="#3C5AE7"/>
<path d="M0.349609 61V52.0785C5.14927 52.0785 9.0545 48.2307 9.0545 43.5015H18.109C18.109 53.1491 10.141 61 0.349609 61Z" fill="#3C5AE7"/>
<path d="M27.2484 52.5533C25.8847 52.5533 24.7604 52.1406 23.8849 51.3152C23.4156 50.8715 23.0692 50.3439 22.8456 49.7295C22.622 49.1151 22.496 48.572 22.4645 48.1004C22.4362 47.6287 22.4204 46.9243 22.4204 45.9809V38.6017H24.4675V45.9809C24.4675 46.7878 24.477 47.3804 24.4959 47.7528C24.5147 48.1283 24.5935 48.5317 24.7289 48.963C24.8643 49.3944 25.069 49.7357 25.343 49.9871C25.8312 50.4308 26.4642 50.6511 27.2453 50.6511C28.0263 50.6511 28.6593 50.4308 29.1475 49.9871C29.4215 49.7388 29.6262 49.3975 29.7616 48.963C29.897 48.5286 29.9758 48.1252 29.9947 47.7528C30.0136 47.3773 30.023 46.7878 30.023 45.9809V38.6017H32.0701V45.9809C32.0701 46.7878 32.0796 47.3804 32.0985 47.7528C32.1174 48.1283 32.1961 48.5317 32.3315 48.963C32.4669 49.3944 32.6716 49.7357 32.9456 49.9871C33.4338 50.4308 34.0668 50.6511 34.8479 50.6511C35.6289 50.6511 36.2619 50.4308 36.7501 49.9871C37.0241 49.7388 37.2288 49.3975 37.3642 48.963C37.4997 48.5286 37.5784 48.1252 37.5973 47.7528C37.6162 47.3773 37.6256 46.7878 37.6256 45.9809V38.6017H39.6727V45.9809C39.6727 46.9212 39.657 47.6287 39.6286 48.1004C39.6003 48.572 39.4743 49.1151 39.2476 49.7295C39.024 50.3439 38.6775 50.8715 38.2083 51.3152C37.3296 52.1406 36.2084 52.5533 34.8447 52.5533C33.1283 52.5533 31.8623 51.88 31.0434 50.5363C30.2246 51.8831 28.9554 52.5533 27.2421 52.5533H27.2484Z" fill="black" stroke="black" stroke-miterlimit="10"/>
<path d="M43.2347 34.0495C43.4993 33.8012 43.8237 33.674 44.2142 33.674C44.6047 33.674 44.9291 33.7981 45.1937 34.0495C45.4582 34.3008 45.5873 34.6267 45.5873 35.0301C45.5873 35.4335 45.4551 35.7593 45.1937 36.0107C44.9291 36.262 44.6047 36.3861 44.2142 36.3861C43.8237 36.3861 43.4961 36.262 43.2347 36.0107C42.9733 35.7624 42.8411 35.4335 42.8411 35.0301C42.8411 34.6267 42.9733 34.3008 43.2347 34.0495ZM43.1906 52.3796V38.6018H45.2377V52.3796H43.1906Z" fill="black" stroke="black" stroke-miterlimit="10"/>
<path d="M53.2245 33.0131C53.7882 33.0131 54.5409 33.1279 55.4763 33.3575L55.007 35.2007C54.226 35.0084 53.6339 34.9122 53.2245 34.9122C52.4844 34.9122 51.9175 35.1728 51.527 35.691C51.2341 36.0944 51.0892 37.0657 51.0892 38.6018H54.6008V40.3891H51.0892V52.3796H49.0421V38.6607C49.0421 37.9315 49.0516 37.3884 49.0705 37.0316C49.0894 36.6778 49.1618 36.2682 49.2909 35.8059C49.4169 35.3435 49.609 34.9401 49.861 34.5956C50.6609 33.5406 51.7821 33.0099 53.2245 33.0099V33.0131Z" fill="black" stroke="black" stroke-miterlimit="10"/>
<path d="M59.9516 47.4798C59.9516 48.3456 59.9705 48.932 60.0115 49.2361C60.0493 49.5434 60.1658 49.8226 60.3611 50.0709C60.6917 50.4557 61.1516 50.6481 61.7342 50.6481C62.3168 50.6481 62.9341 50.465 63.6364 50.0988L64.5151 51.7993C63.5388 52.2989 62.6129 52.5472 61.7373 52.5472C60.4303 52.5472 59.4257 52.1065 58.7234 51.2221C58.3518 50.7598 58.125 50.2695 58.0368 49.7513C57.9486 49.233 57.9045 48.4728 57.9045 47.4736V35.3466H59.9516V38.6049H63.4601V40.3923H59.9516V47.4829V47.4798Z" fill="black" stroke="black" stroke-miterlimit="10"/>
<path d="M78.026 32.8858C78.2874 32.6375 78.6149 32.5103 79.0055 32.5103C79.396 32.5103 79.7235 32.6344 79.9849 32.8858C80.2495 33.1371 80.3786 33.463 80.3786 33.8664C80.3786 34.2698 80.2463 34.5956 79.9849 34.847C79.7204 35.0983 79.396 35.2224 79.0055 35.2224C78.6149 35.2224 78.2874 35.0983 78.026 34.847C77.7614 34.5987 77.6323 34.2698 77.6323 33.8664C77.6323 33.463 77.7646 33.1371 78.026 32.8858ZM77.9819 51.2159V37.4381H80.029V51.2159H77.9819Z" fill="#3C5AE7"/>
<path d="M92.0251 38.2169L91.2629 39.9764C90.1134 39.4396 88.9418 39.1696 87.7545 39.1696C87.0522 39.1696 86.4664 39.303 86.0003 39.573C85.4334 39.8988 85.1531 40.3798 85.1531 41.0129C85.1531 41.5714 85.3956 42.04 85.8838 42.4248C86.2932 42.732 87.0427 43.0113 88.1356 43.2595C89.4237 43.5481 90.3685 43.905 90.9732 44.327C92.1227 45.1338 92.699 46.1826 92.699 47.4673C92.699 48.752 92.1731 49.7357 91.1212 50.4649C90.2425 51.0793 89.1213 51.3866 87.7576 51.3866C86.0601 51.3866 84.4917 51.0514 83.0493 50.378L83.8681 48.6496C85.0964 49.2082 86.394 49.4875 87.7576 49.4875C88.6741 49.4875 89.3859 49.3044 89.8929 48.9382C90.4 48.5751 90.6551 48.0848 90.6551 47.4673C90.6551 46.8498 90.3811 46.3161 89.8362 45.9127C89.389 45.5868 88.6174 45.3076 87.5246 45.0748C86.2365 44.8049 85.2822 44.4325 84.6555 43.9515C83.6225 43.1633 83.106 42.1827 83.106 41.0129C83.106 39.843 83.632 38.8127 84.6838 38.1021C85.5027 37.5467 86.5262 37.2674 87.7545 37.2674C89.2158 37.2674 90.6393 37.5839 92.0251 38.2169Z" fill="#3C5AE7"/>
<path d="M97.6404 48.2772C98.2451 49.084 99.2182 49.4874 100.566 49.4874C101.914 49.4874 103.06 49.2081 104.134 48.6496L104.982 50.378C103.637 51.0514 102.163 51.3865 100.566 51.3865C98.5191 51.3865 96.9979 50.7349 96.0027 49.4285C95.6531 48.9661 95.3917 48.4231 95.228 47.7993C95.0611 47.1756 94.9634 46.645 94.9351 46.2136C94.9067 45.7823 94.891 45.1524 94.891 44.327C94.891 43.4053 94.9067 42.7257 94.9351 42.2944C94.9634 41.8631 95.0548 41.3728 95.2122 40.8235C95.3697 40.2743 95.6122 39.7716 95.9429 39.3092C96.9161 37.9439 98.5065 37.2612 100.711 37.2612C102.153 37.2612 103.325 37.618 104.223 38.3286C105.158 39.0982 105.646 40.0695 105.687 41.2394C105.687 42.431 105.199 43.3712 104.223 44.0632C103.832 44.3332 103.388 44.5349 102.89 44.6683C102.393 44.8017 101.946 44.8793 101.546 44.8979C101.146 44.9165 100.516 44.9259 99.6592 44.9259H96.9664C96.9664 46.5612 97.19 47.6752 97.6404 48.2679V48.2772ZM103.637 41.2456C103.596 40.6311 103.344 40.1409 102.875 39.7747C102.368 39.3713 101.646 39.1696 100.711 39.1696C99.3442 39.1696 98.3427 39.5451 97.6971 40.2929C97.2089 40.8515 96.9664 41.801 96.9664 43.1478H99.6592C100.711 43.1478 101.448 43.1229 101.867 43.0764C102.286 43.0299 102.642 42.8995 102.935 42.6885C103.404 42.3441 103.637 41.8631 103.637 41.2456Z" fill="#3C5AE7"/>
<path d="M73.2956 37.3915C74.0169 37.3915 74.6782 37.497 75.2861 37.708L74.6719 39.5234C74.2436 39.3713 73.7838 39.2937 73.2988 39.2937C72.1493 39.2937 71.28 39.6382 70.6943 40.3302C70.4801 40.5815 70.3195 40.9105 70.2124 41.3232C70.1053 41.7359 70.0423 42.1207 70.0234 42.4744C70.0045 42.8313 69.9951 43.3929 69.9951 44.1594V51.3369H67.948V44.1594C67.948 43.2006 67.9637 42.4962 67.9921 42.0555C68.0204 41.6149 68.1244 41.1184 68.2976 40.5722C68.4739 40.023 68.7479 39.5389 69.1164 39.1169C70.1116 37.9625 71.5037 37.3884 73.2988 37.3884L73.2956 37.3915Z" fill="#3C5AE7"/>
<path d="M104.323 32.6686L103.048 36.0944C103.404 36.1782 103.731 36.2868 104.043 36.4171L105.325 32.9851C105.004 32.861 104.67 32.7524 104.323 32.6686Z" fill="#3C5AE7"/>
<path d="M102.128 35.9424L102.289 32.3272C101.955 32.2993 101.599 32.2869 101.243 32.2807L101.089 35.8896H101.095C101.457 35.8896 101.798 35.9113 102.125 35.9455L102.128 35.9424Z" fill="#3C5AE7"/>
<path d="M107.274 33.9905L104.934 36.8795C105.227 37.0719 105.492 37.2829 105.734 37.5374L108.096 34.6205C107.838 34.3877 107.561 34.1798 107.274 33.9905Z" fill="#3C5AE7"/>
<path d="M110.764 38.9399L107.01 40.0043C107.095 40.355 107.164 40.6963 107.211 41.019L111 39.9422C110.943 39.6195 110.868 39.2906 110.764 38.9399Z" fill="#3C5AE7"/>
<path d="M109.51 36.1689L106.326 38.2542C106.5 38.5272 106.654 38.8438 106.78 39.2006L110.046 37.0533C109.892 36.743 109.712 36.4482 109.51 36.1689Z" fill="#3C5AE7"/>
</g>
<path d="M14.5613 2.8H18.5613C19.5639 2.8 20.4013 3.136 21.0733 3.808C21.7453 4.48 22.0813 5.31733 22.0813 6.32C22.0813 7.32267 21.7453 8.16 21.0733 8.832C20.4013 9.504 19.5639 9.84 18.5613 9.84H15.6813V14H14.5613V2.8ZM15.6813 8.784H18.5613C19.2546 8.784 19.8253 8.55467 20.2733 8.096C20.7319 7.63733 20.9613 7.04533 20.9613 6.32C20.9613 5.60533 20.7319 5.01867 20.2733 4.56C19.8253 4.09067 19.2546 3.856 18.5613 3.856H15.6813V8.784ZM29.9021 12.992C29.0808 13.792 28.0888 14.192 26.9261 14.192C25.7421 14.192 24.7448 13.792 23.9341 12.992C23.1235 12.1813 22.7181 11.184 22.7181 10C22.7181 8.816 23.1235 7.824 23.9341 7.024C24.7448 6.21333 25.7421 5.808 26.9261 5.808C28.0995 5.808 29.0915 6.21333 29.9021 7.024C30.7235 7.824 31.1341 8.816 31.1341 10C31.1341 11.1733 30.7235 12.1707 29.9021 12.992ZM24.6861 12.256C25.2941 12.864 26.0408 13.168 26.9261 13.168C27.8115 13.168 28.5581 12.864 29.1661 12.256C29.7741 11.6267 30.0781 10.8747 30.0781 10C30.0781 9.11467 29.7741 8.368 29.1661 7.76C28.5581 7.14133 27.8115 6.832 26.9261 6.832C26.0408 6.832 25.2941 7.14133 24.6861 7.76C24.0781 8.368 23.7741 9.11467 23.7741 10C23.7741 10.8747 24.0781 11.6267 24.6861 12.256ZM40.2528 12.64L42.2208 6H43.3088L40.8448 14H39.6927L37.6288 7.552L35.5648 14H34.4128L31.9488 6H33.0368L35.0048 12.64L37.1008 6H38.1568L40.2528 12.64ZM48.2848 5.808C49.4794 5.808 50.4341 6.22933 51.1488 7.072C51.8848 7.904 52.2528 8.89067 52.2528 10.032C52.2528 10.0853 52.2421 10.2507 52.2208 10.528H45.1968C45.3034 11.328 45.6448 11.968 46.2208 12.448C46.7968 12.928 47.5168 13.168 48.3808 13.168C49.5968 13.168 50.4554 12.7147 50.9568 11.808L51.8848 12.352C51.5328 12.928 51.0474 13.3813 50.4288 13.712C49.8208 14.032 49.1328 14.192 48.3648 14.192C47.1061 14.192 46.0821 13.7973 45.2928 13.008C44.5034 12.2187 44.1088 11.216 44.1088 10C44.1088 8.79467 44.4981 7.79733 45.2768 7.008C46.0554 6.208 47.0581 5.808 48.2848 5.808ZM48.2848 6.832C47.4528 6.832 46.7541 7.07733 46.1888 7.568C45.6341 8.05867 45.3034 8.704 45.1968 9.504H51.1648C51.0474 8.65067 50.7221 7.99467 50.1888 7.536C49.6341 7.06667 48.9994 6.832 48.2848 6.832ZM54.9885 6V7.328C55.4792 6.35733 56.3218 5.872 57.5165 5.872V6.896C56.7485 6.896 56.1352 7.12 55.6765 7.568C55.2178 8.00533 54.9885 8.66667 54.9885 9.552V14H53.9325V6H54.9885ZM62.1754 5.808C63.37 5.808 64.3247 6.22933 65.0394 7.072C65.7754 7.904 66.1434 8.89067 66.1434 10.032C66.1434 10.0853 66.1327 10.2507 66.1114 10.528H59.0874C59.194 11.328 59.5354 11.968 60.1114 12.448C60.6874 12.928 61.4074 13.168 62.2714 13.168C63.4874 13.168 64.346 12.7147 64.8474 11.808L65.7754 12.352C65.4234 12.928 64.938 13.3813 64.3194 13.712C63.7114 14.032 63.0234 14.192 62.2554 14.192C60.9967 14.192 59.9727 13.7973 59.1834 13.008C58.394 12.2187 57.9994 11.216 57.9994 10C57.9994 8.79467 58.3887 7.79733 59.1674 7.008C59.946 6.208 60.9487 5.808 62.1754 5.808ZM62.1754 6.832C61.3434 6.832 60.6447 7.07733 60.0794 7.568C59.5247 8.05867 59.194 8.704 59.0874 9.504H65.0554C64.938 8.65067 64.6127 7.99467 64.0794 7.536C63.5247 7.06667 62.89 6.832 62.1754 6.832ZM74.7031 7.568V2.8H75.7591V14H74.7031V12.432C73.9671 13.6053 72.8898 14.192 71.4711 14.192C70.3298 14.192 69.3538 13.7867 68.5431 12.976C67.7431 12.1653 67.3431 11.1733 67.3431 10C67.3431 8.82667 67.7431 7.83467 68.5431 7.024C69.3538 6.21333 70.3298 5.808 71.4711 5.808C72.8898 5.808 73.9671 6.39467 74.7031 7.568ZM69.3111 12.256C69.9191 12.864 70.6658 13.168 71.5511 13.168C72.4365 13.168 73.1831 12.864 73.7911 12.256C74.3991 11.6267 74.7031 10.8747 74.7031 10C74.7031 9.11467 74.3991 8.368 73.7911 7.76C73.1831 7.14133 72.4365 6.832 71.5511 6.832C70.6658 6.832 69.9191 7.14133 69.3111 7.76C68.7031 8.368 68.3991 9.11467 68.3991 10C68.3991 10.8747 68.7031 11.6267 69.3111 12.256ZM88.363 8.192C88.9177 8.42667 89.355 8.784 89.675 9.264C89.995 9.744 90.155 10.2827 90.155 10.88C90.155 11.744 89.851 12.48 89.243 13.088C88.635 13.696 87.899 14 87.035 14H82.155V2.8H86.667C87.4883 2.8 88.1977 3.09867 88.795 3.696C89.3817 4.28267 89.675 4.98667 89.675 5.808C89.675 6.85333 89.2377 7.648 88.363 8.192ZM86.667 3.856H83.275V7.76H86.667C87.179 7.76 87.6217 7.57333 87.995 7.2C88.3683 6.80533 88.555 6.34133 88.555 5.808C88.555 5.28533 88.3683 4.82667 87.995 4.432C87.6217 4.048 87.179 3.856 86.667 3.856ZM83.275 12.944H87.035C87.5897 12.944 88.059 12.7467 88.443 12.352C88.8377 11.9573 89.035 11.4667 89.035 10.88C89.035 10.304 88.8377 9.81867 88.443 9.424C88.059 9.01867 87.5897 8.816 87.035 8.816H83.275V12.944ZM94.8505 12.704L97.4425 6H98.5625L95.1385 14.736C94.8185 15.5467 94.3705 16.1707 93.7945 16.608C93.2292 17.056 92.5998 17.2533 91.9065 17.2V16.208C92.8665 16.3253 93.5972 15.7707 94.0985 14.544L94.3065 14.048L90.7225 6H91.8425L94.8505 12.704Z" fill="black"/>
<defs>
<clipPath id="clip0_2725_7438">
<rect width="111" height="35" fill="white" transform="translate(0 26)"/>
</clipPath>
</defs>
</svg>
