<svg width="151" height="156" viewBox="0 0 151 156" fill="none" xmlns="http://www.w3.org/2000/svg">
<g opacity="0.2">
<path d="M143.291 150.375V105.125M120.666 127.75H165.916M90.4997 105.125H60.333C46.2771 105.125 39.2492 105.125 33.7054 107.421C26.3137 110.483 20.441 116.356 17.3793 123.747C15.083 129.291 15.083 136.319 15.083 150.375M116.896 16.8178C127.951 21.2929 135.75 32.1316 135.75 44.7917C135.75 57.4518 127.951 68.2904 116.896 72.7655M101.812 44.7917C101.812 61.4523 88.3061 74.9583 71.6455 74.9583C54.9849 74.9583 41.4788 61.4523 41.4788 44.7917C41.4788 28.1311 54.9849 14.625 71.6455 14.625C88.3061 14.625 101.812 28.1311 101.812 44.7917Z" stroke="#3C5AE7" stroke-width="9" stroke-linecap="round" stroke-linejoin="round"/>
</g>
</svg>
