<svg width="88" height="93" viewBox="0 0 88 93" fill="none" xmlns="http://www.w3.org/2000/svg">
<g opacity="0.2">
<path d="M65.3337 51.3333H37.3337M46.667 70H37.3337M74.667 32.6667H37.3337M93.3337 31.7333V80.2667C93.3337 88.1074 93.3337 92.0278 91.8078 95.0225C90.4655 97.6568 88.3238 99.7985 85.6895 101.141C82.6948 102.667 78.7744 102.667 70.9337 102.667H41.067C33.2263 102.667 29.3059 102.667 26.3111 101.141C23.6769 99.7985 21.5351 97.6568 20.1929 95.0225C18.667 92.0278 18.667 88.1074 18.667 80.2667V31.7333C18.667 23.8926 18.667 19.9722 20.1929 16.9775C21.5351 14.3432 23.6769 12.2015 26.3111 10.8593C29.3059 9.33334 33.2263 9.33334 41.067 9.33334H70.9337C78.7744 9.33334 82.6948 9.33334 85.6895 10.8593C88.3238 12.2015 90.4655 14.3432 91.8078 16.9775C93.3337 19.9722 93.3337 23.8926 93.3337 31.7333Z" stroke="#3C5AE7" stroke-width="5" stroke-linecap="round" stroke-linejoin="round"/>
</g>
</svg>
