<svg width="66" height="73" viewBox="0 0 66 73" fill="none" xmlns="http://www.w3.org/2000/svg">
<g opacity="0.2">
<path d="M55.332 24.6667C55.332 28.3355 53.8745 31.8541 51.2803 34.4483C48.686 37.0426 45.1674 38.5 41.4986 38.5C37.8298 38.5 34.3112 37.0426 31.717 34.4483C29.1227 31.8541 27.6653 28.3355 27.6653 24.6667M12.5635 22.5965L10.1427 51.6464C9.62261 57.8871 9.36258 61.0074 10.4175 63.4145C11.3443 65.5293 12.9502 67.2746 14.9808 68.3738C17.2919 69.625 20.4231 69.625 26.6853 69.625H56.3119C62.5742 69.625 65.7053 69.625 68.0165 68.3738C70.0471 67.2746 71.6529 65.5293 72.5798 63.4145C73.6347 61.0074 73.3746 57.8871 72.8546 51.6464L70.4337 22.5964C69.9863 17.2269 69.7625 14.5422 68.5735 12.5101C67.5264 10.7207 65.9672 9.28608 64.097 8.39122C61.9733 7.375 59.2792 7.375 53.8911 7.375L29.1062 7.375C23.718 7.375 21.024 7.375 18.9002 8.39121C17.03 9.28608 15.4708 10.7207 14.4238 12.5101C13.2347 14.5422 13.011 17.2269 12.5635 22.5965Z" stroke="#3C5AE7" stroke-width="4" stroke-linecap="round" stroke-linejoin="round"/>
</g>
</svg>
