<svg width="50" height="63" viewBox="0 0 50 63" fill="none" xmlns="http://www.w3.org/2000/svg">
<g opacity="0.2">
<path d="M31.25 19V15.875M31.25 33.0625V29.9375M31.25 47.125V44M16.25 6.5H58.75C62.2503 6.5 64.0005 6.5 65.3374 7.18121C66.5135 7.78042 67.4696 8.73655 68.0688 9.91256C68.75 11.2495 68.75 12.9997 68.75 16.5V20.5625C62.7094 20.5625 57.8125 25.4594 57.8125 31.5C57.8125 37.5406 62.7094 42.4375 68.75 42.4375V46.5C68.75 50.0003 68.75 51.7505 68.0688 53.0874C67.4696 54.2635 66.5135 55.2196 65.3374 55.8188C64.0005 56.5 62.2503 56.5 58.75 56.5H16.25C12.7497 56.5 10.9995 56.5 9.66256 55.8188C8.48655 55.2196 7.53042 54.2635 6.93121 53.0874C6.25 51.7505 6.25 50.0003 6.25 46.5V42.4375C12.2906 42.4375 17.1875 37.5406 17.1875 31.5C17.1875 25.4594 12.2906 20.5625 6.25 20.5625V16.5C6.25 12.9997 6.25 11.2495 6.93121 9.91256C7.53042 8.73655 8.48655 7.78042 9.66256 7.18121C10.9995 6.5 12.7497 6.5 16.25 6.5Z" stroke="#3C5AE7" stroke-width="5" stroke-linecap="round" stroke-linejoin="round"/>
</g>
</svg>
