<svg width="64" height="71" viewBox="0 0 64 71" fill="none" xmlns="http://www.w3.org/2000/svg">
<path d="M69.2504 56.3271C75.256 59.344 80.405 64.1855 84.1633 70.2397C84.9075 71.4386 85.2797 72.0381 85.4083 72.8682C85.6698 74.5551 84.5163 76.6289 82.9452 77.2965C82.172 77.625 81.3023 77.625 79.5629 77.625M61.0004 38.5705C67.1125 35.533 71.3129 29.2258 71.3129 21.9375C71.3129 14.6492 67.1125 8.34196 61.0004 5.30451M52.7504 21.9375C52.7504 32.1893 44.4397 40.5 34.1879 40.5C23.9361 40.5 15.6254 32.1893 15.6254 21.9375C15.6254 11.6857 23.9361 3.375 34.1879 3.375C44.4397 3.375 52.7504 11.6857 52.7504 21.9375ZM5.55725 69.1207C12.1338 59.2463 22.5116 52.875 34.1879 52.875C45.8643 52.875 56.2421 59.2463 62.8186 69.1207C64.2593 71.2839 64.9797 72.3655 64.8968 73.7472C64.8322 74.823 64.127 76.14 63.2674 76.7901C62.1634 77.625 60.645 77.625 57.6082 77.625H10.7676C7.73088 77.625 6.2125 77.625 5.10849 76.7901C4.24887 76.14 3.54366 74.823 3.47909 73.7472C3.39616 72.3655 4.11652 71.2839 5.55725 69.1207Z" stroke="#3C5AE7" stroke-opacity="0.2" stroke-width="5" stroke-linecap="round" stroke-linejoin="round"/>
</svg>
