<svg width="311" height="309" viewBox="0 0 311 309" fill="none" xmlns="http://www.w3.org/2000/svg">
<g clip-path="url(#clip0_6450_26904)">
<path d="M165.126 252.437L168.758 255.845C168.984 256.063 169.309 256.147 169.612 256.084L174.487 255.028C175.262 254.859 175.89 255.647 175.552 256.365L173.428 260.871C173.294 261.152 173.308 261.483 173.471 261.758L175.982 266.059C176.384 266.742 175.82 267.586 175.037 267.488L170.092 266.861C169.781 266.819 169.471 266.939 169.259 267.171L165.937 270.888C165.408 271.479 164.434 271.205 164.286 270.43L163.355 265.538C163.299 265.228 163.087 264.968 162.798 264.841L158.234 262.835C157.507 262.518 157.465 261.504 158.156 261.124L162.53 258.731C162.805 258.583 162.988 258.301 163.023 257.992L163.524 253.043C163.602 252.254 164.554 251.902 165.133 252.444L165.126 252.437Z" fill="#EBEBEB"/>
<path d="M261.712 25.5746L266.213 30.9598C266.495 31.2977 266.932 31.4807 267.37 31.4385L274.367 30.7909C275.482 30.6853 276.223 31.9031 275.63 32.8464L271.884 38.7807C271.651 39.1538 271.609 39.6184 271.785 40.0267L274.565 46.4679C275.009 47.4886 274.078 48.5727 272.999 48.2981L266.184 46.5805C265.754 46.4749 265.303 46.5805 264.964 46.8762L259.68 51.5011C258.841 52.2332 257.522 51.6912 257.451 50.579L256.986 43.5817C256.957 43.1382 256.711 42.744 256.33 42.5187L250.284 38.9356C249.325 38.3654 249.438 36.9504 250.475 36.5351L257 33.9305C257.409 33.7686 257.712 33.4096 257.811 32.9801L259.356 26.1377C259.603 25.0536 260.985 24.7157 261.705 25.5746H261.712Z" fill="#EBEBEB"/>
<path d="M304.503 184.471L305.096 186.723C305.131 186.864 305.237 186.984 305.378 187.033L307.579 187.822C307.931 187.948 307.981 188.42 307.67 188.617L305.702 189.877C305.575 189.955 305.505 190.095 305.498 190.236L305.427 192.566C305.413 192.939 304.983 193.129 304.693 192.897L302.881 191.419C302.768 191.327 302.612 191.292 302.471 191.334L300.228 191.982C299.868 192.088 299.551 191.736 299.685 191.391L300.531 189.215C300.588 189.082 300.567 188.927 300.482 188.8L299.17 186.871C298.958 186.561 299.198 186.153 299.565 186.174L301.9 186.308C302.048 186.315 302.189 186.252 302.281 186.139L303.713 184.295C303.939 183.999 304.404 184.098 304.503 184.457V184.471Z" fill="#EBEBEB"/>
<path d="M302.669 137.376L302.083 144.367C302.048 144.81 302.232 145.24 302.57 145.521L308.009 149.963C308.87 150.667 308.552 152.054 307.466 152.307L300.623 153.912C300.193 154.011 299.84 154.32 299.678 154.729L297.124 161.261C296.722 162.296 295.297 162.423 294.719 161.473L291.072 155.475C290.839 155.095 290.444 154.855 289.999 154.827L282.981 154.426C281.866 154.363 281.309 153.053 282.035 152.209L286.628 146.894C286.917 146.556 287.023 146.105 286.91 145.676L285.125 138.89C284.843 137.813 285.922 136.877 286.945 137.313L293.428 140.03C293.837 140.199 294.303 140.164 294.676 139.925L300.588 136.137C301.526 135.539 302.746 136.271 302.655 137.376H302.669Z" fill="#F5F5F5"/>
<path d="M22.8838 133.455L26.8624 137.397C27.1163 137.644 27.469 137.756 27.8147 137.693L33.3241 136.658C34.1988 136.496 34.883 137.404 34.4809 138.193L31.9555 143.184C31.7933 143.501 31.8003 143.874 31.9696 144.184L34.6573 149.09C35.0876 149.871 34.4316 150.801 33.5498 150.66L28.0122 149.801C27.6595 149.745 27.3068 149.871 27.0669 150.125L23.2224 154.194C22.6087 154.841 21.5223 154.503 21.3812 153.631L20.4853 148.112C20.4289 147.767 20.2032 147.464 19.8857 147.316L14.8208 144.923C14.0166 144.543 13.9955 143.409 14.7926 143.001L19.7799 140.446C20.0974 140.284 20.309 139.981 20.3513 139.629L21.0638 134.082C21.1767 133.202 22.256 132.836 22.8838 133.455Z" fill="#EBEBEB"/>
<path d="M94.9983 45.016L83.3696 66.5587L91.3998 70.8753L103.028 49.3326L94.9983 45.016Z" fill="#E0E0E0"/>
<path d="M97.1726 46.1815L85.5439 67.7242L93.5741 72.0408L105.203 50.4981L97.1726 46.1815Z" fill="#EBEBEB"/>
<path d="M96.7632 52.6908C96.2271 53.6905 96.601 54.9365 97.6027 55.4715C98.6044 56.0065 99.853 55.6334 100.389 54.6338C100.925 53.6341 100.551 52.3882 99.5496 51.8531C98.5479 51.3181 97.2993 51.6912 96.7632 52.6908Z" fill="white"/>
<path d="M93.264 48.263C93.3628 48.2489 93.5532 49.1992 93.6872 50.3748C93.8213 51.5504 93.8495 52.5219 93.7507 52.5289C93.652 52.543 93.4615 51.5927 93.3275 50.4171C93.1935 49.2415 93.1652 48.27 93.264 48.263Z" fill="#EBEBEB"/>
<path d="M91.9735 50.6423C92.0722 50.6282 92.2627 51.5786 92.3967 52.7542C92.5307 53.9368 92.559 54.9012 92.4602 54.9083C92.3615 54.9223 92.171 53.972 92.037 52.7964C91.9029 51.6208 91.8747 50.6493 91.9735 50.6423Z" fill="#EBEBEB"/>
<path d="M90.6893 53.0287C90.7881 53.0146 90.9785 53.965 91.1125 55.1406C91.2466 56.3232 91.2748 57.2876 91.176 57.2947C91.0773 57.3087 90.8868 56.3584 90.7528 55.1828C90.6187 54.0072 90.5905 53.0358 90.6893 53.0287Z" fill="#EBEBEB"/>
<path d="M89.4056 55.4081C89.5044 55.394 89.6948 56.3443 89.8289 57.5199C89.9629 58.7026 89.9911 59.667 89.8923 59.674C89.7936 59.6881 89.6031 58.7377 89.4691 57.5621C89.3351 56.3865 89.3068 55.4151 89.4056 55.4081Z" fill="#EBEBEB"/>
<path d="M88.1146 57.7945C88.2133 57.7804 88.4038 58.7307 88.5378 59.9063C88.6719 61.0819 88.7001 62.0534 88.6013 62.0604C88.5026 62.0745 88.3121 61.1242 88.1781 59.9486C88.044 58.773 88.0158 57.8015 88.1146 57.7945Z" fill="#EBEBEB"/>
<path d="M86.8309 60.1739C86.9296 60.1598 87.1201 61.1101 87.2541 62.2857C87.3882 63.4684 87.4164 64.4328 87.3176 64.4398C87.2189 64.4539 87.0284 63.5036 86.8944 62.328C86.7604 61.1524 86.7321 60.1809 86.8309 60.1739Z" fill="#EBEBEB"/>
<path d="M85.5467 62.5602C85.6455 62.5461 85.8359 63.4965 85.97 64.6721C86.104 65.8547 86.1322 66.8191 86.0335 66.8262C85.9347 66.8332 85.7442 65.8899 85.6102 64.7143C85.4762 63.5387 85.448 62.5673 85.5467 62.5602Z" fill="#EBEBEB"/>
<path d="M94.4212 46.1722C94.52 46.1581 94.7104 47.1085 94.8445 48.2841C94.9785 49.4597 95.0067 50.4311 94.908 50.4382C94.8092 50.4452 94.6187 49.5019 94.4847 48.3263C94.3507 47.1507 94.3225 46.1793 94.4212 46.1722Z" fill="#EBEBEB"/>
<path d="M95.8531 45.4683C95.9519 45.4542 96.1 46.0103 96.1776 46.7143C96.2552 47.4112 96.2411 47.9884 96.1423 47.9955C96.0436 48.0096 95.8955 47.4534 95.8179 46.7495C95.7403 46.0526 95.7544 45.4753 95.8531 45.4683Z" fill="#EBEBEB"/>
<path d="M80.2278 62.6799L90.0685 43.4127C90.0685 43.4127 86.2662 40.3083 85.589 32.5085C85.1446 27.3485 88.2485 23.8077 88.6647 21.8718C88.9257 20.6891 86.3932 19.598 85.2716 19.1475C84.2064 18.7251 82.2453 18.3872 80.6934 19.598C77.8153 21.8436 75.833 29.8405 75.833 29.8405C75.833 29.8405 75.8471 31.699 73.8437 30.6149L66.6837 26.7643C65.7525 26.2645 64.6732 26.0814 63.6433 26.3067C62.7404 26.5038 61.781 27.0318 61.2308 28.2707C59.9751 31.1076 60.7581 33.0928 60.4477 33.663C60.1373 34.2332 58.8111 34.8104 58.4937 36.7674C58.1763 38.7244 58.6136 38.7737 58.1904 39.5621C57.7671 40.3505 56.8289 42.4272 56.6737 43.9196C56.5185 45.4049 56.7866 46.2849 56.7866 46.2849C56.7866 46.2849 55.0724 48.7417 55.0865 50.6353C55.1077 53.1132 59.1498 56.9286 61.5835 57.0835C62.7192 57.1539 67.5302 58.4351 69.8087 59.0123C72.0872 59.5896 78.8028 60.7018 80.2349 62.6729L80.2278 62.6799Z" fill="#E0E0E0"/>
<path d="M82.6755 64.2779L93.0664 45.0248C93.0664 45.0248 89.2641 41.9203 88.5869 34.1206C88.1425 28.9606 88.6716 25.2789 89.0948 23.343C89.3558 22.1604 88.7421 20.9426 87.6205 20.4991C86.5553 20.0767 85.1374 19.8233 83.5855 21.027C80.7073 23.2726 78.8309 31.4596 78.8309 31.4596C78.8309 31.4596 78.845 33.318 76.8416 32.234L69.6816 28.3833C68.7504 27.8835 67.6711 27.7005 66.6412 27.9258C65.7383 28.1229 64.7789 28.6508 64.2287 29.8898C62.973 32.7267 63.756 34.7119 63.4456 35.2821C63.1352 35.8523 61.809 36.4295 61.4916 38.3865C61.1742 40.3435 61.6115 40.3928 61.1883 41.1812C60.765 41.9696 59.8268 44.0463 59.6716 45.5387C59.5164 47.024 59.7845 47.9039 59.7845 47.9039C59.7845 47.9039 58.1761 50.3678 58.0844 52.2544C57.9927 54.141 60.5746 56.5485 61.5833 57.0905C62.585 57.6326 70.5351 60.0542 72.8137 60.6314C75.0922 61.2086 81.2576 62.3068 82.6896 64.2779H82.6755Z" fill="#EBEBEB"/>
<path d="M77.237 25.652C77.3358 25.6309 77.7026 26.8417 78.147 28.327C78.5914 29.8194 78.9583 31.0302 78.8595 31.0654C78.7678 31.1006 78.2458 29.9391 77.7943 28.4326C77.3428 26.9332 77.1383 25.6731 77.23 25.652H77.237Z" fill="#EBEBEB"/>
<path d="M78.2386 22.8643C78.3374 22.8432 78.6689 23.9343 79.1839 25.2507C79.6988 26.5671 80.0374 27.6864 79.9387 27.7146C79.847 27.7427 79.3602 26.7079 78.8382 25.3774C78.3162 24.0399 78.1398 22.8784 78.2386 22.8573V22.8643Z" fill="#EBEBEB"/>
<path d="M79.6846 20.6539C79.7975 20.6328 80.0444 21.5268 80.5311 22.5546C81.0461 23.5894 81.293 24.5257 81.1942 24.5538C81.0954 24.582 80.7075 23.7443 80.1925 22.7095C79.6846 21.6395 79.5858 20.668 79.6775 20.6539H79.6846Z" fill="#EBEBEB"/>
<path d="M81.5185 19.1405C81.6102 19.1053 81.9418 19.7177 82.2451 20.5061C82.5555 21.3016 82.7248 21.9704 82.6331 22.0056C82.5414 22.0408 82.2098 21.4283 81.9065 20.6399C81.5961 19.8515 81.4268 19.1757 81.5185 19.1405Z" fill="#EBEBEB"/>
<path d="M83.5926 18.7814C83.6772 18.7321 83.9453 19.0489 84.1851 19.4924C84.425 19.9359 84.5449 20.3301 84.4532 20.3794C84.3615 20.4287 84.1005 20.1048 83.8606 19.6684C83.6278 19.2319 83.5079 18.8377 83.5926 18.7814Z" fill="#EBEBEB"/>
<path d="M75.9601 29.3407C76.0518 29.3055 76.3975 29.9532 76.7149 30.7909C77.0394 31.6286 77.2228 32.3396 77.1311 32.3748C77.0394 32.41 76.6937 31.7623 76.3763 30.9246C76.0518 30.0869 75.8684 29.3759 75.9601 29.3407Z" fill="#EBEBEB"/>
<path d="M60.6804 29.7912C60.7721 29.742 61.4634 30.9035 62.2253 32.3888C62.9871 33.8671 63.5374 35.1061 63.4457 35.1554C63.354 35.2046 62.6626 34.0431 61.9008 32.5578C61.1389 31.0795 60.5887 29.8405 60.6804 29.7983V29.7912Z" fill="#EBEBEB"/>
<path d="M62.5572 26.5883C62.6489 26.539 63.0863 27.2218 63.5448 28.1018C63.9963 28.9887 64.2925 29.742 64.2008 29.7842C64.1091 29.8335 63.6718 29.1506 63.2132 28.2707C62.7618 27.3908 62.4655 26.6305 62.5572 26.5883Z" fill="#EBEBEB"/>
<path d="M59.2557 35.0498C59.3404 34.9935 59.9611 35.789 60.5325 36.8942C61.1039 37.9923 61.4002 38.9638 61.3085 38.999C61.2097 39.0342 60.7724 38.1472 60.208 37.0631C59.6508 35.979 59.1711 35.1061 59.2628 35.0498H59.2557Z" fill="#EBEBEB"/>
<path d="M58.2962 39.3228C58.3879 39.2805 58.8747 40.1394 59.3896 41.2446C59.9046 42.3498 60.2432 43.279 60.1515 43.3212C60.0598 43.3635 59.573 42.5046 59.0581 41.3994C58.5431 40.2942 58.2045 39.365 58.2962 39.3228Z" fill="#EBEBEB"/>
<path d="M56.7656 44.1589C56.8643 44.1237 57.344 45.1656 57.9648 46.4327C58.5855 47.6998 59.1146 48.7206 59.0229 48.7698C58.9383 48.8191 58.2611 47.8758 57.6332 46.5946C57.0054 45.3134 56.6739 44.1941 56.7656 44.1589Z" fill="#EBEBEB"/>
<path d="M55.6931 48.3474C55.7848 48.3122 56.3491 49.523 57.0757 51.0013C57.7953 52.4867 58.409 53.6693 58.3243 53.7256C58.2397 53.7819 57.4708 52.6627 56.7442 51.1632C56.0105 49.6709 55.5943 48.3826 55.6931 48.3474Z" fill="#EBEBEB"/>
<path d="M34.269 68.2351L27.3125 83.7613L33.1019 86.3444L40.0584 70.8182L34.269 68.2351Z" fill="#E0E0E0"/>
<path d="M32.7031 67.5399L25.7466 83.0662L31.536 85.6493L38.4925 70.1231L32.7031 67.5399Z" fill="#EBEBEB"/>
<path d="M31.4826 81.1094C31.8071 80.3914 31.4826 79.5466 30.7631 79.2228C30.0436 78.899 29.1971 79.2228 28.8726 79.9409C28.5481 80.6589 28.8726 81.5036 29.5921 81.8274C30.3116 82.1513 31.1581 81.8274 31.4826 81.1094Z" fill="white"/>
<path d="M34.1422 84.0027C34.0717 84.0167 33.8953 83.3691 33.7401 82.5596C33.5849 81.75 33.5214 81.0813 33.5849 81.0672C33.6555 81.0531 33.8318 81.7007 33.987 82.5103C34.1422 83.3198 34.2057 83.9886 34.1422 84.0027Z" fill="#EBEBEB"/>
<path d="M34.9113 82.285C34.8407 82.2991 34.6644 81.6515 34.5092 80.8419C34.354 80.0324 34.2905 79.3636 34.354 79.3495C34.4245 79.3355 34.6009 79.9831 34.7561 80.7926C34.9113 81.6022 34.9748 82.2709 34.9113 82.285Z" fill="#EBEBEB"/>
<path d="M35.6798 80.5674C35.6093 80.5814 35.4329 79.9338 35.2777 79.1243C35.1225 78.3147 35.059 77.646 35.1225 77.6319C35.1931 77.6178 35.3694 78.2654 35.5246 79.075C35.6798 79.8845 35.7433 80.5533 35.6798 80.5674Z" fill="#EBEBEB"/>
<path d="M36.4489 78.8497C36.3783 78.8638 36.202 78.2162 36.0468 77.4066C35.8916 76.5971 35.8281 75.9283 35.8916 75.9142C35.9621 75.9001 36.1385 76.5478 36.2937 77.3573C36.4489 78.1669 36.5123 78.8356 36.4489 78.8497Z" fill="#EBEBEB"/>
<path d="M37.2179 77.1321C37.1474 77.1461 36.971 76.4985 36.8158 75.689C36.6606 74.8794 36.5971 74.2107 36.6606 74.1966C36.7312 74.1825 36.9075 74.8301 37.0627 75.6397C37.2179 76.4492 37.2814 77.118 37.2179 77.1321Z" fill="#EBEBEB"/>
<path d="M37.9869 75.4145C37.9164 75.4285 37.74 74.7809 37.5849 73.9714C37.4297 73.1618 37.3662 72.4931 37.4297 72.479C37.5002 72.4649 37.6766 73.1125 37.8318 73.9221C37.9869 74.7316 38.0504 75.4004 37.9869 75.4145Z" fill="#EBEBEB"/>
<path d="M38.7555 73.6968C38.685 73.7109 38.5086 73.0633 38.3534 72.2537C38.1982 71.4442 38.1347 70.7754 38.1982 70.7613C38.2688 70.7473 38.4451 71.3949 38.6003 72.2044C38.7555 73.014 38.819 73.6827 38.7555 73.6968Z" fill="#EBEBEB"/>
<path d="M33.444 85.5162C33.3734 85.5302 33.1971 84.8826 33.0419 84.0731C32.8867 83.2635 32.8232 82.5947 32.8867 82.5807C32.9572 82.5666 33.1336 83.2142 33.2888 84.0238C33.444 84.8333 33.5075 85.5021 33.444 85.5162Z" fill="#EBEBEB"/>
<path d="M32.4843 86.0723C32.4137 86.0863 32.2868 85.7062 32.1951 85.2275C32.1033 84.7488 32.0892 84.3476 32.1527 84.3335C32.2233 84.3194 32.3502 84.6996 32.442 85.1782C32.5337 85.6569 32.5478 86.0582 32.4843 86.0723Z" fill="#EBEBEB"/>
<path d="M42.4379 73.3378L36.604 87.1986C36.604 87.1986 39.3975 89.1556 40.2652 94.5268C40.8365 98.0817 38.8684 100.693 38.678 102.059C38.558 102.89 40.371 103.523 41.1751 103.77C41.937 104.009 43.3126 104.143 44.3284 103.221C46.2119 101.517 47.1783 95.8713 47.1783 95.8713C47.1783 95.8713 47.0725 94.5831 48.5186 95.2307L53.6823 97.5326C54.3525 97.8283 55.1073 97.9057 55.8127 97.6945C56.4335 97.5115 57.0683 97.0962 57.3858 96.2092C58.1124 94.1818 57.4704 92.8443 57.6538 92.429C57.8372 92.0137 58.7331 91.549 58.846 90.1763C58.9589 88.8036 58.6626 88.7895 58.9165 88.2264C59.1705 87.6562 59.7137 86.1708 59.7489 85.129C59.7772 84.0871 59.5514 83.4958 59.5514 83.4958C59.5514 83.4958 60.6166 81.7007 60.5037 80.3914C60.3627 78.6737 57.3646 76.2381 55.6716 76.2522C54.8815 76.2592 51.4814 75.6186 49.866 75.337C48.2505 75.0554 43.5454 74.619 42.452 73.3307L42.4379 73.3378Z" fill="#E0E0E0"/>
<path d="M40.6601 72.3593L34.4453 86.2342C34.4453 86.2342 37.2388 88.1912 38.1065 93.5624C38.6779 97.1173 38.5015 99.7008 38.304 101.059C38.1841 101.89 38.6708 102.707 39.475 102.96C40.2368 103.199 41.2315 103.305 42.2473 102.383C44.1308 100.679 45.0055 94.9069 45.0055 94.9069C45.0055 94.9069 44.8997 93.6187 46.3458 94.2663L51.5095 96.5682C52.1797 96.8639 52.9345 96.9413 53.6399 96.7301C54.2607 96.5471 54.8955 96.1318 55.213 95.2448C55.9396 93.2174 55.2976 91.8799 55.481 91.4646C55.6644 91.0492 56.5603 90.5846 56.6732 89.2119C56.7931 87.8392 56.4898 87.8251 56.7437 87.262C56.9977 86.6918 57.5409 85.2064 57.5761 84.1646C57.6114 83.1227 57.3786 82.5314 57.3786 82.5314C57.3786 82.5314 58.3662 80.7434 58.3309 79.427C58.3027 78.1106 56.384 76.576 55.6574 76.2522C54.9308 75.9283 49.3015 74.6542 47.6932 74.3726C46.0848 74.091 41.7535 73.6405 40.6601 72.3452V72.3593Z" fill="#EBEBEB"/>
<path d="M46.4091 98.8631C46.3386 98.8842 46.0282 98.0606 45.6402 97.0539C45.2522 96.0402 44.9419 95.2237 45.0053 95.1955C45.0688 95.1673 45.4921 95.9487 45.8801 96.9695C46.2681 97.9902 46.4797 98.849 46.4091 98.8701V98.8631Z" fill="#EBEBEB"/>
<path d="M45.8592 100.848C45.7886 100.869 45.5065 100.13 45.0832 99.2432C44.66 98.3563 44.3637 97.603 44.4342 97.5678C44.4977 97.5397 44.8857 98.2366 45.316 99.1306C45.7463 100.032 45.9297 100.827 45.8662 100.848H45.8592Z" fill="#EBEBEB"/>
<path d="M44.9704 102.453C44.8928 102.474 44.6741 101.862 44.2861 101.179C43.877 100.489 43.6583 99.8487 43.7218 99.8275C43.7853 99.8064 44.0957 100.363 44.5119 101.059C44.921 101.777 45.0339 102.446 44.9774 102.46L44.9704 102.453Z" fill="#EBEBEB"/>
<path d="M43.7711 103.601C43.7076 103.629 43.4537 103.221 43.1997 102.693C42.9458 102.158 42.7906 101.7 42.8541 101.672C42.9175 101.644 43.1715 102.052 43.4255 102.58C43.6794 103.115 43.8346 103.573 43.7711 103.601Z" fill="#EBEBEB"/>
<path d="M42.3531 103.953C42.2966 103.995 42.092 103.784 41.9086 103.488C41.7252 103.192 41.6194 102.925 41.6758 102.89C41.7393 102.855 41.9368 103.059 42.1203 103.354C42.3037 103.643 42.4095 103.91 42.3531 103.953Z" fill="#EBEBEB"/>
<path d="M47.1076 96.2374C47.0441 96.2655 46.7761 95.8361 46.508 95.2659C46.2399 94.7028 46.0777 94.217 46.1412 94.1889C46.2047 94.1607 46.4727 94.5901 46.7408 95.1603C47.0089 95.7235 47.1711 96.2092 47.1076 96.2374Z" fill="#EBEBEB"/>
<path d="M57.675 95.1533C57.6115 95.1885 57.0754 94.4212 56.4687 93.4356C55.8621 92.4501 55.4176 91.6194 55.4811 91.5842C55.5446 91.549 56.0807 92.3163 56.6874 93.3019C57.2941 94.2874 57.7385 95.1181 57.675 95.1533Z" fill="#EBEBEB"/>
<path d="M56.5391 97.4693C56.4756 97.5045 56.137 97.061 55.7773 96.4697C55.4175 95.8784 55.1706 95.3715 55.2341 95.3363C55.2976 95.3011 55.6362 95.7446 55.9959 96.3359C56.3557 96.9273 56.6026 97.4341 56.5391 97.4693Z" fill="#EBEBEB"/>
<path d="M58.3943 91.4294C58.3379 91.4716 57.8653 90.9507 57.4138 90.2186C56.9623 89.4865 56.7084 88.8318 56.7719 88.8036C56.8353 88.7755 57.188 89.3668 57.6325 90.0848C58.0769 90.8099 58.4508 91.3871 58.3943 91.4294Z" fill="#EBEBEB"/>
<path d="M58.839 88.4165C58.7755 88.4516 58.3946 87.8814 57.9854 87.1353C57.5763 86.3961 57.2871 85.7696 57.3505 85.7344C57.414 85.6992 57.795 86.2694 58.2041 87.0156C58.6133 87.7547 58.9025 88.3813 58.839 88.4165Z" fill="#EBEBEB"/>
<path d="M59.657 84.9882C59.5935 85.0163 59.2055 84.3194 58.7117 83.4747C58.2179 82.6299 57.8017 81.9471 57.8582 81.9049C57.9146 81.8626 58.4296 82.4821 58.9304 83.3409C59.4313 84.1998 59.7205 84.953 59.657 84.9811V84.9882Z" fill="#EBEBEB"/>
<path d="M60.1861 82.0316C60.1226 82.0597 59.6711 81.2502 59.0926 80.2647C58.5142 79.2721 58.0345 78.4837 58.0909 78.4414C58.1474 78.3992 58.7329 79.1383 59.3184 80.1379C59.9039 81.1305 60.2566 82.0105 60.1931 82.0386L60.1861 82.0316Z" fill="#EBEBEB"/>
<path d="M311 291.641C311 291.739 241.622 291.824 156.061 291.824C70.5001 291.824 1.10059 291.739 1.10059 291.641C1.10059 291.542 70.4649 291.457 156.061 291.457C241.657 291.457 311 291.542 311 291.641Z" fill="#263238"/>
<path d="M99.225 94.3578L101.489 97.6523C101.63 97.8635 101.87 97.9832 102.124 97.9832H106.131C106.766 97.9902 107.126 98.7223 106.738 99.2221L104.297 102.39C104.142 102.587 104.099 102.855 104.177 103.094L105.412 106.895C105.609 107.501 105.024 108.064 104.424 107.853L100.65 106.515C100.41 106.431 100.149 106.466 99.9445 106.614L96.6996 108.958C96.1846 109.331 95.4651 108.958 95.4792 108.317L95.585 104.319C95.585 104.065 95.4721 103.826 95.2676 103.678L92.0297 101.32C91.5147 100.947 91.6558 100.144 92.2624 99.9683L96.107 98.835C96.3469 98.7646 96.5373 98.5745 96.622 98.3352L97.8635 94.5338C98.061 93.9284 98.8652 93.8158 99.225 94.3367V94.3578Z" fill="#257367"/>
<path d="M276.463 174.827L279.299 176.298C279.475 176.389 279.694 176.389 279.87 176.298L282.692 174.798C283.136 174.559 283.665 174.939 283.581 175.439L283.059 178.586C283.023 178.783 283.094 178.987 283.235 179.128L285.535 181.338C285.901 181.69 285.704 182.31 285.203 182.38L282.043 182.859C281.845 182.887 281.669 183.014 281.584 183.197L280.188 186.062C279.969 186.519 279.32 186.519 279.087 186.062L277.655 183.211C277.563 183.028 277.394 182.908 277.19 182.88L274.022 182.436C273.521 182.366 273.317 181.754 273.676 181.395L275.955 179.156C276.096 179.015 276.167 178.811 276.131 178.614L275.574 175.474C275.482 174.974 276.011 174.594 276.456 174.827H276.463Z" fill="#257367"/>
<path d="M118.152 80.8842L118.751 82.7004C118.787 82.813 118.878 82.9045 118.998 82.9397L120.839 83.4817C121.129 83.5662 121.199 83.9534 120.952 84.1294L119.407 85.2628C119.309 85.3331 119.252 85.4458 119.259 85.5725L119.316 87.4872C119.323 87.7899 118.977 87.973 118.73 87.797L117.178 86.6777C117.079 86.6073 116.953 86.5862 116.84 86.6284L115.034 87.269C114.745 87.3746 114.469 87.1001 114.561 86.8114L115.147 84.9882C115.182 84.8756 115.161 84.7489 115.09 84.6503L113.919 83.1368C113.736 82.8975 113.905 82.5455 114.208 82.5455H116.127C116.247 82.5455 116.36 82.4821 116.43 82.3765L117.51 80.7997C117.679 80.5463 118.067 80.6026 118.159 80.8912L118.152 80.8842Z" fill="#257367"/>
<path d="M170.924 70.3108L195.007 119.003C196.524 122.072 199.459 124.198 202.859 124.691L256.711 132.498C265.261 133.737 268.675 144.226 262.488 150.245L223.521 188.145C221.066 190.532 219.944 193.981 220.523 197.353L236.084 254.183C236.493 261.561 224.889 266.587 214.597 261.835L166.431 236.563C163.397 234.972 159.765 234.972 156.731 236.563L108.565 261.835C100.918 265.848 91.9804 259.364 93.4406 250.868L102.639 197.346C103.218 193.974 102.096 190.532 99.6413 188.138L60.6737 150.238C54.4871 144.219 57.9014 133.737 66.4511 132.491L120.303 124.684C123.696 124.191 126.631 122.065 128.155 118.996L151.56 71.6624C154.481 65.7703 158.015 63.4473 169.168 63.4473C172.885 63.4473 169.02 66.432 170.931 70.2967L170.924 70.3108Z" fill="#257367"/>
<path opacity="0.3" d="M170.924 70.3108L195.007 119.003C196.524 122.072 199.459 124.198 202.859 124.691L256.711 132.498C265.261 133.737 268.675 144.226 262.488 150.245L223.521 188.145C221.066 190.532 219.944 193.981 220.523 197.353L236.084 254.183C236.493 261.561 224.889 266.587 214.597 261.835L166.431 236.563C163.397 234.972 159.765 234.972 156.731 236.563L108.565 261.835C100.918 265.848 91.9804 259.364 93.4406 250.868L102.639 197.346C103.218 193.974 102.096 190.532 99.6413 188.138L60.6737 150.238C54.4871 144.219 57.9014 133.737 66.4511 132.491L120.303 124.684C123.696 124.191 126.631 122.065 128.155 118.996L151.56 71.6624C154.481 65.7703 158.015 63.4473 169.168 63.4473C172.885 63.4473 169.02 66.432 170.931 70.2967L170.924 70.3108Z" fill="black"/>
<path d="M105.8 187.315C105.814 187.413 104.255 187.674 102.322 187.892C100.389 188.11 98.816 188.202 98.8019 188.103C98.7877 188.005 100.347 187.744 102.28 187.526C104.212 187.308 105.786 187.216 105.8 187.315Z" fill="#257367"/>
<path d="M106.893 191.869C106.907 191.968 106.053 192.151 105.002 192.264C103.944 192.383 103.077 192.397 103.07 192.299C103.055 192.2 103.909 192.017 104.96 191.905C106.018 191.785 106.886 191.771 106.893 191.869Z" fill="#257367"/>
<path d="M102.435 183.401C102.449 183.499 100.735 183.774 98.6114 184.013C96.4881 184.253 94.7527 184.365 94.7457 184.26C94.7316 184.161 96.4458 183.887 98.5761 183.647C100.699 183.408 102.435 183.295 102.442 183.401H102.435Z" fill="#257367"/>
<path d="M98.6609 179.649C98.675 179.747 96.9608 180.022 94.8375 180.261C92.7142 180.501 90.9788 180.613 90.9718 180.508C90.9577 180.409 92.6718 180.134 94.8022 179.895C96.9255 179.656 98.6609 179.543 98.6679 179.649H98.6609Z" fill="#257367"/>
<path d="M94.887 175.897C94.9011 175.995 93.1869 176.27 91.0636 176.509C88.9402 176.748 87.2049 176.861 87.1978 176.755C87.1837 176.657 88.8979 176.382 91.0283 176.143C93.1516 175.904 94.887 175.791 94.894 175.897H94.887Z" fill="#257367"/>
<path d="M91.1125 172.145C91.1267 172.243 89.4125 172.518 87.2891 172.757C85.1658 172.996 83.4305 173.109 83.4234 173.003C83.4093 172.905 85.1235 172.63 87.2539 172.391C89.3772 172.152 91.1125 172.039 91.1196 172.145H91.1125Z" fill="#257367"/>
<path d="M87.3386 168.393C87.3527 168.491 85.6385 168.766 83.5152 169.005C81.3919 169.244 79.6566 169.357 79.6495 169.251C79.6354 169.153 81.3496 168.878 83.4799 168.639C85.6033 168.4 87.3386 168.287 87.3457 168.393H87.3386Z" fill="#257367"/>
<path d="M83.5647 164.64C83.5788 164.739 81.8646 165.014 79.7413 165.253C77.618 165.492 75.8826 165.605 75.8756 165.499C75.8615 165.401 77.5756 165.126 79.706 164.887C81.8293 164.647 83.5647 164.535 83.5717 164.64H83.5647Z" fill="#257367"/>
<path d="M79.7908 160.888C79.8049 160.987 78.0907 161.262 75.9674 161.501C73.844 161.74 72.1087 161.853 72.1016 161.747C72.0875 161.649 73.8017 161.374 75.9321 161.135C78.0554 160.895 79.7908 160.783 79.7978 160.888H79.7908Z" fill="#257367"/>
<path d="M76.0168 157.136C76.0309 157.235 74.3168 157.509 72.1934 157.749C70.0701 157.988 68.3348 158.101 68.3277 157.995C68.3136 157.897 70.0278 157.622 72.1582 157.383C74.2815 157.143 76.0168 157.031 76.0239 157.136H76.0168Z" fill="#257367"/>
<path d="M64.9205 140.833C64.9205 140.931 63.3263 141.086 61.344 141.164C59.3618 141.248 57.7605 141.234 57.7534 141.128C57.7534 141.03 59.3477 140.875 61.3299 140.798C63.3051 140.713 64.9135 140.727 64.9205 140.833Z" fill="#257367"/>
<path d="M66.0913 136.834C66.0913 136.933 64.5817 136.982 62.7194 136.933C60.857 136.884 59.3545 136.764 59.3545 136.665C59.3545 136.567 60.8641 136.518 62.7264 136.567C64.5887 136.616 66.0913 136.736 66.0913 136.834Z" fill="#257367"/>
<path d="M69.7524 133.061C69.7524 133.16 68.5602 133.265 67.0789 133.3C65.6045 133.329 64.3983 133.272 64.4053 133.167C64.3983 133.068 65.5975 132.963 67.0718 132.934C68.5461 132.906 69.7454 132.963 69.7524 133.061Z" fill="#257367"/>
<path d="M72.2424 153.391C72.2565 153.49 70.5424 153.764 68.419 154.004C66.2957 154.243 64.5604 154.356 64.5533 154.25C64.5392 154.152 66.2534 153.877 68.3838 153.638C70.5071 153.398 72.2424 153.286 72.2495 153.391H72.2424Z" fill="#257367"/>
<path d="M68.885 149.351C68.8991 149.449 67.1849 149.724 65.0616 149.963C62.9383 150.202 61.2029 150.315 61.1959 150.209C61.1818 150.111 62.896 149.836 65.0263 149.597C67.1497 149.358 68.885 149.245 68.8921 149.351H68.885Z" fill="#257367"/>
<path d="M65.7245 145.352C65.7386 145.451 64.0314 145.725 61.9152 145.965C59.7989 146.204 58.0777 146.31 58.0636 146.211C58.0495 146.112 59.7566 145.838 61.8729 145.599C63.9891 145.359 65.7104 145.254 65.7174 145.352H65.7245Z" fill="#257367"/>
<path d="M218.815 256.908C218.858 256.999 217.468 257.738 215.705 258.562C213.941 259.385 212.481 259.977 212.438 259.885C212.396 259.794 213.786 259.055 215.549 258.231C217.313 257.407 218.773 256.816 218.815 256.908Z" fill="#257367"/>
<path d="M221.313 260.871C221.355 260.962 220.607 261.399 219.648 261.849C218.681 262.3 217.87 262.588 217.828 262.497C217.786 262.405 218.533 261.969 219.493 261.518C220.452 261.068 221.27 260.779 221.313 260.871Z" fill="#257367"/>
<path d="M214.372 254.275C214.414 254.366 212.883 255.176 210.943 256.077C209.003 256.985 207.402 257.64 207.36 257.548C207.317 257.457 208.848 256.647 210.788 255.746C212.721 254.838 214.329 254.183 214.372 254.275Z" fill="#257367"/>
<path d="M209.588 251.931C209.631 252.022 208.1 252.832 206.16 253.733C204.22 254.641 202.619 255.295 202.577 255.204C202.534 255.112 204.065 254.303 206.005 253.402C207.938 252.494 209.546 251.839 209.588 251.931Z" fill="#257367"/>
<path d="M204.806 249.586C204.848 249.678 203.317 250.487 201.377 251.389C199.437 252.297 197.836 252.951 197.794 252.86C197.752 252.768 199.282 251.959 201.222 251.058C203.155 250.15 204.763 249.495 204.806 249.586Z" fill="#257367"/>
<path d="M200.03 247.235C200.073 247.327 198.542 248.136 196.602 249.037C194.662 249.945 193.061 250.6 193.018 250.509C192.976 250.417 194.507 249.608 196.447 248.706C198.38 247.798 199.988 247.144 200.03 247.235Z" fill="#257367"/>
<path d="M195.247 244.891C195.289 244.983 193.759 245.792 191.819 246.693C189.879 247.601 188.278 248.256 188.235 248.164C188.193 248.073 189.724 247.263 191.664 246.362C193.596 245.454 195.205 244.8 195.247 244.891Z" fill="#257367"/>
<path d="M190.472 242.547C190.514 242.638 188.983 243.448 187.043 244.349C185.103 245.257 183.502 245.912 183.46 245.82C183.418 245.729 184.948 244.919 186.888 244.018C188.821 243.11 190.429 242.455 190.472 242.547Z" fill="#257367"/>
<path d="M185.689 240.196C185.731 240.287 184.201 241.097 182.261 241.998C180.321 242.906 178.719 243.561 178.677 243.469C178.635 243.378 180.166 242.568 182.105 241.667C184.038 240.759 185.647 240.104 185.689 240.196Z" fill="#257367"/>
<path d="M180.913 237.852C180.955 237.943 179.425 238.753 177.485 239.654C175.545 240.562 173.944 241.216 173.901 241.125C173.859 241.033 175.39 240.224 177.33 239.323C179.262 238.415 180.871 237.76 180.913 237.852Z" fill="#257367"/>
<path d="M176.13 235.5C176.173 235.592 174.642 236.401 172.702 237.302C170.762 238.211 169.161 238.865 169.119 238.774C169.076 238.682 170.607 237.873 172.547 236.972C174.48 236.064 176.088 235.409 176.13 235.5Z" fill="#257367"/>
<path d="M171.658 232.755C171.7 232.846 170.169 233.656 168.229 234.557C166.29 235.465 164.688 236.12 164.646 236.028C164.604 235.937 166.134 235.127 168.074 234.226C170.007 233.318 171.615 232.663 171.658 232.755Z" fill="#257367"/>
<path d="M165.789 230.72C165.831 230.812 165.083 231.255 164.117 231.706C163.151 232.157 162.332 232.452 162.283 232.361C162.241 232.269 162.988 231.826 163.955 231.375C164.921 230.925 165.74 230.629 165.789 230.72Z" fill="#257367"/>
<path d="M178.508 69.2549L202.591 117.947C204.108 121.017 207.042 123.142 210.442 123.635L264.294 131.442C272.844 132.681 276.258 143.17 270.072 149.189L231.104 187.089C228.649 189.476 227.528 192.925 228.106 196.297L237.305 249.819C238.765 258.315 229.827 264.799 222.181 260.786L174.014 235.514C170.981 233.923 167.348 233.923 164.315 235.514L116.148 260.786C108.502 264.799 99.5639 258.315 101.024 249.819L110.223 196.297C110.801 192.925 109.68 189.483 107.225 187.089L68.2572 149.189C62.0706 143.17 65.4849 132.688 74.0346 131.442L127.887 123.635C131.28 123.142 134.214 121.017 135.738 117.947L159.821 69.2549C163.645 61.5255 174.691 61.5255 178.515 69.2549H178.508Z" fill="#257367"/>
<g opacity="0.3">
<path d="M231.259 157.861C230.279 149.872 229.051 141.628 224.755 134.814C220.459 128.007 212.234 122.995 204.397 124.902C202.958 133.23 201.441 142.072 206.195 149.069C207.296 150.681 208.707 152.166 209.193 154.053C209.715 156.094 209.059 158.227 208.559 160.276C204.813 175.608 209.976 191.553 215.077 206.49C220.65 222.801 226.434 239.499 237.382 252.818C237.298 248.784 236.599 245.743 236.098 242.702C235.301 237.873 234.476 233.346 233.397 227.032C232.155 219.795 229.157 204.048 228.064 195.882C227.767 193.7 228.212 191.609 228.988 189.99C229.841 188.195 231.146 187.054 232.092 186.132C232.91 185.337 233.474 184.788 233.474 184.788C232.578 172.482 232.762 170.103 231.259 157.854V157.861Z" fill="black"/>
</g>
<path d="M133.29 120.89C133.198 120.932 132.472 119.531 131.668 117.764C130.863 115.997 130.285 114.533 130.377 114.491C130.468 114.449 131.195 115.849 131.999 117.616C132.803 119.383 133.382 120.848 133.29 120.89Z" fill="#257367"/>
<path d="M129.283 123.34C129.192 123.382 128.761 122.629 128.324 121.664C127.886 120.7 127.604 119.883 127.696 119.841C127.788 119.799 128.218 120.552 128.655 121.516C129.093 122.481 129.375 123.297 129.283 123.34Z" fill="#257367"/>
<path d="M135.978 116.49C135.886 116.532 135.096 114.991 134.214 113.048C133.332 111.105 132.69 109.493 132.782 109.451C132.874 109.408 133.664 110.95 134.546 112.893C135.427 114.836 136.069 116.448 135.978 116.49Z" fill="#257367"/>
<path d="M138.39 111.745C138.299 111.788 137.509 110.246 136.627 108.303C135.745 106.36 135.103 104.748 135.195 104.706C135.286 104.664 136.077 106.205 136.958 108.148C137.84 110.091 138.482 111.703 138.39 111.745Z" fill="#257367"/>
<path d="M140.803 107.008C140.711 107.05 139.921 105.508 139.039 103.566C138.158 101.623 137.516 100.011 137.607 99.9683C137.699 99.9261 138.489 101.468 139.371 103.411C140.253 105.354 140.895 106.966 140.803 107.008Z" fill="#257367"/>
<path d="M143.208 102.263C143.116 102.305 142.326 100.764 141.445 98.8209C140.563 96.878 139.921 95.2659 140.013 95.2237C140.104 95.1814 140.894 96.7231 141.776 98.666C142.658 100.609 143.3 102.221 143.208 102.263Z" fill="#257367"/>
<path d="M145.621 97.5256C145.529 97.5678 144.739 96.0262 143.857 94.0833C142.975 92.1404 142.334 90.5283 142.425 90.4861C142.517 90.4438 143.307 91.9855 144.189 93.9284C145.071 95.8713 145.712 97.4834 145.621 97.5256Z" fill="#257367"/>
<path d="M148.026 92.781C147.934 92.8232 147.144 91.2816 146.263 89.3386C145.381 87.3957 144.739 85.7837 144.83 85.7414C144.922 85.6992 145.712 87.2409 146.594 89.1838C147.476 91.1267 148.118 92.7387 148.026 92.781Z" fill="#257367"/>
<path d="M150.439 88.0434C150.347 88.0856 149.557 86.5439 148.675 84.601C147.793 82.6581 147.151 81.0461 147.243 81.0038C147.335 80.9616 148.125 82.5033 149.007 84.4462C149.888 86.3891 150.53 88.0011 150.439 88.0434Z" fill="#257367"/>
<path d="M152.851 83.3058C152.76 83.348 151.969 81.8063 151.088 79.8634C150.206 77.9205 149.564 76.3085 149.656 76.2662C149.747 76.224 150.537 77.7657 151.419 79.7086C152.301 81.6515 152.943 83.2635 152.851 83.3058Z" fill="#257367"/>
<path d="M155.257 78.5611C155.165 78.6034 154.375 77.0617 153.493 75.1188C152.612 73.1759 151.97 71.5638 152.061 71.5216C152.153 71.4794 152.943 73.021 153.825 74.9639C154.707 76.9068 155.349 78.5189 155.257 78.5611Z" fill="#257367"/>
<path d="M158.071 74.1333C157.98 74.1755 157.19 72.6339 156.308 70.6909C155.426 68.748 154.784 67.136 154.876 67.0937C154.968 67.0515 155.758 68.5932 156.639 70.5361C157.521 72.479 158.163 74.091 158.071 74.1333Z" fill="#257367"/>
<path d="M160.181 68.2975C160.089 68.3398 159.659 67.5865 159.214 66.6151C158.77 65.6436 158.488 64.82 158.579 64.7778C158.671 64.7355 159.101 65.4888 159.546 66.4602C159.99 67.4317 160.272 68.2553 160.181 68.2975Z" fill="#257367"/>
<path d="M162.234 72.4578C162.325 72.5071 156.816 83.4958 149.931 96.9976C143.046 110.506 137.389 121.425 137.297 121.376C137.205 121.326 142.715 110.345 149.6 96.8287C156.485 83.3198 162.142 72.4086 162.227 72.4508L162.234 72.4578Z" fill="white"/>
<path d="M125.735 128.521C125.735 128.521 125.53 128.57 125.142 128.626C124.719 128.683 124.148 128.753 123.428 128.852C121.904 129.035 119.753 129.288 117.115 129.605C111.746 130.203 104.389 131.034 96.2623 131.942C92.192 132.385 88.3122 132.801 84.778 133.188C83.0144 133.378 81.3355 133.54 79.7907 133.835C78.2458 134.124 76.842 134.539 75.6357 135.11C73.2232 136.257 71.77 137.996 71.1281 139.319C70.472 140.664 70.4791 141.53 70.4297 141.516C70.4297 141.516 70.4297 141.466 70.4297 141.361C70.4367 141.262 70.4438 141.107 70.4791 140.91C70.5496 140.523 70.6836 139.946 71.0011 139.256C71.6148 137.883 73.075 136.074 75.5299 134.87C76.7503 134.272 78.1752 133.828 79.7342 133.526C81.2932 133.216 82.9792 133.04 84.7427 132.843C88.2769 132.449 92.1567 132.019 96.227 131.569C104.361 130.696 111.718 129.914 117.093 129.337C119.739 129.07 121.89 128.859 123.421 128.704C124.141 128.64 124.719 128.591 125.142 128.549C125.537 128.521 125.742 128.507 125.749 128.521H125.735Z" fill="white"/>
<path d="M216.953 255.211C216.904 255.302 210.033 251.522 201.603 246.771C193.174 242.019 186.387 238.098 186.437 238.013C186.486 237.922 193.357 241.702 201.787 246.454C210.21 251.198 217.003 255.119 216.953 255.211Z" fill="white"/>
<path d="M176.688 232.635C176.652 232.713 175.404 231.945 173.146 231.502C170.903 231.03 167.644 231.065 164.279 232.072C160.907 233.079 158.093 234.627 156.075 235.74C155.116 236.282 154.312 236.732 153.691 237.084C153.126 237.401 152.809 237.563 152.795 237.542C152.781 237.521 153.077 237.317 153.62 236.958C154.163 236.606 154.954 236.106 155.948 235.507C157.937 234.332 160.759 232.734 164.18 231.713C167.602 230.692 170.931 230.699 173.203 231.241C174.346 231.502 175.227 231.84 175.813 232.128C176.109 232.262 176.328 232.396 176.476 232.48C176.624 232.565 176.695 232.614 176.695 232.628L176.688 232.635Z" fill="white"/>
<path d="M270.636 109.697L278.346 107.282C281.415 109.303 285.062 110.521 289.005 110.64C300.341 110.985 309.815 102.087 310.161 90.7747C310.506 79.4622 301.59 70.0081 290.254 69.6631C278.917 69.3182 269.444 78.2162 269.105 89.5287C268.964 94.2522 270.438 98.6519 273.02 102.193H273.013L270.643 109.69L270.636 109.697Z" fill="white"/>
<path d="M270.636 109.697C270.636 109.697 270.678 109.542 270.77 109.225C270.868 108.887 271.016 108.416 271.2 107.796C271.595 106.508 272.173 104.614 272.921 102.165C272.935 102.122 272.985 102.094 273.027 102.108C273.034 102.108 273.048 102.115 273.055 102.122C273.055 102.122 273.055 102.122 273.062 102.129L272.942 102.242C271.299 100.004 269.599 96.7372 269.105 92.5768C268.59 88.4657 269.366 83.4466 272.237 78.9835C273.662 76.766 275.595 74.7175 277.965 73.0985C280.328 71.4794 283.129 70.2756 286.162 69.7758C289.188 69.283 292.419 69.4449 295.516 70.353C297.075 70.7754 298.563 71.4794 300.009 72.2608C301.406 73.1337 302.789 74.0769 303.974 75.2737C305.208 76.4 306.203 77.7375 307.127 79.0891C307.967 80.497 308.721 81.9401 309.208 83.4747C310.245 86.5088 310.541 89.7117 310.167 92.7317C309.808 95.7657 308.721 98.5956 307.219 101.017C305.702 103.439 303.748 105.452 301.597 106.973C299.445 108.493 297.11 109.528 294.81 110.126C292.511 110.76 290.239 110.816 288.165 110.725C283.982 110.422 280.624 108.909 278.289 107.353H278.36C275.842 108.127 273.902 108.711 272.575 109.12C271.941 109.31 271.454 109.458 271.108 109.563C270.784 109.662 270.621 109.704 270.621 109.704C271.186 109.521 273.464 108.782 278.303 107.205C278.332 107.198 278.353 107.205 278.374 107.212C280.702 108.725 284.039 110.197 288.172 110.478C290.225 110.556 292.468 110.492 294.733 109.852C296.997 109.253 299.297 108.226 301.406 106.719C303.515 105.22 305.441 103.235 306.922 100.848C308.397 98.4619 309.462 95.6742 309.808 92.6965C310.167 89.7258 309.878 86.5791 308.855 83.5944C308.376 82.0879 307.628 80.673 306.81 79.2862C305.9 77.9628 304.926 76.6464 303.713 75.5341C302.549 74.3656 301.194 73.4293 299.819 72.5775C298.394 71.8102 296.941 71.1133 295.403 70.698C292.363 69.7969 289.188 69.635 286.211 70.1207C283.234 70.6135 280.476 71.7891 278.148 73.373C275.813 74.9639 273.902 76.9702 272.491 79.1524C269.641 83.5381 268.858 88.4798 269.345 92.5487C269.81 96.6668 271.461 99.905 273.069 102.144C273.097 102.179 273.09 102.235 273.048 102.263C273.02 102.284 272.97 102.284 272.942 102.263L272.935 102.256L273.069 102.214C271.524 106.923 270.798 109.141 270.621 109.69L270.636 109.697Z" fill="#263238"/>
<path d="M293.738 95.9558L293.922 87.6421C293.922 87.6421 292.094 87.2479 290.514 84.7207C289.47 83.0523 289.012 81.7078 288.821 80.9827C288.701 80.5392 288.285 80.2295 287.827 80.2717C287.389 80.314 286.867 80.4688 286.55 81.1446C285.964 82.3977 286.747 85.4951 286.747 85.4951C286.747 85.4951 287.072 86.1216 286.204 86.1005L283.114 86.0301C282.712 86.023 282.317 86.1427 282.007 86.3961C281.732 86.6214 281.499 86.9593 281.527 87.4802C281.591 88.6558 282.204 89.1979 282.197 89.4442C282.197 89.6906 281.845 90.113 282.07 90.831C282.303 91.5491 282.458 91.4857 282.451 91.8306C282.444 92.1685 282.487 93.0344 282.691 93.5694C282.896 94.1044 283.136 94.3508 283.136 94.3508C283.136 94.3508 283.016 95.463 283.312 96.1177C283.608 96.7724 284.899 97.1455 285.337 97.1525C285.767 97.1596 288.878 96.6105 289.752 96.4134C290.627 96.2163 292.899 95.5264 293.731 95.9488L293.738 95.9558Z" fill="#257367"/>
<path d="M295.312 87.4935L295.121 96.0303L298.302 96.1013L298.493 87.5644L295.312 87.4935Z" fill="#257367"/>
<path d="M260.217 275.344L252.097 287.494C252.097 287.494 261.748 299.813 260.464 302.2L236.296 287.332L248.168 267.882L260.217 275.337V275.344Z" fill="#257367"/>
<g opacity="0.3">
<path d="M260.217 275.344L252.097 287.494C252.097 287.494 261.748 299.813 260.464 302.2L236.296 287.332L248.168 267.882L260.217 275.337V275.344Z" fill="black"/>
</g>
<path d="M245.269 281.849C244.726 281.687 244.077 282.018 243.893 282.553C243.71 283.088 244.034 283.749 244.578 283.918C245.121 284.087 245.911 283.721 246.031 283.165C246.151 282.609 245.727 281.856 245.156 281.82" fill="#E0E0E0"/>
<g opacity="0.6">
<path d="M236.289 287.332L237.566 285.418L260.266 300.384C260.266 300.384 261.056 301.51 260.464 302.193L236.296 287.325L236.289 287.332Z" fill="white"/>
</g>
<path d="M252.563 287.607C252.486 287.72 251.865 287.41 251.047 287.431C250.228 287.431 249.615 287.755 249.537 287.642C249.445 287.551 250.052 286.959 251.04 286.945C252.027 286.931 252.655 287.508 252.563 287.6V287.607Z" fill="#263238"/>
<path d="M254.454 290.212C254.411 290.345 253.776 290.226 253.064 290.479C252.351 290.711 251.914 291.183 251.801 291.106C251.681 291.056 252.02 290.317 252.909 290.021C253.79 289.719 254.517 290.092 254.454 290.212Z" fill="#263238"/>
<path d="M254.024 294.125C253.904 294.083 254.101 293.393 254.8 292.936C255.498 292.471 256.21 292.563 256.203 292.689C256.203 292.83 255.639 292.95 255.068 293.337C254.489 293.71 254.151 294.182 254.024 294.125Z" fill="#263238"/>
<path d="M254.108 284.636C253.995 284.714 253.551 284.221 252.86 283.855C252.175 283.475 251.512 283.383 251.519 283.242C251.505 283.116 252.281 282.989 253.092 283.432C253.911 283.869 254.228 284.58 254.115 284.643L254.108 284.636Z" fill="#263238"/>
<path d="M255.702 282.151C255.674 282.201 255.159 281.989 254.496 281.398C254.164 281.102 253.805 280.715 253.466 280.229C253.297 279.99 253.142 279.723 253.001 279.434C252.93 279.293 252.845 279.138 252.81 278.927C252.754 278.723 252.874 278.364 253.142 278.265C253.381 278.153 253.65 278.209 253.826 278.315C254.009 278.42 254.129 278.54 254.242 278.66C254.468 278.892 254.665 279.131 254.835 279.378C255.166 279.87 255.378 280.37 255.498 280.793C255.738 281.658 255.66 282.215 255.604 282.215C255.526 282.215 255.484 281.687 255.173 280.905C255.018 280.518 254.792 280.075 254.468 279.631C254.306 279.413 254.115 279.195 253.903 278.991C253.692 278.765 253.473 278.631 253.339 278.702C253.29 278.73 253.276 278.744 253.283 278.857C253.297 278.962 253.36 279.089 253.424 279.23C253.551 279.497 253.692 279.751 253.84 279.99C254.129 280.462 254.447 280.849 254.736 281.159C255.307 281.778 255.745 282.088 255.702 282.151Z" fill="#263238"/>
<path d="M255.441 282.229C255.392 282.222 255.413 281.659 255.843 280.863C256.055 280.469 256.379 280.039 256.824 279.645C257.05 279.448 257.303 279.265 257.586 279.103C257.875 278.955 258.242 278.737 258.735 278.969C258.982 279.11 259.067 279.413 259.032 279.617C259.011 279.828 258.94 279.976 258.884 280.138C258.757 280.448 258.58 280.722 258.383 280.955C257.988 281.419 257.515 281.722 257.092 281.884C256.231 282.222 255.653 282.053 255.667 282.01C255.667 281.926 256.217 281.954 256.951 281.574C257.311 281.391 257.713 281.095 258.037 280.673C258.199 280.462 258.34 280.222 258.446 279.962C258.566 279.68 258.601 279.413 258.489 279.385C258.369 279.307 258.044 279.378 257.818 279.518C257.557 279.659 257.325 279.821 257.113 279.99C256.69 280.335 256.365 280.708 256.132 281.053C255.66 281.743 255.519 282.257 255.441 282.236V282.229Z" fill="#263238"/>
<path d="M257.98 277.899L260.619 292.26C260.619 292.26 276.138 294.407 276.886 297.012L249.163 303.122L244.126 280.912L257.98 277.899Z" fill="#257367"/>
<path d="M251.787 292.957C251.286 293.224 251.046 293.907 251.286 294.421C251.533 294.935 252.224 295.181 252.732 294.928C253.24 294.675 253.55 293.858 253.254 293.379C252.958 292.901 252.126 292.647 251.688 293.02" fill="#E0E0E0"/>
<g opacity="0.6">
<path d="M249.163 303.129L248.747 300.869L275.489 295.857C275.489 295.857 276.844 296.125 276.893 297.019L249.17 303.129H249.163Z" fill="white"/>
</g>
<path d="M261.042 292.028C261.07 292.161 260.407 292.373 259.836 292.957C259.25 293.52 259.039 294.182 258.898 294.161C258.764 294.161 258.792 293.309 259.49 292.619C260.189 291.922 261.042 291.901 261.035 292.035L261.042 292.028Z" fill="#263238"/>
<path d="M264.217 292.584C264.273 292.711 263.744 293.07 263.405 293.738C263.053 294.4 263.074 295.048 262.94 295.069C262.82 295.118 262.552 294.351 262.982 293.52C263.405 292.689 264.188 292.457 264.224 292.584H264.217Z" fill="#263238"/>
<path d="M266.636 295.695C266.516 295.752 266.185 295.118 266.368 294.301C266.544 293.485 267.123 293.048 267.201 293.154C267.299 293.246 266.982 293.738 266.841 294.407C266.686 295.076 266.77 295.653 266.643 295.695H266.636Z" fill="#263238"/>
<path d="M260.076 288.818C260.048 288.951 259.384 288.902 258.63 289.127C257.875 289.332 257.332 289.719 257.24 289.62C257.141 289.543 257.614 288.909 258.503 288.663C259.392 288.409 260.125 288.698 260.076 288.818Z" fill="#263238"/>
<path d="M259.49 285.931C259.504 285.988 258.989 286.185 258.1 286.227C257.656 286.248 257.127 286.22 256.548 286.1C256.259 286.044 255.963 285.96 255.66 285.854C255.511 285.798 255.342 285.748 255.166 285.622C254.982 285.516 254.82 285.171 254.947 284.918C255.039 284.671 255.272 284.524 255.469 284.481C255.674 284.432 255.85 284.432 256.005 284.439C256.33 284.439 256.64 284.481 256.936 284.545C257.522 284.671 258.016 284.876 258.404 285.101C259.18 285.551 259.511 286.009 259.469 286.044C259.419 286.1 259.01 285.748 258.248 285.404C257.867 285.235 257.395 285.073 256.859 284.981C256.591 284.939 256.301 284.911 256.005 284.911C255.695 284.897 255.441 284.953 255.399 285.101C255.384 285.157 255.384 285.178 255.462 285.249C255.54 285.312 255.681 285.368 255.822 285.418C256.104 285.523 256.379 285.608 256.647 285.671C257.183 285.805 257.684 285.868 258.1 285.889C258.947 285.939 259.476 285.854 259.49 285.931Z" fill="#263238"/>
<path d="M259.356 286.164C259.314 286.192 258.94 285.77 258.693 284.904C258.573 284.474 258.503 283.939 258.545 283.348C258.566 283.052 258.623 282.743 258.714 282.426C258.813 282.116 258.933 281.708 259.448 281.532C259.723 281.461 259.998 281.623 260.111 281.792C260.245 281.961 260.295 282.116 260.365 282.271C260.485 282.581 260.548 282.904 260.57 283.207C260.612 283.813 260.478 284.362 260.295 284.77C259.914 285.608 259.385 285.889 259.363 285.847C259.3 285.791 259.716 285.425 259.977 284.643C260.104 284.256 260.189 283.77 260.125 283.242C260.097 282.982 260.034 282.707 259.921 282.447C259.815 282.165 259.653 281.947 259.547 282.003C259.406 282.032 259.222 282.306 259.159 282.567C259.074 282.848 259.018 283.123 258.982 283.39C258.919 283.925 258.947 284.425 259.018 284.833C259.159 285.657 259.413 286.129 259.349 286.164H259.356Z" fill="#263238"/>
<path d="M252.471 158.199L286.211 210.151C289.421 214.853 291.255 219.69 290.776 225.272C290.465 228.862 289.146 232.283 287.164 235.296L259.631 283.299L245.911 269.283L266.184 226.532L246.842 200.535L236.571 158.199H252.464H252.471Z" fill="#263238"/>
<path d="M262.199 288.029L245.212 170.821L244.267 158.931L215.204 157.362C215.204 157.362 210.513 172.384 210.118 180.163C209.73 187.941 227.415 229.284 227.415 229.284L231.492 249.967L243.287 291.922L262.199 288.029Z" fill="#263238"/>
<path d="M212.967 154.947C212.452 154.095 216.438 150.744 222.857 145.528C224.466 144.219 226.222 142.783 228.106 141.241C230.053 139.692 232.352 137.848 235.541 136.637C238.701 135.455 242.341 135.138 245.953 135.947C247.752 136.349 249.537 137.031 251.223 138.052C252.901 139.073 254.517 140.481 255.73 142.346C256.019 142.797 256.33 143.311 256.612 144.001C256.887 144.676 257.12 145.563 257.085 146.591C257.028 147.746 256.675 148.78 255.928 149.745C255.547 150.223 255.039 150.688 254.39 151.033C254.072 151.209 253.713 151.343 253.353 151.441C253.007 151.526 252.669 151.589 252.323 151.596C250.87 151.652 249.882 151.11 249.339 150.815C248.768 150.484 248.457 150.252 248.288 150.153C248.217 150.104 248.175 150.083 248.225 150.104C248.267 150.118 248.351 150.146 248.408 150.146C248.528 150.16 248.535 150.139 248.415 150.146C248.175 150.16 247.576 150.343 246.722 150.59C246.292 150.716 245.763 150.815 245.283 150.906C244.803 150.97 244.316 151.04 243.858 151.054C242.003 151.16 240.415 150.934 239.026 150.751C237.636 150.554 236.437 150.385 235.4 150.35C234.356 150.308 233.538 150.421 232.599 150.667C230.758 151.188 228.903 152.272 227.111 153.307C225.341 154.349 223.492 155.383 221.757 155.989C220.029 156.615 218.385 156.89 217.038 156.855C215.69 156.827 214.66 156.489 214.047 156.13C213.433 155.771 213.2 155.426 213.271 155.2C213.44 154.694 214.745 154.813 216.678 154.123C217.644 153.785 218.78 153.243 220.036 152.427C221.313 151.624 222.611 150.54 224.254 149.196C225.905 147.893 227.831 146.302 230.624 145.141C232 144.578 233.7 144.191 235.28 144.134C236.86 144.05 238.349 144.177 239.703 144.268C241.057 144.367 242.306 144.437 243.336 144.317C243.604 144.296 243.837 144.247 244.077 144.205C244.309 144.141 244.507 144.106 244.775 144.015C245.339 143.846 246.136 143.501 247.392 143.29C248.02 143.191 248.789 143.135 249.657 143.29C250.08 143.367 250.538 143.494 250.926 143.656C251.328 143.817 251.625 143.986 251.879 144.134C252.365 144.423 252.683 144.641 252.782 144.683C252.796 144.69 252.81 144.697 252.803 144.697C252.803 144.697 252.81 144.676 252.767 144.768L252.598 145.127C252.436 145.43 252.302 145.824 252.238 145.993C252.161 146.26 252.125 146.352 252.104 146.514C252.083 146.591 252.083 146.704 252.083 146.704C252.083 146.725 252.083 146.739 252.083 146.704V146.683L252.076 146.676C252.034 146.514 252.133 146.887 252.118 146.844C252.118 146.837 252.118 146.823 252.09 146.781C252.055 146.711 251.963 146.598 251.85 146.514C251.745 146.429 251.639 146.38 251.611 146.373C251.596 146.373 251.603 146.373 251.625 146.373H251.674L251.709 146.387H251.73H251.737L251.293 146.366C251.187 146.366 250.99 146.366 250.701 146.429C250.559 146.457 250.383 146.5 250.193 146.563L250.037 146.612C250.002 146.626 250.03 146.612 250.016 146.612V146.598C249.995 146.556 249.903 146.38 249.762 146.162C248.732 144.528 246.56 143.226 244.324 142.663C242.08 142.079 239.71 142.163 237.657 142.776C235.604 143.374 233.573 144.641 231.562 145.95C229.517 147.295 227.527 148.541 225.707 149.604C218.392 153.884 213.447 155.735 212.953 154.912L212.967 154.947Z" fill="#F5F5F5"/>
<path d="M241.918 98.5252C242.518 98.6308 248.309 101.059 250.933 102.172C251.766 102.524 252.443 103.157 252.845 103.967L265.754 129.964L255.765 136.862C255.765 136.862 256.936 157.171 254.369 158.199C253.409 158.579 218.512 158.523 218.512 158.523C218.512 158.523 214.738 159.854 213.391 158.523C212.347 157.495 212.749 155.489 212.749 155.489V113.104L210.851 101.433C210.851 101.433 228.853 96.2303 241.911 98.5322L241.918 98.5252Z" fill="#455A64"/>
<path d="M217.722 110.457L218.279 131.541L200.277 133.258C200.277 133.139 198.33 105.931 210.858 101.425L217.722 110.457Z" fill="#455A64"/>
<path d="M255.025 133.251C254.919 132.568 254.806 131.773 254.609 130.492C254.334 128.584 253.981 126.12 253.586 123.396C253.198 120.672 252.852 118.201 252.584 116.293C252.471 115.448 252.372 114.73 252.288 114.139C252.224 113.632 252.196 113.343 252.224 113.343C252.253 113.343 252.323 113.611 252.436 114.118C252.549 114.618 252.69 115.35 252.845 116.251C253.17 118.06 253.565 120.566 253.96 123.34C254.355 126.113 254.672 128.626 254.87 130.456C254.968 131.372 255.039 132.111 255.067 132.625C255.081 132.885 255.088 133.082 255.088 133.216V133.307C255.088 133.307 255.11 133.371 255.018 133.336V133.3C255.011 133.265 255.011 133.244 255.018 133.244L255.025 133.251Z" fill="#263238"/>
<g opacity="0.3">
<path d="M253.882 145.289C253.099 142.916 251.117 141.065 248.838 140.03C246.56 138.995 244.006 138.707 241.502 138.742C237.142 138.805 232.74 139.84 229.051 142.163C223.528 145.648 219.831 151.828 213.758 154.236L213.01 155.306C217.708 155.552 222.469 154.412 226.547 152.075C229.213 150.547 231.626 148.506 234.539 147.513C237.114 146.64 239.893 146.654 242.609 146.676C245.177 146.697 247.914 146.767 250.044 148.203C250.672 148.625 251.286 149.182 252.048 149.224C252.901 149.273 253.684 148.604 253.974 147.802C254.263 146.992 254.143 146.098 253.875 145.282L253.882 145.289Z" fill="black"/>
</g>
<path d="M246.073 130.675L248.232 125.233C248.45 124.684 248.979 124.325 249.572 124.325H259.815C260.534 124.325 261.035 125.036 260.781 125.712L254.214 143.494C254.136 143.705 253.938 143.846 253.713 143.846H241.587C241.206 143.846 240.952 143.466 241.093 143.114L246.073 130.682V130.675Z" fill="#263238"/>
<path d="M258.933 141.973L260.139 135.356L259.144 130.147L257.543 134.483V136.236C256.951 136.081 251.455 131.435 249.981 132.435C248.507 133.434 244.726 138.925 244.726 138.925C244.726 138.925 251.371 145.401 252.436 145.887C252.436 145.887 252.789 149.977 252.838 152.089C252.88 153.884 253.219 154.567 255.554 155.348C257.889 156.13 260.852 152.068 260.852 148.45C260.852 146.19 258.94 141.98 258.94 141.98L258.933 141.973Z" fill="#FFBE9D"/>
<path d="M216.156 131.942L216.734 138.897L233.516 132.773L240.987 129.323L244.253 130.14C244.253 130.14 254.524 130.809 254.623 131.463C254.714 132.118 255.18 132.674 254.623 132.766C254.065 132.857 245.939 133.23 245.939 133.23C245.939 133.23 254.7 133.786 254.898 134.441C255.095 135.096 254.813 136.116 254.348 136.116H244.824C244.824 136.116 253.79 136.672 253.882 137.046C253.974 137.419 254.63 138.073 253.79 138.348C252.951 138.629 244.733 138.904 244.733 138.904L252.485 140.305C252.485 140.305 252.767 141.516 252.111 141.516C251.455 141.516 234.553 142.635 234.553 142.635C234.553 142.635 214.752 155.236 211.013 156.151C207.211 157.08 204.009 152.751 203.55 149.703C202.859 145.106 202.217 133.139 202.217 133.139L216.17 131.921L216.156 131.942Z" fill="#FFBE9D"/>
<path d="M234.546 142.656C234.546 142.656 234.659 142.635 234.892 142.614C235.139 142.593 235.471 142.564 235.901 142.529C236.804 142.466 238.109 142.367 239.774 142.248C241.46 142.128 243.512 141.987 245.897 141.825C247.089 141.748 248.366 141.656 249.713 141.565C250.39 141.523 251.082 141.473 251.794 141.424C252.147 141.41 252.535 141.368 252.732 141.185C252.894 141.016 252.641 140.65 252.394 140.432L252.457 140.467C250.094 140.044 247.477 139.58 244.705 139.087C244.62 139.073 244.563 138.988 244.578 138.904C244.592 138.827 244.655 138.777 244.733 138.77C246.214 138.707 247.745 138.636 249.325 138.566C250.115 138.517 250.912 138.475 251.723 138.425C252.126 138.397 252.535 138.369 252.937 138.327C253.332 138.27 253.783 138.277 254.002 138.052C254.228 137.862 254.108 137.39 253.861 137.25C253.741 137.207 253.501 137.179 253.304 137.151L252.676 137.074C251.829 136.989 250.976 136.898 250.108 136.806C248.38 136.644 246.609 136.482 244.817 136.313C244.719 136.306 244.641 136.215 244.648 136.109C244.655 136.011 244.74 135.94 244.831 135.94C246.729 135.94 248.655 135.94 250.609 135.94C251.589 135.94 252.57 135.94 253.565 135.94H254.312C254.439 135.961 254.587 135.785 254.679 135.595C254.87 135.201 254.849 134.694 254.489 134.504C254.249 134.392 253.819 134.342 253.48 134.286L252.394 134.131C251.667 134.047 250.94 133.955 250.221 133.871C248.775 133.723 247.35 133.575 245.939 133.427C245.833 133.42 245.763 133.329 245.77 133.223C245.777 133.132 245.854 133.061 245.946 133.054C247.822 132.963 249.664 132.878 251.477 132.787C252.38 132.737 253.275 132.681 254.164 132.632C254.376 132.611 254.637 132.611 254.729 132.547C254.841 132.477 254.891 132.315 254.87 132.139C254.848 131.963 254.757 131.801 254.63 131.681C254.496 131.562 254.326 131.534 254.108 131.477C252.429 131.132 250.722 130.97 249.078 130.773C247.427 130.597 245.819 130.435 244.26 130.295H244.232C243.117 130.006 242.024 129.731 240.966 129.464H241.072C238.384 130.682 235.887 131.829 233.594 132.885H233.587C228.409 134.751 224.212 136.264 221.292 137.313C219.852 137.82 218.724 138.221 217.941 138.496C217.567 138.622 217.278 138.721 217.066 138.791C216.869 138.855 216.763 138.89 216.763 138.883C216.763 138.883 216.861 138.834 217.052 138.756C217.264 138.672 217.546 138.566 217.913 138.418C218.689 138.123 219.81 137.707 221.235 137.165C224.148 136.088 228.332 134.539 233.488 132.632H233.481C235.774 131.569 238.264 130.414 240.945 129.168C240.98 129.154 241.015 129.147 241.05 129.161C242.116 129.429 243.202 129.696 244.324 129.978H244.295C245.861 130.112 247.47 130.259 249.128 130.435C250.778 130.625 252.471 130.773 254.207 131.132C254.404 131.182 254.686 131.238 254.884 131.414C255.081 131.59 255.208 131.829 255.244 132.09C255.279 132.343 255.208 132.674 254.933 132.85C254.63 133.005 254.425 132.949 254.2 132.984C253.311 133.033 252.415 133.089 251.505 133.139C249.692 133.23 247.851 133.322 245.974 133.413V133.04C247.399 133.188 248.831 133.329 250.277 133.484C250.997 133.568 251.723 133.66 252.457 133.744L253.558 133.899C253.939 133.976 254.263 133.976 254.7 134.166C254.968 134.314 255.152 134.617 255.187 134.913C255.222 135.208 255.159 135.49 255.039 135.743C254.975 135.87 254.905 135.997 254.792 136.102C254.736 136.159 254.679 136.208 254.595 136.25C254.538 136.292 254.369 136.313 254.334 136.306H253.586C252.591 136.306 251.611 136.306 250.63 136.306C248.676 136.306 246.743 136.306 244.853 136.306L244.867 135.94C246.666 136.109 248.429 136.278 250.164 136.44C251.032 136.532 251.886 136.623 252.732 136.715L253.367 136.792C253.586 136.834 253.769 136.827 254.044 136.926C254.298 137.081 254.418 137.306 254.475 137.552C254.531 137.792 254.468 138.101 254.27 138.284C254.08 138.475 253.84 138.538 253.614 138.58C253.402 138.608 253.191 138.636 252.986 138.658C252.57 138.7 252.168 138.728 251.759 138.756C250.948 138.805 250.143 138.848 249.353 138.89C247.773 138.953 246.242 139.017 244.754 139.073L244.775 138.756C247.547 139.263 250.164 139.742 252.521 140.171C252.521 140.171 252.57 140.185 252.584 140.206C252.739 140.347 252.859 140.495 252.965 140.678C253.064 140.847 253.127 141.15 252.944 141.347C252.584 141.663 252.175 141.642 251.829 141.67C251.117 141.713 250.418 141.755 249.741 141.797C248.387 141.875 247.117 141.952 245.918 142.022C243.534 142.163 241.481 142.283 239.788 142.381C238.123 142.473 236.818 142.543 235.908 142.593C235.478 142.614 235.146 142.628 234.899 142.635C234.673 142.642 234.553 142.642 234.553 142.635L234.546 142.656Z" fill="#EB996E"/>
<path d="M211.408 146.809C211.366 146.809 211.366 146.239 211.535 145.345C211.712 144.458 212.093 143.226 212.876 142.051C213.659 140.875 214.653 140.051 215.415 139.559C216.184 139.066 216.713 138.862 216.734 138.904C216.826 139.024 214.71 140.002 213.193 142.262C212.445 143.388 212.036 144.557 211.796 145.408C211.563 146.267 211.472 146.816 211.408 146.809Z" fill="#EB996E"/>
<path d="M254.538 128.83C254.707 129.246 254.474 129.731 254.023 129.914C253.571 130.097 253.063 129.914 252.894 129.506C252.725 129.091 252.958 128.605 253.409 128.422C253.861 128.239 254.369 128.422 254.538 128.83Z" fill="#FAFAFA"/>
<path d="M256.52 135.581C256.52 135.581 256.612 135.208 256.838 134.553C257.092 133.843 257.43 132.92 257.832 131.801C258.27 130.625 258.785 129.253 259.349 127.732C259.49 127.352 259.638 126.958 259.793 126.557C259.913 126.176 260.196 125.691 260.083 125.437C260.033 125.332 259.871 125.275 259.659 125.289C259.434 125.289 259.201 125.289 258.975 125.289C258.517 125.289 258.051 125.289 257.578 125.289C255.688 125.289 253.889 125.282 252.245 125.275C251.427 125.275 250.651 125.268 249.918 125.261C249.558 125.226 249.283 125.346 249.12 125.592C248.986 125.846 248.866 126.191 248.747 126.458C248.288 127.556 247.907 128.464 247.611 129.161C247.336 129.795 247.173 130.14 247.152 130.133C247.131 130.126 247.251 129.76 247.484 129.112C247.752 128.408 248.098 127.479 248.514 126.367C248.634 126.071 248.711 125.789 248.888 125.444C248.993 125.282 249.149 125.142 249.332 125.057C249.515 124.966 249.748 124.966 249.918 124.966C250.651 124.966 251.427 124.952 252.238 124.952C253.882 124.952 255.681 124.945 257.564 124.938C258.037 124.938 258.503 124.938 258.961 124.938C259.194 124.938 259.42 124.938 259.645 124.938C259.864 124.923 260.238 124.966 260.393 125.282C260.527 125.585 260.414 125.853 260.344 126.05C260.266 126.254 260.189 126.458 260.111 126.655C259.956 127.056 259.808 127.444 259.659 127.824C259.067 129.33 258.531 130.703 258.072 131.871C257.628 132.977 257.254 133.892 256.972 134.589C256.704 135.229 256.549 135.574 256.527 135.567L256.52 135.581Z" fill="#455A64"/>
<path d="M227.04 58.3577C225.326 57.2736 224.91 54.7534 225.841 52.9513C226.772 51.1492 228.74 50.051 230.751 49.7342C233.657 49.2696 236.761 50.2904 238.807 52.3952C239.914 53.5356 240.81 55.0139 242.313 55.5348C243.632 55.9924 245.092 55.577 246.475 55.7601C248.33 55.9994 249.924 57.3158 250.877 58.9279C251.829 60.5399 252.224 62.4124 252.443 64.2709C252.647 65.9744 252.781 67.8399 253.959 69.0859C255.116 70.2967 256.936 70.5572 258.375 71.416C261.077 73.0351 261.952 77.0546 260.167 79.6522C259.596 80.4829 258.784 81.2361 258.714 82.2428C258.65 83.1579 259.243 83.9674 259.525 84.8403C260.238 87.086 258.396 89.761 256.033 89.8947C254.841 89.9651 253.564 89.5005 252.499 90.0285C251.441 90.5564 251.046 91.8306 250.369 92.8021C249.035 94.7098 246.242 95.4278 244.147 94.4071C243.272 93.9777 242.447 93.2737 241.473 93.3371C240.5 93.4004 239.738 94.2311 238.779 94.4141C237.53 94.6534 236.338 93.7383 235.597 92.7035C234.856 91.6687 234.334 90.4509 233.382 89.6061C232.133 88.5009 230.384 88.2264 228.804 87.6843C225.319 86.4876 222.413 83.7281 221.03 80.321C219.655 76.9138 219.831 72.9084 221.51 69.635" fill="#263238"/>
<path d="M245.191 80.7434C245.544 80.3632 246.059 80.0042 246.581 79.8282H246.475C246.573 79.793 246.672 79.786 246.771 79.7719C247.152 79.6804 247.533 79.7015 247.857 79.9057H247.85C248.443 80.1239 248.972 80.5603 249.261 81.1306C249.762 82.1231 249.579 83.3832 248.901 84.2631C248.316 85.0304 247.307 85.5303 246.369 85.305C245.508 85.0938 244.866 84.3195 244.627 83.4677C244.358 82.5385 244.528 81.4544 245.191 80.7434Z" fill="#455A64"/>
<path d="M222.554 98.9476L220.734 65.5591C220.663 64.0878 221.728 62.8066 223.196 62.6166L238.158 58.3858C242.969 57.7382 246.348 63.581 246.785 68.4031C247.279 73.7601 247.667 80.328 247.145 84.3476C246.094 92.436 239.935 93.6398 239.935 93.6398C239.997 96.7137 240.027 98.2506 240.027 98.2506L239.54 110.802L222.568 98.9476H222.554Z" fill="#FFBE9D"/>
<path d="M244.697 75.4004C244.732 75.9424 244.295 76.4211 243.731 76.4704C243.159 76.5197 242.673 76.1114 242.637 75.5693C242.602 75.0273 243.039 74.5416 243.604 74.4993C244.175 74.4501 244.662 74.8583 244.697 75.4004Z" fill="#263238"/>
<path d="M245.452 71.8595C245.325 72.0003 244.528 71.4442 243.413 71.4723C242.299 71.4934 241.502 72.0848 241.375 71.951C241.311 71.8947 241.438 71.6483 241.784 71.3738C242.129 71.1063 242.715 70.8388 243.413 70.8247C244.105 70.8106 244.697 71.05 245.043 71.2963C245.396 71.5498 245.515 71.7891 245.452 71.8525V71.8595Z" fill="#263238"/>
<path d="M234.398 75.4003C234.433 75.9424 233.996 76.4211 233.431 76.4703C232.86 76.5196 232.373 76.1113 232.338 75.5693C232.303 75.0272 232.74 74.5415 233.304 74.4993C233.876 74.45 234.363 74.8583 234.398 75.4003Z" fill="#263238"/>
<path d="M234.504 72.3734C234.377 72.5141 233.58 71.958 232.465 71.9862C231.351 72.0073 230.553 72.5986 230.426 72.4649C230.363 72.4086 230.49 72.1622 230.836 71.8876C231.181 71.6201 231.767 71.3526 232.465 71.3385C233.156 71.3245 233.749 71.5638 234.095 71.8102C234.44 72.0636 234.567 72.303 234.504 72.3663V72.3734Z" fill="#263238"/>
<path d="M238.786 80.5041C238.786 80.4407 239.47 80.2999 240.584 80.1239C240.867 80.0887 241.135 80.0254 241.177 79.8283C241.24 79.6241 241.113 79.3214 240.965 78.9906C240.676 78.3077 240.38 77.5967 240.062 76.8505C238.807 73.8095 237.89 71.2964 238.01 71.2471C238.129 71.1978 239.251 73.6264 240.507 76.6675C240.81 77.4207 241.099 78.1317 241.374 78.8216C241.494 79.1384 241.685 79.5044 241.551 79.9339C241.48 80.145 241.276 80.3069 241.092 80.3633C240.909 80.4266 240.754 80.4337 240.613 80.4407C239.484 80.5322 238.786 80.5604 238.778 80.497L238.786 80.5041Z" fill="#263238"/>
<path d="M239.928 93.6398C239.928 93.6398 234.511 94.1466 229.037 91.0704C229.037 91.0704 231.816 96.526 239.872 95.5475L239.928 93.6398Z" fill="#EB996E"/>
<path d="M238.694 83.1509C238.136 82.4047 237.24 81.9683 236.401 82.0176C235.823 82.0528 235.258 82.3414 234.955 82.8553C234.652 83.3692 234.659 84.1224 235.033 84.6503C235.456 85.2417 236.232 85.4177 236.86 85.2487C237.487 85.0798 237.988 84.6363 238.468 84.1928C238.602 84.0731 238.736 83.9394 238.807 83.7634C238.877 83.5874 238.877 83.3551 238.75 83.2002" fill="#EB996E"/>
<path d="M235.526 81.3629C235.71 81.3488 235.745 82.5525 236.803 83.3832C237.861 84.2139 239.145 84.0379 239.159 84.2068C239.18 84.2843 238.877 84.4462 238.334 84.4814C237.798 84.5166 237.015 84.3687 236.366 83.8619C235.717 83.355 235.428 82.6581 235.371 82.1654C235.308 81.6656 235.435 81.3629 235.519 81.3629H235.526Z" fill="#263238"/>
<path d="M234.864 67.7836C234.765 68.0863 233.643 67.9807 232.345 68.1707C231.04 68.3397 229.996 68.748 229.813 68.4875C229.735 68.3608 229.904 68.0722 230.328 67.7625C230.744 67.4598 231.407 67.1641 232.19 67.0515C232.973 66.9459 233.693 67.0515 234.172 67.2275C234.659 67.4034 234.906 67.6357 234.864 67.7836Z" fill="#263238"/>
<path d="M244.951 68.0441C244.761 68.3045 243.985 68.0652 243.068 68.0722C242.144 68.0511 241.368 68.2904 241.184 68.03C241.1 67.9033 241.22 67.6498 241.551 67.3964C241.883 67.15 242.44 66.9388 243.075 66.9388C243.71 66.9388 244.267 67.1571 244.592 67.4035C244.923 67.6569 245.036 67.9103 244.958 68.037L244.951 68.0441Z" fill="#263238"/>
<path d="M252.224 66.7065C251.85 65.5028 251.159 64.3483 250.094 63.6584C249.515 63.2783 248.838 63.053 248.295 62.6166C247.131 61.6803 246.856 60.0401 246.136 58.7307C245.205 57.0413 243.413 55.8516 241.495 55.6545C239.893 55.4926 238.25 55.9713 236.691 55.577C235.541 55.2884 234.532 54.5422 233.361 54.317C231.09 53.8876 228.973 55.5137 227.323 57.1328C227.323 58.7589 228.614 59.843 229.862 60.8848C231.111 61.9267 232.832 62.3772 234.433 62.0886C235.675 61.8633 237.036 61.2368 238.116 61.8985C239.244 62.5954 239.294 64.292 240.295 65.1649C241.728 66.4038 244.006 65.2423 245.826 65.7773C247.23 66.1926 248.112 67.5302 249.043 68.6635C249.974 69.7898 251.378 70.8599 252.781 70.4445C252.69 69.1844 252.598 67.9103 252.224 66.7065Z" fill="#263238"/>
<path d="M235.287 59.4136C234.222 59.1109 232.049 58.421 231.478 57.4988C230.236 55.4996 228.056 54.134 225.82 54.2536C223.591 54.3733 221.446 56.1332 220.988 58.4844C218.286 58.5055 215.655 60.195 214.357 62.7433C214.195 63.0601 214.054 63.3909 213.934 63.7288C213.094 65.2071 212.932 67.0585 213.539 68.6495C213.905 69.6068 214.533 70.6768 214.04 71.5779C213.539 72.493 212.269 72.5212 211.274 72.8661C209.553 73.4575 208.438 75.4356 208.819 77.2095C208.953 77.8501 209.264 78.4837 209.13 79.1243C208.989 79.786 208.424 80.2576 207.98 80.7786C206.894 82.0668 206.555 83.9463 207.126 85.5373C207.698 87.1212 209.158 88.3601 210.823 88.6558C211.578 88.7895 212.403 88.7614 213.052 89.1626C213.8 89.6272 214.131 90.5283 214.66 91.2252C215.676 92.5768 217.588 93.1681 219.196 92.6402C219.521 92.5346 219.824 92.3727 220.106 92.1826C220.614 92.8865 221.411 93.3582 222.766 93.3582L222.455 75.6397C222.625 76.0128 222.949 76.3507 223.535 76.4845C226.384 77.125 226.801 71.2682 226.166 69.6772C227.196 68.7621 228.24 67.8399 229.023 66.6784C229.806 65.5169 230.504 62.3561 230.335 60.9271C231.365 60.9905 235.738 59.5474 235.273 59.4136H235.287Z" fill="#263238"/>
<path d="M223.619 76.7801C223.535 75.0554 221.418 74.6823 219.916 75.5482C219.09 76.0199 218.463 76.9772 218.54 78.8075C218.745 83.6929 223.619 82.4821 223.619 82.3413C223.619 82.2569 223.718 78.7934 223.619 76.7731V76.7801Z" fill="#FFBE9D"/>
<path d="M222.046 80.5603C222.046 80.5603 221.962 80.6236 221.82 80.694C221.679 80.7644 221.44 80.8208 221.186 80.7363C220.664 80.5673 220.191 79.7648 220.127 78.8849C220.099 78.4414 220.17 78.012 220.318 77.653C220.452 77.2869 220.671 77.0264 220.932 76.9701C221.186 76.8997 221.376 77.0476 221.447 77.1813C221.517 77.3151 221.489 77.4136 221.517 77.4207C221.531 77.4347 221.616 77.3362 221.574 77.132C221.552 77.0335 221.489 76.9209 221.369 76.8364C221.249 76.7449 221.073 76.7026 220.889 76.7308C220.515 76.773 220.184 77.132 220.029 77.5263C219.852 77.9205 219.754 78.3992 219.789 78.899C219.859 79.8845 220.403 80.7856 221.122 80.9615C221.468 81.039 221.757 80.9193 221.898 80.7996C222.046 80.6729 222.067 80.5603 222.046 80.5533V80.5603Z" fill="#EB996E"/>
<path d="M228.402 58.5196C228.437 58.5688 227.908 58.6604 227.422 59.3362C226.935 60.0049 226.751 61.2791 227.062 62.7151L227.09 62.8418L226.97 62.87C225.757 63.1727 224.424 64.1301 223.817 65.6436C223.676 66.0167 223.577 66.432 223.563 66.8333C223.563 67.2486 223.633 67.678 223.718 68.1215C223.796 68.565 223.887 69.0225 223.902 69.5153C223.937 69.994 223.81 70.5501 223.514 70.9584C222.907 71.8806 221.926 72.3382 221.087 72.7817C220.219 73.2111 219.422 73.6475 218.815 74.267C217.574 75.4848 217.024 77.0617 216.988 78.364C216.939 79.6804 217.313 80.7222 217.63 81.384C217.955 82.0527 218.23 82.3695 218.202 82.3906C218.195 82.3976 218.124 82.3202 217.99 82.1724C217.87 82.0175 217.694 81.7782 217.51 81.4473C217.144 80.7926 216.72 79.7297 216.741 78.357C216.741 76.9983 217.299 75.337 218.59 74.0417C219.225 73.38 220.078 72.9084 220.932 72.479C221.771 72.0355 222.695 71.5849 223.224 70.7683C223.768 70.0292 223.521 69.0577 223.38 68.1848C223.302 67.7414 223.224 67.2908 223.231 66.8262C223.253 66.3616 223.358 65.9252 223.521 65.5239C224.198 63.9048 225.623 62.9122 226.914 62.6166L226.822 62.7714C226.533 61.265 226.758 59.9416 227.316 59.2517C227.584 58.9067 227.88 58.7237 228.085 58.6252C228.296 58.5407 228.409 58.5055 228.409 58.5125L228.402 58.5196Z" fill="#455A64"/>
<path d="M220.212 82.3906C220.565 82.0105 221.08 81.6514 221.602 81.4755H221.496C221.594 81.4403 221.693 81.4332 221.792 81.4191C222.173 81.3276 222.554 81.3487 222.878 81.5529H222.871C223.464 81.7711 223.993 82.2076 224.282 82.7778C224.783 83.7703 224.6 85.0304 223.922 85.9104C223.337 86.6777 222.328 87.1775 221.39 86.9522C220.529 86.741 219.887 85.9667 219.648 85.1149C219.379 84.1857 219.549 83.1016 220.212 82.3906Z" fill="#455A64"/>
<path d="M262.199 288.029C262.1 288.043 258.107 261.392 253.282 228.517C248.457 195.628 244.627 168.956 244.726 168.942C244.824 168.927 248.817 195.572 253.642 228.461C258.467 261.342 262.298 288.015 262.199 288.029Z" fill="#455A64"/>
<path d="M232.656 159.628C232.656 159.628 232.656 159.854 232.586 160.255C232.508 160.656 232.36 161.219 232.099 161.902C231.584 163.254 230.533 165.042 228.819 166.492C227.104 167.942 225.164 168.681 223.747 168.97C223.034 169.118 222.449 169.174 222.039 169.181C221.637 169.188 221.412 169.174 221.412 169.146C221.412 169.082 222.308 169.068 223.69 168.716C225.066 168.371 226.928 167.618 228.586 166.21C230.244 164.809 231.302 163.099 231.866 161.804C232.437 160.501 232.6 159.621 232.663 159.635L232.656 159.628Z" fill="#455A64"/>
<path d="M241.89 160.579C241.904 160.642 241.425 160.635 241.058 161.177C240.888 161.43 240.754 161.818 240.86 162.191C240.952 162.564 241.34 162.859 241.805 162.909C242.264 162.965 242.708 162.768 242.892 162.423C243.082 162.085 243.04 161.684 242.934 161.395C242.701 160.79 242.229 160.677 242.257 160.621C242.257 160.6 242.377 160.593 242.567 160.677C242.758 160.755 243.005 160.959 243.174 161.29C243.336 161.613 243.428 162.106 243.195 162.585C242.969 163.071 242.349 163.352 241.77 163.275C241.192 163.218 240.656 162.803 240.543 162.275C240.423 161.754 240.627 161.304 240.86 161.022C241.1 160.733 241.389 160.6 241.587 160.565C241.791 160.529 241.904 160.565 241.897 160.586L241.89 160.579Z" fill="#455A64"/>
<path d="M272.519 224.117C272.547 224.223 271.08 224.638 269.359 225.342C267.631 226.039 266.29 226.75 266.234 226.659C266.184 226.581 267.461 225.708 269.218 225.004C270.974 224.293 272.498 224.026 272.519 224.124V224.117Z" fill="#455A64"/>
<path d="M218.209 123.396C218.209 123.396 217.92 123.361 217.433 123.178C216.946 122.988 216.276 122.614 215.542 122.037C214.809 121.46 214.026 120.679 213.137 119.848C212.255 119.024 211.239 118.13 209.948 117.659C208.664 117.18 207.296 117.314 206.16 117.666C205.017 118.018 204.072 118.588 203.317 119.102C201.815 120.158 200.954 120.918 200.912 120.862C200.898 120.84 201.095 120.636 201.476 120.291C201.857 119.946 202.421 119.447 203.169 118.891C203.917 118.348 204.869 117.736 206.061 117.349C207.232 116.962 208.693 116.8 210.075 117.314C211.451 117.82 212.495 118.757 213.37 119.601C214.251 120.453 215.006 121.249 215.705 121.833C217.087 123.044 218.237 123.318 218.209 123.389V123.396Z" fill="white"/>
<path d="M252.747 118.496C252.747 118.496 252.366 118.13 251.625 117.56C250.884 116.997 249.713 116.272 248.105 115.814C246.511 115.357 244.458 115.209 242.349 115.871C240.232 116.518 238.194 117.898 235.986 119.221C234.878 119.883 233.749 120.474 232.593 120.89C231.436 121.312 230.279 121.573 229.164 121.734C226.935 122.058 224.903 121.974 223.218 121.847C221.532 121.713 220.177 121.516 219.246 121.375C218.816 121.305 218.463 121.242 218.174 121.199C217.927 121.157 217.8 121.122 217.807 121.115C217.807 121.101 217.941 121.108 218.188 121.129C218.477 121.157 218.83 121.192 219.267 121.242C220.205 121.34 221.56 121.495 223.239 121.601C224.911 121.692 226.928 121.749 229.115 121.418C230.208 121.249 231.337 120.981 232.466 120.573C233.594 120.165 234.695 119.58 235.795 118.926C237.989 117.616 240.063 116.215 242.243 115.568C244.423 114.906 246.546 115.089 248.168 115.589C249.805 116.089 250.976 116.87 251.703 117.469C252.062 117.778 252.33 118.032 252.493 118.222C252.662 118.405 252.739 118.51 252.732 118.517L252.747 118.496Z" fill="white"/>
<path d="M260.026 118.264C260.069 118.264 260.04 118.743 259.709 119.426C259.391 120.101 258.7 120.967 257.649 121.488C256.591 122.002 255.483 122.016 254.75 121.854C254.009 121.699 253.614 121.425 253.635 121.39C253.656 121.333 254.08 121.516 254.792 121.601C255.497 121.685 256.513 121.636 257.487 121.164C258.453 120.686 259.123 119.918 259.483 119.306C259.85 118.693 259.97 118.25 260.026 118.264Z" fill="white"/>
<path d="M200.277 133.258C200.277 133.258 200.728 133.167 201.561 133.061C202.45 132.963 203.635 132.829 205.074 132.667C208.044 132.35 212.149 131.935 216.685 131.505C217.228 131.456 217.757 131.4 218.265 131.358L218.096 131.548C217.99 127.366 217.912 123.642 217.877 120.967C217.87 119.679 217.856 118.616 217.849 117.813C217.849 117.074 217.863 116.666 217.891 116.666C217.912 116.666 217.948 117.074 217.99 117.813C218.025 118.616 218.075 119.679 218.131 120.967C218.237 123.642 218.357 127.359 218.47 131.541V131.717L218.3 131.731C217.8 131.78 217.263 131.829 216.72 131.885C212.184 132.315 208.079 132.688 205.102 132.941C203.663 133.054 202.471 133.146 201.575 133.216C200.742 133.272 200.277 133.293 200.277 133.265V133.258Z" fill="#263238"/>
<path d="M48.8081 280.863L33.5357 289.43L19.4977 292.732C18.489 292.971 17.8894 294.013 18.1927 295.005C18.362 295.562 18.7923 295.998 19.3426 296.174C22.8626 297.328 35.8283 301.214 36.6819 300.827C38.0363 300.215 53.6261 292.844 53.6261 292.844L48.8081 280.863Z" fill="#257367"/>
<g opacity="0.6">
<path d="M18.1997 295.005L37.9657 300.257L37.3096 300.602C36.6113 300.897 36.0892 300.996 35.4614 300.862C33.7825 300.496 29.1761 299.384 19.3707 296.223C18.7993 296.04 18.3549 295.583 18.1997 295.005Z" fill="white"/>
</g>
<g opacity="0.6">
<path d="M41.2601 294.442C40.7875 294.196 40.1314 294.386 39.8704 294.843C39.6094 295.308 39.7928 295.97 40.2584 296.223C40.731 296.477 41.5211 296.28 41.7327 295.787C41.9444 295.294 41.6834 294.527 41.1684 294.393" fill="white"/>
</g>
<path d="M31.7792 294.231C31.6875 294.203 31.9414 293.26 31.7439 292.07C31.5605 290.88 31.0173 290 31.0949 289.958C31.1514 289.902 31.8497 290.775 32.0473 292.049C32.2589 293.323 31.8427 294.273 31.7721 294.231H31.7792Z" fill="#263238"/>
<path d="M35.4475 293.358C35.3347 293.365 35.2359 292.323 34.6857 291.19C34.1495 290.05 33.3947 289.325 33.4723 289.24C33.5288 289.156 34.4529 289.803 35.0313 291.028C35.6239 292.246 35.5463 293.372 35.4475 293.358Z" fill="#263238"/>
<path d="M38.5723 291.894C38.4594 291.894 38.5159 290.761 37.8387 289.62C37.1826 288.459 36.1739 287.945 36.2303 287.846C36.2515 287.804 36.5336 287.867 36.9287 288.114C37.3237 288.36 37.8104 288.804 38.1702 289.423C38.53 290.043 38.6711 290.69 38.6852 291.148C38.6993 291.612 38.6146 291.894 38.5723 291.887V291.894Z" fill="#263238"/>
<path d="M38.6148 288.592C38.6148 288.592 38.7912 288.43 39.1862 288.262C39.5813 288.1 40.1879 287.91 40.9639 287.91C41.3378 287.924 41.8034 287.903 42.2337 288.226C42.4523 288.388 42.5793 288.726 42.4735 289.015C42.3677 289.303 42.149 289.493 41.9021 289.627C40.9145 290.134 39.5107 289.796 38.7841 288.768C38.0717 287.727 38.1704 286.389 38.7841 285.502C38.9534 285.291 39.1862 285.08 39.5107 285.059C39.8352 285.037 40.1103 285.291 40.1879 285.537C40.3643 286.03 40.2514 286.459 40.202 286.832C40.0539 287.593 39.7858 288.163 39.5601 288.522C39.3414 288.888 39.1721 289.057 39.151 289.043C39.0804 289.008 39.7012 288.247 39.9269 286.783C39.9693 286.424 40.0327 285.995 39.8846 285.65C39.8141 285.481 39.68 285.375 39.5178 285.389C39.3626 285.396 39.1862 285.53 39.0593 285.706C38.5655 286.445 38.4738 287.67 39.0945 288.543C39.7012 289.416 40.9286 289.712 41.7328 289.31C41.9233 289.212 42.0855 289.057 42.149 288.895C42.2054 288.733 42.1561 288.571 42.022 288.459C41.7399 288.219 41.3096 288.191 40.9498 288.17C39.4684 288.121 38.6219 288.656 38.6007 288.578L38.6148 288.592Z" fill="#263238"/>
<path d="M57.104 284.749L67.3609 293.731C67.3609 293.731 61.654 307.149 63.3823 308.993L81.554 289.775L66.1546 275.119L57.104 284.742V284.749Z" fill="#257367"/>
<path d="M72.1436 287.008C72.5951 286.734 73.2582 286.868 73.5544 287.311C73.8507 287.755 73.7167 288.423 73.2652 288.712C72.8138 288.994 72.0166 288.853 71.7697 288.381C71.5228 287.91 71.7274 287.128 72.2283 286.959" fill="#E0E0E0"/>
<g opacity="0.6">
<path d="M81.5611 289.782L79.9527 288.367L63.1284 307.318C63.1284 307.318 62.691 308.521 63.3894 308.993L81.5611 289.775V289.782Z" fill="white"/>
</g>
<path d="M66.9659 293.949C67.0646 294.034 67.5514 293.605 68.285 293.429C69.0186 293.231 69.6535 293.379 69.6958 293.26C69.7593 293.154 69.068 292.767 68.1721 292.999C67.2762 293.224 66.853 293.893 66.9588 293.957L66.9659 293.949Z" fill="#263238"/>
<path d="M65.9009 296.758C65.9714 296.864 66.5146 296.61 67.2129 296.667C67.9113 296.702 68.4192 297.026 68.5039 296.927C68.6026 296.85 68.1159 296.273 67.2412 296.216C66.3735 296.153 65.8091 296.674 65.9009 296.758Z" fill="#263238"/>
<path d="M67.2341 300.179C67.3328 300.116 66.9872 299.539 66.2465 299.3C65.5058 299.053 64.885 299.3 64.9273 299.412C64.9556 299.539 65.4987 299.511 66.1054 299.722C66.7191 299.919 67.1353 300.264 67.2341 300.179Z" fill="#263238"/>
<path d="M64.8567 291.648C64.9766 291.69 65.2588 291.134 65.7949 290.641C66.324 290.134 66.8883 289.888 66.8601 289.761C66.846 289.641 66.1123 289.719 65.4916 290.31C64.8637 290.901 64.7438 291.619 64.8637 291.648H64.8567Z" fill="#263238"/>
<path d="M62.8251 289.796C62.8603 289.831 63.2695 289.515 63.728 288.832C63.9538 288.487 64.1865 288.05 64.37 287.536C64.4617 287.276 64.5393 287.001 64.5957 286.706C64.6239 286.565 64.6662 286.403 64.6451 286.199C64.6451 286.002 64.4546 285.706 64.1865 285.685C63.9467 285.643 63.7139 285.755 63.5799 285.896C63.4388 286.03 63.3612 286.178 63.2907 286.305C63.1425 286.565 63.0226 286.832 62.9309 287.1C62.7545 287.628 62.684 288.121 62.6769 288.536C62.6699 289.374 62.8745 289.852 62.9238 289.838C62.9944 289.824 62.9027 289.332 62.9944 288.557C63.0367 288.17 63.1355 287.719 63.3189 287.241C63.4106 287.001 63.5305 286.762 63.6716 286.53C63.8127 286.276 63.9749 286.1 64.116 286.136C64.1654 286.15 64.1865 286.157 64.2007 286.255C64.2148 286.354 64.1865 286.488 64.1654 286.621C64.116 286.896 64.0525 287.156 63.9749 287.403C63.8268 287.895 63.6363 288.325 63.4529 288.67C63.0861 289.367 62.7686 289.754 62.8251 289.796Z" fill="#263238"/>
<path d="M63.0721 289.796C63.1144 289.775 62.9593 289.275 62.3808 288.663C62.0916 288.36 61.6965 288.05 61.2028 287.797C60.9559 287.677 60.6807 287.565 60.3845 287.487C60.0882 287.424 59.7002 287.318 59.3193 287.642C59.1288 287.825 59.1288 288.121 59.2064 288.297C59.2769 288.48 59.3757 288.599 59.4674 288.726C59.6579 288.973 59.8836 289.177 60.1164 289.339C60.582 289.662 61.0828 289.817 61.499 289.867C62.3526 289.958 62.8323 289.676 62.8111 289.634C62.797 289.557 62.3032 289.712 61.5484 289.55C61.1816 289.472 60.7442 289.303 60.3562 289.001C60.1587 288.853 59.9753 288.67 59.8131 288.459C59.6367 288.233 59.545 288.001 59.6367 287.945C59.7284 287.846 60.0317 287.832 60.2716 287.903C60.5397 287.966 60.7865 288.057 61.0193 288.156C61.4779 288.36 61.8658 288.628 62.1551 288.874C62.7476 289.381 63.0016 289.81 63.0651 289.775L63.0721 289.796Z" fill="#263238"/>
<path d="M57.1041 256.83L45.6128 245.496L68.8424 202.935C70.9728 200.5 73.6745 198.627 76.7079 197.48L83.9243 194.741L102.011 193.249L113.143 196.466C116.36 197.733 120.423 200.042 120.014 203.47L116.035 232.417L114.074 268.854L65.3929 256.893L76.1929 242.941L72.299 226.356L57.1112 256.837L57.1041 256.83Z" fill="#455A64"/>
<path d="M74.9653 250.973L100.071 240.949C102.329 240.041 103.084 237.563 103.267 235.141L105.313 208.391C105.313 208.391 105.073 197.015 112.191 196.459L116.24 198.05C121.474 200.824 122.772 208.433 122.059 214.304C121.044 222.653 120.627 234.458 119.492 241.702C118.568 247.629 114.998 252.318 109.355 254.366L77.7306 261.131L74.9653 250.966V250.973Z" fill="#455A64"/>
<path d="M75.9178 251.853H72.5317C72.5317 251.853 64.892 249.101 63.3189 249.361C61.901 249.6 56.7232 253.029 55.7074 253.712C55.5945 253.789 55.5099 253.895 55.4605 254.021C55.2559 254.577 55.524 255.204 56.0813 255.429L56.1871 255.471L56.1377 255.626C56.0813 255.816 56.046 256.035 56.0601 256.246C56.0954 256.971 57.0759 257.189 57.4498 256.57L57.2523 256.915C57.1747 257.055 57.1323 257.217 57.1464 257.379L57.1606 257.696C57.1817 258.048 57.4145 258.344 57.7461 258.456C58.0635 258.562 58.4092 258.47 58.6349 258.224C59.2909 257.506 60.7088 256.056 61.6682 255.901C62.5218 255.76 63.9467 255.739 64.8003 255.746C65.2377 255.746 65.6256 256.013 65.7879 256.422C65.2165 256.464 61.252 258.527 59.8412 259.266C59.4038 259.491 59.0793 259.906 59.0229 260.392C58.9735 260.829 59.1922 261.293 60.0669 261.089C61.9363 260.653 65.2941 259.111 65.2941 259.111C65.2941 259.111 67.0294 258.618 68.1511 259.407C69.7312 260.519 70.4507 260.927 71.8122 260.477C73.1666 260.026 74.1683 259.385 74.1683 259.385L76.8419 259.118C76.8419 259.118 79.3673 252.818 75.9178 251.853Z" fill="#916B5C"/>
<path d="M65.83 253.141C65.83 253.141 65.2868 253.001 64.398 252.944C63.5091 252.881 62.2535 252.987 60.9978 253.522C59.7422 254.057 58.7969 254.894 58.2255 255.577C57.6471 256.26 57.4002 256.767 57.379 256.746C57.372 256.746 57.4284 256.612 57.5483 256.394C57.6682 256.175 57.8658 255.866 58.1479 255.507C58.7052 254.803 59.6575 253.93 60.9414 253.388C62.2253 252.846 63.5091 252.754 64.405 252.839C64.8565 252.881 65.2163 252.951 65.4632 253.015C65.7101 253.078 65.837 253.127 65.837 253.134L65.83 253.141Z" fill="#6D5046"/>
<path d="M65.019 251.29C65.019 251.29 64.4688 251.058 63.5235 251.03C62.5924 250.987 61.2803 251.269 60.0458 252.008C58.8184 252.754 57.9013 253.698 57.2453 254.373C56.9349 254.704 56.6809 254.979 56.4763 255.19C56.2929 255.38 56.1942 255.486 56.1801 255.479C56.173 255.479 56.2647 255.359 56.434 255.155C56.6033 254.951 56.8502 254.662 57.1677 254.31C57.8025 253.613 58.7196 252.649 59.9682 251.895C61.2168 251.142 62.5712 250.868 63.5235 250.938C64.0032 250.966 64.3841 251.051 64.631 251.142C64.758 251.177 64.8497 251.227 64.9203 251.255C64.9837 251.283 65.019 251.297 65.012 251.304L65.019 251.29Z" fill="#6D5046"/>
<path d="M107.316 212.474C107.316 212.474 107.274 212.685 107.232 213.086C107.189 213.523 107.133 214.107 107.062 214.846C106.928 216.416 106.738 218.619 106.512 221.337C106.293 224.089 106.025 227.348 105.736 230.96C105.666 231.868 105.595 232.797 105.517 233.74C105.44 234.691 105.383 235.662 105.186 236.605C104.995 237.549 104.565 238.436 103.888 239.112C103.211 239.787 102.357 240.287 101.475 240.717C94.266 244.046 87.6209 246.792 82.7958 248.721C80.4044 249.664 78.4504 250.431 77.0678 250.973C76.4117 251.234 75.8968 251.438 75.5088 251.586C75.1561 251.726 74.9727 251.811 74.9727 251.825C74.9727 251.839 75.1702 251.783 75.5299 251.656C75.9179 251.522 76.447 251.339 77.1101 251.107C78.4786 250.621 80.4538 249.896 82.8805 248.967C87.7338 247.101 94.393 244.391 101.624 241.054C102.519 240.618 103.408 240.104 104.128 239.379C104.861 238.661 105.327 237.675 105.525 236.683C105.736 235.69 105.786 234.712 105.856 233.769C105.927 232.818 105.997 231.889 106.061 230.981C106.322 227.363 106.562 224.103 106.759 221.344C106.942 218.627 107.098 216.416 107.203 214.846C107.246 214.107 107.281 213.516 107.309 213.079C107.33 212.678 107.33 212.46 107.323 212.46L107.316 212.474Z" fill="#263238"/>
<path d="M111.38 245.736C111.415 245.729 111.302 245.13 110.872 244.25C110.448 243.37 109.665 242.237 108.523 241.259C107.38 240.287 106.131 239.689 105.2 239.414C104.262 239.133 103.655 239.104 103.648 239.147C103.634 239.21 104.227 239.323 105.115 239.668C106.004 240.006 107.182 240.611 108.283 241.547C109.383 242.491 110.166 243.553 110.639 244.377C111.112 245.201 111.323 245.764 111.38 245.743V245.736Z" fill="#263238"/>
<g opacity="0.3">
<path d="M81.7585 248.622C84.7495 246.939 87.677 245.644 90.802 244.222C93.9271 242.807 96.9886 240.984 99.0343 238.232C102.893 233.043 102.456 225.553 106.406 220.429C106.145 223.871 105.891 227.32 105.63 230.763C105.39 233.916 105.877 237.042 103.838 239.189C102.124 240.998 98.7733 242.385 96.4031 243.159C91.6415 244.729 86.5131 247.052 81.7515 248.622" fill="black"/>
</g>
<path d="M25.9103 247.228C25.9103 247.228 19.8083 249.403 19.7872 256.232C19.7378 269.311 46.2617 283.721 46.2617 283.721L81.5611 260.378L83.7761 259.484C83.7761 259.484 36.1248 241.618 25.9103 247.228Z" fill="#263238"/>
<path d="M63.6789 272.169C63.6789 272.169 63.3403 271.965 62.7618 271.55C62.1834 271.134 61.358 270.508 60.3493 269.733C58.3247 268.178 55.5806 265.967 52.6178 263.433C49.6621 260.899 47.052 258.519 45.2038 256.76C44.2797 255.88 43.539 255.162 43.0382 254.655C42.5373 254.148 42.2622 253.859 42.2834 253.845C42.2975 253.824 42.6008 254.085 43.1369 254.556C43.7154 255.077 44.4702 255.76 45.3802 256.577C47.2707 258.287 49.9019 260.631 52.8577 263.166C55.8134 265.693 58.5293 267.931 60.5115 269.543C61.4638 270.318 62.2539 270.958 62.8535 271.451C63.4037 271.902 63.7 272.162 63.6859 272.183L63.6789 272.169Z" fill="#455A64"/>
<path d="M35.878 252.121C35.8639 252.036 37.437 251.881 39.2782 252.43C41.1264 252.965 42.3609 253.951 42.3044 254.014C42.248 254.106 40.9571 253.289 39.1794 252.775C37.4017 252.24 35.878 252.233 35.878 252.121Z" fill="#455A64"/>
<path d="M38.9185 250.058C38.9467 249.974 40.0824 250.466 41.0136 251.628C41.9518 252.782 42.1987 253.986 42.114 254C42.0082 254.035 41.6273 252.937 40.7385 251.853C39.8637 250.755 38.8691 250.15 38.9255 250.058H38.9185Z" fill="#455A64"/>
<path d="M28.4357 228.658L38.481 255.654C39.0523 257.196 40.5408 258.21 42.1844 258.189L97.4614 257.464V253.275L76.9477 254.021L68.2357 227.074C67.9394 226.166 67.0929 225.546 66.1336 225.546L30.4744 225.652C28.9225 225.652 27.8643 227.215 28.4287 228.658H28.4357Z" fill="#E0E0E0"/>
<path d="M28.4355 228.658C28.4355 228.658 28.4355 228.63 28.4144 228.573C28.4003 228.517 28.365 228.44 28.3438 228.32C28.2944 228.095 28.2521 227.743 28.365 227.306C28.4779 226.877 28.7671 226.349 29.3385 226.004C29.6206 225.828 29.9592 225.708 30.3402 225.687C30.7211 225.673 31.1302 225.687 31.5676 225.68C35.0524 225.68 40.1103 225.673 46.445 225.666C49.6123 225.666 53.1042 225.652 56.8711 225.645C58.7546 225.645 60.7086 225.638 62.7262 225.631C63.7349 225.631 64.7648 225.631 65.8018 225.631C66.3238 225.603 66.8317 225.673 67.2761 225.955C67.7065 226.229 68.0451 226.652 68.1932 227.158C70.8244 235.31 73.7519 244.37 76.877 254.056L76.8981 254.12H76.9616C83.5009 253.88 90.3929 253.627 97.4753 253.374L97.3836 253.282V257.471L97.4683 257.379C85.1022 257.541 73.3639 257.703 62.705 257.844C57.379 257.914 52.3212 257.985 47.5948 258.048C46.4097 258.062 45.2528 258.083 44.11 258.097C43.5386 258.104 42.9743 258.111 42.417 258.118C41.8597 258.139 41.3166 258.076 40.8087 257.886C39.7999 257.513 38.9746 256.717 38.5936 255.76C38.2268 254.782 37.867 253.817 37.5143 252.881C34.7138 245.384 32.4494 239.33 30.8833 235.141C30.1003 233.058 29.4937 231.438 29.0775 230.333C28.6613 229.235 28.4355 228.665 28.4355 228.665C28.4355 228.665 28.6401 229.249 29.0422 230.347C29.4513 231.46 30.0509 233.079 30.8199 235.169C32.3718 239.365 34.615 245.426 37.3944 252.93C37.7471 253.866 38.0998 254.831 38.4666 255.816C38.8617 256.809 39.7082 257.64 40.7522 258.02C41.2742 258.217 41.8456 258.287 42.41 258.266C42.9672 258.266 43.5316 258.252 44.103 258.245C45.2458 258.231 46.4027 258.217 47.5878 258.203C52.3141 258.146 57.372 258.083 62.6979 258.013C73.3569 257.872 85.0951 257.724 97.4612 257.562H97.5459V257.471C97.5459 256.38 97.5459 255.204 97.5459 254.028V253.191H97.4541C90.3717 253.451 83.4797 253.704 76.9404 253.944L77.0251 254.007C73.893 244.321 70.9585 235.261 68.3202 227.116C68.165 226.588 67.8052 226.124 67.3396 225.835C66.8811 225.532 66.3027 225.462 65.7877 225.49C64.7437 225.49 63.7208 225.497 62.7121 225.504C60.6945 225.511 58.7405 225.518 56.857 225.525C53.0901 225.539 49.6053 225.553 46.4309 225.567C40.0962 225.596 35.0383 225.617 31.5535 225.638C31.1161 225.638 30.707 225.638 30.3261 225.652C29.9381 225.68 29.5854 225.807 29.3032 225.983C28.7248 226.342 28.4426 226.884 28.3297 227.32C28.2239 227.764 28.2662 228.123 28.3227 228.348C28.3791 228.573 28.4285 228.679 28.4285 228.679L28.4355 228.658Z" fill="#263238"/>
<path d="M52.9491 238.865C52.2296 238.379 50.9105 238.577 50.2615 239.154C49.6195 239.731 49.4079 240.731 49.7324 241.526C50.0569 242.329 50.8893 242.885 51.7499 242.934C52.667 242.983 53.6263 242.406 53.8874 241.526C54.1413 240.646 53.8591 239.33 52.9491 238.865Z" fill="white"/>
<path d="M40.3076 285.192C40.3076 285.192 90.1246 253.345 92.3255 252.1C94.1949 251.037 99.2034 247.96 104.134 249.319C109.072 250.678 113.495 255.091 115.71 261.547C116.973 265.235 117.573 271.522 117.855 276.245C118.186 281.884 117.453 286.579 113.756 290.859C112.077 292.809 109.996 294.499 107.534 295.266C107.012 295.428 106.476 295.569 105.926 295.688C96.4946 297.73 85.7933 294.435 80.4956 286.389L79.3316 284.622C79.3316 284.622 46.7058 296.582 46.1979 296.413L40.3147 285.199L40.3076 285.192Z" fill="#263238"/>
<path d="M102.011 276.21C102.011 276.21 101.919 276.259 101.736 276.33C101.538 276.407 101.27 276.513 100.918 276.653C100.184 276.935 99.1189 277.343 97.7574 277.871C94.9851 278.913 90.9783 280.42 86.005 282.292C81.0106 284.15 75.0357 286.361 68.3271 288.797C61.6186 291.232 54.1834 293.9 46.2403 296.582L46.0992 296.632L46.0287 296.498C44.7801 294.125 43.468 291.612 42.1348 289.071C41.4576 287.776 40.7803 286.488 40.1455 285.284L40.0679 285.136L40.209 285.052C55.1851 275.562 68.5811 267.08 78.2524 260.948C83.0775 257.907 86.9785 255.457 89.6803 253.754C91.0206 252.923 92.0646 252.268 92.7842 251.818C93.1298 251.607 93.3979 251.445 93.5954 251.325C93.7788 251.213 93.8776 251.17 93.8776 251.17C93.8776 251.17 93.7929 251.241 93.6166 251.36C93.4261 251.487 93.1651 251.663 92.8265 251.881C92.114 252.346 91.0841 253.015 89.7579 253.866C87.0702 255.591 83.1904 258.076 78.3935 261.152C68.7433 267.305 55.3615 275.823 40.4135 285.347L40.477 285.115C41.1048 286.319 41.7821 287.607 42.4663 288.902C43.7996 291.443 45.1116 293.957 46.3602 296.329L46.1486 296.244C54.0846 293.569 61.5198 290.908 68.2354 288.494C74.937 286.058 80.926 283.883 85.9416 282.067C90.9289 280.237 94.9498 278.772 97.7292 277.752C99.1047 277.252 100.17 276.865 100.911 276.597C101.263 276.47 101.538 276.372 101.736 276.301C101.919 276.238 102.018 276.21 102.018 276.21H102.011Z" fill="#455A64"/>
<path d="M75.1062 162.683C75.1062 162.683 72.1152 175.502 72.1152 184.506V187.505C72.1152 187.505 79.8326 193.488 86.1532 193.664L91.0135 180.529L75.1062 162.683Z" fill="#263238"/>
<path d="M108.741 169.392C107.104 163.24 106.314 156.045 101.017 152.173C97.0874 149.301 92.6926 148.604 87.8322 148.963C85.4409 149.139 82.7673 150.329 80.7216 151.582C77.914 153.293 76.8065 156.608 75.5226 159.635C72.9478 165.689 73.5615 173.757 75.5085 175.946L100.925 188.3C105.828 185.548 108.924 184.414 109.503 177.748C109.75 174.946 109.461 172.116 108.741 169.399V169.392Z" fill="#263238"/>
<path d="M100.636 157.115L84.7636 152.997C79.6775 152.427 76.2491 158.657 75.8894 163.76C75.4943 169.427 75.2333 176.354 75.8753 180.585C77.1732 189.096 83.6914 190.222 83.6914 190.222C83.6914 190.194 83.7125 190.349 83.7407 192.876L83.7055 196.973C83.6914 198.627 84.1851 200.282 85.2433 201.556C87.6629 204.477 91.9025 204.745 96.8263 202.738C99.6833 201.577 101.616 199.366 101.743 196.438L103.295 160.163C103.337 158.615 102.181 157.284 100.636 157.115Z" fill="#916B5C"/>
<path d="M77.9563 171.997C77.9351 172.574 78.4007 173.067 79.0003 173.102C79.5999 173.137 80.1078 172.701 80.136 172.123C80.1572 171.546 79.6916 171.053 79.092 171.018C78.4924 170.983 77.9845 171.419 77.9563 171.997Z" fill="#263238"/>
<path d="M77.3707 168.836C77.5047 168.977 78.3371 168.371 79.5151 168.385C80.6932 168.385 81.5468 168.991 81.6737 168.843C81.7372 168.78 81.6032 168.519 81.2293 168.245C80.8625 167.97 80.2347 167.703 79.501 167.703C78.7674 167.703 78.1537 167.97 77.7939 168.238C77.4271 168.512 77.3072 168.766 77.3707 168.829V168.836Z" fill="#263238"/>
<path d="M88.3049 171.997C88.2837 172.574 88.7493 173.067 89.3489 173.102C89.9485 173.137 90.4564 172.701 90.4847 172.123C90.5058 171.546 90.0402 171.053 89.4406 171.018C88.841 170.983 88.3331 171.419 88.3049 171.997Z" fill="#263238"/>
<path d="M88.9253 168.597C89.0594 168.737 89.8918 168.132 91.0698 168.146C92.2408 168.146 93.1015 168.751 93.2284 168.604C93.2919 168.54 93.1579 168.28 92.784 168.005C92.4172 167.731 91.7894 167.463 91.0557 167.463C90.3221 167.463 89.7084 167.731 89.3486 167.998C88.9888 168.273 88.8619 168.526 88.9253 168.59V168.597Z" fill="#263238"/>
<path d="M84.6012 176.347C84.6012 176.284 83.8746 176.15 82.6965 175.988C82.3932 175.953 82.111 175.897 82.0616 175.692C81.9911 175.474 82.1181 175.15 82.2662 174.805C82.5554 174.08 82.8517 173.327 83.1692 172.532C84.4248 169.294 85.3348 166.626 85.2008 166.576C85.0667 166.527 83.9451 169.11 82.6895 172.356C82.3861 173.151 82.0969 173.918 81.8218 174.644C81.7089 174.981 81.5044 175.369 81.6595 175.819C81.7371 176.044 81.9558 176.206 82.1533 176.263C82.3438 176.319 82.5131 176.326 82.6612 176.34C83.8534 176.41 84.5941 176.425 84.5941 176.354L84.6012 176.347Z" fill="#263238"/>
<path d="M83.6911 190.222C83.6911 190.222 89.4192 190.63 95.119 187.265C95.119 187.265 92.255 193.193 83.7335 192.341L83.6841 190.222H83.6911Z" fill="#6D5046"/>
<path d="M88.4671 178.558C88.1356 178.008 87.5289 177.72 86.9011 177.692C85.9981 177.656 85.2433 177.959 84.6578 178.783C84.4533 179.022 84.4674 179.698 84.552 179.881C84.6296 180.071 84.5732 179.98 84.7143 180.106C85.2363 180.571 85.7865 181.043 86.4637 181.204C87.1409 181.373 87.9733 181.155 88.4177 180.5C88.8128 179.916 88.8057 179.1 88.4742 178.551L88.4671 178.558Z" fill="#6D5046"/>
<path d="M88.2625 177.22C88.072 177.206 88.0509 178.48 86.9504 179.367C85.85 180.261 84.4885 180.099 84.4814 180.275C84.4603 180.353 84.7848 180.529 85.3562 180.55C85.9205 180.578 86.7458 180.409 87.416 179.86C88.0862 179.311 88.3824 178.579 88.4318 178.058C88.4882 177.523 88.3472 177.206 88.2625 177.213V177.22Z" fill="#263238"/>
<path d="M88.3403 164.324C88.432 164.647 89.6171 164.577 90.9857 164.83C92.3542 165.056 93.4405 165.527 93.6451 165.26C93.7368 165.126 93.5605 164.816 93.1302 164.478C92.7069 164.141 92.0156 163.803 91.1973 163.662C90.379 163.521 89.6101 163.599 89.0951 163.775C88.5802 163.943 88.3051 164.176 88.3474 164.331L88.3403 164.324Z" fill="#263238"/>
<path d="M77.3636 165.675C77.6388 165.9 78.4782 165.464 79.5505 165.267C80.6156 165.028 81.5609 165.091 81.7232 164.781C81.7937 164.633 81.6032 164.394 81.1588 164.218C80.7215 164.042 80.0372 163.951 79.3036 164.105C78.5699 164.26 77.9774 164.605 77.6529 164.943C77.3213 165.281 77.2437 165.57 77.3707 165.682L77.3636 165.675Z" fill="#263238"/>
<path d="M84.9542 152.075C84.9401 152.138 84.9331 152.202 84.9189 152.258L84.9472 152.272C84.9472 152.209 84.9472 152.138 84.9472 152.075H84.9542Z" fill="#263238"/>
<path d="M97.299 193.214C97.4683 190.982 96.4948 188.772 96.6853 186.54C96.8828 184.175 98.3501 182.105 98.9003 179.789C99.7891 176.087 98.2795 172.236 97.6517 168.463C95.5143 168.273 93.4827 167.055 92.0154 165.457C90.2448 163.528 89.1302 161.1 88.0509 158.713C88.1849 161.078 89.0879 163.394 90.5834 165.239C89.6452 165.464 88.6364 165.098 87.9028 164.464C87.1691 163.838 86.6753 162.972 86.2662 162.106C85.2715 159.994 84.6931 157.692 84.5379 155.362C84.3333 158.706 84.813 162.099 85.977 165.246C85.3773 165.084 84.7425 165.267 84.1288 165.38C83.515 165.492 82.8096 165.492 82.3581 165.063C82.0548 164.774 81.9349 164.352 81.8361 163.943C81.1589 161.128 80.9614 158.192 81.2718 155.313C80.5664 156.89 79.8609 158.481 79.473 160.163C79.085 161.846 79.0285 163.648 79.607 165.274C79.3742 165.591 78.8522 165.563 78.5489 165.302C78.2526 165.042 78.1256 164.64 78.048 164.253C77.7799 162.831 77.9845 161.374 78.1891 159.945C77.3849 161.48 77.1592 163.233 76.743 164.915C76.3268 166.59 75.6355 168.322 74.2176 169.315C73.886 166.837 73.9213 165.133 74.2176 162.789C74.4433 161.001 75.2334 159.206 75.96 157.552C76.7782 155.7 77.9351 153.877 79.2543 152.645C81.688 150.371 82.7673 151.279 84.3968 152.068L84.5873 152.138C84.5873 152.096 84.5873 152.061 84.5943 152.019L84.6578 151.674C88.7916 150.604 93.2217 150.667 97.3272 151.857C100.375 152.744 104.191 155.714 105.821 158.439C105.849 158.488 105.884 158.544 105.912 158.593C109.679 164.887 112.586 173.94 110.363 188.73L97.299 193.221V193.214Z" fill="#263238"/>
<path d="M73.7728 210.376C72.4255 214.403 71.0569 218.493 70.8453 222.731C70.6266 226.968 71.6989 231.46 74.6405 234.522" fill="#455A64"/>
<path d="M74.6405 234.522C74.6405 234.522 74.5629 234.473 74.443 234.353C74.3231 234.233 74.1326 234.064 73.928 233.811C73.4977 233.325 72.9404 232.558 72.3973 231.53C71.2968 229.481 70.4644 226.264 70.6619 222.717C70.8595 219.169 71.7906 216.071 72.496 213.882C72.8558 212.784 73.1662 211.904 73.3919 211.298C73.6177 210.693 73.7517 210.362 73.7799 210.369C73.8011 210.376 73.7164 210.721 73.533 211.341C73.3284 212.023 73.0674 212.903 72.75 213.952C72.1151 216.156 71.2333 219.239 71.0358 222.731C70.8453 226.222 71.6143 229.376 72.6371 231.41C73.6459 233.473 74.7181 234.465 74.6546 234.515L74.6405 234.522Z" fill="#263238"/>
<path d="M122.214 212.474C122.214 212.474 122.228 212.636 122.221 212.939C122.207 213.277 122.193 213.72 122.172 214.262C122.116 215.409 122.01 217.071 121.855 219.119C121.551 223.223 120.98 228.869 120.444 235.12C120.232 238.253 119.731 241.23 119.061 243.87C118.715 245.187 118.342 246.447 117.756 247.538C117.163 248.615 116.423 249.502 115.64 250.199C114.067 251.586 112.451 252.205 111.351 252.522C110.794 252.684 110.349 252.768 110.053 252.81C109.749 252.853 109.594 252.874 109.594 252.86C109.587 252.825 110.222 252.733 111.316 252.388C112.395 252.029 113.968 251.389 115.478 250.009C116.225 249.319 116.938 248.453 117.495 247.397C118.045 246.341 118.405 245.102 118.737 243.793C119.386 241.167 119.865 238.218 120.084 235.092C120.613 228.841 121.227 223.195 121.601 219.098C121.784 217.085 121.932 215.438 122.038 214.248C122.087 213.706 122.13 213.269 122.158 212.932C122.186 212.629 122.214 212.474 122.221 212.474H122.214Z" fill="#263238"/>
</g>
<defs>
<clipPath id="clip0_6450_26904">
<rect width="311" height="309" fill="white"/>
</clipPath>
</defs>
</svg>
