<svg width="318" height="310" viewBox="0 0 318 310" fill="none" xmlns="http://www.w3.org/2000/svg">
<path d="M265.025 240.681C280.681 249.712 280.674 264.355 265.025 273.392C249.369 282.423 223.992 282.423 208.343 273.392C192.694 264.362 192.694 249.718 208.343 240.681C223.999 231.65 249.376 231.65 265.025 240.681Z" fill="#E6E6E6"/>
<path d="M56.5887 275.56L40.9129 266.516C39.0167 265.426 39.0167 263.65 40.9129 262.553L137.077 207.059C138.973 205.968 142.047 205.968 143.943 207.059L159.619 216.103C161.515 217.194 161.515 218.969 159.619 220.066L63.4552 275.56C61.5589 276.651 58.485 276.651 56.5887 275.56Z" fill="#E6E6E6"/>
<path d="M80.974 286.971L79.284 285.987C77.3878 284.89 77.3878 283.121 79.284 282.024L166.585 231.657C168.482 230.567 171.556 230.567 173.452 231.657L175.142 232.641C177.038 233.732 177.038 235.507 175.142 236.605L87.8405 286.971C85.9442 288.062 82.8703 288.062 80.974 286.971Z" fill="#E6E6E6"/>
<path d="M40.7729 35.1981L63.7011 25.2299L46.8277 39.8664L40.7729 35.1981Z" fill="#257367"/>
<path opacity="0.3" d="M40.7729 35.1981L63.7011 25.2299L46.8277 39.8664L40.7729 35.1981Z" fill="white"/>
<path d="M63.7013 25.2299L38.6041 32.2389L32.5493 27.5706L63.7013 25.2299Z" fill="#257367"/>
<path opacity="0.3" d="M63.7013 25.2299L38.6041 32.2389L32.5493 27.5706L63.7013 25.2299Z" fill="white"/>
<path d="M38.604 32.2389L39.296 38.5563L40.7731 35.1981L63.7012 25.2299L38.604 32.2389Z" fill="#257367"/>
<path opacity="0.2" d="M38.604 32.2389L39.296 38.5563L40.7731 35.1981L63.7012 25.2299L38.604 32.2389Z" fill="black"/>
<path d="M39.2959 38.5563L42.789 36.7542L40.773 35.1981L39.2959 38.5563Z" fill="#257367"/>
<path opacity="0.2" d="M40.7729 35.1981L42.789 36.7542L42.2301 37.0402L40.7729 35.1981Z" fill="black"/>
<path d="M33.8735 39.8065C33.7604 39.7932 33.6539 39.7334 33.5808 39.6336C33.441 39.4474 33.4876 39.1814 33.6739 39.0418C34.153 38.6893 34.6387 38.3701 35.1044 38.0775C35.304 37.9578 35.5635 38.0177 35.6899 38.2172C35.8097 38.4167 35.7498 38.676 35.5502 38.8024C35.1044 39.0817 34.6387 39.3942 34.1729 39.7267C34.0798 39.7932 33.9733 39.8198 33.8735 39.8065Z" fill="#E0E0E0"/>
<path d="M59.2833 91.7292C58.4516 91.6228 57.6398 91.5098 56.8347 91.3834C56.6019 91.3435 56.4488 91.1307 56.4821 90.898C56.522 90.6652 56.715 90.5256 56.9678 90.5455C58.039 90.7118 59.1302 90.8647 60.248 90.9911C60.4809 91.0177 60.6406 91.2305 60.614 91.4566C60.5874 91.6893 60.3811 91.8556 60.1482 91.829C59.8555 91.7957 59.5627 91.7625 59.2766 91.7226L59.2833 91.7292ZM62.9094 92.0883C62.6899 92.0617 62.5235 91.8622 62.5435 91.6361C62.5635 91.4034 62.7631 91.2305 62.9959 91.2504C64.0738 91.3302 65.1916 91.3967 66.3028 91.4366C66.5356 91.4566 66.7153 91.6428 66.7086 91.8755C66.702 92.1083 66.5024 92.2878 66.2695 92.2812C65.145 92.2413 64.0206 92.1748 62.9294 92.095C62.9228 92.095 62.9161 92.095 62.9094 92.095V92.0883ZM54.1201 90.898C54.1201 90.898 54.1001 90.898 54.0868 90.898C52.989 90.6785 51.8912 90.4325 50.8199 90.1598C50.5937 90.1 50.454 89.8739 50.5139 89.6478C50.5738 89.4217 50.8 89.2887 51.0262 89.3419C52.0841 89.6079 53.1686 89.8539 54.2532 90.0734C54.486 90.1199 54.6324 90.3394 54.5858 90.5721C54.5393 90.7916 54.3397 90.9379 54.1201 90.9113V90.898ZM69.0108 92.3344C68.8045 92.3078 68.6382 92.1282 68.6382 91.9154C68.6382 91.6827 68.8311 91.4965 69.064 91.4965C70.1485 91.4965 71.2663 91.4898 72.3775 91.4566C72.6037 91.4433 72.8033 91.6295 72.8099 91.8689C72.8166 92.1016 72.6303 92.2945 72.3974 92.3011C71.273 92.3344 70.1485 92.3477 69.0507 92.341C69.0307 92.341 69.0174 92.341 68.9974 92.341L69.0108 92.3344ZM48.1984 89.415C48.1984 89.415 48.1519 89.4084 48.1252 89.4017C47.0407 89.0692 45.9695 88.7101 44.9448 88.3377C44.7253 88.2579 44.6122 88.0119 44.692 87.7924C44.7719 87.573 45.018 87.4666 45.2376 87.5397C46.2489 87.9121 47.3002 88.2646 48.3714 88.5904C48.5976 88.6569 48.7241 88.8963 48.6509 89.1158C48.591 89.3153 48.398 89.435 48.1918 89.415H48.1984ZM42.4631 87.327C42.4231 87.327 42.3832 87.3137 42.35 87.2937C41.312 86.8482 40.2874 86.3694 39.3093 85.864C39.103 85.7576 39.0165 85.5049 39.123 85.2921C39.2294 85.0859 39.4823 84.9995 39.6952 85.1059C40.66 85.598 41.6646 86.0701 42.6826 86.509C42.8956 86.6021 42.9954 86.8482 42.9022 87.0676C42.829 87.2471 42.6427 87.3403 42.4631 87.3203V87.327ZM37.0205 84.5739C36.9672 84.5672 36.9074 84.5473 36.8541 84.5207C35.876 83.9421 34.9246 83.3303 34.0264 82.6986C33.8334 82.5656 33.7868 82.2996 33.9266 82.1068C34.0596 81.9139 34.3258 81.874 34.5187 82.007C35.397 82.6254 36.3351 83.2239 37.2866 83.7892C37.4862 83.9089 37.5527 84.1682 37.433 84.3677C37.3465 84.5207 37.1801 84.5938 37.0138 84.5739H37.0205ZM32.0037 81.1026C31.9305 81.096 31.8506 81.0627 31.7908 81.0095C30.9058 80.2913 30.0608 79.5399 29.2757 78.7685C29.1094 78.6022 29.1094 78.3362 29.2757 78.17C29.4421 78.0037 29.7082 77.9971 29.8745 78.17C30.6397 78.9214 31.4647 79.6596 32.3297 80.3578C32.5094 80.5041 32.536 80.7701 32.3896 80.9497C32.2964 81.0694 32.1501 81.1226 32.0103 81.1026H32.0037ZM27.6256 76.8666C27.5258 76.8533 27.426 76.8068 27.3595 76.7203C26.6143 75.8558 25.9223 74.9581 25.2969 74.047C25.1638 73.8542 25.2171 73.5882 25.41 73.4618C25.603 73.3288 25.8624 73.3754 25.9955 73.5749C26.601 74.4593 27.273 75.3305 27.9982 76.1684C28.1513 76.3479 28.1313 76.6139 27.9517 76.7669C27.8585 76.8467 27.7388 76.8799 27.6256 76.8666ZM24.1392 71.8659C24.0061 71.8526 23.8863 71.7728 23.8198 71.6464C23.2742 70.6356 22.7952 69.5982 22.4159 68.5675C22.3361 68.348 22.4492 68.1086 22.6621 68.0222C22.8817 67.9424 23.1212 68.0554 23.2077 68.2682C23.5803 69.2657 24.0327 70.2632 24.565 71.2408C24.6781 71.4469 24.5983 71.6996 24.392 71.8127C24.3122 71.8592 24.2257 71.8725 24.1392 71.8592V71.8659ZM21.9635 66.1868C21.7905 66.1669 21.6441 66.0405 21.6042 65.861C21.4112 65.0164 21.2848 64.1719 21.2116 63.3473C21.185 63.0613 21.165 62.7754 21.1584 62.4961C21.1451 62.2634 21.3314 62.0639 21.5643 62.0572C21.7905 62.0439 21.9967 62.2301 22.0034 62.4628C22.0167 62.7355 22.03 63.0081 22.0566 63.2808C22.1232 64.0655 22.2496 64.8768 22.4292 65.6814C22.4824 65.9075 22.3361 66.1336 22.1098 66.1868C22.0633 66.2001 22.01 66.2001 21.9635 66.1935V66.1868ZM21.5909 60.1154C21.3646 60.0888 21.1983 59.8827 21.2183 59.6566C21.2449 59.3906 21.2715 59.1179 21.3048 58.8519C21.4112 58.014 21.5643 57.1562 21.7705 56.3117C21.8237 56.0856 22.0633 55.9459 22.2828 55.9991C22.5091 56.0523 22.6488 56.2784 22.5956 56.5112C22.4026 57.3291 22.2496 58.147 22.1498 58.9583C22.1165 59.2177 22.0899 59.4704 22.0699 59.7297C22.05 59.9625 21.8437 60.1354 21.6108 60.1154C21.6108 60.1154 21.6042 60.1154 21.5975 60.1154H21.5909ZM22.9282 54.1837C22.9282 54.1837 22.8684 54.1704 22.8351 54.1637C22.6155 54.0839 22.5024 53.8445 22.5822 53.6251C22.9615 52.5877 23.4139 51.5503 23.9329 50.5262C24.0394 50.3201 24.2922 50.2336 24.4985 50.34C24.7047 50.4464 24.7912 50.6991 24.6848 50.9053C24.1791 51.8961 23.74 52.9069 23.3807 53.911C23.3141 54.0972 23.1212 54.2103 22.9282 54.1837ZM25.6229 48.7174C25.563 48.7108 25.5032 48.6908 25.4499 48.6576C25.2503 48.5312 25.1904 48.2719 25.3169 48.0724C25.909 47.1347 26.5611 46.2104 27.2597 45.3193C27.4061 45.1331 27.6722 45.0999 27.8519 45.2462C28.0382 45.3925 28.0714 45.6585 27.9251 45.838C27.2464 46.7092 26.6076 47.6135 26.0354 48.5246C25.9423 48.6709 25.7826 48.7374 25.6229 48.7174ZM29.3423 43.8829C29.2558 43.8696 29.1759 43.8364 29.1094 43.7765C28.9364 43.6169 28.9231 43.3509 29.0828 43.178C29.8479 42.3468 30.6597 41.5488 31.4847 40.8107C31.6577 40.6577 31.9238 40.671 32.0835 40.8439C32.2366 41.0168 32.2232 41.2828 32.0503 41.4424C31.2452 42.1606 30.4534 42.932 29.7082 43.7433C29.6151 43.8497 29.4753 43.8962 29.3423 43.8763V43.8829Z" fill="#E0E0E0"/>
<path d="M75.1584 92.1614C74.9588 92.1348 74.7992 91.9752 74.7859 91.7691C74.7725 91.5363 74.9522 91.3368 75.1851 91.3235C75.744 91.2903 76.3029 91.2504 76.8684 91.2105C77.1013 91.1905 77.3075 91.3701 77.3209 91.6028C77.3408 91.8356 77.1612 92.0417 76.9283 92.055C76.3561 92.0949 75.7905 92.1348 75.2316 92.1681C75.205 92.1681 75.1784 92.1681 75.1518 92.1681L75.1584 92.1614Z" fill="#E0E0E0"/>
<path d="M273.648 200.768L296.775 189.257L306.21 193.427L273.648 200.768Z" fill="#257367"/>
<path opacity="0.3" d="M273.648 200.768L296.775 189.257L306.21 193.427L273.648 200.768Z" fill="white"/>
<path d="M273.648 200.768L293.954 187.156L290.222 181.789L273.648 200.768Z" fill="#257367"/>
<path opacity="0.3" d="M273.648 200.768L293.954 187.156L290.222 181.789L273.648 200.768Z" fill="white"/>
<path d="M293.954 187.156L293.562 190.866L273.648 200.768L293.954 187.156Z" fill="#257367"/>
<path opacity="0.2" d="M293.954 187.156L293.562 190.866L273.648 200.768L293.954 187.156Z" fill="black"/>
<path d="M298.02 185.799C297.913 185.799 297.807 185.759 297.727 185.679C297.56 185.52 297.554 185.247 297.714 185.081C298.465 184.296 299.157 183.425 299.763 182.494C299.889 182.301 300.149 182.241 300.348 182.368C300.548 182.494 300.601 182.753 300.475 182.953C299.843 183.931 299.117 184.842 298.332 185.666C298.252 185.753 298.139 185.799 298.026 185.799H298.02ZM301.473 180.679C301.413 180.679 301.353 180.665 301.3 180.639C301.087 180.539 300.994 180.293 301.094 180.08C301.546 179.089 301.925 178.045 302.211 176.968C302.271 176.742 302.504 176.609 302.73 176.669C302.957 176.729 303.09 176.961 303.03 177.187C302.73 178.311 302.338 179.402 301.865 180.433C301.792 180.586 301.639 180.679 301.479 180.679H301.473ZM303.169 174.734C303.169 174.734 303.13 174.734 303.116 174.734C302.883 174.7 302.724 174.488 302.75 174.262C302.877 173.324 302.937 172.366 302.937 171.402C302.937 171.249 302.937 171.096 302.937 170.95C302.937 170.717 303.116 170.524 303.349 170.518H303.356C303.589 170.518 303.775 170.704 303.782 170.93C303.782 171.09 303.782 171.242 303.782 171.402C303.782 172.4 303.715 173.397 303.589 174.368C303.562 174.581 303.376 174.734 303.169 174.734ZM303.123 168.556C302.917 168.556 302.737 168.403 302.704 168.19C302.544 167.106 302.304 166.016 301.992 164.952C301.925 164.726 302.052 164.493 302.278 164.426C302.504 164.36 302.737 164.486 302.803 164.712C303.13 165.816 303.376 166.947 303.542 168.07C303.575 168.303 303.416 168.516 303.183 168.549C303.163 168.549 303.143 168.549 303.123 168.549V168.556ZM301.439 162.604C301.273 162.604 301.12 162.511 301.054 162.351C300.621 161.341 300.109 160.35 299.537 159.399C299.417 159.199 299.477 158.94 299.683 158.82C299.889 158.701 300.142 158.761 300.262 158.967C300.854 159.951 301.386 160.982 301.832 162.026C301.925 162.238 301.825 162.491 301.612 162.578C301.559 162.604 301.499 162.611 301.446 162.611L301.439 162.604ZM298.299 157.271C298.173 157.271 298.046 157.211 297.966 157.105C297.301 156.24 296.562 155.396 295.777 154.604C295.611 154.438 295.611 154.172 295.777 154.006C295.944 153.84 296.21 153.84 296.376 154.006C297.188 154.824 297.953 155.695 298.638 156.593C298.778 156.779 298.745 157.045 298.559 157.184C298.485 157.244 298.392 157.271 298.299 157.271ZM293.988 152.829C293.894 152.829 293.801 152.796 293.721 152.736C293.209 152.317 292.67 151.904 292.131 151.519C291.772 151.259 291.406 151.013 291.033 150.767C290.84 150.641 290.781 150.375 290.914 150.182C291.04 149.989 291.306 149.929 291.499 150.062C291.885 150.315 292.258 150.574 292.63 150.834C293.189 151.233 293.741 151.652 294.267 152.091C294.447 152.237 294.473 152.503 294.327 152.682C294.24 152.782 294.121 152.835 294.001 152.835L293.988 152.829ZM288.844 149.377C288.778 149.377 288.705 149.364 288.638 149.324C287.687 148.799 286.682 148.3 285.637 147.828C285.424 147.735 285.331 147.482 285.424 147.269C285.524 147.057 285.77 146.964 285.983 147.057C287.041 147.535 288.073 148.047 289.044 148.579C289.25 148.693 289.323 148.952 289.21 149.151C289.13 149.291 288.991 149.371 288.838 149.371L288.844 149.377ZM283.209 146.791C283.162 146.791 283.109 146.784 283.056 146.764C282.031 146.372 280.96 146.006 279.882 145.673C279.656 145.607 279.536 145.368 279.603 145.148C279.669 144.922 279.909 144.802 280.128 144.869C281.226 145.208 282.311 145.58 283.355 145.979C283.575 146.059 283.681 146.305 283.601 146.525C283.535 146.691 283.375 146.797 283.209 146.797V146.791ZM277.294 144.929C277.26 144.929 277.227 144.929 277.187 144.915C276.129 144.643 275.025 144.39 273.907 144.171C273.681 144.124 273.528 143.905 273.574 143.672C273.621 143.439 273.847 143.293 274.073 143.339C275.205 143.565 276.322 143.818 277.4 144.091C277.626 144.151 277.766 144.377 277.706 144.603C277.66 144.796 277.487 144.922 277.294 144.922V144.929ZM243.214 144.856C243.028 144.856 242.855 144.729 242.802 144.536C242.742 144.31 242.882 144.077 243.108 144.024C244.186 143.745 245.303 143.492 246.428 143.273C246.661 143.226 246.88 143.379 246.927 143.605C246.973 143.838 246.82 144.058 246.594 144.104C245.483 144.324 244.379 144.57 243.321 144.849C243.287 144.856 243.248 144.862 243.214 144.862V144.856ZM271.212 143.685C271.212 143.685 271.166 143.685 271.146 143.685C270.055 143.519 268.937 143.366 267.806 143.246C267.573 143.22 267.407 143.013 267.433 142.781C267.46 142.548 267.673 142.375 267.899 142.408C269.037 142.528 270.174 142.681 271.279 142.847C271.512 142.88 271.665 143.1 271.632 143.333C271.598 143.539 271.419 143.692 271.212 143.692V143.685ZM249.289 143.625C249.083 143.625 248.903 143.472 248.87 143.266C248.836 143.033 248.996 142.821 249.222 142.787C250.327 142.621 251.465 142.475 252.602 142.362C252.829 142.342 253.042 142.508 253.068 142.741C253.095 142.974 252.922 143.18 252.689 143.206C251.571 143.319 250.447 143.459 249.355 143.625C249.335 143.625 249.316 143.625 249.289 143.625ZM265.045 143.007C265.045 143.007 265.025 143.007 265.018 143.007C263.907 142.934 262.769 142.88 261.658 142.854C261.425 142.854 261.239 142.654 261.245 142.422C261.245 142.189 261.438 142.009 261.671 142.009H261.678C262.809 142.036 263.953 142.082 265.078 142.162C265.311 142.176 265.49 142.382 265.47 142.614C265.457 142.841 265.271 143.007 265.051 143.007H265.045ZM255.457 142.974C255.237 142.974 255.051 142.801 255.038 142.575C255.024 142.342 255.204 142.142 255.437 142.129C256.555 142.063 257.699 142.016 258.837 141.996C259.07 141.996 259.256 142.182 259.263 142.415C259.263 142.648 259.083 142.841 258.843 142.847C257.719 142.867 256.588 142.907 255.483 142.974C255.477 142.974 255.463 142.974 255.457 142.974Z" fill="#E0E0E0"/>
<path d="M156.225 211.468V19.7902C156.225 16.013 154.356 11.8701 152.054 10.5401C149.751 9.21014 145.227 9.66233 141.954 11.5576L58.1187 59.9358C54.8452 61.8244 52.1904 66.4195 52.1904 70.1967V261.874C52.1904 265.652 54.0601 269.794 56.3622 271.124C58.6643 272.454 63.1888 272.002 66.4623 270.114L150.297 221.735C153.571 219.847 156.225 216.735 156.225 211.475V211.468Z" fill="#37474F"/>
<path d="M150.889 213.39L64.679 263.138L64.7056 70.5824L53.9202 64.358C52.8489 66.2134 52.1836 68.3081 52.1836 70.1967V261.874C52.1836 265.652 54.0532 269.794 56.3554 271.124C58.6575 272.454 63.1819 272.002 66.4555 270.114L150.29 221.735C152.333 220.552 154.356 218.783 155.427 216.01L155.094 215.817L150.889 213.39Z" fill="#263238"/>
<path d="M150.137 18.0413L66.0631 66.5592C63.7676 67.8759 61.8979 71.121 61.8979 73.7544V263.783C61.8979 267.839 64.7789 269.502 68.2987 267.467L150.137 220.246C152.732 218.75 154.855 215.079 154.855 212.086V20.7611C154.855 17.762 152.732 16.545 150.137 18.0413Z" fill="#455A64"/>
<path d="M150.75 30.3769V207.278C150.75 210.131 148.734 213.622 146.272 215.039L70.4744 258.776C68.006 260.212 65.9966 259.055 65.9966 256.195V77.9173C65.9966 75.6031 67.314 72.8766 69.1371 71.1676C69.2834 71.0346 69.4165 70.9082 69.5629 70.7819C69.8556 70.5491 70.1684 70.3363 70.4744 70.1568L91.7924 57.8544C91.7924 57.8544 92.4178 57.4887 93.183 57.0564C93.9482 56.6109 94.5736 56.97 94.5736 57.8544C94.5736 58.7389 95.2389 59.078 96.0573 58.5992L120.902 44.2619C121.713 43.7898 122.385 42.6859 122.385 41.8081C122.385 40.9769 122.931 39.9727 123.63 39.4806C123.676 39.4474 123.723 39.4208 123.776 39.3942L144.628 27.3645L145.074 27.1051C148.195 25.303 150.743 26.7793 150.743 30.3769H150.75Z" fill="black"/>
<path d="M139.771 210.012C142.233 208.595 144.249 205.104 144.249 202.251V27.5972L123.789 39.4009C123.743 39.4275 123.696 39.4541 123.643 39.4873C122.944 39.9794 122.399 40.9835 122.399 41.8148C122.399 42.6992 121.727 43.7965 120.915 44.2686L96.0705 58.6059C95.2521 59.0847 94.5868 58.7455 94.5868 57.8611C94.5868 56.9766 93.9614 56.6175 93.1962 57.0631C92.431 57.502 91.8056 57.8611 91.8056 57.8611L70.4876 70.1635C70.1815 70.343 69.8688 70.5558 69.5761 70.7886C69.4297 70.9149 69.2966 71.0413 69.1502 71.1743C67.3205 72.8766 66.0098 75.6098 66.0098 77.9239V252.591L139.778 210.025L139.771 210.012Z" fill="#263238"/>
<path d="M99.8366 51.0316L111.228 44.4615C111.906 44.0691 112.458 44.3484 112.458 45.0866C112.458 45.8247 111.906 46.7358 111.228 47.1281L99.8366 53.6982C99.158 54.0906 98.6057 53.8113 98.6057 53.0731C98.6057 52.335 99.158 51.424 99.8366 51.0316Z" fill="#263238"/>
<path d="M117.069 40.5513C117.834 40.1124 118.453 40.4649 118.453 41.3493C118.453 42.2337 117.834 43.3044 117.069 43.7499C116.304 44.1888 115.685 43.8364 115.685 42.9519C115.685 42.0675 116.304 40.9969 117.069 40.5513Z" fill="#263238"/>
<path d="M59.9616 94.5421C59.9616 93.0525 58.9835 91.277 57.7726 90.5788C57.1871 90.2396 56.6614 90.2197 56.2689 90.4524C55.9961 90.6187 54.9115 91.2172 54.6254 91.3901C54.2063 91.6427 53.9468 92.1814 53.9468 92.9461V109.478C53.9468 110.967 54.9249 112.743 56.1358 113.441C56.6947 113.76 57.2004 113.8 57.5863 113.594C57.8857 113.435 58.9968 112.796 59.2829 112.623C59.7021 112.377 59.9616 111.832 59.9616 111.067V94.5355V94.5421Z" fill="#455A64"/>
<path d="M58.3317 95.4798V112.012C58.3317 113.501 57.3536 114.139 56.1426 113.441C54.9317 112.743 53.9536 110.967 53.9536 109.478V92.9462C53.9536 91.4566 54.9317 90.8182 56.1426 91.5164C57.3536 92.2147 58.3317 93.9902 58.3317 95.4798Z" fill="#37474F"/>
<path d="M59.9616 123.483C59.9616 121.993 58.9835 120.218 57.7726 119.519C57.1871 119.18 56.6614 119.16 56.2689 119.393C55.9961 119.559 54.9115 120.158 54.6254 120.331C54.2063 120.583 53.9468 121.122 53.9468 121.887V138.418C53.9468 139.908 54.9249 141.683 56.1358 142.382C56.6947 142.701 57.2004 142.741 57.5863 142.535C57.8857 142.375 58.9968 141.737 59.2829 141.564C59.7021 141.318 59.9616 140.772 59.9616 140.008V123.476V123.483Z" fill="#455A64"/>
<path d="M58.3317 124.42V140.952C58.3317 142.442 57.3536 143.08 56.1426 142.382C54.9317 141.684 53.9536 139.908 53.9536 138.418V121.887C53.9536 120.397 54.9317 119.759 56.1426 120.457C57.3536 121.155 58.3317 122.931 58.3317 124.42Z" fill="#37474F"/>
<path d="M164.549 38.1839L82.9433 85.2122C81.9253 85.7974 81.1069 87.2205 81.1069 88.3909V268.365C81.1069 269.535 81.932 270.958 82.95 271.537L84.0944 272.195C85.1124 272.774 86.7558 272.774 87.7738 272.188L169.386 225.087C170.398 224.502 171.223 223.079 171.223 221.908V42.0076C171.223 40.8372 170.398 39.4141 169.38 38.8356L168.235 38.1773C167.217 37.5987 165.574 37.5987 164.556 38.1773L164.549 38.1839Z" fill="#E0E0E0"/>
<path d="M171.216 222.041C171.216 223.657 170.085 224.688 168.675 225.493L88.466 271.783C87.0687 272.587 85.9243 271.936 85.9243 270.313V91.9553C85.9243 90.1465 86.8891 88.484 88.4527 87.5796L168.668 41.2695C169.799 40.6178 171.21 41.4291 171.21 42.7391V222.048L171.216 222.041Z" fill="#FAFAFA"/>
<path d="M171.216 42.0076V42.7258C171.216 41.4225 169.799 40.6112 168.668 41.2629L88.4523 87.573C87.6672 88.0185 87.0351 88.6636 86.6093 89.415C86.596 89.435 86.5894 89.4483 86.5827 89.4749L81.6191 86.6154C81.9585 86.0302 82.4176 85.5115 82.9432 85.2189L164.549 38.1839C165.567 37.5987 167.217 37.5987 168.228 38.1773L169.373 38.8356C170.391 39.4142 171.216 40.8373 171.216 42.0076Z" fill="#F0F0F0"/>
<path d="M85.9307 119.499L171.216 70.2831V52.5544L85.9307 101.764V119.499Z" fill="#257367"/>
<path opacity="0.5" d="M85.9307 119.499L171.216 70.2831V52.5544L85.9307 101.764V119.499Z" fill="white"/>
<path d="M85.9307 255.477V270.313C85.9307 271.936 87.0751 272.587 88.4723 271.783L168.681 225.493C170.085 224.688 171.223 223.657 171.223 222.041V206.268L85.9373 255.477H85.9307Z" fill="#257367"/>
<path opacity="0.5" d="M85.9307 255.477V270.313C85.9307 271.936 87.0751 272.587 88.4723 271.783L168.681 225.493C170.085 224.688 171.223 223.657 171.223 222.041V206.268L85.9373 255.477H85.9307Z" fill="white"/>
<path d="M169.519 41.7483C169.998 41.7483 170.511 42.1273 170.511 42.7391V222.048C170.511 223.145 169.839 224.016 168.322 224.887L88.113 271.178C87.8269 271.344 87.5608 271.43 87.3346 271.43C86.7224 271.43 86.6359 270.739 86.6359 270.326V91.9553C86.6359 90.4059 87.4676 88.9628 88.8117 88.1914L169.027 41.8813C169.18 41.7948 169.346 41.7483 169.519 41.7483ZM169.519 41.0367C169.24 41.0367 168.947 41.1099 168.674 41.2695L88.459 87.5796C86.8954 88.484 85.9307 90.1532 85.9307 91.9553V270.313C85.9307 271.464 86.5029 272.129 87.3346 272.129C87.6739 272.129 88.0598 272.016 88.4657 271.783L168.674 225.493C170.078 224.688 171.216 223.657 171.216 222.041V42.7325C171.216 41.7416 170.404 41.0367 169.519 41.0367Z" fill="#E0E0E0"/>
<path d="M101.6 88.4242C101.6 88.4242 101.573 88.3643 101.573 88.3045V87.7126L100.648 88.2446C100.595 88.2712 100.575 88.2446 100.575 88.1648V87.952C100.575 87.9055 100.575 87.8656 100.582 87.8323C100.582 87.8057 100.602 87.7658 100.615 87.7193L101.6 85.0327C101.62 84.9861 101.633 84.9529 101.646 84.9263C101.66 84.9063 101.68 84.8864 101.713 84.8665L101.839 84.7933C101.879 84.7734 101.906 84.7667 101.926 84.7933C101.946 84.8133 101.952 84.8598 101.952 84.9263V86.9944L102.159 86.8747C102.199 86.8548 102.225 86.8481 102.239 86.8747C102.252 86.8947 102.265 86.9412 102.265 87.0077V87.1474C102.265 87.2072 102.259 87.2604 102.239 87.2937C102.225 87.3336 102.199 87.3602 102.159 87.3801L101.952 87.4998V88.0917C101.952 88.1515 101.946 88.2047 101.926 88.238C101.906 88.2779 101.879 88.3045 101.839 88.3311L101.686 88.4175C101.646 88.4375 101.62 88.4441 101.606 88.4242H101.6ZM101.633 87.174V85.6977L100.961 87.5597L101.633 87.174Z" fill="#455A64"/>
<path d="M102.698 87.4266C102.518 87.2138 102.425 86.8082 102.425 86.2163C102.425 85.6245 102.518 85.1191 102.698 84.6935C102.877 84.2679 103.137 83.962 103.463 83.7692C103.596 83.6894 103.722 83.6428 103.835 83.6295C103.948 83.6096 104.048 83.6295 104.121 83.6694C104.141 83.6827 104.148 83.696 104.148 83.7226C104.148 83.7426 104.148 83.7625 104.135 83.7891L104.048 84.095C104.035 84.1349 104.028 84.1549 104.015 84.1615C104.015 84.1615 103.995 84.1615 103.975 84.1615C103.842 84.1083 103.682 84.1283 103.503 84.2347C103.283 84.361 103.103 84.5738 102.977 84.8731C102.851 85.1723 102.784 85.5447 102.784 85.9969C102.784 86.4491 102.844 86.7617 102.97 86.9079C103.09 87.0609 103.263 87.0742 103.476 86.9478C103.556 86.9013 103.629 86.8481 103.702 86.7816C103.775 86.7151 103.835 86.6486 103.882 86.5821V85.6245L103.496 85.844C103.456 85.8639 103.429 85.8706 103.416 85.844C103.403 85.824 103.39 85.7841 103.39 85.7176V85.5846C103.39 85.5181 103.396 85.4716 103.416 85.4317C103.429 85.3984 103.456 85.3652 103.496 85.3452L104.115 84.9928C104.155 84.9662 104.188 84.9662 104.208 84.9928C104.228 85.0194 104.235 85.0726 104.235 85.1457V86.5156C104.235 86.5688 104.235 86.6087 104.228 86.6353C104.228 86.6619 104.208 86.6951 104.188 86.7284C104.008 87.0343 103.762 87.2737 103.456 87.4532C103.123 87.6461 102.871 87.6328 102.691 87.42L102.698 87.4266Z" fill="#455A64"/>
<path d="M110.502 82.7119C110.502 83.1707 110.263 83.6761 109.963 83.849C109.664 84.0219 109.424 83.7892 109.424 83.3303C109.424 82.8715 109.664 82.3661 109.963 82.1932C110.263 82.0203 110.502 82.253 110.502 82.7119Z" fill="#455A64"/>
<path d="M109.963 80.8366C109.424 81.1492 108.952 81.8873 108.712 82.7119C108.666 82.8781 108.686 83.0377 108.772 83.0909C108.872 83.1574 109.025 83.0244 109.085 82.8117C109.251 82.2265 109.584 81.7078 109.963 81.4883C110.343 81.2689 110.675 81.4085 110.842 81.7942C110.901 81.9339 111.054 81.894 111.154 81.7144C111.234 81.5681 111.261 81.3819 111.208 81.2689C110.968 80.7169 110.496 80.5241 109.957 80.8366H109.963Z" fill="#455A64"/>
<path d="M109.963 79.5133C109.158 79.9787 108.453 81.0361 108.047 82.2464C107.987 82.4259 108.007 82.6055 108.094 82.6587C108.193 82.7252 108.333 82.5988 108.4 82.3993C108.726 81.4085 109.305 80.5506 109.963 80.1649C110.622 79.7859 111.201 79.9788 111.534 80.5905C111.6 80.7169 111.74 80.6703 111.84 80.4974C111.926 80.3445 111.946 80.145 111.886 80.0319C111.48 79.2872 110.775 79.0478 109.963 79.5133Z" fill="#455A64"/>
<path d="M124.002 73.3754C124.002 73.3754 123.982 73.3222 123.982 73.2756C123.982 73.2357 123.996 73.1958 124.022 73.1559L124.794 71.7727C124.794 71.7727 124.834 71.7062 124.854 71.673C124.874 71.6397 124.894 71.6198 124.921 71.6065L125.2 71.4469C125.2 71.4469 125.247 71.4336 125.267 71.4469C125.287 71.4668 125.293 71.4934 125.293 71.5333V75.0711C125.293 75.111 125.287 75.1509 125.267 75.1908C125.247 75.2307 125.227 75.2573 125.2 75.2706L124.914 75.4369C124.914 75.4369 124.867 75.4502 124.847 75.4369C124.827 75.4169 124.821 75.3903 124.821 75.3504V72.6505L124.315 73.5483C124.295 73.5882 124.269 73.6081 124.249 73.6214C124.222 73.6281 124.202 73.6214 124.182 73.6015L124.016 73.3754H124.002Z" fill="#455A64"/>
<path d="M125.806 72.338C125.806 72.338 125.786 72.2848 125.786 72.2383C125.786 72.1984 125.799 72.1585 125.826 72.1186L126.597 70.7354C126.597 70.7354 126.637 70.6689 126.657 70.6356C126.677 70.6024 126.697 70.5824 126.724 70.5691L127.003 70.4095C127.003 70.4095 127.05 70.3962 127.07 70.4095C127.09 70.4295 127.096 70.4561 127.096 70.496V74.0338C127.096 74.0737 127.09 74.1136 127.07 74.1535C127.05 74.1934 127.03 74.2199 127.003 74.2332L126.717 74.3995C126.717 74.3995 126.671 74.4128 126.651 74.3995C126.631 74.3795 126.624 74.3529 126.624 74.313V71.6132L126.118 72.5109C126.098 72.5508 126.072 72.5708 126.052 72.5841C126.025 72.5907 126.005 72.5841 125.985 72.5641L125.819 72.338H125.806Z" fill="#455A64"/>
<path d="M128.168 70.8218C128.168 70.8218 128.214 70.8085 128.234 70.8218C128.254 70.8418 128.261 70.8684 128.261 70.9083V71.4469C128.261 71.4868 128.254 71.5267 128.234 71.5666C128.214 71.6065 128.194 71.6331 128.168 71.6464L127.835 71.8393C127.835 71.8393 127.788 71.8526 127.768 71.8393C127.748 71.8193 127.742 71.7927 127.742 71.7528V71.2142C127.742 71.1743 127.748 71.1344 127.768 71.0945C127.788 71.0546 127.808 71.028 127.835 71.0147L128.168 70.8218ZM128.168 72.737C128.168 72.737 128.214 72.7237 128.234 72.737C128.254 72.757 128.261 72.7836 128.261 72.8235V73.3621C128.261 73.402 128.254 73.4419 128.234 73.4818C128.214 73.5217 128.194 73.5483 128.168 73.5616L127.835 73.7545C127.835 73.7545 127.788 73.7678 127.768 73.7545C127.748 73.7345 127.742 73.7079 127.742 73.668V73.1294C127.742 73.0895 127.748 73.0496 127.768 73.0097C127.788 72.9698 127.808 72.9432 127.835 72.9299L128.168 72.737Z" fill="#455A64"/>
<path d="M130.064 72.471C130.064 72.471 130.017 72.4843 129.997 72.471C129.977 72.451 129.971 72.4244 129.971 72.3845V71.7195L128.866 72.3579C128.866 72.3579 128.82 72.3712 128.8 72.3579C128.78 72.338 128.773 72.3114 128.773 72.2715V71.8858C128.773 71.8326 128.78 71.786 128.793 71.7395C128.806 71.6929 128.826 71.6397 128.846 71.5865L129.937 68.8667C129.984 68.747 130.03 68.6739 130.084 68.6473L130.356 68.4943C130.356 68.4943 130.403 68.481 130.423 68.4943C130.443 68.5143 130.45 68.5409 130.45 68.5808V70.7686L130.756 70.589C130.756 70.589 130.802 70.5757 130.822 70.589C130.842 70.609 130.849 70.6356 130.849 70.6755V71.0612C130.849 71.1011 130.842 71.141 130.822 71.1809C130.802 71.2208 130.782 71.2474 130.756 71.2607L130.45 71.4402V72.1052C130.45 72.1451 130.443 72.185 130.423 72.2249C130.403 72.2648 130.383 72.2914 130.356 72.3047L130.07 72.471H130.064ZM129.971 71.0346V69.8642L129.365 71.387L129.971 71.0346Z" fill="#455A64"/>
<path d="M131.494 67.9623C131.494 67.9224 131.501 67.8825 131.521 67.8426C131.541 67.8027 131.561 67.7761 131.587 67.7628L132.925 66.9914C132.925 66.9914 132.971 66.9781 132.991 66.9914C133.011 67.0114 133.018 67.038 133.018 67.0779V67.4636C133.018 67.5035 133.005 67.5434 132.991 67.5833C132.971 67.6232 132.951 67.6498 132.925 67.6697L131.927 68.2483L131.887 68.9731C131.953 68.8933 132.013 68.8335 132.08 68.7936C132.14 68.7537 132.193 68.7138 132.233 68.6938C132.366 68.6207 132.486 68.5741 132.605 68.5608C132.718 68.5475 132.818 68.5741 132.898 68.634C132.978 68.6938 133.044 68.7869 133.091 68.9199C133.138 69.0463 133.164 69.2192 133.164 69.4187C133.164 69.6514 133.138 69.8642 133.091 70.0571C133.044 70.2499 132.978 70.4295 132.891 70.5824C132.805 70.7354 132.712 70.875 132.592 70.9881C132.479 71.1011 132.359 71.1942 132.233 71.274C132.066 71.3671 131.927 71.4203 131.814 71.427C131.694 71.4336 131.601 71.4137 131.521 71.3538C131.441 71.3006 131.388 71.2142 131.348 71.1078C131.308 71.0014 131.288 70.875 131.281 70.7354C131.281 70.6955 131.281 70.6556 131.308 70.6157C131.328 70.5758 131.354 70.5492 131.374 70.5359L131.661 70.3696C131.661 70.3696 131.707 70.3563 131.727 70.3696C131.747 70.3829 131.76 70.4095 131.767 70.4428C131.78 70.5159 131.8 70.5758 131.833 70.609C131.867 70.6423 131.9 70.6689 131.94 70.6755C131.98 70.6822 132.026 70.6755 132.073 70.6622C132.12 70.6423 132.173 70.6223 132.233 70.5891C132.366 70.5093 132.479 70.3896 132.559 70.23C132.639 70.0704 132.685 69.8908 132.685 69.6913C132.685 69.5251 132.645 69.412 132.559 69.3522C132.479 69.2923 132.366 69.299 132.233 69.3721C132.16 69.412 132.106 69.4519 132.066 69.4918C132.026 69.5317 131.993 69.5716 131.967 69.6049C131.94 69.6448 131.92 69.678 131.893 69.7046C131.873 69.7312 131.847 69.7578 131.814 69.7778L131.488 69.964C131.488 69.964 131.441 69.9773 131.421 69.964C131.401 69.944 131.394 69.9174 131.394 69.8775L131.501 67.9623H131.494Z" fill="#455A64"/>
<path d="M91.3667 94.7682V93.6244L92.3581 93.0525V94.1963L91.3667 94.7682Z" fill="#455A64"/>
<path d="M92.8506 93.9104V91.6295L93.842 91.0576V93.3385L92.8506 93.9104Z" fill="#455A64"/>
<path d="M94.3342 93.0525V89.6345L95.319 89.0626V92.4873L94.3342 93.0525Z" fill="#455A64"/>
<path d="M95.8179 92.2013V87.6395L96.8026 87.0676V91.6294L95.8179 92.2013Z" fill="#455A64"/>
<path d="M165.214 48.4514C165.108 48.2985 164.982 48.2586 164.849 48.3317L161.156 50.453C160.916 50.5927 160.73 51.0848 160.73 51.5702V53.645C160.73 53.9176 160.79 54.1504 160.89 54.3033C160.936 54.3698 160.983 54.4164 161.036 54.4363C161.109 54.4696 161.182 54.4629 161.256 54.4164L164.948 52.2951C165.188 52.1554 165.374 51.6633 165.374 51.1712V49.0964C165.374 48.8238 165.314 48.591 165.214 48.4381V48.4514ZM160.996 54.044C160.956 53.9908 160.936 53.8777 160.936 53.7381V51.6633C160.936 51.3042 161.083 50.9119 161.262 50.8121L164.955 48.6908C164.995 48.6642 165.041 48.6642 165.075 48.6775C165.095 48.6841 165.108 48.6975 165.121 48.7174C165.161 48.7706 165.181 48.8836 165.181 49.0166V51.0914C165.181 51.4505 165.035 51.8429 164.855 51.9426L161.162 54.0639C161.096 54.1038 161.036 54.0905 160.996 54.0373V54.044Z" fill="#455A64"/>
<path d="M161.961 50.7656V53.2194L161.382 53.5519C161.335 53.5785 161.269 53.5452 161.269 53.4854V51.6633C161.269 51.404 161.382 51.1047 161.508 51.0249L161.961 50.7656Z" fill="#455A64"/>
<path d="M162.227 50.6193L162.919 50.2136V52.6674L162.227 53.0664V50.6193Z" fill="#455A64"/>
<path d="M163.192 50.0673L163.884 49.6617V52.1222L163.192 52.5212V50.0673Z" fill="#455A64"/>
<path d="M164.848 49.276V51.0449C164.848 51.3707 164.669 51.6766 164.389 51.8362L164.156 51.9692V49.5154L164.709 49.1962C164.775 49.1629 164.848 49.2028 164.848 49.276Z" fill="#455A64"/>
<path d="M165.514 49.0432C165.614 48.9834 165.7 49.276 165.7 49.7016V50.0873C165.7 50.5129 165.614 50.9119 165.514 50.985L165.328 51.1114V49.1496C165.328 49.1496 165.414 49.1031 165.521 49.0432H165.514Z" fill="#455A64"/>
<path d="M155.128 55.3142L158.714 52.1288L157.609 56.7971L157.084 54.8553L155.128 55.3142Z" fill="#455A64"/>
<path d="M92.3579 110.229C92.3047 110.229 92.2515 110.216 92.1983 110.189C92.0985 110.136 92.0386 110.03 92.0386 109.917V102.589C92.0386 102.476 92.0985 102.369 92.1983 102.316L101.374 97.0225C101.473 96.9627 101.593 96.9627 101.686 97.0225C101.786 97.0757 101.846 97.1821 101.846 97.2952V104.623C101.846 104.736 101.786 104.843 101.686 104.896L92.5043 110.189C92.4577 110.216 92.3979 110.229 92.3446 110.229H92.3579ZM92.6707 102.775V109.371L101.22 104.437V97.8405L92.6707 102.775Z" fill="#FAFAFA"/>
<path d="M96.7226 105.528C96.6694 105.528 96.6095 105.515 96.5629 105.481L92.1982 102.861C92.0518 102.768 91.9986 102.575 92.0918 102.429C92.1782 102.283 92.3778 102.236 92.5242 102.323L96.6228 104.783L101.274 97.1356C101.367 96.9893 101.56 96.9428 101.706 97.0292C101.853 97.1223 101.899 97.3151 101.813 97.4614L97.0021 105.382C96.9422 105.481 96.8357 105.534 96.7293 105.534L96.7226 105.528Z" fill="#FAFAFA"/>
<path d="M92.3577 110.229C92.3112 110.229 92.2712 110.223 92.2247 110.203C92.065 110.13 91.9985 109.943 92.0716 109.784L94.6931 104.032C94.7663 103.872 94.9526 103.805 95.1123 103.872C95.272 103.945 95.3385 104.131 95.272 104.291L92.6505 110.043C92.5973 110.156 92.4842 110.229 92.3644 110.229H92.3577Z" fill="#FAFAFA"/>
<path d="M101.533 104.936C101.46 104.936 101.387 104.909 101.327 104.856L98.4327 102.289C98.2996 102.176 98.293 101.977 98.4061 101.844C98.5192 101.711 98.7188 101.704 98.8519 101.817L101.746 104.384C101.879 104.497 101.886 104.697 101.773 104.83C101.713 104.903 101.626 104.936 101.54 104.936H101.533Z" fill="#FAFAFA"/>
<path d="M101.633 107.902C100.409 108.607 99.4106 107.855 99.4106 106.219C99.4106 104.583 100.409 102.682 101.633 101.97C102.857 101.265 103.855 102.017 103.855 103.653C103.855 105.288 102.857 107.19 101.633 107.902Z" fill="#257367"/>
<path d="M101.872 106.399C101.872 106.399 101.833 106.412 101.819 106.399C101.806 106.386 101.799 106.359 101.799 106.326V105.794L100.908 106.306C100.908 106.306 100.868 106.319 100.854 106.306C100.841 106.293 100.834 106.266 100.834 106.233V105.92C100.834 105.88 100.834 105.84 100.854 105.8C100.868 105.761 100.881 105.721 100.901 105.674L101.779 103.48C101.819 103.387 101.859 103.327 101.899 103.3L102.119 103.174C102.119 103.174 102.159 103.167 102.172 103.174C102.185 103.187 102.192 103.214 102.192 103.247V105.009L102.438 104.869C102.438 104.869 102.478 104.856 102.491 104.869C102.505 104.883 102.511 104.909 102.511 104.943V105.255C102.511 105.255 102.505 105.322 102.491 105.355C102.478 105.388 102.458 105.408 102.438 105.421L102.192 105.561V106.093C102.192 106.093 102.185 106.16 102.172 106.193C102.159 106.226 102.139 106.246 102.119 106.259L101.886 106.392L101.872 106.399ZM101.793 105.242V104.298L101.3 105.528L101.793 105.242Z" fill="white"/>
<path d="M165.527 60.2551C165.075 60.5211 164.702 61.1594 164.702 61.6848C164.702 62.2101 165.075 62.4229 165.527 62.1636C165.98 61.8976 166.352 61.2592 166.352 60.7339C166.352 60.2085 165.98 59.9957 165.527 60.2551Z" fill="#FAFAFA"/>
<path d="M165.527 63.733C165.075 63.999 164.702 64.6374 164.702 65.1627C164.702 65.688 165.075 65.9008 165.527 65.6415C165.98 65.3755 166.352 64.7371 166.352 64.2118C166.352 63.6864 165.98 63.4736 165.527 63.733Z" fill="#FAFAFA"/>
<path d="M165.527 67.2042C165.075 67.4702 164.702 68.1086 164.702 68.634C164.702 69.1593 165.075 69.3721 165.527 69.1127C165.98 68.8468 166.352 68.2084 166.352 67.683C166.352 67.1577 165.98 66.9449 165.527 67.2042Z" fill="#FAFAFA"/>
<path d="M161.435 70.6622L159.126 70.2167C159.299 69.6248 159.406 69.0197 159.406 68.4412C159.406 67.2774 159.007 66.3797 158.308 65.974C157.716 65.6282 156.971 65.6814 156.219 66.1203C154.635 67.0314 153.344 69.4785 153.344 71.5733C153.344 72.737 153.744 73.6414 154.442 74.0404C154.702 74.1933 154.995 74.2665 155.294 74.2665C155.687 74.2665 156.106 74.1401 156.532 73.9008C157.53 73.3222 158.408 72.1452 158.92 70.8218L161.315 71.2807C161.315 71.2807 161.355 71.2807 161.375 71.2807C161.522 71.2807 161.655 71.1743 161.681 71.028C161.715 70.8551 161.602 70.6888 161.429 70.6556L161.435 70.6622ZM156.212 73.3488C155.653 73.668 155.148 73.7212 154.748 73.4885C154.249 73.2025 153.97 72.5043 153.97 71.5666C153.97 69.6714 155.114 67.4703 156.525 66.659C156.851 66.4728 157.164 66.373 157.443 66.373C157.643 66.373 157.822 66.4196 157.989 66.5127C158.488 66.7986 158.767 67.4969 158.767 68.4345C158.767 70.3297 157.623 72.5309 156.212 73.3488Z" fill="#FAFAFA"/>
<path d="M146.731 77.6978L145.939 78.5955C145.873 78.6687 145.806 78.6221 145.813 78.5157L145.926 77.1658C145.939 77.0395 145.966 76.9065 146.019 76.7868L149.565 68.0022C149.858 67.2707 150.756 67.8692 150.464 68.6007L146.917 77.3853C146.871 77.5116 146.804 77.618 146.724 77.7045L146.731 77.6978Z" fill="#FAFAFA"/>
<path d="M149.253 73.2822V79.2805L144.249 82.1665V72.8965L147.709 70.9016L148.095 69.9506L143.777 72.4443C143.677 72.5042 143.617 72.6106 143.617 72.717V82.7185C143.617 82.8315 143.677 82.9313 143.777 82.9911C143.823 83.0244 143.876 83.0377 143.936 83.0377C143.99 83.0377 144.043 83.0244 144.096 82.9911L149.725 79.7393C149.825 79.6795 149.885 79.5797 149.885 79.4667V71.7195L149.253 73.2822Z" fill="#FAFAFA"/>
<path d="M100.262 251.321C98.0867 252.578 96.3169 255.637 96.3169 258.15C96.3169 259.208 96.6296 259.999 97.1552 260.465L96.9357 262.433C96.9157 262.586 97.1087 262.672 97.2151 262.559L98.6523 260.95C99.1447 260.923 99.6903 260.751 100.262 260.418C102.438 259.161 104.208 256.102 104.208 253.589C104.208 251.075 102.445 250.057 100.262 251.314V251.321Z" fill="white"/>
<path d="M155.234 224.768C156.159 224.236 156.911 222.799 156.911 221.569C156.911 220.339 156.159 219.767 155.234 220.306C154.309 220.838 153.557 222.274 153.557 223.504C153.557 224.735 154.309 225.306 155.234 224.768ZM160.763 221.576C161.688 221.044 162.44 219.607 162.44 218.377C162.44 217.147 161.688 216.575 160.763 217.114C159.838 217.646 159.086 219.082 159.086 220.312C159.086 221.543 159.838 222.114 160.763 221.576ZM164.116 221.848C164.023 221.124 163.524 220.838 162.939 221.183L158.587 223.69C157.995 224.03 157.496 224.894 157.41 225.719L157.283 226.876L164.223 222.873L164.11 221.855L164.116 221.848ZM151.881 228.911L151.754 230.068L156.671 227.228L156.844 225.652C156.884 225.26 156.997 224.868 157.177 224.508L153.058 226.876C152.466 227.222 151.96 228.079 151.881 228.904V228.911Z" fill="#FAFAFA"/>
<path d="M96.9423 132.912C94.7866 134.156 93.03 132.832 93.03 129.953C93.03 127.074 94.7866 123.722 96.9423 122.479C99.0981 121.235 100.855 122.558 100.855 125.438C100.855 128.317 99.0981 131.669 96.9423 132.912Z" fill="#257367"/>
<path d="M99.3376 128.623C98.7055 130.219 97.6342 131.423 96.4765 132.094C96.084 132.32 95.7114 132.433 95.3987 132.433C95.0261 132.433 94.74 132.261 94.5337 132.001L94.6135 130.764C94.6734 130.192 95.0194 129.594 95.4319 129.361L98.4526 127.612C98.8652 127.373 99.2111 127.572 99.271 128.071L99.3309 128.623H99.3376Z" fill="#FAFAFA"/>
<path d="M98.1997 125.438C98.1997 126.342 97.6541 127.386 96.9755 127.778C96.2968 128.171 95.7512 127.752 95.7512 126.854C95.7512 125.956 96.2968 124.906 96.9755 124.513C97.6541 124.121 98.1997 124.54 98.1997 125.438Z" fill="#FAFAFA"/>
<path d="M87.4077 142.368C87.3013 142.368 87.1948 142.309 87.1349 142.209C87.0484 142.056 87.1017 141.863 87.248 141.777L169.207 94.4822C169.36 94.3958 169.552 94.449 169.639 94.5953C169.725 94.7482 169.672 94.9411 169.526 95.0275L87.5674 142.322C87.5208 142.348 87.4609 142.362 87.4077 142.362V142.368Z" fill="#E0E0E0"/>
<path d="M109.038 117.092L130.257 104.849C130.882 104.484 131.394 104.743 131.394 105.428C131.394 106.113 130.882 106.958 130.257 107.317L109.038 119.559C108.413 119.925 107.901 119.666 107.901 118.981C107.901 118.296 108.413 117.451 109.038 117.092Z" fill="#455A64"/>
<path d="M109.038 122.02L148.481 99.2569C149.113 98.8911 149.618 99.1505 149.618 99.8354C149.618 100.52 149.106 101.365 148.481 101.724L109.038 124.487C108.413 124.852 107.901 124.593 107.901 123.908C107.901 123.223 108.413 122.379 109.038 122.02Z" fill="#E0E0E0"/>
<path d="M162.067 93.0791C160.843 93.784 159.845 93.0326 159.845 91.3967C159.845 89.7608 160.843 87.8589 162.067 87.1474C163.292 86.4425 164.29 87.1939 164.29 88.8298C164.29 90.4657 163.292 92.3676 162.067 93.0791Z" fill="#257367"/>
<path d="M162.287 89.8672C162.347 89.7608 162.38 89.6677 162.4 89.5879C162.413 89.5081 162.427 89.435 162.427 89.3685C162.427 89.2488 162.4 89.1623 162.353 89.1025C162.307 89.0493 162.227 89.0493 162.114 89.1158C162.007 89.1756 161.934 89.2621 161.881 89.3685C161.834 89.4749 161.795 89.6012 161.775 89.7342C161.775 89.7741 161.755 89.814 161.741 89.8406C161.721 89.8672 161.708 89.8872 161.688 89.9005L161.462 90.0335C161.462 90.0335 161.422 90.0468 161.409 90.0335C161.395 90.0202 161.382 89.9936 161.389 89.9603C161.389 89.8273 161.415 89.6877 161.455 89.548C161.495 89.4084 161.542 89.2754 161.608 89.149C161.675 89.0227 161.748 88.9096 161.834 88.8099C161.921 88.7101 162.014 88.6303 162.114 88.5705C162.234 88.504 162.34 88.4707 162.427 88.4774C162.513 88.484 162.586 88.5239 162.646 88.5838C162.706 88.6436 162.746 88.7301 162.773 88.8298C162.799 88.9296 162.813 89.036 162.813 89.149C162.813 89.2222 162.813 89.2953 162.806 89.3618C162.806 89.4283 162.786 89.5081 162.766 89.5813C162.746 89.6611 162.713 89.7475 162.673 89.8406C162.633 89.9337 162.58 90.0468 162.513 90.1665L161.981 91.2172L162.779 90.7583C162.779 90.7583 162.819 90.745 162.832 90.7583C162.846 90.7716 162.852 90.7982 162.852 90.8315V91.144C162.852 91.144 162.846 91.2105 162.832 91.2438C162.819 91.277 162.799 91.297 162.779 91.3103L161.442 92.0817C161.442 92.0817 161.402 92.095 161.389 92.0817C161.375 92.0684 161.362 92.0418 161.362 92.0085V91.7359C161.362 91.6893 161.369 91.6361 161.389 91.5896C161.409 91.543 161.422 91.5098 161.435 91.4832L162.287 89.8606V89.8672Z" fill="white"/>
<path d="M96.9423 150.648C94.7866 151.891 93.03 150.568 93.03 147.688C93.03 144.809 94.7866 141.457 96.9423 140.214C99.0981 138.97 100.855 140.294 100.855 143.173C100.855 146.052 99.0981 149.404 96.9423 150.648Z" fill="#257367"/>
<path d="M99.3376 146.358C98.7055 147.954 97.6342 149.158 96.4765 149.83C96.084 150.056 95.7114 150.169 95.3987 150.169C95.0261 150.169 94.74 149.996 94.5337 149.737L94.6135 148.5C94.6734 147.928 95.0194 147.329 95.4319 147.096L98.4526 145.348C98.8652 145.108 99.2111 145.308 99.271 145.806L99.3309 146.358H99.3376Z" fill="#FAFAFA"/>
<path d="M98.1997 143.173C98.1997 144.077 97.6541 145.121 96.9755 145.514C96.2968 145.906 95.7512 145.487 95.7512 144.589C95.7512 143.692 96.2968 142.641 96.9755 142.249C97.6541 141.856 98.1997 142.275 98.1997 143.173Z" fill="#FAFAFA"/>
<path d="M87.4077 160.11C87.3013 160.11 87.1948 160.051 87.1349 159.951C87.0484 159.798 87.1017 159.605 87.248 159.519L169.207 112.224C169.36 112.138 169.552 112.191 169.639 112.337C169.725 112.49 169.672 112.683 169.526 112.77L87.5674 160.064C87.5208 160.09 87.4609 160.104 87.4077 160.104V160.11Z" fill="#E0E0E0"/>
<path d="M109.038 134.827L130.257 122.585C130.882 122.219 131.394 122.478 131.394 123.163C131.394 123.848 130.882 124.693 130.257 125.052L109.038 137.294C108.413 137.66 107.901 137.401 107.901 136.716C107.901 136.031 108.413 135.186 109.038 134.827Z" fill="#455A64"/>
<path d="M109.038 139.755L148.481 116.992C149.113 116.626 149.618 116.886 149.618 117.571C149.618 118.256 149.106 119.1 148.481 119.459L109.038 142.222C108.413 142.588 107.901 142.328 107.901 141.644C107.901 140.959 108.413 140.114 109.038 139.755Z" fill="#E0E0E0"/>
<path d="M162.067 110.814C160.843 111.519 159.845 110.768 159.845 109.132C159.845 107.496 160.843 105.594 162.067 104.883C163.292 104.178 164.29 104.929 164.29 106.565C164.29 108.201 163.292 110.103 162.067 110.814Z" fill="#257367"/>
<path d="M161.522 107.682C161.522 107.682 161.502 107.636 161.508 107.603C161.508 107.569 161.522 107.536 161.535 107.503L162.16 106.392C162.16 106.392 162.194 106.339 162.207 106.312C162.22 106.286 162.24 106.266 162.26 106.259L162.487 106.133C162.487 106.133 162.526 106.12 162.54 106.133C162.553 106.146 162.56 106.173 162.56 106.206V109.059C162.56 109.059 162.553 109.125 162.54 109.159C162.526 109.192 162.506 109.212 162.487 109.225L162.254 109.358C162.254 109.358 162.214 109.371 162.2 109.358C162.187 109.345 162.18 109.318 162.18 109.285V107.104L161.775 107.829C161.775 107.829 161.741 107.875 161.721 107.889C161.701 107.895 161.681 107.889 161.668 107.875L161.535 107.696L161.522 107.682Z" fill="white"/>
<path d="M96.9423 168.383C94.7866 169.627 93.03 168.303 93.03 165.424C93.03 162.544 94.7866 159.193 96.9423 157.949C99.0981 156.706 100.855 158.029 100.855 160.908C100.855 163.788 99.0981 167.139 96.9423 168.383Z" fill="#257367"/>
<path d="M99.3376 164.094C98.7055 165.69 97.6342 166.893 96.4765 167.565C96.084 167.791 95.7114 167.904 95.3987 167.904C95.0261 167.904 94.74 167.731 94.5337 167.472L94.6135 166.235C94.6734 165.663 95.0194 165.065 95.4319 164.832L98.4526 163.083C98.8652 162.844 99.2111 163.043 99.271 163.542L99.3309 164.094H99.3376Z" fill="#FAFAFA"/>
<path d="M98.1997 160.908C98.1997 161.813 97.6541 162.857 96.9755 163.249C96.2968 163.642 95.7512 163.223 95.7512 162.325C95.7512 161.427 96.2968 160.376 96.9755 159.984C97.6541 159.592 98.1997 160.011 98.1997 160.908Z" fill="#FAFAFA"/>
<path d="M87.4077 177.846C87.3013 177.846 87.1948 177.786 87.1349 177.686C87.0484 177.533 87.1017 177.34 87.248 177.254L169.207 129.96C169.36 129.873 169.552 129.926 169.639 130.073C169.725 130.226 169.672 130.419 169.526 130.505L87.5674 177.799C87.5208 177.826 87.4609 177.839 87.4077 177.839V177.846Z" fill="#E0E0E0"/>
<path d="M109.038 152.563L130.257 140.32C130.882 139.955 131.394 140.214 131.394 140.899C131.394 141.584 130.882 142.428 130.257 142.787L109.038 155.03C108.413 155.396 107.901 155.136 107.901 154.451C107.901 153.766 108.413 152.922 109.038 152.563Z" fill="#455A64"/>
<path d="M109.038 157.49L148.481 134.728C149.113 134.362 149.618 134.621 149.618 135.306C149.618 135.991 149.106 136.836 148.481 137.195L109.038 159.958C108.413 160.323 107.901 160.064 107.901 159.379C107.901 158.694 108.413 157.85 109.038 157.49Z" fill="#E0E0E0"/>
<path d="M162.067 128.55C160.843 129.255 159.845 128.503 159.845 126.867C159.845 125.232 160.843 123.33 162.067 122.618C163.292 121.913 164.29 122.665 164.29 124.301C164.29 125.936 163.292 127.838 162.067 128.55Z" fill="#257367"/>
<path d="M161.522 125.418C161.522 125.418 161.502 125.371 161.508 125.338C161.508 125.305 161.522 125.271 161.535 125.238L162.16 124.128C162.16 124.128 162.194 124.074 162.207 124.048C162.22 124.021 162.24 124.001 162.26 123.995L162.487 123.868C162.487 123.868 162.526 123.855 162.54 123.868C162.553 123.882 162.56 123.908 162.56 123.941V126.788C162.56 126.821 162.553 126.854 162.54 126.887C162.526 126.921 162.506 126.941 162.487 126.954L162.254 127.087C162.254 127.087 162.214 127.1 162.2 127.087C162.187 127.074 162.18 127.047 162.18 127.014V124.833L161.775 125.557C161.775 125.557 161.741 125.604 161.721 125.617C161.701 125.624 161.681 125.617 161.668 125.604L161.535 125.424L161.522 125.418Z" fill="white"/>
<path d="M96.9423 186.118C94.7866 187.362 93.03 186.039 93.03 183.159C93.03 180.28 94.7866 176.928 96.9423 175.685C99.0981 174.441 100.855 175.764 100.855 178.644C100.855 181.523 99.0981 184.875 96.9423 186.118Z" fill="#E0E0E0"/>
<path d="M99.3376 181.829C98.7055 183.425 97.6342 184.629 96.4765 185.3C96.084 185.527 95.7114 185.64 95.3987 185.64C95.0261 185.64 94.74 185.467 94.5337 185.207L94.6135 183.97C94.6734 183.399 95.0194 182.8 95.4319 182.567L98.4526 180.818C98.8652 180.579 99.2111 180.778 99.271 181.277L99.3309 181.829H99.3376Z" fill="#FAFAFA"/>
<path d="M98.1997 178.65C98.1997 179.555 97.6541 180.599 96.9755 180.991C96.2968 181.384 95.7512 180.965 95.7512 180.067C95.7512 179.169 96.2968 178.118 96.9755 177.726C97.6541 177.334 98.1997 177.753 98.1997 178.65Z" fill="#FAFAFA"/>
<path d="M87.4077 195.581C87.3013 195.581 87.1948 195.521 87.1349 195.422C87.0484 195.269 87.1017 195.076 87.248 194.989L169.207 147.695C169.36 147.609 169.552 147.662 169.639 147.808C169.725 147.961 169.672 148.154 169.526 148.24L87.5674 195.535C87.5208 195.561 87.4609 195.575 87.4077 195.575V195.581Z" fill="#E0E0E0"/>
<path d="M109.038 170.298L130.257 158.056C130.882 157.69 131.394 157.949 131.394 158.634C131.394 159.319 130.882 160.164 130.257 160.523L109.038 172.765C108.413 173.131 107.901 172.872 107.901 172.187C107.901 171.502 108.413 170.657 109.038 170.298Z" fill="#455A64"/>
<path d="M109.038 175.232L148.481 152.47C149.113 152.104 149.618 152.363 149.618 153.048C149.618 153.733 149.106 154.578 148.481 154.937L109.038 177.7C108.413 178.065 107.901 177.806 107.901 177.121C107.901 176.436 108.413 175.591 109.038 175.232Z" fill="#E0E0E0"/>
<path d="M96.9423 203.854C94.7866 205.097 93.03 203.774 93.03 200.895C93.03 198.015 94.7866 194.664 96.9423 193.42C99.0981 192.176 100.855 193.5 100.855 196.379C100.855 199.259 99.0981 202.61 96.9423 203.854Z" fill="#E0E0E0"/>
<path d="M99.3376 199.565C98.7055 201.161 97.6342 202.364 96.4765 203.036C96.084 203.262 95.7114 203.375 95.3987 203.375C95.0261 203.375 94.74 203.202 94.5337 202.943L94.6135 201.706C94.6734 201.134 95.0194 200.535 95.4319 200.303L98.4526 198.554C98.8652 198.314 99.2111 198.514 99.271 199.013L99.3309 199.565H99.3376Z" fill="#FAFAFA"/>
<path d="M98.1997 196.386C98.1997 197.29 97.6541 198.334 96.9755 198.727C96.2968 199.119 95.7512 198.7 95.7512 197.802C95.7512 196.905 96.2968 195.854 96.9755 195.461C97.6541 195.069 98.1997 195.488 98.1997 196.386Z" fill="#FAFAFA"/>
<path d="M87.4077 213.317C87.3013 213.317 87.1948 213.257 87.1349 213.157C87.0484 213.004 87.1017 212.811 87.248 212.725L169.207 165.43C169.36 165.344 169.552 165.397 169.639 165.543C169.725 165.696 169.672 165.889 169.526 165.976L87.5674 213.27C87.5208 213.297 87.4609 213.31 87.4077 213.31V213.317Z" fill="#E0E0E0"/>
<path d="M109.038 188.034L130.257 175.791C130.882 175.425 131.394 175.685 131.394 176.37C131.394 177.054 130.882 177.899 130.257 178.258L109.038 190.501C108.413 190.866 107.901 190.607 107.901 189.922C107.901 189.237 108.413 188.393 109.038 188.034Z" fill="#455A64"/>
<path d="M109.038 192.968L148.481 170.205C149.113 169.839 149.618 170.099 149.618 170.784C149.618 171.469 149.106 172.313 148.481 172.672L109.038 195.435C108.413 195.801 107.901 195.541 107.901 194.856C107.901 194.171 108.413 193.327 109.038 192.968Z" fill="#E0E0E0"/>
<path d="M96.9423 221.589C94.7866 222.833 93.03 221.509 93.03 218.63C93.03 215.75 94.7866 212.399 96.9423 211.155C99.0981 209.912 100.855 211.235 100.855 214.115C100.855 216.994 99.0981 220.346 96.9423 221.589Z" fill="#E0E0E0"/>
<path d="M99.3376 217.307C98.7055 218.903 97.6342 220.106 96.4765 220.778C96.084 221.004 95.7114 221.117 95.3987 221.117C95.0261 221.117 94.74 220.944 94.5337 220.685L94.6135 219.448C94.6734 218.876 95.0194 218.277 95.4319 218.045L98.4526 216.296C98.8652 216.056 99.2111 216.256 99.271 216.755L99.3309 217.307H99.3376Z" fill="#FAFAFA"/>
<path d="M98.1997 214.121C98.1997 215.026 97.6541 216.07 96.9755 216.462C96.2968 216.854 95.7512 216.435 95.7512 215.538C95.7512 214.64 96.2968 213.589 96.9755 213.197C97.6541 212.805 98.1997 213.223 98.1997 214.121Z" fill="#FAFAFA"/>
<path d="M87.4077 231.052C87.3013 231.052 87.1948 230.992 87.1349 230.892C87.0484 230.739 87.1017 230.547 87.248 230.46L169.207 183.166C169.36 183.079 169.552 183.133 169.639 183.279C169.725 183.432 169.672 183.625 169.526 183.711L87.5674 231.005C87.5208 231.032 87.4609 231.045 87.4077 231.045V231.052Z" fill="#E0E0E0"/>
<path d="M109.038 205.769L130.257 193.526C130.882 193.161 131.394 193.42 131.394 194.105C131.394 194.79 130.882 195.634 130.257 195.993L109.038 208.236C108.413 208.602 107.901 208.342 107.901 207.657C107.901 206.973 108.413 206.128 109.038 205.769Z" fill="#455A64"/>
<path d="M109.038 210.703L148.481 187.94C149.113 187.575 149.618 187.834 149.618 188.519C149.618 189.204 149.106 190.048 148.481 190.408L109.038 213.17C108.413 213.536 107.901 213.277 107.901 212.592C107.901 211.907 108.413 211.062 109.038 210.703Z" fill="#E0E0E0"/>
<path d="M96.9423 239.324C94.7866 240.568 93.03 239.245 93.03 236.365C93.03 233.486 94.7866 230.134 96.9423 228.891C99.0981 227.647 100.855 228.971 100.855 231.85C100.855 234.729 99.0981 238.081 96.9423 239.324Z" fill="#E0E0E0"/>
<path d="M99.3376 235.042C98.7055 236.638 97.6342 237.842 96.4765 238.507C96.084 238.733 95.7114 238.846 95.3987 238.846C95.0261 238.846 94.74 238.673 94.5337 238.413L94.6135 237.177C94.6734 236.605 95.0194 236.006 95.4319 235.773L98.4526 234.024C98.8652 233.785 99.2111 233.985 99.271 234.483L99.3309 235.035L99.3376 235.042Z" fill="#FAFAFA"/>
<path d="M98.1997 231.857C98.1997 232.761 97.6541 233.805 96.9755 234.197C96.2968 234.59 95.7512 234.171 95.7512 233.273C95.7512 232.375 96.2968 231.325 96.9755 230.932C97.6541 230.54 98.1997 230.959 98.1997 231.857Z" fill="#FAFAFA"/>
<path d="M87.4077 248.787C87.3013 248.787 87.1948 248.727 87.1349 248.628C87.0484 248.475 87.1017 248.282 87.248 248.195L169.207 200.901C169.36 200.815 169.552 200.868 169.639 201.014C169.725 201.167 169.672 201.36 169.526 201.446L87.5674 248.741C87.5208 248.767 87.4609 248.781 87.4077 248.781V248.787Z" fill="#E0E0E0"/>
<path d="M109.038 223.504L130.257 211.262C130.882 210.896 131.394 211.155 131.394 211.84C131.394 212.525 130.882 213.37 130.257 213.729L109.038 225.971C108.413 226.337 107.901 226.078 107.901 225.393C107.901 224.708 108.413 223.863 109.038 223.504Z" fill="#455A64"/>
<path d="M109.038 228.439L148.481 205.676C149.113 205.31 149.618 205.569 149.618 206.254C149.618 206.939 149.106 207.784 148.481 208.143L109.038 230.906C108.413 231.271 107.901 231.012 107.901 230.327C107.901 229.642 108.413 228.798 109.038 228.439Z" fill="#E0E0E0"/>
<path d="M87.4077 124.467C87.3013 124.467 87.1948 124.407 87.1349 124.307C87.0484 124.154 87.1017 123.961 87.248 123.875L169.207 76.5806C169.36 76.4942 169.552 76.5474 169.639 76.6937C169.725 76.8466 169.672 77.0395 169.526 77.1259L87.5674 124.42C87.5208 124.447 87.4609 124.46 87.4077 124.46V124.467Z" fill="#E0E0E0"/>
<path d="M260.267 244.358C259.642 235.773 260.606 229.19 259.895 215.777C259.828 212.339 259.708 208.655 259.475 205.39C258.697 194.384 257 190.62 256.847 188.499C256.847 188.499 256.554 171.375 255.836 147.296C255.497 135.971 252.662 131.762 250.034 125.75L217.165 125.385C213.679 140.221 213.918 173.716 214.018 189.004C214.071 196.798 217.219 238.507 217.285 239.464C217.511 242.869 217.212 244.212 215.875 245.642C213.08 248.641 209.028 251.494 205.528 254.107C206.034 255.444 210.246 255.397 212.335 254.38C215.668 252.751 218.975 250.27 220.106 249.426C222.987 247.298 226.66 245.589 226.707 242.35C226.713 241.945 226.826 241.838 226.806 241.772C226.86 239.883 231.271 211.98 231.644 205.51C231.956 199.944 231.284 190.501 231.284 190.501L234.877 166.92C234.877 166.92 237.093 180.858 239.335 190.374C241.158 198.121 243.58 211.335 245.636 220.871C247.605 231.85 251.092 239.67 251.591 245.163C251.744 246.473 253.228 259.361 253.846 262.307C254.459 265.259 260.893 265.332 261.305 260.258C261.578 256.88 260.394 245.974 260.28 244.358H260.267Z" fill="#C8856A"/>
<path d="M234.87 166.92L232.242 149.909C232.242 149.909 222.089 148.706 218.396 145.155C218.396 145.155 223.054 151.725 229.947 152.796L232.841 166.893L231.311 190.295L234.87 166.92Z" fill="#AF6152"/>
<path d="M199.567 257.532C199.387 257.532 199.101 259.487 200.059 260.332C201.164 261.309 204.424 262.918 208.762 262.406C213.1 261.894 215.455 260.578 217.205 259.148C218.955 257.718 221.404 255.697 223.366 255.284C225.19 254.905 227.172 254.101 227.764 253.542C228.35 252.983 228.297 250.483 228.297 250.483L199.567 257.519V257.532Z" fill="#263238"/>
<path d="M226.9 240.854C226.9 240.854 227.226 240.867 227.332 241.446C227.458 242.137 227.578 244.139 227.858 245.276C228.237 246.852 228.47 250.077 228.217 251.354C227.964 252.631 224.99 253.489 223.087 254.194C221.144 254.912 218.889 256.408 216.906 258.004C214.85 259.66 210.552 261.296 207.731 261.309C203.419 261.329 200.645 260.125 199.8 258.569C198.755 256.641 199.6 255.544 204.577 253.303C205.522 252.877 208.835 250.969 209.96 250.27C211.151 249.539 212.302 248.721 213.353 247.797C213.885 247.331 214.398 246.839 214.883 246.32C215.309 245.861 215.901 245.309 216.154 244.731C216.214 244.598 216.254 244.452 216.3 244.312C216.447 243.92 216.553 243.561 216.633 243.155C216.72 242.743 216.773 242.144 217.165 241.905C217.618 241.625 218.43 241.672 218.935 241.712C219.574 241.765 220.219 241.858 220.845 242.004C221.57 242.177 222.415 242.25 222.841 242.935C223.167 243.461 223.207 244.126 223.227 244.731C223.233 245.017 223.227 245.309 223.227 245.602C223.227 245.728 223.174 245.948 223.347 245.895C223.513 245.848 223.699 245.416 223.766 245.27C223.905 244.95 223.999 244.605 224.152 244.285C224.325 243.926 224.524 243.554 224.777 243.241C225.017 242.955 225.269 242.676 225.569 242.45C225.842 242.244 226.181 242.144 226.421 241.911C226.727 241.612 226.86 241.087 226.893 240.841L226.9 240.854Z" fill="#37474F"/>
<path d="M203.765 253.668C209.999 254.167 211.922 258.037 212.162 260.425C210.612 260.957 209.015 261.303 207.724 261.309C203.412 261.329 200.458 260.125 199.613 258.569C198.629 256.754 199.327 255.304 203.765 253.668Z" fill="#FAFAFA"/>
<path d="M213.113 253.835C213.18 253.835 213.246 253.815 213.306 253.768C213.439 253.662 213.459 253.469 213.353 253.343C212.495 252.272 210.006 250.836 207.737 251.062C207.571 251.075 207.445 251.228 207.464 251.394C207.478 251.56 207.624 251.687 207.797 251.667C209.913 251.467 212.202 252.877 212.88 253.722C212.94 253.795 213.027 253.835 213.113 253.835Z" fill="#F0F0F0"/>
<path d="M215.821 252.299C215.888 252.299 215.954 252.279 216.014 252.232C216.147 252.126 216.167 251.933 216.061 251.806C215.203 250.736 212.714 249.299 210.445 249.526C210.279 249.539 210.153 249.692 210.172 249.858C210.186 250.024 210.332 250.151 210.505 250.131C212.621 249.925 214.91 251.341 215.588 252.185C215.648 252.259 215.735 252.299 215.821 252.299Z" fill="#F0F0F0"/>
<path d="M218.33 250.536C218.396 250.536 218.463 250.516 218.523 250.47C218.656 250.363 218.676 250.171 218.569 250.044C217.711 248.974 215.209 247.537 212.954 247.763C212.787 247.777 212.661 247.929 212.681 248.096C212.694 248.262 212.84 248.382 213.013 248.368C215.129 248.169 217.418 249.579 218.097 250.423C218.157 250.496 218.243 250.536 218.33 250.536Z" fill="#F0F0F0"/>
<path d="M220.785 248.774C220.851 248.774 220.918 248.754 220.978 248.708C221.111 248.608 221.137 248.415 221.031 248.282C219.853 246.759 217.165 245.742 214.896 245.961C214.73 245.974 214.604 246.127 214.624 246.294C214.637 246.46 214.783 246.58 214.956 246.566C216.999 246.367 219.507 247.304 220.552 248.654C220.612 248.734 220.698 248.774 220.791 248.774H220.785Z" fill="#F0F0F0"/>
<path d="M251.811 264.608C251.984 267.547 252.436 269.495 253.481 271.224C254.525 272.947 256.495 273.492 258.491 272.986C260.487 272.481 263.042 271.131 263.614 268.598C264.186 266.064 264.519 264.322 264.066 261.595L251.811 264.614V264.608Z" fill="#263238"/>
<path d="M260.201 243.308C261.026 243.374 261.265 247.318 261.738 251.274C262.243 255.51 263.514 257.266 263.967 260.737C264.486 264.707 263.827 266.483 262.436 268.883C261.046 271.284 256.115 273.638 253.687 270.2C251.711 267.401 251.624 264.288 251.804 260.325C251.99 256.229 251.704 253.389 251.538 250.277C251.378 247.304 250.719 244.305 251.431 243.979C251.485 244.418 251.538 244.97 251.598 245.396C251.671 245.921 251.671 246.48 251.864 246.979C251.95 247.198 252.13 247.431 252.203 247.072C252.256 246.826 252.23 246.573 252.203 246.334C252.083 245.236 252.636 245.15 252.935 245.063C253.58 244.877 256.129 244.565 256.747 244.525C257.373 244.485 259.542 244.385 259.821 244.744C260.014 244.984 260.041 245.389 260.101 245.895C260.174 246.493 260.307 246.932 260.327 246.739C260.367 246.314 260.28 245.196 260.274 244.93C260.261 244.671 260.221 244.319 260.221 244.066C260.221 243.813 260.221 243.56 260.201 243.301V243.308Z" fill="#37474F"/>
<path d="M264.193 263.038C264.332 265.505 263.747 267.194 262.656 269.07C261.265 271.47 255.942 273.831 253.514 270.393C252.303 268.684 251.983 266.662 251.817 264.594C253.274 261.948 261.897 260.777 264.193 263.032V263.038Z" fill="#FAFAFA"/>
<path d="M253.607 260.285C253.64 260.285 253.673 260.272 253.707 260.258C253.74 260.245 257.546 258.669 261.245 259.527C261.412 259.56 261.571 259.46 261.611 259.301C261.651 259.135 261.545 258.975 261.385 258.935C257.473 258.031 253.594 259.64 253.447 259.713C253.294 259.786 253.234 259.966 253.301 260.119C253.361 260.239 253.48 260.305 253.607 260.292V260.285Z" fill="#F0F0F0"/>
<path d="M261.066 256.568C261.179 256.554 261.285 256.481 261.325 256.362C261.378 256.202 261.292 256.029 261.132 255.976C257.446 254.726 253.361 256.601 253.201 256.681C253.055 256.761 252.995 256.94 253.075 257.093C253.154 257.239 253.341 257.293 253.487 257.219C253.52 257.2 257.506 255.384 260.933 256.554C260.972 256.568 261.019 256.574 261.059 256.568H261.066Z" fill="#F0F0F0"/>
<path d="M260.932 253.781C261.046 253.768 261.145 253.695 261.192 253.582C261.252 253.422 261.165 253.249 261.006 253.19C256.954 251.74 253.075 253.781 252.928 253.875C252.782 253.961 252.735 254.147 252.828 254.294C252.915 254.44 253.108 254.486 253.248 254.393C253.281 254.373 257.034 252.412 260.806 253.762C260.853 253.775 260.899 253.781 260.939 253.775L260.932 253.781Z" fill="#F0F0F0"/>
<path d="M260.733 251.035C260.846 251.022 260.946 250.949 260.986 250.842C261.046 250.683 260.966 250.51 260.806 250.45C257.007 249.027 252.829 251.128 252.676 251.215C252.529 251.294 252.483 251.487 252.562 251.627C252.642 251.773 252.829 251.826 252.975 251.74C253.008 251.72 257.06 249.692 260.587 251.015C260.633 251.035 260.68 251.035 260.726 251.035H260.733Z" fill="#EBEBEB"/>
<path d="M226.474 91.9553C219.867 93.0924 218.29 93.5845 215.349 98.0067C212.335 102.542 208.403 108.108 203.865 115.064L191.988 109.518L187.224 117.79C187.224 117.79 199.999 125.996 204.717 127.586C208.25 128.776 209.081 127.227 211.689 124.5C214.597 121.468 223.134 111.573 223.134 111.573L226.467 91.9553H226.474Z" fill="#C8856A"/>
<path d="M203.872 115.064C205.881 115.742 208.01 117.657 208.383 118.794C207.232 115.283 205.409 114.645 204.45 114.186L203.872 115.064Z" fill="#AF6152"/>
<path d="M177.151 96.2112H177.131L177.943 95.4531V95.4664C178.129 95.3068 178.422 95.247 178.808 95.3334L188.016 97.4481C188.868 97.641 189.819 98.4655 190.139 99.2768L197.451 117.923C197.617 118.356 197.571 118.695 197.371 118.894H197.378L196.539 119.679V119.666C196.36 119.832 196.06 119.892 195.668 119.805L186.459 117.691C185.608 117.498 184.656 116.673 184.337 115.862C182.9 112.198 178.462 100.879 177.025 97.2154C176.845 96.7565 176.911 96.4041 177.151 96.2112Z" fill="#455A64"/>
<path d="M188.216 98.6917C188.708 99.0441 189.134 99.5495 189.327 100.042L196.639 118.681C196.799 119.1 196.772 119.433 196.586 119.632L197.371 118.901H197.364C197.571 118.695 197.617 118.356 197.451 117.923L190.139 99.2768C189.959 98.818 189.566 98.3592 189.114 98.0001L188.216 98.6917Z" fill="#263238"/>
<path d="M196.639 118.681L189.327 100.035C189.008 99.217 188.056 98.399 187.204 98.2062L177.996 96.0915C177.144 95.8987 176.712 96.3974 177.031 97.2154C178.468 100.879 182.906 112.198 184.343 115.862C184.663 116.68 185.614 117.498 186.466 117.69L195.674 119.805C196.526 119.998 196.959 119.499 196.639 118.681Z" fill="#37474F"/>
<path d="M189.473 104.005L188.103 100.514C188.043 100.361 187.863 100.208 187.704 100.168L185.98 99.7756C185.821 99.7357 185.741 99.8355 185.801 99.9884C186.067 100.673 186.898 102.795 187.171 103.48C187.231 103.633 187.411 103.786 187.57 103.825L189.294 104.218C189.453 104.258 189.533 104.158 189.473 104.005Z" fill="#455A64"/>
<path d="M188.056 101.365C187.91 100.992 187.457 100.613 187.045 100.52C186.632 100.427 186.413 100.653 186.559 101.019C186.705 101.391 187.158 101.771 187.57 101.864C187.983 101.957 188.203 101.737 188.056 101.365Z" fill="#263238"/>
<path d="M188.721 103.127C188.575 102.755 188.123 102.376 187.71 102.283C187.298 102.19 187.078 102.416 187.224 102.781C187.371 103.154 187.823 103.533 188.236 103.626C188.648 103.719 188.868 103.5 188.721 103.127Z" fill="#263238"/>
<path d="M179.253 107.629C178.169 106.419 178.235 106.233 178.675 105.508C179.107 104.783 180.125 103.553 181.848 103.42C183.006 103.327 184.17 103.18 184.802 103.42C185.435 103.659 185.062 104.969 183.592 105.468C181.276 106.259 181.363 106.898 181.363 106.898C181.363 106.898 183.492 106.173 184.363 106.026C185.235 105.88 186.878 106.126 187.896 106.173C188.914 106.219 189.254 107.489 187.604 108.121C187.604 108.121 188.888 108.188 189.467 108.214C190.771 108.281 191.283 108.913 190.365 109.817C190.145 110.03 189.839 110.289 189.254 110.382C189.254 110.382 190.618 110.229 190.698 110.681C190.924 111.972 190.112 112.41 187.444 113.508C184.896 114.558 184.51 116.035 185.135 116.952C185.135 116.952 184.004 116.454 182.993 115.902C182.248 115.503 181.602 115.024 181.795 113.913C181.795 113.913 180.291 114.106 180.098 113.188C179.905 112.271 180.245 111.154 180.245 111.154C180.245 111.154 179.313 110.814 179.247 109.704C179.18 108.593 179.613 108.008 179.613 108.008L179.247 107.622L179.253 107.629Z" fill="#C8856A"/>
<path d="M187.61 108.121C187.051 108.101 186.519 108.035 185.927 108.121C185.328 108.241 184.849 108.547 184.37 108.806C183.419 109.365 182.487 109.957 181.635 110.675C182.687 110.289 183.658 109.777 184.61 109.232C185.082 108.959 185.548 108.647 186.014 108.487C186.499 108.354 187.078 108.281 187.604 108.115L187.61 108.121Z" fill="#AF6152"/>
<path d="M189.26 110.382C188.668 110.276 188.03 110.329 187.457 110.522C186.872 110.701 186.333 110.967 185.801 111.247C184.756 111.825 183.758 112.477 182.846 113.268C183.958 112.809 184.996 112.238 186.033 111.679C187.071 111.12 188.063 110.535 189.26 110.382Z" fill="#AF6152"/>
<path d="M256.794 141.165C255.65 131.749 251.238 126.788 250.892 123.629C250.327 118.415 252.429 111.406 252.942 107.975C254.059 100.5 251.917 94.2429 250.174 92.7666C250.174 92.7666 248.198 92.2745 246.541 91.9819C245.224 91.7425 244.212 91.5896 242.476 91.1706C238.157 90.1266 233.44 91.1507 231.797 91.3236C230.985 91.4034 229.894 91.2238 228.423 91.563C227.259 91.8356 224.551 92.3011 224.551 92.3011C224.551 92.3011 222.302 94.5621 219.341 98.5254C217.019 101.638 214.704 104.49 214.245 110.07C214.045 112.49 213.932 120.982 213.652 130.246C213.067 149.344 212.042 174.361 212.042 174.361C216.274 177.527 221.863 180.379 233.813 180.193C247.087 179.987 255.503 178.158 260.6 173.397C260.6 173.397 258.757 157.218 256.807 141.171L256.794 141.165Z" fill="#37474F"/>
<path d="M220.692 61.1062C225.409 55.2742 231.75 54.0041 237.652 55.3806C241.152 56.1986 244.798 58.2601 245.816 61.9574C248.723 61.9574 250.686 65.0496 251.032 70.6289C251.378 76.2082 251.977 84.7401 250.174 87.5663C248.903 89.548 247.047 90.0467 246.514 90.0733C248.091 88.8165 248.357 87.7193 248.537 87.0144C248.537 87.0144 247.612 88.6636 245.051 89.9204C242.901 90.9777 241.018 91.4299 237.705 91.543C233.686 91.676 229.734 91.1107 227.858 90.2795C229.554 89.4948 229.994 88.105 229.994 88.105C229.994 88.105 228.21 90.3659 224.458 89.1956C226.115 88.8498 227.053 86.8481 227.086 83.45C227.093 82.3927 227.099 79.9123 227.099 77.0062C225.057 76.0819 222.934 75.6895 221.73 73.3887C220.852 71.7062 220.732 69.6846 221.178 67.8426C220.279 68.5675 219.74 69.7113 219.747 70.8683C218.05 67.8559 218.509 63.8061 220.685 61.1195L220.692 61.1062Z" fill="#37474F"/>
<path d="M242.449 89.2953C242.449 88.0717 242.682 81.9271 242.682 81.9271C242.728 82.386 244.951 83.6561 246.96 81.3087C249.029 78.9014 249.136 76.4476 247.952 74.8317C246.647 73.0495 243.707 73.1226 242.509 76.0021C240.586 76.4343 239.734 73.5017 241.225 70.7087C241.125 67.131 237.452 67.2906 235.642 62.6623C231.012 65.0496 226.747 63.1012 223.786 66.5658C223.174 68.2948 222.688 71.0146 222.641 75.8691C222.562 83.7891 224.092 85.6844 226.241 86.6619C227.518 87.2471 229.095 87.4133 231.544 87.2338L231.411 89.282C231.358 90.3061 231.444 90.745 230.446 91.0708C229.774 91.2903 228.437 91.5696 228.437 91.5696C228.437 91.5696 225.529 94.2827 231.877 95.1871C241.351 96.5371 246.554 91.9885 246.554 91.9885C246.554 91.9885 245.909 91.8821 244.292 91.5762C242.622 91.2637 242.462 90.5255 242.462 89.3019L242.449 89.2953Z" fill="#C8856A"/>
<path d="M245.436 80.5107C245.416 81.0427 244.977 81.455 244.445 81.435C243.913 81.4151 243.5 80.9762 243.52 80.4442C243.54 79.9122 243.979 79.4999 244.512 79.5199C245.044 79.5398 245.456 79.9787 245.436 80.5107Z" fill="white"/>
<path d="M234.012 79.8524L230.573 80.9163C230.845 81.9005 231.843 82.4591 232.788 82.1665C233.74 81.8739 234.285 80.8365 234.006 79.859L234.012 79.8524Z" fill="#AF6152"/>
<path d="M233.786 80.6371C232.828 80.6038 232.003 81.2622 231.797 82.1599C232.11 82.253 232.456 82.2597 232.795 82.1599C233.474 81.9471 233.946 81.3553 234.052 80.677C233.966 80.6637 233.879 80.6437 233.786 80.6437V80.6371Z" fill="#FFA8A7"/>
<path d="M224.099 69.4785L226.847 69.2058C226.8 68.4344 226.141 67.8758 225.383 67.9556C224.624 68.0288 224.045 68.7137 224.092 69.4851L224.099 69.4785Z" fill="#37474F"/>
<path d="M237.126 69.7578L234.385 69.1925C234.511 68.4211 235.23 67.929 235.989 68.082C236.747 68.2416 237.253 68.9864 237.126 69.7578Z" fill="#37474F"/>
<path d="M227.173 72.9631C227.212 73.5881 226.733 74.1467 226.101 74.2066C225.469 74.2664 224.917 73.8076 224.877 73.1759C224.837 72.5508 225.316 71.9922 225.948 71.9323C226.58 71.8725 227.133 72.3313 227.173 72.9631Z" fill="#263238"/>
<path d="M235.523 73.2423C235.563 73.8674 235.084 74.426 234.452 74.4859C233.82 74.5457 233.267 74.0869 233.227 73.4551C233.188 72.8301 233.667 72.2715 234.299 72.2116C234.931 72.1518 235.483 72.6106 235.523 73.2423Z" fill="#263238"/>
<path d="M226.374 76.7336L230 78.5024L230.805 71.4934L226.374 76.7336Z" fill="#AF6152"/>
<path d="M231.537 87.2272C235.922 86.8215 240.127 85.425 241.132 83.4367C241.132 83.4367 241.132 85.6179 239.342 86.642C236.84 88.085 231.438 88.77 231.438 88.77L231.537 87.2205V87.2272Z" fill="#AF6152"/>
<path d="M228.869 108.726C226.713 107.124 225.629 106.499 224.631 106.219C223.626 105.933 220.106 104.47 218.756 104.138C217.897 103.925 217.551 105.288 218.642 106.219C219.481 106.938 221.663 107.888 222.621 108.407C223.579 108.933 225.462 111.213 225.462 111.213L228.876 108.726H228.869Z" fill="#AF6152"/>
<path d="M259.123 98.2594C256.987 93.7109 255.171 93.272 250.001 92.6801C245.144 97.4149 249.083 108.008 249.083 108.008L251.684 120.769C251.684 120.769 238.816 117.311 237.359 116.38C235.902 115.449 231.996 111.253 230.685 109.997C228.902 108.288 228.017 108.514 227.113 108.653C224.145 109.099 223.493 109.352 222.868 109.744C222.242 110.143 222.289 110.901 222.289 110.901C221.504 111.001 220.319 110.974 220.166 112.271C220.066 113.122 220.12 113.308 220.12 113.308C220.12 113.308 219.834 113.335 219.607 113.601C218.949 114.359 220.073 116.992 220.792 117.631C221.291 118.083 222.009 118.136 222.947 118.01C223.746 117.903 223.373 117.092 223.373 117.092L224.491 117.159C226.906 118.874 227.026 122.266 230.22 123.017C230.892 123.177 232.276 123.157 234.119 123.775C240.992 126.083 252.256 133.072 258.378 133.604C264.352 134.116 264.179 130.937 264.273 127.273C264.352 124.008 261.245 102.801 259.116 98.2727L259.123 98.2594Z" fill="#C8856A"/>
<path d="M251.431 119.519L251.684 120.769C254.405 121.468 257.346 123.429 257.998 124.912C257.493 122.552 256.222 120.796 251.431 119.519Z" fill="#AF6152"/>
<path d="M222.289 110.894L225.815 110.183L222.362 110.409C222.309 110.575 222.282 110.735 222.289 110.894Z" fill="#AF6152"/>
<path d="M220.12 113.302L224.178 112.776L220.113 112.829C220.093 112.976 220.1 113.135 220.113 113.302H220.12Z" fill="#AF6152"/>
<path d="M220.652 115.09C220.778 115.297 220.978 115.456 221.197 115.563C221.417 115.676 221.65 115.749 221.889 115.802L221.836 115.762C221.943 115.975 222.062 116.181 222.176 116.387L222.262 116.281C222.029 116.241 221.796 116.301 221.617 116.44C221.437 116.573 221.331 116.773 221.264 116.972C221.37 116.786 221.51 116.633 221.677 116.533C221.843 116.44 222.049 116.394 222.229 116.434L222.382 116.467L222.309 116.327C222.202 116.114 222.089 115.908 221.969 115.702L221.949 115.669H221.916C221.69 115.622 221.464 115.556 221.244 115.476C221.031 115.39 220.812 115.283 220.652 115.104V115.09Z" fill="#AF6152"/>
<path d="M221.736 115.609C222.142 115.696 223.207 115.715 223.207 115.715C223.207 115.715 223.24 116.008 223.712 116.494C223.965 116.753 224.498 117.152 224.498 117.152L223.38 117.085C223.38 117.085 223.107 116.587 222.102 116.394L221.736 115.609Z" fill="#AF6152"/>
<path d="M239.322 45.8978L235.696 43.8031C235.622 43.7698 235.562 43.7233 235.523 43.6501L234.857 42.4864L237.013 41.2429L236.946 41.4357L239.322 45.8978Z" fill="#263238"/>
<path d="M236.68 41.4224L239.189 45.7648C239.348 46.0441 239.761 46.0042 239.867 45.6983L242.522 38.0443L236.68 41.4158V41.4224Z" fill="#37474F"/>
<path d="M248.524 18.2408C248.524 17.1236 247.738 15.7603 246.767 15.2017L246.381 14.969C245.41 14.4104 243.839 14.4104 242.875 14.969L214.471 31.3411C213.499 31.8997 212.714 33.2563 212.714 34.3802V48.7573C212.714 49.8745 213.499 51.2377 214.471 51.7963L214.857 52.0291C215.828 52.5877 217.398 52.5877 218.363 52.0291L246.927 35.5372C248.504 34.6395 248.517 33.7351 248.517 32.6179V18.2408H248.524Z" fill="#37474F"/>
<path d="M212.721 48.7573C212.721 49.8745 213.506 51.2378 214.477 51.7963L214.863 52.0291C215.741 52.5345 217.099 52.581 218.07 52.1754C217.245 52.4879 216.613 52.0158 216.613 51.0183V36.6411C216.613 36.0826 216.813 35.4641 217.125 34.9122L213.233 32.6578C212.914 33.2098 212.721 33.8282 212.721 34.3868V48.764V48.7573Z" fill="#263238"/>
<path d="M248.464 17.742C248.257 16.9972 247.579 16.7578 246.767 17.23L218.363 33.6088C217.877 33.8881 217.438 34.3602 217.125 34.9188L213.233 32.6645C213.553 32.1059 213.985 31.6337 214.471 31.3544L242.868 14.9756C243.839 14.4171 245.41 14.4171 246.381 14.9756L246.767 15.2084C247.592 15.6805 248.291 16.7445 248.464 17.742Z" fill="#455A64"/>
<path d="M221.324 39.6004L241.611 27.8366C242.196 27.4975 242.675 26.7926 242.675 26.2672C242.675 25.7419 242.196 25.5823 241.611 25.9214L221.324 37.6852C220.738 38.0243 220.259 38.7292 220.259 39.2546C220.259 39.7799 220.738 39.9395 221.324 39.6004ZM241.617 30.736L221.33 42.4931C220.745 42.8322 220.266 43.5371 220.266 44.0625C220.266 44.5878 220.745 44.7474 221.33 44.4083L241.617 32.6512C242.203 32.312 242.682 31.6071 242.682 31.0818C242.682 30.5564 242.203 30.3968 241.617 30.736Z" fill="#257367"/>
<path opacity="0.4" d="M221.324 39.6004L241.611 27.8366C242.196 27.4975 242.675 26.7926 242.675 26.2672C242.675 25.7419 242.196 25.5823 241.611 25.9214L221.324 37.6852C220.738 38.0243 220.259 38.7292 220.259 39.2546C220.259 39.7799 220.738 39.9395 221.324 39.6004ZM241.617 30.736L221.33 42.4931C220.745 42.8322 220.266 43.5371 220.266 44.0625C220.266 44.5878 220.745 44.7474 221.33 44.4083L241.617 32.6512C242.203 32.312 242.682 31.6071 242.682 31.0818C242.682 30.5564 242.203 30.3968 241.617 30.736Z" fill="white"/>
<path d="M193.412 43.9029L189.786 41.8081C189.713 41.7749 189.653 41.7283 189.613 41.6552L188.948 40.4915L191.103 39.2479L191.037 39.4408L193.412 43.9029Z" fill="#257367"/>
<path opacity="0.1" d="M193.412 43.9029L189.786 41.8081C189.713 41.7749 189.653 41.7283 189.613 41.6552L188.948 40.4915L191.103 39.2479L191.037 39.4408L193.412 43.9029Z" fill="black"/>
<path d="M190.771 39.4341L193.279 43.7765C193.439 44.0558 193.851 44.0159 193.958 43.71L196.613 36.056L190.771 39.4275V39.4341Z" fill="#257367"/>
<path opacity="0.2" d="M190.771 39.4341L193.279 43.7765C193.439 44.0558 193.851 44.0159 193.958 43.71L196.613 36.056L190.771 39.4275V39.4341Z" fill="white"/>
<path d="M220.545 3.69071C220.545 2.57352 219.76 1.21029 218.789 0.651694L218.403 0.418946C217.431 -0.139649 215.861 -0.139649 214.896 0.418946L181.176 19.8833C180.205 20.4419 179.42 21.7985 179.42 22.9223V39.4674C179.42 40.5845 180.205 41.9478 181.176 42.5064L181.562 42.7391C182.534 43.2977 184.104 43.2977 185.069 42.7391L218.955 23.1551C220.532 22.2573 220.545 21.3529 220.545 20.2358V3.69071Z" fill="#257367"/>
<path opacity="0.2" d="M220.545 3.69071C220.545 2.57352 219.76 1.21029 218.789 0.651694L218.403 0.418946C217.431 -0.139649 215.861 -0.139649 214.896 0.418946L181.176 19.8833C180.205 20.4419 179.42 21.7985 179.42 22.9223V39.4674C179.42 40.5845 180.205 41.9478 181.176 42.5064L181.562 42.7391C182.534 43.2977 184.104 43.2977 185.069 42.7391L218.955 23.1551C220.532 22.2573 220.545 21.3529 220.545 20.2358V3.69071Z" fill="white"/>
<path d="M179.426 39.4607C179.426 40.5779 180.211 41.9412 181.183 42.4997L181.569 42.7325C182.447 43.2379 183.804 43.2844 184.776 42.8788C183.951 43.1913 183.319 42.7192 183.319 41.7217V25.1767C183.319 24.6181 183.518 23.9996 183.831 23.4477L179.939 21.1934C179.619 21.7453 179.426 22.3637 179.426 22.9223V39.4674V39.4607Z" fill="#257367"/>
<path opacity="0.4" d="M220.492 3.19197C220.286 2.44718 219.607 2.20778 218.795 2.67992L185.069 22.1509C184.583 22.4302 184.144 22.9024 183.831 23.461L179.939 21.2066C180.258 20.648 180.691 20.1759 181.176 19.8966L214.897 0.418946C215.868 -0.139649 217.438 -0.139649 218.41 0.418946L218.795 0.651694C219.621 1.12384 220.319 2.18783 220.492 3.18532V3.19197Z" fill="white"/>
<path d="M188.029 29.8249L206.26 19.2715C206.846 18.9323 207.325 19.0853 207.325 19.6173C207.325 20.1493 206.846 20.8542 206.26 21.1867L188.029 31.7401C187.444 32.0792 186.965 31.9263 186.965 31.3943C186.965 30.8623 187.444 30.1574 188.029 29.8249Z" fill="white"/>
<path d="M188.029 34.6395L213.632 19.7902C214.218 19.4511 214.697 19.604 214.697 20.136C214.697 20.668 214.218 21.3729 213.632 21.7054L188.029 36.5547C187.444 36.8938 186.965 36.7409 186.965 36.2089C186.965 35.6769 187.444 34.972 188.029 34.6395Z" fill="white"/>
<path d="M188.029 24.7643L213.632 9.91503C214.218 9.57588 214.697 9.72883 214.697 10.2608C214.697 10.7928 214.218 11.4977 213.632 11.8302L188.029 26.6795C187.444 27.0187 186.965 26.8657 186.965 26.3337C186.965 25.8017 187.444 25.0968 188.029 24.7643Z" fill="white"/>
</svg>
