<svg width="227" height="152" viewBox="0 0 227 152" fill="none" xmlns="http://www.w3.org/2000/svg">
<path d="M227 27.9668L6.69551 27.9668V9.78421C6.69551 7.78163 8.31697 6.16017 10.3195 6.16017L223.376 6.16017C225.379 6.16017 227 7.78163 227 9.78421V27.9668Z" fill="#3C5AE7"/>
<path d="M6.6955 27.9668L0.00868937 146.147C-0.164544 149.209 2.27458 151.794 5.34428 151.794H21.8084L6.70243 27.9668H6.6955Z" fill="#D6C8B9"/>
<path d="M222.538 151.96L11.158 151.96C8.69116 151.96 6.69551 149.958 6.69551 147.498L6.69551 27.9669L227 27.9669L227 147.498C227 149.965 224.997 151.96 222.538 151.96Z" fill="white"/>
<path d="M104.746 114.916C107.067 113.447 109.049 111.853 110.691 110.336C107.448 106.393 105.951 103.199 105.861 103.005C105.626 102.499 105.847 101.903 106.353 101.667C106.859 101.432 107.455 101.653 107.691 102.159C107.711 102.208 109.118 105.201 112.146 108.922C115.098 105.929 116.602 103.531 116.623 103.49C116.914 103.018 117.537 102.866 118.008 103.157C118.48 103.448 118.632 104.072 118.341 104.543C118.237 104.716 116.629 107.287 113.47 110.467C114.779 111.93 116.325 113.454 118.119 114.916C118.549 115.27 118.618 115.907 118.265 116.337C118.064 116.579 117.773 116.711 117.482 116.711C117.26 116.711 117.031 116.635 116.844 116.482C114.973 114.958 113.366 113.385 112.008 111.867C110.296 113.433 108.238 115.082 105.82 116.614C105.653 116.718 105.466 116.773 105.279 116.773C104.947 116.773 104.621 116.607 104.427 116.302C104.129 115.831 104.268 115.207 104.739 114.909L104.746 114.916Z" fill="#3C5AE7"/>
<path d="M104.746 52.6075C107.067 51.1385 109.049 49.5448 110.691 48.0272C107.448 44.0844 105.951 40.89 105.861 40.696C105.626 40.1902 105.847 39.5942 106.353 39.3586C106.859 39.123 107.455 39.3448 107.691 39.8506C107.711 39.8922 109.118 42.8926 112.146 46.6137C115.098 43.6202 116.602 41.2226 116.623 41.181C116.914 40.7099 117.537 40.5574 118.008 40.8484C118.48 41.1395 118.632 41.7631 118.341 42.2343C118.237 42.4075 116.629 44.9783 113.47 48.1589C114.779 49.621 116.325 51.1454 118.119 52.6075C118.549 52.9609 118.618 53.5984 118.265 54.028C118.064 54.2706 117.773 54.4022 117.482 54.4022C117.26 54.4022 117.031 54.326 116.844 54.1736C114.973 52.6491 113.366 51.0761 112.008 49.5586C110.296 51.1247 108.238 52.7738 105.82 54.3052C105.653 54.4092 105.466 54.4646 105.279 54.4646C104.947 54.4646 104.621 54.2983 104.427 53.9934C104.129 53.5222 104.268 52.8986 104.739 52.6006L104.746 52.6075Z" fill="#3C5AE7"/>
<path d="M50.3019 52.1849C52.6232 50.7159 54.605 49.1222 56.2472 47.6046C53.0043 43.6618 51.5076 40.4674 51.4175 40.2734C51.1819 39.7675 51.4036 39.1716 51.9095 38.936C52.4153 38.7004 53.0112 38.9222 53.2468 39.428C53.2676 39.4696 54.6743 42.47 57.7024 46.191C60.6543 43.1976 62.158 40.8 62.1787 40.7584C62.4698 40.2872 63.0934 40.1348 63.5646 40.4258C64.0358 40.7169 64.1883 41.3405 63.8972 41.8117C63.7933 41.9849 62.1857 44.5557 59.0259 47.7363C60.3355 49.1984 61.8808 50.7228 63.6755 52.1849C64.1051 52.5383 64.1744 53.1758 63.821 53.6054C63.62 53.848 63.329 53.9796 63.038 53.9796C62.8162 53.9796 62.5876 53.9034 62.4005 53.7509C60.5296 52.2265 58.922 50.6535 57.5638 49.136C55.8523 50.702 53.7942 52.3512 51.3759 53.8826C51.2096 53.9865 51.0225 54.042 50.8354 54.042C50.5028 54.042 50.1771 53.8757 49.9831 53.5708C49.6851 53.0996 49.8237 52.476 50.2949 52.178L50.3019 52.1849Z" fill="#3C5AE7"/>
<path d="M218.195 19.8989C219.032 16.9618 217.329 13.9026 214.392 13.0659C211.455 12.2293 208.396 13.932 207.559 16.8691C206.723 19.8062 208.425 22.8654 211.362 23.702C214.3 24.5387 217.359 22.8359 218.195 19.8989Z" fill="#DE4E00"/>
<path d="M208.582 18.3904C208.582 20.7741 210.515 22.7004 212.892 22.7004C215.269 22.7004 217.202 20.7671 217.202 18.3904C217.202 16.0136 215.269 14.0803 212.892 14.0803C210.515 14.0803 208.582 16.0136 208.582 18.3904Z" fill="#A53504"/>
<path d="M212.947 17.8223C212.947 17.8223 212.989 17.8223 213.017 17.8223C214.832 17.8084 216.28 16.2978 216.28 14.4823V3.29837C216.28 1.47595 214.804 0 212.982 0C211.16 0 209.684 1.47595 209.684 3.29837V14.4823C209.684 16.2978 211.132 17.8084 212.947 17.8223Z" fill="white"/>
<path d="M188.826 23.9201C191.88 23.9201 194.356 21.4444 194.356 18.3905C194.356 15.3365 191.88 12.8608 188.826 12.8608C185.772 12.8608 183.297 15.3365 183.297 18.3905C183.297 21.4444 185.772 23.9201 188.826 23.9201Z" fill="#DE4E00"/>
<path d="M188.826 22.7004C191.207 22.7004 193.136 20.7707 193.136 18.3904C193.136 16.01 191.207 14.0803 188.826 14.0803C186.446 14.0803 184.516 16.01 184.516 18.3904C184.516 20.7707 186.446 22.7004 188.826 22.7004Z" fill="#A53504"/>
<path d="M189.228 17.8223C189.228 17.8223 189.27 17.8223 189.297 17.8223C191.113 17.8084 192.561 16.2978 192.561 14.4823V3.29837C192.561 1.47595 191.085 0 189.263 0C187.44 0 185.964 1.47595 185.964 3.29837V14.4823C185.964 16.2978 187.413 17.8084 189.228 17.8223Z" fill="white"/>
<path d="M164.761 23.9201C167.81 23.9201 170.29 21.4394 170.29 18.3905C170.29 15.3415 167.81 12.8608 164.761 12.8608C161.712 12.8608 159.231 15.3415 159.231 18.3905C159.231 21.4394 161.712 23.9201 164.761 23.9201Z" fill="#DE4E00"/>
<path d="M160.451 18.3904C160.451 20.7741 162.384 22.7004 164.761 22.7004C167.137 22.7004 169.071 20.7671 169.071 18.3904C169.071 16.0136 167.137 14.0803 164.761 14.0803C162.384 14.0803 160.451 16.0136 160.451 18.3904Z" fill="#A53504"/>
<path d="M164.733 17.8223C164.733 17.8223 164.775 17.8223 164.802 17.8223C166.618 17.8084 168.066 16.2978 168.066 14.4823V3.29837C168.066 1.47595 166.59 0 164.768 0C162.945 0 161.469 1.47595 161.469 3.29837V14.4823C161.469 16.2978 162.917 17.8084 164.733 17.8223Z" fill="white"/>
<path d="M140.695 23.9201C143.749 23.9201 146.225 21.4444 146.225 18.3905C146.225 15.3365 143.749 12.8608 140.695 12.8608C137.641 12.8608 135.165 15.3365 135.165 18.3905C135.165 21.4444 137.641 23.9201 140.695 23.9201Z" fill="#DE4E00"/>
<path d="M136.385 18.3904C136.385 20.7741 138.318 22.7004 140.695 22.7004C143.072 22.7004 145.005 20.7671 145.005 18.3904C145.005 16.0136 143.072 14.0803 140.695 14.0803C138.318 14.0803 136.385 16.0136 136.385 18.3904Z" fill="#A53504"/>
<path d="M140.667 17.8223C140.667 17.8223 140.709 17.8223 140.737 17.8223C142.552 17.8084 144 16.2978 144 14.4823V3.29837C144 1.47595 142.524 0 140.702 0C138.88 0 137.404 1.47595 137.404 3.29837V14.4823C137.404 16.2978 138.852 17.8084 140.667 17.8223Z" fill="white"/>
<path d="M116.629 23.9201C119.683 23.9201 122.159 21.4444 122.159 18.3905C122.159 15.3365 119.683 12.8608 116.629 12.8608C113.576 12.8608 111.1 15.3365 111.1 18.3905C111.1 21.4444 113.576 23.9201 116.629 23.9201Z" fill="#DE4E00"/>
<path d="M112.319 18.3904C112.319 20.7741 114.253 22.7004 116.629 22.7004C119.006 22.7004 120.939 20.7671 120.939 18.3904C120.939 16.0136 119.006 14.0803 116.629 14.0803C114.253 14.0803 112.319 16.0136 112.319 18.3904Z" fill="#A53504"/>
<path d="M116.602 17.8223C116.602 17.8223 116.643 17.8223 116.671 17.8223C118.487 17.8084 119.935 16.2978 119.935 14.4823V3.29837C119.935 1.47595 118.459 0 116.636 0C114.814 0 113.338 1.47595 113.338 3.29837V14.4823C113.338 16.2978 114.786 17.8084 116.602 17.8223Z" fill="white"/>
<path d="M92.5639 23.9201C95.6178 23.9201 98.0935 21.4444 98.0935 18.3905C98.0935 15.3365 95.6178 12.8608 92.5639 12.8608C89.51 12.8608 87.0343 15.3365 87.0343 18.3905C87.0343 21.4444 89.51 23.9201 92.5639 23.9201Z" fill="#DE4E00"/>
<path d="M88.2539 18.3904C88.2539 20.7741 90.1872 22.7004 92.564 22.7004C94.9407 22.7004 96.874 20.7671 96.874 18.3904C96.874 16.0136 94.9407 14.0803 92.564 14.0803C90.1872 14.0803 88.2539 16.0136 88.2539 18.3904Z" fill="#A53504"/>
<path d="M92.9658 17.8223C92.9658 17.8223 93.0074 17.8223 93.0351 17.8223C94.8506 17.8084 96.2988 16.2978 96.2988 14.4823V3.29837C96.2988 1.47595 94.8229 0 93.0005 0C91.178 0 89.7021 1.47595 89.7021 3.29837V14.4823C89.7021 16.2978 91.1503 17.8084 92.9658 17.8223Z" fill="white"/>
<path d="M68.9349 23.9201C71.9838 23.9201 74.4645 21.4394 74.4645 18.3905C74.4645 15.3415 71.9838 12.8608 68.9349 12.8608C65.886 12.8608 63.4053 15.3415 63.4053 18.3905C63.4053 21.4394 65.886 23.9201 68.9349 23.9201Z" fill="#DE4E00"/>
<path d="M64.6249 18.3904C64.6249 20.7741 66.5582 22.7004 68.9349 22.7004C71.3117 22.7004 73.245 20.7671 73.245 18.3904C73.245 16.0136 71.3117 14.0803 68.9349 14.0803C66.5582 14.0803 64.6249 16.0136 64.6249 18.3904Z" fill="#A53504"/>
<path d="M68.9003 17.8223C68.9003 17.8223 68.9418 17.8223 68.9695 17.8223C70.785 17.8084 72.2333 16.2978 72.2333 14.4823V3.29837C72.2333 1.47595 70.7573 0 68.9349 0C67.1125 0 65.6365 1.47595 65.6365 3.29837V14.4823C65.6365 16.2978 67.0848 17.8084 68.9003 17.8223Z" fill="white"/>
<path d="M44.8693 23.9201C47.9232 23.9201 50.3989 21.4444 50.3989 18.3905C50.3989 15.3365 47.9232 12.8608 44.8693 12.8608C41.8153 12.8608 39.3397 15.3365 39.3397 18.3905C39.3397 21.4444 41.8153 23.9201 44.8693 23.9201Z" fill="#DE4E00"/>
<path d="M40.5593 18.3904C40.5593 20.7741 42.4926 22.7004 44.8693 22.7004C47.2461 22.7004 49.1794 20.7671 49.1794 18.3904C49.1794 16.0136 47.2461 14.0803 44.8693 14.0803C42.4926 14.0803 40.5593 16.0136 40.5593 18.3904Z" fill="#A53504"/>
<path d="M44.8346 17.8223C44.8346 17.8223 44.8762 17.8223 44.9039 17.8223C46.7194 17.8084 48.1677 16.2978 48.1677 14.4823V3.29837C48.1677 1.47595 46.6917 0 44.8693 0C43.0469 0 41.5709 1.47595 41.5709 3.29837V14.4823C41.5709 16.2978 43.0192 17.8084 44.8346 17.8223Z" fill="white"/>
<path d="M20.8037 23.9201C23.8576 23.9201 26.3333 21.4444 26.3333 18.3905C26.3333 15.3365 23.8576 12.8608 20.8037 12.8608C17.7497 12.8608 15.274 15.3365 15.274 18.3905C15.274 21.4444 17.7497 23.9201 20.8037 23.9201Z" fill="#DE4E00"/>
<path d="M16.4937 18.3904C16.4937 20.7741 18.4269 22.7004 20.8037 22.7004C23.1805 22.7004 25.1137 20.7671 25.1137 18.3904C25.1137 16.0136 23.1805 14.0803 20.8037 14.0803C18.4269 14.0803 16.4937 16.0136 16.4937 18.3904Z" fill="#A53504"/>
<path d="M20.769 17.8223C20.769 17.8223 20.8106 17.8223 20.8383 17.8223C22.6538 17.8084 24.102 16.2978 24.102 14.4823V3.29837C24.102 1.47595 22.6261 0 20.8037 0C18.9813 0 17.5053 1.47595 17.5053 3.29837V14.4823C17.5053 16.2978 18.9535 17.8084 20.769 17.8223Z" fill="white"/>
<path d="M48.3824 99.921H75.3583V79.3894H48.3824V99.921Z" fill="#2F72FB"/>
<path d="M66.8075 88.7787H74.0209V81.5652H66.8075V88.7787Z" fill="#3136DD"/>
<path d="M75.8711 99.921H102.847V79.3894H75.8711V99.921Z" fill="#1B9435"/>
<path d="M94.2962 88.7787H101.51V81.5652H94.2962V88.7787Z" fill="#80C342"/>
<path d="M103.006 99.921H129.982V79.3894H103.006V99.921Z" fill="#FDB105"/>
<path d="M121.425 88.7787H128.638V81.5652H121.425V88.7787Z" fill="#EA8400"/>
<path d="M20.8937 141.795H47.8696V121.263H20.8937L20.8937 141.795Z" fill="#FDB105"/>
<path d="M39.603 129.69H46.8164V122.476H39.603V129.69Z" fill="#EA8400"/>
<path d="M185.833 141.954H212.809V121.423H185.833V141.954Z" fill="#3C5AE7"/>
<path d="M204.126 130.68H211.34V123.467H204.126V130.68Z" fill="#4F5997"/>
<path d="M212.982 58.6707H185.66C185.542 58.6707 185.452 58.5806 185.452 58.4629V38.0074C185.452 37.8896 185.542 37.7996 185.66 37.7996H212.982C213.1 37.7996 213.19 37.8896 213.19 38.0074V58.4629C213.19 58.5806 213.1 58.6707 212.982 58.6707ZM185.86 58.255H212.767V38.2153H185.86V58.255Z" fill="#D8C29E"/>
<path d="M185.486 58.6707H158.164C158.046 58.6707 157.956 58.5806 157.956 58.4629V38.0074C157.956 37.8896 158.046 37.7996 158.164 37.7996H185.486C185.604 37.7996 185.694 37.8896 185.694 38.0074V58.4629C185.694 58.5806 185.604 58.6707 185.486 58.6707ZM158.372 58.255H185.278V38.2153H158.372V58.255Z" fill="#D8C29E"/>
<path d="M157.998 58.6707H130.675C130.557 58.6707 130.467 58.5806 130.467 58.4629V38.0074C130.467 37.8896 130.557 37.7996 130.675 37.7996H157.998C158.115 37.7996 158.206 37.8896 158.206 38.0074V58.4629C158.206 58.5806 158.115 58.6707 157.998 58.6707ZM130.883 58.255H157.79V38.2153H130.883V58.255Z" fill="#D8C29E"/>
<path d="M130.509 58.6707H103.187C103.069 58.6707 102.979 58.5806 102.979 58.4629V38.0074C102.979 37.8896 103.069 37.7996 103.187 37.7996H130.509C130.627 37.7996 130.717 37.8896 130.717 38.0074V58.4629C130.717 58.5806 130.627 58.6707 130.509 58.6707ZM103.394 58.255H130.301V38.2153H103.394V58.255Z" fill="#D8C29E"/>
<path d="M103.02 58.6707H75.6979C75.5801 58.6707 75.49 58.5806 75.49 58.4629V38.0074C75.49 37.8896 75.5801 37.7996 75.6979 37.7996H103.02C103.138 37.7996 103.228 37.8896 103.228 38.0074V58.4629C103.228 58.5806 103.138 58.6707 103.02 58.6707ZM75.9057 58.255H102.812V38.2153H75.9057V58.255Z" fill="#D8C29E"/>
<path d="M75.5315 58.6707H48.2091C48.0913 58.6707 48.0012 58.5806 48.0012 58.4629V38.0074C48.0012 37.8896 48.0913 37.7996 48.2091 37.7996H75.5315C75.6493 37.7996 75.7394 37.8896 75.7394 38.0074V58.4629C75.7394 58.5806 75.6493 58.6707 75.5315 58.6707ZM48.417 58.255H75.3236V38.2153H48.417V58.255Z" fill="#D8C29E"/>
<path d="M48.0428 58.6707H20.7205C20.6027 58.6707 20.5126 58.5806 20.5126 58.4629V38.0074C20.5126 37.8896 20.6027 37.7996 20.7205 37.7996H48.0428C48.1606 37.7996 48.2507 37.8896 48.2507 38.0074V58.4629C48.2507 58.5806 48.1606 58.6707 48.0428 58.6707ZM20.9283 58.255H47.835V38.2153H20.9283V58.255Z" fill="#D8C29E"/>
<path d="M212.982 79.535H185.66C185.542 79.535 185.452 79.4449 185.452 79.3271V58.8717C185.452 58.7539 185.542 58.6638 185.66 58.6638H212.982C213.1 58.6638 213.19 58.7539 213.19 58.8717V79.3271C213.19 79.4449 213.1 79.535 212.982 79.535ZM185.86 79.1192H212.767V59.0796H185.86V79.1192Z" fill="#D8C29E"/>
<path d="M185.486 79.535H158.164C158.046 79.535 157.956 79.4449 157.956 79.3271V58.8717C157.956 58.7539 158.046 58.6638 158.164 58.6638H185.486C185.604 58.6638 185.694 58.7539 185.694 58.8717V79.3271C185.694 79.4449 185.604 79.535 185.486 79.535ZM158.372 79.1192H185.278V59.0796H158.372V79.1192Z" fill="#D8C29E"/>
<path d="M157.998 79.535H130.675C130.557 79.535 130.467 79.4449 130.467 79.3271V58.8717C130.467 58.7539 130.557 58.6638 130.675 58.6638H157.998C158.115 58.6638 158.206 58.7539 158.206 58.8717V79.3271C158.206 79.4449 158.115 79.535 157.998 79.535ZM130.883 79.1192H157.79V59.0796H130.883V79.1192Z" fill="#D8C29E"/>
<path d="M130.509 79.535H103.187C103.069 79.535 102.979 79.4449 102.979 79.3271V58.8717C102.979 58.7539 103.069 58.6638 103.187 58.6638H130.509C130.627 58.6638 130.717 58.7539 130.717 58.8717V79.3271C130.717 79.4449 130.627 79.535 130.509 79.535ZM103.394 79.1192H130.301V59.0796H103.394V79.1192Z" fill="#D8C29E"/>
<path d="M103.02 79.535H75.6979C75.5801 79.535 75.49 79.4449 75.49 79.3271V58.8717C75.49 58.7539 75.5801 58.6638 75.6979 58.6638H103.02C103.138 58.6638 103.228 58.7539 103.228 58.8717V79.3271C103.228 79.4449 103.138 79.535 103.02 79.535ZM75.9057 79.1192H102.812V59.0796H75.9057V79.1192Z" fill="#D8C29E"/>
<path d="M75.5315 79.535H48.2091C48.0913 79.535 48.0012 79.4449 48.0012 79.3271V58.8717C48.0012 58.7539 48.0913 58.6638 48.2091 58.6638H75.5315C75.6493 58.6638 75.7394 58.7539 75.7394 58.8717V79.3271C75.7394 79.4449 75.6493 79.535 75.5315 79.535ZM48.417 79.1192H75.3236V59.0796H48.417V79.1192Z" fill="#D8C29E"/>
<path d="M48.0428 79.535H20.7205C20.6027 79.535 20.5126 79.4449 20.5126 79.3271V58.8717C20.5126 58.7539 20.6027 58.6638 20.7205 58.6638H48.0428C48.1606 58.6638 48.2507 58.7539 48.2507 58.8717V79.3271C48.2507 79.4449 48.1606 79.535 48.0428 79.535ZM20.9283 79.1192H47.835V59.0796H20.9283V79.1192Z" fill="#D8C29E"/>
<path d="M212.982 100.399H185.66C185.542 100.399 185.452 100.309 185.452 100.191V79.736C185.452 79.6182 185.542 79.5281 185.66 79.5281H212.982C213.1 79.5281 213.19 79.6182 213.19 79.736V100.191C213.19 100.309 213.1 100.399 212.982 100.399ZM185.86 99.9835H212.767V79.9438H185.86V99.9835Z" fill="#D8C29E"/>
<path d="M185.486 100.399H158.164C158.046 100.399 157.956 100.309 157.956 100.191V79.736C157.956 79.6182 158.046 79.5281 158.164 79.5281H185.486C185.604 79.5281 185.694 79.6182 185.694 79.736V100.191C185.694 100.309 185.604 100.399 185.486 100.399ZM158.372 99.9835H185.278V79.9438H158.372V99.9835Z" fill="#D8C29E"/>
<path d="M157.998 100.399H130.675C130.557 100.399 130.467 100.309 130.467 100.191V79.736C130.467 79.6182 130.557 79.5281 130.675 79.5281H157.998C158.115 79.5281 158.206 79.6182 158.206 79.736V100.191C158.206 100.309 158.115 100.399 157.998 100.399ZM130.883 99.9835H157.79V79.9438H130.883V99.9835Z" fill="#D8C29E"/>
<path d="M130.509 100.399H103.187C103.069 100.399 102.979 100.309 102.979 100.191V79.736C102.979 79.6182 103.069 79.5281 103.187 79.5281H130.509C130.627 79.5281 130.717 79.6182 130.717 79.736V100.191C130.717 100.309 130.627 100.399 130.509 100.399ZM103.394 99.9835H130.301V79.9438H103.394V99.9835Z" fill="#D8C29E"/>
<path d="M103.02 100.399H75.6979C75.5801 100.399 75.49 100.309 75.49 100.191V79.736C75.49 79.6182 75.5801 79.5281 75.6979 79.5281H103.02C103.138 79.5281 103.228 79.6182 103.228 79.736V100.191C103.228 100.309 103.138 100.399 103.02 100.399ZM75.9057 99.9835H102.812V79.9438H75.9057V99.9835Z" fill="#D8C29E"/>
<path d="M75.5315 100.399H48.2091C48.0913 100.399 48.0012 100.309 48.0012 100.191V79.736C48.0012 79.6182 48.0913 79.5281 48.2091 79.5281H75.5315C75.6493 79.5281 75.7394 79.6182 75.7394 79.736V100.191C75.7394 100.309 75.6493 100.399 75.5315 100.399ZM48.417 99.9835H75.3236V79.9438H48.417V99.9835Z" fill="#D8C29E"/>
<path d="M48.0428 100.399H20.7205C20.6027 100.399 20.5126 100.309 20.5126 100.191V79.736C20.5126 79.6182 20.6027 79.5281 20.7205 79.5281H48.0428C48.1606 79.5281 48.2507 79.6182 48.2507 79.736V100.191C48.2507 100.309 48.1606 100.399 48.0428 100.399ZM20.9283 99.9835H47.835V79.9438H20.9283V99.9835Z" fill="#D8C29E"/>
<path d="M212.982 121.263H185.66C185.542 121.263 185.452 121.173 185.452 121.056V100.6C185.452 100.482 185.542 100.392 185.66 100.392H212.982C213.1 100.392 213.19 100.482 213.19 100.6V121.056C213.19 121.173 213.1 121.263 212.982 121.263ZM185.86 120.848H212.767V100.808H185.86V120.848Z" fill="#D8C29E"/>
<path d="M185.486 121.263H158.164C158.046 121.263 157.956 121.173 157.956 121.056V100.6C157.956 100.482 158.046 100.392 158.164 100.392H185.486C185.604 100.392 185.694 100.482 185.694 100.6V121.056C185.694 121.173 185.604 121.263 185.486 121.263ZM158.372 120.848H185.278V100.808H158.372V120.848Z" fill="#D8C29E"/>
<path d="M157.998 121.263H130.675C130.557 121.263 130.467 121.173 130.467 121.056V100.6C130.467 100.482 130.557 100.392 130.675 100.392H157.998C158.115 100.392 158.206 100.482 158.206 100.6V121.056C158.206 121.173 158.115 121.263 157.998 121.263ZM130.883 120.848H157.79V100.808H130.883V120.848Z" fill="#D8C29E"/>
<path d="M130.509 121.263H103.187C103.069 121.263 102.979 121.173 102.979 121.056V100.6C102.979 100.482 103.069 100.392 103.187 100.392H130.509C130.627 100.392 130.717 100.482 130.717 100.6V121.056C130.717 121.173 130.627 121.263 130.509 121.263ZM103.394 120.848H130.301V100.808H103.394V120.848Z" fill="#D8C29E"/>
<path d="M103.02 121.263H75.6979C75.5801 121.263 75.49 121.173 75.49 121.056V100.6C75.49 100.482 75.5801 100.392 75.6979 100.392H103.02C103.138 100.392 103.228 100.482 103.228 100.6V121.056C103.228 121.173 103.138 121.263 103.02 121.263ZM75.9057 120.848H102.812V100.808H75.9057V120.848Z" fill="#D8C29E"/>
<path d="M75.5315 121.263H48.2091C48.0913 121.263 48.0012 121.173 48.0012 121.056V100.6C48.0012 100.482 48.0913 100.392 48.2091 100.392H75.5315C75.6493 100.392 75.7394 100.482 75.7394 100.6V121.056C75.7394 121.173 75.6493 121.263 75.5315 121.263ZM48.417 120.848H75.3236V100.808H48.417V120.848Z" fill="#D8C29E"/>
<path d="M48.0428 121.263H20.7205C20.6027 121.263 20.5126 121.173 20.5126 121.056V100.6C20.5126 100.482 20.6027 100.392 20.7205 100.392H48.0428C48.1606 100.392 48.2507 100.482 48.2507 100.6V121.056C48.2507 121.173 48.1606 121.263 48.0428 121.263ZM20.9283 120.848H47.835V100.808H20.9283V120.848Z" fill="#D8C29E"/>
<path d="M212.982 142.121H185.66C185.542 142.121 185.452 142.031 185.452 141.913V121.458C185.452 121.34 185.542 121.25 185.66 121.25H212.982C213.1 121.25 213.19 121.34 213.19 121.458V141.913C213.19 142.031 213.1 142.121 212.982 142.121ZM185.86 141.705H212.767V121.665H185.86V141.705Z" fill="#D8C29E"/>
<path d="M48.0428 38.0144H20.7205V58.4698H48.0428V38.0144Z" fill="#2F72FB"/>
<path d="M39.7623 46.5652H46.9757V39.3517H39.7623V46.5652Z" fill="#3136DD"/>
<path d="M185.486 142.121H158.164C158.046 142.121 157.956 142.031 157.956 141.913V121.458C157.956 121.34 158.046 121.25 158.164 121.25H185.486C185.604 121.25 185.694 121.34 185.694 121.458V141.913C185.694 142.031 185.604 142.121 185.486 142.121ZM158.372 141.705H185.278V121.665H158.372V141.705Z" fill="#D8C29E"/>
<path d="M157.998 142.121H130.675C130.557 142.121 130.467 142.031 130.467 141.913V121.458C130.467 121.34 130.557 121.25 130.675 121.25H157.998C158.115 121.25 158.206 121.34 158.206 121.458V141.913C158.206 142.031 158.115 142.121 157.998 142.121ZM130.883 141.705H157.79V121.665H130.883V141.705Z" fill="#D8C29E"/>
<path d="M130.509 142.121H103.187C103.069 142.121 102.979 142.031 102.979 141.913V121.458C102.979 121.34 103.069 121.25 103.187 121.25H130.509C130.627 121.25 130.717 121.34 130.717 121.458V141.913C130.717 142.031 130.627 142.121 130.509 142.121ZM103.394 141.705H130.301V121.665H103.394V141.705Z" fill="#D8C29E"/>
<path d="M103.02 142.121H75.6979C75.5801 142.121 75.49 142.031 75.49 141.913V121.458C75.49 121.34 75.5801 121.25 75.6979 121.25H103.02C103.138 121.25 103.228 121.34 103.228 121.458V141.913C103.228 142.031 103.138 142.121 103.02 142.121ZM75.9057 141.705H102.812V121.665H75.9057V141.705Z" fill="#D8C29E"/>
<path d="M75.5315 142.121H48.2091C48.0913 142.121 48.0012 142.031 48.0012 141.913V121.458C48.0012 121.34 48.0913 121.25 48.2091 121.25H75.5315C75.6493 121.25 75.7394 121.34 75.7394 121.458V141.913C75.7394 142.031 75.6493 142.121 75.5315 142.121ZM48.417 141.705H75.3236V121.665H48.417V141.705Z" fill="#D8C29E"/>
<path d="M48.0428 142.121H20.7205C20.6027 142.121 20.5126 142.031 20.5126 141.913V121.458C20.5126 121.34 20.6027 121.25 20.7205 121.25H48.0428C48.1606 121.25 48.2507 121.34 48.2507 121.458V141.913C48.2507 142.031 48.1606 142.121 48.0428 142.121ZM20.9283 141.705H47.835V121.665H20.9283V141.705Z" fill="#D8C29E"/>
<path d="M136.087 41.964H154.769C155.278 41.964 155.69 41.5514 155.69 41.0424V40.8137C155.69 40.3047 155.278 39.8921 154.769 39.8921H136.087C135.578 39.8921 135.165 40.3047 135.165 40.8137V41.0424C135.165 41.5514 135.578 41.964 136.087 41.964Z" fill="#D6C8B9"/>
<path d="M144.797 46.1008H154.775C155.284 46.1008 155.697 45.6882 155.697 45.1792V44.9506C155.697 44.4416 155.284 44.029 154.775 44.029H144.797C144.288 44.029 143.876 44.4416 143.876 44.9506V45.1792C143.876 45.6882 144.288 46.1008 144.797 46.1008Z" fill="#D6C8B9"/>
<path d="M80.3613 63.4727H99.0428C99.5518 63.4727 99.9644 63.06 99.9644 62.5511V62.3224C99.9644 61.8134 99.5518 61.4008 99.0428 61.4008H80.3613C79.8523 61.4008 79.4397 61.8134 79.4397 62.3224V62.5511C79.4397 63.06 79.8523 63.4727 80.3613 63.4727Z" fill="#D6C8B9"/>
<path d="M89.0715 67.6095H99.0497C99.5587 67.6095 99.9713 67.1969 99.9713 66.6879V66.4592C99.9713 65.9502 99.5587 65.5376 99.0497 65.5376H89.0715C88.5625 65.5376 88.1499 65.9502 88.1499 66.4592V66.6879C88.1499 67.1969 88.5625 67.6095 89.0715 67.6095Z" fill="#D6C8B9"/>
<path d="M136.884 125.532H155.565C156.074 125.532 156.487 125.119 156.487 124.61V124.382C156.487 123.873 156.074 123.46 155.565 123.46H136.884C136.375 123.46 135.962 123.873 135.962 124.382V124.61C135.962 125.119 136.375 125.532 136.884 125.532Z" fill="#D6C8B9"/>
<path d="M145.594 129.669H155.572C156.081 129.669 156.494 129.256 156.494 128.747V128.518C156.494 128.009 156.081 127.597 155.572 127.597H145.594C145.085 127.597 144.673 128.009 144.673 128.518V128.747C144.673 129.256 145.085 129.669 145.594 129.669Z" fill="#D6C8B9"/>
<path d="M54.0714 125.532H72.7529C73.2619 125.532 73.6745 125.119 73.6745 124.61V124.382C73.6745 123.873 73.2619 123.46 72.7529 123.46H54.0714C53.5624 123.46 53.1498 123.873 53.1498 124.382V124.61C53.1498 125.119 53.5624 125.532 54.0714 125.532Z" fill="#D6C8B9"/>
<path d="M62.7677 129.669H72.7459C73.2549 129.669 73.6675 129.256 73.6675 128.747V128.518C73.6675 128.009 73.2549 127.597 72.7459 127.597H62.7677C62.2587 127.597 61.8461 128.009 61.8461 128.518V128.747C61.8461 129.256 62.2587 129.669 62.7677 129.669Z" fill="#D6C8B9"/>
<path d="M190.427 104.654H209.108C209.617 104.654 210.03 104.241 210.03 103.732V103.504C210.03 102.995 209.617 102.582 209.108 102.582H190.427C189.918 102.582 189.505 102.995 189.505 103.504V103.732C189.505 104.241 189.918 104.654 190.427 104.654Z" fill="#D6C8B9"/>
<path d="M199.13 108.791H209.108C209.617 108.791 210.03 108.378 210.03 107.869V107.64C210.03 107.131 209.617 106.719 209.108 106.719H199.13C198.621 106.719 198.209 107.131 198.209 107.64V107.869C198.209 108.378 198.621 108.791 199.13 108.791Z" fill="#D6C8B9"/>
<path d="M163.701 63.4727H182.382C182.891 63.4727 183.304 63.06 183.304 62.5511V62.3224C183.304 61.8134 182.891 61.4008 182.382 61.4008H163.701C163.192 61.4008 162.779 61.8134 162.779 62.3224V62.5511C162.779 63.06 163.192 63.4727 163.701 63.4727Z" fill="#D6C8B9"/>
<path d="M172.397 67.6095H182.375C182.884 67.6095 183.297 67.1969 183.297 66.6879V66.4592C183.297 65.9502 182.884 65.5376 182.375 65.5376H172.397C171.888 65.5376 171.475 65.9502 171.475 66.4592V66.6879C171.475 67.1969 171.888 67.6095 172.397 67.6095Z" fill="#D6C8B9"/>
<path d="M26.652 83.9766H45.3335C45.8425 83.9766 46.2551 83.5639 46.2551 83.055V82.8263C46.2551 82.3173 45.8425 81.9047 45.3335 81.9047H26.652C26.143 81.9047 25.7304 82.3173 25.7304 82.8263V83.055C25.7304 83.5639 26.143 83.9766 26.652 83.9766Z" fill="#D6C8B9"/>
<path d="M35.3553 88.1204H45.3335C45.8425 88.1204 46.2551 87.7077 46.2551 87.1988V86.9701C46.2551 86.4611 45.8425 86.0485 45.3335 86.0485H35.3553C34.8463 86.0485 34.4337 86.4611 34.4337 86.9701V87.1988C34.4337 87.7077 34.8463 88.1204 35.3553 88.1204Z" fill="#D6C8B9"/>
<path d="M213.224 34.4803H185.486V38.0143H213.224V34.4803Z" fill="#FDB105"/>
<path d="M185.743 34.4803H158.005V38.0143H185.743V34.4803Z" fill="#FF7A31"/>
<path d="M158.254 34.4803H130.516V38.0143H158.254V34.4803Z" fill="#2F72FB"/>
<path d="M130.765 34.4803H103.027V38.0143H130.765V34.4803Z" fill="#FF7A31"/>
<path d="M103.277 34.4803H75.5385V38.0143H103.277V34.4803Z" fill="#FDB105"/>
<path d="M75.7879 34.4803H48.0498V38.0143H75.7879V34.4803Z" fill="#2F72FB"/>
<path d="M48.3062 34.4803H20.5681V38.0143H48.3062V34.4803Z" fill="#FDB105"/>
</svg>
