<svg width="335" height="294" viewBox="0 0 335 294" fill="none" xmlns="http://www.w3.org/2000/svg">
<g clip-path="url(#clip0_5013_5079)">
<path d="M77.0901 36.0138C76.68 35.3658 75.8249 35.1637 75.1714 35.5818C74.5248 35.9929 74.3302 36.8501 74.7404 37.5051L87.0522 57.0661C87.3303 57.5121 87.817 57.7421 88.3105 57.7142C88.54 57.7002 88.7694 57.6306 88.971 57.4982C89.6175 57.087 89.8122 56.2299 89.402 55.5748L77.0901 36.0138ZM33.7934 81.2612L8.30069 71.6445C7.58464 71.3727 6.77822 71.7351 6.50709 72.4529C6.23596 73.1706 6.59747 73.979 7.31352 74.2508L32.8063 83.8675C32.994 83.9372 33.1886 83.9651 33.3763 83.9581C33.9116 83.9302 34.3983 83.5888 34.5999 83.0591C34.871 82.3414 34.5095 81.533 33.7934 81.2612ZM166.485 269.205C165.776 268.899 164.963 269.219 164.657 269.923L155.028 292.049C154.722 292.753 155.042 293.575 155.744 293.881C155.925 293.958 156.113 294 156.301 294C156.836 294 157.35 293.686 157.573 293.164L167.201 271.038C167.507 270.334 167.187 269.512 166.485 269.205ZM317.62 253.003L288.589 240.097C287.887 239.784 287.066 240.097 286.754 240.808C286.441 241.512 286.754 242.334 287.463 242.648L316.494 255.554C316.675 255.638 316.869 255.672 317.057 255.672C317.592 255.672 318.1 255.366 318.329 254.843C318.642 254.139 318.329 253.317 317.62 253.003ZM232.939 263.812C232.563 263.136 231.722 262.899 231.048 263.268C230.373 263.645 230.137 264.488 230.505 265.164L241.705 285.387C241.962 285.847 242.435 286.104 242.922 286.104C243.151 286.104 243.38 286.049 243.596 285.93C244.27 285.554 244.507 284.711 244.138 284.035L232.939 263.812ZM162.439 22.6968C161.716 22.425 160.917 22.7943 160.652 23.5191L152.275 46.1462C152.011 46.871 152.373 47.6724 153.096 47.9372C153.283 48.0069 153.471 48.0347 153.659 48.0208C154.194 47.9929 154.688 47.6515 154.882 47.1149L163.259 24.4877C163.524 23.763 163.162 22.9616 162.439 22.6968Z" fill="#F0F0F0"/>
<path d="M254.608 73.4984C264.994 79.5054 264.994 89.2545 254.608 95.2615C244.222 101.268 227.391 101.268 217.005 95.2615C206.619 89.2545 206.619 79.5054 217.005 73.4984C227.391 67.4914 244.222 67.4914 254.608 73.4984Z" fill="#E0E0E0"/>
<path d="M302.493 87.6798C315.416 95.1571 315.416 107.283 302.493 114.767C289.569 122.244 268.616 122.244 255.692 114.767C242.769 107.29 242.769 95.1641 255.692 87.6798C268.616 80.2024 289.569 80.2024 302.493 87.6798Z" fill="#E0E0E0"/>
<path d="M306.087 160.202L158.379 245.686C152.331 249.185 144.885 249.185 138.844 245.686L9.48242 170.843L174.695 75.2266L306.087 151.247C309.528 153.241 309.528 158.216 306.087 160.202Z" fill="#E0E0E0"/>
<path d="M254.976 20.676C265.077 26.5227 265.077 36.007 254.976 41.8537C244.875 47.7004 228.489 47.7004 218.388 41.8537C208.287 36.007 208.287 26.5227 218.388 20.676C228.489 14.8293 244.875 14.8293 254.976 20.676Z" fill="#3C5AE7"/>
<path d="M255.352 4.47387C245.042 -1.49129 228.336 -1.49129 218.027 4.47387C212.514 7.66551 209.948 11.9164 210.338 16.0976L215.948 81.9164C216.184 84.7944 218.207 87.6376 222.01 89.8328C230.123 94.5296 243.276 94.5296 251.382 89.8328C255.185 87.6307 257.201 84.7944 257.444 81.9164L263.054 16.0906C263.444 11.9094 260.878 7.65854 255.365 4.4669L255.352 4.47387Z" fill="#3C5AE7"/>
<path opacity="0.8" d="M255.352 4.47387C245.042 -1.49129 228.336 -1.49129 218.027 4.47387C212.514 7.66551 209.948 11.9164 210.338 16.0976L215.948 81.9164C216.184 84.7944 218.207 87.6376 222.01 89.8328C230.123 94.5296 243.276 94.5296 251.382 89.8328C255.185 87.6307 257.201 84.7944 257.444 81.9164L263.054 16.0906C263.444 11.9094 260.878 7.65854 255.365 4.4669L255.352 4.47387Z" fill="white"/>
<path opacity="0.2" d="M210.331 16.0977L215.941 81.9165C216.059 83.366 216.629 84.7945 217.637 86.1395C218.645 87.4844 220.105 88.7457 222.003 89.8468C225.083 91.6307 228.886 92.7318 232.869 93.1569C229.463 91.5959 226.876 89.0663 226.744 84.9687C226.654 82.244 226.487 77.2614 226.286 71.4008C235.121 73.9025 246.092 73.0314 253.44 68.7806C256.005 67.2963 257.854 65.5471 259.001 63.6935L261.163 38.2997C259.926 40.3903 257.875 42.3485 254.997 44.014C247.002 48.6412 235.087 49.6029 225.444 46.906C225.305 42.8433 224.992 34.4391 224.791 28.913C222.358 28.2022 220.07 27.2544 218.041 26.0767C213.251 23.2963 210.685 19.7283 210.352 16.0977H210.331Z" fill="#3C5AE7"/>
<path d="M255.352 4.47387C265.661 10.439 265.661 20.1115 255.352 26.0767C245.042 32.0418 228.336 32.0418 218.027 26.0767C207.717 20.1115 207.717 10.439 218.027 4.47387C228.336 -1.49129 245.042 -1.49129 255.352 4.47387Z" fill="#3C5AE7"/>
<path opacity="0.6" d="M255.352 4.47387C265.661 10.439 265.661 20.1115 255.352 26.0767C245.042 32.0418 228.336 32.0418 218.027 26.0767C207.717 20.1115 207.717 10.439 218.027 4.47387C228.336 -1.49129 245.042 -1.49129 255.352 4.47387Z" fill="white"/>
<path d="M254.399 5.44936C264.181 10.8779 264.181 19.6793 254.399 25.1079C244.611 30.5365 228.747 30.5365 218.965 25.1079C209.177 19.6793 209.184 10.8779 218.965 5.44936C228.754 0.0207866 244.618 0.0207866 254.399 5.44936Z" fill="#E0E0E0"/>
<path d="M262.526 32.0416L260.336 57.5817C260.072 60.8709 257.764 64.1113 253.426 66.62C244.18 71.972 229.192 71.972 219.946 66.62C215.309 63.9371 213.001 60.4179 213.008 56.8988L210.859 32.1392C211.214 35.6723 213.724 39.1496 218.388 41.8465C228.496 47.6932 244.875 47.6932 254.976 41.8465C259.69 39.1218 262.199 35.6026 262.519 32.0347L262.526 32.0416Z" fill="#3C5AE7"/>
<path opacity="0.2" d="M262.526 32.0416L260.336 57.5817C260.072 60.8709 257.764 64.1113 253.426 66.62C244.18 71.972 229.192 71.972 219.946 66.62C215.309 63.9371 213.001 60.4179 213.008 56.8988L210.859 32.1392C211.214 35.6723 213.724 39.1496 218.388 41.8465C228.496 47.6932 244.875 47.6932 254.976 41.8465C259.69 39.1218 262.199 35.6026 262.519 32.0347L262.526 32.0416Z" fill="white"/>
<path opacity="0.8" d="M226.64 45.0659C223.644 44.3341 220.828 43.2679 218.388 41.8533C213.724 39.1564 211.214 35.6791 210.859 32.146L213.008 56.9056C212.994 60.4247 215.309 63.9369 219.946 66.6268C222.184 67.923 224.763 68.8986 227.509 69.5676L226.64 45.0659Z" fill="#3C5AE7"/>
<path d="M227.961 53.9579C228.893 53.1008 230.012 52.3412 231.215 51.8464C231.708 51.6444 231.743 50.9336 231.27 50.6966C228.907 49.5259 225.583 50.2994 223.234 52.7593C220.759 55.3586 220.237 58.9335 221.843 61.2123C222.045 61.498 222.476 61.5398 222.747 61.3308C224.012 60.3412 224.826 59.1635 225.653 57.282C226.202 56.0416 226.96 54.8778 227.961 53.9579ZM233.314 52.7106C233.161 52.4248 232.786 52.3133 232.487 52.4388C230.262 53.3865 228.538 54.9336 227.363 57.1705C226.772 58.2924 226.383 59.5607 225.646 60.606C225.09 61.3865 224.443 61.9928 223.706 62.4457C223.602 62.5085 223.644 62.7663 223.776 62.8221C226.119 63.8464 229.324 63.0381 231.597 60.6548C233.898 58.2437 234.51 54.9893 233.307 52.7106H233.314Z" fill="white"/>
<path opacity="0.8" d="M222.747 61.324C224.012 60.3345 224.826 59.1568 225.653 57.2753C226.008 56.4739 226.453 55.7073 226.988 55.0174L226.828 50.4878C225.549 50.885 224.291 51.6516 223.227 52.7665C220.752 55.3658 220.231 58.9408 221.837 61.2195C222.038 61.5052 222.469 61.547 222.74 61.338L222.747 61.324Z" fill="#E6E6E6"/>
<path opacity="0.8" d="M227.092 57.7422C226.64 58.7108 226.272 59.7352 225.653 60.6063C225.097 61.3868 224.45 61.9931 223.713 62.446C223.609 62.5087 223.651 62.7666 223.783 62.8223C224.833 63.2823 226.049 63.3659 227.28 63.122L227.092 57.7422Z" fill="#E6E6E6"/>
<path d="M218.632 5.70754C223.428 2.91312 229.838 1.37305 236.679 1.37305C243.52 1.37305 249.936 2.91312 254.733 5.70754C259.245 8.33472 261.734 11.7354 261.734 15.2755C261.734 16.279 261.532 17.2685 261.143 18.2372C260.162 15.7912 257.966 13.5124 254.733 11.6309C249.936 8.83646 243.526 7.30336 236.679 7.30336C229.831 7.30336 223.421 8.84343 218.632 11.6309C215.392 13.5124 213.202 15.7981 212.215 18.2372C211.826 17.2755 211.624 16.279 211.624 15.2755C211.624 11.7354 214.113 8.33472 218.625 5.70754H218.632Z" fill="#3C5AE7"/>
<path opacity="0.8" d="M218.632 5.70754C223.428 2.91312 229.838 1.37305 236.679 1.37305C243.52 1.37305 249.936 2.91312 254.733 5.70754C259.245 8.33472 261.734 11.7354 261.734 15.2755C261.734 16.279 261.532 17.2685 261.143 18.2372C260.162 15.7912 257.966 13.5124 254.733 11.6309C249.936 8.83646 243.526 7.30336 236.679 7.30336C229.831 7.30336 223.421 8.84343 218.632 11.6309C215.392 13.5124 213.202 15.7981 212.215 18.2372C211.826 17.2755 211.624 16.279 211.624 15.2755C211.624 11.7354 214.113 8.33472 218.625 5.70754H218.632Z" fill="white"/>
<path opacity="0.15" d="M236.679 1.37305C243.526 1.37305 249.936 2.91312 254.733 5.70754C259.245 8.33472 261.734 11.7354 261.734 15.2755C261.734 16.279 261.532 17.2685 261.143 18.2372C260.162 15.7912 257.966 13.5124 254.733 11.6309C249.936 8.83646 243.526 7.30336 236.679 7.30336C236.255 7.30336 235.824 7.30336 235.4 7.32427C237.047 7.30336 240.516 6.46712 239.348 4.19535C238.125 1.81904 235.038 1.40789 232.765 1.55423C234.044 1.44273 235.351 1.38002 236.679 1.38002V1.37305Z" fill="#3C5AE7"/>
<path opacity="0.15" d="M211.631 15.2755C211.631 12.1466 213.571 9.12914 217.137 6.65527C215.461 8.61346 216.407 12.1117 220.022 10.8713C220.029 10.8713 220.043 10.8713 220.05 10.8643C219.563 11.1082 219.09 11.3591 218.632 11.6239C215.392 13.5054 213.202 15.7912 212.215 18.2302C211.826 17.2685 211.624 16.272 211.624 15.2685L211.631 15.2755Z" fill="#3C5AE7"/>
<path d="M218.631 11.6239C223.428 8.82949 229.838 7.29639 236.679 7.29639C243.519 7.29639 249.936 8.83646 254.733 11.6239C257.966 13.5054 260.162 15.7912 261.143 18.2302C260.155 20.6762 257.966 22.9549 254.726 24.8365C249.929 27.6309 243.519 29.164 236.679 29.164C229.838 29.164 223.421 27.6239 218.631 24.8365C215.392 22.9549 213.202 20.6692 212.215 18.2302C213.202 15.7842 215.392 13.5054 218.631 11.6239Z" fill="#37474F"/>
<path d="M239.8 7.40771C240.127 7.60981 240.412 7.87461 240.607 8.20911C240.94 8.80144 240.572 9.53315 240.92 10.1185C241.191 10.5784 241.656 11.0872 242.505 11.2823C243.401 11.4913 244.764 11.6446 245.814 12.5436C246.064 12.7527 246.238 13.0523 246.307 13.3729C246.419 13.8816 246.189 14.4042 245.883 14.8223C245.57 15.2405 245.174 15.5819 244.875 16.007C244.569 16.4251 244.368 16.9687 244.514 17.4704C244.646 17.9234 245.042 18.2509 245.438 18.5088C246.975 19.5053 248.852 19.9164 250.326 21.0105C250.743 21.3171 251.132 21.6934 251.327 22.1812C251.626 22.9338 251.375 23.8189 250.868 24.4391C250.562 24.8084 250.082 25.3241 248.553 25.7561C248.011 25.9095 247.482 26.0767 246.933 26.1952C245.348 26.5297 243.443 28.0767 242.004 28.8572C246.815 28.2718 251.222 26.899 254.747 24.8433C257.987 22.9617 260.176 20.676 261.164 18.237C260.183 15.791 257.987 13.5122 254.754 11.6307C250.694 9.26834 245.48 7.80493 239.821 7.41468L239.8 7.40771ZM255.011 19.3032C255.122 19.2405 255.296 19.2405 255.407 19.3032C255.519 19.3659 255.519 19.4704 255.407 19.5332C255.296 19.5959 255.115 19.5959 255.011 19.5332C254.9 19.4704 254.9 19.3659 255.011 19.3032ZM252.501 22.4739C252.842 22.2718 253.398 22.2718 253.739 22.4739C254.08 22.676 254.08 22.9966 253.739 23.1987C253.398 23.4007 252.842 23.4007 252.501 23.1987C252.161 22.9966 252.161 22.676 252.501 22.4739ZM251.966 21.3311C252.077 21.2683 252.258 21.2683 252.362 21.3311C252.474 21.3938 252.474 21.4983 252.362 21.561C252.251 21.6237 252.07 21.6237 251.966 21.561C251.855 21.4983 251.855 21.3938 251.966 21.3311ZM251.716 17.7701C252.258 17.4565 253.134 17.4565 253.676 17.7701C254.219 18.0837 254.219 18.5924 253.676 18.9129C253.134 19.2265 252.258 19.2265 251.716 18.9129C251.174 18.5994 251.174 18.0906 251.716 17.7701ZM247.566 12.8014C247.392 12.906 247.107 12.906 246.933 12.8014C246.759 12.6969 246.759 12.5366 246.933 12.4321C247.107 12.3276 247.392 12.3276 247.566 12.4321C247.739 12.5366 247.739 12.6969 247.566 12.8014ZM248.483 14.7248C247.941 14.4112 247.941 13.9025 248.483 13.5819C249.026 13.2683 249.901 13.2683 250.444 13.5819C250.986 13.8955 250.986 14.4042 250.444 14.7248C249.901 15.0384 249.026 15.0384 248.483 14.7248ZM249.144 18.669C249.317 18.5645 249.603 18.5645 249.776 18.669C249.95 18.7736 249.95 18.9338 249.776 19.0384C249.603 19.1429 249.317 19.1429 249.144 19.0384C248.97 18.9338 248.97 18.7736 249.144 18.669ZM248.553 16.2091C249.172 16.5715 249.172 17.1499 248.553 17.5122C247.934 17.8746 246.933 17.8746 246.314 17.5122C245.696 17.1499 245.696 16.5715 246.314 16.2091C246.933 15.8467 247.934 15.8467 248.553 16.2091ZM244.263 10.6272C244.375 10.5645 244.555 10.5645 244.66 10.6272C244.771 10.6899 244.771 10.7945 244.66 10.8572C244.548 10.9199 244.375 10.9199 244.263 10.8572C244.152 10.7945 244.152 10.6899 244.263 10.6272Z" fill="#455A64"/>
<path d="M212.222 18.2371C213.209 20.6831 215.399 22.9618 218.639 24.8433C222.838 27.2893 228.281 28.7736 234.169 29.1012C233.961 28.9966 233.759 28.8851 233.55 28.7806C232.264 28.1325 230.916 27.5193 229.484 27.4426C228.371 27.3799 227.05 27.5681 226.327 26.7109C226.008 26.3346 225.882 25.8189 225.584 25.4287C225.243 24.9827 224.701 24.7388 224.165 24.5855C222.747 24.1743 221.239 24.2649 219.772 24.0628C219.382 24.0071 218.931 23.8886 218.771 23.5193C218.611 23.15 218.833 22.7318 219.09 22.4252C219.348 22.1186 219.667 21.8259 219.744 21.4357C219.841 20.92 219.487 20.4322 219.097 20.0838C218.708 19.7353 218.249 19.4287 218.027 18.9548C217.721 18.3067 217.957 17.5123 218.409 16.9548C218.861 16.4043 219.487 16.035 220.092 15.6587C221.232 14.9548 222.337 14.1813 223.289 13.2405C223.922 12.6064 224.513 11.6308 224.033 10.8712C223.832 10.5576 223.491 10.3695 223.143 10.2231C222.831 10.0907 222.504 9.99316 222.17 9.9165C220.926 10.4182 219.744 10.9897 218.646 11.6238C215.406 13.5054 213.216 15.7911 212.229 18.2301L212.222 18.2371ZM220.662 11.3242C221.204 11.0106 222.08 11.0106 222.622 11.3242C223.164 11.6378 223.164 12.1465 222.622 12.467C222.08 12.7806 221.204 12.7806 220.662 12.467C220.119 12.1534 220.119 11.6447 220.662 11.3242ZM219.028 13.4566C219.32 13.2824 219.8 13.2824 220.098 13.4566C220.39 13.6308 220.39 13.9095 220.098 14.0768C219.807 14.251 219.327 14.251 219.028 14.0768C218.736 13.9026 218.736 13.6238 219.028 13.4566ZM223.046 25.4426C223.38 25.2475 223.922 25.2475 224.256 25.4426C224.589 25.6378 224.589 25.9513 224.256 26.1465C223.922 26.3416 223.38 26.3416 223.046 26.1465C222.712 25.9513 222.712 25.6378 223.046 25.4426ZM221.586 25.0942C221.781 24.9827 222.087 24.9827 222.281 25.0942C222.476 25.2057 222.476 25.3869 222.281 25.4984C222.087 25.6099 221.781 25.6099 221.586 25.4984C221.392 25.3869 221.392 25.2057 221.586 25.0942ZM216.525 19.1081C216.365 19.1987 216.115 19.1987 215.955 19.1081C215.795 19.0175 215.795 18.8642 215.955 18.7736C216.115 18.6831 216.365 18.6831 216.525 18.7736C216.685 18.8642 216.685 19.0175 216.525 19.1081ZM215.691 20.5367C216.4 20.1256 217.54 20.1256 218.249 20.5367C218.958 20.9479 218.958 21.6169 218.249 22.028C217.54 22.4392 216.4 22.4392 215.691 22.028C214.982 21.6169 214.982 20.9479 215.691 20.5367ZM214.787 16.4392C215.176 16.2162 215.802 16.2162 216.191 16.4392C216.581 16.6621 216.581 17.0315 216.191 17.2545C215.802 17.4775 215.176 17.4775 214.787 17.2545C214.398 17.0315 214.398 16.6621 214.787 16.4392ZM213.32 17.3451C213.48 17.2545 213.731 17.2545 213.89 17.3451C214.05 17.4357 214.05 17.582 213.89 17.6796C213.731 17.7702 213.48 17.7702 213.32 17.6796C213.16 17.589 213.16 17.4357 213.32 17.3451Z" fill="#455A64"/>
<path opacity="0.1" d="M240.21 7.43568C245.709 7.86774 250.777 9.31721 254.733 11.6238C257.966 13.5054 260.163 15.7911 261.143 18.2301C260.156 20.6761 257.966 22.9548 254.726 24.8364C253.53 25.5332 252.237 26.1465 250.861 26.6831C253.509 25.15 256.179 22.8433 256.186 19.7632C256.207 13.6587 248.873 8.39038 240.197 7.42871L240.21 7.43568Z" fill="black"/>
<path d="M258 81.0107C269.506 74.3487 288.165 74.3487 299.67 81.0107C305.42 84.3347 308.291 88.6971 308.298 93.0595C308.298 93.9236 308.298 97.38 308.298 98.2581C308.277 102.606 305.406 106.955 299.67 110.272C288.165 116.934 269.506 116.934 258 110.272C252.244 106.941 249.373 102.572 249.373 98.2093C249.373 97.3521 249.373 93.9375 249.373 93.0873C249.373 88.718 252.237 84.3487 258 81.0176V81.0107Z" fill="#37474F"/>
<path d="M290.612 77.4429C293.9 78.2721 296.98 79.4568 299.663 81.0178C305.412 84.3418 308.284 88.7042 308.291 93.0666C308.291 93.9307 308.291 97.3871 308.291 98.2652C308.27 102.614 305.399 106.962 299.663 110.279C296.973 111.833 293.893 113.025 290.612 113.854V77.4498V77.4429Z" fill="#263238"/>
<path d="M258 81.0107C246.495 87.6727 246.495 98.4671 258 105.129C269.506 111.791 288.165 111.791 299.67 105.129C311.176 98.4671 311.176 87.6727 299.67 81.0107C288.165 74.3487 269.506 74.3487 258 81.0107Z" fill="#455A64"/>
<path d="M252.488 91.2057L253.454 82.474C253.815 79.1988 256.283 75.9723 260.851 73.4706C270.785 68.028 286.886 68.028 296.82 73.4706C301.388 75.9723 303.849 79.1988 304.217 82.474L305.204 91.2057C305.628 95.143 303.105 99.157 297.62 102.16C287.442 107.742 270.257 107.742 260.072 102.16C254.587 99.157 252.064 95.143 252.488 91.2057Z" fill="#37474F"/>
<path d="M296.82 73.4776C301.388 75.9793 303.849 79.2058 304.217 82.481L305.204 91.2128C305.628 95.15 303.105 99.164 297.62 102.167C295.541 103.31 293.164 104.209 290.619 104.885L290.007 94.502L288.791 70.502C291.711 71.1849 294.443 72.1675 296.827 73.4776H296.82Z" fill="#263238"/>
<path d="M260.851 73.4776C250.917 78.9201 250.917 87.7493 260.851 93.1988C270.785 98.6413 286.886 98.6413 296.82 93.1988C306.755 87.7563 306.755 78.927 296.82 73.4776C286.886 68.0281 270.785 68.0351 260.851 73.4776Z" fill="#455A64"/>
<path d="M263.333 75.5959C254.775 79.8677 254.775 86.7945 263.333 91.0663C271.891 95.3381 285.774 95.3381 294.331 91.0663C302.889 86.7945 302.889 79.8677 294.331 75.5959C285.774 71.3241 271.891 71.3241 263.333 75.5959Z" fill="#263238"/>
<path d="M263.333 81.2683C271.89 76.9965 285.773 76.9965 294.331 81.2683C297.154 82.676 299.038 84.3763 299.997 86.1672C299.038 87.9651 297.147 89.6585 294.331 91.0662C285.773 95.338 271.89 95.338 263.333 91.0662C260.51 89.6585 258.626 87.9582 257.667 86.1672C258.626 84.3693 260.517 82.676 263.333 81.2683Z" fill="#455A64"/>
<path d="M260.253 78.7112L286.086 93.6659C289.103 93.1362 291.933 92.2721 294.338 91.0735C298.315 89.0944 300.449 86.53 300.727 83.9307C300.449 81.3314 298.315 78.7739 294.338 76.7878C285.78 72.516 271.897 72.516 263.34 76.7878C262.144 77.3802 261.115 78.0352 260.26 78.7112H260.253Z" fill="#455A64"/>
<path d="M258.633 84.7529L274.748 94.0839C278.516 94.4393 282.43 94.2929 286.079 93.6588L260.246 78.7041L258.626 84.7459L258.633 84.7529Z" fill="#37474F"/>
<path opacity="0.5" d="M259.217 91.2753L262.943 93.4286C263.298 93.6307 263.91 93.6098 264.32 93.3729C264.723 93.1359 264.772 92.7805 264.417 92.5784L260.691 90.4251C260.336 90.223 259.725 90.2439 259.314 90.4809C258.911 90.7178 258.863 91.0732 259.217 91.2753Z" fill="black"/>
<path d="M256.951 83.9724C257.757 88.6971 263.006 91.0665 267.087 92.4184C276.096 95.178 289.284 94.8086 297.154 89.1989C300.053 87.0735 301.86 83.617 299.851 80.2163C301.965 83.61 300.22 87.185 297.293 89.387C289.444 95.185 276.055 95.5961 266.996 92.6902C262.86 91.2546 257.667 88.8017 256.951 83.9724Z" fill="#37474F"/>
<path d="M125.705 232.704C125.705 232.704 131.711 236.174 139.129 240.46C143.238 242.836 146.915 243.157 149.376 241.742L299.552 154.878C297.091 156.3 293.406 155.979 289.291 153.603C281.88 149.324 275.874 145.847 275.874 145.847L165.533 82.1045L15.3984 168.983L125.705 232.704Z" fill="#E6E6E6" stroke="#E0E0E0" stroke-miterlimit="10"/>
<path d="M293.622 151.178L165.526 77.1777L15.3984 164.063L143.495 238.063C145.149 239.017 146.658 239.108 147.749 238.474L297.863 151.596C296.771 152.223 295.27 152.132 293.615 151.178H293.622Z" fill="#EBEBEB" stroke="#E0E0E0" stroke-miterlimit="10"/>
<path d="M294.755 147.045L165.519 72.3901L15.3984 159.268L144.635 233.923C145.066 234.174 145.546 234.139 145.928 233.923L296.055 147.038C295.68 147.254 295.193 147.289 294.762 147.038L294.755 147.045Z" fill="#F0F0F0" stroke="#E0E0E0" stroke-miterlimit="10"/>
<path d="M145.921 233.924C146.296 233.708 146.568 233.303 146.568 232.802V232.342C146.568 230.237 145.448 228.3 143.627 227.248L15.3984 153.171L165.519 66.293L293.754 140.37C295.568 141.422 296.695 143.359 296.695 145.464V145.924C296.695 146.418 296.424 146.823 296.048 147.046" fill="#F5F5F5"/>
<path d="M145.921 233.924C146.296 233.708 146.568 233.303 146.568 232.802V232.342C146.568 230.237 145.448 228.3 143.627 227.248L15.3984 153.171L165.519 66.293L293.754 140.37C295.568 141.422 296.695 143.359 296.695 145.464V145.924C296.695 146.418 296.424 146.823 296.048 147.046" stroke="#E0E0E0" stroke-width="1.04" stroke-miterlimit="10"/>
<path d="M291.682 133.875L165.526 60.9966L15.3984 147.882L141.555 220.76C145.935 223.289 149.515 229.505 149.515 234.571C149.515 236.488 148.841 237.84 147.742 238.474L297.856 151.596C298.954 150.969 299.635 149.61 299.635 147.693C299.635 142.627 296.055 136.411 291.675 133.882L291.682 133.875Z" fill="#F5F5F5" stroke="#E0E0E0" stroke-miterlimit="10"/>
<path d="M288.902 127.192L275.102 119.22L165.526 55.9165L15.3984 142.795L138.74 214.049C146.366 218.453 152.539 227.882 152.539 235.115C152.539 238.342 151.344 240.599 149.369 241.735L299.545 154.871C301.519 153.728 302.708 151.471 302.708 148.258C302.708 141.025 296.528 131.596 288.909 127.192H288.902Z" fill="#FAFAFA" stroke="#E0E0E0" stroke-miterlimit="10"/>
<path d="M177.865 140.843L238.187 105.937C239.035 105.449 240.238 105.345 240.877 105.714L273.03 124.328C273.67 124.697 273.496 125.394 272.648 125.882L212.333 160.787C211.485 161.275 210.282 161.38 209.642 161.01L177.483 142.404C176.843 142.035 177.017 141.338 177.865 140.85V140.843Z" fill="#3C5AE7"/>
<path opacity="0.8" d="M177.865 140.843L238.187 105.937C239.035 105.449 240.238 105.345 240.877 105.714L273.03 124.328C273.67 124.697 273.496 125.394 272.648 125.882L212.333 160.787C211.485 161.275 210.282 161.38 209.642 161.01L177.483 142.404C176.843 142.035 177.017 141.338 177.865 140.85V140.843Z" fill="white"/>
<path d="M235.719 122.202L233.606 131.826L249.15 133.442L203.879 134.327L204.512 158.035L209.642 161.003C210.282 161.373 211.485 161.275 212.333 160.78L272.648 125.874C273.496 125.387 273.67 124.69 273.03 124.32L268.845 121.902L235.719 122.209V122.202Z" fill="#3C5AE7"/>
<path d="M234.669 113.54C236.338 112.571 238.708 112.376 239.96 113.101C241.211 113.825 240.87 115.198 239.202 116.16C237.534 117.129 235.163 117.324 233.912 116.599C232.66 115.874 233.001 114.501 234.669 113.54Z" fill="#3C5AE7"/>
<path d="M65.7444 150.851C65.7444 150.851 66.1963 150.997 67.3016 151.638C68.4695 152.314 68.6572 152.537 68.6572 152.537L58.2224 158.572C58.2224 158.572 57.7705 158.426 56.6651 157.785C55.5876 157.165 55.3095 156.886 55.3095 156.886L58.5422 155.018L43.7971 146.482L41.1067 148.043C41.1067 148.043 40.6548 147.896 39.5495 147.255C38.4719 146.628 38.1938 146.356 38.1938 146.356L47.2105 141.137L69.6097 144.161L58.709 137.854L56.0117 139.415C56.0117 139.415 55.5598 139.269 54.4544 138.628C53.3769 138.001 53.0988 137.729 53.0988 137.729L63.3321 131.806C63.3321 131.806 63.7839 131.952 64.8893 132.593C66.0572 133.269 66.2449 133.492 66.2449 133.492L63.2139 135.248L80.8718 145.471L75.8595 148.377L50.172 144.962L63.054 152.419L65.7444 150.858V150.851Z" fill="#455A64"/>
<path d="M83.8542 119.931L88.9221 122.865C88.9221 122.865 88.2686 123.346 87.3579 123.868C86.3151 124.474 85.5574 124.809 85.5574 124.809L83.4023 123.562L75.2894 128.251L80.6493 131.353L84.5215 129.116L82.3943 127.882C82.3943 127.882 82.9087 127.478 83.9862 126.858C85.2306 126.14 85.6895 125.973 85.6895 125.973L92.8847 130.14C92.8847 130.14 92.704 130.349 91.3553 131.123C90.2152 131.785 89.5826 132.042 89.5826 132.042L87.3718 130.76L83.4996 132.997L90.0275 136.774L98.4741 131.889L95.735 130.3C95.735 130.3 96.319 129.861 97.3618 129.255C98.2725 128.732 99.0928 128.349 99.0928 128.349L104.745 131.624L85.3905 142.823C85.3905 142.823 84.7649 142.579 83.8333 142.042C82.8392 141.471 82.4777 141.137 82.4777 141.137L85.5087 139.387L70.7637 130.851L68.0733 132.412C68.0733 132.412 67.538 132.217 66.516 131.624C65.6679 131.137 65.1604 130.725 65.1604 130.725L83.8403 119.917L83.8542 119.931Z" fill="#455A64"/>
<path d="M103.521 112.934L108.2 110.23L125.983 115.659L126.219 115.519C126.219 115.519 118.92 109.157 114.29 105.694L111.599 107.255C111.599 107.255 111.002 106.99 110.014 106.418C109.055 105.861 108.687 105.568 108.687 105.568L117.842 100.272C117.842 100.272 118.378 100.467 119.344 101.025C120.449 101.666 120.762 101.958 120.762 101.958L118.405 103.324C123.536 107.268 132.838 115.415 132.838 115.415L125.969 119.387L111.287 114.899L119.038 123.401L112.176 127.373C112.176 127.373 98.1683 122.223 91.3206 119.004L88.9639 120.37C88.9639 120.37 88.373 120.105 87.3788 119.533C86.4195 118.976 86.051 118.683 86.051 118.683L95.5752 113.171C95.5752 113.171 96.1105 113.366 97.0768 113.924C98.1822 114.565 98.495 114.857 98.495 114.857L95.8046 116.418C101.693 119.282 112.712 123.359 112.712 123.359L112.948 123.22L103.542 112.948L103.521 112.934Z" fill="#455A64"/>
<path d="M139.776 93.8401C139.776 93.8401 139.358 94.1815 138.079 94.9202C136.703 95.7216 136.077 95.9794 136.077 95.9794L134.005 94.7808C134.005 94.7808 132.038 95.0038 129.786 96.3139C127.533 97.6171 127.067 99.3383 128.555 100.195C129.577 100.788 131.023 101.192 132.949 100.551L138.58 98.7111C141.604 97.7355 146.658 96.53 150.537 98.7739C154.326 100.969 153.422 103.986 147.729 107.276C142.313 110.411 137.377 110.398 137.377 110.398L133.47 108.14C133.47 108.14 134.054 107.701 135.166 107.06C136.411 106.342 137.169 106 137.169 106L139.351 107.269C139.351 107.269 141.646 107.157 144.572 105.457C147.736 103.624 147.444 102.209 146.018 101.38C144.531 100.523 142.063 100.767 140.081 101.408L133.929 103.415C129.66 104.802 126.546 104.244 124.016 102.781C120.574 100.788 122.027 97.1502 126.636 94.4812C130.439 92.2791 136.098 91.7007 136.098 91.7007L139.769 93.8261L139.776 93.8401Z" fill="#455A64"/>
<path d="M201.342 84.3135L65.6608 162.843L63.7769 161.756L199.458 83.2334L201.342 84.3135Z" fill="#3C5AE7"/>
<path d="M198.346 82.5994L62.6646 161.122L61.8999 160.669L197.581 82.1465L198.346 82.5994Z" fill="#3C5AE7"/>
<path d="M29.7542 142.133L165.435 63.6099L167.319 64.697L31.6381 143.22L29.7542 142.133Z" fill="#3C5AE7"/>
<path d="M32.7505 143.854L168.431 65.3311L169.203 65.784L33.5222 144.307L32.7505 143.854Z" fill="#3C5AE7"/>
<path d="M173.812 68.4321L144.614 85.1987L163.203 95.9583L192.429 79.1778L173.812 68.4321Z" fill="#E0E0E0"/>
<path d="M151.003 85.7212L174.528 72.209" stroke="white" stroke-width="0.97" stroke-miterlimit="10" stroke-linecap="round"/>
<path d="M153.735 87.31L177.26 73.7979" stroke="white" stroke-width="0.97" stroke-miterlimit="10" stroke-linecap="round"/>
<path d="M170.281 80.9685L179.993 75.3936" stroke="white" stroke-width="0.97" stroke-miterlimit="10" stroke-linecap="round"/>
<path d="M159.199 90.4877L182.725 76.9824" stroke="white" stroke-width="0.97" stroke-miterlimit="10" stroke-linecap="round"/>
<path d="M161.931 92.0765L185.457 78.5713" stroke="white" stroke-width="0.97" stroke-miterlimit="10" stroke-linecap="round"/>
<path d="M144.836 135.994L82.0744 172.314L72.2026 166.607L134.965 130.279L144.836 135.994Z" fill="#3C5AE7"/>
<path opacity="0.8" d="M144.836 135.994L82.0744 172.314L72.2026 166.607L134.965 130.279L144.836 135.994Z" fill="white"/>
<g opacity="0.8">
<path d="M88.1227 176.495C87.8793 176.495 87.6499 176.37 87.5178 176.147C87.3232 175.812 87.4414 175.387 87.7751 175.192L150.537 138.872C150.871 138.676 151.295 138.795 151.49 139.129C151.684 139.464 151.566 139.889 151.232 140.084L88.4703 176.405C88.359 176.467 88.2408 176.495 88.1227 176.495Z" fill="#E0E0E0"/>
</g>
<g opacity="0.8">
<path d="M93.3644 179.548C93.121 179.548 92.8916 179.423 92.7595 179.2C92.5649 178.865 92.6831 178.44 93.0168 178.245L155.779 141.924C156.113 141.729 156.537 141.848 156.731 142.182C156.926 142.517 156.808 142.942 156.474 143.137L93.712 179.457C93.6007 179.52 93.4825 179.548 93.3644 179.548Z" fill="#E0E0E0"/>
</g>
<g opacity="0.8">
<path d="M98.6063 182.6C98.363 182.6 98.1336 182.474 98.0015 182.251C97.8068 181.917 97.925 181.492 98.2587 181.297L161.021 144.976C161.354 144.781 161.779 144.899 161.973 145.234C162.168 145.568 162.05 145.993 161.716 146.189L98.9539 182.509C98.8427 182.572 98.7245 182.6 98.6063 182.6Z" fill="#E0E0E0"/>
</g>
<g opacity="0.8">
<path d="M103.848 185.645C103.605 185.645 103.375 185.519 103.243 185.296C103.049 184.962 103.167 184.537 103.5 184.342L166.262 148.021C166.596 147.826 167.02 147.944 167.215 148.279C167.41 148.613 167.291 149.038 166.958 149.234L104.196 185.554C104.084 185.617 103.966 185.645 103.848 185.645Z" fill="#E0E0E0"/>
</g>
<g opacity="0.8">
<path d="M109.09 188.697C108.846 188.697 108.617 188.572 108.485 188.349C108.29 188.014 108.408 187.589 108.742 187.394L171.504 151.074C171.838 150.879 172.262 150.997 172.457 151.332C172.651 151.666 172.533 152.091 172.199 152.286L109.437 188.607C109.326 188.67 109.208 188.697 109.09 188.697Z" fill="#E0E0E0"/>
</g>
<g opacity="0.8">
<path d="M114.331 191.749C114.088 191.749 113.859 191.624 113.727 191.401C113.532 191.066 113.65 190.641 113.984 190.446L176.746 154.125C177.08 153.93 177.504 154.049 177.698 154.383C177.893 154.718 177.775 155.143 177.441 155.338L114.679 191.659C114.568 191.721 114.45 191.749 114.331 191.749Z" fill="#E0E0E0"/>
</g>
<g opacity="0.8">
<path d="M119.573 194.802C119.33 194.802 119.101 194.676 118.969 194.453C118.774 194.119 118.892 193.694 119.226 193.499L152.192 174.418C152.526 174.223 152.95 174.342 153.144 174.676C153.339 175.011 153.221 175.436 152.887 175.631L119.921 194.711C119.81 194.774 119.692 194.802 119.573 194.802Z" fill="#E0E0E0"/>
</g>
<g opacity="0.8">
<path d="M124.822 197.854C124.579 197.854 124.349 197.728 124.217 197.505C124.022 197.171 124.141 196.746 124.474 196.551L187.236 160.23C187.57 160.035 187.994 160.153 188.189 160.488C188.383 160.822 188.265 161.247 187.932 161.443L125.169 197.763C125.058 197.826 124.94 197.854 124.822 197.854Z" fill="#E0E0E0"/>
</g>
<g opacity="0.8">
<path d="M130.064 200.906C129.82 200.906 129.591 200.781 129.459 200.558C129.264 200.223 129.382 199.798 129.716 199.603L192.478 163.283C192.812 163.088 193.236 163.206 193.43 163.541C193.625 163.875 193.507 164.3 193.173 164.495L130.411 200.816C130.3 200.879 130.182 200.906 130.064 200.906Z" fill="#E0E0E0"/>
</g>
<g opacity="0.8">
<path d="M135.306 203.959C135.062 203.959 134.833 203.834 134.701 203.611C134.506 203.276 134.624 202.851 134.958 202.656L197.72 166.335C198.054 166.14 198.478 166.259 198.672 166.593C198.867 166.928 198.749 167.353 198.415 167.548L135.653 203.869C135.542 203.931 135.424 203.959 135.306 203.959Z" fill="#E0E0E0"/>
</g>
<g opacity="0.8">
<path d="M140.547 207.011C140.304 207.011 140.074 206.885 139.942 206.662C139.748 206.328 139.866 205.903 140.2 205.708L202.962 169.387C203.295 169.192 203.719 169.311 203.914 169.645C204.109 169.98 203.991 170.405 203.657 170.6L140.895 206.92C140.784 206.983 140.665 207.011 140.547 207.011Z" fill="#E0E0E0"/>
</g>
<g opacity="0.8">
<path d="M145.789 210.063C145.546 210.063 145.316 209.938 145.184 209.715C144.989 209.38 145.108 208.955 145.441 208.76L195.586 179.736C195.919 179.541 196.343 179.659 196.538 179.994C196.733 180.328 196.615 180.753 196.281 180.948L146.137 209.973C146.025 210.035 145.907 210.063 145.789 210.063Z" fill="#E0E0E0"/>
</g>
<g opacity="0.8">
<path d="M150.454 213.457C150.21 213.457 149.981 213.332 149.849 213.109C149.654 212.774 149.772 212.349 150.106 212.154L212.868 175.833C213.202 175.638 213.626 175.757 213.821 176.091C214.015 176.426 213.897 176.851 213.563 177.046L150.801 213.367C150.69 213.429 150.572 213.457 150.454 213.457Z" fill="#E0E0E0"/>
</g>
<g opacity="0.8">
<path d="M154.25 217.366C154.006 217.366 153.777 217.241 153.645 217.018C153.45 216.683 153.568 216.258 153.902 216.063L216.664 179.743C216.998 179.548 217.422 179.666 217.617 180.001C217.811 180.335 217.693 180.76 217.359 180.955L154.597 217.276C154.486 217.339 154.368 217.366 154.25 217.366Z" fill="#E0E0E0"/>
</g>
<g opacity="0.8">
<path d="M157.155 221.722C156.912 221.722 156.683 221.596 156.551 221.373C156.356 221.039 156.474 220.614 156.808 220.419L219.57 184.098C219.904 183.903 220.328 184.021 220.522 184.356C220.717 184.69 220.599 185.116 220.265 185.311L157.503 221.631C157.392 221.694 157.274 221.722 157.155 221.722Z" fill="#E0E0E0"/>
</g>
<g opacity="0.8">
<path d="M159.255 226.628C159.012 226.628 158.782 226.503 158.65 226.28C158.456 225.945 158.574 225.52 158.907 225.325L221.669 189.004C222.003 188.809 222.427 188.928 222.622 189.262C222.817 189.597 222.698 190.022 222.365 190.217L159.603 226.537C159.491 226.6 159.373 226.628 159.255 226.628Z" fill="#E0E0E0"/>
</g>
<g opacity="0.8">
<path d="M159.908 232.3C159.665 232.3 159.436 232.175 159.303 231.952C159.109 231.617 159.227 231.192 159.561 230.997L222.323 194.676C222.656 194.481 223.081 194.6 223.275 194.934C223.47 195.269 223.352 195.694 223.018 195.889L160.256 232.209C160.145 232.272 160.026 232.3 159.908 232.3Z" fill="#E0E0E0"/>
</g>
<g opacity="0.8">
<path d="M145.094 124.32C144.851 124.32 144.621 124.195 144.489 123.972C144.294 123.638 144.413 123.212 144.746 123.017L207.508 86.6968C207.842 86.5016 208.266 86.6201 208.461 86.9546C208.655 87.2891 208.537 87.7142 208.204 87.9093L145.441 124.23C145.33 124.293 145.212 124.32 145.094 124.32Z" fill="#E0E0E0"/>
</g>
<g opacity="0.8">
<path d="M150.336 127.373C150.092 127.373 149.863 127.247 149.731 127.024C149.536 126.69 149.654 126.265 149.988 126.07L212.75 89.749C213.084 89.5539 213.508 89.6724 213.702 90.0069C213.897 90.3414 213.779 90.7664 213.445 90.9616L150.683 127.282C150.572 127.345 150.454 127.373 150.336 127.373Z" fill="#E0E0E0"/>
</g>
<g opacity="0.8">
<path d="M155.577 130.425C155.334 130.425 155.105 130.3 154.973 130.077C154.778 129.742 154.896 129.317 155.23 129.122L217.992 92.8013C218.326 92.6061 218.75 92.7246 218.944 93.0591C219.139 93.3936 219.021 93.8187 218.687 94.0138L155.925 130.334C155.814 130.397 155.696 130.425 155.577 130.425Z" fill="#E0E0E0"/>
</g>
<g opacity="0.8">
<path d="M160.826 133.477C160.583 133.477 160.353 133.352 160.221 133.129C160.027 132.794 160.145 132.369 160.478 132.174L223.241 95.8535C223.574 95.6584 223.998 95.7769 224.193 96.1113C224.388 96.4458 224.269 96.8709 223.936 97.066L161.174 133.387C161.062 133.449 160.944 133.477 160.826 133.477Z" fill="#E0E0E0"/>
</g>
<g opacity="0.8">
<path d="M166.068 136.529C165.825 136.529 165.595 136.404 165.463 136.181C165.268 135.847 165.387 135.421 165.72 135.226L228.482 98.9058C228.816 98.7106 229.24 98.8291 229.435 99.1636C229.63 99.4981 229.511 99.9232 229.178 100.118L166.416 136.439C166.304 136.502 166.186 136.529 166.068 136.529Z" fill="#E0E0E0"/>
</g>
<g opacity="0.8">
<path d="M171.31 139.582C171.066 139.582 170.837 139.457 170.705 139.234C170.51 138.899 170.628 138.474 170.962 138.279L212.903 114.007C213.237 113.812 213.661 113.931 213.856 114.265C214.05 114.6 213.932 115.025 213.598 115.22L171.657 139.492C171.546 139.554 171.428 139.582 171.31 139.582Z" fill="#E0E0E0"/>
</g>
<path opacity="0.8" d="M277.153 128.118L223.157 159.345" stroke="#E0E0E0" stroke-linecap="round" stroke-linejoin="round"/>
<path opacity="0.8" d="M280.233 130.278L253.753 145.588" stroke="#E0E0E0" stroke-linecap="round" stroke-linejoin="round"/>
<g opacity="0.8">
<path d="M223.157 170.439C222.914 170.439 222.684 170.313 222.552 170.09C222.358 169.756 222.476 169.331 222.809 169.135L285.572 132.815C285.905 132.62 286.329 132.738 286.524 133.073C286.719 133.407 286.6 133.832 286.267 134.027L223.505 170.348C223.393 170.411 223.275 170.439 223.157 170.439Z" fill="#E0E0E0"/>
</g>
<g opacity="0.8">
<path d="M226.953 174.349C226.71 174.349 226.48 174.223 226.348 174C226.154 173.666 226.272 173.241 226.605 173.046L289.367 136.725C289.701 136.53 290.125 136.648 290.32 136.983C290.515 137.317 290.396 137.743 290.063 137.938L227.301 174.258C227.189 174.321 227.071 174.349 226.953 174.349Z" fill="#E0E0E0"/>
</g>
<g opacity="0.8">
<path d="M229.859 178.703C229.615 178.703 229.386 178.578 229.254 178.355C229.059 178.02 229.177 177.595 229.511 177.4L292.273 141.08C292.607 140.884 293.031 141.003 293.226 141.337C293.42 141.672 293.302 142.097 292.968 142.292L230.206 178.613C230.095 178.675 229.977 178.703 229.859 178.703Z" fill="#E0E0E0"/>
</g>
<g opacity="0.8">
<path d="M231.958 183.616C231.715 183.616 231.486 183.491 231.354 183.268C231.159 182.933 231.277 182.508 231.611 182.313L294.373 145.993C294.707 145.798 295.131 145.916 295.325 146.251C295.52 146.585 295.402 147.01 295.068 147.205L232.306 183.526C232.195 183.588 232.077 183.616 231.958 183.616Z" fill="#E0E0E0"/>
</g>
<g opacity="0.8">
<path d="M232.612 189.289C232.369 189.289 232.139 189.164 232.007 188.941C231.812 188.606 231.931 188.181 232.264 187.986L295.026 151.666C295.36 151.47 295.784 151.589 295.979 151.923C296.173 152.258 296.055 152.683 295.722 152.878L232.96 189.199C232.848 189.261 232.73 189.289 232.612 189.289Z" fill="#E0E0E0"/>
</g>
<path d="M228.1 191.386C228.1 184.153 221.92 174.724 214.3 170.32L138.76 126.683" stroke="#455A64" stroke-miterlimit="10"/>
<path d="M99.8785 83.9231L91.8977 79.3029C91.7378 79.2332 91.6127 79.1287 91.5223 78.9684L90.0554 76.397L94.7966 73.6514L94.6507 74.0695L99.8785 83.9162V83.9231Z" fill="#3C5AE7"/>
<path opacity="0.1" d="M99.8785 83.9231L91.8977 79.3029C91.7378 79.2332 91.6127 79.1287 91.5223 78.9684L90.0554 76.397L94.7966 73.6514L94.6507 74.0695L99.8785 83.9162V83.9231Z" fill="black"/>
<path d="M94.0667 74.0485L99.5934 83.6373C99.948 84.2506 100.852 84.16 101.088 83.4979L106.928 66.606L94.0736 74.0485H94.0667Z" fill="#3C5AE7"/>
<path opacity="0.2" d="M94.0667 74.0485L99.5934 83.6373C99.948 84.2506 100.852 84.16 101.088 83.4979L106.928 66.606L94.0736 74.0485H94.0667Z" fill="white"/>
<path d="M120.31 17.9092C120.31 15.4423 118.579 12.4388 116.452 11.2054L116.278 11.1009C114.144 9.86742 110.689 9.86742 108.562 11.1009L56.0119 41.5469C53.8776 42.7803 52.1536 45.7838 52.1536 48.2507V84.7594C52.1536 87.2263 53.8846 90.2298 56.0119 91.4632L56.1857 91.5747C58.3199 92.8082 61.775 92.8082 63.9023 91.5747L116.814 60.8639C120.283 58.8848 120.31 56.8918 120.31 54.4249V17.9092Z" fill="#3C5AE7"/>
<path opacity="0.2" d="M120.31 17.9092C120.31 15.4423 118.579 12.4388 116.452 11.2054L116.278 11.1009C114.144 9.86742 110.689 9.86742 108.562 11.1009L56.0119 41.5469C53.8776 42.7803 52.1536 45.7838 52.1536 48.2507V84.7594C52.1536 87.2263 53.8846 90.2298 56.0119 91.4632L56.1857 91.5747C58.3199 92.8082 61.775 92.8082 63.9023 91.5747L116.814 60.8639C120.283 58.8848 120.31 56.8918 120.31 54.4249V17.9092Z" fill="white"/>
<path d="M52.1465 84.7594C52.1465 87.2263 53.8775 90.2298 56.0048 91.4632L56.1786 91.5747C58.1043 92.6897 61.1006 92.8012 63.2418 91.9022C61.4273 92.5921 60.0439 91.5538 60.0439 89.3448V52.836C60.0439 51.6026 60.4749 50.2367 61.1771 49.0242L53.2796 44.4458C52.5845 45.6583 52.1465 47.0242 52.1465 48.2576V84.7664V84.7594Z" fill="#3C5AE7"/>
<path opacity="0.4" d="M120.185 16.8083C119.733 15.1637 118.238 14.6411 116.459 15.6724L63.9021 46.1254C62.8385 46.7386 61.8652 47.7839 61.1839 49.0104L53.2935 44.439C53.9956 43.2125 54.948 42.1672 56.0117 41.554L108.547 11.101C110.689 9.87453 114.151 9.87453 116.271 11.101L116.459 11.2125C118.28 12.2578 119.81 14.6062 120.185 16.8083Z" fill="white"/>
<path d="M65.6055 37.0243L61.7681 34.7944L61.7333 34.7735C60.0579 33.8327 57.7637 33.9721 55.2263 35.4425C50.1097 38.4041 45.9663 45.6027 45.9663 51.5261C45.9663 54.4808 47.0021 56.5574 48.6706 57.533H48.6776L52.1744 59.547L52.9947 58.1742C53.8429 57.979 54.7188 57.6794 55.6504 57.1358C60.767 54.1742 64.9103 46.9756 64.9103 41.0522C64.9103 40.1742 64.7922 39.4006 64.6184 38.6829L65.6125 37.0243H65.6055Z" fill="#37474F"/>
<path d="M46.3068 48.4111C46.0774 49.4704 45.9592 50.5157 45.9592 51.5331C45.9592 54.4878 46.9951 56.5644 48.6635 57.5401H48.6705L52.1673 59.554L52.9876 58.1812C53.8358 57.986 54.7117 57.6864 55.6433 57.1428C56.5192 56.6341 57.3674 56 58.1668 55.2752L46.3068 48.4111Z" fill="#263238"/>
<path d="M58.8689 37.554C53.7522 40.5157 49.6089 47.7143 49.6089 53.6376C49.6089 59.561 53.7522 61.9582 58.8689 58.9965C63.9855 56.0348 68.1288 48.8362 68.1288 42.9129C68.1288 36.9895 63.9855 34.5923 58.8689 37.554Z" fill="#455A64"/>
<path d="M62.5257 45.7978V43.5261C62.5257 40.9337 60.9545 39.7351 59.008 40.864C57.0684 41.986 55.4903 45.0034 55.4903 47.5957V49.6306C55.4903 50.9058 55.0454 52.3623 54.3085 53.6027C54.3085 53.6027 54.3085 53.6027 54.3085 53.6097C54.1347 53.9302 54.0234 54.3065 54.0234 54.648C54.0234 55.3031 54.4197 55.6027 54.9063 55.317L63.1166 50.5644C63.6032 50.2787 63.9995 49.5191 63.9995 48.871C63.9995 48.5435 63.9021 48.3065 63.7422 48.1811C63.7422 48.1811 63.7353 48.1811 63.7283 48.1741C63.0053 47.8466 62.5257 47.0243 62.5257 45.7978Z" fill="white"/>
<path d="M60.6972 52.6689C60.6972 53.9163 59.9395 55.3658 59.0079 55.9024C58.0764 56.439 57.3186 55.8675 57.3186 54.6202L60.6972 52.6689Z" fill="white"/>
<path d="M65.8486 58.7456L114.088 30.7456" stroke="#FAFAFA" stroke-width="2" stroke-miterlimit="10" stroke-linecap="round"/>
<path d="M65.8486 67.979L114.088 39.979" stroke="#FAFAFA" stroke-width="2" stroke-miterlimit="10" stroke-linecap="round"/>
<path d="M65.8486 77.2124L114.088 49.2124" stroke="#FAFAFA" stroke-width="2" stroke-miterlimit="10" stroke-linecap="round"/>
</g>
<defs>
<clipPath id="clip0_5013_5079">
<rect width="335" height="294" fill="white"/>
</clipPath>
</defs>
</svg>
