<svg width="337" height="328" viewBox="0 0 337 328" fill="none" xmlns="http://www.w3.org/2000/svg">
<path d="M239.869 56.2328L252.324 41.0088L247.238 39.0476L251.218 27.9506L239.862 41.0794L245.702 42.7795L239.869 56.2328Z" fill="#E0E0E0"/>
<path d="M279.741 186.441L291.52 202.194L294.641 197.721L304.447 204.24L294.436 190.06L291.386 195.33L279.741 186.441Z" fill="#E0E0E0"/>
<path d="M66.2615 53.6437L78.815 90.4339L87.4023 83.9224L101.865 102.166L91.6855 69.4109L82.7388 77.4533L66.2615 53.6437Z" fill="#E0E0E0"/>
<path d="M160.892 263.478L169.338 233.185L160.631 233.587L159.328 214.794L151.142 241.312L160.786 240.042L160.892 263.478Z" fill="#E0E0E0"/>
<path d="M118.857 59.1464L118.779 73.3333L122.513 72.1199L125.316 80.1411L125.725 67.6331L121.681 69.3333L118.857 59.1464Z" fill="#E0E0E0"/>
<path d="M55.2156 101.333L64.1763 112.318L66.2897 108.995L73.5527 113.397L65.9093 103.492L63.8734 107.379L55.2156 101.333Z" fill="#E0E0E0"/>
<path d="M186.971 218.208L186.9 232.395L190.634 231.182L193.438 239.203L193.846 226.688L189.803 228.388L186.971 218.208Z" fill="#E0E0E0"/>
<path d="M65.6129 208.544C78.3323 204.892 85.3851 190.552 81.3658 176.514C77.3464 162.477 63.7769 154.059 51.0575 157.711C38.338 161.364 31.2852 175.704 35.3046 189.741C39.3239 203.778 52.8934 212.197 65.6129 208.544Z" fill="#455A64"/>
<path d="M76.0098 217.079C87.2066 213.144 90.9553 194.751 84.3828 175.998C77.8103 157.245 63.4055 145.233 52.2087 149.169C41.0119 153.104 37.2631 171.497 43.8356 190.25C50.4081 209.002 64.813 221.014 76.0098 217.079Z" fill="#257367"/>
<path d="M128.11 203.572C141.176 198.98 145.933 178.61 138.735 158.074C131.538 137.538 115.111 124.613 102.046 129.205C88.9807 133.797 84.2238 154.168 91.4212 174.704C98.6186 195.24 115.045 208.165 128.11 203.572Z" fill="#257367"/>
<path d="M122.858 263.795C114.017 245.531 116.778 216.381 116.778 216.381C116.778 216.381 116.039 211.034 116.778 208.818C117.518 206.603 128.099 203.591 128.099 203.591L102.893 128.952L50.1152 150.138L66.9659 217.136C66.9659 217.136 69.6147 243.132 71.4604 254.942C73.3061 266.751 75.8844 283.358 78.2796 289.63C80.6747 295.901 91.7277 296.642 97.6241 297.376C103.52 298.116 125.817 287.231 128.106 283.908C130.396 280.586 131.713 282.06 122.865 263.795H122.858Z" fill="#257367"/>
<path opacity="0.3" d="M128.11 203.572C141.176 198.98 145.933 178.61 138.735 158.074C131.538 137.538 115.111 124.613 102.046 129.205C88.9807 133.797 84.2238 154.168 91.4212 174.704C98.6186 195.24 115.045 208.165 128.11 203.572Z" fill="black"/>
<path d="M101.633 133.778C101.633 133.778 127.606 118.384 141.019 103.076C151.931 90.6173 166.915 69.6437 166.915 69.6437L235.868 214.624C235.868 214.624 199.989 200.875 166.915 200.564C135.362 200.268 123.506 200.473 123.506 200.473L101.633 133.778Z" fill="#E0E0E0"/>
<path d="M127.262 199.66C137.519 196.055 140.582 178.148 134.104 159.664C127.625 141.179 114.059 129.117 103.802 132.722C93.5447 136.327 90.4815 154.234 96.96 172.719C103.438 191.203 117.005 203.266 127.262 199.66Z" fill="#E0E0E0"/>
<g opacity="0.3">
<path d="M99.7305 179.429C124.098 164.713 150.374 152.875 179.637 156.508C172.367 139.739 167.95 121.728 166.633 103.492C148.127 128.84 124.295 152.014 93.9116 159.76C93.9116 159.76 95.1303 167.443 96.3561 170.949C97.5819 174.462 99.7305 179.429 99.7305 179.429Z" fill="white"/>
</g>
<path opacity="0.2" d="M82.2951 288.155C82.6544 287.965 83.0136 287.781 83.3729 287.598C83.8308 287.365 84.2958 287.132 84.7537 286.9C85.12 286.716 85.4933 286.533 85.8667 286.356C86.3246 286.131 86.7896 285.912 87.2475 285.693C87.6208 285.517 87.9942 285.34 88.3676 285.171C88.8395 284.952 89.3186 284.734 89.7906 284.522C90.1498 284.36 90.5091 284.198 90.8684 284.035C91.3826 283.81 91.9039 283.584 92.4252 283.365C92.7493 283.224 93.0663 283.083 93.3904 282.949C94.2005 282.61 95.0106 282.272 95.8278 281.947C96.0744 281.848 96.328 281.75 96.5745 281.651C97.1804 281.411 97.7862 281.171 98.3991 280.938C98.7513 280.804 99.0965 280.677 99.4487 280.543C99.9489 280.353 100.442 280.169 100.942 279.986C101.323 279.845 101.696 279.711 102.076 279.577C102.548 279.407 103.02 279.238 103.492 279.076C103.88 278.942 104.26 278.808 104.648 278.674C105.12 278.512 105.585 278.356 106.05 278.194C106.43 278.067 106.81 277.94 107.191 277.813C107.663 277.658 108.142 277.503 108.614 277.355C108.98 277.235 109.353 277.115 109.72 277.002C110.227 276.84 110.727 276.691 111.234 276.536C111.565 276.437 111.897 276.332 112.228 276.233C113.024 275.993 113.82 275.76 114.616 275.527C114.623 275.527 114.637 275.527 114.644 275.52C114.045 273.982 108.811 263.21 102.992 247.146C96.7365 229.884 100.674 205.503 99.2867 204.339C97.8989 203.182 66.959 217.136 66.959 217.136C66.959 217.136 69.6078 243.132 71.4534 254.942C73.2991 266.751 75.8775 283.358 78.2726 289.63C78.3501 289.827 78.4347 290.025 78.5262 290.208C78.97 289.954 79.4139 289.7 79.8647 289.453C80.1888 289.277 80.5199 289.101 80.8509 288.924C81.33 288.663 81.809 288.409 82.2951 288.155Z" fill="#F5F5F5"/>
<g opacity="0.3">
<path d="M114.644 275.513C114.644 275.513 114.623 275.513 114.616 275.52C113.827 275.746 113.031 275.986 112.228 276.226C111.896 276.325 111.565 276.43 111.234 276.529C110.727 276.684 110.227 276.84 109.72 276.995C109.353 277.108 108.987 277.228 108.614 277.347C108.142 277.503 107.663 277.651 107.191 277.806C106.81 277.933 106.43 278.06 106.049 278.187C105.584 278.342 105.112 278.504 104.648 278.667C104.26 278.801 103.88 278.935 103.492 279.069C103.02 279.231 102.548 279.4 102.076 279.57C101.696 279.704 101.322 279.838 100.942 279.979C100.442 280.162 99.9488 280.346 99.4486 280.536C99.0964 280.67 98.7512 280.797 98.399 280.931C97.7931 281.164 97.1873 281.404 96.5744 281.644C96.3278 281.743 96.0742 281.841 95.8277 281.94C95.0175 282.265 94.2004 282.603 93.3903 282.942C93.0662 283.076 92.7492 283.217 92.4251 283.358C91.9038 283.584 91.3896 283.802 90.8683 284.028C90.509 284.191 90.1497 284.353 89.7905 284.515C89.3114 284.727 88.8394 284.945 88.3674 285.164C87.9941 285.333 87.6207 285.51 87.2473 285.686C86.7824 285.905 86.3245 286.123 85.8666 286.349C85.4932 286.533 85.1269 286.709 84.7536 286.892C84.2886 287.125 83.8307 287.358 83.3728 287.591C83.0135 287.774 82.6543 287.958 82.295 288.148C81.8089 288.402 81.3299 288.656 80.8508 288.917C80.5197 289.094 80.1957 289.27 79.8646 289.446C79.4137 289.693 78.9699 289.947 78.5261 290.201C81.3651 295.937 91.9109 296.656 97.617 297.369C103.513 298.109 125.81 287.224 128.099 283.901C129.325 282.123 130.269 281.714 129.522 278.914C124.647 277.721 120.174 276.635 114.707 275.485C114.686 275.485 114.658 275.499 114.637 275.506L114.644 275.513Z" fill="black"/>
</g>
<path d="M107.127 210.646C107.127 210.646 105.042 210.836 104.478 211.407C103.908 211.979 103.154 238.723 105.803 243.083C105.958 243.344 105.613 243.273 107.127 244.219C108.642 245.164 115.686 248.169 117.849 246.758C120.012 245.355 125.126 240.804 124.746 238.907C124.365 237.009 122.435 235.556 120.174 231.161C118.145 227.21 117.356 214.617 117.356 214.617C116.56 214.265 108.304 210.462 107.127 210.638V210.646Z" fill="#F5F5F5"/>
<path opacity="0.3" d="M124.746 238.984C124.746 238.984 124.746 238.935 124.746 238.907C124.365 237.009 122.435 235.556 120.174 231.161C118.145 227.21 117.356 214.617 117.356 214.617C116.63 214.293 109.663 211.083 107.578 210.681C107.677 211.358 109.212 219.605 110.551 225.644C111.756 231.062 114.263 234.857 114.912 235.774C115.052 235.683 115.151 235.633 115.193 235.64C115.651 235.753 122.097 237.453 124.739 238.977L124.746 238.984Z" fill="black"/>
<path opacity="0.5" d="M115.207 235.647C115.165 235.633 115.06 235.69 114.926 235.781C113.545 236.698 107.909 242.279 106.423 243.76C106.599 243.88 106.831 244.028 107.141 244.226C108.656 245.171 115.701 248.176 117.863 246.765C119.716 245.559 123.738 242.039 124.605 239.866C124.739 239.534 124.795 239.238 124.76 238.984C122.118 237.46 115.672 235.76 115.215 235.647H115.207Z" fill="black"/>
<path d="M127.655 278.871C127.655 278.871 127.479 278.871 127.148 278.836C126.817 278.808 126.331 278.73 125.718 278.61C124.478 278.384 122.717 277.884 120.569 277.235C119.491 276.924 118.307 276.586 117.018 276.332C115.729 276.071 114.334 275.915 112.89 276.198C109.98 276.684 107.029 278.18 103.76 279.252C97.2861 281.503 91.6011 284.007 87.5857 286.011C85.578 287.012 83.9718 287.866 82.8658 288.466C82.3374 288.755 81.9148 288.981 81.5907 289.157C81.3019 289.312 81.1399 289.39 81.1328 289.376C81.1258 289.362 81.2737 289.27 81.5484 289.093C81.8302 288.917 82.2459 288.656 82.7883 288.346C83.8732 287.704 85.4582 286.815 87.4589 285.785C91.4532 283.718 97.1452 281.164 103.633 278.914C106.881 277.855 109.84 276.36 112.827 275.873C113.566 275.746 114.306 275.697 115.024 275.746C115.743 275.788 116.419 275.915 117.067 276.042C118.371 276.31 119.554 276.663 120.632 276.995C122.781 277.672 124.514 278.208 125.739 278.476C126.352 278.617 126.831 278.709 127.155 278.765C127.479 278.822 127.648 278.857 127.648 278.871H127.655Z" fill="#263238"/>
<path d="M115.299 235.746C115.334 235.788 114.827 236.226 114.01 236.924C113.193 237.623 112.066 238.589 110.854 239.69C109.642 240.79 108.572 241.82 107.797 242.568C107.022 243.316 106.543 243.781 106.507 243.746C106.472 243.711 106.888 243.189 107.613 242.392C108.339 241.594 109.389 240.529 110.607 239.422C111.826 238.314 112.988 237.369 113.848 236.727C114.714 236.078 115.271 235.718 115.299 235.753V235.746Z" fill="#263238"/>
<path d="M113.735 233.968C113.735 233.968 113.531 233.735 113.228 233.256C112.932 232.776 112.538 232.064 112.129 231.139C111.298 229.298 110.586 226.589 109.973 223.598C109.325 220.607 108.825 217.877 108.564 215.887C108.431 214.892 108.346 214.081 108.304 213.524C108.262 212.967 108.262 212.656 108.283 212.649C108.311 212.649 108.36 212.952 108.445 213.503C108.543 214.131 108.67 214.914 108.818 215.845C109.149 217.82 109.685 220.529 110.333 223.513C110.953 226.504 111.608 229.185 112.376 231.034C113.115 232.882 113.799 233.926 113.735 233.961V233.968Z" fill="#263238"/>
<path d="M124.105 238.681C124.056 238.78 122.132 237.855 119.646 237.03C117.159 236.198 115.067 235.788 115.088 235.676C115.095 235.626 115.63 235.675 116.483 235.824C117.335 235.979 118.504 236.261 119.758 236.677C121.012 237.093 122.118 237.573 122.893 237.954C123.668 238.342 124.126 238.624 124.105 238.674V238.681Z" fill="#263238"/>
<g opacity="0.3">
<path d="M84.8241 155.901C84.0069 160.254 84.3591 164.818 85.8526 168.988C85.8526 168.988 59.1746 177.481 46.3816 183.139C44.3105 179.711 43.4652 175.563 44.0287 171.598L84.8241 155.901Z" fill="white"/>
</g>
<path d="M102.041 129.213C102.041 129.213 101.964 129.256 101.802 129.326C101.625 129.404 101.386 129.503 101.09 129.63C100.47 129.905 99.5685 130.356 98.4906 131.062C96.3491 132.48 93.5665 135.175 91.5869 139.372C89.5651 143.527 88.2971 149.016 88.2407 155.125C88.1492 161.242 89.2692 167.972 91.5869 174.638C93.9328 181.298 97.2649 187.252 101.153 191.972C105.007 196.713 109.424 200.205 113.594 202.18C117.758 204.212 121.618 204.578 124.168 204.346C125.45 204.226 126.437 204.014 127.092 203.838C127.409 203.746 127.655 203.683 127.838 203.626C128.008 203.584 128.092 203.563 128.099 203.57C128.106 203.577 128.015 203.605 127.853 203.668C127.669 203.732 127.423 203.81 127.113 203.915C126.458 204.113 125.471 204.353 124.182 204.494C121.611 204.769 117.708 204.444 113.482 202.42C109.255 200.451 104.789 196.952 100.886 192.19C96.962 187.45 93.5946 181.46 91.2347 174.758C88.9029 168.049 87.7899 161.277 87.8955 155.118C87.966 148.959 89.2692 143.429 91.3404 139.252C93.3763 135.034 96.2223 132.332 98.3991 130.942C99.498 130.243 100.414 129.813 101.048 129.559C101.358 129.446 101.597 129.355 101.78 129.291C101.942 129.235 102.034 129.206 102.034 129.213H102.041Z" fill="#263238"/>
<path d="M116.976 209.086C116.976 209.086 116.729 209.108 116.285 209.086C115.841 209.065 115.207 209.002 114.425 208.903C112.854 208.706 110.699 208.325 108.367 207.704C106.035 207.076 103.971 206.335 102.513 205.721C101.78 205.418 101.203 205.15 100.808 204.952C100.414 204.755 100.195 204.635 100.209 204.614C100.231 204.564 101.132 204.931 102.612 205.482C104.084 206.032 106.148 206.73 108.466 207.351C110.783 207.972 112.918 208.388 114.468 208.649C116.017 208.91 116.99 209.037 116.983 209.094L116.976 209.086Z" fill="#263238"/>
<path d="M97.3705 204.226C97.4127 204.317 90.6217 207.288 82.2105 210.857C73.7922 214.427 66.9448 217.249 66.9025 217.157C66.8603 217.065 73.6513 214.095 82.0696 210.526C90.4808 206.956 97.3352 204.134 97.3775 204.233L97.3705 204.226Z" fill="#263238"/>
<path d="M166.915 69.6438C166.915 69.6438 166.88 69.7143 166.788 69.8483C166.689 69.9965 166.556 70.187 166.393 70.4268C166.027 70.9489 165.506 71.6896 164.844 72.6279C163.484 74.5326 161.505 77.2769 159.011 80.6349C156.517 83.993 153.516 87.9718 150.106 92.3175C148.395 94.4903 146.584 96.7619 144.661 99.0758C143.703 100.24 142.71 101.404 141.695 102.582C140.681 103.76 139.582 104.896 138.504 106.074C134.024 110.638 129.339 114.547 124.978 117.947C120.611 121.34 116.539 124.219 113.08 126.561C109.621 128.91 106.754 130.709 104.767 131.937C103.774 132.55 102.992 133.016 102.464 133.326C102.21 133.474 102.013 133.587 101.858 133.672C101.717 133.75 101.646 133.785 101.646 133.778C101.646 133.778 101.71 133.728 101.844 133.637C101.992 133.538 102.189 133.418 102.435 133.256C102.971 132.91 103.732 132.43 104.704 131.81C106.669 130.547 109.508 128.713 112.946 126.335C116.384 123.965 120.434 121.072 124.781 117.665C129.12 114.257 133.784 110.349 138.25 105.806C139.321 104.628 140.42 103.506 141.427 102.328C142.442 101.157 143.435 99.993 144.393 98.836C146.316 96.5291 148.134 94.2646 149.853 92.0988C153.276 87.7602 156.299 83.8025 158.821 80.4656C161.314 77.1288 163.336 74.4268 164.745 72.5291C165.435 71.6049 165.971 70.8783 166.351 70.3704C166.527 70.1376 166.668 69.9542 166.774 69.8131C166.873 69.6861 166.922 69.6296 166.929 69.6296L166.915 69.6438Z" fill="#263238"/>
<path d="M123.506 200.473C123.506 200.473 123.577 200.459 123.724 200.451C123.887 200.451 124.098 200.444 124.358 200.437C124.943 200.437 125.76 200.423 126.803 200.409C128.952 200.402 132.016 200.388 135.792 200.367C143.407 200.367 153.875 200.367 165.45 200.374C177.059 200.374 187.492 201.961 194.945 203.337C198.679 204.035 201.68 204.698 203.744 205.185C204.78 205.425 205.576 205.623 206.118 205.764C206.372 205.827 206.576 205.884 206.731 205.926C206.872 205.961 206.942 205.989 206.935 205.996C206.935 205.996 206.858 205.996 206.717 205.968C206.555 205.933 206.351 205.898 206.097 205.841C205.526 205.721 204.723 205.552 203.709 205.333C201.631 204.896 198.63 204.261 194.896 203.605C187.436 202.3 177.024 200.748 165.443 200.755C153.875 200.713 143.4 200.67 135.792 200.635C132.016 200.6 128.952 200.578 126.803 200.557C125.76 200.543 124.943 200.529 124.358 200.515C124.098 200.508 123.887 200.501 123.724 200.494C123.584 200.494 123.506 200.48 123.506 200.473Z" fill="#263238"/>
<path opacity="0.3" d="M257.734 117.284L165.696 71.097L160.124 78.9277C157.658 97.9259 160.166 121.94 168.267 146.667C176.087 170.533 187.703 190.78 200.391 204.614L218.791 209.093L257.727 117.284H257.734Z" fill="black"/>
<path d="M246.271 221.337C270.977 213.222 277.639 165.836 261.151 115.499C244.664 65.161 211.27 30.933 186.564 39.0484C161.858 47.1637 155.196 94.5493 171.683 144.887C188.171 195.225 221.565 229.453 246.271 221.337Z" fill="#257367"/>
<path d="M242.396 205.543C258.925 200.113 261.315 162.102 247.735 120.642C234.155 79.1821 209.747 49.9734 193.219 55.4026C176.69 60.8319 174.3 98.8432 187.88 140.303C201.46 181.763 225.867 210.972 242.396 205.543Z" fill="#E0E0E0"/>
<path opacity="0.3" d="M255.909 118.963C241.94 76.3104 215.84 46.582 197.615 52.5715C195.488 53.2699 193.572 54.4268 191.853 55.9859C192.318 55.7672 192.79 55.5768 193.276 55.4216C209.802 49.9895 234.212 79.2029 247.794 120.663C261.369 162.123 258.981 200.134 242.447 205.559C239.967 206.377 237.305 206.406 234.529 205.728C239.34 207.887 243.983 208.416 248.203 207.034C266.427 201.044 269.879 161.616 255.909 118.963Z" fill="black"/>
<path d="M182.991 124.487L226.054 115.146L233.867 139.005L194.755 159.753C194.755 159.753 183.695 135.273 182.984 124.487H182.991Z" fill="#257367"/>
<path opacity="0.2" d="M195.009 121.884C194.333 122.159 186.372 136.212 191.853 144.261C197.334 152.31 203.279 155.245 203.279 155.245L195.305 159.563L186.978 137.46L182.998 124.494L195.016 121.891L195.009 121.884Z" fill="black"/>
<path d="M235.98 125.101C238.136 131.69 237.192 137.919 233.867 139.005C230.542 140.099 226.097 135.64 223.941 129.051C221.785 122.462 222.729 116.233 226.054 115.146C229.379 114.053 233.825 118.511 235.98 125.101Z" fill="#257367"/>
<path d="M235.98 125.101C235.98 125.101 235.882 124.91 235.741 124.529C235.6 124.148 235.375 123.598 235.065 122.892C234.741 122.194 234.325 121.347 233.754 120.423C233.198 119.492 232.458 118.476 231.514 117.496C230.57 116.536 229.351 115.541 227.809 115.217C227.048 115.062 226.202 115.16 225.498 115.584C224.786 116.007 224.23 116.705 223.864 117.51C223.11 119.132 222.913 121.065 222.99 123.026C223.089 124.988 223.483 127.005 224.124 128.995C224.786 130.977 225.66 132.839 226.745 134.476C227.837 136.099 229.147 137.538 230.711 138.399C231.486 138.829 232.352 139.062 233.17 138.984C233.994 138.907 234.726 138.483 235.248 137.912C236.297 136.734 236.699 135.21 236.889 133.877C237.072 132.522 237.065 131.273 236.96 130.187C236.868 129.101 236.706 128.169 236.551 127.421C236.389 126.674 236.248 126.088 236.128 125.7C236.023 125.305 235.973 125.101 235.987 125.093C236.001 125.093 236.072 125.291 236.199 125.679C236.34 126.06 236.502 126.638 236.685 127.393C236.861 128.148 237.044 129.079 237.157 130.173C237.277 131.266 237.305 132.529 237.136 133.912C236.953 135.273 236.579 136.847 235.459 138.116C234.903 138.737 234.092 139.217 233.191 139.309C232.289 139.407 231.359 139.146 230.542 138.702C228.894 137.806 227.555 136.332 226.435 134.681C225.329 133.009 224.441 131.125 223.765 129.115C223.117 127.097 222.715 125.051 222.624 123.048C222.553 121.051 222.758 119.069 223.554 117.369C223.948 116.529 224.547 115.767 225.329 115.309C226.111 114.843 227.048 114.744 227.865 114.921C229.513 115.287 230.753 116.325 231.704 117.319C232.655 118.335 233.388 119.365 233.93 120.324C234.494 121.27 234.888 122.13 235.198 122.843C235.494 123.563 235.699 124.12 235.818 124.515C235.945 124.903 236.002 125.108 235.994 125.108L235.98 125.101Z" fill="#263238"/>
<path opacity="0.3" d="M232.308 133.872C234.216 133.245 234.76 129.676 233.523 125.9C232.286 122.124 229.737 119.571 227.829 120.197C225.922 120.824 225.378 124.393 226.615 128.169C227.852 131.945 230.401 134.498 232.308 133.872Z" fill="black"/>
<path d="M193.22 55.4074C193.22 55.4074 193.079 55.4779 192.79 55.5979C192.508 55.7319 192.071 55.873 191.536 56.1481C190.472 56.7055 188.943 57.6649 187.387 59.351C184.231 62.6878 181.392 68.9735 180.187 77.0935C179.546 81.1428 179.215 85.6437 179.222 90.4691C179.236 95.2945 179.574 100.451 180.222 105.841C181.518 116.621 184.167 128.324 188.042 140.24C191.966 152.141 196.756 163.139 202.089 172.6C204.752 177.333 207.534 181.686 210.373 185.587C213.226 189.481 216.15 192.91 219.059 195.795C224.829 201.623 230.831 205.002 235.353 205.82C237.601 206.257 239.404 206.13 240.587 205.94C241.179 205.848 241.623 205.7 241.926 205.637C242.229 205.566 242.384 205.538 242.384 205.538C242.384 205.538 241.785 205.75 240.602 206.011C239.411 206.222 237.601 206.37 235.325 205.954C233.057 205.545 230.38 204.536 227.569 202.857C224.751 201.192 221.807 198.864 218.876 195.972C215.938 193.086 212.994 189.658 210.127 185.757C207.266 181.855 204.47 177.496 201.793 172.755C196.432 163.28 191.627 152.268 187.697 140.339C183.815 128.402 181.173 116.677 179.891 105.869C179.243 100.466 178.919 95.2945 178.919 90.455C178.926 85.6155 179.278 81.1005 179.933 77.037C180.581 72.9665 181.575 69.3474 182.864 66.3351C184.132 63.3157 185.696 60.9171 187.281 59.2381C188.866 57.552 190.416 56.5996 191.501 56.0635C192.607 55.5767 193.22 55.3862 193.22 55.3862V55.4074Z" fill="#263238"/>
<path opacity="0.2" d="M191.071 149.319L226.407 134.321C226.407 134.321 229.147 138.991 232.648 139.168L195.298 159.556L191.071 149.312V149.319Z" fill="black"/>
<path opacity="0.3" d="M167.626 89.3828C167.626 89.3828 165.76 97.6579 167.626 100.825H174.192V89.3828H167.626Z" fill="white"/>
<g opacity="0.3">
<path d="M197.08 38.0317C191.74 38.9982 186.76 41.418 182.491 45.2839C171.649 54.4691 167.204 70.5185 167.288 84.5644C169.444 84.0705 172.572 83.3933 174.453 84.5644C174.995 77.5026 175.65 70.3421 178.179 63.7249C180.708 57.1076 185.386 51.0053 191.937 48.3386C197.27 46.1658 203.35 46.4621 208.887 48.0494C221.342 51.619 230.943 60.9947 239.566 70.9065C226.442 51.7954 211.049 39.5697 197.087 38.0317H197.08Z" fill="white"/>
</g>
<path d="M261.651 197.721C261.651 197.721 261.595 197.898 261.454 198.208C261.306 198.518 261.123 198.998 260.806 199.577C260.214 200.748 259.235 202.392 257.762 204.233C256.297 206.074 254.289 208.078 251.69 209.806C250.38 210.645 248.949 211.464 247.364 212.071C245.779 212.684 244.075 213.143 242.285 213.376C238.678 213.799 235.212 212.945 232.402 211.64C229.556 210.363 227.245 208.741 225.378 207.33C223.518 205.898 222.088 204.642 221.123 203.76C220.637 203.323 220.271 202.97 220.017 202.73C219.771 202.49 219.644 202.363 219.651 202.349C219.658 202.342 219.806 202.455 220.067 202.674C220.355 202.921 220.736 203.245 221.215 203.654C222.208 204.501 223.659 205.728 225.533 207.125C227.407 208.508 229.718 210.095 232.536 211.337C235.318 212.607 238.721 213.432 242.243 213.016C243.997 212.79 245.674 212.339 247.238 211.739C248.802 211.146 250.217 210.349 251.507 209.531C254.078 207.838 256.086 205.884 257.565 204.078C259.044 202.272 260.059 200.67 260.679 199.52C261.017 198.956 261.214 198.49 261.383 198.194C261.545 197.891 261.637 197.728 261.644 197.735L261.651 197.721Z" fill="white"/>
<g opacity="0.3">
<path d="M206.83 171.457C195.946 148.388 188.774 123.57 185.675 98.2434C184.646 89.8342 184.061 81.291 185.308 72.9101C186.175 67.0829 187.985 61.3051 190.937 56.2399C176.186 63.9436 174.509 100.536 187.534 140.31C201.109 181.771 225.519 210.977 242.053 205.552C242.63 205.362 243.187 205.129 243.722 204.861C235.339 204.459 227.414 200.056 221.454 194.081C215.086 187.697 210.683 179.626 206.83 171.464V171.457Z" fill="black"/>
</g>
<path d="M264.074 118.469L307.363 110.66L300.699 101.164L324.425 91.1534L286.61 95.7249L293.464 106.138L264.074 118.469Z" fill="#257367"/>
<path d="M260.08 90.5326L287.561 68.522L276.881 63.9153L286.427 46.5185L264.074 65.3333L273.338 69.7143L260.08 90.5326Z" fill="#257367"/>
<path d="M274.458 141.877L302.044 163.845L302.763 155.591L321.1 163.132L297.353 143.979L296.613 152.72L274.458 141.877Z" fill="#257367"/>
</svg>
