<svg width="357" height="338" viewBox="0 0 357 338" fill="none" xmlns="http://www.w3.org/2000/svg">
<g clip-path="url(#clip0_6450_28156)">
<path d="M179.875 328.638C177.402 330.068 174.354 330.071 171.878 328.645L82.412 277.122C77.0739 274.048 77.0673 266.347 82.4002 263.264L171.882 211.527C174.355 210.097 177.403 210.094 179.878 211.52L269.351 263.037C274.689 266.111 274.696 273.812 269.363 276.895L179.875 328.638Z" fill="#E0E0E0"/>
<path d="M175.878 318.538V237.939L90.9138 189.041V269.632L175.878 318.538Z" fill="#257367"/>
<path d="M175.878 237.94L260.842 188.823V269.421L175.878 318.538V237.94Z" fill="#257367"/>
<path opacity="0.15" d="M175.878 237.94L260.842 188.823V269.421L175.878 318.538V237.94Z" fill="white"/>
<path d="M175.878 237.94L88.6978 187.74L175.878 137.33L263.058 187.537L175.878 237.94Z" fill="#257367"/>
<path opacity="0.3" d="M175.878 237.94L88.6978 187.74L175.878 137.33L263.058 187.537L175.878 237.94Z" fill="white"/>
<path d="M175.878 237.94V252.335L88.6978 202.151V187.74L175.878 237.94Z" fill="#257367"/>
<path d="M263.059 187.537L175.878 237.939V252.335L263.059 201.94V187.537Z" fill="#257367"/>
<path opacity="0.15" d="M263.059 187.537L175.878 237.939V252.335L263.059 201.94V187.537Z" fill="white"/>
<path opacity="0.1" d="M90.9138 203.428V206.593L175.878 255.5V252.335L90.9138 203.428ZM260.85 203.218L175.878 252.335V255.5L260.842 206.383V203.218H260.85Z" fill="black"/>
<path d="M144.86 198.828L156.489 205.548L206.897 176.442L195.267 169.729L144.86 198.828Z" fill="#257367"/>
<path opacity="0.2" d="M203.989 178.126L206.897 176.442L195.268 169.729L195.283 173.112L203.989 178.126Z" fill="black"/>
<path opacity="0.1" d="M147.767 200.512L195.267 173.089V169.729L144.86 198.828L147.767 200.512Z" fill="black"/>
<path d="M291.387 142.667C292.627 143.073 297.555 144.013 297.758 141.983C297.818 141.382 297.503 140.818 297.202 140.307C295.512 137.458 293.521 134.534 290.479 133.203C287.323 131.828 283.537 131.505 280.172 130.911C276.37 130.242 272.562 129.505 268.866 128.347C268.452 128.22 268.009 128.077 267.588 128.19C266.732 128.415 266.447 129.497 266.484 130.385C266.597 132.94 268.114 135.278 270.075 136.924C271.134 137.811 272.321 138.533 273.598 139.059C275.213 139.721 276.806 139.894 278.481 140.187C280.299 140.51 282.065 141.089 283.913 141.367C284.514 141.457 291.403 142.367 291.403 142.675L291.387 142.667Z" fill="#F0997A"/>
<path d="M264.336 150.44C251.114 139.616 237.892 128.791 224.671 117.966C242.062 105.578 253.901 91.1 262.593 71.5856C275.814 82.4102 289.036 93.2349 302.258 104.06C293.566 123.566 281.727 138.044 264.336 150.44Z" fill="#FAFAFA" stroke="#257367" stroke-miterlimit="10"/>
<path d="M268.941 110.554C263.412 106.029 260.647 103.766 255.125 99.2411C259.483 93.4679 261.406 90.3634 264.651 83.846C270.18 88.3713 272.945 90.634 278.466 95.1593C275.221 101.677 273.298 104.781 268.941 110.554Z" stroke="#37474F" stroke-miterlimit="10"/>
<path d="M250.904 128.874C245.374 124.348 242.61 122.086 237.088 117.56C242.828 113.088 245.487 110.584 250.288 105.172C255.817 109.697 258.581 111.96 264.103 116.485C259.31 121.905 256.65 124.408 250.904 128.874Z" stroke="#37474F" stroke-miterlimit="10"/>
<path d="M289.367 111.193C285.483 108.014 283.537 106.42 279.653 103.24C279.3 102.947 279.195 102.383 279.428 101.977C279.458 101.917 279.473 101.895 279.51 101.834C279.736 101.429 280.209 101.331 280.562 101.624C284.446 104.804 286.392 106.397 290.276 109.577C290.629 109.87 290.741 110.442 290.508 110.848C290.478 110.908 290.463 110.93 290.426 110.99C290.2 111.396 289.72 111.494 289.367 111.201V111.193Z" fill="#E0E0E0"/>
<path d="M290.854 118.395C285.408 113.937 282.688 111.704 277.242 107.247C276.889 106.954 276.798 106.397 277.046 106.007C277.084 105.954 277.099 105.924 277.136 105.864C277.384 105.465 277.873 105.383 278.226 105.668C283.672 110.126 286.392 112.358 291.838 116.816C292.191 117.109 292.289 117.666 292.041 118.064C292.003 118.117 291.988 118.147 291.951 118.207C291.703 118.605 291.215 118.688 290.854 118.395Z" fill="#E0E0E0"/>
<path d="M289.089 121.078C283.642 116.621 280.923 114.388 275.476 109.93C275.123 109.637 275.048 109.089 275.304 108.705C275.341 108.653 275.356 108.622 275.394 108.57C275.657 108.179 276.152 108.104 276.506 108.389C281.952 112.847 284.671 115.08 290.118 119.537C290.471 119.83 290.554 120.379 290.298 120.77C290.261 120.823 290.246 120.853 290.208 120.905C289.945 121.296 289.449 121.372 289.089 121.078Z" fill="#E0E0E0"/>
<path d="M273.328 132.136C269.444 128.956 267.498 127.363 263.614 124.183C263.261 123.89 263.239 123.386 263.569 123.055C263.614 123.01 263.637 122.988 263.682 122.935C264.013 122.604 264.561 122.567 264.914 122.86C268.798 126.04 270.744 127.633 274.628 130.813C274.981 131.106 275.011 131.61 274.68 131.948C274.635 131.993 274.612 132.016 274.567 132.068C274.237 132.399 273.681 132.429 273.328 132.136Z" fill="#E0E0E0"/>
<path d="M273.839 138.548C268.392 134.09 265.673 131.858 260.226 127.4C259.873 127.107 259.866 126.618 260.204 126.303C260.249 126.258 260.279 126.235 260.324 126.19C260.67 125.874 261.233 125.852 261.586 126.145C267.033 130.602 269.752 132.835 275.198 137.293C275.551 137.586 275.567 138.082 275.221 138.398C275.176 138.443 275.146 138.465 275.101 138.511C274.755 138.826 274.184 138.841 273.831 138.556L273.839 138.548Z" fill="#E0E0E0"/>
<path d="M271.412 140.668C265.966 136.21 263.246 133.978 257.8 129.52C257.447 129.227 257.447 128.746 257.8 128.445C257.853 128.4 257.875 128.377 257.928 128.34C258.281 128.032 258.852 128.017 259.212 128.31C264.659 132.767 267.378 135 272.825 139.458C273.178 139.751 273.185 140.239 272.825 140.54C272.772 140.585 272.749 140.608 272.697 140.645C272.344 140.954 271.765 140.961 271.405 140.668H271.412Z" fill="#E0E0E0"/>
<path d="M265.17 103.473C264.516 98.8502 264.133 96.4898 263.224 91.7164C264.854 91.4082 265.665 91.2504 267.258 90.9271C267.784 93.4604 268.024 94.7158 268.475 97.2039C273.794 95.039 276.318 93.8738 281.088 91.4308C281.847 93.2875 282.222 94.2121 282.951 96.0613C276.325 99.2862 272.757 100.79 265.162 103.473H265.17Z" fill="#257367"/>
<path d="M342.922 163.543C339.384 161.949 328.123 161.302 321.925 159.979C314.39 158.371 310.687 155.777 304.812 148.644C298.93 141.517 297.668 140.006 295.715 137.631C294.317 135.925 294.167 134.977 287.954 134.865C281.734 134.744 273.606 135.361 271.54 135.586C269.482 135.804 267.416 135.895 263.464 137.36C259.52 138.834 257.349 139.57 255.576 140.555C253.803 141.54 253.172 144.84 252.489 146.862C251.805 148.884 251.61 150.576 253.06 151.027C254.502 151.478 257.349 151.357 259.791 148.14L261.969 147.524C261.969 147.524 257.334 151.094 256.62 152.553C255.907 154.011 255.644 156.867 256.62 158.378C257.59 159.889 259.115 162.152 259.115 162.152C259.115 162.152 258.063 164.79 260.106 166.903C262.134 169.015 263.442 170.218 263.442 170.218C263.442 170.218 261.939 171.142 260.737 172.601C259.565 174.029 260.887 176.081 264.013 176.104C266.477 176.119 270.383 174.036 273.328 173.345C276.273 172.661 280.54 171.142 282.703 171.887C283.394 172.127 284.799 173.172 286.099 173.961C287.391 174.751 288.563 175.277 290.043 176.449C292.995 178.795 294.655 181.426 299.749 182.501C304.849 183.568 307.997 182.997 312.196 184.673C314.954 185.778 342.734 198.61 343.388 198.948C351.366 203.083 357.451 198.054 356.992 187.688C356.542 177.314 351.133 167.211 342.937 163.52L342.922 163.543ZM263.224 158.762L262.908 158.168L266.071 155.251C266.071 155.251 268.903 154.996 271.217 155.026C269.106 155.379 268.024 155.837 267.055 156.469C265.838 157.273 263.224 158.762 263.224 158.762ZM269.249 166.497C266.92 167.564 266.033 168.301 266.033 168.301L265.613 166.422C265.613 166.422 268.114 165.023 268.663 164.911C269.219 164.805 274.38 164.317 276.295 163.979C272.607 164.956 270.961 165.7 269.249 166.489V166.497Z" fill="#FFBDA7"/>
<path d="M324.073 188.59C321.865 187.267 319.739 186.116 316.779 184.17C315.862 183.568 314.165 182.583 313.113 182.298C312.257 182.065 311.355 182.057 310.469 182.117C308.065 182.283 305.608 182.907 303.219 183.049C303.475 183.072 303.708 183.117 303.933 183.155C306.848 183.455 309.259 183.531 312.181 184.703C313.789 185.35 323.878 189.965 332.164 193.784C332.164 193.784 326.267 189.92 324.073 188.597V188.59Z" fill="#F0997A"/>
<path d="M279.969 142.735C277.182 142.592 274.41 142.367 271.622 142.262C270.698 142.216 269.684 142.262 268.775 142.622C267.386 143.201 266.139 144.013 264.959 144.938C263.171 145.749 260.632 146.524 259.197 146.719C257.319 146.975 255.411 145.937 255.561 146.11C255.711 146.276 256.913 147.381 256.147 149.034C255.681 150.042 255.058 150.824 254.269 151.237C255.802 151.275 257.92 150.636 259.798 148.162L261.977 147.546C261.977 147.546 266.386 144.111 268.956 143.126C269.797 142.81 270.676 142.78 271.607 142.825C274.387 142.931 277.182 143.043 279.969 143.013C280.9 142.968 281.847 143.013 282.748 142.78C281.824 142.885 280.893 142.788 279.969 142.743V142.735ZM262.908 158.168L266.071 155.251C267.844 155.101 269.564 155.018 271.217 155.026C273.568 154.522 278.429 153.47 279.811 151.974C277.707 152.898 274.988 153.793 272.066 153.748C269.151 153.703 267.07 153.154 265.695 154.116C264.321 155.078 261.954 157.702 261.714 158.063C260.827 159.386 259.362 160.19 259.107 162.167C259.625 160.911 263.224 158.762 263.224 158.762L262.908 158.168ZM269.331 163.896C268.475 164.091 266.176 165.174 265.222 165.722C264.268 166.271 265.019 167.376 263.87 167.94C262.72 168.496 260.301 167.136 260.301 167.136C262.217 169.113 263.434 170.248 263.434 170.248L266.041 168.308C266.123 167.887 265.981 167.263 265.62 166.429C265.62 166.429 268.122 165.031 268.67 164.918C269.226 164.813 274.387 164.324 276.303 163.986C277.67 163.768 280.262 162.204 280.69 160.265C278.466 162.325 278.218 162.881 275.807 163.264C273.395 163.648 270.188 163.708 269.331 163.903V163.896Z" fill="#F0997A"/>
<path d="M268.152 145.231C268.152 145.231 268.152 145.058 268.092 145.103C267.28 145.757 266.792 146.689 266.529 147.696C266.214 148.922 266.379 150.132 266.597 151.365C266.597 151.38 266.619 151.365 266.612 151.357C266.492 150.222 266.552 149.019 266.8 147.907C267.017 146.922 267.483 145.99 268.152 145.238V145.231ZM268.152 146.584C267.972 146.915 267.821 147.26 267.641 147.591C267.558 147.749 267.468 147.899 267.371 148.057C267.273 148.215 267.205 148.388 267.138 148.568C267.123 148.606 267.145 148.719 267.205 148.666C267.341 148.538 267.461 148.411 267.558 148.245C267.656 148.087 267.746 147.922 267.829 147.757C268.002 147.418 268.182 147.08 268.295 146.719C268.317 146.652 268.212 146.486 268.152 146.584ZM266.214 146.261C265.868 146.539 265.778 146.997 265.733 147.418C265.703 147.689 265.695 147.967 265.695 148.238C265.695 148.553 265.755 148.877 265.793 149.185C265.793 149.237 265.853 149.215 265.853 149.17C265.853 148.666 265.906 148.162 265.943 147.666C265.973 147.238 266.033 146.779 266.334 146.449C266.401 146.373 266.304 146.178 266.214 146.253V146.261Z" fill="#F0997A"/>
<path d="M267.378 159.829C267.303 159.506 267.288 159.168 267.295 158.844C267.295 158.784 267.198 158.686 267.175 158.784C267.092 159.122 267.108 159.461 267.175 159.799C267.25 160.167 267.401 160.536 267.656 160.821C267.716 160.889 267.739 160.761 267.716 160.716C267.581 160.43 267.453 160.137 267.378 159.829ZM269.729 159.837C269.707 159.701 269.677 159.558 269.647 159.423C269.579 159.137 269.489 158.867 269.384 158.589C269.369 158.551 269.331 158.491 269.279 158.514C269.226 158.529 269.234 158.596 269.241 158.641C269.324 158.897 269.384 159.153 269.436 159.416C269.466 159.551 269.496 159.686 269.511 159.822C269.534 159.964 269.557 160.122 269.617 160.258C269.639 160.318 269.722 160.333 269.744 160.258C269.782 160.13 269.744 159.957 269.722 159.829L269.729 159.837ZM268.557 159.731C268.497 159.386 268.422 159.032 268.332 158.694C268.249 158.371 268.174 158.032 268.032 157.732C267.994 157.649 267.844 157.604 267.859 157.732C267.896 158.07 268.032 158.401 268.107 158.732C268.189 159.077 268.257 159.431 268.317 159.776C268.43 160.476 268.46 161.19 268.602 161.881C268.617 161.941 268.693 161.986 268.708 161.904C268.775 161.535 268.73 161.152 268.7 160.784C268.67 160.43 268.625 160.077 268.557 159.724V159.731Z" fill="#F0997A"/>
<path d="M270.894 169.428C270.789 168.91 270.699 168.308 270.331 167.902C270.248 167.805 270.188 167.933 270.21 168.008C270.285 168.256 270.398 168.481 270.458 168.737C270.518 168.977 270.563 169.218 270.608 169.466C270.714 170.045 270.796 170.669 271.037 171.21C271.067 171.278 271.149 171.278 271.157 171.202C271.179 170.924 271.127 170.624 271.074 170.353C271.014 170.045 270.962 169.744 270.894 169.436V169.428ZM269.955 170.158C269.895 170.082 269.842 170.007 269.782 169.932C269.677 169.789 269.594 169.631 269.534 169.458C269.527 169.436 269.497 169.398 269.467 169.413C269.437 169.428 269.429 169.474 269.437 169.496C269.489 169.692 269.572 169.894 269.684 170.067C269.797 170.233 269.94 170.398 270.12 170.488C270.173 170.511 270.165 170.406 270.15 170.383C270.09 170.308 270.015 170.233 269.955 170.158ZM271.833 169.316C271.773 168.985 271.668 168.662 271.563 168.346C271.54 168.286 271.48 168.218 271.412 168.226C271.337 168.241 271.337 168.323 271.352 168.376C271.442 168.684 271.495 169 271.548 169.316C271.57 169.466 271.593 169.624 271.608 169.782C271.615 169.872 271.638 169.955 271.653 170.037C271.675 170.128 271.683 170.21 271.728 170.293C271.75 170.33 271.818 170.376 271.863 170.33C271.923 170.263 271.908 170.188 271.916 170.097C271.916 170.007 271.931 169.925 271.916 169.834C271.893 169.661 271.871 169.489 271.833 169.316Z" fill="#F0997A"/>
<path d="M268.64 137.052C267.927 138.413 267.694 139.991 267.904 141.51C267.904 141.562 267.972 141.585 267.972 141.517C268.024 140.036 268.34 138.608 268.843 137.218C268.881 137.105 268.715 136.909 268.64 137.052ZM267.258 138.36C267.138 138.563 267.07 138.826 267.018 139.059C266.965 139.3 266.92 139.57 266.965 139.811C266.973 139.856 267.048 139.924 267.07 139.849C267.1 139.736 267.1 139.623 267.115 139.51C267.13 139.39 267.145 139.277 267.168 139.157C267.19 139.044 267.22 138.931 267.258 138.826C267.296 138.713 267.341 138.601 267.378 138.488C267.393 138.443 267.378 138.39 267.348 138.36C267.326 138.338 267.281 138.323 267.258 138.36ZM269.527 138.601C269.474 138.578 269.407 138.601 269.407 138.661C269.391 138.939 269.331 139.202 269.241 139.465C269.219 139.525 269.196 139.585 269.174 139.646C269.151 139.706 269.114 139.773 269.091 139.833C269.068 139.901 269.046 139.961 269.016 140.021C268.978 140.089 268.948 140.149 268.918 140.224C268.903 140.262 268.941 140.397 269.001 140.352C269.053 140.307 269.091 140.254 269.136 140.202C269.181 140.142 269.234 140.074 269.279 140.014C269.361 139.901 269.422 139.751 269.467 139.615C269.557 139.345 269.609 139.059 269.617 138.766C269.617 138.698 269.594 138.623 269.527 138.593V138.601Z" fill="#F0997A"/>
<path d="M296.736 147.629C296.158 146.742 295.459 145.922 294.813 145.08C294.242 144.336 293.543 143.577 292.695 143.149C292.064 142.825 291.365 142.66 290.651 142.622C289.825 142.577 289.006 142.765 288.202 142.938C288.097 142.961 287.977 142.991 287.924 143.081C288.172 143.156 288.443 143.164 288.698 143.179C289.104 143.194 289.502 143.209 289.908 143.224C290.764 143.254 291.703 143.382 292.432 143.87C293.16 144.351 293.694 145.088 294.302 145.704C295.038 146.449 295.752 147.238 296.526 147.937C296.759 148.147 296.849 147.802 296.736 147.629ZM291.019 151.154C290.651 150.861 290.208 150.658 289.75 150.545C288.781 150.305 287.767 150.433 286.782 150.606C286.632 150.636 286.429 150.741 286.497 150.884C287.812 151.139 289.299 151.079 290.471 151.816C290.877 152.071 291.192 152.47 291.65 152.635C292.049 152.778 291.853 152.259 291.786 152.116C291.665 151.853 291.5 151.62 291.297 151.417C291.207 151.327 291.117 151.244 291.012 151.162L291.019 151.154ZM289.149 160.911C288.721 160.633 288.142 160.423 287.962 160.393C287.286 160.28 286.595 160.415 285.949 160.641C285.851 160.671 285.738 160.784 285.813 160.851C285.836 160.866 285.858 160.874 285.888 160.881C286.76 161.047 287.744 161.017 288.555 161.393C288.766 161.49 288.968 161.618 289.179 161.723C289.307 161.783 289.479 161.836 289.569 161.723C289.787 161.453 289.524 161.16 289.149 160.911Z" fill="#F0997A"/>
<path d="M252.759 145.99C253.999 146.629 254.284 148.132 254.156 148.899C254.044 149.583 253.863 150.124 253.563 150.621C252.864 151.786 251.7 150.748 251.813 149.26C252.128 147.914 252.308 147.531 252.752 145.99H252.759Z" fill="#FFBDA7"/>
<path opacity="0.6" d="M252.759 145.99C253.999 146.629 254.284 148.132 254.156 148.899C254.044 149.583 253.863 150.124 253.563 150.621C252.864 151.786 251.7 150.748 251.813 149.26C252.128 147.914 252.308 147.531 252.752 145.99H252.759Z" fill="#257367"/>
<path d="M254.179 148.305C253.646 147.907 253.09 147.26 252.639 146.411C252.676 146.283 252.722 146.14 252.759 145.99C253.728 146.486 254.111 147.516 254.171 148.305H254.179Z" fill="#257367"/>
<path d="M262.871 170.654C262.45 171.811 262.728 172.533 262.998 173.262C262.503 173.849 261.804 174.472 261.24 174.623C260.362 174.871 259.648 173.495 260.85 172.353C262.195 171.067 262.871 170.646 262.871 170.646V170.654Z" fill="#FFBDA7"/>
<path opacity="0.6" d="M262.871 170.654C262.45 171.811 262.728 172.533 262.998 173.262C262.503 173.849 261.804 174.472 261.24 174.623C260.362 174.871 259.648 173.495 260.85 172.353C262.195 171.067 262.871 170.646 262.871 170.646V170.654Z" fill="#257367"/>
<path d="M262.871 170.654C262.074 171.157 261.255 172.721 262.998 173.262C262.728 172.526 262.442 171.811 262.871 170.654Z" fill="#257367"/>
<path d="M300.913 182.741C301.507 186.101 302.934 188.605 305.03 189.815C305.916 190.319 306.885 190.582 307.899 190.582C309.162 190.582 310.499 190.198 311.828 189.424C312.895 188.808 313.924 187.966 314.886 186.951C319.198 182.456 322.338 174.51 322.338 167.286C322.338 164.866 321.985 162.723 321.339 160.957C320.588 158.912 319.423 157.371 317.913 156.499C316.418 155.635 314.503 155.484 312.602 156.289C313.158 156.664 313.616 156.927 314.195 157.273C314.631 157.168 314.863 157.153 315.021 157.153C315.802 157.153 316.524 157.348 317.192 157.732C317.974 158.183 318.642 158.874 319.191 159.784C320.287 161.581 320.903 164.204 320.903 167.286C320.903 174.3 317.846 181.982 313.691 186.147C312.873 186.973 312.001 187.665 311.107 188.184C309.124 189.334 307.268 189.469 305.736 188.582C304.121 187.657 302.964 185.65 302.4 182.959C301.92 182.899 301.424 182.839 300.906 182.749L300.913 182.741Z" fill="#257367"/>
<path d="M66.6341 140.179C65.3495 140.593 60.2562 141.57 60.0458 139.473C59.9857 138.856 60.3088 138.27 60.6243 137.736C62.3747 134.782 64.433 131.76 67.5807 130.392C70.841 128.971 74.7625 128.633 78.2407 128.017C82.1771 127.325 86.1136 126.566 89.9298 125.371C90.358 125.235 90.8163 125.092 91.252 125.205C92.1384 125.438 92.4314 126.558 92.3938 127.475C92.2812 130.121 90.7111 132.542 88.6828 134.241C87.5935 135.158 86.354 135.902 85.0393 136.443C83.3716 137.135 81.7189 137.308 79.9835 137.608C78.1054 137.939 76.2799 138.541 74.3718 138.826C73.7483 138.916 66.6266 139.864 66.6266 140.179H66.6341Z" fill="#AF6152"/>
<path d="M130.82 114.29C118.094 124.822 105.368 135.353 92.642 145.892C76.9863 133.226 65.2446 119.019 55.749 101.263C68.4749 90.7317 81.2007 80.2002 93.9266 69.6612C103.422 87.4242 115.164 101.624 130.82 114.29Z" fill="#FAFAFA" stroke="#257367" stroke-miterlimit="10"/>
<path d="M87.8867 107.465C82.568 111.87 79.9086 114.072 74.5899 118.47C70.3154 112.982 68.3622 110.081 64.8765 104.037C70.1952 99.632 72.8545 97.4294 78.1733 93.0319C81.659 99.0757 83.6122 101.977 87.8867 107.472V107.465Z" stroke="#37474F" stroke-miterlimit="10"/>
<path d="M104.925 125.386C99.6059 129.791 96.9465 131.993 91.6278 136.391C86.3467 131.828 83.8676 129.37 79.2776 124.138C84.5963 119.733 87.2557 117.53 92.5744 113.133C97.1644 118.365 99.6435 120.823 104.925 125.386Z" stroke="#37474F" stroke-miterlimit="10"/>
<path d="M93.9943 86.8453C90.2532 89.9424 88.3901 91.4834 84.649 94.5804C84.3034 94.8661 83.8301 94.7834 83.5973 94.4075C83.5672 94.3549 83.5447 94.3249 83.5146 94.2722C83.2742 93.8889 83.3644 93.3476 83.7099 93.0695C87.4511 89.9724 89.3216 88.4314 93.0553 85.3344C93.4008 85.0487 93.8666 85.1314 94.107 85.5148C94.137 85.5674 94.1596 85.5975 94.1896 85.6501C94.43 86.0335 94.3474 86.5672 94.0018 86.8528L93.9943 86.8453Z" fill="#E0E0E0"/>
<path d="M100.229 87.4843C94.9859 91.8216 92.3641 93.9941 87.128 98.3315C86.7825 98.6171 86.3017 98.542 86.0462 98.1736C86.0087 98.121 85.9937 98.0984 85.9561 98.0458C85.7082 97.67 85.7833 97.1438 86.1214 96.8581C91.365 92.5207 93.9868 90.3483 99.2228 86.0109C99.5684 85.7253 100.042 85.8004 100.297 86.1688C100.335 86.2214 100.35 86.2439 100.387 86.2966C100.635 86.6649 100.568 87.1986 100.222 87.4843H100.229Z" fill="#E0E0E0"/>
<path d="M102.002 90.01C96.7588 94.3474 94.137 96.5199 88.901 100.857C88.5554 101.143 88.0671 101.075 87.8042 100.714C87.7666 100.662 87.7516 100.639 87.714 100.587C87.4511 100.218 87.5262 99.6921 87.8643 99.4065C93.1079 95.0691 95.7296 92.8966 100.966 88.5592C101.311 88.2736 101.792 88.3412 102.055 88.7096C102.093 88.7622 102.108 88.7848 102.145 88.8374C102.408 89.2057 102.34 89.7244 101.995 90.01H102.002Z" fill="#E0E0E0"/>
<path d="M109.695 106.796C105.954 109.893 104.091 111.434 100.35 114.531C100.004 114.817 99.4781 114.787 99.1626 114.456C99.1175 114.411 99.095 114.388 99.0574 114.343C98.7494 114.02 98.7794 113.524 99.1175 113.238C102.859 110.141 104.722 108.6 108.463 105.503C108.808 105.217 109.334 105.255 109.642 105.578C109.687 105.623 109.71 105.646 109.747 105.691C110.055 106.014 110.033 106.51 109.687 106.788L109.695 106.796Z" fill="#E0E0E0"/>
<path d="M116.629 106.856C111.385 111.193 108.763 113.366 103.527 117.703C103.182 117.989 102.641 117.966 102.325 117.651C102.28 117.605 102.258 117.583 102.212 117.538C101.889 117.222 101.912 116.741 102.258 116.455C107.501 112.118 110.123 109.945 115.359 105.608C115.705 105.322 116.238 105.353 116.561 105.668C116.606 105.713 116.629 105.736 116.674 105.781C116.997 106.097 116.982 106.578 116.636 106.863L116.629 106.856Z" fill="#E0E0E0"/>
<path d="M118.882 108.976C113.639 113.313 111.017 115.486 105.781 119.823C105.435 120.109 104.894 120.094 104.564 119.785C104.519 119.74 104.496 119.718 104.451 119.68C104.121 119.372 104.136 118.891 104.481 118.613C109.725 114.275 112.347 112.103 117.583 107.766C117.928 107.48 118.469 107.502 118.8 107.811C118.845 107.856 118.867 107.878 118.912 107.916C119.243 108.224 119.235 108.698 118.89 108.983L118.882 108.976Z" fill="#E0E0E0"/>
<path d="M95.4741 128.881C90.9066 127.784 88.668 127.197 84.2808 125.972C84.7315 124.378 84.9569 123.582 85.4301 121.973C87.6989 122.634 88.8407 122.958 91.162 123.589C91.5452 117.966 91.8231 115.095 92.5668 109.239C94.2796 109.472 95.1436 109.585 96.8789 109.81C95.9849 117.658 95.707 121.484 95.4741 128.881Z" fill="#257367"/>
<path d="M0.0225874 186.297C-0.450688 197.024 5.84463 202.218 14.1007 197.941C14.7693 197.595 43.0381 185.184 45.75 183.749C49.7315 181.644 52.7139 182.516 57.9876 181.411C63.2612 180.298 64.974 177.577 68.0315 175.157C69.564 173.946 70.7735 173.398 72.1107 172.586C73.4479 171.766 74.9053 170.684 75.619 170.436C77.8501 169.669 82.2674 171.24 85.3174 171.947C88.3674 172.661 92.409 174.818 94.9557 174.796C98.1859 174.773 99.5607 172.646 98.3437 171.172C97.1042 169.662 95.5491 168.707 95.5491 168.707C95.5491 168.707 96.9013 167.459 98.9973 165.279C101.101 163.092 100.019 160.363 100.019 160.363C100.019 160.363 101.597 158.025 102.596 156.454C103.602 154.89 103.324 151.929 102.596 150.425C101.852 148.914 97.0591 145.216 97.0591 145.216L99.3128 145.855C101.844 149.177 104.789 149.305 106.277 148.839C107.772 148.373 107.576 146.614 106.87 144.524C106.164 142.434 105.503 139.014 103.67 137.999C101.837 136.985 99.5983 136.218 95.5116 134.699C91.4249 133.181 89.2839 133.083 87.1579 132.858C85.0244 132.625 76.6181 131.993 70.1801 132.113C63.7495 132.226 63.5993 133.211 62.1494 134.97C60.1286 137.436 58.5059 138.744 52.7365 146.366C49.6038 150.508 42.8352 152.455 34.9248 154.063C31.409 154.778 24.3099 156.025 17.9094 158.19C17.2258 158.423 16.5196 158.724 15.7984 159.092C7.55743 163.392 0.495863 175.57 0.0225874 186.297ZM91.8005 154.454C90.8013 153.8 89.682 153.327 87.4959 152.966C89.8924 152.936 92.8222 153.199 92.8222 153.199L96.09 156.213L95.7595 156.83C95.7595 156.83 93.055 155.281 91.793 154.454H91.8005ZM82.2373 162.235C84.2131 162.588 89.5543 163.092 90.1328 163.197C90.7037 163.31 93.2879 164.753 93.2879 164.753L92.8597 166.692C92.8597 166.692 91.9357 165.933 89.5318 164.82C87.7589 164.001 86.0536 163.227 82.2448 162.22L82.2373 162.235Z" fill="#C8856A"/>
<path d="M0.0225874 186.297C-0.450688 197.024 5.84463 202.218 14.1007 197.941C14.7693 197.595 42.3319 185.245 45.1641 184.042C49.5513 182.185 52.7214 182.508 57.9951 181.411C63.2687 180.298 64.9815 177.577 68.039 175.157C69.5716 173.946 70.781 173.398 72.1182 172.586C73.4554 171.766 74.9128 170.684 75.6265 170.436C77.8576 169.669 82.2749 171.24 85.3249 171.947C88.3749 172.661 92.4165 174.818 94.9632 174.796C98.1935 174.773 99.5682 172.646 98.3512 171.172C97.1117 169.662 95.5566 168.707 95.5566 168.707C95.5566 168.707 96.9088 167.459 99.0048 165.279C101.108 163.092 100.026 160.363 100.026 160.363C100.026 160.363 101.604 158.025 102.603 156.454C103.61 154.89 103.332 151.929 102.603 150.425C101.859 148.914 97.0666 145.216 97.0666 145.216L99.3203 145.855C101.852 149.177 104.797 149.305 106.284 148.839C107.779 148.373 107.584 146.614 106.878 144.524C106.172 142.434 105.51 139.014 103.677 137.999C101.844 136.985 99.6058 136.218 95.5191 134.699C91.4324 133.181 89.2914 133.083 87.1654 132.858C85.0319 132.625 76.6256 131.993 70.1876 132.113C63.757 132.226 63.6068 133.211 62.1569 134.97C60.1361 137.436 58.5134 138.744 52.744 146.366C49.6113 150.508 42.8428 152.455 34.9323 154.063C31.4165 154.778 24.3174 156.025 17.9169 158.19C17.2333 158.423 16.5271 158.724 15.806 159.092C7.55744 163.392 0.495863 175.57 0.0225874 186.297ZM91.8005 154.454C90.8013 153.8 89.682 153.327 87.4959 152.966C89.8924 152.936 92.8222 153.199 92.8222 153.199L96.09 156.213L95.7595 156.83C95.7595 156.83 93.055 155.281 91.793 154.454H91.8005ZM82.2373 162.235C84.2131 162.588 89.5543 163.092 90.1328 163.197C90.7037 163.31 93.2879 164.753 93.2879 164.753L92.8597 166.692C92.8597 166.692 91.9357 165.933 89.5318 164.82C87.7589 164.001 86.0536 163.227 82.2448 162.22L82.2373 162.235Z" fill="#C8856A"/>
<path d="M46.8919 180.99C45.9754 180.93 45.0438 180.93 44.1574 181.17C43.0681 181.471 42.099 182.11 41.2051 182.801C39.1241 184.41 37.7569 185.312 35.2102 187.139C33.2645 188.53 32.04 189.567 29.6511 190.942C36.7127 187.778 43.7968 184.621 45.164 184.049C48.7099 182.546 51.4594 182.471 55.1629 181.914C52.6914 181.772 49.3784 181.155 46.8919 180.99Z" fill="#AF6152"/>
<path d="M75.5739 140.292C76.5054 140.533 77.4896 140.488 78.4511 140.533C81.3359 140.563 84.2281 140.442 87.0978 140.337C88.0594 140.285 88.9684 140.322 89.8398 140.645C92.4992 141.668 97.0591 145.223 97.0591 145.223L99.3128 145.862C101.259 148.418 103.445 149.08 105.03 149.042C104.211 148.621 103.572 147.809 103.084 146.764C102.288 145.058 103.535 143.915 103.685 143.742C103.835 143.57 101.867 144.645 99.9213 144.374C98.4414 144.171 95.8196 143.374 93.9641 142.532C92.7471 141.578 91.4549 140.736 90.0201 140.142C89.0886 139.766 88.0293 139.728 87.0753 139.773C84.183 139.879 81.3208 140.112 78.4361 140.262C77.4821 140.307 76.513 140.405 75.5664 140.3L75.5739 140.292ZM95.7595 156.83C95.7595 156.83 99.4856 159.055 100.019 160.355C99.756 158.311 98.2386 157.476 97.3221 156.108C97.0742 155.732 94.6176 153.019 93.1978 152.026C91.778 151.034 89.6219 151.605 86.6095 151.65C83.5896 151.696 80.7724 150.771 78.6014 149.816C80.0362 151.357 85.062 152.455 87.496 152.973C89.2088 152.966 90.9892 153.049 92.8222 153.207L96.09 156.221L95.7595 156.837V156.83ZM82.7482 161.483C80.2541 161.092 79.9987 160.513 77.6999 158.386C78.1356 160.393 80.825 162.009 82.2373 162.235C84.2131 162.588 89.5543 163.092 90.1328 163.197C90.7037 163.31 93.2879 164.76 93.2879 164.76C92.9123 165.625 92.7696 166.271 92.8522 166.707L95.5492 168.714C95.5492 168.714 96.8112 167.542 98.7945 165.497C98.7945 165.497 96.2929 166.91 95.0984 166.331C93.9115 165.753 94.6852 164.61 93.7011 164.039C92.717 163.467 90.3281 162.347 89.4492 162.152C88.5702 161.956 85.2498 161.889 82.7557 161.49L82.7482 161.483Z" fill="#AF6152"/>
<path d="M92.0636 145.592C92.319 146.749 92.3791 147.99 92.2589 149.162C92.2589 149.177 92.2739 149.192 92.2815 149.17C92.5068 147.899 92.6796 146.644 92.3491 145.374C92.0786 144.336 91.5753 143.374 90.7339 142.69C90.6813 142.645 90.6363 142.788 90.6738 142.825C91.365 143.607 91.8457 144.569 92.0711 145.584L92.0636 145.592ZM90.5236 144.374C90.6438 144.75 90.8241 145.103 91.0044 145.449C91.0945 145.622 91.1847 145.787 91.2823 145.953C91.38 146.118 91.5077 146.253 91.6429 146.381C91.703 146.434 91.7255 146.321 91.7105 146.283C91.6429 146.103 91.5753 145.922 91.4701 145.757C91.3725 145.599 91.2823 145.441 91.1922 145.276C91.0044 144.938 90.8466 144.577 90.6588 144.239C90.5987 144.133 90.486 144.306 90.5086 144.374H90.5236ZM92.5444 144.096C92.8524 144.442 92.9125 144.915 92.9501 145.359C92.9876 145.877 93.0477 146.396 93.0402 146.915C93.0402 146.96 93.0928 146.982 93.1003 146.93C93.1379 146.607 93.198 146.276 93.198 145.945C93.198 145.659 93.198 145.381 93.1604 145.096C93.1153 144.66 93.0177 144.194 92.6646 143.9C92.5669 143.825 92.4768 144.028 92.5369 144.103L92.5444 144.096Z" fill="#AF6152"/>
<path d="M91.1094 158.852C91.0869 158.897 91.1094 159.032 91.1695 158.957C91.4324 158.664 91.5902 158.288 91.6653 157.905C91.7404 157.551 91.7555 157.206 91.6653 156.852C91.6428 156.755 91.5376 156.852 91.5376 156.912C91.5376 157.251 91.5376 157.604 91.455 157.935C91.3798 158.258 91.2446 158.551 91.1019 158.852H91.1094ZM89.006 158.386C89.0285 158.461 89.1111 158.438 89.1412 158.386C89.2013 158.251 89.2238 158.085 89.2463 157.935C89.2689 157.792 89.2989 157.649 89.329 157.514C89.3891 157.243 89.4492 156.98 89.5318 156.717C89.5468 156.679 89.5468 156.604 89.4942 156.589C89.4417 156.574 89.4041 156.627 89.3891 156.672C89.2839 156.95 89.1862 157.236 89.1186 157.529C89.0886 157.672 89.0585 157.815 89.0285 157.957C89.006 158.093 88.9684 158.266 89.006 158.401V158.386ZM90.1027 158.927C90.0652 159.31 90.0276 159.709 90.0952 160.085C90.1103 160.175 90.1929 160.122 90.2079 160.062C90.3582 159.348 90.3807 158.604 90.5009 157.882C90.561 157.521 90.6361 157.153 90.7188 156.8C90.8014 156.454 90.9366 156.116 90.9742 155.762C90.9892 155.62 90.839 155.672 90.7939 155.762C90.6436 156.071 90.5685 156.424 90.4859 156.755C90.3957 157.108 90.3131 157.469 90.253 157.83C90.1854 158.19 90.1403 158.559 90.1103 158.927H90.1027Z" fill="#AF6152"/>
<path d="M87.6462 168.812C87.5937 169.098 87.5336 169.406 87.5561 169.692C87.5561 169.774 87.6538 169.767 87.6838 169.699C87.9242 169.135 88.0144 168.496 88.127 167.895C88.1721 167.647 88.2172 167.391 88.2773 167.143C88.3449 166.888 88.4576 166.647 88.5327 166.392C88.5552 166.309 88.5027 166.181 88.4125 166.279C88.0369 166.7 87.9392 167.324 87.8341 167.857C87.7664 168.173 87.7063 168.489 87.6462 168.805V168.812ZM88.6003 168.85C88.6003 168.85 88.5778 168.985 88.6304 168.955C88.8182 168.857 88.9684 168.692 89.0811 168.519C89.2013 168.339 89.2764 168.136 89.3365 167.933C89.344 167.903 89.3365 167.857 89.3065 167.842C89.2764 167.827 89.2464 167.865 89.2389 167.888C89.1788 168.06 89.0886 168.226 88.9834 168.376C88.9233 168.459 88.8632 168.534 88.8107 168.609C88.7506 168.692 88.6754 168.767 88.6153 168.842L88.6003 168.85ZM86.7748 168.278C86.7673 168.369 86.7748 168.459 86.7748 168.549C86.7748 168.639 86.7748 168.722 86.8274 168.79C86.865 168.835 86.9401 168.79 86.9626 168.752C87.0152 168.669 87.0227 168.587 87.0453 168.489C87.0678 168.399 87.0828 168.316 87.0979 168.226C87.1129 168.068 87.1354 167.903 87.1579 167.745C87.2105 167.421 87.2706 167.091 87.3608 166.775C87.3758 166.715 87.3758 166.632 87.3007 166.617C87.2256 166.602 87.1655 166.677 87.1429 166.737C87.0302 167.061 86.9251 167.399 86.8575 167.745C86.8274 167.925 86.7974 168.098 86.7748 168.278Z" fill="#AF6152"/>
<path d="M89.9524 134.542C90.4708 135.977 90.7938 137.458 90.8539 138.992C90.8539 139.059 90.9215 139.029 90.929 138.984C91.1469 137.421 90.914 135.782 90.1703 134.376C90.0876 134.226 89.9148 134.429 89.9599 134.549L89.9524 134.542ZM91.4999 135.722C91.4999 135.722 91.4549 135.812 91.4699 135.85C91.5075 135.97 91.5525 136.083 91.5901 136.195C91.6276 136.308 91.6577 136.421 91.6802 136.541C91.7028 136.661 91.7178 136.782 91.7403 136.909C91.7554 137.03 91.7554 137.15 91.7854 137.263C91.8079 137.338 91.8831 137.263 91.8906 137.225C91.9357 136.97 91.8906 136.691 91.838 136.443C91.7854 136.203 91.7178 135.94 91.5901 135.722C91.5676 135.684 91.5225 135.699 91.4999 135.722ZM89.1486 136.15C89.1561 136.451 89.2162 136.744 89.3063 137.03C89.3514 137.165 89.419 137.323 89.5017 137.436C89.5467 137.503 89.5993 137.563 89.6444 137.631C89.6895 137.691 89.727 137.744 89.7871 137.789C89.8472 137.842 89.8848 137.699 89.8698 137.661C89.8397 137.586 89.8022 137.526 89.7646 137.451C89.7345 137.383 89.712 137.323 89.6895 137.255C89.6669 137.188 89.6294 137.127 89.6068 137.06C89.5843 137 89.5618 136.932 89.5392 136.872C89.4416 136.601 89.3815 136.323 89.3664 136.037C89.3664 135.97 89.2988 135.947 89.2387 135.97C89.1711 136 89.1411 136.083 89.1486 136.15Z" fill="#AF6152"/>
<path d="M61.3156 145.629C62.1194 144.9 62.8556 144.088 63.6144 143.314C64.2454 142.675 64.7938 141.916 65.5451 141.412C66.3038 140.909 67.2729 140.781 68.1593 140.743C68.5725 140.728 68.9932 140.713 69.4064 140.691C69.6768 140.683 69.9473 140.668 70.2102 140.593C70.1501 140.495 70.0299 140.465 69.9172 140.442C69.0834 140.27 68.2345 140.067 67.3856 140.112C66.6569 140.149 65.9282 140.322 65.2746 140.653C64.3957 141.096 63.6745 141.886 63.081 142.653C62.4124 143.525 61.6912 144.374 61.0903 145.291C60.9701 145.471 61.0677 145.825 61.3081 145.614L61.3156 145.629ZM66.7095 149.222C66.4991 149.433 66.3263 149.681 66.2061 149.952C66.1385 150.102 65.9357 150.643 66.3489 150.493C66.8221 150.32 67.1452 149.914 67.5659 149.651C68.7754 148.892 70.3154 148.952 71.6751 148.689C71.7427 148.546 71.5399 148.433 71.3821 148.403C70.368 148.223 69.3162 148.095 68.3096 148.335C67.8363 148.448 67.3856 148.666 66.9949 148.967C66.8898 149.05 66.7921 149.132 66.702 149.23L66.7095 149.222ZM68.5124 159.897C68.6026 160.01 68.7904 159.964 68.9181 159.897C69.1359 159.784 69.3463 159.656 69.5641 159.551C70.4055 159.16 71.4272 159.19 72.3212 159.017C72.3512 159.017 72.3737 159.01 72.3963 158.987C72.4714 158.92 72.3587 158.807 72.2611 158.769C71.5925 158.536 70.8713 158.401 70.1802 158.514C69.9923 158.544 69.3989 158.762 68.9556 159.055C68.565 159.31 68.2946 159.619 68.5199 159.897H68.5124Z" fill="#AF6152"/>
<path d="M106.585 143.622C105.308 144.284 105.007 145.84 105.135 146.629C105.248 147.336 105.495 147.719 105.803 148.238C106.532 149.44 107.674 148.538 107.554 147.005C107.223 145.614 107.035 145.216 106.577 143.622H106.585Z" fill="#C8856A"/>
<path opacity="0.2" d="M106.585 143.622C105.308 144.284 105.007 145.84 105.135 146.629C105.248 147.336 105.495 147.719 105.803 148.238C106.532 149.44 107.674 148.538 107.554 147.005C107.223 145.614 107.035 145.216 106.577 143.622H106.585Z" fill="white"/>
<path d="M105.12 146.013C105.668 145.599 106.247 144.93 106.712 144.058C106.675 143.923 106.63 143.78 106.585 143.622C105.586 144.141 105.187 145.201 105.12 146.013Z" fill="#AF6152"/>
<path d="M96.1277 169.135C96.5634 170.338 96.2779 171.075 95.9924 171.834C96.5033 172.443 97.232 173.082 97.8104 173.247C98.7194 173.503 99.4556 172.082 98.2161 170.902C96.8188 169.571 96.1277 169.135 96.1277 169.135Z" fill="#C8856A"/>
<path opacity="0.2" d="M96.1277 169.135C96.5634 170.338 96.2779 171.075 95.9924 171.834C96.5033 172.443 97.232 173.082 97.8104 173.247C98.7194 173.503 99.4556 172.082 98.2161 170.902C96.8188 169.571 96.1277 169.135 96.1277 169.135Z" fill="white"/>
<path d="M96.1277 169.135C96.9465 169.662 97.7954 171.27 95.9924 171.834C96.2779 171.075 96.5634 170.331 96.1277 169.135Z" fill="#AF6152"/>
<path d="M142.862 18.2891L147.256 10.6066L130.767 1.0223C130.767 1.0223 130.759 1.0223 130.752 1.01479H130.737V1.00727C127.972 -0.571327 124.163 -0.338296 119.956 2.08974C111.513 6.96835 104.669 18.8304 104.669 28.5876C104.669 33.4737 106.389 36.9091 109.161 38.5027L125.786 48.1622L130.301 40.2692C136.769 35.2778 141.862 26.3851 142.862 18.3042V18.2891Z" fill="#455A64"/>
<path d="M136.551 11.7342C128.107 16.6128 121.264 28.4749 121.264 38.2321C121.264 47.9893 128.107 51.9433 136.551 47.0647C144.995 42.1861 151.839 30.3241 151.839 20.5668C151.839 10.8096 144.995 6.85561 136.551 11.7342Z" fill="#263238"/>
<path d="M152.079 23.2279L156.241 15.9438L148.007 11.1855C148.007 11.1855 148 11.1855 147.992 11.178H147.977V11.1704C145.356 9.67453 141.75 9.89253 137.761 12.2003C129.76 16.8233 123.277 28.0614 123.277 37.3075C123.277 41.938 124.907 45.1929 127.536 46.7039L135.898 51.5374L140.18 44.0579C146.31 39.3296 151.14 30.9029 152.087 23.2429L152.079 23.2279Z" fill="#F5F5F5"/>
<path d="M123.743 32.8273C123.442 34.3457 123.277 35.8492 123.277 37.3075C123.277 41.938 124.907 45.1929 127.536 46.7039L135.898 51.5374L140.18 44.0579C140.593 43.7346 141.006 43.3963 141.404 43.043L123.743 32.8423V32.8273Z" fill="#EBEBEB"/>
<path d="M146.099 17.0112C138.099 21.6343 131.616 32.8724 131.616 42.1184C131.616 51.3645 138.099 55.108 146.099 50.485C154.1 45.862 160.583 34.6239 160.583 25.3778C160.583 16.1317 154.1 12.3882 146.099 17.0112Z" fill="#E0E0E0"/>
<path d="M199.842 59.9716C201.097 63.5723 199.888 65.1734 198.663 66.4589L191.091 72.45C191.091 72.45 178.267 66.7746 174.278 66.3536C172.573 66.1732 168.847 65.7598 168.952 68.4058C168.982 69.135 169.312 69.8265 169.658 70.4655L157.33 75.6298C154.183 72.1944 153.394 71.3074 150.682 68.2179C147.174 64.2113 147.031 62.2718 145.761 57.7916C145.003 55.123 144.221 53.2363 143.32 51.793C142.02 49.6656 140.48 48.4929 138.489 47.2226C136.559 45.9897 134.252 44.6066 131.631 43.0731C131.616 42.7724 131.608 42.4492 131.608 42.1335C131.608 32.8874 138.099 21.6418 146.099 17.0187C147.527 16.1919 148.909 15.6356 150.216 15.3274C153.852 18.026 167.389 27.881 172.423 30.8803C175.871 32.94 184.284 37.0819 187.68 38.2922C191.797 39.758 193.352 39.8257 195.162 44.0804C196.988 48.3576 198.716 51.2743 200.188 53.9353C201.653 56.5889 200.669 58.9944 199.842 59.9791V59.9716Z" fill="#FFA8A7"/>
<path d="M190.805 43.8699C190.482 43.4264 190.054 43.1107 189.603 42.8025C189.355 42.6371 189.115 42.4642 188.867 42.3064C188.574 42.1184 188.289 41.908 187.981 41.7576C187.921 41.7275 187.928 41.8328 187.958 41.8553C188.784 42.6897 189.896 43.1708 190.58 44.1556C190.865 44.569 191.068 45.0276 191.279 45.4786C191.549 46.0574 191.819 46.6212 192.105 47.185C192.127 47.2301 192.157 47.185 192.15 47.1474C191.849 46.0123 191.511 44.8321 190.805 43.8699Z" fill="#F28F8F"/>
<path d="M199.835 59.9641C200.015 59.7461 200.203 59.4605 200.376 59.1222C199.512 57.303 197.461 54.0632 195.808 50.0039C196.965 53.2363 197.934 54.86 199.835 59.9641Z" fill="#F28F8F"/>
<path d="M193.555 43.7722C193.517 43.5166 193.457 43.2685 193.359 43.0205C193.187 42.5845 192.969 42.171 192.646 41.8328C192.293 41.4419 191.834 41.1938 191.376 40.9533C190.865 40.6977 190.339 40.4646 189.784 40.3369C189.776 40.3369 189.769 40.3594 189.784 40.3594C190.249 40.63 190.73 40.8706 191.203 41.1337C191.632 41.3742 192.067 41.6373 192.39 42.0207C192.969 42.7047 193.179 43.6143 193.57 44.4036C193.592 44.4487 193.637 44.4412 193.637 44.3886C193.637 44.1781 193.592 43.9751 193.562 43.7647L193.555 43.7722Z" fill="#F28F8F"/>
<path d="M199.625 65.2711C199.482 63.3768 198.498 62.1515 197.461 59.7987C196.169 56.8444 193.299 51.1916 192.33 47.884C192.661 50.8533 194.644 61.1442 196.086 68.4885L198.655 66.4589C198.994 66.1055 199.332 65.7222 199.617 65.2787L199.625 65.2711Z" fill="#F28F8F"/>
<path d="M169.388 70.0596C169.267 69.6762 169.042 69.3154 168.854 68.9546C168.666 68.6013 168.509 68.2254 168.351 67.8571C168.058 67.158 167.795 66.4589 167.592 65.7297C167.389 64.9931 167.254 64.2338 167.232 63.4746C167.217 63.0987 167.232 62.7304 167.254 62.3545C167.269 62.1591 167.299 61.9636 167.322 61.7682C167.344 61.6179 167.382 61.46 167.397 61.3097C167.404 61.1969 167.397 61.0841 167.419 60.9714C167.427 60.9037 167.307 60.7459 167.254 60.8511C167.171 61.024 167.081 61.1894 167.036 61.3773C166.991 61.5427 166.954 61.7081 166.931 61.8734C166.878 62.2042 166.841 62.5349 166.833 62.8657C166.818 63.4821 166.863 64.106 166.969 64.7224C167.171 65.9402 167.607 67.1054 168.171 68.1953C168.336 68.5111 168.516 68.8193 168.689 69.1275C168.884 69.4657 169.087 69.8266 169.35 70.1122C169.38 70.1498 169.403 70.0897 169.395 70.0596H169.388Z" fill="#F28F8F"/>
<path d="M192.863 67.6992L185.103 53.0182C185.103 53.0182 177.17 55.2959 173.414 57.3782C169.658 59.4604 167.885 66.6769 169.335 70.1047L169.485 70.1347C169.2 69.5785 168.967 68.9997 168.937 68.3833C168.832 65.7447 172.558 66.1507 174.263 66.3311C178.26 66.752 191.076 72.4275 191.076 72.4275L192.961 70.9391L192.856 67.6842L192.863 67.6992Z" fill="#F28F8F"/>
<path d="M186.771 41.2615C191.271 43.246 191.804 45.7192 192.593 48.9215C193.39 52.1238 196.432 58.9418 197.626 62.0238C198.821 65.1059 199.084 65.8951 197.889 70.0672C196.695 74.2392 193.314 82.4103 193.314 82.4103C193.314 82.4103 183.188 50.3422 182.527 47.0572C181.866 43.7722 182.264 40.0663 186.764 41.2615H186.771Z" fill="#FFA8A7"/>
<path d="M196.883 67.9172C196.883 67.9172 196.868 67.9473 196.875 67.9698C197.018 68.0149 197.236 67.9172 197.379 67.8947C197.559 67.8571 197.739 67.827 197.927 67.7969C198.1 67.7669 198.288 67.7594 198.468 67.7443C198.49 67.6241 198.513 67.5113 198.528 67.3985C198.07 67.4512 197.612 67.5564 197.183 67.7143C197.071 67.7594 196.943 67.812 196.883 67.9172ZM196.868 65.7448C197.326 65.5869 197.777 65.4366 198.258 65.3764C198.385 65.3614 198.506 65.3539 198.633 65.3464C198.618 65.2261 198.603 65.0983 198.581 64.978C198.445 64.9855 198.31 65.0006 198.175 65.0156C197.672 65.0833 197.153 65.2261 196.718 65.4892C196.575 65.5794 196.733 65.7824 196.868 65.7373V65.7448ZM198.37 66.2183C198.085 66.2259 197.792 66.2635 197.514 66.3086C196.95 66.4063 196.349 66.5717 195.854 66.8723C195.726 66.9475 195.891 67.1129 196.004 67.0753C196.5 66.9024 196.973 66.7295 197.491 66.6318C197.739 66.5867 197.987 66.5566 198.235 66.5416C198.363 66.5416 198.506 66.5416 198.641 66.5416C198.648 66.4288 198.656 66.3236 198.656 66.2108C198.558 66.2108 198.46 66.2108 198.37 66.2108V66.2183Z" fill="#F28F8F"/>
<path d="M193.946 61.2947C192.638 58.8516 190.287 53.5445 189.153 50.1769L185.104 48.9215L183.766 51.5074C186.621 61.1895 193.322 82.4178 193.322 82.4178C193.322 82.4178 193.825 81.2076 194.509 79.4786C194.509 79.4786 195.41 71.9765 195.824 68.6239C196.229 65.2637 195.253 63.7453 193.946 61.3022V61.2947Z" fill="#F28F8F"/>
<path d="M179.356 79.7116C179.109 79.5387 178.853 79.3733 178.613 79.1929C175.262 76.7348 171.694 74.194 169.658 70.458L157.33 75.6147C160.47 79.0576 162.041 80.3581 164.039 82.1697C166.037 83.9813 172.107 86.4695 176.074 88.4615C179.995 90.4235 181.678 91.4308 182.669 90.8745C183.789 90.2431 185.216 83.6957 179.356 79.7116Z" fill="#FFA8A7"/>
<path d="M165.121 82.9815C165.166 82.8387 165.203 82.6959 165.256 82.5606C165.361 82.2674 165.489 81.9893 165.624 81.7111C165.759 81.4405 165.969 81.1699 166.045 80.8692C166.06 80.8016 165.962 80.6813 165.894 80.7339C165.624 80.9444 165.444 81.2751 165.286 81.5683C165.113 81.884 164.963 82.2223 164.843 82.5606C164.82 82.6207 164.805 82.6884 164.782 82.7485C164.888 82.8237 165 82.8988 165.121 82.974V82.9815Z" fill="#F28F8F"/>
<path d="M166.413 83.6355C166.548 83.1469 166.713 82.6733 166.938 82.2223C167.126 81.8389 167.359 81.4781 167.63 81.1473C167.817 80.9143 168.028 80.7038 168.261 80.5084C168.448 80.358 168.644 80.2227 168.817 80.0498C168.862 80.0047 168.794 79.8845 168.734 79.8995C168.253 80.0198 167.832 80.358 167.487 80.6963C167.119 81.0571 166.818 81.4781 166.57 81.9216C166.3 82.4102 166.105 82.9364 165.954 83.4776C166.097 83.5603 166.247 83.643 166.398 83.7332C166.405 83.6956 166.413 83.6656 166.42 83.628L166.413 83.6355Z" fill="#F28F8F"/>
<path d="M167.765 83.5303C167.9 83.1619 168.058 82.7936 168.253 82.4403C168.336 82.2899 168.426 82.1471 168.516 82.0043C168.606 81.869 168.749 81.7337 168.779 81.5608C168.794 81.4931 168.696 81.3804 168.621 81.4179C168.283 81.5984 168.043 82.0193 167.847 82.335C167.637 82.6733 167.472 83.0266 167.322 83.395C167.231 83.628 167.149 83.8685 167.074 84.1091C167.209 84.1842 167.352 84.2594 167.494 84.3346C167.577 84.064 167.667 83.7934 167.765 83.5227V83.5303Z" fill="#F28F8F"/>
<path d="M174.383 87.6421C174.751 85.4622 176.081 84.4173 176.081 84.4173C176.081 84.4173 178.913 85.605 180.123 86.695C181.332 87.7925 182.264 90.1829 181.512 90.9572C179.777 90.9572 177.448 89.2508 174.391 87.6421H174.383Z" fill="#FFC4C3"/>
<path opacity="0.3" d="M174.383 87.6421C174.736 87.8301 175.082 88.018 175.42 88.2059C175.705 87.1761 176.074 85.62 176.074 84.4173C176.074 84.4173 174.751 85.4622 174.376 87.6421H174.383Z" fill="white"/>
<path d="M179.589 59.8438C181.573 63.0837 184.623 68.9396 184.653 69.6988C184.855 73.9685 184.608 78.4262 184.608 83.0417C184.608 87.6572 184.57 91.0249 186.591 94.0843C188.424 96.8506 191.774 97.6099 192.263 94.588C192.683 92.0021 192.939 86.7401 193.314 82.4178C193.69 78.0954 194.682 71.8261 194.929 68.3231C195.177 64.8202 192.894 61.3848 191.339 56.8595C189.994 52.9206 188.852 47.9517 186.749 45.8469C184.645 43.7346 176.66 39.7806 173.76 38.2471L179.589 59.8438Z" fill="#FFA8A7"/>
<path d="M194.711 68.6013C194.463 68.6163 194.216 68.6163 193.96 68.6013C193.427 68.5712 192.931 68.4359 192.42 68.3231C192.292 68.2931 192.322 68.481 192.398 68.5261C192.878 68.7817 193.479 68.8644 194.013 68.9019C194.291 68.917 194.576 68.917 194.854 68.8869C194.862 68.8869 194.869 68.8869 194.877 68.8869C194.884 68.7817 194.892 68.6764 194.899 68.5787C194.832 68.5862 194.764 68.5937 194.704 68.6013H194.711Z" fill="#F28F8F"/>
<path d="M191.737 65.4666C191.654 65.5117 191.759 65.6621 191.834 65.6395C192.443 65.4967 193.066 65.429 193.69 65.5343C193.96 65.5794 194.231 65.6621 194.486 65.7673C194.569 65.7974 194.644 65.8425 194.727 65.8801C194.697 65.7372 194.667 65.6019 194.629 65.4591C194.351 65.3463 194.066 65.2637 193.773 65.2186C193.104 65.1133 192.353 65.1509 191.737 65.4591V65.4666Z" fill="#F28F8F"/>
<path d="M192.924 66.5942C192.435 66.5792 191.939 66.6092 191.459 66.7145C191.053 66.8047 190.46 66.9099 190.189 67.2632C190.174 67.2783 190.189 67.3234 190.204 67.3234C190.429 67.3384 190.655 67.2557 190.873 67.2031C191.106 67.1505 191.338 67.0903 191.579 67.0603C192.022 66.9926 192.473 66.9701 192.916 67.0001C193.352 67.0302 193.787 67.0979 194.208 67.2181C194.464 67.2933 194.704 67.391 194.944 67.4963C194.944 67.3309 194.929 67.158 194.914 66.9926C194.734 66.925 194.554 66.8723 194.373 66.8197C193.9 66.6919 193.412 66.6168 192.924 66.6017V66.5942Z" fill="#F28F8F"/>
<path d="M193.066 84.8833C192.894 84.8307 192.721 84.7781 192.548 84.733C192.195 84.6353 191.834 84.5526 191.474 84.4849C191.399 84.4699 191.309 84.515 191.301 84.5977C191.301 84.6879 191.384 84.748 191.459 84.7631C191.789 84.8232 192.12 84.8984 192.45 84.9886C192.608 85.0337 192.766 85.0788 192.931 85.1239C192.991 85.1389 193.044 85.1615 193.104 85.1765C193.104 85.0788 193.119 84.9886 193.127 84.8908C193.111 84.8908 193.089 84.8758 193.074 84.8758L193.066 84.8833Z" fill="#F28F8F"/>
<path d="M191.985 83.7031C192.353 83.8084 192.713 83.9437 193.066 84.094C193.104 84.1091 193.142 84.1316 193.179 84.1467C193.187 84.0189 193.202 83.8911 193.209 83.7633C193.194 83.7633 193.187 83.7482 193.172 83.7482C192.796 83.5979 192.413 83.4701 192.022 83.3724C191.632 83.2747 191.248 83.1995 190.85 83.1469C190.445 83.0943 189.986 83.0341 189.588 83.1243C189.513 83.1394 189.551 83.2671 189.611 83.2747C190.024 83.3574 190.445 83.3799 190.858 83.4476C191.233 83.5152 191.617 83.5979 191.985 83.7031Z" fill="#F28F8F"/>
<path d="M191.376 82.6808C191.887 82.7936 192.398 82.9364 192.894 83.1093C193.014 83.1544 193.134 83.1995 193.247 83.2446C193.254 83.1394 193.262 83.0341 193.269 82.9289C193.187 82.8988 193.104 82.8612 193.021 82.8387C192.473 82.6583 191.925 82.538 191.354 82.4628C191.203 82.4403 191.264 82.6583 191.369 82.6808H191.376Z" fill="#F28F8F"/>
<path d="M192.864 88.439C190.963 86.5973 188.957 87.2588 188.957 87.2588C188.957 87.2588 188.552 89.762 188.694 91.957C188.829 94.152 190.279 95.2269 191.391 95.4149C192.503 95.6028 192.653 93.4379 192.871 88.439H192.864Z" fill="#FFC4C3"/>
<path opacity="0.3" d="M192.826 89.2433C192.841 88.9802 192.849 88.7171 192.864 88.4315C190.963 86.5898 188.957 87.2513 188.957 87.2513C189.348 87.9278 191.451 89.1155 192.826 89.2433Z" fill="white"/>
<path d="M187.823 46.4257C186.944 45.223 185.622 44.5164 184.322 43.8549C183.593 43.4866 182.865 43.1107 182.189 42.6522C182.151 42.6221 182.136 42.7123 182.159 42.7273C183.188 43.6369 184.42 44.2683 185.554 45.0351C186.095 45.3959 186.613 45.8093 187.049 46.3055C187.567 46.8918 187.966 47.5909 188.281 48.305C188.627 49.0868 188.912 49.8911 189.22 50.688C189.243 50.7481 189.295 50.7105 189.288 50.6579C189.107 49.1845 188.702 47.636 187.815 46.4182L187.823 46.4257Z" fill="#F28F8F"/>
<path d="M211.269 131.474C196.071 138.315 180.866 145.163 165.669 152.004C156.557 132.316 150.239 112.411 146.115 91.115C161.312 84.2744 176.517 77.4263 191.714 70.5858C195.838 91.8818 202.164 111.787 211.269 131.474Z" fill="#FAFAFA" stroke="#257367" stroke-miterlimit="10"/>
<path d="M174.834 108.622C168.479 111.486 165.301 112.915 158.953 115.771C156.737 108.427 155.775 104.691 154.16 97.1212C160.516 94.2572 163.693 92.8289 170.049 89.9724C171.664 97.5422 172.625 101.286 174.842 108.622H174.834Z" stroke="#37474F" stroke-miterlimit="10"/>
<path d="M184.194 134.038C177.839 136.902 174.661 138.33 168.306 141.187C165.263 134.256 163.881 130.708 161.417 123.476C167.772 120.612 170.95 119.184 177.298 116.327C179.762 123.559 181.144 127.107 184.187 134.038H184.194Z" stroke="#37474F" stroke-miterlimit="10"/>
<path d="M186.899 88.7923C182.459 90.7918 180.235 91.7916 175.788 93.7911C175.36 93.9791 174.924 93.731 174.804 93.2274C174.797 93.1823 174.789 93.1672 174.781 93.1221C174.661 92.6185 174.917 92.0547 175.337 91.8668C179.777 89.8672 182.001 88.8674 186.448 86.8679C186.876 86.6799 187.312 86.928 187.432 87.4317C187.44 87.4768 187.447 87.4918 187.455 87.5369C187.575 88.0405 187.327 88.6043 186.899 88.7923Z" fill="#E0E0E0"/>
<path d="M192.593 91.5886C186.358 94.4 183.233 95.7982 176.998 98.6096C176.569 98.7976 176.126 98.5495 175.991 98.0534C175.984 98.0083 175.976 97.9932 175.961 97.9481C175.833 97.452 176.074 96.8882 176.502 96.7003C182.737 93.8889 185.862 92.4907 192.097 89.6793C192.526 89.4914 192.969 89.7394 193.097 90.2356C193.104 90.2807 193.112 90.2957 193.127 90.3408C193.254 90.8369 193.014 91.4007 192.593 91.5886Z" fill="#E0E0E0"/>
<path d="M193.487 94.8887C187.252 97.7001 184.127 99.0982 177.892 101.91C177.463 102.098 177.013 101.857 176.878 101.361C176.863 101.316 176.863 101.301 176.847 101.256C176.712 100.76 176.945 100.203 177.373 100.008C183.609 97.1964 186.734 95.7982 192.969 92.9868C193.397 92.7989 193.848 93.047 193.983 93.5356C193.998 93.5807 193.998 93.5957 194.013 93.6408C194.148 94.1369 193.915 94.6932 193.495 94.8811L193.487 94.8887Z" fill="#E0E0E0"/>
<path d="M195.072 115.568C190.632 117.568 188.409 118.568 183.961 120.567C183.533 120.755 183.045 120.53 182.872 120.048C182.857 120.011 182.85 119.988 182.835 119.951C182.662 119.47 182.865 118.928 183.285 118.74C187.725 116.741 189.949 115.741 194.396 113.742C194.824 113.554 195.305 113.787 195.485 114.26C195.5 114.298 195.508 114.32 195.523 114.358C195.696 114.839 195.5 115.38 195.072 115.568Z" fill="#E0E0E0"/>
<path d="M201.33 118.117C195.095 120.928 191.97 122.326 185.734 125.138C185.306 125.325 184.81 125.1 184.623 124.626C184.608 124.589 184.6 124.566 184.585 124.529C184.397 124.055 184.593 123.514 185.021 123.326C191.256 120.515 194.381 119.116 200.616 116.305C201.045 116.117 201.533 116.343 201.721 116.816C201.736 116.854 201.743 116.876 201.758 116.914C201.946 117.387 201.758 117.921 201.33 118.117Z" fill="#E0E0E0"/>
<path d="M202.6 121.236C196.364 124.048 193.239 125.446 187.004 128.257C186.576 128.445 186.08 128.227 185.885 127.753C185.87 127.716 185.862 127.693 185.847 127.656C185.652 127.19 185.847 126.648 186.268 126.461C192.503 123.649 195.628 122.251 201.863 119.44C202.291 119.252 202.787 119.477 202.983 119.943C202.998 119.981 203.005 120.003 203.02 120.041C203.216 120.507 203.02 121.041 202.6 121.236Z" fill="#E0E0E0"/>
<path d="M168.096 109.231C164.422 106.961 162.619 105.803 159.073 103.481C159.952 101.707 160.388 100.82 161.282 99.0381C163.115 100.263 164.039 100.88 165.909 102.09C167.945 95.5727 169.027 92.2877 171.341 85.6651C172.821 86.2665 173.572 86.5672 175.067 87.161C172.565 94.4451 170.237 101.827 168.096 109.224V109.231Z" fill="#257367"/>
<path d="M186.771 41.2615C191.271 43.246 191.804 45.7192 192.593 48.9215C193.39 52.1238 196.432 58.9418 197.626 62.0238C198.821 65.1059 199.084 65.8951 197.889 70.0672C196.695 74.2392 193.314 82.4103 193.314 82.4103C193.314 82.4103 183.188 50.3422 182.527 47.0572C181.866 43.7722 182.264 40.0663 186.764 41.2615H186.771Z" fill="#FFA8A7"/>
<path d="M196.883 67.9172C196.883 67.9172 196.868 67.9473 196.875 67.9698C197.018 68.0149 197.236 67.9172 197.379 67.8947C197.559 67.8571 197.739 67.827 197.927 67.7969C198.1 67.7669 198.288 67.7594 198.468 67.7443C198.49 67.6241 198.513 67.5113 198.528 67.3985C198.07 67.4512 197.612 67.5564 197.183 67.7143C197.071 67.7594 196.943 67.812 196.883 67.9172ZM196.868 65.7448C197.326 65.5869 197.777 65.4366 198.258 65.3764C198.385 65.3614 198.506 65.3539 198.633 65.3464C198.618 65.2261 198.603 65.0983 198.581 64.978C198.445 64.9855 198.31 65.0006 198.175 65.0156C197.672 65.0833 197.153 65.2261 196.718 65.4892C196.575 65.5794 196.733 65.7824 196.868 65.7373V65.7448ZM198.37 66.2183C198.085 66.2259 197.792 66.2635 197.514 66.3086C196.95 66.4063 196.349 66.5717 195.854 66.8723C195.726 66.9475 195.891 67.1129 196.004 67.0753C196.5 66.9024 196.973 66.7295 197.491 66.6318C197.739 66.5867 197.987 66.5566 198.235 66.5416C198.363 66.5416 198.506 66.5416 198.641 66.5416C198.648 66.4288 198.656 66.3236 198.656 66.2108C198.558 66.2108 198.46 66.2108 198.37 66.2108V66.2183Z" fill="#F28F8F"/>
<path d="M193.946 61.2947C192.638 58.8516 190.287 53.5445 189.153 50.1769L185.104 48.9215L183.766 51.5074C186.621 61.1895 193.322 82.4178 193.322 82.4178C193.322 82.4178 193.825 81.2076 194.509 79.4786C194.509 79.4786 195.41 71.9765 195.824 68.6239C196.229 65.2637 195.253 63.7453 193.946 61.3022V61.2947Z" fill="#F28F8F"/>
<path d="M179.589 59.8438C181.573 63.0837 184.623 68.9396 184.653 69.6988C184.855 73.9685 184.608 78.4262 184.608 83.0417C184.608 87.6572 184.57 91.0249 186.591 94.0843C188.424 96.8506 191.774 97.6099 192.263 94.588C192.683 92.0021 192.939 86.7401 193.314 82.4178C193.69 78.0954 194.682 71.8261 194.929 68.3231C195.177 64.8202 192.894 61.3848 191.339 56.8595C189.994 52.9206 188.852 47.9517 186.749 45.8469C184.645 43.7346 176.66 39.7806 173.76 38.2471L179.589 59.8438Z" fill="#FFA8A7"/>
<path d="M194.711 68.6013C194.463 68.6163 194.216 68.6163 193.96 68.6013C193.427 68.5712 192.931 68.4359 192.42 68.3231C192.292 68.2931 192.322 68.481 192.398 68.5261C192.878 68.7817 193.479 68.8644 194.013 68.9019C194.291 68.917 194.576 68.917 194.854 68.8869C194.862 68.8869 194.869 68.8869 194.877 68.8869C194.884 68.7817 194.892 68.6764 194.899 68.5787C194.832 68.5862 194.764 68.5937 194.704 68.6013H194.711Z" fill="#F28F8F"/>
<path d="M191.737 65.4666C191.654 65.5117 191.759 65.6621 191.834 65.6395C192.443 65.4967 193.066 65.429 193.69 65.5343C193.96 65.5794 194.231 65.6621 194.486 65.7673C194.569 65.7974 194.644 65.8425 194.727 65.8801C194.697 65.7372 194.667 65.6019 194.629 65.4591C194.351 65.3463 194.066 65.2637 193.773 65.2186C193.104 65.1133 192.353 65.1509 191.737 65.4591V65.4666Z" fill="#F28F8F"/>
<path d="M192.924 66.5942C192.435 66.5792 191.939 66.6092 191.459 66.7145C191.053 66.8047 190.46 66.9099 190.189 67.2632C190.174 67.2783 190.189 67.3234 190.204 67.3234C190.429 67.3384 190.655 67.2557 190.873 67.2031C191.106 67.1505 191.338 67.0903 191.579 67.0603C192.022 66.9926 192.473 66.9701 192.916 67.0001C193.352 67.0302 193.787 67.0979 194.208 67.2181C194.464 67.2933 194.704 67.391 194.944 67.4963C194.944 67.3309 194.929 67.158 194.914 66.9926C194.734 66.925 194.554 66.8723 194.373 66.8197C193.9 66.6919 193.412 66.6168 192.924 66.6017V66.5942Z" fill="#F28F8F"/>
<path d="M193.066 84.8833C192.894 84.8307 192.721 84.7781 192.548 84.733C192.195 84.6353 191.834 84.5526 191.474 84.4849C191.399 84.4699 191.309 84.515 191.301 84.5977C191.301 84.6879 191.384 84.748 191.459 84.7631C191.789 84.8232 192.12 84.8984 192.45 84.9886C192.608 85.0337 192.766 85.0788 192.931 85.1239C192.991 85.1389 193.044 85.1615 193.104 85.1765C193.104 85.0788 193.119 84.9886 193.127 84.8908C193.111 84.8908 193.089 84.8758 193.074 84.8758L193.066 84.8833Z" fill="#F28F8F"/>
<path d="M191.985 83.7031C192.353 83.8084 192.713 83.9437 193.066 84.094C193.104 84.1091 193.142 84.1316 193.179 84.1467C193.187 84.0189 193.202 83.8911 193.209 83.7633C193.194 83.7633 193.187 83.7482 193.172 83.7482C192.796 83.5979 192.413 83.4701 192.022 83.3724C191.632 83.2747 191.248 83.1995 190.85 83.1469C190.445 83.0943 189.986 83.0341 189.588 83.1243C189.513 83.1394 189.551 83.2671 189.611 83.2747C190.024 83.3574 190.445 83.3799 190.858 83.4476C191.233 83.5152 191.617 83.5979 191.985 83.7031Z" fill="#F28F8F"/>
<path d="M191.376 82.6808C191.887 82.7936 192.398 82.9364 192.894 83.1093C193.014 83.1544 193.134 83.1995 193.247 83.2446C193.254 83.1394 193.262 83.0341 193.269 82.9289C193.187 82.8988 193.104 82.8612 193.021 82.8387C192.473 82.6583 191.925 82.538 191.354 82.4628C191.203 82.4403 191.264 82.6583 191.369 82.6808H191.376Z" fill="#F28F8F"/>
<path d="M192.864 88.439C190.963 86.5973 188.957 87.2588 188.957 87.2588C188.957 87.2588 188.552 89.762 188.694 91.957C188.829 94.152 190.279 95.2269 191.391 95.4149C192.503 95.6028 192.653 93.4379 192.871 88.439H192.864Z" fill="#FFC4C3"/>
<path opacity="0.3" d="M192.826 89.2433C192.841 88.9802 192.849 88.7171 192.864 88.4315C190.963 86.5898 188.957 87.2513 188.957 87.2513C189.348 87.9278 191.451 89.1155 192.826 89.2433Z" fill="white"/>
<path d="M187.823 46.4257C186.944 45.223 185.622 44.5164 184.322 43.8549C183.593 43.4866 182.865 43.1107 182.189 42.6522C182.151 42.6221 182.136 42.7123 182.159 42.7273C183.188 43.6369 184.42 44.2683 185.554 45.0351C186.095 45.3959 186.613 45.8093 187.049 46.3055C187.567 46.8918 187.966 47.5909 188.281 48.305C188.627 49.0868 188.912 49.8911 189.22 50.688C189.243 50.7481 189.295 50.7105 189.288 50.6579C189.107 49.1845 188.702 47.636 187.815 46.4182L187.823 46.4257Z" fill="#F28F8F"/>
<path d="M310.078 51.5223C310.078 51.5223 308.185 55.5741 310.334 59.1146L313.947 59.4304C313.947 59.4304 312.212 57.5285 312.918 52.6649L310.071 51.5223H310.078Z" fill="#455A64"/>
<path d="M73.7259 11.2757C73.7259 11.2757 75.2659 15.4778 72.8169 18.8154H69.1885C69.1885 18.8154 71.0816 17.0789 70.7961 12.1702L73.7334 11.2757H73.7259Z" fill="#455A64"/>
<path d="M14.0181 50.5452C14.0181 50.5452 17.1131 53.77 21.1923 53.0333L22.7924 49.7709C22.7924 49.7709 20.396 50.7105 16.114 48.2975L14.0256 50.5452H14.0181Z" fill="#455A64"/>
<path d="M222.74 54.0106C222.74 54.0106 224.761 57.9946 228.878 58.4832L231.357 55.8297C231.357 55.8297 228.787 56.0251 225.399 52.4695L222.748 54.0106H222.74Z" fill="#455A64"/>
<path d="M186.456 9.80987C186.456 9.80987 188.476 13.7939 192.593 14.2826L195.072 11.629C195.072 11.629 192.503 11.8245 189.115 8.26886L186.463 9.80987H186.456Z" fill="#455A64"/>
<path d="M330.594 111.712C328.378 113.666 324.757 115.11 321.79 114.388C319.514 113.832 317.2 111.374 319.191 109.231C319.964 108.389 323.127 106.909 324.126 108.036C324.817 108.825 324.096 109.825 323.368 110.306C321.234 111.742 317.944 110.329 316.982 108.134C315.54 104.849 318.815 101.992 321.474 100.714C321.655 100.632 321.452 100.324 321.294 100.384C316.539 102.083 313.436 108.683 319.461 111.013C321.084 111.644 323.165 111.652 324.442 110.284C325.163 109.509 325.486 108.382 324.592 107.623C323.157 106.412 320.175 107.487 318.973 108.532C317.576 109.758 317.538 111.607 318.732 113.005C321.782 116.591 327.935 114.749 330.767 111.915C330.85 111.832 330.7 111.614 330.594 111.704V111.712Z" fill="#257367"/>
<path d="M263.449 35.1802C262.195 37.9465 262.721 44.8998 267.138 44.4864C269.497 44.2684 272.028 40.8405 270.008 38.8335C269.895 38.7207 269.715 38.7658 269.609 38.8635C264.366 43.8324 272.246 53.1761 277.82 47.9066C277.993 47.7413 277.655 47.6435 277.527 47.7338C275.018 49.5604 272.088 49.1545 270.098 46.8167C269.279 45.8545 268.685 44.6592 268.505 43.4039C268.37 42.4642 268.46 40.2317 269.497 39.713C269.977 39.4724 269.504 39.3446 269.887 39.6528C270.12 39.8483 270.158 40.2542 270.18 40.5474C270.225 41.2314 269.902 41.9531 269.504 42.5018C268.625 43.7121 267.078 44.3661 265.711 43.5617C262.976 41.9531 263.059 37.8487 263.84 35.2102C263.893 35.0223 263.524 35.0373 263.464 35.1726L263.449 35.1802Z" fill="#257367"/>
<path d="M263.517 14.3201C263.517 14.3201 259.085 14.8689 256.38 11.7342L257.199 8.19366C257.199 8.19366 258.469 10.4338 263.314 11.2607L263.525 14.3201H263.517Z" fill="#257367"/>
<path d="M36.7881 14.3201C36.7881 14.3201 32.3558 14.8689 29.6514 11.7342L30.4627 8.19366C30.4627 8.19366 31.7323 10.4338 36.5777 11.2607L36.7881 14.3201Z" fill="#257367"/>
<path d="M338.64 14.463C339.985 18.5823 334.208 25.8213 329.926 22.4537C327.545 20.5819 327.259 15.4101 330.782 14.6885C330.985 14.6509 331.173 14.8087 331.256 14.9741C332.743 18.1163 332.044 21.7095 328.055 22.0026C324.517 22.2582 321.362 19.6949 320.423 16.3798C320.37 16.1844 320.738 16.1769 320.806 16.3272C322.046 19.0785 324.434 21.4088 327.642 21.2885C328.777 21.2509 329.956 20.8751 330.692 19.9655C331.09 19.4694 331.308 18.868 331.368 18.2366C331.413 17.7104 331.308 15.8687 330.82 15.568C329.843 14.9591 328.949 17.3796 328.874 18.0561C328.731 19.3265 329.107 20.8901 330.076 21.7846C331.684 23.2655 333.892 22.3259 335.342 21.1156C337.296 19.4919 338.648 17.0864 338.167 14.493C338.122 14.26 338.58 14.2825 338.64 14.463Z" fill="#257367"/>
<path d="M52.1207 60.573C49.6191 60.9789 46.6818 62.5951 45.5474 64.963C44.676 66.7821 45.0441 69.6537 47.5457 69.5033C48.5223 69.4432 51.2342 68.1503 51.0239 66.8723C50.8811 65.9853 49.8219 65.9177 49.1007 66.1357C46.9823 66.7746 46.1334 69.7288 47.0574 71.563C48.4472 74.3143 52.1282 73.6904 54.4345 72.6229C54.5847 72.5553 54.6824 72.8485 54.5547 72.9236C50.8361 75.1562 44.7586 73.6152 46.5015 68.3457C46.9672 66.925 48.1016 65.5343 49.7017 65.4291C50.6107 65.3689 51.5347 65.7748 51.5497 66.7821C51.5723 68.3983 49.2284 69.789 47.8837 70.022C46.3061 70.2851 45.0666 69.3004 44.7811 67.7443C44.06 63.7603 48.635 60.6782 52.0681 60.3475C52.1657 60.34 52.2334 60.558 52.1132 60.573H52.1207Z" fill="#257367"/>
<path d="M22.1314 101.526C25.6171 100.978 31.0035 104.992 29.3357 108.788C27.9159 112.013 22.8301 113.862 21.7483 109.517C21.7258 109.427 21.7483 109.299 21.8234 109.239C24.6556 106.946 27.4877 110.179 27.991 112.967C28.7723 117.29 24.8885 119.086 21.1398 118.417C21.0196 118.395 20.937 118.109 21.0947 118.117C23.9269 118.169 27.6004 117.658 27.6079 114.08C27.6079 112.171 26.4059 109.577 24.3926 109.058C23.8893 108.931 23.2207 108.886 22.7625 109.171C21.7558 109.803 22.492 110.87 23.4386 111.314C24.9486 112.02 26.8191 110.983 27.8859 109.915C31.5368 106.27 25.805 102.015 22.184 101.774C22.0713 101.774 21.9887 101.534 22.1239 101.519L22.1314 101.526Z" fill="#257367"/>
<path d="M88.4126 47.9743C88.4126 47.9743 92.8148 47.2075 94.4825 43.4189L92.6721 40.2692C92.6721 40.2692 92.1086 42.7799 87.7214 44.9825L88.4126 47.9743Z" fill="#257367"/>
<path d="M334.974 76.6146C334.974 76.6146 338.881 78.7795 342.562 76.8777L343.125 73.292C343.125 73.292 341.112 74.9007 336.311 73.8558L334.974 76.6221V76.6146Z" fill="#257367"/>
<g opacity="0.4">
<path d="M330.594 111.712C328.378 113.666 324.757 115.11 321.79 114.388C319.514 113.832 317.2 111.374 319.191 109.231C319.964 108.389 323.127 106.909 324.126 108.036C324.817 108.825 324.096 109.825 323.368 110.306C321.234 111.742 317.944 110.329 316.982 108.134C315.54 104.849 318.815 101.992 321.474 100.714C321.655 100.632 321.452 100.324 321.294 100.384C316.539 102.083 313.436 108.683 319.461 111.013C321.084 111.644 323.165 111.652 324.442 110.284C325.163 109.509 325.486 108.382 324.592 107.623C323.157 106.412 320.175 107.487 318.973 108.532C317.576 109.758 317.538 111.607 318.732 113.005C321.782 116.591 327.935 114.749 330.767 111.915C330.85 111.832 330.7 111.614 330.594 111.704V111.712Z" fill="white"/>
<path d="M263.449 35.1802C262.195 37.9465 262.721 44.8998 267.138 44.4864C269.497 44.2684 272.028 40.8405 270.008 38.8335C269.895 38.7207 269.715 38.7658 269.609 38.8635C264.366 43.8324 272.246 53.1761 277.82 47.9066C277.993 47.7413 277.655 47.6435 277.527 47.7338C275.018 49.5604 272.088 49.1545 270.098 46.8167C269.279 45.8545 268.685 44.6592 268.505 43.4039C268.37 42.4642 268.46 40.2317 269.497 39.713C269.977 39.4724 269.504 39.3446 269.887 39.6528C270.12 39.8483 270.158 40.2542 270.18 40.5474C270.225 41.2314 269.902 41.9531 269.504 42.5018C268.625 43.7121 267.078 44.3661 265.711 43.5617C262.976 41.9531 263.059 37.8487 263.84 35.2102C263.893 35.0223 263.524 35.0373 263.464 35.1726L263.449 35.1802Z" fill="white"/>
<path d="M263.517 14.3201C263.517 14.3201 259.085 14.8689 256.38 11.7342L257.199 8.19366C257.199 8.19366 258.469 10.4338 263.314 11.2607L263.525 14.3201H263.517Z" fill="white"/>
<path d="M36.7881 14.3201C36.7881 14.3201 32.3558 14.8689 29.6514 11.7342L30.4627 8.19366C30.4627 8.19366 31.7323 10.4338 36.5777 11.2607L36.7881 14.3201Z" fill="white"/>
<path d="M338.64 14.463C339.985 18.5823 334.208 25.8213 329.926 22.4537C327.545 20.5819 327.259 15.4101 330.782 14.6885C330.985 14.6509 331.173 14.8087 331.256 14.9741C332.743 18.1163 332.044 21.7095 328.055 22.0026C324.517 22.2582 321.362 19.6949 320.423 16.3798C320.37 16.1844 320.738 16.1769 320.806 16.3272C322.046 19.0785 324.434 21.4088 327.642 21.2885C328.777 21.2509 329.956 20.8751 330.692 19.9655C331.09 19.4694 331.308 18.868 331.368 18.2366C331.413 17.7104 331.308 15.8687 330.82 15.568C329.843 14.9591 328.949 17.3796 328.874 18.0561C328.731 19.3265 329.107 20.8901 330.076 21.7846C331.684 23.2655 333.892 22.3259 335.342 21.1156C337.296 19.4919 338.648 17.0864 338.167 14.493C338.122 14.26 338.58 14.2825 338.64 14.463Z" fill="white"/>
<path d="M52.1207 60.573C49.6191 60.9789 46.6818 62.5951 45.5474 64.963C44.676 66.7821 45.0441 69.6537 47.5457 69.5033C48.5223 69.4432 51.2342 68.1503 51.0239 66.8723C50.8811 65.9853 49.8219 65.9177 49.1007 66.1357C46.9823 66.7746 46.1334 69.7288 47.0574 71.563C48.4472 74.3143 52.1282 73.6904 54.4345 72.6229C54.5847 72.5553 54.6824 72.8485 54.5547 72.9236C50.8361 75.1562 44.7586 73.6152 46.5015 68.3457C46.9672 66.925 48.1016 65.5343 49.7017 65.4291C50.6107 65.3689 51.5347 65.7748 51.5497 66.7821C51.5723 68.3983 49.2284 69.789 47.8837 70.022C46.3061 70.2851 45.0666 69.3004 44.7811 67.7443C44.06 63.7603 48.635 60.6782 52.0681 60.3475C52.1657 60.34 52.2334 60.558 52.1132 60.573H52.1207Z" fill="white"/>
<path d="M22.1314 101.526C25.6171 100.978 31.0035 104.992 29.3357 108.788C27.9159 112.013 22.8301 113.862 21.7483 109.517C21.7258 109.427 21.7483 109.299 21.8234 109.239C24.6556 106.946 27.4877 110.179 27.991 112.967C28.7723 117.29 24.8885 119.086 21.1398 118.417C21.0196 118.395 20.937 118.109 21.0947 118.117C23.9269 118.169 27.6004 117.658 27.6079 114.08C27.6079 112.171 26.4059 109.577 24.3926 109.058C23.8893 108.931 23.2207 108.886 22.7625 109.171C21.7558 109.803 22.492 110.87 23.4386 111.314C24.9486 112.02 26.8191 110.983 27.8859 109.915C31.5368 106.27 25.805 102.015 22.184 101.774C22.0713 101.774 21.9887 101.534 22.1239 101.519L22.1314 101.526Z" fill="white"/>
<path d="M88.4126 47.9743C88.4126 47.9743 92.8148 47.2075 94.4825 43.4189L92.6721 40.2692C92.6721 40.2692 92.1086 42.7799 87.7214 44.9825L88.4126 47.9743Z" fill="white"/>
<path d="M334.974 76.6146C334.974 76.6146 338.881 78.7795 342.562 76.8777L343.125 73.292C343.125 73.292 341.112 74.9007 336.311 73.8558L334.974 76.6221V76.6146Z" fill="white"/>
</g>
</g>
<defs>
<clipPath id="clip0_6450_28156">
<rect width="357" height="338" fill="white"/>
</clipPath>
</defs>
</svg>
