<svg width="307" height="310" viewBox="0 0 307 310" fill="none" xmlns="http://www.w3.org/2000/svg">
<path d="M152.561 139.633L137.368 130.831C134.945 129.41 131.863 129.839 129.91 131.857L110.879 151.575C107.144 155.449 108.028 161.797 112.689 164.502L197.788 213.847C200.503 215.206 202.081 217.265 202.224 219.644C202.353 221.996 200.979 224.307 198.455 225.965L152.425 252.472C150.152 253.961 147.097 254.811 144.008 254.98C140.933 255.164 137.851 254.661 135.428 253.451L52.8201 205.928C48.4586 203.42 47.3564 197.636 50.4795 193.708L69.143 170.245C71.0278 167.88 74.3618 167.255 76.9745 168.777L91.6033 177.205" stroke="#263238" stroke-width="4" stroke-miterlimit="10" stroke-linecap="round"/>
<path d="M125.263 249.292C120.316 255.708 112.254 257.529 110.437 256.687C108.981 256.014 108.11 254.274 109.226 253.234C109.736 252.758 110.621 252.269 111.451 251.575C113.873 249.564 114.676 246.057 114.907 243.324L125.263 249.285V249.292Z" fill="#3C5AE7"/>
<path opacity="0.2" d="M125.263 249.292C120.316 255.708 112.254 257.529 110.437 256.687C108.981 256.014 108.11 254.274 109.226 253.234C109.736 252.758 110.621 252.269 111.451 251.575C113.873 249.564 114.676 246.057 114.907 243.324L125.263 249.285V249.292Z" fill="black"/>
<path d="M120.038 259.127C120.072 253.954 116.479 247.647 112.009 245.037C109.668 243.664 107.559 243.596 106.069 244.582L100.578 247.667L112.09 267.494L117.534 264.408V264.394C119.051 263.579 120.017 261.764 120.038 259.127Z" fill="#37474F"/>
<path d="M106.307 248.272C110.77 250.882 114.363 257.196 114.329 262.362C114.295 267.534 110.648 269.6 106.184 266.99C101.721 264.373 98.1284 258.066 98.1624 252.9C98.1964 247.728 101.843 245.662 106.307 248.272Z" fill="#455A64"/>
<path d="M106.28 252.907C108.532 254.226 110.342 257.407 110.328 260.017C110.314 262.627 108.471 263.667 106.218 262.348C103.966 261.029 102.156 257.849 102.17 255.239C102.184 252.629 104.028 251.589 106.28 252.907Z" fill="#263238"/>
<path d="M111.083 241.136C111.083 241.136 111.614 250.678 107.239 254.321C106.416 255.008 105.524 255.504 105.014 255.98C103.905 257.013 104.776 258.753 106.232 259.433C108.355 260.418 119.221 257.625 123.46 248.252L111.083 241.136Z" fill="#3C5AE7"/>
<path d="M106.443 256.599C106.906 256.83 107.3 257.435 107.328 257.944C107.355 258.461 107.008 258.685 106.545 258.454C106.082 258.223 105.688 257.618 105.66 257.108C105.633 256.592 105.98 256.368 106.443 256.599Z" fill="#FAFAFA"/>
<path d="M74.11 219.862C69.1634 226.278 61.087 228.12 59.2771 227.271C57.821 226.598 56.9501 224.858 58.066 223.818C58.5763 223.342 59.4608 222.853 60.2909 222.159C62.7132 220.148 63.5228 216.627 63.7474 213.895L74.1168 219.855L74.11 219.862Z" fill="#3C5AE7"/>
<path opacity="0.2" d="M74.11 219.862C69.1634 226.278 61.087 228.12 59.2771 227.271C57.821 226.598 56.9501 224.858 58.066 223.818C58.5763 223.342 59.4608 222.853 60.2909 222.159C62.7132 220.148 63.5228 216.627 63.7474 213.895L74.1168 219.855L74.11 219.862Z" fill="black"/>
<path d="M68.8777 229.718C68.9117 224.545 65.3192 218.238 60.8489 215.628C58.5083 214.255 56.399 214.187 54.9089 215.173L49.418 218.258L60.9305 238.084L66.3738 234.999V234.985C67.8911 234.169 68.8573 232.355 68.8777 229.718Z" fill="#37474F"/>
<path d="M55.147 218.857C59.6105 221.467 63.2031 227.781 63.169 232.947C63.135 238.119 59.488 240.185 55.0246 237.575C50.5611 234.958 46.9685 228.651 47.0026 223.485C47.0366 218.313 50.6836 216.247 55.147 218.857Z" fill="#455A64"/>
<path d="M55.1198 223.498C57.372 224.817 59.1818 227.998 59.1682 230.608C59.1546 233.218 57.3107 234.257 55.0586 232.939C52.8064 231.62 50.9965 228.439 51.0101 225.83C51.0238 223.22 52.8677 222.18 55.1198 223.498Z" fill="#263238"/>
<path d="M59.8895 211.679C59.8895 211.679 60.4542 221.262 56.0792 224.905C55.2559 225.592 54.3646 226.088 53.8543 226.564C52.7452 227.597 53.6161 229.337 55.0722 230.016C57.1951 231.002 68.0612 228.188 72.3001 218.815L59.8895 211.679Z" fill="#3C5AE7"/>
<path d="M55.2831 227.188C55.7458 227.42 56.1404 228.024 56.1676 228.534C56.1949 229.051 55.8479 229.275 55.3852 229.044C54.9225 228.813 54.5279 228.208 54.5006 227.698C54.4734 227.182 54.8204 226.957 55.2831 227.188Z" fill="#FAFAFA"/>
<path d="M191.269 211.767C186.309 218.17 178.246 220.012 176.437 219.169C174.98 218.496 174.11 216.756 175.225 215.716C175.736 215.24 176.62 214.751 177.45 214.058C179.873 212.046 180.682 208.484 180.914 205.752L191.276 211.767H191.269Z" fill="#3C5AE7"/>
<path opacity="0.2" d="M191.269 211.767C186.309 218.17 178.246 220.012 176.437 219.169C174.98 218.496 174.11 216.756 175.225 215.716C175.736 215.24 176.62 214.751 177.45 214.058C179.873 212.046 180.682 208.484 180.914 205.752L191.276 211.767H191.269Z" fill="black"/>
<path d="M186.023 221.608C186.057 216.436 182.465 210.129 178.001 207.519C175.661 206.146 173.552 206.078 172.062 207.063L166.571 210.149L178.083 229.975L183.526 226.889V226.876C185.044 226.06 186.01 224.245 186.03 221.608H186.023Z" fill="#37474F"/>
<path d="M172.3 210.753C176.763 213.363 180.356 219.677 180.322 224.843C180.288 230.015 176.641 232.082 172.177 229.472C167.714 226.862 164.121 220.547 164.155 215.382C164.189 210.21 167.836 208.143 172.3 210.753Z" fill="#455A64"/>
<path d="M172.266 215.389C174.518 216.707 176.328 219.888 176.314 222.498C176.3 225.108 174.457 226.148 172.204 224.83C169.952 223.511 168.142 220.33 168.156 217.72C168.17 215.11 170.013 214.07 172.266 215.389Z" fill="#263238"/>
<path d="M177.083 203.529C177.083 203.529 177.607 213.16 173.232 216.803C172.408 217.49 171.517 217.986 171.007 218.462C169.898 219.495 170.769 221.235 172.225 221.915C174.348 222.9 185.234 220.086 189.473 210.713L177.09 203.529H177.083Z" fill="#3C5AE7"/>
<path d="M172.429 219.08C172.892 219.311 173.286 219.916 173.313 220.426C173.341 220.942 172.994 221.167 172.531 220.936C172.068 220.705 171.674 220.1 171.646 219.59C171.619 219.073 171.966 218.849 172.429 219.08Z" fill="#FAFAFA"/>
<path d="M140.511 182.331C135.564 188.747 127.495 190.568 125.678 189.719C124.222 189.046 123.351 187.306 124.467 186.266C124.977 185.79 125.862 185.301 126.692 184.608C129.114 182.596 129.917 179.089 130.148 176.356L140.511 182.324V182.331Z" fill="#3C5AE7"/>
<path opacity="0.2" d="M140.511 182.331C135.564 188.747 127.495 190.568 125.678 189.719C124.222 189.046 123.351 187.306 124.467 186.266C124.977 185.79 125.862 185.301 126.692 184.608C129.114 182.596 129.917 179.089 130.148 176.356L140.511 182.324V182.331Z" fill="black"/>
<path d="M135.279 192.158C135.313 186.986 131.72 180.678 127.257 178.068C124.916 176.695 122.807 176.627 121.317 177.613L115.826 180.699L127.338 200.525L132.782 197.439V197.426C134.299 196.61 135.265 194.795 135.285 192.158H135.279Z" fill="#37474F"/>
<path d="M121.555 181.303C126.018 183.913 129.611 190.227 129.577 195.393C129.543 200.565 125.896 202.631 121.432 200.021C116.969 197.405 113.376 191.097 113.41 185.932C113.444 180.759 117.091 178.693 121.555 181.303Z" fill="#455A64"/>
<path d="M121.521 185.939C123.773 187.257 125.583 190.438 125.569 193.048C125.556 195.658 123.712 196.698 121.46 195.379C119.207 194.061 117.398 190.88 117.411 188.27C117.425 185.66 119.269 184.62 121.521 185.939Z" fill="#263238"/>
<path d="M126.297 174.086C126.297 174.086 126.862 183.71 122.487 187.353C121.664 188.04 120.772 188.536 120.262 189.012C119.153 190.045 120.024 191.785 121.48 192.464C123.603 193.45 134.469 190.656 138.708 181.284L126.297 174.086Z" fill="#3C5AE7"/>
<path d="M121.691 189.637C122.154 189.868 122.548 190.473 122.575 190.982C122.603 191.499 122.256 191.723 121.793 191.492C121.33 191.261 120.936 190.656 120.908 190.146C120.881 189.63 121.228 189.406 121.691 189.637Z" fill="#FAFAFA"/>
<path d="M115.241 114.437L112.621 115.953L107.362 21.1925C106.082 16.0473 101.122 9.44086 96.5091 6.79692L94.0188 5.35601C92.7532 4.62196 90.5283 4.62196 89.2627 5.35601L81.6694 9.70594C80.9481 10.1273 80.0296 9.87585 79.6077 9.1554C79.1995 8.44854 79.4376 7.51738 80.1589 7.10957L87.7522 2.74606C89.9295 1.49545 93.3384 1.49545 95.5089 2.74606L98.0128 4.18697C103.313 7.24551 108.818 14.5452 110.281 20.472L115.234 114.444L115.241 114.437Z" fill="#455A64"/>
<path d="M25.1683 46.7957L20.2761 38.327L81.2543 3.14696C81.887 2.644 82.8464 2.65759 83.9079 3.2693C85.8198 4.37038 87.3711 7.05509 87.3711 9.25724C87.3711 10.4807 86.9017 11.3167 86.1464 11.6157L25.1683 46.8025V46.7957Z" fill="#3C5AE7"/>
<path opacity="0.25" d="M25.1683 46.7957L20.2761 38.327L81.2543 3.14696C81.887 2.644 82.8464 2.65759 83.9079 3.2693C85.8198 4.37038 87.3711 7.05509 87.3711 9.25724C87.3711 10.4807 86.9017 11.3167 86.1464 11.6157L25.1683 46.8025V46.7957Z" fill="black"/>
<path d="M20.2761 38.3271C21.5621 37.5863 23.7054 38.8777 25.0526 41.2157C26.4066 43.5538 26.4542 46.0482 25.1683 46.7959C23.8823 47.5367 21.7458 46.2453 20.3918 43.9073C19.0378 41.5692 18.9902 39.0748 20.2761 38.3271Z" fill="#3C5AE7"/>
<path d="M49.8058 152.173L47.3632 153.58L29.2984 66.751C28.0192 61.5991 23.0454 55.013 18.4458 52.3623L15.9419 50.9078C14.6424 50.1601 13.8939 49.0319 13.8939 47.8017C13.8939 46.5714 14.6424 45.4432 15.9419 44.6955L21.3648 41.603C21.7594 41.3719 22.4262 41.7729 22.8345 42.4934C23.2563 43.2138 23.2699 43.9819 22.8685 44.213H22.8549L17.4456 47.3055C17.0102 47.5434 16.9149 47.7609 16.9013 47.8017C16.9149 47.8492 17.0102 48.0531 17.4456 48.3046L19.9496 49.7455C25.2499 52.8041 30.7408 60.1038 32.2105 66.0238L49.8058 152.166V152.173Z" fill="#455A64"/>
<path d="M47.3632 153.58L115.241 114.438L214.444 171.653L146.567 210.795L47.3632 153.58Z" fill="#E0E0E0"/>
<g opacity="0.2">
<path d="M47.3632 153.58L115.241 114.438L214.444 171.653L146.567 210.795L47.3632 153.58Z" fill="black"/>
</g>
<path d="M115.241 114.777C115.064 114.777 114.914 114.634 114.9 114.457L109.655 20.4583C109.641 20.2679 109.791 20.1116 109.974 20.098C110.158 20.0844 110.321 20.234 110.335 20.4175L115.581 114.417C115.595 114.607 115.445 114.763 115.261 114.777C115.261 114.777 115.247 114.777 115.241 114.777Z" fill="#E0E0E0"/>
<path d="M127.638 121.927C127.454 121.927 127.298 121.777 127.298 121.594L126.161 31.5029C126.161 31.3126 126.311 31.163 126.495 31.1562C126.678 31.1562 126.835 31.3058 126.835 31.4893L127.971 121.58C127.971 121.771 127.821 121.92 127.638 121.927Z" fill="#E0E0E0"/>
<path d="M140.042 129.077H140.035C139.844 129.077 139.701 128.914 139.701 128.73L141.954 42.3233C141.954 42.1398 142.117 41.9902 142.301 41.9902C142.491 41.9902 142.634 42.1534 142.634 42.3369L140.382 128.744C140.382 128.928 140.225 129.077 140.042 129.077Z" fill="#E0E0E0"/>
<path d="M152.439 136.228H152.425C152.234 136.221 152.092 136.058 152.105 135.874L156.215 52.1313C156.222 51.941 156.392 51.7915 156.569 51.8051C156.759 51.8119 156.902 51.975 156.888 52.1585L152.779 135.901C152.772 136.085 152.622 136.228 152.439 136.228Z" fill="#E0E0E0"/>
<path d="M164.842 143.384C164.842 143.384 164.822 143.384 164.815 143.384C164.625 143.371 164.489 143.208 164.502 143.017L170.558 61.9933C170.571 61.803 170.728 61.667 170.925 61.6806C171.116 61.6942 171.252 61.8573 171.238 62.0476L165.183 143.072C165.169 143.248 165.019 143.384 164.842 143.384Z" fill="#E0E0E0"/>
<path d="M177.246 150.534C177.246 150.534 177.219 150.534 177.212 150.534C177.029 150.514 176.892 150.344 176.913 150.161L185.193 71.9435C185.214 71.76 185.384 71.6173 185.568 71.6444C185.751 71.6648 185.887 71.828 185.867 72.0183L177.586 150.235C177.566 150.412 177.423 150.541 177.246 150.541V150.534Z" fill="#E0E0E0"/>
<path d="M189.643 157.685C189.643 157.685 189.609 157.685 189.589 157.685C189.405 157.658 189.276 157.488 189.303 157.297L200.55 82.4312C200.577 82.2477 200.748 82.1185 200.938 82.1457C201.122 82.1729 201.251 82.3496 201.224 82.5331L189.977 157.399C189.949 157.569 189.807 157.692 189.643 157.692V157.685Z" fill="#E0E0E0"/>
<path d="M202.047 164.835C202.047 164.835 202.006 164.835 201.986 164.835C201.802 164.801 201.68 164.624 201.714 164.441L215.145 92.4426C215.179 92.2591 215.363 92.1367 215.54 92.1707C215.723 92.2047 215.846 92.3814 215.812 92.5649L202.38 164.563C202.346 164.726 202.21 164.842 202.047 164.842V164.835Z" fill="#E0E0E0"/>
<path d="M214.444 171.985C214.444 171.985 214.397 171.985 214.369 171.978C214.186 171.937 214.07 171.754 214.111 171.57L229.774 102.311C229.815 102.128 229.991 102.012 230.182 102.053C230.366 102.094 230.481 102.277 230.441 102.461L214.778 171.72C214.744 171.876 214.601 171.985 214.444 171.985Z" fill="#E0E0E0"/>
<path d="M47.3632 153.919C47.2067 153.919 47.0638 153.81 47.0298 153.647L29.312 66.737C29.2779 66.5535 29.3936 66.3768 29.5773 66.336C29.761 66.2952 29.9379 66.4175 29.9788 66.6011L47.6966 153.511C47.7306 153.695 47.6149 153.871 47.4312 153.912C47.4108 153.912 47.3836 153.912 47.3632 153.912V153.919Z" fill="#E0E0E0"/>
<path d="M64.3325 144.132C64.1692 144.132 64.0195 144.01 63.9991 143.84L50.5543 54.4692C50.5271 54.2856 50.6563 54.1089 50.84 54.0817C51.0238 54.0546 51.2007 54.1837 51.2279 54.3672L64.6727 143.738C64.7 143.921 64.5707 144.098 64.387 144.125C64.3666 144.125 64.3529 144.125 64.3325 144.125V144.132Z" fill="#E0E0E0"/>
<path d="M81.3019 134.344C81.1318 134.344 80.9821 134.215 80.9617 134.045L70.6807 42.8397C70.6603 42.6562 70.7964 42.4863 70.9801 42.4659C71.1502 42.4455 71.3339 42.5814 71.3543 42.7649L81.6353 133.971C81.6557 134.154 81.5196 134.324 81.3359 134.344C81.3223 134.344 81.3087 134.344 81.2951 134.344H81.3019Z" fill="#E0E0E0"/>
<path d="M98.2713 124.557C98.0944 124.557 97.9447 124.421 97.9311 124.245L90.086 31.7747C90.0724 31.5912 90.2084 31.4213 90.399 31.4077C90.5691 31.3873 90.7528 31.53 90.7664 31.7204L98.6115 124.19C98.6251 124.374 98.489 124.544 98.2985 124.557C98.2917 124.557 98.2781 124.557 98.2713 124.557Z" fill="#E0E0E0"/>
<path d="M115.241 114.777C115.064 114.777 114.914 114.634 114.9 114.457L109.654 20.4583C109.641 20.2679 109.791 20.1116 109.974 20.098C110.158 20.0844 110.321 20.234 110.335 20.4175L115.581 114.417C115.594 114.607 115.445 114.763 115.261 114.777C115.261 114.777 115.247 114.777 115.241 114.777Z" fill="#E0E0E0"/>
<path d="M214.444 171.985C214.39 171.985 214.328 171.971 214.274 171.937L115.241 114.824L47.5333 153.872C47.37 153.967 47.1591 153.912 47.0706 153.749C46.9754 153.586 47.0298 153.382 47.1931 153.287L115.071 114.138C115.173 114.077 115.309 114.077 115.411 114.138L214.614 171.353C214.778 171.448 214.832 171.652 214.737 171.815C214.675 171.924 214.56 171.985 214.444 171.985Z" fill="#E0E0E0"/>
<path d="M218.356 154.674C218.295 154.674 218.234 154.66 218.18 154.619L113.71 89.3637L43.0426 131.272C42.8793 131.368 42.6684 131.313 42.5799 131.157C42.4846 130.994 42.5391 130.79 42.6956 130.688L113.54 88.6772C113.648 88.6161 113.785 88.6161 113.893 88.6772L218.54 154.042C218.697 154.144 218.751 154.354 218.649 154.511C218.588 154.613 218.472 154.674 218.363 154.674H218.356Z" fill="#E0E0E0"/>
<path d="M222.276 137.363C222.214 137.363 222.153 137.349 222.092 137.308L112.607 68.3619L38.6744 109.802C38.5111 109.89 38.3001 109.836 38.2117 109.673C38.1232 109.509 38.1777 109.299 38.341 109.21L112.451 67.6686C112.56 67.6074 112.696 67.6142 112.798 67.6754L222.452 136.73C222.609 136.832 222.657 137.043 222.561 137.199C222.5 137.301 222.384 137.356 222.276 137.356V137.363Z" fill="#E0E0E0"/>
<path d="M226.188 120.044C226.127 120.044 226.059 120.024 226.004 119.99L111.396 44.9603L34.2177 87.8411C34.0544 87.9294 33.8435 87.875 33.755 87.7119C33.6666 87.5488 33.721 87.3381 33.8843 87.2497L111.247 44.2739C111.356 44.2127 111.492 44.2195 111.6 44.2875L226.378 119.432C226.535 119.534 226.576 119.745 226.474 119.901C226.406 120.003 226.297 120.058 226.188 120.058V120.044Z" fill="#E0E0E0"/>
<path d="M230.107 102.733C230.039 102.733 229.971 102.713 229.917 102.672L109.981 20.8321L29.8155 66.9684C29.6522 67.0636 29.448 67.0092 29.3528 66.8461C29.2575 66.683 29.312 66.4791 29.4753 66.3839L109.825 20.1388C109.94 20.0708 110.076 20.0776 110.185 20.1524L230.298 102.108C230.454 102.216 230.495 102.427 230.386 102.583C230.318 102.679 230.216 102.733 230.107 102.733Z" fill="#E0E0E0"/>
<g opacity="0.2">
<path d="M115.241 114.777C115.064 114.777 114.914 114.634 114.9 114.457L109.655 20.4583C109.641 20.2679 109.791 20.1116 109.974 20.098C110.158 20.0844 110.321 20.234 110.335 20.4175L115.581 114.417C115.595 114.607 115.445 114.763 115.261 114.777C115.261 114.777 115.247 114.777 115.241 114.777Z" fill="black"/>
<path d="M127.638 121.927C127.454 121.927 127.298 121.777 127.298 121.594L126.161 31.5029C126.161 31.3126 126.311 31.163 126.495 31.1562C126.678 31.1562 126.835 31.3058 126.835 31.4893L127.971 121.58C127.971 121.771 127.821 121.92 127.638 121.927Z" fill="black"/>
<path d="M140.042 129.077H140.035C139.844 129.077 139.701 128.914 139.701 128.73L141.954 42.3233C141.954 42.1398 142.117 41.9902 142.301 41.9902C142.491 41.9902 142.634 42.1534 142.634 42.3369L140.382 128.744C140.382 128.928 140.225 129.077 140.042 129.077Z" fill="black"/>
<path d="M152.439 136.228H152.425C152.234 136.221 152.092 136.058 152.105 135.874L156.215 52.1313C156.222 51.941 156.392 51.7915 156.569 51.8051C156.759 51.8119 156.902 51.975 156.888 52.1585L152.779 135.901C152.772 136.085 152.622 136.228 152.439 136.228Z" fill="black"/>
<path d="M164.842 143.384C164.842 143.384 164.822 143.384 164.815 143.384C164.625 143.371 164.489 143.208 164.502 143.017L170.558 61.9933C170.571 61.803 170.728 61.667 170.925 61.6806C171.116 61.6942 171.252 61.8573 171.238 62.0476L165.183 143.072C165.169 143.248 165.019 143.384 164.842 143.384Z" fill="black"/>
<path d="M177.246 150.534C177.246 150.534 177.219 150.534 177.212 150.534C177.029 150.514 176.892 150.344 176.913 150.161L185.193 71.9435C185.214 71.76 185.384 71.6173 185.568 71.6444C185.751 71.6648 185.887 71.828 185.867 72.0183L177.586 150.235C177.566 150.412 177.423 150.541 177.246 150.541V150.534Z" fill="black"/>
<path d="M189.643 157.685C189.643 157.685 189.609 157.685 189.589 157.685C189.405 157.658 189.276 157.488 189.303 157.297L200.55 82.4312C200.577 82.2477 200.748 82.1185 200.938 82.1457C201.122 82.1729 201.251 82.3496 201.224 82.5331L189.977 157.399C189.949 157.569 189.807 157.692 189.643 157.692V157.685Z" fill="black"/>
<path d="M202.047 164.835C202.047 164.835 202.006 164.835 201.986 164.835C201.802 164.801 201.68 164.624 201.714 164.441L215.145 92.4426C215.179 92.2591 215.363 92.1367 215.54 92.1707C215.723 92.2047 215.846 92.3814 215.812 92.5649L202.38 164.563C202.346 164.726 202.21 164.842 202.047 164.842V164.835Z" fill="black"/>
<path d="M214.444 171.985C214.444 171.985 214.397 171.985 214.369 171.978C214.186 171.937 214.07 171.754 214.111 171.57L229.774 102.311C229.815 102.128 229.991 102.012 230.182 102.053C230.366 102.094 230.481 102.277 230.441 102.461L214.778 171.72C214.744 171.876 214.601 171.985 214.444 171.985Z" fill="black"/>
<path d="M47.3632 153.919C47.2067 153.919 47.0638 153.811 47.0298 153.648L29.312 66.7375C29.2779 66.554 29.3936 66.3773 29.5773 66.3365C29.761 66.2957 29.9379 66.418 29.9788 66.6015L47.6966 153.512C47.7306 153.695 47.6149 153.872 47.4312 153.913C47.4108 153.913 47.3836 153.913 47.3632 153.913V153.919Z" fill="black"/>
<path d="M64.3325 144.132C64.1692 144.132 64.0195 144.01 63.9991 143.84L50.5543 54.4692C50.5271 54.2856 50.6563 54.1089 50.84 54.0817C51.0238 54.0546 51.2007 54.1837 51.2279 54.3672L64.6727 143.738C64.7 143.921 64.5707 144.098 64.387 144.125C64.3666 144.125 64.3529 144.125 64.3325 144.125V144.132Z" fill="black"/>
<path d="M81.3019 134.345C81.1318 134.345 80.9821 134.216 80.9617 134.046L70.6807 42.8402C70.6603 42.6567 70.7964 42.4868 70.9801 42.4664C71.1502 42.446 71.3339 42.5819 71.3543 42.7654L81.6353 133.971C81.6557 134.155 81.5196 134.325 81.3359 134.345C81.3223 134.345 81.3087 134.345 81.2951 134.345H81.3019Z" fill="black"/>
<path d="M98.2713 124.557C98.0944 124.557 97.9447 124.421 97.9311 124.245L90.086 31.7747C90.0724 31.5912 90.2084 31.4213 90.399 31.4077C90.5691 31.3873 90.7528 31.53 90.7664 31.7204L98.6115 124.19C98.6251 124.374 98.489 124.544 98.2985 124.557C98.2917 124.557 98.2781 124.557 98.2713 124.557Z" fill="black"/>
<path d="M115.241 114.777C115.064 114.777 114.914 114.634 114.9 114.457L109.654 20.4583C109.641 20.2679 109.791 20.1116 109.974 20.098C110.158 20.0844 110.321 20.234 110.335 20.4175L115.581 114.417C115.594 114.607 115.445 114.763 115.261 114.777C115.261 114.777 115.247 114.777 115.241 114.777Z" fill="black"/>
<path d="M214.444 171.985C214.39 171.985 214.328 171.972 214.274 171.938L115.241 114.825L47.5333 153.872C47.37 153.967 47.1591 153.913 47.0706 153.75C46.9754 153.586 47.0298 153.383 47.1931 153.287L115.241 114.043L115.411 114.138L214.614 171.353C214.778 171.448 214.832 171.652 214.737 171.815C214.675 171.924 214.56 171.985 214.444 171.985Z" fill="black"/>
<path d="M218.356 154.674C218.295 154.674 218.234 154.66 218.18 154.62L113.71 89.3641L43.0426 131.273C42.8793 131.368 42.6684 131.314 42.5799 131.157C42.4846 130.994 42.5391 130.79 42.6956 130.688L113.723 88.5688L113.9 88.6776L218.547 154.042C218.703 154.144 218.758 154.355 218.656 154.511C218.595 154.613 218.479 154.674 218.37 154.674H218.356Z" fill="black"/>
<path d="M222.276 137.363C222.214 137.363 222.153 137.349 222.092 137.308L112.607 68.3622L38.6744 109.802C38.5111 109.89 38.3001 109.836 38.2117 109.673C38.1232 109.51 38.1777 109.299 38.341 109.211L112.628 67.5737L112.798 67.6825L222.452 136.738C222.609 136.839 222.657 137.05 222.561 137.206C222.5 137.308 222.384 137.363 222.276 137.363Z" fill="black"/>
<path d="M226.188 120.045C226.127 120.045 226.059 120.024 226.004 119.99L111.396 44.9608L34.2177 87.8415C34.0544 87.9299 33.8435 87.8755 33.755 87.7124C33.6666 87.5493 33.721 87.3386 33.8843 87.2502L111.424 44.1724L111.594 44.2879L226.372 119.433C226.528 119.535 226.569 119.745 226.467 119.902C226.399 120.004 226.29 120.058 226.181 120.058L226.188 120.045Z" fill="black"/>
<path d="M230.107 102.733C230.039 102.733 229.971 102.713 229.917 102.672L109.981 20.8323L29.8155 66.9687C29.6522 67.0638 29.448 67.0094 29.3528 66.8463C29.2575 66.6832 29.312 66.4793 29.4753 66.3841L110.008 20.0303L110.185 20.1526L230.298 102.108C230.454 102.217 230.495 102.427 230.386 102.584C230.318 102.679 230.216 102.733 230.107 102.733Z" fill="black"/>
</g>
<path opacity="0.15" d="M51.9832 152.723L104.347 122.45L151.622 149.766L99.2579 180.039L51.9832 152.723Z" fill="black"/>
<path opacity="0.15" d="M111.253 175.078L165.115 143.908L212.389 171.224L158.528 202.394L111.253 175.078Z" fill="black"/>
<path d="M95.121 46.293L95.0802 105.065L142.273 132.211L142.307 73.4392L95.121 46.293Z" fill="#3C5AE7"/>
<path opacity="0.1" d="M95.121 46.293L95.0802 105.065L142.273 132.211L142.307 73.4392L95.121 46.293Z" fill="black"/>
<path d="M164.652 60.5525L117.459 33.4062L95.121 46.2929L142.307 73.4391L164.652 60.5525Z" fill="#3C5AE7"/>
<path opacity="0.3" d="M164.652 60.5525L117.459 33.4062L95.121 46.2929L142.307 73.4391L164.652 60.5525Z" fill="white"/>
<path d="M153.092 61.2186C153.167 61.3409 153.201 61.4768 153.201 61.6264C153.201 62.0002 152.935 62.3604 152.486 62.6255L149.628 64.2771L149.418 64.3994L149.356 64.2363L146.744 62.7546L149.941 60.9127C150.758 60.4437 151.955 60.403 152.67 60.8108C152.867 60.9195 153.01 61.0622 153.105 61.2186H153.092ZM149.628 63.7877L152.275 62.2585C152.595 62.075 152.786 61.8371 152.786 61.6196C152.786 61.4021 152.602 61.2525 152.452 61.1642C151.874 60.8311 150.812 60.8787 150.139 61.2661L149.907 61.4021L150.384 62.2313L149.356 63.0401L149.628 63.7877ZM149.853 62.1293L149.554 61.6128L147.58 62.7546L149.139 63.6382L148.873 62.911L149.853 62.1361V62.1293Z" fill="#455A64"/>
<path d="M155.14 59.4992C155.194 59.6011 155.16 59.7234 155.065 59.7846L152.663 61.1712C152.561 61.2255 152.439 61.1915 152.377 61.0964C152.323 60.9944 152.357 60.8721 152.452 60.8109L154.854 59.4244C154.956 59.37 155.079 59.404 155.14 59.4992Z" fill="#455A64"/>
<path d="M156.351 60.1924C156.385 60.2535 156.392 60.3351 156.351 60.3963C156.296 60.4982 156.167 60.5322 156.065 60.471L153.65 59.0777C153.548 59.0233 153.514 58.8942 153.575 58.7922C153.629 58.6903 153.759 58.6563 153.861 58.7175L156.276 60.1108C156.276 60.1108 156.337 60.1584 156.351 60.1856V60.1924Z" fill="#455A64"/>
<path d="M147.914 55.1489C147.955 55.2169 147.975 55.2984 147.975 55.3732C147.975 55.5567 147.866 55.7266 147.669 55.8354L147.179 56.1208C147.077 56.1752 146.954 56.1412 146.893 56.0461C146.839 55.9441 146.873 55.8218 146.968 55.7606L147.458 55.4751C147.533 55.4344 147.56 55.3868 147.56 55.3732C147.56 55.3528 147.533 55.312 147.465 55.2712C147.281 55.1693 146.818 55.1965 146.458 55.4072L143.26 57.2491C143.158 57.3035 143.035 57.2695 142.974 57.1743C142.92 57.0724 142.954 56.95 143.049 56.8889L146.247 55.0469C146.716 54.7751 147.322 54.7207 147.662 54.911C147.771 54.9722 147.859 55.0537 147.907 55.1421L147.914 55.1489Z" fill="#455A64"/>
<path d="M146.213 58.6491L145.9 58.8258C144.437 59.6686 142.049 59.6686 140.586 58.8258C139.837 58.3908 139.422 57.8063 139.422 57.1742C139.422 56.5421 139.837 55.9508 140.586 55.5226L140.688 55.4614L146.206 58.6423L146.213 58.6491ZM140.001 57.7383C140.157 58.0102 140.429 58.2617 140.797 58.4724C142.042 59.1928 144.002 59.2472 145.362 58.6423L140.695 55.9508C140.144 56.2974 139.844 56.7324 139.844 57.181C139.844 57.3713 139.899 57.5616 140.001 57.7383Z" fill="#455A64"/>
<path d="M140.497 50.8195C140.552 50.9214 140.518 51.0438 140.423 51.1049L134.299 54.6324C134.197 54.6868 134.074 54.6528 134.013 54.5577C133.959 54.4557 133.993 54.3334 134.088 54.2722L140.212 50.7447C140.314 50.6903 140.436 50.7243 140.497 50.8195Z" fill="#455A64"/>
<path d="M135.898 54.17C135.898 54.17 135.918 54.2176 135.925 54.2516C135.939 54.3671 135.857 54.4691 135.741 54.4827L133.891 54.6934L134.306 53.5039C134.34 53.3952 134.462 53.3408 134.571 53.3748C134.68 53.4156 134.734 53.5311 134.7 53.6399L134.503 54.204L135.694 54.0681C135.775 54.0613 135.857 54.1021 135.898 54.17Z" fill="#455A64"/>
<path d="M138.592 49.7047C138.647 49.8067 138.613 49.929 138.517 49.9902L132.394 53.5177C132.292 53.5721 132.169 53.5381 132.108 53.4429C132.054 53.341 132.088 53.2186 132.183 53.1575L138.307 49.63C138.409 49.5756 138.531 49.6096 138.592 49.7047Z" fill="#455A64"/>
<path d="M133.993 53.0553C133.993 53.0553 134.013 53.1029 134.02 53.1368C134.034 53.2524 133.952 53.3543 133.836 53.3679L131.986 53.5786L132.401 52.3892C132.435 52.2805 132.557 52.2261 132.666 52.2601C132.775 52.3008 132.829 52.4164 132.795 52.5251L132.598 53.0893L133.789 52.9533C133.87 52.9465 133.952 52.9873 133.993 53.0553Z" fill="#455A64"/>
<path d="M164.652 60.5522L164.611 119.331L142.273 132.21L142.307 73.4389L164.652 60.5522Z" fill="#3C5AE7"/>
<path d="M146.376 109.611V99.2939L142.273 101.659V111.977L146.376 109.611Z" fill="#37474F"/>
<path d="M142.273 101.659L95.0802 74.5132V84.8307L142.273 111.977V101.659Z" fill="#263238"/>
<path d="M151.636 119.963V107.518C151.636 107.212 151.86 106.831 152.126 106.675L158.623 102.93C159.161 102.624 159.596 102.876 159.596 103.487V115.939C159.596 116.245 159.379 116.626 159.107 116.782L152.609 120.527C152.071 120.833 151.636 120.581 151.636 119.963Z" fill="#FAFAFA"/>
<path d="M152.779 119.616V119.188L158.515 115.885V116.306L152.779 119.616Z" fill="#455A64"/>
<path d="M152.779 117.89L152.786 117.156L158.515 113.853V114.587L152.779 117.89Z" fill="#455A64"/>
<path d="M152.779 116.164V115.743L158.515 112.439L158.508 112.861L152.779 116.164Z" fill="#455A64"/>
<path d="M152.765 114.873L152.779 114.016L158.508 110.713L158.501 111.569L152.765 114.873Z" fill="#455A64"/>
<path d="M152.779 112.718V112.296L158.508 108.986V109.415L152.779 112.718Z" fill="#455A64"/>
<path d="M152.765 111.487L152.779 110.57L158.508 107.267L158.501 108.177L152.765 111.487Z" fill="#455A64"/>
<path d="M152.779 109.272V108.851L158.508 105.541V105.969L152.779 109.272Z" fill="#455A64"/>
<path d="M152.772 108.293V108.082L158.501 104.772V104.983L152.772 108.293Z" fill="#455A64"/>
<path d="M152.806 110.04V109.829L158.535 106.526V106.737L152.806 110.04Z" fill="#455A64"/>
<path d="M152.786 113.527V113.316L158.515 110.006V110.217L152.786 113.527Z" fill="#455A64"/>
<path d="M152.786 115.423V115.212L158.521 111.909V112.12L152.786 115.423Z" fill="#455A64"/>
<path d="M152.813 116.776V116.565L158.549 113.262V113.472L152.813 116.776Z" fill="#455A64"/>
<path d="M152.772 118.652V118.441L158.508 115.131V115.348L152.772 118.652Z" fill="#455A64"/>
<path d="M152.779 107.545V107.124L158.508 103.821V104.242L152.779 107.545Z" fill="#455A64"/>
<path d="M144.648 119.657L104.531 96.4731L58.9846 122.811L99.0946 145.987L144.648 119.657Z" fill="#3C5AE7"/>
<path opacity="0.3" d="M144.648 119.657L104.531 96.4731L58.9846 122.811L99.0946 145.987L144.648 119.657Z" fill="white"/>
<g opacity="0.2">
<path d="M58.9846 122.811L96.1893 144.309L137.64 120.343L100.435 98.8452L58.9846 122.811Z" fill="black"/>
</g>
<path d="M99.1014 176.084L144.648 149.746V119.65L99.1014 145.988V176.084Z" fill="#3C5AE7"/>
<path d="M104.123 166.099C103.98 166.099 103.851 166.065 103.728 165.997C103.415 165.82 103.238 165.419 103.238 164.916V161.729V161.484L103.402 161.511L105.905 160.043V163.604C105.905 164.508 105.361 165.535 104.674 165.929C104.483 166.038 104.3 166.092 104.123 166.092V166.099ZM103.647 161.96V164.909C103.647 165.27 103.755 165.542 103.932 165.643C104.116 165.745 104.327 165.671 104.477 165.582C105.035 165.256 105.511 164.352 105.511 163.604V163.346H104.585L104.402 162.096L103.647 161.96ZM104.933 162.945H105.511V160.743L104.021 161.62L104.762 161.749L104.939 162.945H104.933Z" fill="#455A64"/>
<path d="M104.579 168.64C104.47 168.64 104.375 168.552 104.375 168.443V165.765C104.375 165.657 104.463 165.562 104.579 165.562C104.694 165.562 104.776 165.65 104.776 165.765V168.443C104.776 168.552 104.688 168.64 104.579 168.64Z" fill="#455A64"/>
<path d="M103.408 169.313C103.34 169.313 103.272 169.279 103.238 169.211C103.184 169.116 103.218 168.994 103.313 168.94L105.647 167.594C105.742 167.539 105.865 167.567 105.919 167.669C105.973 167.764 105.939 167.886 105.844 167.94L103.51 169.286C103.51 169.286 103.442 169.313 103.408 169.313Z" fill="#455A64"/>
<path d="M111.716 164.699C111.635 164.699 111.566 164.679 111.498 164.645C111.349 164.556 111.26 164.38 111.26 164.162V163.612C111.26 163.503 111.349 163.408 111.464 163.408C111.58 163.408 111.662 163.496 111.662 163.612V164.162C111.662 164.244 111.682 164.284 111.703 164.298C111.716 164.305 111.764 164.298 111.832 164.264C112.009 164.162 112.206 163.761 112.206 163.36V159.799C112.206 159.69 112.295 159.595 112.41 159.595C112.526 159.595 112.614 159.683 112.614 159.799V163.36C112.614 163.883 112.369 164.42 112.043 164.611C111.934 164.672 111.825 164.706 111.73 164.706L111.716 164.699Z" fill="#455A64"/>
<path d="M109.6 161.586V161.24C109.6 159.609 110.75 157.61 112.165 156.795C112.886 156.38 113.58 156.319 114.111 156.625C114.642 156.931 114.934 157.556 114.934 158.392V158.507L109.6 161.586ZM113.37 156.835C113.063 156.835 112.723 156.937 112.369 157.148C111.165 157.841 110.172 159.459 110.022 160.886L114.533 158.283C114.513 157.658 114.288 157.196 113.914 156.978C113.751 156.883 113.574 156.842 113.37 156.842V156.835Z" fill="#455A64"/>
<path d="M118.922 160.594C118.813 160.594 118.718 160.506 118.718 160.39V153.566C118.718 153.457 118.806 153.362 118.922 153.362C119.037 153.362 119.126 153.451 119.126 153.566V160.39C119.126 160.499 119.037 160.594 118.922 160.594Z" fill="#455A64"/>
<path d="M118.337 155.13C118.337 155.13 118.282 155.13 118.255 155.116C118.153 155.075 118.105 154.953 118.153 154.851L118.867 153.206L119.663 154.124C119.738 154.205 119.725 154.334 119.643 154.409C119.554 154.484 119.432 154.47 119.357 154.389L118.976 153.954L118.513 155.014C118.479 155.089 118.405 155.136 118.33 155.136L118.337 155.13Z" fill="#455A64"/>
<path d="M120.779 159.54C120.67 159.54 120.575 159.452 120.575 159.336V152.512C120.575 152.404 120.664 152.309 120.779 152.309C120.895 152.309 120.983 152.397 120.983 152.512V159.336C120.983 159.445 120.895 159.54 120.779 159.54Z" fill="#455A64"/>
<path d="M120.194 154.069C120.194 154.069 120.14 154.069 120.112 154.055C120.01 154.015 119.963 153.892 120.01 153.79L120.725 152.146L121.521 153.063C121.596 153.145 121.582 153.274 121.5 153.349C121.412 153.423 121.29 153.41 121.215 153.328L120.834 152.893L120.371 153.953C120.337 154.028 120.262 154.076 120.187 154.076L120.194 154.069Z" fill="#455A64"/>
<path d="M99.1014 176.084L58.9846 152.907V122.811L99.0946 145.987L99.1014 176.084Z" fill="#3C5AE7"/>
<path opacity="0.1" d="M99.1014 176.084L58.9846 152.907V122.811L99.0946 145.987L99.1014 176.084Z" fill="black"/>
<g opacity="0.2">
<path d="M58.9846 132.87L96.1893 154.361V144.309L58.9846 122.811V132.87Z" fill="black"/>
</g>
<path d="M77.0766 137.817L80.0296 139.517V134.942L77.0766 133.243V137.817Z" fill="#37474F"/>
<path d="M80.0296 134.95L125.576 108.612L122.63 106.913L77.0766 133.244L80.0296 134.95Z" fill="#455A64"/>
<path d="M64.7204 141.747L75.1442 147.762C75.4028 147.911 75.6137 148.278 75.6137 148.578V155.816C75.6137 156.414 75.1918 156.659 74.6747 156.36L64.2441 150.345C63.9855 150.195 63.7746 149.828 63.7746 149.529V142.291C63.7746 141.692 64.1964 141.448 64.7136 141.747H64.7204Z" fill="#FAFAFA"/>
<path d="M64.4619 142.875L64.8157 143.079V149.468L64.4619 149.264V142.875Z" fill="#455A64"/>
<path d="M65.9111 143.704L66.5167 144.064V150.453L65.9111 150.1V143.704Z" fill="#455A64"/>
<path d="M67.3536 144.54L67.7074 144.744V151.133L67.3536 150.929V144.54Z" fill="#455A64"/>
<path d="M68.4423 145.152L69.1499 145.574V151.969L68.4423 151.548V145.152Z" fill="#455A64"/>
<path d="M70.2385 146.205L70.5991 146.409L70.5923 152.798L70.2385 152.594V146.205Z" fill="#455A64"/>
<path d="M71.2795 146.79L72.0416 147.239V153.634L71.2795 153.179V146.79Z" fill="#455A64"/>
<path d="M73.1302 147.871L73.4841 148.075V154.464L73.1302 154.26V147.871Z" fill="#455A64"/>
<path d="M73.9536 148.34L74.1305 148.442V154.831L73.9536 154.729V148.34Z" fill="#455A64"/>
<path d="M72.4703 147.518L72.6472 147.626V154.015L72.4703 153.913V147.518Z" fill="#455A64"/>
<path d="M69.5649 145.818L69.7418 145.92V152.309L69.5649 152.207V145.818Z" fill="#455A64"/>
<path d="M67.9659 144.907L68.1428 145.009V151.398L67.9659 151.296V144.907Z" fill="#455A64"/>
<path d="M66.8229 144.275L66.9998 144.377V150.766L66.8229 150.664V144.275Z" fill="#455A64"/>
<path d="M65.2715 143.33L65.4485 143.432V149.828L65.2715 149.726V143.33Z" fill="#455A64"/>
<path d="M74.5727 148.7L74.9265 148.904V155.3L74.5727 155.096V148.7Z" fill="#455A64"/>
<path d="M132.475 90.2882L92.3654 67.1045L46.8121 93.4419L86.9289 116.619L132.475 90.2882Z" fill="#3C5AE7"/>
<path opacity="0.7" d="M132.475 90.2882L92.3654 67.1045L46.8121 93.4419L86.9289 116.619L132.475 90.2882Z" fill="white"/>
<path d="M86.9289 146.715L132.475 120.377V90.2812L86.9289 116.619V146.715Z" fill="#3C5AE7"/>
<path opacity="0.6" d="M86.9289 146.715L132.475 120.377V90.2812L86.9289 116.619V146.715Z" fill="white"/>
<path d="M91.9571 136.731C91.8142 136.731 91.6849 136.697 91.5625 136.629C91.2495 136.452 91.0726 136.058 91.0726 135.548V132.36V132.116L91.2359 132.143L93.7398 130.675V134.236C93.7398 135.14 93.1954 136.167 92.5082 136.561C92.3177 136.67 92.134 136.724 91.9571 136.724V136.731ZM91.474 132.591V135.541C91.474 135.902 91.5761 136.173 91.7598 136.275C91.9435 136.377 92.1544 136.303 92.3041 136.214C92.862 135.888 93.3383 134.984 93.3383 134.236V133.978H92.413L92.2293 132.727L91.474 132.591ZM92.76 133.577H93.3383V131.375L91.8482 132.252L92.5899 132.381L92.7668 133.577H92.76Z" fill="#455A64"/>
<path d="M92.4062 139.272C92.2973 139.272 92.2089 139.184 92.2089 139.075V136.397C92.2089 136.289 92.2973 136.193 92.4062 136.193C92.515 136.193 92.6103 136.282 92.6103 136.397V139.075C92.6103 139.184 92.5218 139.272 92.4062 139.272Z" fill="#455A64"/>
<path d="M91.2427 139.945C91.1746 139.945 91.1066 139.911 91.0658 139.843C91.0113 139.748 91.0454 139.626 91.1406 139.571L93.4744 138.226C93.5697 138.171 93.6921 138.198 93.7466 138.3C93.801 138.396 93.767 138.518 93.6717 138.572L91.3379 139.918C91.3379 139.918 91.2699 139.945 91.2359 139.945H91.2427Z" fill="#455A64"/>
<path d="M99.5505 135.33C99.4688 135.33 99.4008 135.31 99.3328 135.276C99.1831 135.187 99.0946 135.011 99.0946 134.793V134.242C99.0946 134.134 99.1831 134.039 99.2987 134.039C99.4144 134.039 99.5029 134.127 99.5029 134.242V134.793C99.5029 134.875 99.5233 134.915 99.5437 134.929C99.5573 134.936 99.6049 134.929 99.673 134.895C99.8499 134.793 100.047 134.392 100.047 133.991V130.429C100.047 130.321 100.136 130.226 100.244 130.226C100.353 130.226 100.449 130.314 100.449 130.429V133.991C100.449 134.514 100.204 135.051 99.8771 135.242C99.7682 135.303 99.6661 135.337 99.5641 135.337L99.5505 135.33Z" fill="#455A64"/>
<path d="M97.4344 132.217V131.871C97.4344 130.239 98.5843 128.241 99.9995 127.426C100.721 127.011 101.415 126.95 101.945 127.256C102.476 127.561 102.769 128.194 102.769 129.023V129.138L97.4344 132.217ZM101.204 127.466C100.898 127.466 100.557 127.568 100.204 127.779C98.9993 128.472 98.0059 130.09 97.8562 131.517L102.367 128.914C102.347 128.289 102.122 127.827 101.748 127.609C101.585 127.514 101.408 127.473 101.204 127.473V127.466Z" fill="#455A64"/>
<path d="M106.756 131.225C106.647 131.225 106.552 131.137 106.552 131.021V124.197C106.552 124.088 106.64 123.993 106.756 123.993C106.872 123.993 106.96 124.082 106.96 124.197V131.021C106.96 131.13 106.872 131.225 106.756 131.225Z" fill="#455A64"/>
<path d="M106.171 125.76C106.171 125.76 106.116 125.76 106.089 125.747C105.987 125.706 105.939 125.584 105.987 125.482L106.702 123.837L107.498 124.754C107.572 124.836 107.559 124.965 107.477 125.04C107.389 125.115 107.266 125.101 107.191 125.02L106.81 124.585L106.348 125.645C106.314 125.72 106.239 125.767 106.164 125.767L106.171 125.76Z" fill="#455A64"/>
<path d="M108.613 130.171C108.505 130.171 108.409 130.083 108.409 129.974V123.15C108.409 123.041 108.498 122.953 108.613 122.953C108.729 122.953 108.811 123.041 108.811 123.15V129.974C108.811 130.083 108.722 130.171 108.613 130.171Z" fill="#455A64"/>
<path d="M108.022 124.7C108.022 124.7 107.967 124.7 107.94 124.686C107.838 124.645 107.79 124.523 107.838 124.421L108.552 122.776L109.348 123.694C109.423 123.775 109.41 123.905 109.328 123.979C109.239 124.054 109.117 124.041 109.042 123.959L108.661 123.524L108.198 124.584C108.164 124.659 108.09 124.707 108.015 124.707L108.022 124.7Z" fill="#455A64"/>
<path d="M86.9289 146.715L46.8121 123.538V93.4419L86.9289 116.619V146.715Z" fill="#3C5AE7"/>
<path opacity="0.4" d="M86.9289 146.715L46.8121 123.538V93.4419L86.9289 116.619V146.715Z" fill="white"/>
<path d="M62.0464 106.811L69.2179 110.957V106.383L62.0464 102.237V106.811Z" fill="#37474F"/>
<path d="M69.2179 106.39L114.764 80.0522L107.593 75.8994L62.0464 102.237L69.2179 106.39Z" fill="#455A64"/>
<path d="M52.5547 112.378L62.9853 118.393C63.2439 118.542 63.4548 118.909 63.4548 119.208V126.447C63.4548 127.045 63.033 127.29 62.5159 126.991L52.0852 120.976C51.8267 120.826 51.6157 120.459 51.6157 120.16V112.921C51.6157 112.323 52.0376 112.079 52.5547 112.378Z" fill="#FAFAFA"/>
<path d="M52.2961 113.506L52.65 113.71V120.099L52.2961 119.895V113.506Z" fill="#455A64"/>
<path d="M53.7386 114.335L54.3509 114.695V121.084L53.7386 120.731V114.335Z" fill="#455A64"/>
<path d="M55.1811 115.171L55.5349 115.375V121.764L55.1811 121.56V115.171Z" fill="#455A64"/>
<path d="M56.2697 115.783L56.9841 116.205V122.6L56.2697 122.179V115.783Z" fill="#455A64"/>
<path d="M58.0728 116.836L58.4266 117.04V123.429L58.0728 123.225V116.836Z" fill="#455A64"/>
<path d="M59.1138 117.421L59.8691 117.869V124.265L59.1138 123.81V117.421Z" fill="#455A64"/>
<path d="M60.9577 118.502L61.3183 118.706L61.3115 125.095L60.9577 124.891V118.502Z" fill="#455A64"/>
<path d="M61.781 118.971L61.9647 119.073V125.462L61.781 125.36V118.971Z" fill="#455A64"/>
<path d="M60.3046 118.148L60.4815 118.257V124.646L60.3046 124.544V118.148Z" fill="#455A64"/>
<path d="M57.3924 116.449L57.5693 116.551V122.94L57.3924 122.838V116.449Z" fill="#455A64"/>
<path d="M55.8002 115.538L55.9771 115.64V122.029L55.8002 121.927V115.538Z" fill="#455A64"/>
<path d="M54.6572 114.906L54.8341 115.008V121.397L54.6572 121.295V114.906Z" fill="#455A64"/>
<path d="M53.1058 113.961L53.2827 114.063V120.459L53.1058 120.357V113.961Z" fill="#455A64"/>
<path d="M62.407 119.331L62.7608 119.535V125.931L62.407 125.727V119.331Z" fill="#455A64"/>
<path d="M209.436 118.128L166.128 93.1021L116.955 121.533L160.263 146.559L209.436 118.128Z" fill="#3C5AE7"/>
<g opacity="0.4">
<path d="M209.436 118.128L166.128 93.1021L116.955 121.533L160.263 146.559L209.436 118.128Z" fill="white"/>
</g>
<path d="M160.263 199.92L209.443 171.489V118.128L160.263 146.559V199.92Z" fill="#3C5AE7"/>
<g opacity="0.2">
<path d="M160.263 199.92L209.443 171.489V118.128L160.263 146.559V199.92Z" fill="white"/>
</g>
<path d="M164.523 190.853C164.407 190.853 164.298 190.825 164.196 190.764C163.937 190.615 163.788 190.282 163.788 189.86V187.189V186.985L163.924 187.012L166.02 185.782V188.766C166.02 189.527 165.564 190.384 164.985 190.717C164.829 190.805 164.672 190.853 164.523 190.853ZM164.114 187.386V189.86C164.114 190.159 164.203 190.384 164.359 190.472C164.509 190.56 164.693 190.492 164.815 190.424C165.285 190.153 165.679 189.391 165.679 188.766V188.549H164.904L164.747 187.502L164.114 187.386ZM165.189 188.215H165.673V186.374L164.421 187.108L165.04 187.216L165.183 188.215H165.189Z" fill="#455A64"/>
<path d="M164.897 192.98C164.802 192.98 164.727 192.905 164.727 192.81V190.567C164.727 190.472 164.802 190.397 164.897 190.397C164.992 190.397 165.067 190.472 165.067 190.567V192.81C165.067 192.905 164.992 192.98 164.897 192.98Z" fill="#455A64"/>
<path d="M163.924 193.544C163.869 193.544 163.808 193.517 163.781 193.463C163.733 193.381 163.761 193.279 163.842 193.232L165.795 192.103C165.877 192.056 165.979 192.083 166.026 192.165C166.074 192.246 166.047 192.348 165.965 192.396L164.012 193.524C164.012 193.524 163.958 193.544 163.931 193.544H163.924Z" fill="#455A64"/>
<path d="M170.878 189.684C170.81 189.684 170.748 189.671 170.694 189.637C170.565 189.562 170.49 189.419 170.49 189.236V188.774C170.49 188.678 170.565 188.604 170.66 188.604C170.755 188.604 170.83 188.678 170.83 188.774V189.236C170.83 189.304 170.85 189.338 170.864 189.351C170.878 189.358 170.918 189.351 170.973 189.324C171.123 189.236 171.286 188.903 171.286 188.563V185.579C171.286 185.484 171.361 185.409 171.456 185.409C171.551 185.409 171.626 185.484 171.626 185.579V188.563C171.626 188.998 171.422 189.453 171.15 189.61C171.061 189.664 170.973 189.691 170.884 189.691L170.878 189.684Z" fill="#455A64"/>
<path d="M169.109 187.074V186.782C169.109 185.416 170.075 183.744 171.259 183.064C171.864 182.717 172.443 182.663 172.885 182.921C173.327 183.18 173.572 183.703 173.572 184.403V184.498L169.102 187.074H169.109ZM172.259 183.091C172.007 183.091 171.721 183.18 171.422 183.349C170.415 183.927 169.578 185.28 169.456 186.476L173.232 184.294C173.211 183.771 173.028 183.383 172.715 183.2C172.579 183.125 172.429 183.084 172.259 183.084V183.091Z" fill="#455A64"/>
<path d="M176.913 186.244C176.818 186.244 176.743 186.17 176.743 186.074V180.358C176.743 180.263 176.818 180.188 176.913 180.188C177.008 180.188 177.083 180.263 177.083 180.358V186.074C177.083 186.17 177.008 186.244 176.913 186.244Z" fill="#455A64"/>
<path d="M176.423 181.664C176.423 181.664 176.375 181.664 176.355 181.65C176.266 181.616 176.232 181.514 176.266 181.432L176.865 180.053L177.532 180.821C177.593 180.889 177.586 180.997 177.518 181.059C177.444 181.12 177.341 181.113 177.28 181.045L176.96 180.678L176.573 181.568C176.545 181.63 176.484 181.67 176.416 181.67L176.423 181.664Z" fill="#455A64"/>
<path d="M178.464 185.361C178.369 185.361 178.294 185.286 178.294 185.191V179.475C178.294 179.379 178.369 179.305 178.464 179.305C178.559 179.305 178.634 179.379 178.634 179.475V185.191C178.634 185.286 178.559 185.361 178.464 185.361Z" fill="#455A64"/>
<path d="M177.974 180.78C177.974 180.78 177.927 180.78 177.906 180.766C177.818 180.732 177.784 180.63 177.818 180.549L178.417 179.169L179.083 179.937C179.145 180.005 179.138 180.114 179.07 180.175C178.995 180.236 178.893 180.229 178.832 180.161L178.512 179.794L178.124 180.685C178.097 180.746 178.036 180.787 177.967 180.787L177.974 180.78Z" fill="#455A64"/>
<path d="M160.263 199.92L116.955 174.895V121.533L160.263 146.559V199.92Z" fill="#3C5AE7"/>
<path opacity="0.15" d="M160.263 199.92L116.955 174.895V121.533L160.263 146.559V199.92Z" fill="black"/>
<path d="M188.854 136.439L180.907 141.026V134.617L188.854 130.029V136.439Z" fill="#37474F"/>
<path d="M180.907 134.617L137.612 109.591L145.553 104.997L188.854 130.029L180.907 134.617Z" fill="#455A64"/>
<path d="M120.085 167.704L127.577 172.026C127.76 172.135 127.917 172.393 127.917 172.611V177.81C127.917 178.239 127.611 178.415 127.243 178.198L119.752 173.875C119.568 173.766 119.412 173.508 119.412 173.291V168.091C119.412 167.663 119.718 167.486 120.085 167.704Z" fill="#FAFAFA"/>
<path d="M119.895 168.513L120.153 168.662V173.25L119.895 173.107V168.513Z" fill="#455A64"/>
<path d="M120.936 169.11L121.371 169.369V173.963L120.936 173.705V169.11Z" fill="#455A64"/>
<path d="M121.97 169.709L122.229 169.859V174.446L121.97 174.304V169.709Z" fill="#455A64"/>
<path d="M122.752 170.15L123.263 170.456V175.044L122.752 174.745V170.15Z" fill="#455A64"/>
<path d="M124.045 170.905L124.304 171.055V175.643L124.045 175.5V170.905Z" fill="#455A64"/>
<path d="M124.794 171.326L125.338 171.652V176.24L124.794 175.921V171.326Z" fill="#455A64"/>
<path d="M126.12 172.102L126.379 172.251V176.839L126.12 176.696V172.102Z" fill="#455A64"/>
<path d="M126.712 172.441L126.842 172.509V177.104L126.712 177.029V172.441Z" fill="#455A64"/>
<path d="M125.651 171.85L125.78 171.924V176.519L125.651 176.444V171.85Z" fill="#455A64"/>
<path d="M123.562 170.627L123.685 170.702V175.296L123.562 175.222V170.627Z" fill="#455A64"/>
<path d="M122.412 169.974L122.542 170.048V174.636L122.412 174.561V169.974Z" fill="#455A64"/>
<path d="M121.596 169.519L121.718 169.593V174.188L121.596 174.113V169.519Z" fill="#455A64"/>
<path d="M120.48 168.846L120.609 168.92L120.602 173.508L120.48 173.434V168.846Z" fill="#455A64"/>
<path d="M127.161 172.699L127.413 172.849V177.437L127.161 177.294V172.699Z" fill="#455A64"/>
<path d="M162.23 141.875C162.168 141.875 162.114 141.862 162.06 141.835L29.4821 66.9684C29.3188 66.8732 29.2575 66.6693 29.3528 66.5062C29.448 66.3431 29.6522 66.2887 29.8155 66.3771L162.23 141.141L229.937 102.094C230.1 101.999 230.304 102.053 230.4 102.216C230.495 102.379 230.441 102.583 230.277 102.679L162.4 141.828C162.345 141.855 162.291 141.875 162.23 141.875Z" fill="#E0E0E0"/>
<path d="M146.567 211.135C146.505 211.135 146.451 211.121 146.397 211.087L47.1931 153.872C47.1114 153.824 47.0502 153.743 47.0298 153.648L29.312 66.7375C29.2779 66.554 29.3936 66.3773 29.5773 66.3365C29.761 66.2957 29.9379 66.418 29.9788 66.6015L47.6626 153.362L146.567 210.4L214.145 171.428L229.774 102.312C229.815 102.128 229.991 102.013 230.182 102.053C230.366 102.094 230.481 102.278 230.44 102.461L214.778 171.72C214.757 171.815 214.696 171.89 214.614 171.938L146.737 211.087C146.682 211.114 146.628 211.135 146.567 211.135Z" fill="#E0E0E0"/>
<path d="M146.567 211.135C146.567 211.135 146.519 211.135 146.492 211.129C146.308 211.088 146.192 210.904 146.233 210.721L161.896 141.462C161.937 141.278 162.114 141.163 162.304 141.203C162.488 141.244 162.604 141.428 162.563 141.611L146.9 210.87C146.866 211.027 146.723 211.135 146.567 211.135Z" fill="#E0E0E0"/>
<path d="M163.536 201.347C163.536 201.347 163.488 201.347 163.461 201.34C163.277 201.3 163.162 201.116 163.203 200.933L178.866 131.674C178.906 131.49 179.09 131.375 179.274 131.415C179.458 131.456 179.573 131.64 179.532 131.823L163.869 201.082C163.835 201.238 163.692 201.347 163.536 201.347Z" fill="#E0E0E0"/>
<path d="M180.505 191.56C180.505 191.56 180.458 191.56 180.431 191.553C180.247 191.513 180.131 191.329 180.172 191.146L195.835 121.887C195.876 121.703 196.059 121.588 196.243 121.628C196.427 121.669 196.543 121.853 196.502 122.036L180.839 191.295C180.805 191.451 180.662 191.56 180.505 191.56Z" fill="#E0E0E0"/>
<path d="M197.475 181.773C197.475 181.773 197.427 181.773 197.4 181.766C197.216 181.725 197.1 181.542 197.141 181.358L212.804 112.099C212.845 111.916 213.022 111.8 213.213 111.841C213.396 111.882 213.512 112.065 213.471 112.249L197.808 181.508C197.774 181.664 197.631 181.773 197.475 181.773Z" fill="#E0E0E0"/>
<path d="M59.7602 161.07C59.5901 161.07 59.4404 160.941 59.42 160.771L49.7038 78.2309C49.6834 78.0474 49.8126 77.8774 50.0032 77.8503C50.1937 77.8299 50.357 77.959 50.3842 78.1493L60.1004 160.689C60.1208 160.873 59.9915 161.043 59.801 161.063C59.7874 161.063 59.7738 161.063 59.7602 161.063V161.07Z" fill="#E0E0E0"/>
<path d="M72.164 168.227C71.9871 168.227 71.8374 168.091 71.8238 167.907L66.2581 87.5628C66.2445 87.3725 66.3874 87.2161 66.5711 87.2026C66.7548 87.189 66.9181 87.3317 66.9317 87.5152L72.4974 167.86C72.5111 168.05 72.3682 168.206 72.1845 168.22C72.1776 168.22 72.1708 168.22 72.1572 168.22L72.164 168.227Z" fill="#E0E0E0"/>
<path d="M84.5679 175.377C84.3842 175.377 84.2277 175.227 84.2277 175.037L83.6085 97.3296C83.6085 97.1393 83.7582 96.9897 83.9487 96.9897C84.1052 96.9897 84.2889 97.1393 84.2889 97.3296L84.9081 175.037C84.9081 175.227 84.7584 175.377 84.5679 175.377Z" fill="#E0E0E0"/>
<path d="M96.9649 182.527H96.9513C96.7608 182.52 96.6179 182.364 96.6247 182.174L99.4484 106.261C99.4552 106.07 99.6253 105.928 99.8022 105.934C99.9927 105.941 100.136 106.097 100.129 106.288L97.3051 182.201C97.2983 182.384 97.1486 182.527 96.9649 182.527Z" fill="#E0E0E0"/>
<path d="M109.369 189.677C109.369 189.677 109.348 189.677 109.342 189.677C109.151 189.663 109.015 189.5 109.029 189.31L114.9 114.974C114.914 114.783 115.091 114.647 115.268 114.661C115.458 114.675 115.594 114.838 115.581 115.028L109.709 189.364C109.695 189.541 109.546 189.677 109.369 189.677Z" fill="#E0E0E0"/>
<path d="M121.766 196.834C121.766 196.834 121.739 196.834 121.725 196.834C121.541 196.814 121.405 196.644 121.432 196.454L130.57 123.81C130.597 123.626 130.768 123.497 130.951 123.518C131.135 123.538 131.271 123.708 131.244 123.898L122.106 196.542C122.086 196.712 121.936 196.841 121.766 196.841V196.834Z" fill="#E0E0E0"/>
<path d="M134.17 203.985C134.17 203.985 134.129 203.985 134.108 203.985C133.925 203.951 133.802 203.774 133.836 203.59L146.696 132.673C146.73 132.49 146.907 132.367 147.091 132.401C147.274 132.435 147.397 132.612 147.363 132.795L134.503 203.713C134.476 203.876 134.333 203.991 134.17 203.991V203.985Z" fill="#E0E0E0"/>
<path d="M162.23 141.875C162.168 141.875 162.114 141.862 162.06 141.835L29.4821 66.9684C29.3188 66.8732 29.2575 66.6693 29.3528 66.5062C29.448 66.3431 29.6522 66.2887 29.8155 66.3771L162.23 141.141L229.937 102.094C230.1 101.999 230.304 102.053 230.4 102.216C230.495 102.379 230.441 102.583 230.277 102.679L162.4 141.828C162.345 141.855 162.291 141.875 162.23 141.875Z" fill="#E0E0E0"/>
<path d="M158.317 159.194C158.256 159.194 158.202 159.18 158.147 159.146L33.8843 87.8345C33.721 87.7393 33.6666 87.5354 33.7618 87.3723C33.8571 87.2092 34.0612 87.1548 34.2245 87.2499L158.317 158.466L226.025 119.419C226.188 119.324 226.392 119.378 226.487 119.541C226.583 119.704 226.528 119.908 226.365 120.004L158.487 159.146C158.433 159.173 158.379 159.194 158.317 159.194Z" fill="#E0E0E0"/>
<path d="M154.398 176.505C154.337 176.505 154.282 176.492 154.228 176.458L38.3341 109.802C38.1708 109.707 38.1164 109.503 38.2117 109.34C38.3069 109.176 38.511 109.122 38.6743 109.217L154.398 175.778L222.105 136.73C222.269 136.635 222.473 136.69 222.568 136.853C222.663 137.016 222.609 137.22 222.446 137.315L154.568 176.458C154.514 176.485 154.459 176.505 154.398 176.505Z" fill="#E0E0E0"/>
<path d="M150.486 193.823C150.425 193.823 150.37 193.81 150.316 193.776L42.6956 131.273C42.5323 131.178 42.4779 130.974 42.5731 130.811C42.6684 130.648 42.8793 130.593 43.0358 130.688L150.479 193.089L218.186 154.042C218.35 153.947 218.554 154.001 218.649 154.164C218.744 154.328 218.69 154.531 218.527 154.627L150.649 193.776C150.595 193.803 150.54 193.823 150.479 193.823H150.486Z" fill="#E0E0E0"/>
<path d="M146.567 211.134C146.505 211.134 146.451 211.121 146.397 211.087L47.1931 153.872C47.0298 153.776 46.9754 153.573 47.0706 153.409C47.1659 153.246 47.37 153.192 47.5333 153.287L146.567 210.4L214.274 171.353C214.437 171.258 214.648 171.312 214.737 171.475C214.832 171.638 214.778 171.842 214.614 171.937L146.737 211.087C146.682 211.114 146.628 211.134 146.567 211.134Z" fill="#E0E0E0"/>
<path d="M184.132 221.595L226.8 196.943L275.245 224.953L232.577 249.605L184.132 221.595Z" fill="#3C5AE7"/>
<path opacity="0.7" d="M184.132 221.595L226.8 196.943L275.245 224.953L232.577 249.605L184.132 221.595Z" fill="white"/>
<g opacity="0.2">
<path d="M275.245 224.953L235.673 247.817L191.589 222.329L231.155 199.465L275.245 224.953Z" fill="black"/>
</g>
<path d="M232.577 281.61L184.132 253.601V221.595L232.577 249.604V281.61Z" fill="#3C5AE7"/>
<path opacity="0.6" d="M232.577 281.61L184.132 253.601V221.595L232.577 249.604V281.61Z" fill="white"/>
<path d="M226.644 270.817C225.909 270.396 225.331 269.309 225.331 268.343V264.551L227.991 266.114L228.161 266.08V266.332V269.73C228.161 270.267 227.971 270.688 227.637 270.879C227.508 270.953 227.372 270.987 227.222 270.987C227.039 270.987 226.834 270.926 226.637 270.811L226.644 270.817ZM226.936 266.739L226.739 268.071H225.753V268.35C225.753 269.145 226.256 270.111 226.848 270.457C227.004 270.546 227.229 270.634 227.426 270.518C227.624 270.41 227.733 270.117 227.733 269.737V266.597L226.93 266.739H226.936ZM226.562 266.372L227.352 266.23L225.766 265.298V267.636H226.385L226.569 266.366L226.562 266.372Z" fill="#455A64"/>
<path d="M226.753 273.699C226.868 273.699 226.964 273.604 226.964 273.488V270.64C226.964 270.525 226.868 270.43 226.753 270.43C226.637 270.43 226.542 270.525 226.542 270.64V273.488C226.542 273.604 226.637 273.699 226.753 273.699Z" fill="#455A64"/>
<path d="M227.991 274.413C228.066 274.413 228.134 274.372 228.175 274.304C228.236 274.202 228.202 274.073 228.1 274.011L225.623 272.584C225.521 272.523 225.392 272.557 225.331 272.659C225.269 272.761 225.303 272.89 225.406 272.951L227.882 274.379C227.882 274.379 227.95 274.406 227.991 274.406V274.413Z" fill="#455A64"/>
<path d="M219.153 269.505C219.234 269.505 219.316 269.484 219.384 269.444C219.547 269.348 219.642 269.165 219.642 268.934V268.349C219.642 268.234 219.547 268.139 219.432 268.139C219.316 268.139 219.221 268.234 219.221 268.349V268.934C219.221 269.022 219.193 269.07 219.18 269.077C219.166 269.083 219.112 269.077 219.044 269.043C218.853 268.934 218.649 268.506 218.649 268.078V264.285C218.649 264.169 218.554 264.074 218.438 264.074C218.322 264.074 218.227 264.169 218.227 264.285V268.078C218.227 268.635 218.486 269.206 218.833 269.41C218.948 269.478 219.064 269.512 219.166 269.512L219.153 269.505Z" fill="#455A64"/>
<path d="M215.73 262.919V262.797C215.73 261.906 216.043 261.24 216.608 260.914C217.173 260.588 217.907 260.656 218.676 261.097C220.18 261.967 221.405 264.088 221.405 265.821V266.188L215.73 262.912V262.919ZM216.819 261.281C216.417 261.512 216.186 262.001 216.159 262.674L220.956 265.441C220.799 263.918 219.738 262.205 218.459 261.464C218.078 261.247 217.717 261.131 217.39 261.131C217.179 261.131 216.982 261.179 216.812 261.281H216.819Z" fill="#455A64"/>
<path d="M211.491 265.141C211.607 265.141 211.702 265.046 211.702 264.931V257.672C211.702 257.556 211.607 257.461 211.491 257.461C211.376 257.461 211.28 257.556 211.28 257.672V264.931C211.28 265.046 211.376 265.141 211.491 265.141Z" fill="#455A64"/>
<path d="M212.11 259.323C212.11 259.323 212.165 259.323 212.192 259.303C212.301 259.255 212.348 259.133 212.301 259.024L211.539 257.271L210.688 258.249C210.613 258.338 210.62 258.474 210.709 258.548C210.797 258.623 210.933 258.616 211.008 258.528L211.41 258.066L211.899 259.194C211.933 259.276 212.015 259.323 212.097 259.323H212.11Z" fill="#455A64"/>
<path d="M209.518 264.013C209.634 264.013 209.729 263.918 209.729 263.803V256.544C209.729 256.428 209.634 256.333 209.518 256.333C209.402 256.333 209.307 256.428 209.307 256.544V263.803C209.307 263.918 209.402 264.013 209.518 264.013Z" fill="#455A64"/>
<path d="M210.137 258.202C210.137 258.202 210.192 258.202 210.219 258.182C210.328 258.134 210.375 258.012 210.328 257.903L209.566 256.149L208.715 257.128C208.64 257.217 208.647 257.352 208.736 257.427C208.824 257.502 208.96 257.495 209.035 257.407L209.436 256.945L209.926 258.073C209.96 258.154 210.042 258.202 210.124 258.202H210.137Z" fill="#455A64"/>
<path d="M232.577 281.611L275.245 256.959V224.953L232.577 249.605V281.611Z" fill="#3C5AE7"/>
<path opacity="0.4" d="M232.577 281.611L275.245 256.959V224.953L232.577 249.605V281.611Z" fill="white"/>
<g opacity="0.2">
<path d="M275.245 235.651L235.673 258.516V247.817L275.245 224.953V235.651Z" fill="black"/>
</g>
<path d="M255.997 240.911L252.86 242.719V237.86L255.997 236.052V240.911Z" fill="#37474F"/>
<path d="M252.86 237.859L204.415 209.85L207.552 208.042L255.997 236.051L252.86 237.859Z" fill="#455A64"/>
<path d="M269.135 245.092L258.045 251.494C257.772 251.651 257.541 252.045 257.541 252.357V260.058C257.541 260.69 257.99 260.955 258.541 260.636L269.632 254.233C269.904 254.077 270.129 253.683 270.129 253.37V245.669C270.129 245.037 269.68 244.779 269.128 245.092H269.135Z" fill="#FAFAFA"/>
<path d="M269.414 246.288L269.04 246.506V253.302L269.414 253.085V246.288Z" fill="#455A64"/>
<path d="M267.877 247.179L267.23 247.559V254.356L267.877 253.975V247.179Z" fill="#455A64"/>
<path d="M266.346 248.062L265.965 248.28V255.077L266.346 254.859V248.062Z" fill="#455A64"/>
<path d="M265.182 248.715L264.427 249.163V255.96L265.182 255.518V248.715Z" fill="#455A64"/>
<path d="M263.27 249.829L262.896 250.047V256.85L263.27 256.633V249.829Z" fill="#455A64"/>
<path d="M262.161 250.454L261.358 250.937V257.733L262.161 257.251V250.454Z" fill="#455A64"/>
<path d="M260.195 251.604L259.821 251.821V258.618L260.195 258.4V251.604Z" fill="#455A64"/>
<path d="M259.324 252.1L259.133 252.208V259.005L259.324 258.896V252.1Z" fill="#455A64"/>
<path d="M260.896 251.236L260.712 251.345V258.142L260.896 258.033V251.236Z" fill="#455A64"/>
<path d="M263.991 249.422L263.801 249.531V256.327L263.991 256.219V249.422Z" fill="#455A64"/>
<path d="M265.686 248.449L265.502 248.558V255.355L265.686 255.246V248.449Z" fill="#455A64"/>
<path d="M266.904 247.776L266.713 247.892V254.689L266.904 254.58V247.776Z" fill="#455A64"/>
<path d="M268.557 246.777L268.366 246.886V253.683L268.557 253.574V246.777Z" fill="#455A64"/>
<path d="M258.664 252.486L258.283 252.704V259.507L258.664 259.283V252.486Z" fill="#455A64"/>
<path d="M194.182 190.221L236.85 165.569L285.295 193.572L242.633 218.231L194.182 190.221Z" fill="#3C5AE7"/>
<path opacity="0.3" d="M194.182 190.221L236.85 165.569L285.295 193.572L242.633 218.231L194.182 190.221Z" fill="white"/>
<path d="M242.627 250.236L194.182 222.227V190.221L242.633 218.23L242.627 250.236Z" fill="#3C5AE7"/>
<path d="M236.693 239.443C235.959 239.022 235.38 237.934 235.38 236.969V233.177L238.041 234.74L238.211 234.713V234.964V238.363C238.211 238.9 238.02 239.321 237.694 239.511C237.564 239.586 237.428 239.62 237.279 239.62C237.095 239.62 236.891 239.559 236.693 239.443ZM236.993 235.365L236.795 236.697H235.809V236.976C235.809 237.771 236.312 238.737 236.904 239.083C237.061 239.171 237.285 239.26 237.483 239.144C237.68 239.029 237.789 238.743 237.789 238.363V235.223L236.986 235.365H236.993ZM236.612 234.998L237.401 234.856L235.816 233.924V236.262H236.435L236.619 234.991L236.612 234.998Z" fill="#455A64"/>
<path d="M236.802 242.325C236.918 242.325 237.013 242.23 237.013 242.114V239.266C237.013 239.151 236.918 239.056 236.802 239.056C236.687 239.056 236.591 239.151 236.591 239.266V242.114C236.591 242.23 236.687 242.325 236.802 242.325Z" fill="#455A64"/>
<path d="M238.041 243.038C238.115 243.038 238.184 242.998 238.224 242.93C238.286 242.828 238.252 242.699 238.149 242.637L235.673 241.21C235.571 241.149 235.441 241.183 235.38 241.285C235.319 241.387 235.353 241.516 235.455 241.577L237.932 243.004C237.932 243.004 238 243.032 238.041 243.032V243.038Z" fill="#455A64"/>
<path d="M229.209 238.131C229.291 238.131 229.372 238.11 229.44 238.07C229.604 237.974 229.699 237.791 229.699 237.56V236.975C229.699 236.86 229.604 236.765 229.488 236.765C229.372 236.765 229.277 236.86 229.277 236.975V237.56C229.277 237.648 229.25 237.696 229.236 237.703C229.223 237.709 229.168 237.703 229.1 237.669C228.91 237.56 228.705 237.132 228.705 236.703V232.911C228.705 232.795 228.61 232.7 228.495 232.7C228.379 232.7 228.284 232.795 228.284 232.911V236.703C228.284 237.261 228.542 237.832 228.889 238.036C229.005 238.104 229.114 238.138 229.223 238.138L229.209 238.131Z" fill="#455A64"/>
<path d="M225.786 231.545V231.423C225.786 230.532 226.099 229.866 226.664 229.54C227.229 229.214 227.964 229.282 228.733 229.723C230.236 230.593 231.461 232.714 231.461 234.447V234.814L225.786 231.538V231.545ZM226.868 229.907C226.467 230.138 226.236 230.627 226.208 231.3L231.005 234.067C230.849 232.544 229.787 230.831 228.508 230.09C228.127 229.873 227.766 229.757 227.44 229.757C227.229 229.757 227.032 229.805 226.862 229.907H226.868Z" fill="#455A64"/>
<path d="M221.541 233.767C221.656 233.767 221.752 233.672 221.752 233.557V226.298C221.752 226.182 221.656 226.087 221.541 226.087C221.425 226.087 221.33 226.182 221.33 226.298V233.557C221.33 233.672 221.425 233.767 221.541 233.767Z" fill="#455A64"/>
<path d="M222.167 227.949C222.167 227.949 222.221 227.949 222.248 227.929C222.357 227.881 222.405 227.759 222.357 227.65L221.595 225.896L220.745 226.875C220.67 226.964 220.677 227.1 220.765 227.174C220.854 227.249 220.99 227.242 221.064 227.154L221.466 226.692L221.956 227.82C221.99 227.902 222.071 227.949 222.153 227.949H222.167Z" fill="#455A64"/>
<path d="M219.568 232.639C219.683 232.639 219.778 232.544 219.778 232.429V225.17C219.778 225.054 219.683 224.959 219.568 224.959C219.452 224.959 219.357 225.054 219.357 225.17V232.429C219.357 232.544 219.452 232.639 219.568 232.639Z" fill="#455A64"/>
<path d="M220.194 226.828C220.194 226.828 220.248 226.828 220.275 226.808C220.384 226.76 220.432 226.638 220.384 226.529L219.622 224.775L218.771 225.754C218.697 225.842 218.703 225.978 218.792 226.053C218.88 226.128 219.016 226.121 219.091 226.033L219.493 225.571L219.983 226.699C220.017 226.78 220.098 226.828 220.18 226.828H220.194Z" fill="#455A64"/>
<path d="M242.633 250.237L285.295 225.585V193.572L242.633 218.231V250.237Z" fill="#3C5AE7"/>
<path opacity="0.1" d="M242.633 250.237L285.295 225.585V193.572L242.633 218.231V250.237Z" fill="black"/>
<path d="M266.053 209.537L262.916 211.345V206.486L266.053 204.678V209.537Z" fill="#37474F"/>
<path d="M262.916 206.485L214.465 178.476L217.608 176.668L266.053 204.677L262.916 206.485Z" fill="#455A64"/>
<path d="M279.192 213.718L268.101 220.12C267.829 220.277 267.598 220.671 267.598 220.983V228.684C267.598 229.316 268.047 229.575 268.598 229.262L279.688 222.859C279.961 222.703 280.192 222.309 280.192 221.996V214.295C280.192 213.663 279.743 213.405 279.192 213.718Z" fill="#FAFAFA"/>
<path d="M279.471 214.914L279.09 215.132V221.928L279.471 221.711V214.914Z" fill="#455A64"/>
<path d="M277.933 215.805L277.28 216.185V222.982L277.933 222.601V215.805Z" fill="#455A64"/>
<path d="M276.395 216.688L276.021 216.906V223.703L276.395 223.485V216.688Z" fill="#455A64"/>
<path d="M275.239 217.341L274.483 217.789V224.586L275.239 224.138V217.341Z" fill="#455A64"/>
<path d="M273.32 218.455L272.946 218.673V225.476L273.327 225.259L273.32 218.455Z" fill="#455A64"/>
<path d="M272.218 219.08L271.408 219.563V226.359L272.218 225.877V219.08Z" fill="#455A64"/>
<path d="M270.251 220.229L269.87 220.447L269.877 227.244L270.251 227.026V220.229Z" fill="#455A64"/>
<path d="M269.373 220.726L269.183 220.834V227.631L269.373 227.522V220.726Z" fill="#455A64"/>
<path d="M270.952 219.855L270.761 219.964V226.768L270.952 226.659V219.855Z" fill="#455A64"/>
<path d="M274.048 218.047L273.857 218.156V224.952L274.048 224.844V218.047Z" fill="#455A64"/>
<path d="M275.742 217.075L275.552 217.184V223.981L275.742 223.872V217.075Z" fill="#455A64"/>
<path d="M276.96 216.402L276.769 216.511V223.315L276.96 223.206V216.402Z" fill="#455A64"/>
<path d="M278.607 215.403L278.416 215.512V222.309L278.607 222.2V215.403Z" fill="#455A64"/>
<path d="M268.713 221.112L268.339 221.33V228.127L268.713 227.909V221.112Z" fill="#455A64"/>
</svg>
