<svg width="345" height="364" viewBox="0 0 345 364" fill="none" xmlns="http://www.w3.org/2000/svg">
<g clip-path="url(#clip0_6450_26401)">
<path d="M270.544 268.509C269.356 264.151 267.751 260.066 265.729 256.27C263.699 252.473 261.332 249.005 258.62 245.857C255.899 242.709 252.963 240.234 249.801 238.408C246.639 236.59 243.679 235.669 240.91 235.653C238.142 235.637 235.775 236.374 233.801 237.864C231.827 239.353 213.821 249.029 211.847 250.519C209.873 252.009 208.316 254.267 207.185 257.295C206.053 260.323 205.483 263.879 205.483 267.948C205.483 272.017 206.053 276.39 207.185 280.659C208.316 284.928 209.873 288.949 211.847 292.714C213.821 296.478 216.196 299.915 218.956 303.022C221.724 306.13 224.685 308.597 227.847 310.415C231.008 312.233 233.937 313.171 236.657 313.227C239.37 313.283 241.745 312.578 243.775 311.12C245.797 309.654 263.699 299.923 265.729 298.465C267.751 296.999 269.356 294.804 270.544 291.865C271.731 288.933 272.325 285.369 272.325 281.156C272.325 276.943 271.731 272.858 270.544 268.501V268.509Z" fill="#257367"/>
<path opacity="0.4" d="M270.544 268.509C269.356 264.151 267.751 260.066 265.729 256.27C263.699 252.473 261.332 249.005 258.62 245.857C255.899 242.709 252.963 240.234 249.801 238.408C246.639 236.59 243.679 235.669 240.91 235.653C238.142 235.637 235.775 236.374 233.801 237.864C231.827 239.353 213.821 249.029 211.847 250.519C209.873 252.009 208.316 254.267 207.185 257.295C206.053 260.323 205.483 263.879 205.483 267.948C205.483 272.017 206.053 276.39 207.185 280.659C208.316 284.928 209.873 288.949 211.847 292.714C213.821 296.478 216.196 299.915 218.956 303.022C221.724 306.13 224.685 308.597 227.847 310.415C231.008 312.233 233.937 313.171 236.657 313.227C239.37 313.283 241.745 312.578 243.775 311.12C245.797 309.654 263.699 299.923 265.729 298.465C267.751 296.999 269.356 294.804 270.544 291.865C271.731 288.933 272.325 285.369 272.325 281.156C272.325 276.943 271.731 272.858 270.544 268.501V268.509Z" fill="white"/>
<path d="M309.517 112.808C306.748 102.932 302.849 93.6171 297.81 84.8626C292.778 76.116 286.72 68.1143 279.667 60.8976C272.606 53.6729 264.774 47.5855 256.18 42.6275C249.857 38.9831 243.983 36.3559 238.551 34.738C233.119 33.12 228.079 32.287 223.441 32.239C218.803 32.1989 214.478 32.7916 210.482 34.0331C206.486 35.2826 202.803 36.9006 199.441 38.911L177.487 51.5663L187.116 77.4296C188.697 82.2834 191.264 85.7356 194.819 87.7861C196.304 88.6431 197.981 88.7873 199.85 88.2266C201.728 87.666 204.023 87.1533 206.743 86.6808C209.455 86.2082 212.769 86.2723 216.677 86.881C220.577 87.4897 225.343 89.4121 230.976 92.656C234.828 94.8747 238.406 97.662 241.712 101.01C245.018 104.366 247.859 108.075 250.234 112.136C252.601 116.196 254.455 120.482 255.787 124.999C257.127 129.517 257.785 134.138 257.785 138.872C257.785 146.233 256.621 151.904 254.302 155.9C253.396 157.462 252.369 158.856 251.285 160.154C249.335 161.051 247.474 162.02 245.741 163.117C243.582 164.479 226.996 173.746 223.786 175.772C220.577 177.799 218.009 180.594 216.083 184.151C214.157 187.707 213.491 192.745 214.085 199.265L216.605 232.857L241.648 247.291L263.602 234.636L267.005 207.803C267.286 205.601 267.919 203.742 268.842 202.18C269.091 202.068 269.324 201.972 269.572 201.86C270.776 201.339 271.948 200.723 273.095 200.026C275.639 198.472 293.46 188.292 294.391 187.755C297.2 186.145 299.824 184.022 302.271 181.387C305.529 177.879 308.241 173.097 310.416 167.058C312.59 161.019 313.673 152.993 313.673 143.005C313.673 133.017 312.293 122.692 309.533 112.816L309.517 112.808Z" fill="#257367"/>
<path opacity="0.4" d="M309.517 112.808C306.748 102.932 302.849 93.6171 297.81 84.8626C292.778 76.116 286.72 68.1143 279.667 60.8976C272.606 53.6729 264.774 47.5855 256.18 42.6275C249.857 38.9831 243.983 36.3559 238.551 34.738C233.119 33.12 228.079 32.287 223.441 32.239C218.803 32.1989 214.478 32.7916 210.482 34.0331C206.486 35.2826 202.803 36.9006 199.441 38.911L177.487 51.5663L187.116 77.4296C188.697 82.2834 191.264 85.7356 194.819 87.7861C196.304 88.6431 197.981 88.7873 199.85 88.2266C201.728 87.666 204.023 87.1533 206.743 86.6808C209.455 86.2082 212.769 86.2723 216.677 86.881C220.577 87.4897 225.343 89.4121 230.976 92.656C234.828 94.8747 238.406 97.662 241.712 101.01C245.018 104.366 247.859 108.075 250.234 112.136C252.601 116.196 254.455 120.482 255.787 124.999C257.127 129.517 257.785 134.138 257.785 138.872C257.785 146.233 256.621 151.904 254.302 155.9C253.396 157.462 252.369 158.856 251.285 160.154C249.335 161.051 247.474 162.02 245.741 163.117C243.582 164.479 226.996 173.746 223.786 175.772C220.577 177.799 218.009 180.594 216.083 184.151C214.157 187.707 213.491 192.745 214.085 199.265L216.605 232.857L241.648 247.291L263.602 234.636L267.005 207.803C267.286 205.601 267.919 203.742 268.842 202.18C269.091 202.068 269.324 201.972 269.572 201.86C270.776 201.339 271.948 200.723 273.095 200.026C275.639 198.472 293.46 188.292 294.391 187.755C297.2 186.145 299.824 184.022 302.271 181.387C305.529 177.879 308.241 173.097 310.416 167.058C312.59 161.019 313.673 152.993 313.673 143.005C313.673 133.017 312.293 122.692 309.533 112.816L309.517 112.808Z" fill="white"/>
<path d="M243.783 268.933C241.753 265.136 239.386 261.668 236.665 258.52C233.945 255.373 231.016 252.898 227.855 251.071C224.693 249.253 221.732 248.332 218.964 248.316C216.196 248.3 213.829 249.037 211.855 250.527C209.881 252.017 208.324 254.275 207.193 257.303C206.061 260.331 205.491 263.887 205.491 267.956C205.491 272.025 206.061 276.398 207.193 280.667C208.324 284.936 209.881 288.957 211.855 292.722C213.829 296.486 216.204 299.922 218.964 303.03C221.732 306.138 224.693 308.605 227.855 310.423C231.016 312.241 233.945 313.179 236.665 313.235C239.378 313.291 241.753 312.586 243.783 311.128C245.805 309.662 247.41 307.468 248.597 304.528C249.785 301.597 250.379 298.032 250.379 293.819C250.379 289.606 249.785 285.529 248.597 281.164C247.41 276.807 245.805 272.722 243.783 268.925V268.933Z" fill="#FAFAFA"/>
<path d="M218.876 250.543H218.948C221.307 250.559 223.931 251.384 226.74 253.002C229.66 254.684 232.437 257.031 234.98 259.978C237.572 262.982 239.875 266.346 241.817 269.982C243.751 273.619 245.307 277.575 246.447 281.757C247.578 285.914 248.148 289.974 248.148 293.835C248.148 297.696 247.602 301.06 246.535 303.711C245.516 306.234 244.152 308.124 242.483 309.334C240.902 310.471 239.105 311.024 236.97 311.024C236.89 311.024 236.802 311.024 236.722 311.024C234.387 310.976 231.779 310.127 228.978 308.509C226.041 306.819 223.241 304.48 220.641 301.564C218.009 298.609 215.722 295.293 213.837 291.705C211.951 288.1 210.434 284.199 209.351 280.107C208.268 276.046 207.722 271.961 207.722 267.964C207.722 264.175 208.244 260.851 209.279 258.088C210.258 255.477 211.582 253.53 213.203 252.305C214.775 251.12 216.629 250.543 218.884 250.543M218.876 248.316C216.148 248.316 213.805 249.053 211.855 250.527C209.881 252.017 208.324 254.275 207.193 257.303C206.061 260.331 205.491 263.887 205.491 267.956C205.491 272.025 206.061 276.398 207.193 280.667C208.324 284.936 209.881 288.957 211.855 292.722C213.829 296.486 216.204 299.922 218.964 303.03C221.732 306.138 224.693 308.605 227.855 310.423C231.016 312.241 233.945 313.179 236.665 313.235C236.762 313.235 236.866 313.235 236.962 313.235C239.554 313.235 241.825 312.53 243.783 311.12C245.805 309.654 247.41 307.46 248.597 304.52C249.785 301.589 250.379 298.024 250.379 293.811C250.379 289.598 249.785 285.521 248.597 281.156C247.41 276.799 245.805 272.714 243.783 268.917C241.753 265.12 239.386 261.652 236.665 258.504C233.945 255.357 231.016 252.882 227.855 251.055C224.693 249.237 221.732 248.316 218.964 248.3C218.932 248.3 218.908 248.3 218.876 248.3V248.316Z" fill="#257367"/>
<path d="M287.563 125.472C284.795 115.596 280.895 106.28 275.856 97.5339C270.824 88.7873 264.766 80.7857 257.713 73.5689C250.652 66.3442 242.82 60.2568 234.226 55.2988C227.903 51.6544 222.029 49.0273 216.597 47.4093C211.165 45.7914 206.125 44.9583 201.487 44.9103C196.849 44.8702 192.524 45.463 188.52 46.7045C184.524 47.954 180.841 49.5719 177.479 51.5824L187.108 77.4456C188.689 82.2995 191.257 85.7517 194.811 87.8021C196.296 88.6592 197.973 88.8033 199.842 88.2427C201.72 87.682 204.015 87.1694 206.735 86.6968C209.447 86.2242 212.761 86.2883 216.669 86.897C220.569 87.5058 225.335 89.4281 230.968 92.672C234.82 94.8907 238.399 97.6781 241.705 101.026C245.011 104.382 247.851 108.091 250.226 112.152C252.593 116.212 254.447 120.498 255.779 125.015C257.119 129.533 257.777 134.154 257.777 138.888C257.777 146.249 256.614 151.92 254.295 155.916C251.976 159.905 249.079 163.037 245.628 165.312C242.17 167.595 238.463 169.405 234.515 170.742C230.559 172.08 226.98 173.762 223.779 175.796C220.569 177.823 218.001 180.618 216.075 184.175C214.15 187.731 213.484 192.769 214.077 199.289L216.597 232.882L241.64 247.315L245.043 220.482C245.54 216.566 247.041 213.65 249.56 211.752C252.08 209.854 255.065 208.156 258.531 206.666C261.982 205.176 265.665 203.574 269.565 201.884C273.464 200.186 277.043 197.583 280.309 194.075C283.567 190.566 286.279 185.785 288.454 179.745C290.628 173.706 291.711 165.68 291.711 155.692C291.711 145.704 290.331 135.38 287.571 125.504L287.563 125.472Z" fill="#FAFAFA"/>
<path d="M201.038 47.129H201.455C205.877 47.177 210.755 47.986 215.955 49.5399C221.203 51.1018 226.972 53.6889 233.111 57.2292C241.488 62.059 249.231 68.0823 256.116 75.1228C263.017 82.1874 269.011 90.1009 273.922 98.6473C278.841 107.194 282.708 116.421 285.412 126.08C288.108 135.724 289.473 145.68 289.473 155.676C289.473 165.672 288.421 173.209 286.343 178.976C284.281 184.711 281.697 189.277 278.664 192.545C275.623 195.813 272.261 198.264 268.658 199.826C264.758 201.524 261.083 203.118 257.633 204.607C254.03 206.161 250.852 207.955 248.204 209.958C245.203 212.225 243.39 215.661 242.82 220.186L239.835 243.695L218.723 231.528L216.292 199.073C215.738 193.033 216.324 188.372 218.033 185.216C219.766 182.012 222.101 179.473 224.974 177.663C228.007 175.748 231.458 174.122 235.237 172.841C239.37 171.439 243.277 169.525 246.856 167.162C250.587 164.703 253.741 161.291 256.228 157.03C258.772 152.657 260.008 146.721 260.008 138.888C260.008 133.954 259.302 129.068 257.913 124.39C256.533 119.721 254.599 115.227 252.152 111.038C249.705 106.841 246.72 102.956 243.293 99.4722C239.859 95.996 236.088 93.0565 232.084 90.7497C226.242 87.3856 221.179 85.3512 217.014 84.7024C214.711 84.342 212.569 84.1657 210.643 84.1657C209.102 84.1657 207.658 84.2779 206.358 84.5102C203.598 84.9907 201.19 85.5274 199.208 86.1201C198.679 86.2803 198.173 86.3604 197.716 86.3604C197.074 86.3604 196.488 86.2082 195.935 85.8878C192.845 84.1017 190.647 81.1221 189.234 76.7728L189.218 76.7247L189.202 76.6847L180.231 52.5916C182.984 51.1018 185.985 49.8443 189.186 48.843C192.813 47.7137 196.801 47.145 201.046 47.145M201.038 44.9023C196.56 44.9023 192.388 45.495 188.512 46.6964C184.516 47.946 180.833 49.5639 177.471 51.5743L187.1 77.4376C188.681 82.2915 191.248 85.7436 194.803 87.7941C195.702 88.3067 196.665 88.5711 197.7 88.5711C198.382 88.5711 199.096 88.4589 199.842 88.2347C201.72 87.674 204.015 87.1614 206.735 86.6888C207.923 86.4805 209.223 86.3764 210.643 86.3764C212.464 86.3764 214.47 86.5446 216.669 86.889C220.569 87.4978 225.335 89.4201 230.968 92.664C234.82 94.8827 238.399 97.6701 241.705 101.018C245.011 104.374 247.851 108.083 250.226 112.144C252.593 116.204 254.447 120.49 255.779 125.007C257.119 129.525 257.777 134.146 257.777 138.88C257.777 146.241 256.614 151.912 254.295 155.908C251.976 159.897 249.079 163.029 245.628 165.304C242.17 167.587 238.463 169.397 234.515 170.734C230.567 172.072 226.98 173.754 223.779 175.788C220.569 177.815 218.001 180.61 216.075 184.167C214.15 187.723 213.484 192.761 214.077 199.281L216.597 232.873L241.64 247.307L245.043 220.475C245.54 216.558 247.041 213.642 249.56 211.744C252.08 209.846 255.065 208.148 258.531 206.658C261.982 205.168 265.665 203.566 269.565 201.876C273.464 200.178 277.043 197.575 280.309 194.067C283.567 190.558 286.279 185.777 288.454 179.737C290.628 173.698 291.711 165.672 291.711 155.684C291.711 145.696 290.331 135.372 287.571 125.496C284.803 115.62 280.903 106.305 275.864 97.5579C270.832 88.8114 264.774 80.8097 257.721 73.593C250.66 66.3682 242.828 60.2809 234.234 55.3229C227.911 51.6785 222.037 49.0513 216.605 47.4333C211.173 45.8154 206.133 44.9824 201.495 44.9343C201.351 44.9343 201.198 44.9343 201.054 44.9343L201.038 44.9023Z" fill="#257367"/>
<path d="M163.71 136.509C163.212 136.229 162.49 136.445 161.695 136.845C162.097 136.453 162.378 136.108 162.386 135.86C162.418 135.123 161.952 134.723 160.492 135.38C159.031 136.036 155.396 137.863 152.508 137.847C151.986 137.847 150.943 137.975 150.518 137.622C150.349 137.486 150.301 137.318 150.325 137.15C150.389 136.725 150.911 136.253 151.168 136.012C151.513 135.692 151.842 135.348 152.147 134.979C152.484 134.571 152.805 134.13 152.957 133.625C153.11 133.121 153.094 132.536 152.789 132.096C152.628 131.863 152.363 131.671 152.115 131.863C151.096 132.616 150.052 133.337 149.033 134.09C148.062 134.803 147.027 135.5 146.201 136.373C145.246 137.374 144.476 138.776 143.087 140.169C141.707 141.563 140.223 142.805 136.788 145.079C134.887 146.337 130 149.517 130 149.517C130 149.517 123.107 138.551 120.411 134.298C116.11 127.49 113.895 125.84 109.514 125.472V143.982C109.514 143.982 116.102 153.393 119.585 157.863C123.821 163.293 126.212 164.479 127.906 164.447C133.218 164.271 137.711 157.887 145.984 148.716C146.658 147.971 148.263 146.537 150.783 146.545C151.77 146.545 152.877 146.473 153.527 146.441C154.313 146.401 155.733 146.121 156.488 145.92C158.093 145.488 158.109 145.608 160.436 144.046C160.725 143.854 161.888 142.981 161.816 142.636C161.76 142.348 161.527 142.204 161.238 142.18C160.821 142.148 160.492 142.364 159.657 142.572C160.556 142.084 161.848 141.339 162.554 140.274C162.658 140.113 162.771 139.857 162.771 139.665C162.771 139.481 162.69 138.968 162.41 138.856C162.41 138.856 162.875 138.383 163.284 137.983C163.621 137.654 164.319 136.853 163.702 136.501L163.71 136.509Z" fill="#FFA8A7"/>
<path d="M159.665 142.588C158.927 142.877 158.205 143.125 157.443 143.285C156.696 143.485 155.918 143.59 155.156 143.79C155.95 143.83 156.737 143.734 157.515 143.566C158.277 143.365 159.047 143.077 159.665 142.588Z" fill="#F28F8F"/>
<path d="M145.711 143.085C145.735 142.933 145.775 142.789 145.832 142.644C145.944 142.372 146.12 142.124 146.313 141.899C146.69 141.459 147.188 141.107 147.725 140.882C148.889 140.394 150.389 140.53 151.392 141.315C151.424 141.339 151.448 141.459 151.384 141.435C150.229 141.115 149.057 140.85 147.894 141.323C146.931 141.723 146.273 142.636 145.896 143.574C145.864 143.662 145.767 143.63 145.759 143.541C145.735 143.373 145.695 143.245 145.727 143.069L145.711 143.085Z" fill="#F28F8F"/>
<path d="M154.409 139.649C155.653 139.376 156.889 138.888 158.077 138.439C159.216 138.007 160.331 137.478 161.439 136.982C161.455 136.982 161.463 137.006 161.455 137.014C160.363 137.783 159.184 138.343 157.932 138.808C156.777 139.24 155.621 139.441 154.417 139.681C154.409 139.681 154.393 139.657 154.409 139.657V139.649Z" fill="#F28F8F"/>
<path d="M154.289 141.803C155.533 141.531 156.769 141.042 157.956 140.586C158.413 140.41 158.863 140.225 159.312 140.025C159.754 139.833 160.203 139.657 160.62 139.417C160.749 139.344 160.877 139.272 161.005 139.2C161.174 139.104 161.318 139 161.503 138.936C161.687 138.872 161.888 138.84 162.081 138.848C162.097 138.848 162.129 138.864 162.113 138.88C161.864 138.912 161.631 139 161.415 139.12C161.27 139.2 161.134 139.288 160.997 139.384C160.877 139.473 160.757 139.537 160.628 139.617C160.235 139.857 159.826 140.073 159.408 140.274C158.887 140.522 158.349 140.746 157.804 140.946C156.648 141.379 155.493 141.579 154.289 141.819C154.281 141.819 154.265 141.795 154.281 141.795L154.289 141.803Z" fill="#F28F8F"/>
<path d="M130 149.533C127.208 150.934 125.514 153.826 125.065 157.03C124.656 153.93 124.929 150.702 129.27 148.379L130 149.541V149.533Z" fill="#F28F8F"/>
<path d="M101.281 197.487C101.281 197.487 101.321 197.407 101.346 197.367L145.174 128.179C145.759 127.17 147.003 126.561 148.768 126.585C152.291 126.625 156.568 129.18 158.309 132.288C159.184 133.842 159.256 135.244 158.67 136.245L120.178 208.62C120.162 208.66 120.13 208.692 120.114 208.732C120.082 208.796 120.05 208.86 120.01 208.925C116.961 214.171 110.268 215.901 105.069 212.793C99.8691 209.686 98.1278 202.909 101.177 197.655C101.209 197.591 101.257 197.543 101.289 197.479L101.281 197.487Z" fill="#455A64"/>
<path d="M158.301 132.288C160.042 135.396 158.598 137.887 155.067 137.847C151.545 137.807 147.268 135.251 145.527 132.144C143.785 129.036 145.23 126.545 148.76 126.585C152.283 126.625 156.56 129.18 158.301 132.288Z" fill="#263238"/>
<path d="M115.653 202.637L151.705 137.142C152.837 137.574 153.984 137.823 155.076 137.847C156.833 137.863 158.069 137.27 158.654 136.269L120.17 208.628C120.17 208.628 120.122 208.7 120.106 208.74C120.074 208.804 120.042 208.868 120.002 208.933C116.953 214.179 110.26 215.909 105.061 212.801C108.423 213.794 112.138 209.093 115.653 202.645V202.637Z" fill="#37474F"/>
<path d="M162.73 106.905C164.865 106.929 167.441 108.475 168.5 110.357C169.029 111.295 169.07 112.144 168.717 112.752L155.99 134.651C155.637 135.26 154.883 135.628 153.816 135.612C151.681 135.588 149.105 134.042 148.046 132.16C147.517 131.223 147.476 130.374 147.83 129.765L160.556 107.866C160.909 107.258 161.663 106.889 162.73 106.897V106.905Z" fill="#E0E0E0"/>
<path opacity="0.25" d="M161.214 125.672L165.234 118.76C162.827 116.677 160.484 114.386 158.213 111.927L154.089 119.024C156.384 121.395 158.767 123.613 161.214 125.672Z" fill="black"/>
<path d="M126.405 44.7901C126.485 76.4444 148.849 114.891 176.348 130.646C184.348 135.227 191.89 137.39 198.575 137.374C203.389 137.358 207.754 136.221 211.518 134.042L227.526 124.759C236.521 119.552 242.058 108.419 242.018 92.5839C241.937 60.9216 219.574 22.4832 192.075 6.7201C178.321 -1.15341 165.884 -1.87429 156.905 3.33201L140.865 12.6393C131.894 17.8456 126.365 28.979 126.405 44.7981V44.7901ZM150.325 35.4909C150.309 27.9858 151.681 21.7863 154.249 17.1727C159.601 17.2448 165.78 19.1992 172.127 22.8436C184.243 29.788 195.734 41.8986 204.488 56.9328C213.235 71.967 218.073 87.9303 218.105 101.883C218.121 109.396 216.749 115.596 214.174 120.201C208.821 120.129 202.651 118.167 196.304 114.53C184.187 107.586 172.697 95.4754 163.942 80.4412C155.196 65.4071 150.357 49.4437 150.325 35.4909Z" fill="#257367"/>
<path opacity="0.1" d="M218.354 30.3807L195.453 43.6528C198.695 47.7457 201.728 52.1911 204.488 56.9328C205.026 57.8619 205.548 58.7911 206.061 59.7202L228.914 46.4722C225.825 40.8173 222.27 35.3948 218.354 30.3727V30.3807ZM183.008 30.605C185.375 32.6395 187.694 34.8581 189.932 37.245L212.93 23.9169C210.763 21.53 208.516 19.2713 206.206 17.1567L183.008 30.605Z" fill="white"/>
<path opacity="0.25" d="M211.59 133.994L227.542 124.751C236.537 119.544 242.074 108.411 242.034 92.5759C242.034 91.9672 242.01 91.3584 241.993 90.7497L225.993 100.033C226.009 100.65 226.017 101.258 226.025 101.859C226.065 117.646 220.545 128.764 211.606 133.994H211.59Z" fill="black"/>
<path d="M134.301 44.7741C134.333 58.7189 139.171 74.6902 147.918 89.7324C156.664 104.767 168.163 116.877 180.279 123.814C186.787 127.546 193.102 129.509 198.558 129.492C205.491 129.476 210.843 126.184 214.173 120.201C208.821 120.129 202.651 118.167 196.304 114.53C184.187 107.586 172.696 95.4754 163.942 80.4412C155.196 65.407 150.357 49.4437 150.325 35.4909C150.309 27.9858 151.681 21.7863 154.249 17.1727C154.112 17.1727 153.984 17.1727 153.856 17.1727C141.563 17.2048 134.261 27.5292 134.301 44.7741Z" fill="#257367"/>
<path opacity="0.25" d="M134.301 44.7741C134.333 58.7189 139.171 74.6902 147.918 89.7324C156.664 104.767 168.163 116.877 180.279 123.814C186.787 127.546 193.102 129.509 198.558 129.492C205.491 129.476 210.843 126.184 214.173 120.201C208.821 120.129 202.651 118.167 196.304 114.53C184.187 107.586 172.696 95.4754 163.942 80.4412C155.196 65.407 150.357 49.4437 150.325 35.4909C150.309 27.9858 151.681 21.7863 154.249 17.1727C154.112 17.1727 153.984 17.1727 153.856 17.1727C141.563 17.2048 134.261 27.5292 134.301 44.7741Z" fill="black"/>
<path opacity="0.3" d="M141.755 40.4729C141.787 54.4177 146.626 70.389 155.372 85.4312C164.119 100.465 175.609 112.576 187.734 119.512C194.241 123.245 200.557 125.207 206.013 125.191C207.754 125.191 209.375 124.975 210.908 124.575C212.143 123.333 213.235 121.875 214.166 120.209C216.741 115.604 218.121 109.404 218.097 101.891C218.065 87.9463 213.227 71.983 204.48 56.9408C195.734 41.9066 184.243 29.796 172.119 22.8516C165.764 19.2072 159.593 17.2528 154.241 17.1807C154.104 17.1807 153.976 17.1807 153.848 17.1807C152.098 17.1807 150.462 17.397 148.929 17.8135C144.283 22.4671 141.723 30.2605 141.747 40.4809L141.755 40.4729Z" fill="white"/>
<path d="M126.405 44.7901C126.485 76.4444 148.849 114.891 176.348 130.646C203.854 146.409 226.089 133.521 226.009 101.859C225.929 70.1969 203.566 31.7584 176.067 16.0033C148.56 0.240289 126.325 13.1279 126.405 44.7901ZM147.926 89.7245C139.18 74.6903 134.341 58.719 134.309 44.7661C134.269 27.5133 141.571 17.1888 153.864 17.1647C153.992 17.1647 154.129 17.1647 154.257 17.1647C159.609 17.2368 165.788 19.1912 172.135 22.8356C184.251 29.78 195.742 41.8906 204.496 56.9248C213.243 71.959 218.081 87.9223 218.113 101.875C218.13 109.388 216.757 115.588 214.182 120.193C210.844 126.169 205.499 129.461 198.567 129.485C193.118 129.501 186.803 127.538 180.287 123.806C168.171 116.869 156.68 104.759 147.926 89.7245Z" fill="#257367"/>
<g opacity="0.3">
<path d="M126.405 44.7901C126.485 76.4444 148.849 114.891 176.348 130.646C203.854 146.409 226.089 133.521 226.009 101.859C225.929 70.1969 203.566 31.7584 176.067 16.0033C148.56 0.240289 126.325 13.1279 126.405 44.7901ZM147.926 89.7245C139.18 74.6903 134.341 58.719 134.309 44.7661C134.269 27.5133 141.571 17.1888 153.864 17.1647C153.992 17.1647 154.129 17.1647 154.257 17.1647C159.609 17.2368 165.788 19.1912 172.135 22.8356C184.251 29.78 195.742 41.8906 204.496 56.9248C213.243 71.959 218.081 87.9223 218.113 101.875C218.13 109.388 216.757 115.588 214.182 120.193C210.844 126.169 205.499 129.461 198.567 129.485C193.118 129.501 186.803 127.538 180.287 123.806C168.171 116.869 156.68 104.759 147.926 89.7245Z" fill="white"/>
</g>
<g opacity="0.3">
<path d="M213.837 57.5175C218.386 66.4483 221.933 75.9077 224.003 85.6956C225.006 90.5975 225.664 95.5715 225.729 100.57C225.833 105.56 225.367 110.574 224.132 115.403C222.872 120.201 220.834 124.879 217.568 128.66C214.35 132.448 209.945 135.211 205.098 136.389C200.252 137.606 195.116 137.366 190.27 136.197C185.383 135.099 180.737 133.065 176.348 130.654C180.697 133.153 185.303 135.276 190.205 136.477C195.084 137.686 200.268 137.967 205.203 136.765C210.129 135.604 214.655 132.825 217.953 128.98C221.299 125.151 223.41 120.41 224.709 115.548C225.921 110.646 226.362 105.584 226.226 100.562C226.122 95.5315 225.424 90.5334 224.388 85.6155C223.329 80.7055 221.869 75.8837 220.112 71.182C218.306 66.4964 216.196 61.9309 213.829 57.5175H213.837Z" fill="white"/>
</g>
<g opacity="0.3">
<path d="M153.856 17.1647C151.376 17.1647 148.873 17.5572 146.562 18.5184C144.251 19.4715 142.18 20.9854 140.503 22.8516C138.81 24.7179 137.583 26.9366 136.604 29.2353C135.609 31.5341 135.007 33.9851 134.549 36.436C133.739 41.37 133.675 46.4001 134.164 51.3661C134.622 56.3321 135.625 61.242 136.981 66.0398C138.321 70.8456 140.078 75.5233 142.148 80.0648C144.219 84.5983 146.562 89.0116 149.202 93.2407C154.474 101.699 160.805 109.556 168.331 116.172C172.111 119.448 176.195 122.412 180.592 124.847C184.99 127.258 189.74 129.188 194.787 129.925C197.299 130.294 199.898 130.302 202.434 129.821C204.962 129.308 207.409 128.283 209.463 126.713C210.498 125.944 211.445 125.055 212.28 124.078C213.114 123.101 213.869 122.06 214.494 120.946C215.778 118.736 216.677 116.349 217.303 113.906C218.555 109.012 218.787 103.958 218.523 98.9756C218.218 93.9936 217.423 89.0516 216.172 84.2378C214.92 79.424 213.275 74.7143 211.301 70.1568C209.335 65.5993 207.048 61.178 204.488 56.9328C209.279 65.5993 213.178 74.7944 215.417 84.4221C216.581 89.2118 217.303 94.1138 217.528 99.0237C217.72 103.926 217.407 108.884 216.131 113.593C215.497 115.94 214.591 118.215 213.355 120.281C212.135 122.348 210.571 124.222 208.653 125.624C206.751 127.058 204.512 127.987 202.169 128.451C199.818 128.884 197.387 128.876 194.996 128.507C190.197 127.794 185.599 125.912 181.33 123.533C177.054 121.138 173.074 118.215 169.374 114.995C161.96 108.539 155.669 100.818 150.421 92.4878C145.19 84.1417 140.985 75.1308 138.144 65.7034C136.74 60.9857 135.681 56.1559 135.159 51.262C134.598 46.3761 134.606 41.4181 135.32 36.5562C135.705 34.1373 136.243 31.7264 137.157 29.4516C138.056 27.1769 139.212 24.9742 140.816 23.1159C142.413 21.2577 144.403 19.7278 146.65 18.7266C148.897 17.7094 151.368 17.2288 153.848 17.1567L153.856 17.1647Z" fill="white"/>
</g>
<path d="M105.237 281.676L104.098 270.263L118.269 268.901C118.269 268.901 117.627 277.896 117.667 282.029C117.691 283.975 119.031 287.652 119.031 287.652C119.031 287.652 113.422 290.487 110.541 289.286C107.653 288.076 105.783 283.503 105.855 282.67L105.229 281.676H105.237Z" fill="#FFA8A7"/>
<path d="M135.12 301.621C135.32 301.629 135.392 303.455 134.269 304.296C132.969 305.273 128.901 307.083 124.15 306.21C119.392 305.337 116.889 303.735 115.059 302.053C113.238 300.371 110.678 297.992 108.535 297.407C106.545 296.863 103.913 295.101 103.304 294.46C102.694 293.811 102.943 291.096 102.943 291.096L135.112 301.621H135.12Z" fill="#263238"/>
<path d="M105.133 280.587C105.133 280.587 104.868 280.707 104.708 281.332C104.515 282.077 104.226 284.24 103.841 285.457C103.304 287.139 102.798 290.631 102.983 292.033C103.167 293.443 106.89 295.325 108.945 296.23C111.039 297.151 113.422 298.945 115.492 300.828C117.635 302.774 122.265 304.937 125.386 305.089C129.085 305.265 133.314 304.32 134.365 302.694C135.665 300.675 136.668 298.305 131.34 295.501C130.329 294.973 126.814 292.65 125.619 291.817C122.385 289.55 120.13 287.516 118.798 283.751C118.646 283.31 118.485 282.822 118.076 282.582C117.763 282.397 117.378 282.397 117.017 282.429C116.094 282.501 112.427 282.798 111.568 283.142C110.814 283.447 109.747 283.791 109.707 284.712C109.691 285.033 109.771 285.353 109.859 285.665C109.916 285.858 109.948 286.114 109.779 286.218C109.611 286.314 109.41 286.186 109.274 286.05C108.728 285.513 108.351 284.84 107.901 284.224C107.661 283.895 106.898 282.838 106.585 282.574C106.305 282.333 105.927 282.197 105.679 281.925C105.366 281.58 105.133 281.036 105.141 280.603L105.133 280.587Z" fill="#455A64"/>
<path d="M115.492 300.82C114.586 299.995 113.615 299.186 112.636 298.465C112.636 298.465 118.854 302.67 121.559 301.068C123.3 300.035 122.586 298.625 122.57 298.184C122.554 297.744 128.66 294.989 130.297 294.892C130.738 295.165 131.099 295.397 131.34 295.509C135.521 297.424 135.962 299.626 135.087 302.309C134.036 303.943 130.225 305.473 125.45 305.209C122.329 305.033 117.643 302.782 115.5 300.828L115.492 300.82Z" fill="#37474F"/>
<path d="M122.193 296.879C125.523 298.409 124.03 298.953 123.067 299.033C122.104 299.114 116.568 295.501 113.23 292.594C109.747 289.558 107.131 285.593 105.839 284.472C105.358 284.055 104.844 283.551 104.387 283.078C104.523 282.349 104.636 281.676 104.724 281.332C104.884 280.707 105.149 280.587 105.149 280.587C105.149 280.587 105.374 281.564 105.687 281.909C105.936 282.181 106.305 282.317 106.594 282.558C106.907 282.822 107.669 283.879 107.91 284.208C108.359 284.824 108.736 285.497 109.282 286.034C112.042 289.91 118.871 295.349 122.201 296.879H122.193Z" fill="#37474F"/>
<path d="M122.851 298.529C122.778 298.529 122.698 298.497 122.642 298.441C122.505 298.321 122.497 298.104 122.618 297.968C123.645 296.863 128.363 294.372 130.859 294.78C131.043 294.812 131.164 294.981 131.14 295.165C131.107 295.341 130.955 295.461 130.754 295.437C128.427 295.061 123.942 297.544 123.123 298.417C123.051 298.497 122.955 298.529 122.859 298.521L122.851 298.529Z" fill="#263238"/>
<path d="M119.986 296.566C119.914 296.566 119.833 296.534 119.777 296.478C119.641 296.358 119.633 296.142 119.753 296.006C120.78 294.9 125.498 292.409 127.994 292.818C128.178 292.85 128.299 293.018 128.275 293.202C128.243 293.387 128.074 293.507 127.89 293.475C125.563 293.098 121.077 295.581 120.259 296.454C120.186 296.534 120.09 296.566 119.994 296.558L119.986 296.566Z" fill="#263238"/>
<path d="M117.113 294.7C117.041 294.7 116.961 294.668 116.905 294.612C116.768 294.492 116.76 294.276 116.881 294.14C117.908 293.034 122.626 290.543 125.121 290.952C125.306 290.984 125.426 291.152 125.402 291.336C125.37 291.512 125.202 291.641 125.017 291.608C122.69 291.232 118.205 293.715 117.386 294.588C117.314 294.668 117.218 294.7 117.121 294.692L117.113 294.7Z" fill="#263238"/>
<path d="M114.473 292.602C114.401 292.602 114.321 292.57 114.264 292.514C114.128 292.393 114.12 292.177 114.24 292.049C115.267 290.944 119.994 288.453 122.481 288.861C122.666 288.893 122.786 289.061 122.762 289.246C122.73 289.43 122.561 289.55 122.377 289.518C120.05 289.141 115.564 291.624 114.746 292.498C114.674 292.578 114.577 292.61 114.481 292.602H114.473Z" fill="#263238"/>
<path d="M111.889 290.503C111.817 290.503 111.745 290.471 111.681 290.423C111.544 290.303 111.528 290.095 111.657 289.958C113.077 288.389 117.98 286.362 120.475 286.771C120.66 286.803 120.78 286.971 120.756 287.155C120.724 287.339 120.556 287.451 120.371 287.427C118.132 287.059 113.43 289.013 112.17 290.399C112.098 290.479 112.002 290.519 111.897 290.511L111.889 290.503Z" fill="#263238"/>
<path d="M80.9722 288.068L84.0053 274.003L70.1235 272.025L70.0432 285.874C70.0432 285.874 69.0242 289.614 69.8186 290.88C70.613 292.153 78.9581 293.387 79.7124 292.53C80.4667 291.665 80.9882 288.068 80.9882 288.068H80.9722Z" fill="#FFA8A7"/>
<path d="M79.8087 310.191C79.4717 313.339 78.8378 315.389 77.4897 317.103C76.1417 318.825 73.7184 319.146 71.3031 318.337C68.8878 317.528 65.8306 315.726 65.2368 312.914C64.643 310.103 64.8597 308.237 65.5257 305.353L79.8087 310.183V310.191Z" fill="#263238"/>
<path d="M70.0272 285.874C69.0241 285.834 69.321 288.308 68.8877 292.554C68.4223 297.151 66.3842 300.772 65.6861 304.464C64.8837 308.677 65.0682 310.623 66.665 313.395C68.2619 316.174 74.1757 319.37 77.2891 315.982C79.8247 313.219 80.0574 309.879 80.0012 305.577C79.9451 301.132 79.8648 298 80.2018 294.668C80.5228 291.48 81.8308 288.525 80.9722 288.076C80.8839 288.541 80.0654 291.777 79.5037 291.729C79.4716 291.312 79.4957 290.936 79.5439 290.519C79.584 290.159 79.5679 289.758 79.3112 289.454C79.0544 289.15 78.0915 288.773 77.6903 288.653C76.7113 288.373 74.962 288.028 73.959 287.844C73.4615 287.748 72.964 287.676 72.4585 287.628C72.0493 287.588 71.5678 287.564 71.1827 287.652C70.9419 287.7 70.7173 287.828 70.621 288.028C70.5487 288.172 70.5568 288.349 70.5487 288.509C70.5407 288.805 70.4846 289.093 70.3883 289.374C70.3481 289.494 70.2438 289.638 70.0994 289.59C69.9871 289.55 69.9389 289.422 69.9469 289.31C69.963 288.789 70.0111 286.146 70.0432 285.874H70.0272Z" fill="#455A64"/>
<path d="M65.9589 303.271C65.8385 303.879 65.0842 307.908 66.32 308.781C67.652 309.726 68.5266 306.595 68.5266 306.595C68.5266 306.595 71.7604 306.082 76.3502 308.389C76.0854 309.03 76.7193 311.296 78.0112 310.968C79.3031 310.648 79.9852 306.01 79.9932 305.946C80.0253 310.071 79.7364 313.299 77.281 315.982C74.1756 319.37 68.2538 316.174 66.657 313.395C65.0602 310.615 64.8756 308.677 65.678 304.464C65.7583 304.04 65.8546 303.647 65.9509 303.271H65.9589Z" fill="#37474F"/>
<path d="M68.8798 306.907C68.7995 308.453 67.0904 307.74 67.0984 305.545C67.1064 303.351 68.2058 298.008 68.607 294.412C68.8477 289.246 69.0162 285.833 70.0272 285.874C70.0272 285.93 70.0272 285.978 70.0192 286.034C70.0192 286.034 69.947 288.973 69.931 289.31C69.7785 292.466 69.8026 298.593 69.3853 301.452C68.9681 304.304 68.96 305.369 68.8798 306.915V306.907Z" fill="#37474F"/>
<path d="M75.8126 308.285C76.1978 306.803 76.5188 305.802 76.9842 302.958C77.4416 300.131 79.0785 294.468 79.8809 291.424C80.1457 290.92 80.9722 288.076 80.9722 288.076C81.6703 288.26 81.0043 290.976 80.6913 292.249C80.3784 293.523 79.9932 294.876 79.6081 296.703C78.6051 300.291 78.5569 305.666 77.907 307.732C77.257 309.798 75.4275 309.774 75.8207 308.293L75.8126 308.285Z" fill="#37474F"/>
<path d="M76.4466 308.525C76.3984 308.517 76.3583 308.501 76.3102 308.477C76.2781 308.453 72.6993 306.41 68.6069 306.923C68.4063 306.947 68.2057 306.819 68.1576 306.643C68.1094 306.458 68.2378 306.298 68.4384 306.266C72.8116 305.722 76.5188 307.836 76.6713 307.932C76.8478 308.036 76.912 308.245 76.8077 308.389C76.7274 308.501 76.583 308.549 76.4305 308.525H76.4466Z" fill="#263238"/>
<path d="M77.4174 305.249C77.3773 305.241 77.3372 305.225 77.297 305.209C77.2569 305.185 73.2288 303.046 68.671 303.471C68.4704 303.487 68.2778 303.359 68.2377 303.174C68.1976 302.99 68.334 302.83 68.5346 302.814C73.3491 302.366 77.4736 304.56 77.6421 304.648C77.8266 304.744 77.8988 304.953 77.8026 305.105C77.7303 305.225 77.5699 305.281 77.4254 305.249H77.4174Z" fill="#263238"/>
<path d="M69.0403 300.307C68.9039 300.283 68.7755 300.179 68.7354 300.051C68.6793 299.874 68.7916 299.698 68.9842 299.658C73.5339 298.801 77.899 301.308 78.0836 301.42C78.2601 301.524 78.3243 301.733 78.22 301.877C78.1157 302.029 77.891 302.061 77.7145 301.957C77.6744 301.933 73.4296 299.506 69.2008 300.307C69.1447 300.315 69.0965 300.315 69.0403 300.307Z" fill="#263238"/>
<path d="M69.4095 297.327C69.2731 297.303 69.1527 297.207 69.1046 297.079C69.0404 296.903 69.1527 296.719 69.3453 296.687C74.3524 295.661 78.4608 298.329 78.6293 298.441C78.7978 298.553 78.8459 298.761 78.7336 298.905C78.6212 299.049 78.3885 299.074 78.22 298.961C78.1799 298.937 74.232 296.382 69.57 297.335C69.5138 297.343 69.4576 297.343 69.4095 297.335V297.327Z" fill="#263238"/>
<path d="M69.8507 293.979C69.7143 293.955 69.5939 293.859 69.5458 293.731C69.4816 293.555 69.5859 293.371 69.7785 293.331C74.4726 292.305 78.9421 295.061 79.1267 295.181C79.3032 295.293 79.3514 295.501 79.247 295.645C79.1427 295.79 78.91 295.822 78.7335 295.709C78.6934 295.685 74.3764 293.018 70.0192 293.971C69.9631 293.987 69.9069 293.987 69.8507 293.971V293.979Z" fill="#263238"/>
<path d="M76.1015 164.102C74.288 172.625 73.1325 177.711 72.6912 199.657C72.2739 220.338 71.8486 226.994 71.7684 229.606C71.6801 232.209 69.5296 238.032 69.0883 250.687C68.639 263.583 70.0271 277.391 70.0271 277.391C70.0271 277.391 71.4795 279.594 76.3903 280.034C80.924 280.443 83.6843 278.441 83.6843 278.441C83.6843 278.441 89.7586 253.955 91.4758 246.218C93.193 238.488 97.831 212.857 97.831 212.857L99.6524 233.474C99.6524 233.474 98.3927 240.627 99.9975 252.273C101.546 263.511 104.371 274.46 104.371 274.46C104.371 274.46 106.288 276.038 111.584 275.741C115.46 275.517 118.485 274.34 118.485 274.34C118.485 274.34 120.355 240.899 120.748 228.148C121.173 214.187 120.275 183.446 118.389 164.11H76.1015V164.102Z" fill="#37474F"/>
<path d="M101.883 188.324L97.8311 212.857L99.6525 233.474L99.5322 212.577L103.151 192.449C106.232 191.712 113.246 188.019 115.171 182.757C110.421 187.715 101.875 188.324 101.875 188.324H101.883ZM87.4798 173.978C88.0255 171.92 88.5952 169.869 89.2452 167.803C88.0817 169.637 87.2151 171.631 86.4688 173.658C85.7226 175.684 85.1288 177.767 84.6232 179.865C84.1338 181.964 83.7326 184.086 83.4517 186.225C83.1709 188.364 82.9783 190.518 83.0264 192.681C83.54 190.582 84.0214 188.5 84.5029 186.417C84.9923 184.335 85.4497 182.252 85.9553 180.178C86.4367 178.103 86.9583 176.037 87.4879 173.97L87.4798 173.978ZM84.3825 172.432C85.0806 171.175 85.7787 169.909 86.4207 168.588C85.3294 169.581 84.3745 170.694 83.4998 171.864C82.6172 173.033 81.8388 174.275 81.1247 175.548C80.4346 176.838 79.8087 178.167 79.3192 179.553C78.8298 180.939 78.4526 182.372 78.3323 183.838L80.2982 179.978C80.9642 178.712 81.6222 177.446 82.3203 176.197C82.9943 174.939 83.7005 173.698 84.3905 172.432H84.3825ZM81.8228 254.355C80.6272 261.003 79.5118 267.66 78.4928 274.332C80.0414 267.756 81.4938 261.164 82.8659 254.556C84.2541 247.948 85.5701 241.348 86.87 234.7C88.0817 228.036 88.9082 221.315 89.5581 214.595C90.2241 207.875 90.7136 201.139 91.1228 194.395C90.192 201.083 89.3495 207.779 88.5069 214.475C87.6403 221.163 86.7657 227.843 85.53 234.451C84.2621 241.051 83.0024 247.707 81.8228 254.347V254.355ZM114.642 220.683C114.738 223.782 114.915 226.426 114.874 229.461C114.834 232.497 114.658 235.124 114.537 238.32C114.449 240.715 114.321 244.648 114.289 246.979C114.208 253.194 114.305 258.729 114.289 264.776C114.786 258.889 115.091 253.01 115.34 247.131C115.589 241.252 116.142 235.364 116.198 229.485C116.255 223.606 115.709 217.751 115.42 211.896C115.131 206.041 114.602 200.21 113.928 194.435C114.136 199.97 114.257 206.546 114.369 211.808C114.449 215.316 114.545 217.591 114.642 220.691V220.683Z" fill="#263238"/>
<path d="M73.245 176.694C74.3523 168.187 75.235 161.091 74.906 157.879C74.2079 151.119 73.8147 149.893 73.245 146.097C72.0092 137.839 75.7967 128.539 77.7225 126.913C77.7225 126.913 87.7206 124.719 89.6705 124.398C95.2633 123.469 98.128 123.806 99.9495 123.99C100.848 124.078 109.514 125.488 109.514 125.488C109.514 125.488 112.058 128.291 114.088 131.511C116.375 135.147 118.1 137.815 118.582 146.289C119.151 156.269 119.296 169.589 119.737 175.821C111.849 185.208 83.1388 184.863 73.2369 176.702L73.245 176.694Z" fill="#F5F5F5"/>
<path d="M108.222 106.777C108.391 106.537 108.744 105.832 109.089 105.672C113.245 101.467 111.865 96.7249 110.357 93.8254C106.986 87.3616 99.4036 85.9759 94.8058 86.2242C87.6723 86.6167 82.9781 89.2278 79.9049 92.9844C76.639 96.9652 76.2859 102.548 76.6952 108.691C77.0242 113.681 77.1285 119.344 77.5457 124.943C79.1987 124.943 80.0573 124.847 81.8467 124.727C81.7103 123.165 81.5418 119.857 81.5418 119.857C81.5418 119.857 82.2319 123.902 82.3923 124.671C89.1808 124.246 94.4848 123.702 99.7968 122.86C99.8209 121.875 99.7808 120.169 99.8129 119.184C100.038 120.169 100.479 123.109 100.479 123.109C100.479 123.109 107.396 122.132 109.715 121.154C109.089 118.287 108.567 113.898 108.479 113.233C108.254 111.591 108.078 110.253 107.965 109.028C107.885 108.139 107.813 107.362 108.23 106.777H108.222Z" fill="#37474F"/>
<path d="M86.1797 115.58C84.7113 116.212 83.0904 115.564 82.0071 114.37C79.8968 112.047 79.6801 109.596 80.5066 107.938C81.1887 106.569 83.1546 105.696 84.6311 106.433C85.7946 107.009 86.0112 107.666 86.4285 108.779C86.613 109.284 86.9902 109.564 87.5438 109.356C88.1376 109.132 88.3302 108.483 88.4345 107.922C88.579 107.129 88.5709 106.897 88.5549 106.096C88.5549 105.936 88.5709 105.72 88.6351 105.576C88.7154 105.391 89.0042 105.343 89.1727 105.239C90.4566 104.414 90.7535 103.837 91.3393 102.428C91.3553 103.389 91.2029 104.35 90.8899 105.263C92.8879 104.695 94.6693 103.493 96.1137 102.003C97.558 100.513 98.6734 98.7273 99.5881 96.8691C100.15 95.7317 100.639 94.5302 100.744 93.2727C104.026 94.6344 107.163 97.4297 107.532 101.122C107.628 102.051 107.989 103.053 108.262 104.222C110.22 112.72 108.784 116.22 106.874 118.359C105.767 119.601 104.017 120.538 101.153 120.946L101.105 124.727C101.105 124.727 103.817 130.886 104.451 137.454C104.451 137.454 102.429 135.476 94.4527 130.237C89.1406 126.753 86.4445 125.6 86.4445 125.6L87.608 113.697C87.608 113.697 87.4796 115.043 86.1958 115.596L86.1797 115.58Z" fill="#FFA8A7"/>
<path d="M99.9492 113.441C99.9492 113.938 99.548 114.346 99.0425 114.346C98.5369 114.346 98.1357 113.946 98.1357 113.441C98.1357 112.936 98.5369 112.536 99.0425 112.536C99.548 112.536 99.9492 112.936 99.9492 113.441Z" fill="#B16668"/>
<path d="M106.208 100.922L103.223 100.345C103.352 99.5122 104.122 98.9596 104.948 99.1197C105.775 99.2799 106.337 100.081 106.208 100.922Z" fill="#263238"/>
<path d="M95.9452 101.026L93.249 102.852C92.7114 102.123 92.8799 101.122 93.6182 100.618C94.3644 100.113 95.3995 100.297 95.9372 101.026H95.9452Z" fill="#263238"/>
<path d="M94.6775 105.199C94.7738 105.88 95.3997 106.353 96.0737 106.256C96.7557 106.16 97.2292 105.536 97.1329 104.863C97.0366 104.182 96.4107 103.709 95.7367 103.805C95.0546 103.902 94.5812 104.526 94.6775 105.199Z" fill="#263238"/>
<path d="M103.568 103.958C103.665 104.638 104.291 105.111 104.965 105.015C105.647 104.919 106.12 104.294 106.024 103.621C105.927 102.94 105.302 102.468 104.628 102.564C103.945 102.66 103.472 103.285 103.568 103.958Z" fill="#263238"/>
<path d="M99.4358 102.852L100.8 110.341L104.796 108.499L99.4358 102.852Z" fill="#F28F8F"/>
<path d="M101.145 120.93C98.9623 121.066 96.4427 121.09 93.6824 120.121C91.4918 119.352 89.6142 116.733 88.8037 114.963C88.9642 116.821 89.7827 119.464 92.5109 121.002C96.4187 123.205 101.145 122.636 101.145 122.636V120.922V120.93Z" fill="#F28F8F"/>
<path d="M77.7224 126.913C72.3863 127.802 70.5889 129.452 68.3822 135.219C66.2478 140.794 61.3209 153.345 62.7813 161.772C63.672 166.914 76.6712 154.002 76.6712 154.002L80.9882 140.538C80.9882 140.538 81.582 128.94 77.7304 126.913H77.7224Z" fill="#FFA8A7"/>
<path d="M81.3333 130.942C82.6332 134.683 82.89 139.681 82.89 139.681L76.6713 153.994C76.6713 153.994 74.8016 155.852 72.4345 157.879L63.5999 153.313C63.7202 151.127 68.7594 144.743 71.8728 141.483C74.1838 139.064 78.9261 133.497 81.3333 130.942Z" fill="#F28F8F"/>
<path d="M79.2068 133.978C80.3462 132.368 81.5338 130.71 82.1356 128.307C82.7374 125.904 84.6392 123.693 85.2811 122.78C85.9311 121.867 87.3273 120.53 88.3865 119.248C89.4537 117.967 89.7666 117.614 91.2992 117.358C93.4016 117.005 95.0546 116.669 95.8811 116.925C96.7075 117.174 96.6835 117.718 95.9693 118.439C95.2712 119.144 93.7466 119.344 93.2812 119.488C92.8078 119.633 91.7887 120.073 91.7887 120.073L89.8388 122.941C89.8388 122.941 93.1448 123.549 93.7867 123.902C94.4367 124.254 94.9904 125.928 94.7015 126.849C94.7015 126.849 95.9132 127.666 95.4397 128.86C95.4397 128.86 96.1779 129.821 95.6724 130.614C95.1669 131.407 94.1077 132.448 93.7065 132.792C93.3053 133.137 91.7085 133.225 91.7085 133.225C91.7085 133.225 90.3524 135.275 89.221 136.108C88.0896 136.949 87.3433 136.893 86.0996 138.648L79.2148 133.986L79.2068 133.978Z" fill="#FFA8A7"/>
<path d="M91.3152 123.229C92.0935 122.893 92.2701 122.364 93.0083 122.644C93.7465 122.925 93.4657 123.766 93.4657 123.766L91.3152 123.229Z" fill="#F28F8F"/>
<path d="M94.6694 126.913C94.6694 126.913 94.0595 126.361 93.0645 125.88C92.5269 125.616 91.3955 125.223 91.3955 125.223C91.3955 125.223 92.7115 125.327 93.6904 125.768C94.6293 126.193 94.7576 126.305 94.7737 126.305C94.7737 126.497 94.7496 126.681 94.7015 126.841L94.6774 126.913H94.6694Z" fill="#F28F8F"/>
<path d="M94.7818 128.027C95.0947 128.155 95.3515 128.299 95.5441 128.411C95.536 128.555 95.4799 128.788 95.4157 128.94C94.9824 128.323 93.3374 127.65 93.3374 127.65C93.3374 127.65 94.1238 127.754 94.7818 128.027Z" fill="#F28F8F"/>
<path d="M91.4035 133.642C91.7486 132.945 92.5349 131.591 93.0164 131.046C93.4978 130.502 94.4206 130.582 94.6293 130.894C94.8379 131.207 93.7626 131.167 93.4497 131.303C93.1368 131.439 91.9492 132.768 91.3955 133.633L91.4035 133.642Z" fill="#F28F8F"/>
<path d="M88.9241 122.844C88.9241 122.844 89.5259 121.995 90.6092 120.634C91.6924 119.28 91.6282 119.472 92.6794 119.264C93.6583 119.072 95.7206 118.703 96.2662 118.079C96.186 118.191 96.0897 118.303 95.9693 118.431C95.2712 119.136 93.7466 119.336 93.2812 119.48C92.8078 119.625 91.7887 120.065 91.7887 120.065L89.7827 123.013L88.9321 122.844H88.9241Z" fill="#F28F8F"/>
<path d="M79.2068 133.978C75.6761 138.231 66.1594 148.459 63.9528 152.528C62.4282 155.34 62.051 161.884 63.5997 164.263C65.1484 166.641 69.5938 165.64 73.1886 162.492C76.294 159.769 78.8778 153.225 81.1326 148.564C83.3874 143.902 86.0835 138.648 86.0835 138.648L79.1987 133.986L79.2068 133.978Z" fill="#FFA8A7"/>
<path d="M79.2068 133.978C79.9932 132.889 80.7795 131.783 81.3492 130.566C81.6381 129.957 81.8869 129.324 82.0714 128.676C82.2399 128.019 82.4405 127.386 82.7374 126.785C83.2991 125.568 84.0775 124.462 84.8959 123.397C85.6582 122.284 86.6051 121.339 87.5198 120.345C87.9772 119.857 88.4186 119.336 88.8438 118.824C89.2771 118.311 89.7586 117.838 90.4005 117.654C91.0264 117.454 91.7085 117.39 92.3665 117.262C93.0325 117.15 93.6904 117.037 94.3565 116.973C95.0064 116.925 95.7366 116.845 96.2421 117.214C96.4909 117.398 96.3946 117.734 96.21 117.991C96.0175 118.255 95.7928 118.495 95.52 118.655C94.9583 118.992 94.3003 119.144 93.6503 119.288C92.9683 119.424 92.3584 119.729 91.7406 119.985H91.7165L91.7004 120.025L89.7586 122.893L89.6784 123.013L89.8148 123.037C91.0104 123.269 92.214 123.493 93.3695 123.838C93.9873 123.95 94.2682 124.535 94.4768 125.087C94.6694 125.648 94.7737 126.265 94.6293 126.833L94.6132 126.889L94.6614 126.921C94.9583 127.138 95.215 127.434 95.3595 127.77C95.4397 127.939 95.4718 128.123 95.4718 128.307C95.4798 128.491 95.4317 128.667 95.3675 128.844L95.3515 128.884L95.3755 128.916C95.6885 129.356 95.9051 129.957 95.6804 130.462C95.4076 130.942 95.0144 131.383 94.6373 131.799C94.4447 132.008 94.2441 132.216 94.0355 132.416C93.8188 132.608 93.6423 132.841 93.3775 132.913C92.8479 133.089 92.2621 133.145 91.7004 133.193H91.6764L91.6603 133.217C91.2912 133.762 90.9061 134.29 90.4888 134.795C90.0715 135.3 89.6302 135.796 89.1006 136.173C88.571 136.565 87.9612 136.821 87.4316 137.222C86.902 137.614 86.4767 138.127 86.0996 138.664C86.4847 138.135 86.918 137.622 87.4476 137.238C87.9772 136.853 88.5951 136.597 89.1327 136.213C89.6784 135.828 90.1277 135.34 90.553 134.843C90.9702 134.346 91.3634 133.826 91.7325 133.289C92.3023 133.249 92.864 133.193 93.4176 133.017C93.7145 132.929 93.9151 132.68 94.1238 132.496C94.3324 132.296 94.533 132.088 94.7336 131.879C95.1188 131.455 95.5119 131.03 95.8088 130.51C96.0576 129.941 95.8329 129.324 95.52 128.86C95.5761 128.684 95.6323 128.499 95.6243 128.307C95.6243 128.107 95.5842 127.899 95.5039 127.714C95.3515 127.362 95.0947 127.066 94.7898 126.833C94.9342 126.225 94.8219 125.608 94.6373 125.039C94.533 124.743 94.4046 124.462 94.22 124.206C94.1238 124.086 94.0194 123.958 93.875 123.87C93.7306 123.782 93.5861 123.734 93.4337 123.685C92.3023 123.341 91.1548 123.117 89.9993 122.893L91.8529 120.177C92.4627 119.929 93.0726 119.641 93.7065 119.512C94.3645 119.36 95.0385 119.208 95.6403 118.848C95.9452 118.663 96.186 118.407 96.3866 118.119C96.4829 117.975 96.5792 117.814 96.5952 117.614C96.6273 117.422 96.531 117.198 96.3786 117.085C96.0817 116.853 95.7206 116.789 95.3755 116.765C95.0305 116.749 94.6935 116.773 94.3565 116.805C93.6824 116.877 93.0164 116.997 92.3504 117.11C91.6924 117.238 91.0184 117.302 90.3604 117.518C89.6864 117.718 89.1648 118.231 88.7395 118.744C88.3062 119.264 87.8809 119.777 87.4236 120.265C86.5248 121.259 85.5619 122.228 84.8077 123.341C83.9972 124.414 83.2189 125.528 82.6572 126.761C82.3683 127.37 82.1757 128.027 82.0153 128.676C81.8387 129.324 81.606 129.949 81.3252 130.558C80.7635 131.783 80.0012 132.897 79.2228 133.994L79.2068 133.978Z" fill="#B16668"/>
</g>
<defs>
<clipPath id="clip0_6450_26401">
<rect width="345" height="364" fill="white"/>
</clipPath>
</defs>
</svg>
