<svg width="358" height="265" viewBox="0 0 358 265" fill="none" xmlns="http://www.w3.org/2000/svg">
<path opacity="0.3" d="M304.622 174.729C313.78 174.729 320.303 181.524 319.823 190.563L318.778 210.335C318.613 213.383 316.078 215.777 313.007 215.777H276.204L283.808 190.563C286.536 181.517 295.465 174.729 304.622 174.729Z" fill="white"/>
<path d="M116.121 248.583H31.4181V256.781H116.121V248.583Z" fill="#407BFF"/>
<path opacity="0.3" d="M116.121 248.583H31.4181V256.781H116.121V248.583Z" fill="white"/>
<path d="M246.304 248.583H108.975V256.781H246.304V248.583Z" fill="#407BFF"/>
<path opacity="0.7" d="M246.304 248.583H108.975V256.781H246.304V248.583Z" fill="white"/>
<path d="M62.4065 248.412C62.0127 248.376 61.7191 248.034 61.7549 247.643L76.1608 75.9404H77.5928V77.3649H77.4783L63.1797 247.764C63.1439 248.156 62.8003 248.448 62.4065 248.412Z" fill="#999999"/>
<path d="M126.424 248.412C126.818 248.376 127.111 248.034 127.076 247.643L112.67 75.9404H111.238V77.3649H111.352L120.567 187.166H74.2205L64.891 75.9404H63.459V77.3649H63.5735L77.8721 247.764C77.9079 248.156 78.2515 248.448 78.6453 248.412C79.0391 248.376 79.3327 248.034 79.2969 247.643L74.3422 188.59H120.689L125.651 247.764C125.687 248.156 126.03 248.448 126.424 248.412Z" fill="#999999"/>
<path d="M129.739 164.48H61.2967L52.6545 61.4819H121.097L129.739 164.48Z" fill="#407BFF"/>
<path opacity="0.8" d="M129.739 164.48H61.2967L52.6545 61.4819H121.097L129.739 164.48Z" fill="white"/>
<path d="M121.04 63.9034H52.5472C51.2942 63.9034 50.2775 62.892 50.2775 61.6455C50.2775 60.3991 51.2942 59.3877 52.5472 59.3877H121.04C122.293 59.3877 123.309 60.3991 123.309 61.6455C123.309 62.892 122.293 63.9034 121.04 63.9034Z" fill="#407BFF"/>
<path opacity="0.5" d="M121.04 63.9034H52.5472C51.2942 63.9034 50.2775 62.892 50.2775 61.6455C50.2775 60.3991 51.2942 59.3877 52.5472 59.3877H121.04C122.293 59.3877 123.309 60.3991 123.309 61.6455C123.309 62.892 122.293 63.9034 121.04 63.9034Z" fill="white"/>
<path d="M92.8723 125.691L91.8627 113.633C91.8269 113.241 92.1205 112.899 92.5143 112.863C92.9081 112.828 93.2517 113.12 93.2875 113.511L94.2971 125.57C94.3329 125.962 94.0393 126.303 93.6455 126.339C93.2517 126.375 92.9081 126.083 92.8723 125.691Z" fill="#407BFF"/>
<path d="M81.3948 113.918C72.4949 113.918 64.6189 106.717 63.8385 97.8637C63.058 89.0104 69.6667 81.8096 78.5666 81.8096C87.4665 81.8096 95.3425 89.0104 96.1229 97.8637C96.9034 106.717 90.2947 113.918 81.3948 113.918ZM78.631 82.5218C70.125 82.5218 63.8098 89.4022 64.5545 97.8637C65.2991 106.325 72.8243 113.206 81.3303 113.206C89.8364 113.206 96.1516 106.325 95.4069 97.8637C94.6623 89.4022 87.1371 82.5218 78.631 82.5218Z" fill="#407BFF"/>
<path d="M103.827 113.918C94.9272 113.918 87.0512 106.717 86.2707 97.8637C85.4903 89.0104 92.099 81.8096 100.999 81.8096C109.899 81.8096 117.775 89.0104 118.555 97.8637C119.336 106.717 112.727 113.918 103.827 113.918ZM101.063 82.5218C92.5572 82.5218 86.2421 89.4022 86.9867 97.8637C87.7314 106.325 95.2565 113.206 103.763 113.206C112.269 113.206 118.584 106.325 117.839 97.8637C117.095 89.4022 109.569 82.5218 101.063 82.5218Z" fill="#407BFF"/>
<path d="M86.6646 98.1624L93.438 90.7764C93.3091 90.5556 93.1659 90.3348 93.0299 90.1211L86.593 97.1439C86.6002 97.3789 86.6145 97.6211 86.636 97.8633C86.6431 97.963 86.6575 98.0627 86.6718 98.1624H86.6646Z" fill="#407BFF"/>
<path d="M94.29 92.3795C94.1755 92.1374 94.0609 91.8952 93.9392 91.6602L86.8436 99.3952C86.9009 99.6943 86.9653 99.9935 87.0369 100.293L94.29 92.3867V92.3795Z" fill="#407BFF"/>
<path d="M94.9845 94.1451C94.8986 93.8815 94.7984 93.6109 94.6981 93.3545L87.3376 101.374C87.4236 101.645 87.5166 101.909 87.6169 102.172L94.9845 94.138V94.1451Z" fill="#407BFF"/>
<path d="M92.4642 89.3166C92.3139 89.1171 92.1563 88.9177 91.9988 88.7183L86.7076 94.4875C86.6575 94.8935 86.6145 95.2995 86.593 95.7126L92.4642 89.3166Z" fill="#407BFF"/>
<path d="M91.3688 87.9773C91.2041 87.7922 91.0323 87.6141 90.8533 87.436L87.6384 90.9403C87.4093 91.503 87.216 92.0799 87.0585 92.6782L91.3616 87.9845L91.3688 87.9773Z" fill="#407BFF"/>
<path d="M94.9344 104.323C95.1278 103.789 95.2924 103.24 95.4285 102.678L90.9105 107.607C91.0752 107.792 91.247 107.977 91.4189 108.155L94.9416 104.316L94.9344 104.323Z" fill="#407BFF"/>
<path d="M93.1445 107.692L92.0991 108.832C92.0991 108.832 92.1492 108.875 92.1707 108.903C92.5216 108.519 92.8438 108.113 93.1445 107.692Z" fill="#407BFF"/>
<path d="M95.5072 96.1117C95.4499 95.8126 95.3783 95.5205 95.3067 95.2285L88.025 103.17C88.1324 103.412 88.247 103.654 88.3687 103.897L95.5072 96.1117Z" fill="#407BFF"/>
<path d="M95.7292 100.926C95.7722 100.534 95.8008 100.135 95.808 99.7363L89.8151 106.268C89.9654 106.474 90.1158 106.674 90.2733 106.873L95.7221 100.933L95.7292 100.926Z" fill="#407BFF"/>
<path d="M95.7936 98.3265C95.7865 98.1698 95.7793 98.0203 95.765 97.8636C95.7507 97.6855 95.7292 97.5003 95.7006 97.3223L88.8556 104.787C88.9845 105.007 89.1205 105.228 89.2637 105.449L95.7936 98.3337V98.3265Z" fill="#407BFF"/>
<path d="M116.88 132.871H71.8291C70.5332 132.871 69.3947 131.824 69.2802 130.534C69.1656 129.245 70.125 128.198 71.421 128.198H116.472C117.768 128.198 118.906 129.245 119.021 130.534C119.135 131.824 118.176 132.871 116.88 132.871Z" fill="#407BFF"/>
<path d="M112.111 142.315H80.6646C79.3686 142.315 78.2302 141.268 78.1156 139.979C78.001 138.69 78.9605 137.643 80.2564 137.643H111.703C112.999 137.643 114.138 138.69 114.252 139.979C114.367 141.268 113.407 142.315 112.111 142.315Z" fill="#407BFF"/>
<path d="M116.88 132.871H71.8291C70.5332 132.871 69.3947 131.824 69.2802 130.534C69.1656 129.245 70.125 128.198 71.421 128.198H116.472C117.768 128.198 118.906 129.245 119.021 130.534C119.135 131.824 118.176 132.871 116.88 132.871Z" fill="#407BFF"/>
<path d="M112.111 142.315H80.6646C79.3686 142.315 78.2302 141.268 78.1156 139.979C78.001 138.69 78.9605 137.643 80.2564 137.643H111.703C112.999 137.643 114.138 138.69 114.252 139.979C114.367 141.268 113.407 142.315 112.111 142.315Z" fill="#407BFF"/>
<path d="M167.988 241.724L172.456 240.314L170.652 230.114L166.177 231.517L167.988 241.724Z" fill="#CE7A63"/>
<path d="M172.578 239.744L167.551 241.325C167.365 241.382 167.258 241.546 167.293 241.724L167.967 245.648C168.038 246.054 168.511 246.311 168.933 246.175C170.673 245.598 171.489 245.235 173.702 244.544C175.062 244.117 180.876 242.436 182.752 241.852C184.592 241.275 184.148 239.48 183.31 239.573C179.566 239.965 174.905 240.349 173.415 239.786C173.143 239.687 172.85 239.68 172.585 239.765L172.578 239.744Z" fill="#263238"/>
<path opacity="0.2" d="M166.177 231.517L170.652 230.114L171.582 235.378L167.107 236.781L166.177 231.517Z" fill="black"/>
<path d="M164.659 128.205C164.659 128.205 167.58 165.242 168.274 178.162C169.033 192.315 173.272 233.689 173.272 233.689L165.002 235.912C165.002 235.912 156.997 195.812 154.935 182.058C152.701 167.13 148.312 128.205 148.312 128.205H164.659Z" fill="#263238"/>
<path d="M164.78 236.068L173.644 233.697L173.78 230.192L163.749 233.54L164.78 236.068Z" fill="#263238"/>
<path d="M174.339 240C173.924 240.128 173.451 240.192 173.107 240.221C173.064 240.221 173.029 240.206 173.007 240.164C172.993 240.128 173 240.085 173.029 240.05C173.15 239.907 174.217 238.675 174.811 238.711C174.948 238.718 175.055 238.789 175.119 238.917C175.227 239.131 175.227 239.33 175.119 239.508C174.983 239.736 174.683 239.893 174.332 240H174.339ZM173.365 239.979C174.203 239.879 174.783 239.672 174.948 239.409C175.012 239.295 175.012 239.174 174.933 239.024C174.897 238.953 174.854 238.924 174.783 238.917C174.461 238.896 173.802 239.494 173.365 239.979Z" fill="#407BFF"/>
<path d="M173.136 240.214C173.136 240.214 173.1 240.214 173.086 240.214C173.05 240.214 173.021 240.185 173.007 240.15C172.993 240.1 172.592 238.882 172.943 238.319C173.036 238.17 173.172 238.077 173.351 238.042C173.566 237.999 173.723 238.07 173.802 238.227C174.017 238.668 173.566 239.779 173.179 240.178C173.165 240.193 173.15 240.2 173.129 240.207L173.136 240.214ZM173.329 238.269C173.243 238.298 173.179 238.348 173.129 238.426C172.921 238.761 173.05 239.487 173.165 239.893C173.48 239.452 173.759 238.626 173.616 238.341C173.587 238.284 173.537 238.227 173.379 238.255C173.365 238.255 173.344 238.262 173.329 238.269Z" fill="#407BFF"/>
<path opacity="0.6" d="M154.391 139.694C152.687 133.077 150.947 134.658 149.708 137.521C149.837 139.551 149.981 141.688 150.124 143.896C151.14 152.578 152.429 163.326 153.561 172.023C155.658 163.376 156.783 148.924 154.398 139.694H154.391Z" fill="black"/>
<path d="M134.271 243.711H138.847L140.365 233.177H135.797L134.271 243.711Z" fill="#CE7A63"/>
<path d="M139.133 243.184H133.992C133.806 243.184 133.656 243.312 133.627 243.497L133.026 247.543C132.961 247.963 133.326 248.362 133.756 248.355C135.546 248.326 136.412 248.219 138.675 248.219C140.064 248.219 145.964 248.362 147.883 248.362C149.801 248.362 149.916 246.474 149.114 246.303C145.534 245.534 141.102 244.48 139.899 243.468C139.684 243.283 139.412 243.191 139.133 243.191V243.184Z" fill="#263238"/>
<path opacity="0.2" d="M135.789 233.177H140.372L139.584 238.611H135.009L135.789 233.177Z" fill="black"/>
<path d="M156.46 127.97C156.46 127.97 153.84 162.742 151.95 175.769C149.88 190.036 141.661 237.293 141.661 237.293H133.283C133.283 237.293 137.587 191.182 138.324 177.058C139.126 161.731 140.673 127.963 140.673 127.963H156.46V127.97Z" fill="#263238"/>
<path d="M132.947 237.3H141.997L142.778 234.138L132.739 234.629L132.947 237.3Z" fill="#263238"/>
<path d="M140.687 243.974C140.264 243.974 139.806 243.888 139.484 243.81C139.441 243.803 139.412 243.767 139.412 243.725C139.412 243.682 139.427 243.639 139.462 243.618C139.62 243.518 140.988 242.635 141.532 242.856C141.653 242.905 141.732 243.012 141.754 243.155C141.789 243.397 141.725 243.589 141.568 243.732C141.367 243.91 141.045 243.974 140.687 243.974ZM139.785 243.66C140.587 243.824 141.195 243.796 141.424 243.589C141.517 243.504 141.553 243.376 141.532 243.212C141.525 243.133 141.489 243.091 141.424 243.062C141.131 242.948 140.336 243.326 139.778 243.668L139.785 243.66Z" fill="#407BFF"/>
<path d="M139.506 243.817C139.506 243.817 139.47 243.817 139.455 243.803C139.427 243.789 139.405 243.753 139.405 243.717C139.405 243.66 139.42 242.35 139.921 241.908C140.057 241.787 140.214 241.737 140.386 241.759C140.594 241.787 140.723 241.901 140.744 242.079C140.809 242.578 140.043 243.525 139.563 243.796C139.548 243.803 139.527 243.81 139.506 243.81V243.817ZM140.293 241.972C140.207 241.972 140.128 242.001 140.057 242.065C139.756 242.329 139.656 243.076 139.627 243.511C140.057 243.176 140.572 242.457 140.529 242.129C140.522 242.065 140.494 241.994 140.336 241.972C140.322 241.972 140.3 241.972 140.286 241.972H140.293Z" fill="#407BFF"/>
<path d="M166.57 90.9551C167.687 93.5263 168.955 96.2044 170.293 98.683C170.959 99.9366 171.675 101.14 172.413 102.266C173.143 103.377 173.974 104.431 174.711 105.093C174.89 105.257 175.062 105.385 175.191 105.478C175.32 105.57 175.406 105.606 175.406 105.613C175.391 105.613 175.32 105.649 175.384 105.656C175.427 105.656 175.549 105.656 175.721 105.592C176.057 105.471 176.523 105.186 176.974 104.823C177.432 104.452 177.912 104.018 178.377 103.533C180.224 101.596 181.971 99.1745 183.582 96.8027L186.475 98.1417C185.451 101.147 184.191 103.947 182.279 106.689C181.792 107.365 181.263 108.049 180.625 108.704C179.981 109.353 179.258 110.008 178.248 110.57C177.747 110.848 177.153 111.105 176.458 111.254C175.778 111.411 174.947 111.439 174.196 111.29C172.714 110.984 171.747 110.328 170.938 109.73C169.348 108.491 168.296 107.159 167.293 105.841C166.312 104.516 165.468 103.156 164.666 101.796C163.885 100.428 163.148 99.0534 162.482 97.6431C161.809 96.2257 161.172 94.8582 160.584 93.3482L166.563 90.9551H166.57Z" fill="#CE7A63"/>
<path d="M174.138 101.859L166.907 107.222C166.907 107.222 166.628 106.916 166.169 106.396C165.833 106.005 165.403 105.499 164.902 104.893C162.095 101.489 157.985 95.278 157.957 92.2367C157.907 87.6997 162.639 87.0302 167.952 91.674C170.243 93.6754 171.439 97.0017 172.606 99.0601C172.993 99.7367 173.315 100.335 173.566 100.798C173.924 101.467 174.131 101.866 174.131 101.866L174.138 101.859Z" fill="#407BFF"/>
<path opacity="0.6" d="M174.138 101.859L166.907 107.222C166.907 107.222 166.628 106.916 166.169 106.396C165.833 106.005 165.403 105.499 164.902 104.893C162.095 101.489 157.985 95.278 157.957 92.2367C157.907 87.6997 162.639 87.0302 167.952 91.674C170.243 93.6754 171.439 97.0017 172.606 99.0601C172.993 99.7367 173.315 100.335 173.566 100.798C173.924 101.467 174.131 101.866 174.131 101.866L174.138 101.859Z" fill="white"/>
<path opacity="0.3" d="M157.914 92.7634C159.546 91.6879 160.742 94.4727 163.971 96.8161C165.41 97.8631 168.561 104.694 168.303 106.196L166.907 107.229C166.907 107.229 157.878 97.279 157.914 92.7634Z" fill="black"/>
<path d="M183.246 96.9944L184.821 91.9873L188.909 94.9645C188.909 94.9645 186.675 99.4232 185.165 99.0172L183.253 96.9873L183.246 96.9944Z" fill="#CE7A63"/>
<path d="M174.138 101.161L166.241 107.037L167.222 108.063L174.74 102.543L174.138 101.161Z" fill="#407BFF"/>
<path opacity="0.8" d="M174.138 101.161L166.241 107.037L167.222 108.063L174.74 102.543L174.138 101.161Z" fill="white"/>
<path d="M165.117 128.205H140.651C140.479 126.033 140.988 118.96 140.608 109.957C140.357 103.91 139.699 96.9944 138.174 90.1069C138.059 89.6155 137.952 89.1311 137.837 88.6397C137.837 88.6397 139.076 88.3904 140.852 88.1269C142.326 87.9132 144.174 87.6924 145.992 87.6069C149.114 87.4573 153.639 87.3647 156.389 87.6069C157.985 87.7565 159.546 88.02 160.792 88.2551C162.382 88.5756 163.32 88.8462 163.32 88.8462C163.32 88.8462 169.348 102.607 165.11 128.198L165.117 128.205Z" fill="#407BFF"/>
<path opacity="0.6" d="M165.117 128.205H140.651C140.479 126.033 140.988 118.96 140.608 109.957C140.357 103.91 139.699 96.9944 138.174 90.1069C138.059 89.6155 137.952 89.1311 137.837 88.6397C137.837 88.6397 139.076 88.3904 140.852 88.1269C142.326 87.9132 144.174 87.6924 145.992 87.6069C149.114 87.4573 153.639 87.3647 156.389 87.6069C157.985 87.7565 159.546 88.02 160.792 88.2551C162.382 88.5756 163.32 88.8462 163.32 88.8462C163.32 88.8462 169.348 102.607 165.11 128.198L165.117 128.205Z" fill="white"/>
<path d="M189.124 90.0713L191.423 92.8776L188.902 94.9645L184.821 91.9872L189.124 90.0713Z" fill="#CE7A63"/>
<path d="M141.474 93.3903C141.231 94.9359 140.923 96.3533 140.579 97.8205C140.243 99.2807 139.842 100.719 139.398 102.172C138.94 103.618 138.424 105.064 137.801 106.51C137.157 107.956 136.448 109.409 135.338 110.897C134.758 111.631 134.093 112.407 133.033 113.105C132.503 113.447 131.851 113.768 131.078 113.932C130.319 114.103 129.453 114.088 128.708 113.903C127.197 113.504 126.274 112.671 125.586 111.952C124.899 111.211 124.419 110.463 124.004 109.722C123.188 108.248 122.644 106.781 122.207 105.313C121.985 104.58 121.799 103.846 121.641 103.098C121.477 102.35 121.341 101.638 121.233 100.84L124.312 100C125.486 102.457 126.804 105.043 128.293 106.966C128.665 107.429 129.059 107.842 129.396 108.113C129.732 108.397 130.026 108.447 129.94 108.369C129.904 108.333 129.782 108.319 129.718 108.319C129.653 108.319 129.66 108.319 129.725 108.255C129.861 108.141 130.162 107.806 130.434 107.386C131.007 106.531 131.536 105.356 131.987 104.152C132.453 102.942 132.861 101.652 133.226 100.342C133.964 97.7351 134.601 94.9644 135.116 92.3291L141.474 93.3975V93.3903Z" fill="#CE7A63"/>
<path d="M124.677 100.299L123.102 95.292L119.014 98.2692C119.014 98.2692 121.247 102.728 122.758 102.322L124.67 100.292L124.677 100.299Z" fill="#CE7A63"/>
<path d="M118.799 93.376L116.5 96.1822L119.021 98.2691L123.102 95.2919L118.799 93.376Z" fill="#CE7A63"/>
<path opacity="0.3" d="M140.608 109.958C140.358 103.911 139.699 96.9949 138.174 90.1075C139.806 89.965 142.606 90.1288 143.064 92.7499C143.565 95.5704 142.935 102.216 140.601 109.951L140.608 109.958Z" fill="black"/>
<path d="M143.673 96.4533C142.778 99.4376 141.26 103.027 140.136 105.542C139.842 106.204 139.57 106.802 139.348 107.279C138.961 108.12 138.711 108.633 138.711 108.633L129.553 103.989C129.553 103.989 129.653 103.611 129.832 102.97C129.968 102.486 130.155 101.859 130.376 101.126C131.723 96.8308 134.522 89.1598 137.501 88.6185C141.961 87.8137 145.298 91.0402 143.665 96.4462L143.673 96.4533Z" fill="#407BFF"/>
<path opacity="0.6" d="M143.673 96.4533C142.778 99.4376 141.26 103.027 140.136 105.542C139.842 106.204 139.57 106.802 139.348 107.279C138.961 108.12 138.711 108.633 138.711 108.633L129.553 103.989C129.553 103.989 129.653 103.611 129.832 102.97C129.968 102.486 130.155 101.859 130.376 101.126C131.723 96.8308 134.522 89.1598 137.501 88.6185C141.961 87.8137 145.298 91.0402 143.665 96.4462L143.673 96.4533Z" fill="white"/>
<path d="M151.985 91.0257C145.942 90.8619 145.04 87.9274 145.004 87.7992L144.969 87.671C145.312 87.6496 145.656 87.6283 146 87.6069C149.121 87.4573 153.646 87.3647 156.396 87.6069C156.596 87.6283 156.783 87.6425 156.983 87.671C157.413 88.1126 157.835 88.7394 157.663 89.416C157.398 90.4417 155.988 90.7835 154.742 90.926L151.992 91.0328L151.985 91.0257Z" fill="white"/>
<path d="M129.768 102.351L139.778 107.443L138.646 108.818L129.338 104.01L129.768 102.351Z" fill="#407BFF"/>
<path opacity="0.8" d="M129.768 102.351L139.778 107.443L138.646 108.818L129.338 104.01L129.768 102.351Z" fill="white"/>
<path d="M151.477 91.4741L155.53 91.0254L154.635 93.7319C154.635 93.7319 157.42 108.162 157.964 113.02C158.286 115.926 158.573 124.715 158.573 124.715L156.46 127.03L153.317 125.548C153.317 125.548 153.389 115.662 153.374 112.372C153.353 107.713 153.138 93.7319 153.138 93.7319L151.319 91.9869L151.47 91.4741H151.477Z" fill="#263238"/>
<path d="M150.489 94.1311L153.439 91.4602L157.076 93.9531C157.076 93.9531 160.842 90.4061 158.043 87.8063C157.499 87.7351 156.947 87.6639 156.389 87.6069C153.639 87.3647 149.114 87.4573 145.992 87.6069C145.284 87.6425 144.568 87.6995 143.873 87.7636C144.081 88.7679 145.148 92.0727 150.489 94.1311Z" fill="#407BFF"/>
<path opacity="0.8" d="M150.489 94.1311L153.439 91.4602L157.076 93.9531C157.076 93.9531 160.842 90.4061 158.043 87.8063C157.499 87.7351 156.947 87.6639 156.389 87.6069C153.639 87.3647 149.114 87.4573 145.992 87.6069C145.284 87.6425 144.568 87.6995 143.873 87.7636C144.081 88.7679 145.148 92.0727 150.489 94.1311Z" fill="white"/>
<path d="M152.179 90.4205C146.358 90.3137 145.591 87.6357 145.591 87.6357C147.854 85.4134 146.988 79.3451 146.214 76.0117L149 78.3052L152.787 81.4319C152.673 81.9448 152.587 82.4576 152.544 82.9562C152.343 85.0003 152.873 86.8593 155.895 87.5715C155.895 87.5715 159.482 89.9362 154.155 90.3636L152.179 90.4205Z" fill="#CE7A63"/>
<path opacity="0.2" d="M152.787 81.4318C152.673 81.9446 152.587 82.4574 152.544 82.956C151.133 82.6711 149.243 81.1753 149.042 79.7366C148.971 79.1953 148.957 78.6753 148.992 78.2979L152.78 81.4246L152.787 81.4318Z" fill="black"/>
<path d="M145.069 71.2181C146.035 75.6411 146.379 78.2765 149 80.2921C152.952 83.3263 158.186 80.634 158.573 76.0542C158.916 71.9374 157.277 65.3919 152.601 64.1383C147.99 62.9061 144.102 66.795 145.069 71.2181Z" fill="#CE7A63"/>
<path d="M152.086 71.6525C152.143 72.0157 152.379 72.2864 152.623 72.2579C152.859 72.2294 153.009 71.9089 152.952 71.5528C152.895 71.1895 152.658 70.9189 152.415 70.9474C152.171 70.9759 152.028 71.2964 152.086 71.6525Z" fill="#263238"/>
<path d="M156.224 71.1613C156.281 71.5245 156.518 71.7952 156.761 71.7667C156.997 71.7382 157.148 71.4177 157.09 71.0616C157.033 70.6983 156.797 70.4277 156.553 70.4562C156.317 70.4846 156.167 70.8052 156.224 71.1613Z" fill="#263238"/>
<path d="M154.935 71.5029C154.935 71.5029 156.095 73.4972 157.169 74.4018C156.611 75.0784 155.472 74.936 155.472 74.936L154.942 71.5101L154.935 71.5029Z" fill="#BA4D3C"/>
<path d="M150.596 70.4775C150.596 70.4775 150.525 70.4704 150.489 70.449C150.381 70.3921 150.346 70.2567 150.403 70.157C150.976 69.1243 151.978 69.0673 152.021 69.0673C152.136 69.053 152.243 69.1527 152.25 69.2738C152.25 69.3949 152.164 69.4946 152.043 69.5018C152 69.5018 151.234 69.5659 150.782 70.3707C150.739 70.4419 150.668 70.4847 150.589 70.4847L150.596 70.4775Z" fill="#263238"/>
<path d="M157.785 69.5444C157.713 69.5444 157.649 69.5088 157.606 69.4518C157.047 68.6398 156.246 68.6256 156.238 68.6256C156.117 68.6256 156.024 68.5259 156.024 68.4119C156.024 68.2908 156.124 68.1982 156.238 68.1982C156.281 68.1982 157.284 68.2125 157.964 69.2096C158.028 69.3094 158.007 69.4447 157.907 69.5088C157.871 69.5373 157.828 69.5444 157.785 69.5444Z" fill="#263238"/>
<path d="M146.687 74.8079C146.687 74.8079 148.656 76.0971 148.477 74.5373C148.298 72.9774 147.589 67.7281 147.589 67.7281L149.773 65.9475C149.773 65.9475 159.11 66.0116 158.515 61.3036C157.921 56.5957 153.582 60.3207 153.582 60.3207C153.582 60.3207 154.47 57.6712 151.341 57.7139C148.212 57.7566 147.854 60.6982 147.854 60.6982C147.854 60.6982 144.904 58.9603 143.451 60.5202C141.997 62.08 142.355 64.3948 142.355 64.3948C142.355 64.3948 135.195 65.392 139.849 72.2652C144.503 79.1384 147.947 79.8863 146.694 74.815L146.687 74.8079Z" fill="#263238"/>
<path d="M144.045 75.8338C144.84 76.7811 145.935 77.3437 146.866 77.5004C148.269 77.7355 148.584 76.4463 147.868 75.1999C147.224 74.0745 145.72 72.6002 144.474 72.9278C143.243 73.2554 143.136 74.744 144.045 75.8338Z" fill="#CE7A63"/>
<path d="M150.575 80.627C149.938 79.0173 149.057 76.1897 149.995 73.7396C150.933 71.2894 154.377 75.5202 155.587 75.5202C156.797 75.5202 157.814 73.647 158.537 74.9361C159.26 76.2324 156.174 83.6398 155.522 81.6954C155.522 81.6954 154.649 83.0273 153.847 81.8094C153.847 81.8094 153.31 82.835 152.458 81.8094C152.458 81.8094 151.255 82.3364 150.582 80.627H150.575Z" fill="#263238"/>
<path opacity="0.3" d="M150.575 80.627C149.938 79.0173 149.057 76.1897 149.995 73.7396C150.933 71.2894 154.377 75.5202 155.587 75.5202C156.797 75.5202 157.814 73.647 158.537 74.9361C159.26 76.2324 156.174 83.6398 155.522 81.6954C155.522 81.6954 154.649 83.0273 153.847 81.8094C153.847 81.8094 153.31 82.835 152.458 81.8094C152.458 81.8094 151.255 82.3364 150.582 80.627H150.575Z" fill="white"/>
<path d="M156.711 76.1326C156.711 76.1326 155.358 75.7836 151.527 75.6768C151.942 76.8306 152.759 77.7921 154.72 77.8278C156.682 77.8634 156.711 76.1326 156.711 76.1326Z" fill="#263238"/>
<path d="M153.833 76.9016C154.778 76.9159 155.458 77.1509 155.952 77.5142C155.666 77.7065 155.265 77.8347 154.72 77.8276C153.775 77.8133 153.102 77.5854 152.601 77.215C152.887 77.0227 153.281 76.8945 153.833 76.9016Z" fill="#A02724"/>
<path d="M156.532 76.0972C156.417 76.3393 156.303 76.5815 155.916 76.6456C155.114 76.6812 153.081 76.3963 152.537 76.2681C152.186 76.204 151.892 76.0758 151.685 75.6841C154.634 75.7696 156.066 76.0046 156.532 76.0972Z" fill="white"/>
<path d="M292.099 130.085C291.835 130.021 291.498 130.263 291.355 130.669C291.212 131.083 291.312 131.496 291.584 131.56C291.856 131.624 292.193 131.375 292.336 130.976C292.5 130.563 292.372 130.15 292.099 130.085Z" fill="#2E353A"/>
<path d="M290.632 134.487C290.009 134.423 289.45 134.088 289.106 133.568C290.152 132.934 291.111 132.165 291.956 131.274L290.632 134.48V134.487Z" fill="#A02724"/>
<path d="M293.918 129.458C293.818 128.831 293.424 128.29 292.851 128.005C292.744 127.948 292.694 127.827 292.722 127.706C292.765 127.571 292.901 127.492 293.037 127.535C293.775 127.877 294.29 128.568 294.412 129.366C294.412 129.366 294.412 129.366 294.412 129.373C294.434 129.508 294.34 129.636 294.204 129.658C294.161 129.665 294.119 129.665 294.076 129.658C293.99 129.622 293.925 129.544 293.911 129.458H293.918Z" fill="#2E353A"/>
<path d="M304.035 149.23C304.314 150.47 304.501 151.054 303.391 151.588C301.049 152.792 298.465 153.219 295.93 152.82C293.288 152.371 292.815 151.431 292.923 150.676C293.03 150.064 293.582 149.693 294.14 149.416C295.271 149.002 296.052 147.799 296.088 146.417C296.152 145.797 296.216 144.565 296.052 144.38L300.777 141.267L304.343 137.314C303.484 140.512 303.319 146.082 304.035 149.238V149.23Z" fill="#B55B52"/>
<path d="M289.171 151.987C289.171 151.987 290.918 147.194 293.753 146.083C296.589 144.972 305.088 145.591 305.088 145.591C305.489 147.322 306.018 149.017 306.677 150.677L289.171 151.987Z" fill="#407BFF"/>
<path d="M306.52 132.015C306.398 128.062 303.076 124.957 299.109 125.078C293.639 125.27 290.445 132.264 289.951 137.022C289.407 142.314 294.641 146.744 299.66 144.337C302.997 142.734 303.928 139.85 305.933 135.078C306.355 134.109 306.555 133.062 306.52 132.008V132.015Z" fill="#B55B52"/>
<path opacity="0.2" d="M305.646 147.685C305.947 148.696 306.29 149.701 306.677 150.676L290.503 151.887C290.846 151.089 291.348 150.085 291.999 149.181C295.908 147.606 302.739 147.599 305.646 147.678V147.685Z" fill="black"/>
<path d="M302.682 142.279C302.088 142.143 301.221 142.079 300.068 142.3C299.202 142.464 298.321 142.058 297.942 141.267L295.386 135.983C295.386 135.983 291.72 134.772 296.209 127.485C296.209 127.485 287.66 124.672 293.975 118.903C300.29 113.126 296.209 120.933 296.209 120.933C296.209 120.933 304.185 116.659 300.197 122.072C300.197 122.072 312.391 122.685 309.362 129.252C309.362 129.252 314.41 129.351 304.565 141.602C304.114 142.165 303.384 142.436 302.682 142.279Z" fill="#263238"/>
<path d="M297.283 132.557C295.909 132.357 294.434 133.732 293.947 134.957C293.41 136.346 294.111 137.941 295.558 137.557C296.675 137.243 297.634 136.524 298.257 135.555C299.03 134.337 298.658 132.756 297.283 132.557Z" fill="#B55B52"/>
<path d="M304.565 155.455C305.195 156.695 305.889 158.048 306.512 159.366C307.135 160.698 307.765 162.022 308.331 163.354C308.911 164.679 309.448 166.011 309.906 167.322C310.372 168.618 310.758 169.928 310.937 171.047C311.037 171.595 311.066 172.101 311.052 172.35C311.052 172.407 311.052 172.45 311.052 172.464C311.052 172.464 311.052 172.478 311.066 172.464H311.08L311.116 172.393C311.231 172.229 310.543 173.034 310.049 173.376C309.541 173.725 308.968 174.074 308.367 174.416C305.932 175.776 303.126 176.994 300.419 178.233L301.329 181.994C302.968 181.873 304.522 181.645 306.111 181.331C307.694 181.018 309.269 180.626 310.873 180.078C311.675 179.8 312.484 179.494 313.314 179.081C314.145 178.661 315.004 178.212 315.956 177.393C316.422 176.973 316.937 176.453 317.41 175.612C317.467 175.505 317.524 175.391 317.575 175.292L317.696 175.014C317.775 174.822 317.832 174.651 317.897 174.473C318.011 174.124 318.09 173.789 318.147 173.468C318.369 172.208 318.334 171.168 318.262 170.199C318.076 168.276 317.66 166.624 317.209 165.007C316.737 163.404 316.186 161.873 315.598 160.37C314.997 158.874 314.367 157.407 313.672 155.982C312.978 154.537 312.298 153.155 311.474 151.709L304.586 155.448L304.565 155.455Z" fill="#B55B52"/>
<path d="M302.181 178.39L296.359 176.901L295.88 182.108C295.88 182.108 299.803 183.718 302.216 181.203L302.173 178.397L302.181 178.39Z" fill="#B55B52"/>
<path d="M294.018 177.663L292.78 181.866L295.88 182.108L296.36 176.901L294.018 177.663Z" fill="#B55B52"/>
<path d="M316.923 161.581L306.999 166.474C306.999 166.474 306.484 166.346 302.56 160.106C298.014 152.842 300.505 148.767 305.99 148.568C311.596 148.361 313.594 155.263 316.93 161.581H316.923Z" fill="#407BFF"/>
<path opacity="0.2" d="M313.837 163.105L309.09 165.449L306.677 162.614L309.355 155.499L310.1 154.687L311.961 154.416L313.837 163.105Z" fill="black"/>
<path d="M252.276 238.767L247.342 236.645L243.547 248.461L248.488 250.59L252.276 238.767Z" fill="#B55B52"/>
<path opacity="0.2" d="M252.276 238.767L247.342 236.645L245.452 242.549L250.435 244.501L252.276 238.767Z" fill="black"/>
<path d="M242.996 246.388C241.521 247.621 238.507 248.511 236.201 248.646C234.426 248.739 234.268 250.769 236.502 251.139C238.729 251.51 242.609 251.339 244.242 251.403C246.891 251.502 247.786 251.937 249.884 251.901C250.407 251.873 250.808 251.438 250.793 250.918L250.349 246.189C250.335 245.982 250.149 245.819 249.934 245.833L243.905 246.025C243.569 246.039 243.254 246.168 242.996 246.388Z" fill="#263238"/>
<path d="M297.348 189.985C297.348 189.985 301.493 194.871 298.15 202.606C294.376 211.374 274.371 207.521 263.438 210.32C261.884 225.797 252.798 241.688 252.798 241.688L245.201 238.725C245.201 238.725 248.495 226.396 250.965 204.558C252.175 193.81 279.598 192.628 279.598 192.628L297.348 189.985Z" fill="#263238"/>
<path d="M254.309 240.285L244.636 236.923L244.049 240.448L252.863 243.632L254.309 240.285Z" fill="#263238"/>
<path d="M275.639 243.838L270.312 243.582L271.185 256.089L276.505 256.346L275.639 243.838Z" fill="#B55B52"/>
<path d="M269.732 254.772C268.257 255.997 265.765 257.699 263.481 258.027C262.013 258.234 260.91 260.449 263.66 260.449C266.409 260.449 269.359 260.185 270.985 260.135C273.634 260.05 274.514 260.285 276.619 260.285C277.142 260.263 277.55 259.822 277.529 259.302L277.092 254.573C277.071 254.366 276.892 254.209 276.677 254.224L270.655 254.409C270.319 254.423 269.996 254.551 269.739 254.772H269.732Z" fill="#263238"/>
<path opacity="0.2" d="M276.125 250.734L270.82 250.741L270.312 243.59L275.639 243.846L276.125 250.734Z" fill="black"/>
<path d="M310.658 190.84C310.658 190.84 315.019 199.693 310.773 205.334C306.935 210.441 287.302 210.79 277.328 210.79C278.316 222.891 277.221 247.756 277.221 247.756L269.238 247.642C269.238 247.642 263.595 223.739 262.443 207.008C261.798 197.713 295.049 191.552 295.049 191.552L310.658 190.84Z" fill="#263238"/>
<path d="M278.324 246.104L267.347 245.783L267.82 249.045L277.901 249.188L278.324 246.104Z" fill="#263238"/>
<path d="M311.625 191.303L278.81 192.663L281.896 156.046C282.247 151.901 285.734 148.71 289.916 148.71H306.269C309.434 148.71 311.99 151.274 311.961 154.422L311.625 191.303Z" fill="#407BFF"/>
<path d="M283.679 154.188L282.777 156.118C282.462 156.78 282.14 157.436 281.81 158.091C281.137 159.394 280.464 160.698 279.741 161.958C279.032 163.226 278.288 164.466 277.5 165.655C276.727 166.852 275.903 167.991 275.037 169.031C274.607 169.558 274.164 170.057 273.712 170.52C273.712 170.52 273.455 170.755 272.946 170.619C272.431 170.491 271.822 170.292 271.214 170.035C268.743 169.003 266.109 167.379 263.595 165.84L260.953 168.675C262.006 169.986 263.087 171.139 264.297 172.272C265.5 173.397 266.774 174.466 268.271 175.427C269.023 175.904 269.817 176.374 270.763 176.759C271.708 177.137 272.782 177.514 274.292 177.521C275.044 177.514 275.946 177.364 276.841 176.93C277.278 176.731 277.729 176.417 278.066 176.139L278.581 175.705C279.261 175.114 279.899 174.508 280.5 173.882C282.892 171.367 284.796 168.661 286.507 165.883C287.345 164.48 288.147 163.077 288.87 161.624C289.235 160.904 289.586 160.178 289.937 159.444C290.295 158.696 290.596 157.991 290.932 157.158L283.679 154.181V154.188Z" fill="#B55B52"/>
<path d="M264.455 167.165L261.863 161.773L257.545 164.751C257.545 164.751 258.827 168.775 262.314 169.003L264.455 167.165Z" fill="#B55B52"/>
<path d="M259.772 160.477L255.741 162.229L257.545 164.75L261.863 161.773L259.772 160.477Z" fill="#B55B52"/>
<path d="M287.195 168.14L277.923 162.108C277.923 162.108 277.772 161.581 281.195 155.071C285.176 147.492 289.98 147.556 292.93 152.15C295.951 156.858 290.99 162.072 287.195 168.14Z" fill="#407BFF"/>
<path d="M327.191 260.255C327.506 260.084 327.627 259.686 327.455 259.372L302.145 213.047C301.973 212.734 301.572 212.613 301.257 212.784C300.942 212.955 300.82 213.354 300.992 213.667L326.303 259.992C326.475 260.305 326.876 260.426 327.191 260.255Z" fill="#407BFF"/>
<g opacity="0.2">
<path d="M327.191 260.255C327.506 260.084 327.627 259.686 327.455 259.372L302.145 213.047C301.973 212.734 301.572 212.613 301.257 212.784C300.942 212.955 300.82 213.354 300.992 213.667L326.303 259.992C326.475 260.305 326.876 260.426 327.191 260.255Z" fill="black"/>
</g>
<path opacity="0.2" d="M314.968 239.245L312.742 235.156L313.486 233.796L315.713 237.884L314.968 239.245Z" fill="black"/>
<path d="M291.025 260.255C291.34 260.084 291.462 259.686 291.29 259.372L265.98 213.047C265.808 212.734 265.407 212.613 265.092 212.784C264.777 212.955 264.655 213.354 264.827 213.667L290.138 259.992C290.309 260.305 290.71 260.426 291.025 260.255Z" fill="#407BFF"/>
<g opacity="0.2">
<path d="M291.025 260.255C291.34 260.084 291.462 259.686 291.29 259.372L265.98 213.047C265.808 212.734 265.407 212.613 265.092 212.784C264.777 212.955 264.655 213.354 264.827 213.667L290.138 259.992C290.309 260.305 290.71 260.426 291.025 260.255Z" fill="black"/>
</g>
<path opacity="0.2" d="M278.81 239.245L276.577 235.156L277.321 233.796L279.555 237.884L278.81 239.245Z" fill="black"/>
<path d="M265.987 259.992L291.297 213.667C291.469 213.354 291.355 212.955 291.033 212.784C290.718 212.613 290.317 212.727 290.145 213.048L264.834 259.373C264.662 259.686 264.777 260.085 265.099 260.256C265.414 260.427 265.815 260.313 265.987 259.992Z" fill="#407BFF"/>
<g opacity="0.2">
<path d="M265.987 259.992L291.297 213.667C291.469 213.354 291.355 212.955 291.033 212.784C290.718 212.613 290.317 212.727 290.145 213.048L264.834 259.373C264.662 259.686 264.777 260.085 265.099 260.256C265.414 260.427 265.815 260.313 265.987 259.992Z" fill="black"/>
</g>
<path d="M302.152 259.992L327.463 213.667C327.634 213.354 327.52 212.955 327.198 212.784C326.883 212.613 326.482 212.727 326.31 213.048L300.999 259.373C300.827 259.686 300.942 260.085 301.264 260.256C301.579 260.427 301.98 260.313 302.152 259.992Z" fill="#407BFF"/>
<g opacity="0.2">
<path d="M302.152 259.992L327.463 213.667C327.634 213.354 327.52 212.955 327.198 212.784C326.883 212.613 326.482 212.727 326.31 213.048L300.999 259.373C300.827 259.686 300.942 260.085 301.264 260.256C301.579 260.427 301.98 260.313 302.152 259.992Z" fill="black"/>
</g>
<path d="M296.796 210.732H267.405C265.543 210.732 264.032 212.235 264.032 214.087H296.796V210.732Z" fill="#407BFF"/>
<path d="M317.653 167.784C327.985 167.784 335.339 175.441 334.802 185.647L333.62 207.948C333.441 211.388 330.577 214.088 327.112 214.088H285.598L294.176 185.647C297.255 175.448 307.322 167.784 317.653 167.784Z" fill="#407BFF"/>
<path opacity="0.3" d="M317.653 167.784C327.985 167.784 335.339 175.441 334.802 185.647L333.62 207.948C333.441 211.388 330.577 214.088 327.112 214.088H285.598L294.176 185.647C297.255 175.448 307.322 167.784 317.653 167.784Z" fill="white"/>
<path d="M229.371 150.542C230.079 153.056 230.258 155.756 226.621 156.738C226.621 156.738 223.227 161.496 227.301 164.68C229.879 161.304 233.13 158.498 236.853 156.432C234.49 154.324 234.955 148.32 235.5 145.036L229.371 150.542Z" fill="#CE7A63"/>
<path d="M224.86 137.479C224.581 137.414 224.244 137.671 224.108 138.084C223.972 138.504 224.087 138.939 224.366 139.01C224.645 139.074 224.982 138.825 225.118 138.404C225.268 137.984 225.139 137.55 224.86 137.479Z" fill="#2E353A"/>
<path d="M224.051 136.916L224.974 137.536C224.316 137.878 224.051 136.916 224.051 136.916Z" fill="#2E353A"/>
<path d="M223.865 142.023C223.299 141.988 222.776 141.71 222.44 141.254C223.335 140.627 224.137 139.887 224.831 139.039L223.865 142.023Z" fill="#BA4D3C"/>
<path d="M225.862 134.708C226.421 135.079 226.75 135.706 226.757 136.368C226.757 136.368 226.757 136.368 226.757 136.375C226.757 136.518 226.865 136.632 227.008 136.639C227.008 136.639 227.015 136.639 227.022 136.639C227.158 136.639 227.273 136.532 227.28 136.397C227.28 135.556 226.865 134.765 226.177 134.281C226.063 134.196 225.898 134.224 225.812 134.338C225.769 134.416 225.769 134.516 225.812 134.595C225.812 134.637 225.841 134.68 225.869 134.708H225.862Z" fill="#2E353A"/>
<path d="M240.676 137.743C240.325 133.662 236.71 130.634 232.6 130.983C226.822 131.418 223.614 138.889 223.227 143.911C222.791 149.495 228.633 153.056 233.896 150.314C237.426 148.491 238.099 146.297 240.139 141.211C240.597 140.114 240.776 138.925 240.676 137.743Z" fill="#CE7A63"/>
<path d="M243.497 144.345C251.073 134.822 241.772 132.087 241.772 132.087C238.858 128.063 234.046 127.251 229.636 128.932C225.225 130.613 226.535 133.547 228.146 133.839C225.139 137.792 226.865 139.758 227.853 140.043C226.299 149.993 235.922 153.868 243.497 144.345Z" fill="#263238"/>
<path d="M230.309 140.342C230.43 139.288 229.678 138.334 228.612 138.205C227.144 138.056 226.013 139.794 225.698 141.033C225.34 142.408 226.113 143.675 227.552 143.227C228.64 142.871 229.535 142.108 230.058 141.097C230.194 140.869 230.28 140.613 230.316 140.342H230.309Z" fill="#CE7A63"/>
<path d="M238.256 157.158C238.256 157.158 236.717 156.168 236.853 154.401C236.853 154.401 226.249 152.863 224.051 155.242C224.051 155.242 227.237 155.071 225.962 157.685L238.256 157.151V157.158Z" fill="#407BFF"/>
<path opacity="0.6" d="M238.256 157.158C238.256 157.158 236.717 156.168 236.853 154.401C236.853 154.401 226.249 152.863 224.051 155.242C224.051 155.242 227.237 155.071 225.962 157.685L238.256 157.151V157.158Z" fill="white"/>
<path d="M227.28 188.227L227.215 190.947C230.531 191.346 233.867 191.503 237.211 191.432C238.979 191.403 240.741 191.218 242.473 190.869C242.989 190.755 243.49 190.605 243.977 190.413C244.278 190.299 244.571 190.164 244.851 190C245.244 189.779 245.602 189.501 245.91 189.181C246.132 188.939 246.318 188.668 246.476 188.376C246.562 188.198 246.633 188.02 246.698 187.835C246.741 187.643 246.769 187.45 246.784 187.258L246.877 186.631L247.07 185.385C247.442 182.066 247.636 178.803 247.786 175.534C247.929 172.265 248.015 169.01 248.001 165.727L242.409 165.741L242.244 175.406C242.166 178.625 242.108 181.845 241.936 184.993L241.865 186.04C241.657 186.133 241.457 186.218 241.242 186.282C239.803 186.695 238.328 186.994 236.838 187.187C233.717 187.657 230.48 187.927 227.28 188.219V188.227Z" fill="#CE7A63"/>
<path d="M237.626 163.961C237.626 167.329 239.66 173.626 239.66 173.626L248.051 168.49C248.423 164.181 247.528 158.64 243.368 157.287C240.547 156.375 237.655 160.378 237.626 163.961Z" fill="#263238"/>
<path opacity="0.6" d="M243.655 161.539L245.581 163.433L245.953 169.772L239.66 173.626C239.66 173.626 237.626 167.329 237.626 163.96C237.633 163.106 237.805 162.23 238.099 161.403L240.998 160.527L243.655 161.539Z" fill="black"/>
<path d="M219.569 189.744C219.332 189.195 219.59 188.568 220.134 188.333L222.511 187.329C223.027 187.115 223.592 187.08 224.129 187.222L229.313 188.611L229.951 190.356C229.141 192.358 225.712 191.98 225.712 191.98L223.242 192.728C222.604 192.92 221.917 192.714 221.495 192.194L219.697 189.979C219.64 189.907 219.59 189.822 219.554 189.736L219.569 189.744Z" fill="#CE7A63"/>
<path d="M223.349 157.208C224.43 157.023 225.554 156.859 226.65 156.724C230.029 156.382 233.43 156.282 236.824 156.418C238.492 156.453 240.132 156.574 241.571 156.724C241.607 156.724 241.65 156.731 241.686 156.738C244.285 157.08 246.111 159.459 245.767 162.044C243.734 176.489 242.846 182.636 243.433 190.883L220.965 191.56C218.344 178.099 217.284 170.071 216.934 165.349C216.633 161.396 219.411 157.871 223.335 157.208H223.349Z" fill="#263238"/>
<path d="M197.272 240.072L191.967 239.573L188.394 252.572L193.699 253.07L197.272 240.072Z" fill="#CE7A63"/>
<path d="M180.876 228.39L176.379 224.152L170.365 233.241L173.959 236.346L180.876 228.39Z" fill="#CE7A63"/>
<path d="M241.321 191.047C242.416 191.04 243.376 191.774 243.648 192.828C246.683 204.609 243.254 211.724 234.869 211.724C227.015 211.724 205.571 204.744 198.833 202.572C193.191 218.79 176.909 233.305 176.909 233.305L172.635 229.402C172.635 229.402 182.122 211.226 188.673 195.086C192.439 185.805 228.812 191.169 228.812 191.169C228.812 191.169 236.044 191.047 241.321 191.047Z" fill="#407BFF"/>
<path opacity="0.6" d="M241.321 191.047C242.416 191.04 243.376 191.774 243.648 192.828C246.683 204.609 243.254 211.724 234.869 211.724C227.015 211.724 205.571 204.744 198.833 202.572C193.191 218.79 176.909 233.305 176.909 233.305L172.635 229.402C172.635 229.402 182.122 211.226 188.673 195.086C192.439 185.805 228.812 191.169 228.812 191.169C228.812 191.169 236.044 191.047 241.321 191.047Z" fill="white"/>
<path d="M235.829 190.869C244.371 202.087 243.691 211.702 234.869 211.702C227.015 211.702 217.213 212.158 206.573 211.489C204.232 228.512 195.318 248.348 195.318 248.348L189.439 247.799C189.439 247.799 194.802 222.913 195.217 205.506C195.475 194.986 225.325 195.883 225.325 195.883C225.325 195.883 230.588 190.898 235.829 190.869Z" fill="#407BFF"/>
<path opacity="0.6" d="M235.829 190.869C244.371 202.087 243.691 211.702 234.869 211.702C227.015 211.702 217.213 212.158 206.573 211.489C204.232 228.512 195.318 248.348 195.318 248.348L189.439 247.799C189.439 247.799 194.802 222.913 195.217 205.506C195.475 194.986 225.325 195.883 225.325 195.883C225.325 195.883 230.588 190.898 235.829 190.869Z" fill="white"/>
<path d="M243.368 189.381L220.614 190.057C220.392 190.057 220.242 190.193 220.242 190.328L220.499 192.351C220.521 192.472 220.693 192.557 220.893 192.557L244.013 191.881C244.278 191.881 244.457 191.71 244.371 191.56L243.734 189.573C243.662 189.445 243.519 189.366 243.368 189.381Z" fill="#263238"/>
<path d="M202.406 180.599C204.59 181.995 206.867 183.234 209.237 184.295C210.475 184.858 211.75 185.328 213.06 185.698C213.833 185.919 214.628 186.062 215.43 186.104C216.039 186.14 216.647 186.062 217.227 185.869C217.721 185.698 218.172 185.428 218.545 185.072C218.659 184.965 218.767 184.844 218.86 184.723L218.996 184.523L219.103 184.367L219.239 184.124C220.643 181.703 221.623 179.067 222.153 176.318C222.425 175.008 222.626 173.683 222.755 172.344C222.812 171.653 222.862 171.012 222.898 170.342C222.934 169.673 222.941 169.039 222.927 168.291L217.363 168.376C217.356 168.861 217.327 169.495 217.299 170.065C217.27 170.627 217.227 171.24 217.17 171.824C217.063 172.992 216.919 174.153 216.733 175.314C216.54 176.439 216.289 177.55 215.989 178.654C215.738 179.537 215.409 180.399 215.036 181.24C214.721 181.233 214.406 181.211 214.091 181.147C212.946 180.948 211.807 180.684 210.69 180.357C208.363 179.694 205.979 178.918 203.63 178.134L202.413 180.599H202.406Z" fill="#CE7A63"/>
<path d="M225.941 163.932C227.602 166.489 223.721 173.063 223.721 173.063L216.726 172.287C216.726 172.287 215.315 163.533 218.716 159.936C220.557 158.006 224.194 161.275 225.934 163.939L225.941 163.932Z" fill="#263238"/>
<path d="M197.709 178.875C197.537 178.818 197.444 178.633 197.501 178.469L201.174 167.529C201.232 167.365 201.418 167.272 201.59 167.329C201.762 167.386 201.855 167.572 201.797 167.735L198.124 178.676C198.081 178.789 197.981 178.875 197.867 178.896C197.809 178.903 197.759 178.896 197.709 178.882V178.875Z" fill="#2E353A"/>
<path d="M198.826 172.707C198.189 172.657 197.63 173.127 197.573 173.761L197.258 176.788C197.208 177.258 197.451 177.707 197.867 177.928L200.437 179.274C200.437 179.274 204.84 183.412 206.738 182.372L205.377 179.416L202.714 174.851C202.413 174.331 201.948 173.925 201.396 173.697L199.191 172.792C199.077 172.742 198.955 172.714 198.833 172.707H198.826Z" fill="#CE7A63"/>
<path d="M170.293 231.225C168.503 231.089 165.904 229.722 164.279 228.312C163.033 227.215 161.601 228.475 162.84 230.171C164.079 231.866 166.785 234.273 167.83 235.377C169.527 237.165 169.85 238.034 171.267 239.373C171.632 239.693 172.191 239.665 172.52 239.309L175.327 235.869C175.456 235.719 175.434 235.491 175.284 235.363L171.131 231.574C170.895 231.367 170.601 231.246 170.286 231.225H170.293Z" fill="#407BFF"/>
<path d="M187.95 252.244C186.69 253.519 184.542 255.328 182.444 255.841C181.105 256.168 180.282 258.326 182.831 258.07C185.38 257.814 188.1 257.301 189.604 257.101C192.06 256.781 192.898 256.916 194.852 256.724C195.339 256.653 195.676 256.211 195.604 255.727L194.759 251.375C194.723 251.183 194.537 251.054 194.344 251.09L188.766 251.824C188.451 251.866 188.165 252.016 187.95 252.244Z" fill="#407BFF"/>
<path d="M257.996 260.371C258.311 260.2 258.433 259.801 258.261 259.487L232.951 213.163C232.779 212.849 232.378 212.728 232.063 212.899C231.748 213.07 231.626 213.469 231.798 213.782L257.108 260.107C257.28 260.42 257.681 260.541 257.996 260.371Z" fill="#407BFF"/>
<g opacity="0.2">
<path d="M257.996 260.371C258.311 260.2 258.433 259.801 258.261 259.487L232.951 213.163C232.779 212.849 232.378 212.728 232.063 212.899C231.748 213.07 231.626 213.469 231.798 213.782L257.108 260.107C257.28 260.42 257.681 260.541 257.996 260.371Z" fill="black"/>
</g>
<path opacity="0.2" d="M245.774 239.359L243.54 235.271L244.285 233.91L246.519 237.998L245.774 239.359Z" fill="black"/>
<path d="M221.831 260.371C222.146 260.2 222.268 259.801 222.096 259.487L196.785 213.163C196.614 212.849 196.213 212.728 195.898 212.899C195.583 213.07 195.461 213.469 195.633 213.782L220.943 260.107C221.115 260.42 221.516 260.541 221.831 260.371Z" fill="#407BFF"/>
<g opacity="0.2">
<path d="M221.831 260.371C222.146 260.2 222.268 259.801 222.096 259.487L196.785 213.163C196.614 212.849 196.213 212.728 195.898 212.899C195.583 213.07 195.461 213.469 195.633 213.782L220.943 260.107C221.115 260.42 221.516 260.541 221.831 260.371Z" fill="black"/>
</g>
<path opacity="0.2" d="M209.609 239.359L207.375 235.271L208.12 233.91L210.354 237.998L209.609 239.359Z" fill="black"/>
<path d="M196.785 260.107L222.096 213.783C222.268 213.469 222.153 213.07 221.831 212.899C221.516 212.729 221.115 212.843 220.943 213.163L195.633 259.488C195.461 259.801 195.575 260.2 195.898 260.371C196.213 260.542 196.614 260.428 196.785 260.107Z" fill="#407BFF"/>
<g opacity="0.2">
<path d="M196.785 260.107L222.096 213.783C222.268 213.469 222.153 213.07 221.831 212.899C221.516 212.729 221.115 212.843 220.943 213.163L195.633 259.488C195.461 259.801 195.575 260.2 195.898 260.371C196.213 260.542 196.614 260.428 196.785 260.107Z" fill="black"/>
</g>
<path d="M232.951 260.107L258.261 213.783C258.433 213.469 258.318 213.07 257.996 212.899C257.681 212.729 257.28 212.843 257.108 213.163L231.798 259.488C231.626 259.801 231.741 260.2 232.063 260.371C232.378 260.542 232.779 260.428 232.951 260.107Z" fill="#407BFF"/>
<g opacity="0.2">
<path d="M232.951 260.107L258.261 213.783C258.433 213.469 258.318 213.07 257.996 212.899C257.681 212.729 257.28 212.843 257.108 213.163L231.798 259.488C231.626 259.801 231.741 260.2 232.063 260.371C232.378 260.542 232.779 260.428 232.951 260.107Z" fill="black"/>
</g>
<path d="M227.595 210.848H198.203C196.342 210.848 194.831 212.35 194.831 214.202H227.595V210.848Z" fill="#407BFF"/>
<path d="M248.452 167.906C258.784 167.906 266.137 175.563 265.6 185.769L264.419 208.07C264.24 211.51 261.376 214.21 257.91 214.21H216.397L224.974 185.769C228.053 175.57 238.12 167.906 248.452 167.906Z" fill="#407BFF"/>
<path opacity="0.3" d="M248.452 167.906C258.784 167.906 266.137 175.563 265.6 185.769L264.419 208.07C264.24 211.51 261.376 214.21 257.91 214.21H216.397L224.974 185.769C228.053 175.57 238.12 167.906 248.452 167.906Z" fill="white"/>
</svg>
