<svg width="293" height="289" viewBox="0 0 293 289" fill="none" xmlns="http://www.w3.org/2000/svg">
<g clip-path="url(#clip0_5013_5597)">
<path d="M150.95 137.698V137.704H150.968L150.95 137.698Z" fill="#3C5AE7"/>
<path d="M150.893 137.705H150.943L150.905 137.686L150.893 137.705Z" fill="#3C5AE7"/>
<path d="M150.836 137.666L150.798 137.704H150.886L150.836 137.666Z" fill="#3C5AE7"/>
<path d="M150.759 137.653L150.771 137.647L150.753 137.641L150.759 137.653Z" fill="#3C5AE7"/>
<path d="M150.747 137.54L150.741 137.546L150.759 137.558L150.747 137.54Z" fill="#3C5AE7"/>
<path d="M150.936 137.653L150.924 137.665L150.936 137.672V137.653Z" fill="#3C5AE7"/>
<path d="M150.728 137.673L150.715 137.628L150.481 137.559L150.69 137.698L150.728 137.673Z" fill="#3C5AE7"/>
<path d="M150.734 137.635L150.728 137.673L150.76 137.654L150.734 137.635Z" fill="#3C5AE7"/>
<path d="M150.918 137.635L150.886 137.641L150.905 137.654L150.918 137.635Z" fill="#3C5AE7"/>
<path d="M150.892 137.679H150.88L150.886 137.697L150.892 137.679Z" fill="#3C5AE7"/>
<path d="M131.074 0.811415L140.948 69.5781C141.043 69.5654 141.132 69.5527 141.227 69.54L150.836 136.937L160.355 69.5274C160.406 69.5337 160.457 69.54 160.507 69.5464L169.996 1.88906C162.344 0.652937 154.503 0.00634766 146.503 0.00634766C141.29 0.00634766 136.147 0.285268 131.074 0.817754V0.811415Z" fill="#3C5AE7"/>
<path d="M240.144 33.8637C230.206 25.5848 219.159 18.6055 207.252 13.1665L179.199 75.0235C179.249 75.0489 179.3 75.0679 179.351 75.0933L150.988 137.489L240.144 33.8637Z" fill="#3C5AE7"/>
<path d="M85.02 118.383L150.316 137.515H150.056L150.684 137.698H150.677H150.69L150.715 137.679V137.692L150.76 137.679H150.772V137.686L150.791 137.705L150.823 137.667L150.874 137.705H150.785L150.829 137.743L150.867 137.717V137.736L150.893 137.73L150.931 137.717V137.73L150.962 137.705H150.975L150.937 137.736L151.203 137.851L150.988 137.711L216.664 156.957C216.651 157.001 216.638 157.052 216.626 157.096L289.504 178.535C291.784 168.259 292.994 157.584 292.994 146.617C292.994 143.556 292.886 140.526 292.702 137.508H219.425V137.629L150.994 137.705H150.969H150.975L150.95 137.686V137.622L151.26 137.534L151.013 137.692L151.621 137.515H151.323L284.728 97.9648C280.282 85.3056 274.144 73.4451 266.594 62.6433L151.292 137.515H151.057L151.152 137.4L150.975 137.515V137.502L150.962 137.515L151.026 137.147L150.899 137.426L150.912 137.521L150.829 137.584L150.804 137.521H150.747L150.76 137.426L150.652 137.191L150.696 137.496L150.722 137.521H150.703V137.534L150.563 137.445L150.633 137.527H150.405L28.8826 59.1948C20.5725 70.377 13.8142 82.7763 8.93079 96.0884L85.02 118.383ZM150.893 137.705L150.905 137.686L150.943 137.705H150.893ZM150.937 137.654V137.673L150.924 137.667L150.937 137.654ZM150.918 137.635L150.905 137.654L150.886 137.641H150.918V137.635ZM150.893 137.679V137.692L150.88 137.673H150.893V137.679ZM150.747 137.54L150.76 137.559L150.741 137.546L150.747 137.54ZM150.734 137.635L150.76 137.654L150.728 137.673V137.635H150.734ZM150.715 137.629V137.673L150.69 137.692L150.481 137.553L150.715 137.622V137.629Z" fill="#3C5AE7"/>
<path d="M105.852 85.7176C105.852 85.7176 105.859 85.7176 105.865 85.7113L150.671 137.457L122.251 75.1376C122.251 75.1376 122.263 75.1313 122.276 75.1249L92.6017 10.2505C79.9909 15.2457 68.2478 21.9461 57.6385 30.0602L105.852 85.7239V85.7176Z" fill="#3C5AE7"/>
<path d="M208.55 174.896C208.55 174.896 208.525 174.934 208.512 174.959L151.114 137.971L195.876 189.641C195.838 189.672 195.8 189.704 195.768 189.736L249.017 251.352C259.114 241.45 267.785 230.103 274.695 217.634L208.556 174.902L208.55 174.896Z" fill="#3C5AE7"/>
<path d="M150.93 137.85L150.918 137.844L150.93 137.85Z" fill="#3C5AE7"/>
<path d="M150.766 137.717L150.76 137.736L150.734 137.723L150.741 137.774L150.747 137.767L150.741 137.774L150.791 137.761L150.766 137.742L150.779 137.723L150.791 137.729V137.717L150.798 137.704H150.728L150.766 137.717Z" fill="#3C5AE7"/>
<path d="M150.709 137.78L150.722 137.717L150.703 137.704L150.437 137.863L150.709 137.78Z" fill="#3C5AE7"/>
<path d="M150.551 137.996L93.2984 175.169C93.2541 175.099 93.2097 175.029 93.1654 174.959L20.7499 221.863C28.3822 234.61 37.8894 246.097 48.8977 255.948L114.618 179.758L150.551 137.996Z" fill="#3C5AE7"/>
<path d="M85.0643 157.159L150.684 137.704L0.272372 137.863C0.101356 140.76 0.00634766 143.676 0.00634766 146.617C0.00634766 158.49 1.42514 170.027 4.08538 181.083L85.0707 157.165C85.0707 157.165 85.0707 157.159 85.0707 157.152L85.0643 157.159Z" fill="#3C5AE7"/>
<path d="M150.652 138.225L86.0905 280.233C99.417 286.275 114.283 287.029 129.376 288.842L150.652 138.231V138.225Z" fill="#3C5AE7"/>
<path d="M150.943 137.736L150.924 137.749L150.937 137.768L150.943 137.736Z" fill="#3C5AE7"/>
<path d="M151.013 138.212L172.428 288.468C187.104 285.805 201.355 283.371 214.162 276.69L151.013 138.212Z" fill="#3C5AE7"/>
<path d="M150.766 137.964L150.842 138.478L150.912 137.983L150.836 137.818L150.766 137.964Z" fill="#3C5AE7"/>
<path d="M150.917 137.755L150.905 137.761H150.917V137.755Z" fill="#3C5AE7"/>
<path d="M134.082 84.3671L115.347 98.3448L130.586 147.587L182.872 147.181L181.105 128.956L179.87 99.9993L168.849 76.6714L159.418 80.0755C159.418 80.0755 159.355 80.0818 159.323 80.0691L154.123 77.0581L135.957 80.4622L134.082 84.3734V84.3671Z" fill="#263238"/>
<path d="M112.218 147.821H128.306L127.894 118.864L115.34 98.3384C115.34 98.3384 114.631 100.994 114.454 106.3C114.276 111.606 112.211 147.821 112.211 147.821H112.218Z" fill="#263238"/>
<path d="M165.087 78.1106C165.087 78.1106 169.609 75.6954 173.498 76.2279C177.387 76.7604 181.485 76.6653 181.485 76.6653L176.672 56.9823L189.827 51.1187C189.827 51.1187 199.125 74.6304 199.835 80.4687C200.544 86.3071 199.366 87.3784 196.959 89.952C195.148 91.8918 185.343 98.3323 185.343 98.3323L179.313 102.364L169.964 94.7951L165.087 78.1042V78.1106Z" fill="#263238"/>
<path d="M176.342 99.9931C176.342 99.9931 176.076 99.7649 175.639 99.3084C175.417 99.0802 175.151 98.795 174.873 98.4463C174.588 98.0977 174.246 97.711 173.923 97.2482C173.239 96.3481 172.504 95.207 171.782 93.8885C171.079 92.5636 170.401 91.0486 169.85 89.4067C169.312 87.7586 168.951 86.1421 168.716 84.6588C168.507 83.1691 168.406 81.8188 168.418 80.6841C168.399 80.12 168.444 79.6065 168.463 79.1564C168.475 78.7063 168.52 78.3196 168.558 78.009C168.634 77.3815 168.684 77.0328 168.71 77.0391C168.735 77.0391 168.722 77.3941 168.684 78.0217C168.659 78.3387 168.64 78.719 168.64 79.1691C168.64 79.6192 168.608 80.1263 168.64 80.6905C168.659 81.8188 168.779 83.1501 169.008 84.6207C169.255 86.0851 169.622 87.6825 170.154 89.3117C170.705 90.9345 171.364 92.4305 172.041 93.7554C172.738 95.0676 173.441 96.2086 174.1 97.1215C174.41 97.5905 174.733 97.9836 175.006 98.3386C175.272 98.6999 175.519 98.9915 175.728 99.2324C176.133 99.7141 176.348 99.9867 176.336 100.006L176.342 99.9931Z" fill="#455A64"/>
<path d="M154.585 76.2275C154.585 76.2275 147.992 96.3352 148.201 105.058C148.403 113.787 148.201 135.143 148.201 135.143C148.201 135.143 138.136 128.474 136.768 108.227C135.85 94.6997 135.964 80.4557 135.964 80.4557L154.592 76.2275H154.585Z" fill="#FAFAFA"/>
<path d="M148.853 134.085C148.853 134.085 148.847 134.028 148.853 133.926C148.853 133.8 148.866 133.647 148.872 133.457C148.897 133.014 148.935 132.411 148.98 131.644C149.094 130.072 149.328 127.796 149.733 125.007C150.158 122.218 150.779 118.915 151.634 115.283C152.489 111.651 153.578 107.695 154.839 103.581C156.618 97.7745 158.487 92.4306 160.039 87.9425L160.153 88.1264C158.462 87.9235 156.884 87.7333 155.447 87.5558L155.124 87.5178L155.396 87.3403C157.258 86.0978 158.835 85.0519 160.102 84.2088L160.064 84.2912C159.817 82.9536 159.627 81.9077 159.488 81.166C159.431 80.83 159.386 80.5575 159.348 80.3546C159.317 80.1708 159.31 80.0757 159.317 80.0757C159.323 80.0757 159.348 80.1644 159.393 80.3483C159.437 80.5511 159.5 80.8174 159.57 81.1533C159.722 81.8887 159.944 82.9346 160.222 84.2658L160.235 84.3165L160.191 84.3482C158.937 85.204 157.372 86.2753 155.529 87.5432L155.478 87.3213C156.916 87.4861 158.493 87.6573 160.191 87.8474L160.362 87.8664L160.305 88.0313C158.785 92.532 156.935 97.8822 155.155 103.676C153.895 107.784 152.793 111.733 151.931 115.353C151.064 118.972 150.418 122.262 149.968 125.045C149.531 127.828 149.265 130.091 149.106 131.657C149.037 132.418 148.98 133.026 148.935 133.464C148.916 133.654 148.897 133.806 148.885 133.933C148.872 134.041 148.859 134.091 148.853 134.091V134.085Z" fill="#455A64"/>
<path d="M147.966 136.703C147.966 136.703 147.916 136.684 147.814 136.627C147.7 136.563 147.567 136.481 147.396 136.38C147.029 136.158 146.491 135.822 145.806 135.372C144.445 134.472 142.475 133.172 140.169 131.365C139.599 130.846 139.207 130.174 138.814 129.476C138.421 128.779 138.066 128.025 137.705 127.245C136.996 125.679 136.312 123.974 135.622 122.174C134.247 118.567 132.879 114.548 131.498 110.313C130.269 106.516 129.142 102.865 128.148 99.4987L128.129 99.4416L128.154 99.3846C129.345 97.0518 130.453 94.8838 131.466 92.8997L131.587 93.0962C130.415 93.0962 129.326 93.0835 128.293 93.0835H128.065L128.192 92.8933C129.984 90.2689 131.435 88.139 132.461 86.6366C132.961 85.9203 133.354 85.3498 133.639 84.9441C133.766 84.7666 133.867 84.6208 133.949 84.5067C134.019 84.4116 134.063 84.3609 134.063 84.3672C134.063 84.3672 134.038 84.4243 133.975 84.5257C133.899 84.6462 133.804 84.792 133.69 84.9821C133.417 85.4005 133.044 85.9774 132.569 86.7127C131.568 88.2277 130.143 90.383 128.388 93.0328L128.287 92.8426C129.313 92.8426 130.409 92.8363 131.581 92.8299H131.802L131.701 93.0265C130.7 95.0106 129.604 97.1913 128.426 99.524L128.439 99.4099C129.446 102.77 130.58 106.415 131.802 110.212C133.177 114.446 134.538 118.459 135.894 122.066C136.572 123.866 137.249 125.571 137.94 127.137C138.288 127.917 138.643 128.665 139.023 129.356C139.397 130.047 139.796 130.719 140.302 131.188C142.57 133.007 144.521 134.338 145.863 135.27C146.522 135.72 147.042 136.069 147.415 136.329C147.58 136.443 147.713 136.532 147.821 136.608C147.909 136.671 147.954 136.709 147.954 136.709L147.966 136.703Z" fill="#455A64"/>
<path d="M151.653 147.581C151.615 147.6 151.304 147.029 150.855 146.091C150.405 145.153 149.784 143.847 149.233 142.345C148.682 140.842 148.315 139.448 148.049 138.44C147.789 137.432 147.65 136.798 147.694 136.785C147.738 136.773 147.954 137.381 148.27 138.376C148.593 139.365 148.999 140.747 149.537 142.237C150.082 143.72 150.671 145.033 151.064 146.002C151.463 146.966 151.691 147.568 151.653 147.587V147.581Z" fill="#455A64"/>
<path d="M163.883 125.458C163.883 125.458 163.788 125.679 163.573 126.047C163.358 126.415 163.022 126.941 162.591 127.569C161.73 128.836 160.457 130.529 158.899 132.279C157.341 134.022 155.801 135.48 154.642 136.481C154.066 136.982 153.585 137.375 153.242 137.629C152.9 137.889 152.704 138.022 152.691 138.003C152.66 137.965 153.375 137.343 154.49 136.304C155.605 135.264 157.106 133.787 158.658 132.057C160.203 130.32 161.502 128.659 162.401 127.435C163.307 126.212 163.839 125.432 163.883 125.458Z" fill="#455A64"/>
<path d="M130.58 147.587C130.491 147.612 127.97 139.752 124.949 130.028C121.921 120.303 119.546 112.398 119.628 112.373C119.711 112.348 122.238 120.208 125.259 129.932C128.281 139.657 130.662 147.562 130.58 147.587Z" fill="#455A64"/>
<path d="M156.587 107.632C156.587 107.632 156.694 107.816 156.859 108.183C157.036 108.589 157.271 109.128 157.562 109.8L157.448 109.756C160.083 108.393 165.207 105.813 171.091 102.89L171.028 103.138V103.125C170.35 102.193 169.692 101.274 169.058 100.393L169.274 100.437C165.79 102.561 162.585 104.177 160.254 105.236C159.089 105.768 158.145 106.161 157.493 106.428C157.188 106.542 156.941 106.637 156.739 106.719C156.568 106.782 156.473 106.808 156.466 106.802C156.466 106.795 156.549 106.744 156.713 106.668C156.91 106.573 157.15 106.466 157.448 106.326C158.088 106.034 159.019 105.603 160.165 105.052C162.465 103.943 165.638 102.301 169.103 100.171L169.229 100.095L169.318 100.215C169.951 101.096 170.61 102.009 171.281 102.941V102.954L171.402 103.112L171.224 103.201C165.34 106.123 160.191 108.64 157.505 109.914L157.423 109.952L157.391 109.87C157.131 109.185 156.922 108.64 156.764 108.221C156.625 107.847 156.561 107.645 156.574 107.638L156.587 107.632Z" fill="#455A64"/>
<path d="M141.423 90.6872L142.842 92.741H145.04L145.977 89.9645L143.336 87.1816L141.423 90.6872Z" fill="#3C5AE7"/>
<path d="M143.171 92.1326C143.171 92.1326 141.632 95.3846 141.29 98.345C141.056 100.367 139.96 118.186 139.96 118.186L141.563 126.82C141.563 126.82 144.21 132.411 148.188 135.15C148.188 135.15 148.454 106.763 148.207 103.759C148.169 103.308 148.308 102.624 148.384 101.876C148.663 99.2768 148.074 96.6588 146.712 94.4274C145.844 93.0011 145.04 91.6952 145.027 91.7523C145.008 91.8664 143.159 92.1326 143.159 92.1326H143.171Z" fill="#3C5AE7"/>
<path d="M182.866 90.7823C182.866 90.7823 182.739 90.6175 182.562 90.2815C182.372 89.9519 182.182 89.4384 181.973 88.7981C181.574 87.505 181.333 85.6413 181.314 83.5937C181.302 81.5462 181.441 79.7015 181.473 78.3703C181.498 77.7047 181.479 77.1722 181.454 76.7982C181.416 76.4369 181.371 76.234 181.397 76.2213C181.409 76.215 181.498 76.4052 181.58 76.7792C181.65 77.1532 181.701 77.6984 181.707 78.3703C181.732 79.7142 181.631 81.5589 181.644 83.5874C181.663 85.6159 181.865 87.4479 182.201 88.7284C182.53 90.0089 182.929 90.7442 182.872 90.7696L182.866 90.7823Z" fill="#455A64"/>
<path d="M151.634 86.1802C151.634 86.1802 151.602 86.3703 151.507 86.7127C151.393 87.093 151.247 87.5875 151.07 88.196C150.665 89.5209 150.101 91.3339 149.429 93.5019L149.36 93.7237L149.195 93.5526C147.466 91.7459 145.414 89.597 143.203 87.2895L143.469 87.2578C143.412 87.3592 143.355 87.467 143.298 87.5748C141.708 90.4718 140.226 93.1722 138.979 95.4416L138.839 95.7015L138.732 95.4289C137.889 93.3053 137.186 91.5304 136.673 90.2309C136.445 89.635 136.261 89.1469 136.122 88.7729C136.002 88.4369 135.938 88.2531 135.951 88.2467C135.964 88.2404 136.052 88.4115 136.198 88.7412C136.356 89.1089 136.565 89.5843 136.825 90.1738C137.363 91.4607 138.104 93.2229 138.991 95.3275L138.738 95.3148C139.973 93.0328 141.442 90.326 143.013 87.4226C143.07 87.3149 143.134 87.2071 143.184 87.1057L143.292 86.9092L143.45 87.074C145.642 89.3941 147.681 91.5557 149.404 93.3751L149.17 93.4258C149.886 91.2705 150.481 89.4702 150.918 88.158C151.127 87.5621 151.298 87.074 151.425 86.6936C151.545 86.3577 151.615 86.1802 151.634 86.1865V86.1802Z" fill="#263238"/>
<path d="M145.205 91.9361C145.23 92.0248 144.711 92.2467 144.052 92.4369C143.387 92.6271 142.83 92.7095 142.804 92.6207C142.779 92.532 143.298 92.3101 143.957 92.1199C144.622 91.9298 145.179 91.8473 145.205 91.9361Z" fill="#263238"/>
<path d="M142.931 92.4242C142.849 92.3925 143.108 91.4733 143.52 90.3767C143.932 89.28 144.331 88.4115 144.419 88.4432C144.502 88.4749 144.242 89.3941 143.83 90.4908C143.419 91.5874 143.02 92.4559 142.931 92.4242Z" fill="#263238"/>
<path d="M143.469 101.908C143.425 101.908 143.412 101.369 143.425 100.507C143.438 99.6445 143.482 98.4464 143.552 97.1279C143.621 95.8094 143.704 94.6176 143.773 93.7555C143.849 92.8934 143.919 92.3609 143.963 92.3672C144.008 92.3672 144.02 92.9061 144.008 93.7745C143.995 94.6366 143.951 95.8347 143.881 97.1469C143.811 98.4655 143.729 99.6509 143.659 100.513C143.583 101.375 143.514 101.908 143.469 101.908Z" fill="#263238"/>
<path d="M145.724 102.041C145.68 102.047 145.534 101.514 145.35 100.633C145.167 99.7584 144.939 98.5413 144.73 97.1848C144.521 95.8345 144.369 94.6048 144.28 93.7109C144.191 92.8171 144.166 92.2656 144.21 92.2593C144.255 92.2593 144.362 92.7981 144.508 93.6792C144.666 94.6872 144.85 95.8472 145.053 97.1341C145.249 98.4146 145.426 99.5809 145.578 100.589C145.705 101.476 145.768 102.028 145.724 102.034V102.041Z" fill="#263238"/>
<path d="M164.422 44.0251C164.422 44.0251 168.545 46.8967 169.502 48.1201C170.458 49.3436 171.465 49.8444 171.465 49.8444L178.584 53.033L186.787 49.5464L182.53 34.5164C182.53 34.5164 180.066 28.8176 178.103 29.35C178.103 29.35 177.147 29.6163 177.539 30.8714C177.539 30.8714 175.842 25.2613 174.144 25.7621C172.447 26.2629 173.783 28.4816 174.512 30.5545C175.24 32.6274 175.417 33.2866 175.417 33.2866L172.789 27.125C172.789 27.125 172.155 25.4261 170.813 26.2058C169.47 26.9856 171.117 29.5212 171.294 30.4911C171.471 31.461 173.992 37.5021 173.992 37.5021C173.992 37.5021 171.256 32.938 171.129 32.6337C170.996 32.3358 169.977 28.7605 168.387 29.3374C166.797 29.9142 168.697 33.686 169.026 34.8144C169.356 35.9491 172.035 40.7478 172.149 41.6352C172.269 42.5227 172.909 44.2913 172.231 44.9696C171.554 45.6479 169.141 42.8016 167.943 42.6495C166.746 42.491 164.485 42.1487 164.415 44.0187L164.422 44.0251Z" fill="#FFBE9D"/>
<path d="M179.591 46.586C179.541 46.6177 179.306 46.174 178.673 45.7556C178.046 45.3245 177.02 45.0076 175.842 45.0393C174.664 45.0456 173.612 45.2675 172.808 45.3055C172.409 45.3182 172.073 45.2675 171.864 45.1787C171.649 45.0963 171.56 45.0013 171.573 44.9886C171.592 44.9505 172.029 45.1787 172.795 45.071C173.549 44.9822 174.626 44.716 175.842 44.7097C177.064 44.6716 178.185 45.052 178.812 45.5654C179.458 46.0726 179.623 46.5797 179.591 46.586Z" fill="#EB996E"/>
<path d="M180.294 37.6161C180.294 37.6161 179.927 37.3119 179.769 36.6019C179.572 35.9173 179.655 34.903 179.211 34.0028C178.977 33.5591 178.641 33.1851 178.35 32.8238C178.052 32.4688 177.812 32.1074 177.666 31.7778C177.362 31.0995 177.501 30.6178 177.539 30.6368C177.59 30.6368 177.539 31.0805 177.875 31.67C178.033 31.968 178.28 32.2849 178.584 32.6209C178.882 32.9632 179.243 33.3436 179.503 33.8444C179.762 34.3515 179.838 34.884 179.883 35.3404C179.927 35.8031 179.946 36.2089 179.997 36.5448C180.092 37.2231 180.345 37.5718 180.294 37.6035V37.6161Z" fill="#EB996E"/>
<path d="M176.678 56.9887C176.678 56.9887 181.156 58.8397 186.033 56.3611C190.91 53.8825 189.833 51.1313 189.833 51.1313L176.678 56.995V56.9887Z" fill="#455A64"/>
<path d="M178.591 53.0775L180.181 57.8001C184.082 57.667 186.723 56.9507 188.56 54.6496L186.616 48.9634L178.591 53.0711V53.0775Z" fill="#FFBE9D"/>
<path d="M177.21 54.7128L178.217 57.4133C178.217 57.4133 181.359 58.6811 185.596 56.8174C185.596 56.8174 188.345 55.8348 189.479 53.445L188.332 50.3198L177.21 54.7128Z" fill="#F5F5F5"/>
<g opacity="0.3">
<path d="M169.147 86.1802C169.147 86.1802 169.654 93.5716 171.706 99.898C172.928 103.663 175.354 106.922 178.553 109.248L180.32 110.535L179.959 102.041C179.959 102.041 174.334 102.675 169.153 86.1802H169.147Z" fill="black"/>
<path d="M180.332 110.567L180.307 110.548L178.54 109.261C176.938 108.094 175.531 106.7 174.372 105.121C173.194 103.524 172.295 101.768 171.687 99.9042C169.66 93.6475 169.134 86.2561 169.128 86.18V86.0469L169.159 86.1737C170.344 89.9327 171.642 93.1086 173.036 95.6063C174.144 97.6031 175.316 99.1752 176.507 100.278C177.565 101.261 178.445 101.679 179.002 101.863C179.598 102.059 179.952 102.021 179.952 102.021H179.971V102.034L180.339 110.56L180.332 110.567ZM169.172 86.3195C169.254 87.3591 169.844 94.1166 171.718 99.8978C172.32 101.762 173.226 103.511 174.398 105.109C175.557 106.687 176.957 108.075 178.559 109.242L180.301 110.509L179.94 102.066C179.94 102.066 179.902 102.066 179.876 102.066C179.737 102.066 179.427 102.047 178.99 101.901C178.432 101.717 177.546 101.299 176.481 100.31C175.291 99.2005 174.119 97.6284 173.004 95.6253C171.63 93.153 170.338 90.0215 169.166 86.3195H169.172Z" fill="#455A64"/>
</g>
<g opacity="0.3">
<path d="M149.106 133.096C149.106 133.096 156.618 105.267 158.892 98.3448C161.166 91.4225 162.465 87.1816 162.465 87.1816L158.291 86.6555L160.957 84.9249L159.722 81.0264L160.153 84.2656L155.472 87.4289L160.178 87.9804C160.178 87.9804 151.406 114.117 150.278 122.478C149.03 131.733 149.113 133.096 149.113 133.096H149.106Z" fill="black"/>
<path d="M149.094 133.197V133.102C149.094 133.102 149.024 131.631 150.253 122.478C151.355 114.3 159.868 88.8171 160.146 87.9931L155.415 87.4416L155.453 87.4162L160.127 84.2593L159.697 81.0327H159.728L160.97 84.9313H160.957L158.329 86.6492L162.477 87.169V87.188C162.458 87.2324 161.147 91.5049 158.905 98.3512C156.663 105.197 149.195 132.823 149.119 133.102L149.094 133.197ZM155.504 87.4162L160.184 87.9614V87.9804C160.089 88.2403 151.393 114.212 150.278 122.478C149.227 130.288 149.119 132.494 149.113 132.975C149.645 131.01 156.694 104.957 158.867 98.3385C161.039 91.7205 162.338 87.5049 162.433 87.1943L158.24 86.6682L158.278 86.6428L160.932 84.9186L159.754 81.2039L160.159 84.272H160.153L155.504 87.4162Z" fill="#455A64"/>
</g>
<g opacity="0.3">
<path d="M157.961 109.591L158.671 110.535L171.167 103.955L170.8 103.22L157.961 109.591Z" fill="black"/>
<path d="M158.664 110.56V110.548L157.936 109.584H157.955L170.806 103.194V103.207L171.186 103.961H171.174L158.664 110.554V110.56ZM157.987 109.597L158.677 110.516L171.148 103.949L170.794 103.239L157.987 109.597Z" fill="#455A64"/>
</g>
<g opacity="0.3">
<path d="M149.537 139.422C149.67 140.348 150.747 141.013 151.634 140.715C152.52 140.417 152.983 139.238 152.533 138.42C157.138 136.69 160.925 132.905 162.674 128.297C160.216 129.793 158.341 132.05 156.365 134.142C154.389 136.233 152.172 138.262 149.417 139.086" fill="black"/>
</g>
<path d="M151.127 137.178C150.373 136.982 149.512 137.508 149.341 138.268C149.17 139.029 149.714 139.872 150.475 140.037C151.235 140.202 152.077 139.644 152.235 138.883C152.394 138.123 151.893 137.349 151.133 137.178H151.127Z" fill="#455A64"/>
<g opacity="0.3">
<path d="M141.569 126.814C141.569 126.814 145.268 132.158 146.573 132.221C147.371 132.259 148.213 103.752 148.213 103.752C148.213 103.752 148.289 134.947 148.194 135.143C147.688 134.985 143.818 131.638 141.569 126.814Z" fill="black"/>
<path d="M148.207 135.162H148.194C147.916 135.067 146.801 134.154 145.528 132.741C144.381 131.467 142.76 129.4 141.556 126.82L141.582 126.807C141.62 126.858 145.287 132.145 146.573 132.208C146.573 132.208 146.586 132.208 146.592 132.196C147.365 131.479 148.188 104.031 148.194 103.752H148.226C148.226 105.026 148.302 134.953 148.207 135.15V135.162ZM141.664 126.978C143.868 131.6 147.605 134.896 148.188 135.124C148.264 134.402 148.22 109.926 148.207 104.722C148.049 109.698 147.333 131.562 146.624 132.221C146.611 132.234 146.598 132.24 146.579 132.24C145.388 132.183 142.297 127.872 141.67 126.978H141.664Z" fill="#455A64"/>
</g>
<g opacity="0.3">
<path d="M142.906 92.7602C143.178 92.7222 143.444 92.6905 143.716 92.6524C143.514 94.5098 143.311 96.3925 143.59 98.2372C143.723 97.0771 143.856 95.9171 143.989 94.7507C144.343 96.7412 144.692 98.738 145.046 100.728C145.065 100.836 145.091 100.95 145.167 101.026C145.243 101.102 145.395 101.115 145.445 101.02C145.471 100.969 145.464 100.906 145.458 100.849C145.04 98.0597 144.622 95.2705 144.204 92.4813C144.489 92.3165 144.774 92.158 145.059 91.9932C144.274 92.0249 143.501 92.2341 142.811 92.6081" fill="black"/>
<path d="M142.811 92.6143C142.811 92.6143 142.975 92.4748 143.349 92.31C143.716 92.1515 144.293 91.955 145.053 91.9106L145.426 91.8916L145.103 92.0818C144.844 92.2339 144.559 92.3987 144.255 92.5826L144.305 92.4748C144.514 93.7743 144.768 95.3781 145.059 97.2038C145.205 98.1293 145.35 99.1055 145.509 100.132C145.547 100.399 145.591 100.627 145.623 100.931C145.642 101.02 145.559 101.216 145.414 101.248C145.287 101.286 145.173 101.254 145.078 101.185C144.894 101.026 144.901 100.842 144.869 100.722C144.774 100.189 144.679 99.6507 144.584 99.1055C144.318 97.5968 144.065 96.1515 143.83 94.7886L144.141 94.7759C143.989 96.0247 143.849 97.1911 143.723 98.2561L143.596 99.3147L143.45 98.2624C143.267 96.9439 143.33 95.7775 143.406 94.8329C143.488 93.8821 143.59 93.1467 143.659 92.6523L143.716 92.7093C143.172 92.7664 142.906 92.7791 142.899 92.7664C142.899 92.7474 143.159 92.6967 143.704 92.6079L143.767 92.5952V92.665C143.729 93.1594 143.653 93.9011 143.602 94.8456C143.558 95.7901 143.52 96.9439 143.723 98.2244H143.45C143.564 97.1594 143.691 95.993 143.83 94.7442L143.951 93.6539L144.141 94.7315C144.381 96.0881 144.641 97.5397 144.907 99.0421C145.002 99.5873 145.097 100.126 145.192 100.659C145.211 100.792 145.243 100.906 145.274 100.925C145.281 100.938 145.312 100.931 145.312 100.938C145.312 100.963 145.344 100.976 145.312 100.963C145.287 100.95 145.287 100.957 145.287 100.938C145.249 100.684 145.211 100.43 145.179 100.183C145.027 99.1626 144.888 98.18 144.755 97.2545C144.495 95.4288 144.274 93.8123 144.09 92.5128L144.077 92.4368L144.141 92.4051C144.451 92.2339 144.742 92.0754 145.002 91.936L145.053 92.1071C144.312 92.1261 143.748 92.291 143.374 92.4177C143.001 92.5509 142.811 92.646 142.804 92.6333L142.811 92.6143Z" fill="#455A64"/>
</g>
<path d="M160.704 35.8348C157.765 35.1375 154.927 37.9076 151.938 37.5146C150.12 37.2801 148.676 35.9298 147.023 35.1375C144.552 33.952 141.157 33.952 138.801 35.3466C136.439 36.7412 134.956 38.1675 134.792 40.8997C132.493 39.765 128.965 42.7951 127.875 45.578C126.786 48.3608 127.28 51.1247 128.179 53.9709C129.731 58.8711 132.252 63.4606 135.552 67.3908C135.843 67.7395 136.299 68.1135 136.698 67.898C136.977 67.7458 137.047 67.3845 137.072 67.0739C137.325 64.4051 136.825 61.7237 136.426 59.0739C136.027 56.4178 135.742 53.6793 136.426 51.0803C137.104 48.4876 138.947 46.0407 141.537 45.3561C143.45 44.849 145.509 45.3561 147.289 46.2119C149.075 47.0677 150.671 48.2721 152.381 49.2673C154.091 50.2626 155.991 51.074 157.974 51.0359C159.956 50.9979 162.015 49.9266 162.743 48.0883C163.472 46.2436 162.363 43.7586 160.406 43.4734C162.173 43.1945 163.624 41.5653 163.693 39.7777C163.763 37.9901 162.439 36.2468 160.704 35.8348Z" fill="#263238"/>
<path d="M160.913 67.5557C160.596 63.898 159.336 56.4242 158.113 49.6667C156.802 42.4021 150.132 37.3625 142.791 38.0915L142.063 38.1612C134.247 39.3974 130.928 46.738 132.379 54.5225L136.078 81.3496L143.33 87.1752L154.053 78.0596L154.338 76.9819C154.338 76.9819 161.559 75.1246 160.906 67.5493L160.913 67.5557Z" fill="#FFBE9D"/>
<path d="M154.345 76.9883C154.345 76.9883 149.391 77.9075 144.001 75.2197C144.001 75.2197 146.586 79.4923 154.06 78.066L154.345 76.9883Z" fill="#EB996E"/>
<path d="M155.953 56.0061C156.029 56.5767 155.611 57.1092 155.022 57.1979C154.433 57.2866 153.888 56.9 153.812 56.3358C153.736 55.7653 154.154 55.2328 154.743 55.144C155.333 55.0553 155.877 55.442 155.953 56.0061Z" fill="#263238"/>
<path d="M156.853 53.5275C156.732 53.6796 155.858 53.1598 154.693 53.2739C153.534 53.3754 152.736 54.06 152.596 53.9269C152.527 53.8698 152.641 53.6036 152.983 53.2929C153.318 52.9887 153.92 52.6654 154.642 52.5956C155.364 52.5259 156.004 52.7351 156.378 52.9697C156.764 53.2105 156.91 53.4514 156.846 53.5212L156.853 53.5275Z" fill="#263238"/>
<path d="M145.021 57.2356C145.097 57.8062 144.679 58.3386 144.09 58.4274C143.501 58.5161 142.956 58.1294 142.88 57.5653C142.804 56.9947 143.222 56.4623 143.811 56.3735C144.4 56.2848 144.945 56.6715 145.021 57.2356Z" fill="#263238"/>
<path d="M145.458 54.8712C145.338 55.0234 144.457 54.5036 143.298 54.6177C142.139 54.7191 141.341 55.4037 141.202 55.2706C141.132 55.2136 141.246 54.9473 141.588 54.6367C141.924 54.3324 142.525 54.0091 143.248 53.9394C143.97 53.8697 144.609 54.0789 144.983 54.3134C145.363 54.5543 145.515 54.7952 145.452 54.8649L145.458 54.8712Z" fill="#263238"/>
<path d="M150.525 63.0741C150.512 63.0107 151.222 62.8142 152.375 62.548C152.666 62.4909 152.945 62.4022 152.97 62.193C153.021 61.9711 152.862 61.6669 152.685 61.3309C152.337 60.6399 151.969 59.9173 151.583 59.1566C150.044 56.0567 148.904 53.5021 149.03 53.4387C149.157 53.3753 150.5 55.8412 152.039 58.9347C152.413 59.7017 152.767 60.4307 153.103 61.128C153.249 61.4513 153.477 61.819 153.369 62.2754C153.312 62.5036 153.109 62.6875 152.926 62.7572C152.742 62.8333 152.577 62.8523 152.432 62.8776C151.26 63.0551 150.532 63.1375 150.519 63.0678L150.525 63.0741Z" fill="#263238"/>
<path d="M147.187 64.2218C147.377 64.1901 147.504 65.4516 148.669 66.244C149.835 67.0363 151.165 66.7638 151.19 66.9349C151.216 67.011 150.918 67.2075 150.348 67.2836C149.79 67.3596 148.961 67.2582 148.251 66.7764C147.542 66.2947 147.181 65.5847 147.092 65.0712C146.991 64.5514 147.098 64.2218 147.187 64.2218Z" fill="#263238"/>
<path d="M144.983 48.9063C144.901 49.2359 143.723 49.1979 142.38 49.4958C141.024 49.7684 139.967 50.2755 139.758 50.0093C139.663 49.8825 139.827 49.5655 140.239 49.2169C140.651 48.8682 141.322 48.5069 142.133 48.3357C142.944 48.1646 143.704 48.2216 144.223 48.3738C144.742 48.5259 145.021 48.7478 144.983 48.9063Z" fill="#263238"/>
<path d="M156.093 50.206C155.915 50.4912 155.086 50.2947 154.123 50.3771C153.154 50.4278 152.362 50.7321 152.147 50.4722C152.052 50.3454 152.153 50.0665 152.482 49.7812C152.805 49.496 153.375 49.2361 154.041 49.1917C154.706 49.1473 155.301 49.3312 155.662 49.5657C156.029 49.8066 156.169 50.0665 156.093 50.1996V50.206Z" fill="#263238"/>
<path d="M133.55 60.0693C133.417 60.0249 128.205 59.0487 128.882 64.2024C129.56 69.3561 134.589 67.6128 134.583 67.4671C134.57 67.3213 133.557 60.0693 133.557 60.0693H133.55Z" fill="#FFBE9D"/>
<path d="M132.746 65.7174C132.746 65.7174 132.664 65.7934 132.524 65.8822C132.385 65.9709 132.138 66.047 131.853 65.9836C131.283 65.8568 130.713 65.0518 130.567 64.1262C130.491 63.6571 130.529 63.2007 130.649 62.8077C130.757 62.4083 130.966 62.1167 131.232 62.028C131.498 61.9266 131.714 62.066 131.796 62.2055C131.885 62.3386 131.866 62.4464 131.891 62.4527C131.91 62.4654 131.992 62.3513 131.923 62.1421C131.891 62.0407 131.809 61.9266 131.676 61.8442C131.536 61.7618 131.353 61.7301 131.163 61.7808C130.77 61.8632 130.459 62.2752 130.333 62.7063C130.181 63.1437 130.124 63.6571 130.212 64.1833C130.383 65.2166 131.042 66.1231 131.815 66.2372C132.189 66.2815 132.48 66.1357 132.619 65.9899C132.765 65.8441 132.771 65.7237 132.752 65.7174H132.746Z" fill="#EB996E"/>
<path d="M157.505 42.5987C156.688 41.1787 155.371 40.1074 153.971 39.2516C150.956 37.4069 147.384 36.4307 143.862 36.7223C140.34 37.0139 136.907 38.6304 134.608 41.3118C132.765 43.4608 131.701 46.2056 131.353 49.0138C131.004 51.8221 131.087 55.5431 131.859 58.2626C132.195 59.4544 132.923 59.8284 133.867 60.6398C134.456 61.1469 135.406 61.4195 135.97 60.8933C136.306 60.5827 136.388 60.0946 136.451 59.6382C137.053 55.5495 137.61 51.1628 135.767 47.4608C136.629 46.0725 137.661 44.7603 139.004 43.8348C140.347 42.9093 142.038 42.4022 143.634 42.7255C146.009 43.2072 147.65 45.3118 149.639 46.6874C152.489 48.6589 156.308 49.128 159.551 47.9108L157.499 42.586L157.505 42.5987Z" fill="#263238"/>
<path d="M127.641 52.1898C127.641 52.1328 128.198 52.1454 129.066 51.9996C129.934 51.8602 131.112 51.5052 132.265 50.8269C133.417 50.1423 134.291 49.2738 134.83 48.5829C135.375 47.8919 135.628 47.3975 135.679 47.4228C135.71 47.4355 135.527 47.968 135.014 48.7223C134.507 49.4703 133.626 50.3958 132.429 51.1122C131.232 51.8158 129.997 52.1454 129.098 52.2342C128.198 52.3229 127.641 52.2279 127.641 52.1898Z" fill="#E0E0E0"/>
<path d="M127.957 54.7316C127.945 54.6745 128.54 54.5667 129.44 54.2498C130.339 53.9328 131.542 53.356 132.689 52.4558C133.835 51.5557 134.678 50.5224 135.203 49.7237C135.729 48.9249 135.976 48.3734 136.027 48.3988C136.059 48.4115 135.888 48.9947 135.406 49.8504C134.925 50.6999 134.082 51.7902 132.898 52.7221C131.713 53.6476 130.459 54.2118 129.516 54.478C128.572 54.7506 127.964 54.7759 127.964 54.7379L127.957 54.7316Z" fill="#E0E0E0"/>
<path d="M161.818 45.0643C161.856 45.0707 161.837 45.432 161.609 45.9581C161.394 46.4843 160.938 47.1689 160.222 47.6887C159.507 48.2085 158.709 48.424 158.145 48.4621C157.575 48.5065 157.226 48.4177 157.233 48.3797C157.233 48.329 157.581 48.3353 158.113 48.2339C158.645 48.1388 159.367 47.9042 160.032 47.4225C160.697 46.9407 161.147 46.3321 161.407 45.8567C161.673 45.3813 161.774 45.0516 161.825 45.0643H161.818Z" fill="#E0E0E0"/>
<path d="M162.522 46.0787C162.56 46.0851 162.522 46.4274 162.313 46.9345C162.104 47.4416 161.679 48.0946 161.04 48.6461C160.4 49.1976 159.684 49.5145 159.158 49.6413C158.626 49.7744 158.284 49.7554 158.278 49.7174C158.253 49.6159 159.614 49.4511 160.824 48.3925C162.059 47.3592 162.433 46.0343 162.528 46.0787H162.522Z" fill="#E0E0E0"/>
<path d="M198.644 149.837H99.645V288.467H198.644V149.837Z" fill="#455A64"/>
<path d="M199.923 179.218H98.5872C97.3078 179.218 96.269 178.179 96.269 176.898C96.269 175.618 97.3078 174.578 98.5872 174.578H199.923C201.203 174.578 202.242 175.618 202.242 176.898C202.242 178.179 201.203 179.218 199.923 179.218Z" fill="#455A64"/>
<path d="M204.959 145.926H93.1654V153.742H204.959V145.926Z" fill="#455A64"/>
<path d="M200.183 179.219C200.183 179.307 177.381 179.383 149.258 179.383C121.136 179.383 98.3339 179.307 98.3339 179.219C98.3339 179.13 121.13 179.054 149.258 179.054C177.387 179.054 200.183 179.13 200.183 179.219Z" fill="#263238"/>
<path d="M200.183 174.585C200.183 174.673 177.381 174.75 149.258 174.75C121.136 174.75 98.3339 174.673 98.3339 174.585C98.3339 174.496 121.13 174.42 149.258 174.42C177.387 174.42 200.183 174.496 200.183 174.585Z" fill="#263238"/>
<path d="M200.183 153.571C200.183 153.66 177.381 153.736 149.258 153.736C121.136 153.736 98.3339 153.66 98.3339 153.571C98.3339 153.482 121.13 153.406 149.258 153.406C177.387 153.406 200.183 153.482 200.183 153.571Z" fill="#263238"/>
<path d="M174.157 170.572C174.157 170.572 174.157 170.496 174.144 170.356C174.144 170.204 174.144 170.008 174.132 169.748C174.132 169.203 174.119 168.417 174.106 167.402C174.094 165.349 174.075 162.376 174.056 158.61L174.151 158.705C162.851 158.718 144.299 158.743 123.346 158.775C123.676 158.445 123.435 158.686 123.511 158.61V160.138C123.511 160.645 123.511 161.152 123.511 161.659C123.511 162.674 123.511 163.675 123.511 164.677C123.511 166.673 123.511 168.639 123.511 170.572L123.346 170.407C137.794 170.439 150.468 170.464 159.551 170.483C164.086 170.502 167.728 170.521 170.249 170.528C171.497 170.534 172.466 170.547 173.137 170.547C173.46 170.547 173.707 170.553 173.891 170.559C174.062 170.559 174.157 170.572 174.157 170.572C174.157 170.572 174.081 170.578 173.916 170.585C173.739 170.585 173.498 170.585 173.182 170.597C172.517 170.597 171.56 170.61 170.331 170.616C167.823 170.629 164.194 170.642 159.671 170.661C150.563 170.68 137.845 170.705 123.353 170.737H123.188V170.572C123.188 168.645 123.188 166.673 123.188 164.677C123.188 163.675 123.188 162.674 123.188 161.659C123.188 161.152 123.188 160.645 123.188 160.138V159.371V158.99V158.616C123.264 158.534 123.023 158.775 123.353 158.445C144.305 158.471 162.851 158.496 174.157 158.515H174.252V158.61C174.227 162.401 174.214 165.393 174.201 167.46C174.189 168.467 174.182 169.247 174.176 169.786C174.176 170.04 174.17 170.23 174.163 170.376C174.163 170.509 174.157 170.572 174.151 170.572H174.157Z" fill="#263238"/>
<path d="M117.272 288.467C117.184 288.467 117.108 266.388 117.108 239.155C117.108 211.922 117.184 189.837 117.272 189.837C117.361 189.837 117.437 211.91 117.437 239.155C117.437 266.401 117.361 288.467 117.272 288.467Z" fill="#263238"/>
<path d="M180.922 288.467C180.833 288.467 180.757 266.388 180.757 239.155C180.757 211.922 180.833 189.837 180.922 189.837C181.01 189.837 181.086 211.91 181.086 239.155C181.086 266.401 181.01 288.467 180.922 288.467Z" fill="#263238"/>
<path d="M186.736 185.037C186.863 184.714 186.926 184.372 186.901 183.998C186.876 183.649 186.761 183.332 186.609 183.028C185.995 181.766 184.621 180.739 184.393 179.408H113.263C113.295 179.453 113.333 179.491 113.364 179.535C113.453 179.674 113.529 179.827 113.592 179.985C113.782 180.46 113.865 180.999 113.839 181.525C113.833 181.703 113.808 181.874 113.776 182.039C113.687 182.476 113.548 182.888 113.377 183.3C113.206 183.706 113.003 184.105 112.794 184.499C112.573 184.93 112.344 185.361 112.148 185.798C111.591 187.047 111.312 188.587 112.066 189.728C112.091 189.766 112.123 189.792 112.148 189.823C112.357 190.109 112.617 190.35 112.902 190.559C113.187 190.774 113.491 190.964 113.801 191.161C114.416 191.548 115.017 191.941 115.41 192.537C115.898 193.278 115.948 194.153 115.834 195.066C115.543 197.316 114.219 199.839 115.758 201.399C115.923 201.563 116.107 201.697 116.303 201.804C116.943 202.172 117.728 202.292 118.52 202.387C119.844 202.546 121.193 202.635 121.921 203.668C122.067 203.871 122.156 204.093 122.232 204.321C122.599 205.437 122.327 206.819 122.954 207.845C123.574 208.86 124.702 209.094 125.943 209.189C127.565 209.316 129.383 209.202 130.497 210.286C130.586 210.368 130.643 210.476 130.713 210.565C130.782 210.66 130.871 210.742 130.928 210.844C131.954 212.536 131.384 215.218 132.961 216.511C133.265 216.758 133.588 216.91 133.924 216.999C134.146 217.056 134.374 217.088 134.608 217.101C134.881 217.113 135.166 217.088 135.457 217.05C136.895 216.853 138.484 216.162 139.967 216.175C140.011 216.175 140.055 216.181 140.106 216.181C140.391 216.194 140.676 216.226 140.948 216.308C143.191 216.942 144.673 219.972 146.953 219.484C147.023 219.471 147.092 219.446 147.162 219.427C147.897 219.199 148.473 218.622 149.043 218.051C149.233 217.861 149.423 217.671 149.619 217.494C150.095 217.069 150.595 216.72 151.216 216.619C151.976 216.498 152.653 216.784 153.318 217.183C154.243 217.741 155.136 218.521 156.181 218.755C157.714 219.091 158.975 218.242 160.197 217.151C161.211 216.251 162.211 215.205 163.326 214.514C163.446 214.438 163.56 214.349 163.687 214.28C164.225 213.994 164.789 213.792 165.397 213.754C166.765 213.665 168.292 214.337 169.597 214.375C170.091 214.394 170.553 214.318 170.965 214.083C171.104 214.007 171.237 213.906 171.357 213.792C171.997 213.196 172.118 212.353 172.124 211.452V211.44C172.124 210.768 172.061 210.058 172.092 209.386C172.105 209.164 172.124 208.942 172.162 208.727C172.181 208.612 172.213 208.498 172.244 208.391C172.257 208.346 172.263 208.308 172.276 208.264C172.365 207.998 172.491 207.75 172.669 207.522C174.119 205.684 177.552 207.002 179.11 205.253C179.268 205.075 179.389 204.879 179.49 204.67C179.642 204.346 179.737 203.998 179.801 203.636C179.934 202.907 179.953 202.121 180.117 201.399C180.2 201.037 180.32 200.689 180.51 200.372C180.611 200.2 180.738 200.055 180.865 199.909C180.89 199.877 180.909 199.846 180.934 199.82C180.998 199.757 181.074 199.7 181.137 199.643C181.834 199.009 182.752 198.571 183.512 198.007C183.981 197.658 184.393 197.265 184.633 196.733C185.235 195.395 184.532 193.969 183.987 192.53C183.804 192.048 183.639 191.567 183.544 191.091C183.525 190.99 183.512 190.888 183.493 190.787C183.493 190.755 183.487 190.717 183.481 190.685C183.443 190.318 183.449 189.956 183.538 189.595C183.975 187.789 186.115 186.654 186.736 185.037Z" fill="#3C5AE7"/>
<path d="M120.471 186.889C120.49 186.857 120.807 186.971 121.212 187.326C121.617 187.675 122.073 188.296 122.314 189.089C122.548 189.881 122.51 190.648 122.371 191.168C122.232 191.688 122.029 191.96 121.997 191.941C121.947 191.916 122.067 191.618 122.143 191.123C122.219 190.629 122.219 189.925 122.004 189.19C121.782 188.461 121.389 187.871 121.054 187.504C120.718 187.13 120.452 186.946 120.477 186.902L120.471 186.889Z" fill="white"/>
<path d="M175.975 193.107C176.007 193.107 176.026 193.716 175.823 194.673C175.627 195.624 175.158 196.917 174.334 198.166C173.498 199.408 172.485 200.334 171.68 200.879C170.876 201.43 170.306 201.646 170.293 201.614C170.268 201.563 170.787 201.278 171.541 200.689C172.295 200.105 173.251 199.186 174.062 197.975C174.866 196.765 175.354 195.529 175.601 194.609C175.855 193.69 175.918 193.094 175.975 193.101V193.107Z" fill="white"/>
<path d="M175.677 189.551C175.753 189.64 175.088 190.052 174.847 190.863C174.727 191.269 174.708 191.674 174.664 191.966C174.626 192.258 174.588 192.441 174.543 192.441C174.499 192.441 174.455 192.258 174.429 191.96C174.41 191.662 174.391 191.237 174.531 190.768C174.664 190.292 174.98 189.944 175.221 189.766C175.468 189.582 175.652 189.519 175.677 189.551Z" fill="white"/>
<path d="M179.744 179.402C179.744 179.402 179.845 179.529 179.978 179.783C180.117 180.036 180.269 180.423 180.415 180.917C180.561 181.412 180.681 182.02 180.719 182.699C180.751 183.383 180.713 184.138 180.554 184.911C180.231 186.464 179.522 187.738 178.914 188.562C178.61 188.974 178.337 189.291 178.128 189.488C177.926 189.691 177.805 189.792 177.786 189.779C177.742 189.741 178.166 189.272 178.717 188.429C179.262 187.592 179.915 186.344 180.225 184.848C180.535 183.352 180.409 181.951 180.181 180.974C179.953 179.998 179.68 179.428 179.737 179.402H179.744Z" fill="white"/>
<path d="M164.859 205.367C164.859 205.367 164.719 205.513 164.428 205.729C164.137 205.951 163.7 206.236 163.136 206.565C162.015 207.225 160.374 207.985 158.449 208.505C156.523 209.019 154.725 209.19 153.426 209.183C152.774 209.183 152.248 209.152 151.893 209.107C151.532 209.069 151.336 209.031 151.336 209.012C151.336 208.955 152.14 209.006 153.42 208.949C154.706 208.892 156.473 208.695 158.367 208.188C160.254 207.675 161.888 206.958 163.022 206.363C164.162 205.767 164.827 205.323 164.859 205.367Z" fill="white"/>
<path d="M144.122 208.86C144.122 208.86 143.919 208.898 143.552 208.911C143.184 208.93 142.646 208.911 141.994 208.834C140.682 208.695 138.884 208.264 137.072 207.351C135.267 206.438 133.842 205.246 132.955 204.277C132.505 203.795 132.17 203.376 131.967 203.066C131.758 202.762 131.65 202.59 131.669 202.578C131.72 202.54 132.195 203.199 133.12 204.112C134.038 205.025 135.451 206.159 137.224 207.059C138.998 207.947 140.746 208.41 142.032 208.606C143.317 208.803 144.128 208.803 144.128 208.86H144.122Z" fill="white"/>
<path d="M127.698 200.144C127.698 200.144 127.54 200.188 127.248 200.194C126.957 200.194 126.532 200.169 126.026 200.061C125.012 199.852 123.613 199.244 122.523 198.046C121.434 196.841 120.965 195.396 120.857 194.362C120.8 193.843 120.807 193.418 120.845 193.126C120.876 192.835 120.921 192.683 120.94 192.683C120.997 192.683 120.921 193.329 121.092 194.324C121.256 195.313 121.738 196.676 122.77 197.817C123.803 198.958 125.114 199.573 126.083 199.833C127.058 200.099 127.704 200.087 127.704 200.144H127.698Z" fill="white"/>
<path d="M118.868 186.819C118.868 186.819 118.514 186.521 118.14 185.893C117.766 185.266 117.374 184.302 117.279 183.174C117.184 182.046 117.437 181.025 117.747 180.359C118.051 179.687 118.362 179.345 118.387 179.37C118.438 179.402 118.203 179.783 117.963 180.448C117.722 181.107 117.519 182.077 117.608 183.149C117.697 184.22 118.039 185.145 118.349 185.779C118.659 186.413 118.913 186.781 118.868 186.813V186.819Z" fill="white"/>
<path d="M125.899 201.621C125.899 201.621 125.734 201.665 125.437 201.671C125.139 201.671 124.702 201.646 124.176 201.532C123.131 201.316 121.693 200.689 120.566 199.459C119.438 198.223 118.951 196.733 118.837 195.668C118.773 195.129 118.78 194.692 118.818 194.394C118.849 194.096 118.894 193.931 118.913 193.938C118.97 193.938 118.894 194.603 119.071 195.63C119.242 196.651 119.749 198.058 120.813 199.237C121.883 200.41 123.239 201.044 124.24 201.31C125.247 201.583 125.912 201.564 125.912 201.627L125.899 201.621Z" fill="white"/>
<path d="M122.504 186.527C122.523 186.489 122.827 186.59 123.226 186.914C123.625 187.231 124.1 187.795 124.36 188.543C124.62 189.297 124.582 190.033 124.461 190.527C124.341 191.028 124.164 191.294 124.126 191.275C124.081 191.256 124.176 190.964 124.233 190.489C124.29 190.014 124.284 189.342 124.05 188.651C123.815 187.966 123.41 187.427 123.074 187.085C122.738 186.743 122.485 186.571 122.51 186.527H122.504Z" fill="white"/>
<path d="M115.708 186.718C115.644 186.769 114.846 185.19 114.954 183.079C115.036 180.962 115.974 179.466 116.031 179.523C116.132 179.561 115.359 181.07 115.283 183.092C115.176 185.114 115.809 186.686 115.708 186.718Z" fill="white"/>
<path d="M132.385 201.957C132.341 201.97 132.246 201.704 132.119 201.285C131.986 200.867 131.815 200.284 131.466 199.745C131.118 199.206 130.63 198.851 130.244 198.705C129.851 198.553 129.579 198.572 129.573 198.515C129.56 198.483 129.851 198.369 130.314 198.477C130.77 198.578 131.352 198.952 131.745 199.561C132.125 200.163 132.271 200.791 132.347 201.228C132.423 201.672 132.429 201.944 132.385 201.957Z" fill="white"/>
<path d="M134.361 200.473C134.266 200.505 134.101 199.262 133.05 198.286C132.005 197.304 130.757 197.221 130.782 197.126C130.782 197.088 131.093 197.044 131.574 197.145C132.056 197.247 132.714 197.519 133.272 198.045C133.829 198.572 134.152 199.205 134.279 199.681C134.412 200.156 134.393 200.467 134.355 200.473H134.361Z" fill="white"/>
<path d="M143.4 212.441C143.4 212.441 143.172 212.467 142.766 212.454C142.361 212.448 141.772 212.378 141.05 212.251C140.328 212.124 139.485 211.903 138.573 211.579C137.667 211.243 136.698 210.793 135.736 210.223C134.779 209.639 133.937 208.987 133.215 208.346C132.505 207.687 131.91 207.047 131.467 206.47C131.017 205.893 130.687 205.405 130.485 205.044C130.282 204.689 130.181 204.492 130.2 204.479C130.25 204.448 130.713 205.221 131.644 206.318C132.106 206.869 132.708 207.484 133.417 208.118C134.139 208.739 134.976 209.367 135.907 209.944C136.85 210.508 137.794 210.952 138.681 211.3C139.568 211.63 140.391 211.877 141.094 212.029C142.5 212.34 143.4 212.384 143.393 212.448L143.4 212.441Z" fill="white"/>
<path d="M165.695 207.104C165.695 207.104 165.549 207.294 165.252 207.592C165.106 207.744 164.916 207.921 164.682 208.112C164.447 208.302 164.194 208.53 163.877 208.746C163.269 209.202 162.496 209.677 161.597 210.127C160.691 210.565 159.665 210.977 158.544 211.288C157.423 211.585 156.327 211.75 155.32 211.826C154.319 211.883 153.407 211.871 152.654 211.782C152.273 211.757 151.938 211.687 151.64 211.643C151.342 211.598 151.089 211.541 150.886 211.484C150.475 211.383 150.253 211.313 150.259 211.288C150.272 211.224 151.184 211.446 152.679 211.547C153.426 211.604 154.319 211.598 155.301 211.522C156.283 211.427 157.36 211.256 158.462 210.964C159.557 210.66 160.571 210.267 161.47 209.849C162.357 209.418 163.13 208.974 163.744 208.549C164.986 207.706 165.657 207.059 165.701 207.104H165.695Z" fill="white"/>
<path d="M177.647 194.059C177.647 194.059 177.679 194.217 177.679 194.509C177.679 194.8 177.647 195.219 177.558 195.732C177.387 196.753 176.925 198.147 176.045 199.479C175.158 200.803 174.056 201.767 173.175 202.318C172.738 202.597 172.365 202.794 172.098 202.902C171.832 203.016 171.68 203.066 171.668 203.041C171.642 202.99 172.219 202.718 173.042 202.128C173.866 201.539 174.911 200.582 175.766 199.295C176.621 198.008 177.102 196.677 177.324 195.688C177.552 194.699 177.577 194.059 177.641 194.065L177.647 194.059Z" fill="white"/>
<path d="M183.031 179.929C183.031 179.929 183.126 180.075 183.227 180.366C183.329 180.658 183.449 181.089 183.538 181.634C183.721 182.718 183.728 184.296 183.189 185.906C182.651 187.523 181.707 188.784 180.915 189.539C180.516 189.919 180.168 190.198 179.908 190.369C179.655 190.54 179.503 190.616 179.49 190.597C179.459 190.553 180.016 190.166 180.751 189.374C181.485 188.594 182.366 187.358 182.879 185.799C183.398 184.239 183.43 182.724 183.31 181.659C183.196 180.588 182.974 179.941 183.031 179.929Z" fill="white"/>
<path d="M172.472 191.769C172.39 191.801 172.187 191.015 172.618 190.178C173.042 189.335 173.796 189.037 173.815 189.12C173.866 189.202 173.277 189.582 172.909 190.324C172.523 191.059 172.561 191.757 172.466 191.769H172.472Z" fill="white"/>
<path d="M162.503 202.077C162.465 202.065 162.541 201.71 162.807 201.196C163.073 200.683 163.56 200.024 164.257 199.472C164.96 198.921 165.714 198.604 166.278 198.471C166.841 198.337 167.202 198.35 167.209 198.388C167.234 198.49 165.796 198.661 164.46 199.732C163.104 200.778 162.591 202.128 162.503 202.084V202.077Z" fill="white"/>
<path d="M169.204 200.803C169.229 200.905 167.842 201.215 166.347 202.071C164.84 202.908 163.858 203.935 163.788 203.859C163.719 203.814 164.631 202.654 166.189 201.779C167.741 200.898 169.204 200.721 169.204 200.803Z" fill="white"/>
<path d="M149.638 208.252C149.588 208.334 148.682 207.675 147.365 207.637C146.047 207.573 145.091 208.163 145.046 208.074C145.027 208.043 145.23 207.846 145.642 207.65C146.047 207.453 146.674 207.282 147.377 207.307C148.08 207.333 148.688 207.548 149.081 207.783C149.474 208.011 149.664 208.226 149.638 208.258V208.252Z" fill="white"/>
<path d="M150.449 205.861C150.392 205.944 149.562 205.31 148.34 205.202C147.118 205.069 146.18 205.525 146.142 205.43C146.123 205.392 146.332 205.227 146.731 205.075C147.13 204.923 147.726 204.809 148.378 204.872C149.03 204.936 149.594 205.17 149.949 205.399C150.31 205.627 150.481 205.83 150.456 205.861H150.449Z" fill="white"/>
<path d="M186.907 183.998C186.882 183.65 186.768 183.333 186.616 183.028C186.768 183.339 186.882 183.656 186.907 183.998Z" fill="#3C5AE7"/>
<g opacity="0.3">
<path d="M147.301 199.668C146.237 203.808 145.357 207.998 144.666 212.213C144.502 213.202 144.369 214.293 144.901 215.136C145.585 216.226 147.206 216.442 148.327 215.814C149.448 215.186 150.101 213.931 150.335 212.67C150.563 211.402 150.437 210.102 150.354 208.822C150.063 204.391 150.323 199.947 150.582 195.51L147.301 199.668Z" fill="black"/>
</g>
<g opacity="0.3">
<path d="M171.529 184.397C172.586 183.726 173.828 183.352 175.082 183.326C175.912 183.307 176.767 183.434 177.546 183.155C178.325 182.876 178.977 181.982 178.622 181.234C178.287 180.524 177.343 180.417 176.558 180.366C173.416 180.157 169.109 180.461 166.037 180.074L158.797 197.488C159.754 198.686 162.04 200.778 162.642 202.191C163.244 203.599 164.01 205.025 165.283 205.881C166.556 206.737 168.457 206.825 169.502 205.697C170.388 204.74 170.388 203.212 169.888 202.008C169.388 200.803 168.482 199.821 167.652 198.806C166.911 197.893 166.221 196.943 165.587 195.954C165.359 195.592 165.131 195.199 165.157 194.775C165.182 194.318 165.499 193.932 165.803 193.583C166.404 192.886 167.031 192.176 167.861 191.783C169.077 191.212 170.521 191.447 171.801 191.865C173.08 192.283 174.315 192.886 175.652 193.044C176.203 193.107 176.779 193.088 177.286 192.86C177.793 192.632 178.217 192.163 178.268 191.611C178.325 191.022 177.957 190.458 177.482 190.109C177.007 189.76 176.431 189.577 175.867 189.393C174.455 188.924 173.061 188.378 171.712 187.751C171.142 187.491 170.528 187.155 170.331 186.559C170.059 185.716 170.775 184.879 171.529 184.404V184.397Z" fill="black"/>
</g>
<path d="M143.248 214.749C143.248 214.749 143.267 214.489 143.362 214.039C143.457 213.589 143.621 212.936 143.843 212.144C144.28 210.553 144.977 208.378 145.775 205.988C146.573 203.599 147.301 201.443 147.795 199.871C148.023 199.136 148.22 198.515 148.378 198.007C148.511 197.564 148.6 197.323 148.619 197.329C148.638 197.329 148.6 197.589 148.505 198.039C148.41 198.489 148.245 199.142 148.023 199.935C147.586 201.526 146.89 203.7 146.091 206.09C145.293 208.48 144.565 210.635 144.071 212.207C143.843 212.942 143.647 213.564 143.488 214.071C143.355 214.515 143.267 214.755 143.248 214.749Z" fill="#263238"/>
<path d="M149.879 214.749C149.835 214.749 149.835 213.894 149.822 212.512C149.822 211.041 149.81 209.177 149.803 207.111C149.803 205 149.835 203.092 149.879 201.71C149.924 200.328 150.012 199.472 150.057 199.479C150.101 199.479 150.101 200.334 150.114 201.716C150.114 203.187 150.126 205.051 150.133 207.117C150.133 209.228 150.101 211.136 150.057 212.518C150.012 213.9 149.924 214.756 149.879 214.749Z" fill="#263238"/>
<path d="M168.045 210.534C167.969 210.584 166.037 207.675 163.731 204.036C161.426 200.397 159.621 197.405 159.697 197.361C159.773 197.31 161.705 200.22 164.01 203.865C166.316 207.504 168.121 210.496 168.045 210.54V210.534Z" fill="#263238"/>
<path d="M173.137 204.81C173.099 204.841 172.58 204.265 171.718 203.364C170.857 202.458 169.654 201.222 168.305 199.884C166.949 198.547 165.701 197.349 164.789 196.499C163.877 195.65 163.294 195.136 163.326 195.098C163.351 195.067 163.985 195.517 164.941 196.328C165.898 197.133 167.177 198.306 168.533 199.65C169.888 200.994 171.072 202.261 171.89 203.212C172.713 204.163 173.169 204.791 173.131 204.816L173.137 204.81Z" fill="#263238"/>
<path d="M177.888 193.887C177.856 193.97 175.018 192.892 171.554 191.478C168.089 190.065 165.309 188.848 165.347 188.765C165.378 188.683 168.216 189.76 171.68 191.174C175.145 192.588 177.926 193.805 177.888 193.887Z" fill="#263238"/>
<path d="M182.429 191.535C182.404 191.624 179.389 190.806 175.696 189.71C172.004 188.613 169.033 187.65 169.058 187.567C169.084 187.478 172.099 188.296 175.791 189.393C179.484 190.489 182.454 191.447 182.429 191.535Z" fill="#263238"/>
<path d="M128.205 206.153C128.205 206.153 128.35 205.951 128.661 205.621C129.022 205.241 129.459 204.778 129.978 204.239C131.093 203.073 132.619 201.45 134.279 199.643C135.938 197.83 137.427 196.169 138.491 194.965C138.985 194.401 139.409 193.925 139.758 193.539C140.055 193.203 140.233 193.025 140.252 193.038C140.271 193.05 140.131 193.26 139.859 193.621C139.587 193.982 139.188 194.496 138.675 195.117C137.655 196.366 136.192 198.052 134.526 199.871C132.86 201.684 131.302 203.282 130.149 204.41C129.573 204.974 129.091 205.418 128.756 205.722C128.42 206.02 128.224 206.179 128.211 206.166L128.205 206.153Z" fill="#263238"/>
<g opacity="0.3">
<path d="M128.502 185.222C127.495 185.741 126.355 185.913 125.247 186.128C124.138 186.344 122.998 186.616 122.099 187.301C121.199 187.986 120.585 189.171 120.902 190.261C121.016 190.648 121.237 191.003 121.535 191.269C122.428 192.062 123.809 191.979 124.924 191.548C126.038 191.117 127.026 190.401 128.16 190.02C129.294 189.64 130.706 189.691 131.485 190.591C132.36 191.605 132.03 193.209 131.276 194.312C130.523 195.415 129.427 196.252 128.673 197.361C128.097 198.211 127.736 199.25 127.882 200.271C128.027 201.291 128.749 202.255 129.75 202.496C130.896 202.768 132.056 202.071 132.885 201.234C133.715 200.398 134.38 199.377 135.362 198.724C136.629 197.875 138.275 197.748 139.77 198.052C141.265 198.356 142.652 199.041 144.02 199.719" fill="black"/>
</g>
<path d="M123.125 203.966C123.125 203.966 123.289 203.782 123.619 203.503C123.999 203.174 124.461 202.768 125 202.299C126.165 201.272 127.748 199.839 129.503 198.248C131.219 196.682 132.771 195.263 133.981 194.16C134.513 193.678 134.969 193.272 135.349 192.93C135.672 192.644 135.862 192.492 135.881 192.511C135.9 192.53 135.742 192.708 135.438 193.025C135.14 193.342 134.697 193.786 134.139 194.331C133.031 195.421 131.479 196.892 129.725 198.489C127.977 200.087 126.355 201.494 125.152 202.476C124.55 202.965 124.049 203.351 123.695 203.605C123.34 203.852 123.131 203.985 123.118 203.966H123.125Z" fill="#263238"/>
<path d="M132.417 187.181C132.417 187.181 132.22 187.339 131.828 187.561C131.441 187.789 130.865 188.1 130.155 188.474C128.73 189.222 126.741 190.211 124.537 191.282C122.365 192.328 120.401 193.272 118.881 194.001C118.21 194.325 117.633 194.597 117.165 194.819C116.759 195.009 116.531 195.111 116.518 195.085C116.506 195.066 116.715 194.933 117.108 194.705C117.494 194.477 118.07 194.166 118.78 193.792C120.205 193.044 122.194 192.055 124.398 190.984C126.57 189.938 128.534 188.994 130.054 188.265C130.725 187.941 131.302 187.669 131.771 187.447C132.176 187.257 132.404 187.155 132.417 187.181Z" fill="#263238"/>
<path d="M132.923 183.891C132.923 183.891 132.695 184.024 132.258 184.214C131.821 184.391 131.175 184.62 130.364 184.854C128.743 185.336 126.469 185.856 123.942 186.331C121.408 186.8 119.109 187.143 117.431 187.345C116.595 187.447 115.917 187.51 115.442 187.548C114.973 187.58 114.707 187.586 114.707 187.567C114.707 187.548 114.96 187.498 115.429 187.421C115.961 187.339 116.62 187.238 117.399 187.117C119.058 186.857 121.358 186.477 123.879 186.008C126.399 185.532 128.673 185.051 130.301 184.626C131.112 184.417 131.764 184.227 132.214 184.087C132.657 183.941 132.911 183.865 132.917 183.891H132.923Z" fill="#263238"/>
<path d="M127.356 179.37C127.356 191.478 137.161 201.291 149.258 201.291C161.356 201.291 171.161 191.478 171.161 179.37H127.349H127.356Z" fill="#263238"/>
<path d="M130.105 179.37C130.105 189.956 138.681 198.54 149.258 198.54C159.836 198.54 168.412 189.956 168.412 179.37H130.098H130.105Z" fill="white"/>
<path d="M135.014 179.396C135.014 187.269 141.392 193.652 149.258 193.652C157.125 193.652 163.503 187.269 163.503 179.396H135.014Z" fill="#3C5AE7"/>
<path d="M100.278 136.805L96.0029 145.736H103.572L106.308 139.847L100.278 136.805Z" fill="#263238"/>
<path d="M115.297 127.305C115.898 123.59 113.375 120.091 109.663 119.49C105.951 118.889 102.455 121.413 101.854 125.128C101.254 128.844 103.776 132.343 107.488 132.944C111.201 133.545 114.697 131.02 115.297 127.305Z" fill="#455A64"/>
<path d="M99.4486 128.019L95.3949 138.161L108.569 143.993L113.009 133.597L99.4486 128.019Z" fill="#3C5AE7"/>
<g opacity="0.3">
<path d="M108.291 131.657L104.199 142.098L108.569 143.993L113.01 133.597L108.291 131.657Z" fill="black"/>
<path d="M108.576 144.012H108.563L104.18 142.104V142.091L108.284 131.632H108.297L113.029 133.584V133.597L108.576 144.012ZM104.224 142.091L108.563 143.974L112.991 133.603L108.31 131.676L104.231 142.091H104.224Z" fill="#455A64"/>
</g>
<path d="M113.466 122.985C113.421 123.016 113.123 122.585 112.496 122.047C111.882 121.508 110.888 120.893 109.659 120.652C108.43 120.411 107.277 120.614 106.505 120.88C105.725 121.146 105.288 121.438 105.257 121.394C105.238 121.368 105.63 121.001 106.422 120.665C107.201 120.329 108.417 120.075 109.722 120.329C111.027 120.582 112.059 121.273 112.655 121.875C113.263 122.484 113.491 122.972 113.466 122.991V122.985Z" fill="white"/>
<path d="M114.485 125.521C114.39 125.527 114.295 125.223 114.169 124.868C114.048 124.507 113.928 124.215 114.004 124.158C114.074 124.107 114.34 124.354 114.479 124.754C114.618 125.16 114.568 125.515 114.479 125.515L114.485 125.521Z" fill="white"/>
<path d="M193.666 137.362L197.909 146.218L190.353 146.237L187.642 140.405L193.666 137.362Z" fill="#263238"/>
<path d="M185.381 133.584C189.141 133.584 192.19 130.533 192.19 126.77C192.19 123.006 189.141 119.955 185.381 119.955C181.62 119.955 178.572 123.006 178.572 126.77C178.572 130.533 181.62 133.584 185.381 133.584Z" fill="#455A64"/>
<path d="M194.502 128.576L198.555 138.719L185.381 144.551L180.941 134.155L194.502 128.576Z" fill="#3C5AE7"/>
<g opacity="0.3">
<path d="M185.653 132.215L189.745 142.655L185.381 144.551L180.941 134.155L185.653 132.215Z" fill="black"/>
<path d="M185.374 144.57V144.557L180.922 134.142H180.934L185.666 132.189V132.202L189.77 142.655H189.757L185.374 144.563V144.57ZM180.966 134.161L185.393 144.532L189.732 142.649L185.653 132.24L180.966 134.167V134.161Z" fill="#455A64"/>
</g>
<path d="M180.485 123.543C180.485 123.543 180.681 123.036 181.295 122.427C181.897 121.825 182.929 121.134 184.228 120.88C185.533 120.627 186.749 120.88 187.528 121.216C188.32 121.552 188.712 121.92 188.693 121.945C188.662 121.99 188.225 121.698 187.446 121.432C186.673 121.166 185.52 120.963 184.291 121.204C183.063 121.445 182.068 122.059 181.454 122.598C180.827 123.137 180.535 123.575 180.491 123.543H180.485Z" fill="white"/>
<path d="M179.465 126.079C179.376 126.079 179.325 125.717 179.465 125.318C179.604 124.912 179.864 124.665 179.94 124.722C180.016 124.773 179.902 125.071 179.775 125.432C179.649 125.787 179.554 126.091 179.458 126.085L179.465 126.079Z" fill="white"/>
<path d="M248.922 288.835C248.922 288.923 203.591 289 147.694 289C91.7973 289 46.4529 288.923 46.4529 288.835C46.4529 288.746 91.7719 288.67 147.694 288.67C203.616 288.67 248.922 288.746 248.922 288.835Z" fill="#263238"/>
</g>
<defs>
<clipPath id="clip0_5013_5597">
<rect width="293" height="289" fill="white"/>
</clipPath>
</defs>
</svg>
