<svg width="134" height="63" viewBox="0 0 134 63" fill="none" xmlns="http://www.w3.org/2000/svg">
<g opacity="0.2" clip-path="url(#clip0_4526_2435)">
<path d="M102.211 -1.40223L97.1939 -12.8177C94.0721 -19.9214 92.5112 -23.4732 89.9364 -25.5789C87.6716 -27.4311 84.8784 -28.5188 81.9574 -28.686C78.6366 -28.8762 75.0848 -27.3153 67.9812 -24.1935L40.9222 -12.3022C33.8185 -9.18045 30.2667 -7.61957 28.161 -5.04475C26.3088 -2.77988 25.2211 0.0132357 25.0539 2.93427C24.8638 6.25504 26.4246 9.80686 29.5464 16.9105L48.8698 60.8814C51.9915 67.985 53.5524 71.5368 56.1272 73.6425C58.3921 75.4948 61.1852 76.5824 64.1063 76.7497C67.427 76.9398 70.9788 75.3789 78.0825 72.2571L100.068 62.5955M79.6297 16.0878L54.2619 27.2359M70.1499 40.4317L61.694 44.1478M80.6536 -4.54009L46.8299 10.324M97.6359 28.3641C97.4502 25.919 98.1358 23.4872 99.5714 21.4992C101.007 19.5112 103.1 18.0954 105.479 17.5026C107.858 16.9098 110.371 17.1782 112.571 18.2602C114.772 19.3423 116.518 21.1682 117.501 23.4146C120.286 29.7518 112.173 37.0978 112.173 37.0978M117.87 49.7279L117.912 49.7093" stroke="#3C5AE7" stroke-width="5" stroke-linecap="round" stroke-linejoin="round"/>
</g>
<defs>
<clipPath id="clip0_4526_2435">
<rect width="110.837" height="110.837" fill="white" transform="translate(0 -4.40759) rotate(-23.7235)"/>
</clipPath>
</defs>
</svg>
