<svg width="19" height="19" viewBox="0 0 19 19" fill="none" xmlns="http://www.w3.org/2000/svg">
<path d="M7.91634 6.33341V5.54175M7.91634 9.89591V9.10425M7.91634 13.4584V12.6667M4.11634 3.16675H14.883C15.7698 3.16675 16.2131 3.16675 16.5518 3.33932C16.8497 3.49112 17.092 3.73334 17.2438 4.03126C17.4163 4.36996 17.4163 4.81333 17.4163 5.70008V6.72925C15.8861 6.72925 14.6455 7.96979 14.6455 9.50008C14.6455 11.0304 15.8861 12.2709 17.4163 12.2709V13.3001C17.4163 14.1868 17.4163 14.6302 17.2438 14.9689C17.092 15.2668 16.8497 15.509 16.5518 15.6608C16.2131 15.8334 15.7698 15.8334 14.883 15.8334H4.11634C3.22959 15.8334 2.78622 15.8334 2.44752 15.6608C2.1496 15.509 1.90738 15.2668 1.75558 14.9689C1.58301 14.6302 1.58301 14.1868 1.58301 13.3001V12.2709C3.1133 12.2709 4.35384 11.0304 4.35384 9.50008C4.35384 7.96979 3.1133 6.72925 1.58301 6.72925V5.70008C1.58301 4.81333 1.58301 4.36996 1.75558 4.03126C1.90738 3.73334 2.1496 3.49112 2.44752 3.33932C2.78622 3.16675 3.22959 3.16675 4.11634 3.16675Z" stroke="#3C5AE7" stroke-linecap="round" stroke-linejoin="round"/>
</svg>
