<svg width="120" height="63" viewBox="0 0 120 63" fill="none" xmlns="http://www.w3.org/2000/svg">
<g opacity="0.2" clip-path="url(#clip0_4502_8652)">
<path d="M31.518 50.6754L44.7571 75.3519C45.1294 76.0459 45.3156 76.3929 45.5068 76.6886C47.3751 79.5777 50.7815 81.0804 54.1748 80.5124C54.5221 80.4543 54.9039 80.3578 55.6675 80.1649C56.6237 79.9234 57.1018 79.8026 57.4947 79.6618C61.378 78.27 63.7325 74.3238 63.113 70.2454C63.0503 69.8328 62.9295 69.3547 62.6879 68.3985L47.6296 8.79064M91.6273 33.266C99.7109 31.2239 104.608 23.0154 102.566 14.9318C100.524 6.84823 92.3157 1.95064 84.2321 3.99275M48.675 8.52653L32.9929 12.4882C22.5997 15.1138 16.3028 25.6676 18.9284 36.0607C21.554 46.4539 32.1078 52.7508 42.5009 50.1253L58.1831 46.1636C65.5701 44.2975 75.6067 45.9744 83.5382 48.0136C88.1653 49.2033 90.4789 49.7981 91.7695 49.2985C92.9663 48.8352 93.7601 48.0448 94.2284 46.8499C94.7334 45.5614 94.1817 43.3779 93.0785 39.0107L82.7809 -1.75199C81.6777 -6.1191 81.126 -8.30265 80.0697 -9.19674C79.0901 -10.0258 78.0161 -10.3444 76.7429 -10.1837C75.3698 -10.0104 73.6164 -8.38814 70.1094 -5.14366C64.098 0.417824 56.0621 6.6604 48.675 8.52653Z" stroke="#3C5AE7" stroke-width="5" stroke-linecap="round" stroke-linejoin="round"/>
</g>
<defs>
<clipPath id="clip0_4502_8652">
<rect width="103.519" height="103.519" fill="white" transform="translate(0 -3.64532) rotate(-14.1776)"/>
</clipPath>
</defs>
</svg>
