<svg width="19" height="19" viewBox="0 0 19 19" fill="none" xmlns="http://www.w3.org/2000/svg">
<path d="M1.58325 6.63195C1.58325 6.35461 1.58325 6.21594 1.59482 6.09915C1.70644 4.97265 2.59759 4.0815 3.72409 3.96989C3.84088 3.95831 3.98703 3.95831 4.27934 3.95831C4.39197 3.95831 4.44828 3.95831 4.4961 3.95542C5.10665 3.91844 5.6413 3.53309 5.86945 2.96556C5.88732 2.92112 5.90402 2.87102 5.93742 2.77081C5.97082 2.67061 5.98752 2.62051 6.00539 2.57606C6.23354 2.00854 6.76818 1.62319 7.37874 1.58621C7.42655 1.58331 7.47936 1.58331 7.58499 1.58331H11.4149C11.5205 1.58331 11.5733 1.58331 11.6211 1.58621C12.2317 1.62319 12.7663 2.00854 12.9944 2.57606C13.0123 2.62051 13.029 2.67061 13.0624 2.77081C13.0958 2.87102 13.1125 2.92112 13.1304 2.96556C13.3585 3.53309 13.8932 3.91844 14.5037 3.95542C14.5516 3.95831 14.6079 3.95831 14.7205 3.95831C15.0128 3.95831 15.159 3.95831 15.2758 3.96989C16.4022 4.0815 17.2934 4.97265 17.405 6.09915C17.4166 6.21594 17.4166 6.35461 17.4166 6.63195V12.825C17.4166 14.1551 17.4166 14.8202 17.1577 15.3282C16.93 15.7751 16.5667 16.1384 16.1198 16.3661C15.6118 16.625 14.9467 16.625 13.6166 16.625H5.38325C4.05313 16.625 3.38806 16.625 2.88002 16.3661C2.43314 16.1384 2.06981 15.7751 1.84211 15.3282C1.58325 14.8202 1.58325 14.1551 1.58325 12.825V6.63195Z" stroke="#F9F9F9" stroke-linecap="round" stroke-linejoin="round"/>
<path d="M9.49992 13.0625C11.2488 13.0625 12.6666 11.6447 12.6666 9.89581C12.6666 8.14691 11.2488 6.72915 9.49992 6.72915C7.75102 6.72915 6.33325 8.14691 6.33325 9.89581C6.33325 11.6447 7.75102 13.0625 9.49992 13.0625Z" stroke="#F9F9F9" stroke-linecap="round" stroke-linejoin="round"/>
</svg>
