<svg width="19" height="19" viewBox="0 0 19 19" fill="none" xmlns="http://www.w3.org/2000/svg">
<path d="M6.33325 11.0833C6.33325 11.0833 7.52075 12.6666 9.49992 12.6666C11.4791 12.6666 12.6666 11.0833 12.6666 11.0833M11.8749 7.12498H11.8828M7.12492 7.12498H7.13284M17.4166 9.49998C17.4166 13.8722 13.8722 17.4166 9.49992 17.4166C5.12766 17.4166 1.58325 13.8722 1.58325 9.49998C1.58325 5.12773 5.12766 1.58331 9.49992 1.58331C13.8722 1.58331 17.4166 5.12773 17.4166 9.49998ZM12.2708 7.12498C12.2708 7.34359 12.0935 7.52081 11.8749 7.52081C11.6563 7.52081 11.4791 7.34359 11.4791 7.12498C11.4791 6.90637 11.6563 6.72915 11.8749 6.72915C12.0935 6.72915 12.2708 6.90637 12.2708 7.12498ZM7.52075 7.12498C7.52075 7.34359 7.34353 7.52081 7.12492 7.52081C6.90631 7.52081 6.72909 7.34359 6.72909 7.12498C6.72909 6.90637 6.90631 6.72915 7.12492 6.72915C7.34353 6.72915 7.52075 6.90637 7.52075 7.12498Z" stroke="#F9F9F9" stroke-linecap="round" stroke-linejoin="round"/>
</svg>
