<svg width="31" height="31" viewBox="0 0 31 31" fill="none" xmlns="http://www.w3.org/2000/svg">
<path d="M13.562 17.4375L27.1245 3.87504M13.7268 17.8613L17.1214 26.5904C17.4205 27.3594 17.57 27.7439 17.7854 27.8561C17.9722 27.9534 18.1947 27.9536 18.3816 27.8565C18.5972 27.7445 18.7471 27.3601 19.0471 26.5915L27.5596 4.77817C27.8304 4.08431 27.9658 3.73738 27.8917 3.5157C27.8274 3.32318 27.6763 3.17209 27.4838 3.10778C27.2621 3.03372 26.9152 3.16911 26.2213 3.43988L4.40799 11.9524C3.63936 12.2524 3.25504 12.4023 3.14304 12.6179C3.04595 12.8048 3.04608 13.0273 3.14339 13.2141C3.25564 13.4295 3.64014 13.5791 4.40912 13.8781L13.1382 17.2727C13.2943 17.3335 13.3724 17.3638 13.4381 17.4107C13.4963 17.4522 13.5473 17.5032 13.5888 17.5614C13.6357 17.6271 13.6661 17.7052 13.7268 17.8613Z" stroke="#F9F9F9" stroke-width="2" stroke-linecap="round" stroke-linejoin="round"/>
</svg>
