<svg width="18" height="18" viewBox="0 0 18 18" fill="none" xmlns="http://www.w3.org/2000/svg">
<path d="M9.771 1.5C10.6147 1.50225 11.043 1.50675 11.4127 1.51725L11.5582 1.5225C11.7262 1.5285 11.892 1.536 12.0922 1.545C12.8902 1.5825 13.4347 1.7085 13.9125 1.89375C14.4075 2.08425 14.8245 2.34225 15.2415 2.7585C15.6229 3.13342 15.918 3.58694 16.1062 4.0875C16.2915 4.56525 16.4175 5.10975 16.455 5.9085C16.464 6.108 16.4715 6.27375 16.4775 6.4425L16.482 6.588C16.4932 6.957 16.4977 7.38525 16.4992 8.229L16.5 8.7885V9.771C16.5018 10.3181 16.4961 10.8651 16.4827 11.412L16.4782 11.5575C16.4722 11.7262 16.4647 11.892 16.4557 12.0915C16.4182 12.8903 16.2907 13.434 16.1062 13.9125C15.9185 14.4133 15.6233 14.867 15.2415 15.2415C14.8665 15.6227 14.413 15.9178 13.9125 16.1063C13.4347 16.2915 12.8902 16.4175 12.0922 16.455C11.9143 16.4634 11.7363 16.4709 11.5582 16.4775L11.4127 16.482C11.043 16.4925 10.6147 16.4978 9.771 16.4993L9.2115 16.5H8.22975C7.68244 16.5019 7.13514 16.4961 6.588 16.4827L6.4425 16.4783C6.26446 16.4715 6.08645 16.4638 5.9085 16.455C5.1105 16.4175 4.566 16.2915 4.0875 16.1063C3.587 15.9183 3.13366 15.6231 2.75925 15.2415C2.37753 14.8667 2.08217 14.4132 1.89375 13.9125C1.7085 13.4347 1.5825 12.8903 1.545 12.0915C1.53664 11.9135 1.52914 11.7355 1.5225 11.5575L1.51875 11.412C1.50493 10.8651 1.49868 10.3181 1.5 9.771V8.229C1.4979 7.68195 1.50341 7.1349 1.5165 6.588L1.52175 6.4425C1.52775 6.27375 1.53525 6.108 1.54425 5.9085C1.58175 5.10975 1.70775 4.566 1.893 4.0875C2.08133 3.58643 2.37729 3.13277 2.76 2.7585C3.13432 2.37711 3.58736 2.08199 4.0875 1.89375C4.566 1.7085 5.10975 1.5825 5.9085 1.545C6.108 1.536 6.2745 1.5285 6.4425 1.5225L6.588 1.518C7.13489 1.50467 7.68194 1.49892 8.229 1.50075L9.771 1.5ZM9 5.25C8.00544 5.25 7.05161 5.64509 6.34835 6.34835C5.64509 7.05161 5.25 8.00544 5.25 9C5.25 9.99456 5.64509 10.9484 6.34835 11.6517C7.05161 12.3549 8.00544 12.75 9 12.75C9.99456 12.75 10.9484 12.3549 11.6516 11.6517C12.3549 10.9484 12.75 9.99456 12.75 9C12.75 8.00544 12.3549 7.05161 11.6516 6.34835C10.9484 5.64509 9.99456 5.25 9 5.25ZM9 6.75C9.29547 6.74995 9.58806 6.8081 9.86106 6.92113C10.1341 7.03416 10.3821 7.19985 10.5911 7.40874C10.8001 7.61764 10.9658 7.86565 11.079 8.13862C11.1921 8.41158 11.2503 8.70415 11.2504 8.99963C11.2504 9.2951 11.1923 9.58769 11.0792 9.86069C10.9662 10.1337 10.8005 10.3818 10.5916 10.5907C10.3827 10.7997 10.1347 10.9655 9.86176 11.0786C9.58879 11.1917 9.29622 11.25 9.00075 11.25C8.40401 11.25 7.83171 11.0129 7.40976 10.591C6.9878 10.169 6.75075 9.59674 6.75075 9C6.75075 8.40326 6.9878 7.83097 7.40976 7.40901C7.83171 6.98705 8.40401 6.75 9.00075 6.75M12.9382 4.125C12.6896 4.125 12.4512 4.22377 12.2753 4.39959C12.0995 4.5754 12.0007 4.81386 12.0007 5.0625C12.0007 5.31114 12.0995 5.5496 12.2753 5.72541C12.4512 5.90123 12.6896 6 12.9382 6C13.1869 6 13.4253 5.90123 13.6012 5.72541C13.777 5.5496 13.8757 5.31114 13.8757 5.0625C13.8757 4.81386 13.777 4.5754 13.6012 4.39959C13.4253 4.22377 13.1869 4.125 12.9382 4.125Z" fill="#3C5AE7"/>
</svg>
