<svg width="266" height="146" viewBox="0 0 266 146" fill="none" xmlns="http://www.w3.org/2000/svg">
<path d="M172.449 59.0805C172.449 59.0805 172.449 82.7117 172.449 98.1627C172.449 98.6041 172.449 99.039 172.449 99.4662C172.8 104.329 173.802 109.338 171.719 113.968C171.476 114.378 171.189 114.747 170.861 115.075C169.881 116.056 168.526 116.663 167.031 116.663C167.031 116.663 156.837 116.663 144.237 116.663C143.817 116.663 143.394 116.663 142.978 116.662C132.928 116.351 122.709 116.151 112.746 116.719C112.189 116.725 111.644 116.727 111.099 116.728C109.198 116.732 107.295 116.729 105.379 116.718C104.42 116.713 103.459 116.705 102.492 116.696C100.869 116.551 98.8659 116.151 97.6637 116.752C94.2575 118.154 91.8531 121.761 89.0647 124.346C88.1965 125.169 87.3851 125.924 86.5779 126.657C84.1563 128.855 81.6686 130.939 79.098 132.904C78.6551 133.307 78.21 133.707 77.7621 134.104C77.0157 134.765 76.262 135.417 75.4998 136.059C75.1186 136.381 74.7357 136.699 74.353 137.012C71.0153 138.992 68.0099 141.597 65.2047 144.202C66.0061 140.796 64.8042 137.389 64.7415 134.004C64.7171 133.47 64.7013 132.934 64.6898 132.397C64.5866 127.567 64.8354 122.744 64.9293 117.879C64.9293 117.105 64.9293 116.663 64.9293 116.663C64.9293 116.663 64.2678 116.663 63.2757 116.665C55.3871 118.755 47.1722 115.55 48.4531 106.397C48.4214 105.851 48.3985 105.305 48.3833 104.758C48.3529 103.663 48.3525 102.564 48.3817 101.465C48.3962 100.915 48.4183 100.366 48.4477 99.832C48.5405 99.2599 48.618 98.6848 48.6825 98.1085C49.0319 93.9971 49.0331 89.8807 48.9861 85.7564C48.9794 85.1674 48.9717 84.5784 48.9628 83.9921C48.9659 83.0154 48.9682 82.0575 48.9692 81.1118C48.9703 80.1662 48.9698 79.233 48.9673 78.3055C48.9753 73.0727 48.9753 67.8632 48.9232 62.6117C48.9242 62.0593 48.9245 61.5623 48.9245 61.1274C48.9245 60.6925 48.9245 60.32 48.9245 60.0166C48.9245 59.4101 48.9245 59.0805 48.9245 59.0805C48.9245 56.0876 51.3496 53.6625 54.3425 53.6625C54.3425 53.6625 60.2466 53.6625 69.3519 53.6625C70.8695 53.6625 72.476 53.6614 74.1596 53.6581C77.369 53.64 80.5314 53.6377 83.7103 53.651C84.1648 53.6529 84.6199 53.6552 85.0757 53.6577C90.8513 53.2367 96.6618 53.6373 102.458 53.4801C102.982 53.4162 103.505 53.3604 104.027 53.3121C108.724 52.8755 113.414 53.052 118.121 53.1953C118.72 53.203 119.319 53.2105 119.919 53.2186C125.316 53.2908 130.73 53.3887 136.15 53.6625C136.665 53.6625 137.177 53.6625 137.685 53.6625C154.445 53.6625 167.031 53.6625 167.031 53.6625C167.305 53.6625 167.574 53.6827 167.839 53.7226C170.447 54.1124 172.449 56.3614 172.449 59.0805Z" fill="white"/>
<path d="M172.449 59.0805C172.449 59.0805 172.449 82.7117 172.449 98.1627C172.449 98.6041 172.449 99.039 172.449 99.4662C172.8 104.329 173.802 109.338 171.719 113.968C171.476 114.378 171.189 114.747 170.861 115.075C169.881 116.056 168.526 116.663 167.031 116.663C167.031 116.663 156.837 116.663 144.237 116.663C143.817 116.663 143.394 116.663 142.978 116.662C132.928 116.351 122.709 116.151 112.746 116.719C112.189 116.725 111.644 116.727 111.099 116.728C109.198 116.732 107.295 116.729 105.379 116.718C104.42 116.713 103.459 116.705 102.492 116.696C100.869 116.551 98.8659 116.151 97.6637 116.752C94.2575 118.154 91.8531 121.761 89.0647 124.346C88.1965 125.169 87.3851 125.924 86.5779 126.657C84.1563 128.855 81.6686 130.939 79.098 132.904C78.6551 133.307 78.21 133.707 77.7621 134.104C77.0157 134.765 76.262 135.417 75.4998 136.059C75.1186 136.381 74.7357 136.699 74.353 137.012C71.0153 138.992 68.0099 141.597 65.2047 144.202C66.0061 140.796 64.8042 137.389 64.7415 134.004C64.7171 133.47 64.7013 132.934 64.6898 132.397C64.5866 127.567 64.8354 122.744 64.9293 117.879C64.9293 117.105 64.9293 116.663 64.9293 116.663C64.9293 116.663 64.2678 116.663 63.2757 116.665C55.3871 118.755 47.1722 115.55 48.4531 106.397C48.4214 105.851 48.3985 105.305 48.3833 104.758C48.3529 103.663 48.3525 102.564 48.3817 101.465C48.3962 100.915 48.4183 100.366 48.4477 99.832C48.5405 99.2599 48.618 98.6848 48.6825 98.1085C49.0319 93.9971 49.0331 89.8807 48.9861 85.7564C48.9794 85.1674 48.9717 84.5784 48.9628 83.9921C48.9659 83.0154 48.9682 82.0575 48.9692 81.1118C48.9703 80.1662 48.9698 79.233 48.9673 78.3055C48.9753 73.0727 48.9753 67.8632 48.9232 62.6117C48.9242 62.0593 48.9245 61.5623 48.9245 61.1274C48.9245 60.6925 48.9245 60.32 48.9245 60.0166C48.9245 59.4101 48.9245 59.0805 48.9245 59.0805C48.9245 56.0876 51.3496 53.6625 54.3425 53.6625C54.3425 53.6625 60.2466 53.6625 69.3519 53.6625C70.8695 53.6625 72.476 53.6614 74.1596 53.6581C77.369 53.64 80.5314 53.6377 83.7103 53.651C84.1648 53.6529 84.6199 53.6552 85.0757 53.6577C90.8513 53.2367 96.6618 53.6373 102.458 53.4801C102.982 53.4162 103.505 53.3604 104.027 53.3121C108.724 52.8755 113.414 53.052 118.121 53.1953C118.72 53.203 119.319 53.2105 119.919 53.2186C125.316 53.2908 130.73 53.3887 136.15 53.6625C136.665 53.6625 137.177 53.6625 137.685 53.6625C154.445 53.6625 167.031 53.6625 167.031 53.6625C167.305 53.6625 167.574 53.6827 167.839 53.7226C170.447 54.1124 172.449 56.3614 172.449 59.0805Z" stroke="#020202" stroke-width="1.7" stroke-linejoin="round"/>
<path d="M124.74 102.326C124.74 102.326 124.35 102.326 123.645 102.327C116.497 102.726 109.485 102.326 102.351 102.325C101.805 102.325 101.26 102.325 100.716 102.324C96.9105 102.323 93.1455 102.318 89.3456 102.308C88.751 102.304 88.157 102.3 87.5623 102.294C85.1836 102.274 82.7949 102.239 80.3631 102.181C79.8122 102.177 79.2611 102.175 78.7091 102.175C75.9494 102.175 73.1705 102.226 70.317 102.326C69.7938 102.326 69.5119 102.326 69.5119 102.326C68.8969 102.326 68.3984 101.827 68.3984 101.212C68.3984 100.598 68.8969 100.099 69.5119 100.099C69.5119 100.099 70.1459 100.099 71.2781 100.099C71.6554 100.099 72.088 100.098 72.5729 100.094C74.7992 100.008 76.9644 100.015 79.1203 100.04C79.6593 100.047 80.1978 100.054 80.7372 100.062C83.0995 100.086 85.4786 100.1 87.8524 100.107C88.4457 100.109 89.0389 100.11 89.6319 100.111C93.3816 100.117 97.1938 100.12 100.988 100.116C101.531 100.116 102.073 100.115 102.615 100.115C109.685 100.122 116.697 100.522 123.646 100.099C124.353 100.099 124.74 100.099 124.74 100.099C125.355 100.099 125.854 100.598 125.854 101.212C125.854 101.827 125.355 102.326 124.74 102.326Z" fill="white"/>
<path d="M124.74 102.326C124.74 102.326 124.35 102.326 123.645 102.327C116.497 102.726 109.485 102.326 102.351 102.325C101.805 102.325 101.26 102.325 100.716 102.324C96.9105 102.323 93.1455 102.318 89.3456 102.308C88.751 102.304 88.157 102.3 87.5623 102.294C85.1836 102.274 82.7949 102.239 80.3631 102.181C79.8122 102.177 79.2611 102.175 78.7091 102.175C75.9494 102.175 73.1705 102.226 70.317 102.326C69.7938 102.326 69.5119 102.326 69.5119 102.326C68.8969 102.326 68.3984 101.827 68.3984 101.212C68.3984 100.598 68.8969 100.099 69.5119 100.099C69.5119 100.099 70.1459 100.099 71.2781 100.099C71.6554 100.099 72.088 100.098 72.5729 100.094C74.7992 100.008 76.9644 100.015 79.1203 100.04C79.6593 100.047 80.1978 100.054 80.7372 100.062C83.0995 100.086 85.4786 100.1 87.8524 100.107C88.4457 100.109 89.0389 100.11 89.6319 100.111C93.3816 100.117 97.1938 100.12 100.988 100.116C101.531 100.116 102.073 100.115 102.615 100.115C109.685 100.122 116.697 100.522 123.646 100.099C124.353 100.099 124.74 100.099 124.74 100.099C125.355 100.099 125.854 100.598 125.854 101.212C125.854 101.827 125.355 102.326 124.74 102.326Z" stroke="#020202" stroke-width="1.7" stroke-linejoin="round"/>
<path d="M151.859 86.0939C151.859 86.0939 141.829 86.0939 128.77 86.0939C126.904 86.0939 124.977 86.0939 123.008 86.0939C121.475 86.0346 119.952 86.029 118.435 86.0552C117.929 86.064 117.424 86.076 116.921 86.0904C111.488 86.2965 106.278 86.4968 100.898 86.4687C100.366 86.4635 99.8423 86.4548 99.3191 86.4446C95.6703 86.3725 92.018 86.2626 88.3884 86.2399C87.7992 86.2357 87.2098 86.2297 86.6201 86.2216C86.1779 86.2155 85.7353 86.2082 85.2924 86.1999C84.8496 86.1916 84.4063 86.182 83.9626 86.1714C79.0288 85.8959 74.0197 86.6973 68.8102 85.6954C68.2091 85.6954 68.2091 84.293 68.8102 84.293C73.6189 83.2911 78.0269 84.0925 82.6297 83.9138C83.0759 83.9282 83.5202 83.9413 83.9639 83.9532C84.851 83.9769 85.7363 83.9957 86.6208 84.0092C87.2104 84.0182 87.7998 84.025 88.389 84.0296C91.8581 83.9746 95.3179 84.0379 98.7699 84.0937C99.2631 84.1016 99.7561 84.1096 100.249 84.1168C105.477 84.293 110.686 83.8922 115.878 83.8614C116.468 83.847 117.063 83.8345 117.657 83.8272C118.845 83.8129 120.029 83.8197 121.206 83.8624C123.048 83.867 124.856 83.867 126.617 83.867C140.71 83.867 151.859 83.867 151.859 83.867C152.474 83.867 152.973 84.3656 152.973 84.9805C152.973 85.5953 152.474 86.0939 151.859 86.0939Z" fill="white"/>
<path d="M151.859 86.0939C151.859 86.0939 141.829 86.0939 128.77 86.0939C126.904 86.0939 124.977 86.0939 123.008 86.0939C121.475 86.0346 119.952 86.029 118.435 86.0552C117.929 86.064 117.424 86.076 116.921 86.0904C111.488 86.2965 106.278 86.4968 100.898 86.4687C100.366 86.4635 99.8423 86.4548 99.3191 86.4446C95.6703 86.3725 92.018 86.2626 88.3884 86.2399C87.7992 86.2357 87.2098 86.2297 86.6201 86.2216C86.1779 86.2155 85.7353 86.2082 85.2924 86.1999C84.8496 86.1916 84.4063 86.182 83.9626 86.1714C79.0288 85.8959 74.0197 86.6973 68.8102 85.6954C68.2091 85.6954 68.2091 84.293 68.8102 84.293C73.6189 83.2911 78.0269 84.0925 82.6297 83.9138C83.0759 83.9282 83.5202 83.9413 83.9639 83.9532C84.851 83.9769 85.7363 83.9957 86.6208 84.0092C87.2104 84.0182 87.7998 84.025 88.389 84.0296C91.8581 83.9746 95.3179 84.0379 98.7699 84.0937C99.2631 84.1016 99.7561 84.1096 100.249 84.1168C105.477 84.293 110.686 83.8922 115.878 83.8614C116.468 83.847 117.063 83.8345 117.657 83.8272C118.845 83.8129 120.029 83.8197 121.206 83.8624C123.048 83.867 124.856 83.867 126.617 83.867C140.71 83.867 151.859 83.867 151.859 83.867C152.474 83.867 152.973 84.3656 152.973 84.9805C152.973 85.5953 152.474 86.0939 151.859 86.0939Z" stroke="#020202" stroke-width="1.7" stroke-linejoin="round"/>
<path d="M151.86 69.8617C151.86 69.8617 139.749 69.8617 124.817 69.8617C124.379 69.8603 123.939 69.8597 123.504 69.8567C117.9 69.6665 112.289 69.867 106.638 69.71C106.107 69.6927 105.577 69.6783 105.045 69.6673C100.266 69.5657 95.4508 69.7148 90.6175 69.8599C90.2236 69.8609 89.833 69.8613 89.446 69.8617C89.0591 69.8617 88.6758 69.8617 88.296 69.8617C87.8769 69.8609 87.4624 69.8605 87.0524 69.8595C81.4334 69.8667 75.6229 69.8667 70.0549 69.8605C69.6987 69.8615 69.5119 69.8617 69.5119 69.8617C68.8969 69.8617 68.3984 69.3631 68.3984 68.7483C68.3984 68.1334 68.8969 67.6348 69.5119 67.6348C69.5119 67.6348 69.6987 67.6348 70.0547 67.6342C75.2223 67.6627 80.6321 67.4624 85.8386 67.6292C86.2377 67.6311 86.6425 67.6321 87.0524 67.6348C88.1859 67.6348 89.3558 67.6348 90.5557 67.6348C90.9577 67.6315 91.3621 67.6304 91.7708 67.6288C96.0354 67.372 100.358 67.3933 104.631 67.4878C105.242 67.5013 105.851 67.5163 106.459 67.5322C112.29 67.8632 117.9 67.2621 123.727 67.6313C124.162 67.6331 124.6 67.6336 125.035 67.6348C139.867 67.6348 151.86 67.6348 151.86 67.6348C152.475 67.6348 152.973 68.1334 152.973 68.7483C152.973 69.3631 152.475 69.8617 151.86 69.8617Z" fill="white"/>
<path d="M151.86 69.8617C151.86 69.8617 139.749 69.8617 124.817 69.8617C124.379 69.8603 123.939 69.8597 123.504 69.8567C117.9 69.6665 112.289 69.867 106.638 69.71C106.107 69.6927 105.577 69.6783 105.045 69.6673C100.266 69.5657 95.4508 69.7148 90.6175 69.8599C90.2236 69.8609 89.833 69.8613 89.446 69.8617C89.0591 69.8617 88.6758 69.8617 88.296 69.8617C87.8769 69.8609 87.4624 69.8605 87.0524 69.8595C81.4334 69.8667 75.6229 69.8667 70.0549 69.8605C69.6987 69.8615 69.5119 69.8617 69.5119 69.8617C68.8969 69.8617 68.3984 69.3631 68.3984 68.7483C68.3984 68.1334 68.8969 67.6348 69.5119 67.6348C69.5119 67.6348 69.6987 67.6348 70.0547 67.6342C75.2223 67.6627 80.6321 67.4624 85.8386 67.6292C86.2377 67.6311 86.6425 67.6321 87.0524 67.6348C88.1859 67.6348 89.3558 67.6348 90.5557 67.6348C90.9577 67.6315 91.3621 67.6304 91.7708 67.6288C96.0354 67.372 100.358 67.3933 104.631 67.4878C105.242 67.5013 105.851 67.5163 106.459 67.5322C112.29 67.8632 117.9 67.2621 123.727 67.6313C124.162 67.6331 124.6 67.6336 125.035 67.6348C139.867 67.6348 151.86 67.6348 151.86 67.6348C152.475 67.6348 152.973 68.1334 152.973 68.7483C152.973 69.3631 152.475 69.8617 151.86 69.8617Z" stroke="#020202" stroke-width="1.7" stroke-linejoin="round"/>
<path d="M80.0913 47.5538C80.2314 51.5552 79.0292 55.362 77.7654 59.0749C77.2797 60.101 76.7656 61.1078 76.2143 62.0849C74.5605 65.0162 72.5753 67.6812 70.0442 69.7751C69.5701 70.1934 69.0827 70.5959 68.5826 70.9823C63.9992 74.5255 58.3473 76.7533 52.1926 77.1C51.6332 77.1314 51.0691 77.148 50.4997 77.1547C45.1678 76.8012 39.5576 75.7993 34.9034 72.6317C34.382 72.3327 33.8717 72.0185 33.3735 71.6875C32.89 71.3446 32.4174 70.9869 31.9562 70.6154C31.4951 70.244 31.0451 69.859 30.6073 69.461C30.1694 69.0629 29.7435 68.6519 29.3331 68.2286C29.0131 67.7635 28.6924 67.2981 28.367 66.8449C25.1313 62.976 22.1259 58.5679 21.2769 53.4474C21.1769 52.9004 21.0903 52.357 21.0203 51.8124C20.8103 50.1782 20.753 48.5232 20.8515 46.8802C20.8667 46.3705 20.8942 45.8623 20.9356 45.3553C20.977 44.8484 21.0341 44.3418 21.1105 43.8388C21.9256 38.7322 23.9292 33.9233 26.6293 29.7598C26.9729 29.3003 27.3329 28.8533 27.7076 28.4186C29.5813 26.2464 31.8274 24.3799 34.3156 22.851C34.7293 22.5639 35.1478 22.2857 35.5707 22.0167C36.1159 21.6903 36.6752 21.3859 37.2448 21.0992C40.0933 19.6692 43.2047 18.6857 46.487 18.2403C47.1435 18.1512 47.8068 18.0836 48.4768 18.0365C54.1843 17.4935 59.7943 18.896 64.8518 21.1656C65.3255 21.4155 65.7864 21.6867 66.2361 21.977C68.9349 23.7184 71.2251 26.1431 73.3442 28.5985C73.6782 28.9849 74.0007 29.3792 74.3109 29.7813C76.1729 32.1937 77.5987 34.8889 78.4579 37.8402C78.669 38.449 78.8614 39.067 79.0336 39.693C79.3782 40.9454 79.6424 42.2308 79.8204 43.5438C79.9986 44.8565 80.0909 46.1952 80.0913 47.5538Z" fill="#38776C"/>
<path d="M80.0913 47.5538C80.2314 51.5552 79.0292 55.362 77.7654 59.0749C77.2797 60.101 76.7656 61.1078 76.2143 62.0849C74.5605 65.0162 72.5753 67.6812 70.0442 69.7751C69.5701 70.1934 69.0827 70.5959 68.5826 70.9823C63.9992 74.5255 58.3473 76.7533 52.1926 77.1C51.6332 77.1314 51.0691 77.148 50.4997 77.1547C45.1678 76.8012 39.5576 75.7993 34.9034 72.6317C34.382 72.3327 33.8717 72.0185 33.3735 71.6875C32.89 71.3446 32.4174 70.9869 31.9562 70.6154C31.4951 70.244 31.0451 69.859 30.6073 69.461C30.1694 69.0629 29.7435 68.6519 29.3331 68.2286C29.0131 67.7635 28.6924 67.2981 28.367 66.8449C25.1313 62.976 22.1259 58.5679 21.2769 53.4474C21.1769 52.9004 21.0903 52.357 21.0203 51.8124C20.8103 50.1782 20.753 48.5232 20.8515 46.8802C20.8667 46.3705 20.8942 45.8623 20.9356 45.3553C20.977 44.8484 21.0341 44.3418 21.1105 43.8388C21.9256 38.7322 23.9292 33.9233 26.6293 29.7598C26.9729 29.3003 27.3329 28.8533 27.7076 28.4186C29.5813 26.2464 31.8274 24.3799 34.3156 22.851C34.7293 22.5639 35.1478 22.2857 35.5707 22.0167C36.1159 21.6903 36.6752 21.3859 37.2448 21.0992C40.0933 19.6692 43.2047 18.6857 46.487 18.2403C47.1435 18.1512 47.8068 18.0836 48.4768 18.0365C54.1843 17.4935 59.7943 18.896 64.8518 21.1656C65.3255 21.4155 65.7864 21.6867 66.2361 21.977C68.9349 23.7184 71.2251 26.1431 73.3442 28.5985C73.6782 28.9849 74.0007 29.3792 74.3109 29.7813C76.1729 32.1937 77.5987 34.8889 78.4579 37.8402C78.669 38.449 78.8614 39.067 79.0336 39.693C79.3782 40.9454 79.6424 42.2308 79.8204 43.5438C79.9986 44.8565 80.0909 46.1952 80.0913 47.5538Z" stroke="#020202" stroke-width="1.7" stroke-linejoin="round"/>
<path d="M54.7691 64.2889C54.7604 66.4438 52.8571 68.3474 50.7632 68.5377C48.6694 68.728 46.9565 67.2051 46.3855 65.3018C46.0047 63.2079 47.1468 61.1141 49.0501 60.3528C51.3343 59.5915 53.9993 60.9238 54.6232 63.1777C54.7199 63.5315 54.7707 63.9042 54.7691 64.2889Z" fill="white"/>
<path d="M50.2823 56.047C49.1612 56.047 48.2312 55.1794 48.1537 54.0611C48.1537 54.0611 48.1121 53.462 48.0429 52.4635C48.0083 51.9643 47.9666 51.3652 47.9199 50.6905C47.8799 49.6917 47.8402 48.6946 47.7972 47.6995C47.7759 47.2018 47.7535 46.7044 47.73 46.2058C48.2907 40.7472 45.2451 34.8467 47.6252 29.7646C47.9559 29.4101 48.3568 29.1213 48.8068 28.9212C49.2568 28.721 49.7558 28.6096 50.2823 28.6096C50.7141 28.6826 51.1678 28.7667 51.619 28.9348C52.0702 29.1029 52.5184 29.3551 52.9393 29.7644C55.1431 34.6562 53.0495 40.3665 53.1226 45.6881C53.076 46.2457 53.0271 46.8009 52.9761 47.3557C52.8742 48.4653 52.7638 49.5764 52.6448 50.6891C52.5981 51.365 52.5564 51.9643 52.5217 52.4635C52.4525 53.462 52.4108 54.0611 52.4108 54.0611C52.3332 55.1794 51.4034 56.047 50.2823 56.047Z" fill="white"/>
<path d="M37.5452 17.3442C37.5171 17.3442 37.4886 17.3433 37.4601 17.3415C36.7881 17.295 36.2807 16.7128 36.3272 16.0407C36.3272 16.0407 36.3874 15.1691 36.4784 13.8599C36.5555 9.90624 36.9944 5.95577 37.2138 2.00552C37.4332 0.908163 39.4086 0.469168 39.4086 1.56654C39.8476 5.95577 39.1892 10.5644 38.8496 14.9208C38.7947 15.7183 38.7607 16.2086 38.7607 16.2086C38.7162 16.8519 38.1805 17.3442 37.5452 17.3442Z" fill="#020202"/>
<path d="M37.5452 17.3442C37.5171 17.3442 37.4886 17.3433 37.4601 17.3415C36.7881 17.295 36.2807 16.7128 36.3272 16.0407C36.3272 16.0407 36.3874 15.1691 36.4784 13.8599C36.5555 9.90624 36.9944 5.95577 37.2138 2.00552C37.4332 0.908163 39.4086 0.469168 39.4086 1.56654C39.8476 5.95577 39.1892 10.5644 38.8496 14.9208C38.7947 15.7183 38.7607 16.2086 38.7607 16.2086C38.7162 16.8519 38.1805 17.3442 37.5452 17.3442Z" stroke="#020202" stroke-width="1.86203" stroke-linejoin="round"/>
<path d="M22.248 22.3922C21.9143 22.3922 21.5821 22.2561 21.3412 21.9888C21.3412 21.9888 20.8929 21.4912 20.1508 20.6597C19.7725 20.1551 19.3816 19.6634 18.9814 19.1831C14.8309 14.5148 10.2223 10.3449 6.39957 5.40175C5.65249 4.57234 5.20415 4.07474 5.20415 4.07474C4.7533 3.57418 4.79343 2.80315 5.29399 2.3523C5.79478 1.90145 6.56582 1.94204 7.01643 2.44215C7.01643 2.44215 7.46477 2.93975 8.21186 3.76916C8.5854 4.18375 9.03398 4.68181 9.54161 5.2444C13.0754 9.68654 17.2451 13.198 20.7862 17.5717C21.1834 18.0486 21.5745 18.5339 21.9581 19.0292C22.7052 19.8586 23.1535 20.3562 23.1535 20.3562C23.6044 20.8568 23.5643 21.6278 23.0637 22.0786C22.8304 22.2887 22.5387 22.3922 22.248 22.3922Z" fill="#020202"/>
<path d="M22.248 22.3922C21.9143 22.3922 21.5821 22.2561 21.3412 21.9888C21.3412 21.9888 20.8929 21.4912 20.1508 20.6597C19.7725 20.1551 19.3816 19.6634 18.9814 19.1831C14.8309 14.5148 10.2223 10.3449 6.39957 5.40175C5.65249 4.57234 5.20415 4.07474 5.20415 4.07474C4.7533 3.57418 4.79343 2.80315 5.29399 2.3523C5.79478 1.90145 6.56582 1.94204 7.01643 2.44215C7.01643 2.44215 7.46477 2.93975 8.21186 3.76916C8.5854 4.18375 9.03398 4.68181 9.54161 5.2444C13.0754 9.68654 17.2451 13.198 20.7862 17.5717C21.1834 18.0486 21.5745 18.5339 21.9581 19.0292C22.7052 19.8586 23.1535 20.3562 23.1535 20.3562C23.6044 20.8568 23.5643 21.6278 23.0637 22.0786C22.8304 22.2887 22.5387 22.3922 22.248 22.3922Z" stroke="#020202" stroke-width="1.86203" stroke-linejoin="round"/>
<path d="M16.2878 36.9823C13.7447 36.9372 11.5081 36.2663 9.09626 36.395C8.65911 36.363 8.22197 36.3307 7.79158 36.2991C4.77901 36.0778 2.10087 35.881 2.10087 35.881C1.41624 35.8308 0.902406 35.2352 0.952605 34.5505C1.00279 33.8659 1.59727 33.3523 2.28307 33.402C2.28307 33.402 4.96098 33.5988 7.97355 33.8201C8.40395 33.8517 8.84131 33.884 9.27846 33.9161C11.7319 34.7009 16.2048 33.135 17.5471 35.8445C17.5018 36.4999 16.9459 36.9909 16.2878 36.9823Z" fill="#020202"/>
<path d="M16.2878 36.9823C13.7447 36.9372 11.5081 36.2663 9.09626 36.395C8.65911 36.363 8.22197 36.3307 7.79158 36.2991C4.77901 36.0778 2.10087 35.881 2.10087 35.881C1.41624 35.8308 0.902406 35.2352 0.952605 34.5505C1.00279 33.8659 1.59727 33.3523 2.28307 33.402C2.28307 33.402 4.96098 33.5988 7.97355 33.8201C8.40395 33.8517 8.84131 33.884 9.27846 33.9161C11.7319 34.7009 16.2048 33.135 17.5471 35.8445C17.5018 36.4999 16.9459 36.9909 16.2878 36.9823Z" stroke="#020202" stroke-width="1.89754" stroke-linejoin="round"/>
<mask id="mask0_7463_3515" style="mask-type:alpha" maskUnits="userSpaceOnUse" x="47" y="52" width="127" height="94">
<path d="M172.449 59.0805C172.449 59.0805 172.449 82.7117 172.449 98.1627C172.449 98.6041 172.449 99.039 172.449 99.4662C172.8 104.329 173.802 109.338 171.719 113.968C171.476 114.378 171.189 114.747 170.861 115.075C169.881 116.056 168.526 116.663 167.031 116.663C167.031 116.663 156.837 116.663 144.237 116.663C143.817 116.663 143.394 116.663 142.978 116.662C132.928 116.351 122.709 116.151 112.746 116.719C112.189 116.725 111.644 116.727 111.099 116.728C109.198 116.732 107.295 116.729 105.379 116.718C104.42 116.713 103.459 116.705 102.492 116.696C100.869 116.551 98.8659 116.151 97.6637 116.752C94.2575 118.154 91.8531 121.761 89.0647 124.346C88.1965 125.169 87.3851 125.924 86.5779 126.657C84.1563 128.855 81.6686 130.939 79.098 132.904C78.6551 133.307 78.21 133.707 77.7621 134.104C77.0157 134.765 76.262 135.417 75.4998 136.059C75.1186 136.381 74.7357 136.699 74.353 137.012C71.0153 138.992 68.0099 141.597 65.2047 144.202C66.0061 140.796 64.8042 137.389 64.7415 134.004C64.7171 133.47 64.7013 132.934 64.6898 132.397C64.5866 127.567 64.8354 122.744 64.9293 117.879C64.9293 117.105 64.9293 116.663 64.9293 116.663C64.9293 116.663 64.2678 116.663 63.2757 116.665C55.3871 118.755 47.1722 115.55 48.4531 106.397C48.4214 105.851 48.3985 105.305 48.3833 104.758C48.3529 103.663 48.3525 102.564 48.3817 101.465C48.3962 100.915 48.4183 100.366 48.4477 99.832C48.5405 99.2599 48.618 98.6848 48.6825 98.1085C49.0319 93.9971 49.0331 89.8807 48.9861 85.7564C48.9794 85.1674 48.9717 84.5784 48.9628 83.9921C48.9659 83.0154 48.9682 82.0575 48.9692 81.1118C48.9703 80.1662 48.9698 79.233 48.9673 78.3055C48.9753 73.0727 48.9753 67.8632 48.9232 62.6117C48.9242 62.0593 48.9245 61.5623 48.9245 61.1274C48.9245 60.6925 48.9245 60.32 48.9245 60.0166C48.9245 59.4101 48.9245 59.0805 48.9245 59.0805C48.9245 56.0876 51.3496 53.6625 54.3425 53.6625C54.3425 53.6625 60.2466 53.6625 69.3519 53.6625C70.8695 53.6625 72.476 53.6614 74.1596 53.6581C77.369 53.64 80.5314 53.6377 83.7103 53.651C84.1648 53.6529 84.6199 53.6552 85.0757 53.6577C90.8513 53.2367 96.6618 53.6373 102.458 53.4801C102.982 53.4162 103.505 53.3604 104.027 53.3121C108.724 52.8755 113.414 53.052 118.121 53.1953C118.72 53.203 119.319 53.2105 119.919 53.2186C125.316 53.2908 130.73 53.3887 136.15 53.6625C136.665 53.6625 137.177 53.6625 137.685 53.6625C154.445 53.6625 167.031 53.6625 167.031 53.6625C167.305 53.6625 167.574 53.6827 167.839 53.7226C170.447 54.1124 172.449 56.3614 172.449 59.0805Z" fill="white"/>
<path d="M172.449 59.0805C172.449 59.0805 172.449 82.7117 172.449 98.1627C172.449 98.6041 172.449 99.039 172.449 99.4662C172.8 104.329 173.802 109.338 171.719 113.968C171.476 114.378 171.189 114.747 170.861 115.075C169.881 116.056 168.526 116.663 167.031 116.663C167.031 116.663 156.837 116.663 144.237 116.663C143.817 116.663 143.394 116.663 142.978 116.662C132.928 116.351 122.709 116.151 112.746 116.719C112.189 116.725 111.644 116.727 111.099 116.728C109.198 116.732 107.295 116.729 105.379 116.718C104.42 116.713 103.459 116.705 102.492 116.696C100.869 116.551 98.8659 116.151 97.6637 116.752C94.2575 118.154 91.8531 121.761 89.0647 124.346C88.1965 125.169 87.3851 125.924 86.5779 126.657C84.1563 128.855 81.6686 130.939 79.098 132.904C78.6551 133.307 78.21 133.707 77.7621 134.104C77.0157 134.765 76.262 135.417 75.4998 136.059C75.1186 136.381 74.7357 136.699 74.353 137.012C71.0153 138.992 68.0099 141.597 65.2047 144.202C66.0061 140.796 64.8042 137.389 64.7415 134.004C64.7171 133.47 64.7013 132.934 64.6898 132.397C64.5866 127.567 64.8354 122.744 64.9293 117.879C64.9293 117.105 64.9293 116.663 64.9293 116.663C64.9293 116.663 64.2678 116.663 63.2757 116.665C55.3871 118.755 47.1722 115.55 48.4531 106.397C48.4214 105.851 48.3985 105.305 48.3833 104.758C48.3529 103.663 48.3525 102.564 48.3817 101.465C48.3962 100.915 48.4183 100.366 48.4477 99.832C48.5405 99.2599 48.618 98.6848 48.6825 98.1085C49.0319 93.9971 49.0331 89.8807 48.9861 85.7564C48.9794 85.1674 48.9717 84.5784 48.9628 83.9921C48.9659 83.0154 48.9682 82.0575 48.9692 81.1118C48.9703 80.1662 48.9698 79.233 48.9673 78.3055C48.9753 73.0727 48.9753 67.8632 48.9232 62.6117C48.9242 62.0593 48.9245 61.5623 48.9245 61.1274C48.9245 60.6925 48.9245 60.32 48.9245 60.0166C48.9245 59.4101 48.9245 59.0805 48.9245 59.0805C48.9245 56.0876 51.3496 53.6625 54.3425 53.6625C54.3425 53.6625 60.2466 53.6625 69.3519 53.6625C70.8695 53.6625 72.476 53.6614 74.1596 53.6581C77.369 53.64 80.5314 53.6377 83.7103 53.651C84.1648 53.6529 84.6199 53.6552 85.0757 53.6577C90.8513 53.2367 96.6618 53.6373 102.458 53.4801C102.982 53.4162 103.505 53.3604 104.027 53.3121C108.724 52.8755 113.414 53.052 118.121 53.1953C118.72 53.203 119.319 53.2105 119.919 53.2186C125.316 53.2908 130.73 53.3887 136.15 53.6625C136.665 53.6625 137.177 53.6625 137.685 53.6625C154.445 53.6625 167.031 53.6625 167.031 53.6625C167.305 53.6625 167.574 53.6827 167.839 53.7226C170.447 54.1124 172.449 56.3614 172.449 59.0805Z" stroke="#020202" stroke-width="1.7" stroke-linejoin="round"/>
</mask>
<g mask="url(#mask0_7463_3515)">
<path d="M141.342 41.6607L142.668 79.633C142.816 83.8712 146.371 87.1865 150.609 87.0385C180.387 89.1068 208.789 83.1248 256.517 83.3402L278.577 103.51L276.252 36.9495C276.104 32.7114 272.549 29.396 268.311 29.544C225.488 27.888 196.069 25.3852 148.747 33.7193C144.509 33.8673 141.194 37.4226 141.342 41.6607Z" fill="#020202"/>
<path d="M141.342 41.6607L142.668 79.633C142.816 83.8712 146.371 87.1865 150.609 87.0385C180.387 89.1068 208.789 83.1248 256.517 83.3402L278.577 103.51L276.252 36.9495C276.104 32.7114 272.549 29.396 268.311 29.544C225.488 27.888 196.069 25.3852 148.747 33.7193C144.509 33.8673 141.194 37.4226 141.342 41.6607Z" stroke="#020202" stroke-width="1.7" stroke-linejoin="round"/>
</g>
<path d="M129.776 34.5631L129.113 72.5528C129.039 76.7929 132.416 80.2898 136.656 80.3638C166.285 83.9876 194.96 79.5003 242.613 82.2133L263.586 103.51L264.749 36.9191C264.823 32.679 261.446 29.1821 257.206 29.1081C214.528 25.2132 185.28 21.1741 137.587 27.0201C133.347 26.9461 129.85 30.3231 129.776 34.5631Z" fill="white"/>
<path d="M129.776 34.5631L129.113 72.5528C129.039 76.7929 132.416 80.2898 136.656 80.3638C166.285 83.9876 194.96 79.5003 242.613 82.2133L263.586 103.51L264.749 36.9191C264.823 32.679 261.446 29.1821 257.206 29.1081C214.528 25.2132 185.28 21.1741 137.587 27.0201C133.347 26.9461 129.85 30.3231 129.776 34.5631Z" stroke="#020202" stroke-width="1.7" stroke-linejoin="round"/>
<path d="M217.288 53.4073C217.22 57.286 220.309 60.4851 224.188 60.5528C228.067 60.6205 231.266 57.5311 231.334 53.6525C231.401 49.7738 228.312 46.5745 224.433 46.5068C220.555 46.4391 217.355 49.5287 217.288 53.4073Z" fill="#020202"/>
<path d="M217.288 53.4073C217.22 57.286 220.309 60.4851 224.188 60.5528C228.067 60.6205 231.266 57.5311 231.334 53.6525C231.401 49.7738 228.312 46.5745 224.433 46.5068C220.555 46.4391 217.355 49.5287 217.288 53.4073Z" stroke="#020202" stroke-width="1.7" stroke-linejoin="round"/>
<path d="M189.897 55.2575C189.829 59.1361 192.919 62.3353 196.797 62.403C200.676 62.4707 203.875 59.3813 203.943 55.5026C204.011 51.624 200.921 48.4247 197.043 48.357C193.164 48.2893 189.965 51.3788 189.897 55.2575Z" fill="#020202"/>
<path d="M189.897 55.2575C189.829 59.1361 192.919 62.3353 196.797 62.403C200.676 62.4707 203.875 59.3813 203.943 55.5026C204.011 51.624 200.921 48.4247 197.043 48.357C193.164 48.2893 189.965 51.3788 189.897 55.2575Z" stroke="#020202" stroke-width="1.7" stroke-linejoin="round"/>
<path d="M162.522 56.2185C162.454 60.0972 165.544 63.2963 169.422 63.364C173.301 63.4317 176.5 60.3424 176.568 56.4637C176.636 52.585 173.546 49.3857 169.667 49.318C165.789 49.2503 162.59 52.3399 162.522 56.2185Z" fill="#020202"/>
<path d="M162.522 56.2185C162.454 60.0972 165.544 63.2963 169.422 63.364C173.301 63.4317 176.5 60.3424 176.568 56.4637C176.636 52.585 173.546 49.3857 169.667 49.318C165.789 49.2503 162.59 52.3399 162.522 56.2185Z" stroke="#020202" stroke-width="1.7" stroke-linejoin="round"/>
</svg>
