<svg width="350" height="335" viewBox="0 0 350 335" fill="none" xmlns="http://www.w3.org/2000/svg">
<path d="M114.565 46.168C121.666 45.6966 125.097 47.9996 128.157 51.6859C131.209 55.3799 145.58 81.192 145.58 81.192C145.58 81.192 175.398 81.988 181.077 83.7577C186.756 85.5275 189.971 88.7578 191.13 90.7285C192.289 92.6992 192.575 95.0949 191.794 98.2789C191.022 101.471 186.687 100.798 184.361 98.2789C182.035 95.7595 179.439 93.8816 177.005 92.506C174.571 91.1304 150.51 92.8306 143.95 92.9001C137.39 92.9697 136.169 90.2494 132.151 84.8087C128.133 79.3681 119.448 66.6862 119.448 66.6862L114.542 46.1603L114.565 46.168Z" fill="#D6B3A6"/>
<path d="M112.433 46.0598C118.823 45.5343 123.057 45.9284 126.719 49.4525C130.382 52.9688 142.845 75.3108 142.845 75.3108C142.845 75.3108 141.122 82.3821 130.56 83.9355L114.573 62.513L112.433 46.0675V46.0598Z" fill="#455A64"/>
<path d="M79.7093 242.363C82.3982 243.908 85.4271 243.885 88.711 242.633L90.8899 224.967L79.5161 222.347L79.7093 242.363Z" fill="#D6B3A6"/>
<path d="M113.143 232.757C115.299 237.818 118.459 236.165 123.25 233.104L123.567 215.654L111.165 214.804L113.143 232.749V232.757Z" fill="#D6B3A6"/>
<path d="M98.9875 258.708C99.2811 259.001 99.1575 261.196 98.8098 261.706C98.4389 262.255 96.4917 263.924 92.7906 264.079C89.2517 264.226 86.1224 263.654 84.0902 262.278C82.0581 260.902 81.1 259.419 80.9609 257.402C80.8295 255.385 81.1077 253.453 80.1959 251.876C79.3537 250.423 78.2102 248.993 77.932 248.213C77.3139 246.505 77.8084 243.893 77.8084 243.893L98.9952 258.7L98.9875 258.708Z" fill="#263238"/>
<path d="M89.9937 241.883C90.0323 242.633 90.1327 243.375 90.3568 244.132C90.8204 245.709 91.5545 247.2 92.389 248.615C92.8139 249.349 93.2698 250.068 93.7952 250.732C94.8229 252.031 96.121 253.112 97.2105 254.364C98.3077 255.616 99.2194 257.123 99.2581 258.762C99.3276 261.536 96.291 262.386 93.9729 262.726C91.4926 263.09 88.8578 262.881 86.4702 262.123C83.8122 261.281 81.9423 259.148 81.5715 256.459C81.4633 255.686 81.5406 254.905 81.471 254.125C81.3165 252.355 80.4511 250.717 79.462 249.217C78.8903 248.352 78.2644 247.502 77.8858 246.536C77.2136 244.805 77.8471 242.888 78.3648 241.196C78.8053 239.735 79.1452 237.973 79.6629 238.128C79.6629 238.421 79.6707 239.07 79.6707 239.07C79.8329 239.395 80.2038 239.627 80.3043 239.998C80.4047 240.392 80.5206 240.778 80.6906 241.149C80.9456 241.713 81.3397 242.231 81.8805 242.54C81.9501 241.497 82.0119 240.454 82.0737 239.41C82.0969 239.086 82.1278 238.738 82.3441 238.499C82.5605 238.251 82.9159 238.189 83.2404 238.143C85.203 237.834 87.2043 237.533 89.1746 237.826C89.4682 237.873 89.7928 237.95 89.9627 238.197C90.0941 238.398 90.0864 238.661 90.0709 238.908C90.0091 239.913 89.9473 240.887 89.9937 241.86V241.883Z" fill="#37474F"/>
<path d="M92.7444 249.21C91.74 248.406 89.4297 248.329 88.1625 248.429C86.5785 248.553 85.2804 249.071 84.5386 249.581C84.2064 249.813 83.7582 249.751 83.4878 249.465C83.1555 249.117 83.2019 248.568 83.6037 248.29C84.3918 247.749 85.8058 246.992 87.6834 246.915C90.7973 246.791 91.6936 247.347 91.6936 247.347C91.6936 247.347 93.0844 248.306 92.7522 249.21H92.7444Z" fill="#F5F5F5"/>
<path d="M95.0314 252.116C93.7565 251.312 91.2144 251.343 89.9472 251.443C88.3632 251.567 87.1578 252.154 86.416 252.664C86.0838 252.888 85.6356 252.834 85.3652 252.548C85.033 252.201 85.0793 251.652 85.4811 251.374C86.2692 250.833 87.776 249.959 89.6536 249.882C92.7675 249.758 93.5556 250.415 93.5556 250.415C93.5556 250.415 94.8537 250.964 95.0314 252.116Z" fill="#F5F5F5"/>
<path d="M86.532 243.901C88.6878 243.746 89.5918 244.009 90.4263 244.341C90.9672 244.666 91.2995 245.539 90.944 245.748C90.2641 245.346 89.0201 245.145 87.4979 245.168C86.4702 245.183 85.1721 245.562 84.1136 245.995C83.8431 246.103 83.5263 246.258 83.2482 246.404C82.8695 246.598 82.4059 246.435 82.2359 246.057C82.0969 245.732 82.2205 245.353 82.5296 245.176C83.2945 244.743 84.8012 244.024 86.5398 243.901H86.532Z" fill="#F5F5F5"/>
<path d="M142.196 244.356C142.466 244.975 142.35 246.103 141.987 246.814C141.624 247.525 137.791 249.534 132.73 249.04C127.662 248.545 124.239 246.397 122.338 245.06C120.437 243.723 118.428 243.421 115.925 243.205C113.413 242.989 110.153 241.636 109.635 240.438C109.117 239.248 109.813 237.239 109.813 237.239L142.203 244.356H142.196Z" fill="#263238"/>
<path d="M122.129 228.792C122.57 228.645 123.018 228.498 123.458 228.351C123.705 228.266 123.976 228.189 124.208 228.29C124.532 228.421 124.64 228.807 124.718 229.147C124.872 229.843 124.919 230.732 125.204 231.373C125.467 231.953 126.124 232.494 126.588 232.911C127.785 233.993 129.176 234.851 130.575 235.655C132.205 236.597 133.812 237.339 135.504 238.159C137.227 238.993 139.53 239.542 140.874 240.508C142.829 241.907 142.984 245.292 140.673 246.559C138.68 247.649 133.488 248.746 128.133 247.054C125.212 246.134 122.036 242.888 118.181 242.471C115.731 242.208 111.103 241.373 109.573 239.465C109.017 238.622 109.875 236.018 110.578 233.769C111.35 231.319 111.744 227.355 112.556 227.594C112.695 228.908 113.274 229.016 113.684 229.719C114.047 230.338 114.24 231.041 114.511 231.713C114.781 232.378 115.144 233.042 115.739 233.444C116.334 233.846 117.215 233.893 117.733 233.39C118.482 232.664 118.088 231.342 118.644 230.461C119.023 229.866 119.742 229.603 120.414 229.379C120.986 229.186 121.55 229.001 122.121 228.807L122.129 228.792Z" fill="#37474F"/>
<path d="M128.334 234.24C128.334 234.24 128.009 233.29 126.556 232.973C125.444 232.733 123.443 233.498 122.191 234.472C121.673 234.874 121.72 235.662 122.276 235.995C122.608 236.196 123.025 236.157 123.327 235.91C124.153 235.23 125.992 234.016 128.334 234.248V234.24Z" fill="#F5F5F5"/>
<path d="M131.741 236.281C131.741 236.281 131.053 235.129 129.624 235.106C129.624 235.106 126.703 235.106 124.841 236.737C124.37 237.154 124.378 237.888 124.918 238.205C125.243 238.398 125.645 238.359 125.931 238.12C126.765 237.417 128.442 235.941 131.733 236.281H131.741Z" fill="#F5F5F5"/>
<path d="M135.512 238.143C135.512 238.143 134.739 237.1 133.31 237.077C133.31 237.077 130.59 237.1 128.728 238.73C128.257 239.148 128.264 239.882 128.805 240.199C129.13 240.392 129.531 240.353 129.817 240.114C130.652 239.41 132.22 237.803 135.512 238.151V238.143Z" fill="#F5F5F5"/>
<path d="M83.874 106.046C82.6608 125.412 80.6905 173.876 80.6905 173.876C80.4124 176.279 79.5238 183.381 79.0833 192.068C78.4497 204.657 79.4465 232.447 79.4465 232.447C79.4465 232.447 84.6157 235.43 90.1945 233.297C90.1945 233.297 97.3572 192.346 99.6443 179.989C101.653 169.131 105.578 142.924 105.578 142.924L107.41 175.135C107.41 175.135 106.784 184.023 107.835 192.446C108.553 198.188 111.837 223.112 111.837 223.112C111.837 223.112 117.501 224.851 123.559 223.004C123.559 223.004 125.266 181.202 125.529 175.916C125.823 169.888 127.082 102.158 127.082 102.158L83.8662 106.046H83.874Z" fill="#455A64"/>
<path d="M105.579 142.917L108.916 127.12C108.916 127.12 116.883 126.664 121.403 122.36C121.403 122.36 120.491 126.68 110.423 128.991L107.078 144.98L106.745 159.841L105.571 142.917H105.579Z" fill="#263238"/>
<path d="M87.521 48.4169C83.7117 49.097 83.4644 50.9826 82.6299 54.754C82.2127 56.6319 81.2932 60.6583 81.6564 64.0355L83.6112 86.5244L82.8617 112.074C88.9891 118.735 114.132 120.861 127.507 111.092C127.507 111.092 127.36 68.8656 126.742 62.088C125.668 50.2484 120.298 46.0366 112.417 46.0675L98.9412 47.2113L87.5055 48.4169H87.521Z" fill="#3C5AE7"/>
<path opacity="0.5" d="M87.521 48.4169C83.7117 49.097 83.4644 50.9826 82.6299 54.754C82.2127 56.6319 81.2932 60.6583 81.6564 64.0355L83.6112 86.5244L82.8617 112.074C88.9891 118.735 114.132 120.861 127.507 111.092C127.507 111.092 127.36 68.8656 126.742 62.088C125.668 50.2484 120.298 46.0366 112.417 46.0675L98.9412 47.2113L87.5055 48.4169H87.521Z" fill="white"/>
<path d="M101.761 18.4857C101.784 25.0933 107.155 30.4335 113.761 30.4103C120.367 30.3871 125.707 25.016 125.683 18.4085C125.66 11.8009 120.29 6.46073 113.684 6.48392C107.077 6.5071 101.738 11.8782 101.761 18.4857Z" fill="#263238"/>
<path d="M98.0217 20.8274L95.4642 13.9725C95.4642 13.9725 93.3779 13.6247 91.7553 15.294C90.1636 16.9324 91.0754 22.033 93.0766 27.0331C93.0766 27.0331 95.0469 36.1368 95.8273 37.6284C96.6077 39.1199 98.2149 39.545 98.2149 39.545L98.014 20.8351L98.0217 20.8274Z" fill="#263238"/>
<path d="M97.8208 27.4272C97.0868 27.8677 96.0437 26.4612 95.1319 25.5261C94.2279 24.5833 91.2763 23.3004 89.8159 26.4071C88.3324 29.5679 91.1372 33.7334 93.4629 34.4521C97.4654 35.6963 98.0604 33.1229 98.0604 33.1229L98.4158 47.5436C98.4158 47.5436 101.058 53.9425 108.152 54.8776C115.245 55.8127 113.761 49.9702 111.428 47.1185L111.405 42.729C111.405 42.729 115.028 43.2699 116.798 42.984C119.734 42.5203 121.581 40.1941 122.462 37.0024C123.876 31.8864 124.409 27.7518 123.157 17.6975C121.789 6.67712 108.971 6.60757 102.063 10.9894C95.1551 15.3713 97.8363 27.4118 97.8363 27.4118L97.8208 27.4272Z" fill="#D6B3A6"/>
<path d="M97.8982 28.3932C96.7392 28.0609 95.897 26.2062 95.1397 25.5184C93.8725 24.3746 95.4643 13.9648 95.4643 13.9648C95.4643 13.9648 94.2434 11.3836 96.6619 8.69417C98.385 6.78531 101.275 6.5612 106.204 5.77292C108.638 5.37879 111.513 5.19331 113.924 4.74508C116.867 4.19638 118.745 3.63223 121.102 2.44982C121.534 2.23343 121.998 1.99386 122.469 2.09432C122.848 2.1716 123.165 2.46527 123.335 2.82077C123.505 3.16854 123.543 3.5704 123.536 3.95681C123.52 4.3664 123.451 4.76826 123.327 5.1624C123.25 5.39424 122.778 6.09751 122.879 6.29844C123.126 6.80077 125.027 5.9584 125.406 5.84248C125.498 5.81156 125.599 5.78838 125.684 5.82702C125.753 5.85793 125.8 5.93522 125.838 6.00477C126.449 7.1949 126.225 8.85646 125.622 10.008C124.216 12.6587 121.55 14.6526 118.83 15.7886C115.925 16.9942 112.703 17.4424 109.573 17.0792C108.229 16.9246 106.9 16.6155 105.625 16.1596C105.687 16.1827 104.845 17.4115 104.752 17.512C104.381 17.9448 103.948 18.3234 103.477 18.6326C103.013 18.934 102.48 19.2045 101.939 19.3513C101.375 19.4981 100.834 19.4286 100.525 20.0314C100.324 20.4178 100.309 20.866 100.294 21.3065C100.255 22.5817 100.216 23.8568 100.178 25.1319C100.162 25.7811 100.139 26.438 99.9226 27.0485C99.7063 27.6591 99.2504 28.2232 98.6322 28.401C98.3773 28.4782 98.13 28.4705 97.8982 28.401V28.3932Z" fill="#263238"/>
<path d="M111.397 42.729C111.397 42.729 104.829 41.4306 102.527 40.2173C100.989 39.4058 99.7141 37.9916 99.3433 37.0874C99.3433 37.0874 99.7837 39.0349 101.159 40.7815C102.843 42.9222 111.405 44.4755 111.405 44.4755V42.729H111.397Z" fill="#D99C86"/>
<path d="M110.145 25.982C110.145 26.7394 109.558 27.3499 108.832 27.3499C108.105 27.3499 107.51 26.7394 107.51 25.982C107.51 25.2247 108.097 24.6142 108.824 24.6142C109.55 24.6142 110.145 25.2247 110.145 25.982Z" fill="#263238"/>
<path d="M108.569 21.9248L105.656 23.8182C105.146 22.9758 105.385 21.8707 106.189 21.3529C106.992 20.8274 108.059 21.0901 108.569 21.9248Z" fill="#263238"/>
<path d="M107.951 33.9807L112.579 35.9591C111.984 37.2497 110.616 37.8911 109.179 37.3038C107.889 36.7783 107.348 35.2713 107.951 33.973V33.9807Z" fill="#D99C86"/>
<path d="M109.179 37.3115C109.573 37.4738 109.952 37.5356 110.322 37.5202C110.16 36.446 109.248 35.6268 108.136 35.6268C108.02 35.6268 107.904 35.6422 107.788 35.6654C107.958 36.3841 108.445 37.0179 109.179 37.3193V37.3115Z" fill="#F28F8F"/>
<path d="M121.843 23.2772L119.077 21.6002C119.518 20.8119 120.491 20.5492 121.256 21.0128C122.021 21.4765 122.284 22.4889 121.843 23.2772Z" fill="#263238"/>
<path d="M120.785 25.9743C120.785 26.7317 120.197 27.3422 119.471 27.3422C118.745 27.3422 118.158 26.7317 118.15 25.9743C118.15 25.217 118.737 24.6064 119.463 24.6064C120.19 24.6064 120.785 25.217 120.785 25.9743Z" fill="#263238"/>
<path d="M113.854 25.2943L114.063 33.7643L118.521 32.3887L113.854 25.2943Z" fill="#D99C86"/>
<path d="M76.472 87.0113C80.3895 80.8288 86.0223 69.3834 86.0223 69.3834C89.2212 61.7866 89.0203 53.1311 87.305 48.4555C87.305 48.4555 85.2651 48.7415 84.1447 49.066C78.7051 50.5885 77.1751 51.3999 74.5326 55.8745C72.4309 59.4295 65.6236 77.212 63.012 82.7453L50.2396 71.1299C47.2107 68.1314 46.7703 64.1669 44.9854 61.5779C43.2005 58.989 41.0061 58.1389 38.9276 55.8977C36.8491 53.6566 36.1305 52.0568 35.1337 53.6334C34.137 55.2099 36.3391 58.4403 36.7023 59.2054C37.0577 59.9705 39.4916 61.9643 36.0069 61.3925C32.5221 60.8206 26.2866 55.9518 24.7489 55.0167C23.2113 54.0816 22.9254 56.0909 23.5204 57.5052C24.1231 58.9194 23.4277 62.5517 24.4476 64.8933C25.5216 67.374 26.1552 68.4792 29.1841 70.4808C32.0044 72.3432 38.3094 74.028 41.1838 76.6401C44.0582 79.2522 50.8191 87.8305 54.9375 92.9929C60.1685 99.5541 64.7659 102.591 69.0234 97.7689C72.1682 94.2139 75.0348 89.3143 76.4797 87.019L76.472 87.0113Z" fill="#D6B3A6"/>
<path d="M88.5333 48.3087C84.1986 48.0537 77.1286 48.4478 73.2188 57.0492C69.3091 65.6507 63.7612 79.7468 63.7612 79.7468C63.7612 79.7468 70.3367 88.4487 77.4763 87.6682L88.232 67.2581C88.232 67.2581 91.3381 56.5546 88.5333 48.3087Z" fill="#455A64"/>
<path d="M291.261 256.899C291.863 256.552 292.242 255.802 292.242 254.735V160.97C292.242 159.903 291.871 158.721 291.261 157.67L297.071 154.316C297.674 155.367 298.053 156.549 298.053 157.616V251.381C298.053 252.448 297.674 253.197 297.071 253.553L291.268 256.907L291.261 256.899Z" fill="#263238"/>
<path d="M291.261 157.67C290.658 156.619 289.816 155.707 288.896 155.174L182.8 93.9125C179.107 91.7795 173.111 91.7795 169.417 93.9125L167.107 95.2495C164.99 96.4705 163.885 98.3871 163.885 100.381V201.883C163.885 199.889 164.99 197.972 167.107 196.743L169.417 195.406C173.111 193.273 179.107 193.273 182.8 195.406L288.896 256.667C289.824 257.201 290.658 257.255 291.261 256.899C291.863 256.552 292.242 255.802 292.242 254.735V160.97C292.242 159.903 291.871 158.721 291.261 157.67Z" fill="#37474F"/>
<path d="M164.17 102.112C163.328 99.5463 164.371 96.8183 167.114 95.234L169.425 93.8971C173.118 91.7641 179.114 91.7641 182.807 93.8971L288.904 155.158C289.908 155.784 290.689 156.626 291.268 157.654L297.079 154.3C296.561 153.35 295.804 152.5 294.714 151.804L185.705 88.8738C180.234 85.7129 171.99 85.7207 166.527 88.8738L164.217 90.2107C160.902 92.1196 158.715 95.2418 158.205 98.7735C158.128 99.299 158.089 99.8246 158.089 100.35C158.089 103.356 159.31 106.332 161.559 108.681L165.754 104.678C164.989 103.874 164.464 103.001 164.17 102.097" fill="#455A64"/>
<path d="M284.515 172.987V160.166L177.947 98.6422C175.853 97.452 173.087 97.6375 171.256 98.6422L170.105 99.3068C169.123 99.8787 168.544 100.713 168.49 101.873V124.106L284.515 172.979V172.987Z" fill="#3C5AE7"/>
<path opacity="0.2" d="M284.515 172.987V160.166L177.947 98.6422C175.853 97.452 173.087 97.6375 171.256 98.6422L170.105 99.3068C169.123 99.8787 168.544 100.713 168.49 101.873V124.106L284.515 172.979V172.987Z" fill="black"/>
<path d="M179.392 96.1382C176.657 94.5617 172.539 94.5617 169.803 96.1382L168.652 96.8029C166.999 97.7611 165.901 99.3222 165.646 101.084C165.608 101.347 165.592 101.61 165.592 101.873V105.342L168.49 108.372V101.873C168.49 100.876 169.038 99.9173 170.105 99.3068L171.256 98.6422C173.103 97.5757 176.101 97.5757 177.947 98.6422L284.515 160.166L287.42 158.489L179.4 96.1382H179.392Z" fill="#3C5AE7"/>
<path opacity="0.3" d="M179.392 96.1382C176.657 94.5617 172.539 94.5617 169.803 96.1382L168.652 96.8029C166.999 97.7611 165.901 99.3222 165.646 101.084C165.608 101.347 165.592 101.61 165.592 101.873V105.342L168.49 108.372V101.873C168.49 100.876 169.038 99.9173 170.105 99.3068L171.256 98.6422C173.103 97.5757 176.101 97.5757 177.947 98.6422L284.515 160.166L287.42 158.489L179.4 96.1382H179.392Z" fill="black"/>
<path d="M284.515 160.166L287.42 158.489V174.486L284.515 172.763V160.166Z" fill="#3C5AE7"/>
<path opacity="0.4" d="M284.515 160.166L287.42 158.489V174.486L284.515 172.763V160.166Z" fill="black"/>
<path d="M288.232 245.152V172.964L181.965 111.533C179.748 110.25 177.012 110.25 174.795 111.533L172.106 113.086V181.959L284.894 247.085C286.377 247.942 288.239 246.868 288.239 245.152H288.232Z" fill="#263238"/>
<path d="M277.901 242.455L279.724 241.404C280.296 241.072 280.767 240.268 280.767 239.604V165.39C280.767 164.726 280.304 163.922 279.724 163.59L183.541 108.032C182.97 107.7 182.035 107.7 181.463 108.032L179.639 109.083C179.068 109.415 178.596 110.219 178.596 110.884V185.097C178.596 185.762 179.06 186.565 179.639 186.898L275.822 242.455C276.394 242.788 277.329 242.788 277.901 242.455Z" fill="#3C5AE7"/>
<path opacity="0.7" d="M277.901 242.455L279.724 241.404C280.296 241.072 280.767 240.268 280.767 239.604V165.39C280.767 164.726 280.304 163.922 279.724 163.59L183.541 108.032C182.97 107.7 182.035 107.7 181.463 108.032L179.639 109.083C179.068 109.415 178.596 110.219 178.596 110.884V185.097C178.596 185.762 179.06 186.565 179.639 186.898L275.822 242.455C276.394 242.788 277.329 242.788 277.901 242.455Z" fill="white"/>
<path d="M275.823 165.846L179.632 110.288C179.06 109.956 178.589 110.227 178.589 110.891V185.105C178.589 185.769 179.052 186.573 179.632 186.905L275.815 242.463C276.387 242.795 276.858 242.525 276.858 241.86V167.647C276.858 166.982 276.394 166.178 275.815 165.846H275.823Z" fill="#3C5AE7"/>
<path d="M275.823 165.846L179.632 110.288C179.06 109.956 178.589 110.227 178.589 110.891V185.105C178.589 185.769 179.052 186.573 179.632 186.905L275.815 242.463C276.387 242.795 276.858 242.525 276.858 241.86V167.647C276.858 166.982 276.394 166.178 275.815 165.846H275.823Z" fill="#3C5AE7"/>
<path opacity="0.5" d="M275.823 165.846L179.632 110.288C179.06 109.956 178.589 110.227 178.589 110.891V185.105C178.589 185.769 179.052 186.573 179.632 186.905L275.815 242.463C276.387 242.795 276.858 242.525 276.858 241.86V167.647C276.858 166.982 276.394 166.178 275.815 165.846H275.823Z" fill="white"/>
<path d="M179.632 110.288C187.521 115.134 195.479 119.864 203.454 124.57L227.43 138.581L251.545 152.353L263.653 159.154L275.823 165.846L263.946 158.651L252.009 151.565L228.032 137.553L203.917 123.782C195.85 119.238 187.784 114.709 179.64 110.288H179.632Z" fill="white"/>
<path d="M276.557 166.619L280.459 164.362C280.644 164.687 280.768 165.058 280.76 165.382V239.596C280.76 240.261 280.304 241.072 279.725 241.404L277.901 242.455C277.391 242.749 276.603 242.78 276.023 242.548C276.502 242.703 276.85 242.424 276.85 241.845V167.631C276.858 167.307 276.734 166.936 276.549 166.611L276.557 166.619Z" fill="#3C5AE7"/>
<path d="M276.858 176.117L280.76 173.868V193.266L276.858 195.491V176.117Z" fill="#3C5AE7"/>
<path opacity="0.2" d="M276.858 176.117L280.76 173.868V193.266L276.858 195.491V176.117Z" fill="black"/>
<path opacity="0.2" d="M178.589 119.354L276.858 176.117V195.491L178.597 138.728L178.589 119.354Z" fill="black"/>
<path d="M270.793 218.521V231.203C270.793 232.154 270.128 232.54 269.302 232.061L255.988 224.472C255.169 224.001 254.497 222.841 254.497 221.891V209.209C254.497 208.258 255.162 207.872 255.988 208.351C259.62 210.453 265.67 213.838 269.302 215.94C270.121 216.411 270.793 217.571 270.793 218.521Z" fill="#455A64"/>
<mask id="mask0_2287_1593" style="mask-type:luminance" maskUnits="userSpaceOnUse" x="254" y="208" width="17" height="25">
<path d="M270.793 218.521V231.203C270.793 232.154 270.128 232.54 269.302 232.061L255.988 224.472C255.169 224.001 254.497 222.841 254.497 221.891V209.209C254.497 208.258 255.162 207.872 255.988 208.351C259.62 210.453 265.67 213.838 269.302 215.94C270.121 216.411 270.793 217.571 270.793 218.521Z" fill="white"/>
</mask>
<g mask="url(#mask0_2287_1593)">
<path d="M273.42 223.545L273.752 222.957L251.878 210.43L251.538 211.01L273.42 223.545Z" fill="white"/>
<path d="M265.546 218.413H264.874V224.874H265.546V218.413Z" fill="white"/>
<path d="M260.423 215.585H259.751V222.038H260.423V215.585Z" fill="white"/>
<path d="M273.42 230.021L273.752 229.433L251.878 216.906L251.538 217.486L273.42 230.021Z" fill="white"/>
</g>
<path d="M219.147 154.354C218.606 153.342 218.328 152.191 218.328 150.884C218.328 149.571 218.591 148.721 219.124 148.342C219.657 147.955 220.414 148.056 221.411 148.628C221.828 148.867 222.207 149.138 222.539 149.447C222.879 149.756 223.165 150.073 223.397 150.413C223.451 150.498 223.482 150.575 223.482 150.645C223.482 150.707 223.466 150.761 223.428 150.807L223.126 151.333C223.088 151.395 223.049 151.41 223.011 151.387C222.98 151.364 222.926 151.317 222.864 151.232C222.501 150.745 222.068 150.367 221.573 150.081C220.986 149.741 220.53 149.702 220.206 149.973C219.881 150.235 219.719 150.815 219.719 151.704C219.719 152.592 219.889 153.373 220.229 154.014C220.569 154.656 221.033 155.15 221.62 155.49C222.153 155.8 222.601 155.923 222.972 155.861C223.034 155.854 223.08 155.861 223.119 155.877C223.157 155.9 223.196 155.962 223.235 156.07L223.567 157.028C223.59 157.098 223.598 157.144 223.598 157.183C223.598 157.229 223.567 157.268 223.497 157.291C223.057 157.461 222.369 157.276 221.442 156.742C220.453 156.171 219.688 155.382 219.139 154.37L219.147 154.354Z" fill="#455A64"/>
<path d="M224.378 158.126C224.317 158.01 224.286 157.871 224.286 157.701V150.946C224.286 150.776 224.317 150.668 224.378 150.622C224.44 150.575 224.533 150.591 224.672 150.668L226.835 151.912C228.28 152.747 229.007 154.007 229.007 155.691C229.007 156.232 228.922 156.634 228.752 156.912C228.582 157.191 228.327 157.33 227.995 157.33L228.891 160.467C228.906 160.529 228.914 160.591 228.914 160.645C228.914 160.784 228.852 160.815 228.736 160.746L227.786 160.197C227.709 160.151 227.647 160.104 227.608 160.05C227.57 160.004 227.531 159.919 227.508 159.81L226.72 156.851L225.7 156.263V158.497C225.7 158.667 225.669 158.767 225.615 158.814C225.561 158.86 225.46 158.844 225.313 158.759L224.672 158.388C224.533 158.311 224.44 158.211 224.378 158.095V158.126ZM226.627 155.467C226.951 155.653 227.191 155.707 227.353 155.614C227.515 155.529 227.6 155.282 227.6 154.888C227.6 154.494 227.523 154.161 227.376 153.891C227.23 153.62 227.005 153.404 226.712 153.234L225.692 152.646V154.926L226.619 155.467H226.627Z" fill="#455A64"/>
<path d="M229.795 161.256C229.733 161.14 229.702 161.001 229.702 160.831V154.076C229.702 153.906 229.733 153.798 229.795 153.752C229.857 153.705 229.949 153.721 230.088 153.798L233.635 155.846C233.774 155.923 233.867 156.016 233.913 156.116C233.967 156.217 233.991 156.356 233.991 156.534V156.959C233.991 157.137 233.967 157.245 233.913 157.291C233.859 157.337 233.766 157.322 233.635 157.245L231.116 155.792V157.593L232.878 158.605C233.017 158.682 233.11 158.775 233.156 158.875C233.21 158.976 233.233 159.115 233.233 159.293V159.695C233.233 159.872 233.21 159.981 233.156 160.027C233.102 160.073 233.009 160.058 232.878 159.98L231.116 158.968V160.776L233.627 162.229C233.766 162.307 233.859 162.399 233.906 162.508C233.96 162.616 233.983 162.755 233.983 162.925V163.335C233.983 163.512 233.96 163.62 233.906 163.659C233.851 163.698 233.759 163.682 233.627 163.605L230.088 161.565C229.949 161.487 229.857 161.387 229.795 161.279V161.256Z" fill="#455A64"/>
<path d="M234.693 164.084C234.631 163.968 234.601 163.829 234.601 163.659V156.905C234.601 156.735 234.631 156.626 234.693 156.58C234.755 156.534 234.848 156.549 234.987 156.626L236.78 157.662C237.753 158.226 238.495 158.96 238.997 159.88C239.507 160.792 239.754 161.92 239.754 163.257C239.754 164.594 239.499 165.406 238.989 165.738C238.479 166.07 237.738 165.962 236.78 165.406L234.987 164.37C234.848 164.293 234.755 164.192 234.693 164.084ZM236.849 164.069C237.359 164.362 237.738 164.393 237.985 164.161C238.232 163.93 238.364 163.358 238.364 162.446C238.364 161.534 238.24 160.823 237.985 160.305C237.738 159.787 237.359 159.385 236.849 159.092L236.015 158.605V163.582L236.849 164.069Z" fill="#455A64"/>
<path d="M240.55 167.461C240.488 167.345 240.458 167.206 240.458 167.036V160.282C240.458 160.112 240.488 160.004 240.55 159.957C240.612 159.911 240.705 159.926 240.844 160.004L241.485 160.375C241.624 160.46 241.725 160.552 241.787 160.668C241.841 160.784 241.872 160.923 241.872 161.101V167.855C241.872 168.026 241.841 168.126 241.787 168.18C241.732 168.226 241.632 168.211 241.485 168.126L240.844 167.755C240.705 167.678 240.612 167.577 240.55 167.469V167.461Z" fill="#455A64"/>
<path d="M244.244 169.602C244.182 169.486 244.151 169.347 244.151 169.177V163.311L242.752 162.5C242.613 162.423 242.521 162.33 242.474 162.229C242.42 162.129 242.397 161.99 242.397 161.812V161.387C242.397 161.209 242.42 161.101 242.474 161.055C242.528 161.008 242.621 161.024 242.752 161.101L246.971 163.535C247.11 163.613 247.203 163.705 247.257 163.814C247.311 163.922 247.334 164.061 247.334 164.239V164.664C247.334 164.834 247.311 164.934 247.257 164.981C247.203 165.027 247.11 165.012 246.971 164.927L245.573 164.115V169.981C245.573 170.151 245.542 170.251 245.48 170.298C245.418 170.344 245.318 170.321 245.179 170.243L244.545 169.88C244.406 169.795 244.305 169.703 244.244 169.587V169.602Z" fill="#455A64"/>
<path d="M251.592 173.087C251.051 172.075 250.773 170.924 250.773 169.618C250.773 168.311 251.036 167.454 251.569 167.075C252.102 166.689 252.859 166.789 253.856 167.361C254.273 167.6 254.652 167.871 254.984 168.18C255.324 168.489 255.61 168.806 255.842 169.146C255.896 169.231 255.927 169.308 255.927 169.378C255.927 169.44 255.911 169.494 255.873 169.54L255.571 170.066C255.533 170.128 255.494 170.143 255.455 170.12C255.424 170.097 255.37 170.05 255.309 169.965C254.945 169.478 254.513 169.1 254.018 168.814C253.431 168.474 252.975 168.435 252.651 168.706C252.326 168.968 252.164 169.548 252.164 170.437C252.164 171.333 252.334 172.106 252.674 172.747C253.014 173.389 253.477 173.883 254.065 174.223C254.598 174.533 255.046 174.656 255.417 174.594C255.479 174.587 255.525 174.594 255.564 174.61C255.602 174.633 255.641 174.695 255.679 174.803L256.012 175.761C256.035 175.831 256.043 175.877 256.043 175.916C256.043 175.962 256.012 176.001 255.942 176.024C255.502 176.194 254.814 176.009 253.887 175.475C252.898 174.904 252.133 174.115 251.584 173.103L251.592 173.087Z" fill="#455A64"/>
<path d="M256.36 176.519C256.36 176.465 256.367 176.411 256.383 176.349L258.593 170.599C258.631 170.491 258.678 170.429 258.724 170.406C258.77 170.383 258.84 170.406 258.933 170.452L259.558 170.815C259.651 170.869 259.721 170.931 259.759 171.009C259.806 171.086 259.844 171.194 259.891 171.349L262.101 179.649C262.116 179.726 262.124 179.795 262.124 179.842C262.124 179.973 262.07 180.004 261.969 179.95L260.934 179.355C260.857 179.309 260.795 179.262 260.756 179.2C260.717 179.146 260.687 179.061 260.656 178.953L260.262 177.384L258.183 176.186L257.797 177.307C257.766 177.384 257.735 177.423 257.696 177.438C257.658 177.454 257.604 177.438 257.519 177.392L256.483 176.797C256.383 176.735 256.329 176.642 256.329 176.511L256.36 176.519ZM259.952 175.901L259.242 173.033L258.523 175.081L259.952 175.908V175.901Z" fill="#455A64"/>
<path d="M262.927 180.391C262.865 180.275 262.834 180.136 262.834 179.966V173.211C262.834 173.041 262.865 172.933 262.927 172.887C262.989 172.84 263.082 172.856 263.221 172.933L265.384 174.177C266.829 175.012 267.556 176.271 267.556 177.956C267.556 178.497 267.471 178.899 267.301 179.177C267.131 179.455 266.876 179.595 266.543 179.595L267.44 182.732C267.455 182.794 267.463 182.856 267.463 182.91C267.463 183.049 267.401 183.08 267.285 183.01L266.335 182.462C266.257 182.415 266.196 182.369 266.157 182.315C266.118 182.268 266.08 182.183 266.057 182.083L265.268 179.123L264.248 178.536V180.769C264.248 180.939 264.218 181.04 264.163 181.094C264.109 181.14 264.009 181.125 263.862 181.04L263.221 180.669C263.082 180.591 262.989 180.491 262.927 180.383V180.391ZM265.183 177.732C265.508 177.918 265.747 177.972 265.91 177.879C266.072 177.794 266.149 177.547 266.149 177.152C266.149 176.758 266.072 176.426 265.925 176.156C265.778 175.885 265.554 175.669 265.261 175.499L264.241 174.911V177.191L265.168 177.732H265.183Z" fill="#455A64"/>
<path d="M268.344 183.513C268.282 183.397 268.251 183.258 268.251 183.088V176.333C268.251 176.163 268.282 176.055 268.344 176.009C268.406 175.962 268.498 175.978 268.637 176.055L270.43 177.091C271.403 177.655 272.145 178.389 272.647 179.309C273.157 180.221 273.405 181.349 273.405 182.686C273.405 184.023 273.15 184.834 272.64 185.167C272.13 185.499 271.388 185.391 270.43 184.834L268.637 183.799C268.498 183.721 268.406 183.621 268.344 183.513ZM270.499 183.497C271.009 183.791 271.388 183.822 271.635 183.59C271.883 183.358 272.014 182.786 272.014 181.874C272.014 180.962 271.89 180.251 271.635 179.734C271.388 179.216 271.009 178.814 270.499 178.52L269.665 178.033V183.01L270.499 183.497Z" fill="#455A64"/>
<g opacity="0.15">
<path d="M219.147 154.354C218.606 153.342 218.328 152.191 218.328 150.884C218.328 149.571 218.591 148.721 219.124 148.342C219.657 147.955 220.414 148.056 221.411 148.628C221.828 148.867 222.207 149.138 222.539 149.447C222.879 149.756 223.165 150.073 223.397 150.413C223.451 150.498 223.482 150.575 223.482 150.645C223.482 150.707 223.466 150.761 223.428 150.807L223.126 151.333C223.088 151.395 223.049 151.41 223.011 151.387C222.98 151.364 222.926 151.317 222.864 151.232C222.501 150.745 222.068 150.367 221.573 150.081C220.986 149.741 220.53 149.702 220.206 149.973C219.881 150.235 219.719 150.815 219.719 151.704C219.719 152.592 219.889 153.373 220.229 154.014C220.569 154.656 221.033 155.15 221.62 155.49C222.153 155.8 222.601 155.923 222.972 155.861C223.034 155.854 223.08 155.861 223.119 155.877C223.157 155.9 223.196 155.962 223.235 156.07L223.567 157.028C223.59 157.098 223.598 157.144 223.598 157.183C223.598 157.229 223.567 157.268 223.497 157.291C223.057 157.461 222.369 157.276 221.442 156.742C220.453 156.171 219.688 155.382 219.139 154.37L219.147 154.354Z" fill="#455A64"/>
<path d="M224.378 158.126C224.317 158.01 224.286 157.871 224.286 157.701V150.946C224.286 150.776 224.317 150.668 224.378 150.622C224.44 150.575 224.533 150.591 224.672 150.668L226.835 151.912C228.28 152.747 229.007 154.007 229.007 155.691C229.007 156.232 228.922 156.634 228.752 156.912C228.582 157.191 228.327 157.33 227.995 157.33L228.891 160.467C228.906 160.529 228.914 160.591 228.914 160.645C228.914 160.784 228.852 160.815 228.736 160.746L227.786 160.197C227.709 160.151 227.647 160.104 227.608 160.05C227.57 160.004 227.531 159.919 227.508 159.81L226.72 156.851L225.7 156.263V158.497C225.7 158.667 225.669 158.767 225.615 158.814C225.561 158.86 225.46 158.844 225.313 158.759L224.672 158.388C224.533 158.311 224.44 158.211 224.378 158.095V158.126ZM226.627 155.467C226.951 155.653 227.191 155.707 227.353 155.614C227.515 155.529 227.6 155.282 227.6 154.888C227.6 154.494 227.523 154.161 227.376 153.891C227.23 153.62 227.005 153.404 226.712 153.234L225.692 152.646V154.926L226.619 155.467H226.627Z" fill="#455A64"/>
<path d="M229.795 161.256C229.733 161.14 229.702 161.001 229.702 160.831V154.076C229.702 153.906 229.733 153.798 229.795 153.752C229.857 153.705 229.949 153.721 230.088 153.798L233.635 155.846C233.774 155.923 233.867 156.016 233.913 156.116C233.967 156.217 233.991 156.356 233.991 156.534V156.959C233.991 157.137 233.967 157.245 233.913 157.291C233.859 157.337 233.766 157.322 233.635 157.245L231.116 155.792V157.593L232.878 158.605C233.017 158.682 233.11 158.775 233.156 158.875C233.21 158.976 233.233 159.115 233.233 159.293V159.695C233.233 159.872 233.21 159.981 233.156 160.027C233.102 160.073 233.009 160.058 232.878 159.98L231.116 158.968V160.776L233.627 162.229C233.766 162.307 233.859 162.399 233.906 162.508C233.96 162.616 233.983 162.755 233.983 162.925V163.335C233.983 163.512 233.96 163.62 233.906 163.659C233.851 163.698 233.759 163.682 233.627 163.605L230.088 161.565C229.949 161.487 229.857 161.387 229.795 161.279V161.256Z" fill="#455A64"/>
<path d="M234.693 164.084C234.631 163.968 234.601 163.829 234.601 163.659V156.905C234.601 156.735 234.631 156.626 234.693 156.58C234.755 156.534 234.848 156.549 234.987 156.626L236.78 157.662C237.753 158.226 238.495 158.96 238.997 159.88C239.507 160.792 239.754 161.92 239.754 163.257C239.754 164.594 239.499 165.406 238.989 165.738C238.479 166.07 237.738 165.962 236.78 165.406L234.987 164.37C234.848 164.293 234.755 164.192 234.693 164.084ZM236.849 164.069C237.359 164.362 237.738 164.393 237.985 164.161C238.232 163.93 238.364 163.358 238.364 162.446C238.364 161.534 238.24 160.823 237.985 160.305C237.738 159.787 237.359 159.385 236.849 159.092L236.015 158.605V163.582L236.849 164.069Z" fill="#455A64"/>
<path d="M240.55 167.461C240.488 167.345 240.458 167.206 240.458 167.036V160.282C240.458 160.112 240.488 160.004 240.55 159.957C240.612 159.911 240.705 159.926 240.844 160.004L241.485 160.375C241.624 160.46 241.725 160.552 241.787 160.668C241.841 160.784 241.872 160.923 241.872 161.101V167.855C241.872 168.026 241.841 168.126 241.787 168.18C241.732 168.226 241.632 168.211 241.485 168.126L240.844 167.755C240.705 167.678 240.612 167.577 240.55 167.469V167.461Z" fill="#455A64"/>
<path d="M244.244 169.602C244.182 169.486 244.151 169.347 244.151 169.177V163.311L242.752 162.5C242.613 162.423 242.521 162.33 242.474 162.229C242.42 162.129 242.397 161.99 242.397 161.812V161.387C242.397 161.209 242.42 161.101 242.474 161.055C242.528 161.008 242.621 161.024 242.752 161.101L246.971 163.535C247.11 163.613 247.203 163.705 247.257 163.814C247.311 163.922 247.334 164.061 247.334 164.239V164.664C247.334 164.834 247.311 164.934 247.257 164.981C247.203 165.027 247.11 165.012 246.971 164.927L245.573 164.115V169.981C245.573 170.151 245.542 170.251 245.48 170.298C245.418 170.344 245.318 170.321 245.179 170.243L244.545 169.88C244.406 169.795 244.305 169.703 244.244 169.587V169.602Z" fill="#455A64"/>
<path d="M251.592 173.087C251.051 172.075 250.773 170.924 250.773 169.618C250.773 168.311 251.036 167.454 251.569 167.075C252.102 166.689 252.859 166.789 253.856 167.361C254.273 167.6 254.652 167.871 254.984 168.18C255.324 168.489 255.61 168.806 255.842 169.146C255.896 169.231 255.927 169.308 255.927 169.378C255.927 169.44 255.911 169.494 255.873 169.54L255.571 170.066C255.533 170.128 255.494 170.143 255.455 170.12C255.424 170.097 255.37 170.05 255.309 169.965C254.945 169.478 254.513 169.1 254.018 168.814C253.431 168.474 252.975 168.435 252.651 168.706C252.326 168.968 252.164 169.548 252.164 170.437C252.164 171.333 252.334 172.106 252.674 172.747C253.014 173.389 253.477 173.883 254.065 174.223C254.598 174.533 255.046 174.656 255.417 174.594C255.479 174.587 255.525 174.594 255.564 174.61C255.602 174.633 255.641 174.695 255.679 174.803L256.012 175.761C256.035 175.831 256.043 175.877 256.043 175.916C256.043 175.962 256.012 176.001 255.942 176.024C255.502 176.194 254.814 176.009 253.887 175.475C252.898 174.904 252.133 174.115 251.584 173.103L251.592 173.087Z" fill="#455A64"/>
<path d="M256.36 176.519C256.36 176.465 256.367 176.411 256.383 176.349L258.593 170.599C258.631 170.491 258.678 170.429 258.724 170.406C258.77 170.383 258.84 170.406 258.933 170.452L259.558 170.815C259.651 170.869 259.721 170.931 259.759 171.009C259.806 171.086 259.844 171.194 259.891 171.349L262.101 179.649C262.116 179.726 262.124 179.795 262.124 179.842C262.124 179.973 262.07 180.004 261.969 179.95L260.934 179.355C260.857 179.309 260.795 179.262 260.756 179.2C260.717 179.146 260.687 179.061 260.656 178.953L260.262 177.384L258.183 176.186L257.797 177.307C257.766 177.384 257.735 177.423 257.696 177.438C257.658 177.454 257.604 177.438 257.519 177.392L256.483 176.797C256.383 176.735 256.329 176.642 256.329 176.511L256.36 176.519ZM259.952 175.901L259.242 173.033L258.523 175.081L259.952 175.908V175.901Z" fill="#455A64"/>
<path d="M262.927 180.391C262.865 180.275 262.834 180.136 262.834 179.966V173.211C262.834 173.041 262.865 172.933 262.927 172.887C262.989 172.84 263.082 172.856 263.221 172.933L265.384 174.177C266.829 175.012 267.556 176.271 267.556 177.956C267.556 178.497 267.471 178.899 267.301 179.177C267.131 179.455 266.876 179.595 266.543 179.595L267.44 182.732C267.455 182.794 267.463 182.856 267.463 182.91C267.463 183.049 267.401 183.08 267.285 183.01L266.335 182.462C266.257 182.415 266.196 182.369 266.157 182.315C266.118 182.268 266.08 182.183 266.057 182.083L265.268 179.123L264.248 178.536V180.769C264.248 180.939 264.218 181.04 264.163 181.094C264.109 181.14 264.009 181.125 263.862 181.04L263.221 180.669C263.082 180.591 262.989 180.491 262.927 180.383V180.391ZM265.183 177.732C265.508 177.918 265.747 177.972 265.91 177.879C266.072 177.794 266.149 177.547 266.149 177.152C266.149 176.758 266.072 176.426 265.925 176.156C265.778 175.885 265.554 175.669 265.261 175.499L264.241 174.911V177.191L265.168 177.732H265.183Z" fill="#455A64"/>
<path d="M268.344 183.513C268.282 183.397 268.251 183.258 268.251 183.088V176.333C268.251 176.163 268.282 176.055 268.344 176.009C268.406 175.962 268.498 175.978 268.637 176.055L270.43 177.091C271.403 177.655 272.145 178.389 272.647 179.309C273.157 180.221 273.405 181.349 273.405 182.686C273.405 184.023 273.15 184.834 272.64 185.167C272.13 185.499 271.388 185.391 270.43 184.834L268.637 183.799C268.498 183.721 268.406 183.621 268.344 183.513ZM270.499 183.497C271.009 183.791 271.388 183.822 271.635 183.59C271.883 183.358 272.014 182.786 272.014 181.874C272.014 180.962 271.89 180.251 271.635 179.734C271.388 179.216 271.009 178.814 270.499 178.52L269.665 178.033V183.01L270.499 183.497Z" fill="#455A64"/>
</g>
<path d="M192.899 170.073L196.701 172.268C197.195 172.554 197.597 173.242 197.597 173.814V174.973C197.597 175.545 197.195 175.777 196.701 175.491L192.899 173.296C192.405 173.01 192.003 172.322 192.003 171.75V170.591C192.003 170.019 192.405 169.788 192.899 170.073Z" fill="#3C5AE7"/>
<path d="M184.523 165.236L188.325 167.43C188.819 167.716 189.221 168.404 189.221 168.976V170.135C189.221 170.707 188.819 170.939 188.325 170.653L184.523 168.458C184.029 168.172 183.627 167.485 183.627 166.913V165.753C183.627 165.182 184.029 164.95 184.523 165.236Z" fill="#3C5AE7"/>
<path d="M232.476 200.986L185.195 173.683C184.376 173.211 183.704 173.59 183.704 174.54V175.939C183.704 176.89 184.369 178.041 185.195 178.52L232.476 205.824C233.295 206.295 233.967 205.917 233.967 204.966V203.567C233.967 202.617 233.302 201.465 232.476 200.986Z" fill="#3C5AE7"/>
<path d="M192.899 170.073L196.701 172.268C197.195 172.554 197.597 173.242 197.597 173.814V174.973C197.597 175.545 197.195 175.777 196.701 175.491L192.899 173.296C192.405 173.01 192.003 172.322 192.003 171.75V170.591C192.003 170.019 192.405 169.788 192.899 170.073Z" fill="#455A64"/>
<path d="M184.523 165.236L188.325 167.43C188.819 167.716 189.221 168.404 189.221 168.976V170.135C189.221 170.707 188.819 170.939 188.325 170.653L184.523 168.458C184.029 168.172 183.627 167.485 183.627 166.913V165.753C183.627 165.182 184.029 164.95 184.523 165.236Z" fill="#455A64"/>
<path d="M232.476 200.986L185.195 173.683C184.376 173.211 183.704 173.59 183.704 174.54V175.939C183.704 176.89 184.369 178.041 185.195 178.52L232.476 205.824C233.295 206.295 233.967 205.917 233.967 204.966V203.567C233.967 202.617 233.302 201.465 232.476 200.986Z" fill="#455A64"/>
<path d="M184.601 152.067L184.778 152.167C185.311 152.476 185.744 153.303 185.744 154.014V157.739C185.744 158.45 185.304 158.79 184.763 158.497L184.616 158.412C184.075 158.118 183.635 157.299 183.635 156.588V152.786C183.635 152.075 184.067 151.742 184.601 152.051V152.067Z" fill="#FAFAFA"/>
<path d="M189.592 154.973L189.77 155.073C190.303 155.382 190.736 156.209 190.736 156.92V160.645C190.736 161.356 190.295 161.696 189.755 161.402L189.608 161.325C189.067 161.032 188.626 160.212 188.626 159.501V155.699C188.626 154.988 189.059 154.656 189.592 154.965V154.973Z" fill="#FAFAFA"/>
<path d="M194.584 157.871L194.761 157.971C195.294 158.28 195.727 159.107 195.727 159.818V163.543C195.727 164.254 195.287 164.594 194.746 164.301L194.599 164.223C194.058 163.93 193.618 163.11 193.618 162.399V158.597C193.618 157.886 194.05 157.554 194.584 157.863V157.871Z" fill="#FAFAFA"/>
<path d="M199.575 160.776L199.753 160.877C200.286 161.186 200.719 162.013 200.719 162.724V166.449C200.719 167.16 200.278 167.5 199.737 167.206L199.591 167.121C199.05 166.828 198.609 166.008 198.609 165.297V161.495C198.609 160.784 199.042 160.452 199.575 160.761V160.776Z" fill="#FAFAFA"/>
<path d="M207.951 165.552L208.128 165.653C208.662 165.962 209.094 166.789 209.094 167.5V171.225C209.094 171.936 208.654 172.276 208.113 171.982L207.966 171.905C207.425 171.611 206.985 170.792 206.985 170.081V166.279C206.985 165.568 207.418 165.236 207.951 165.545V165.552Z" fill="#FAFAFA"/>
<path d="M212.95 168.458L213.127 168.559C213.661 168.868 214.093 169.695 214.093 170.406V174.131C214.093 174.842 213.653 175.182 213.112 174.888L212.965 174.811C212.424 174.517 211.984 173.698 211.984 172.987V169.185C211.984 168.474 212.417 168.141 212.95 168.451V168.458Z" fill="#FAFAFA"/>
<path d="M217.941 171.356L218.119 171.457C218.652 171.766 219.085 172.593 219.085 173.312V177.037C219.085 177.748 218.645 178.088 218.104 177.794L217.957 177.717C217.416 177.423 216.976 176.604 216.976 175.893V172.091C216.976 171.38 217.408 171.047 217.941 171.356Z" fill="#FAFAFA"/>
<path d="M222.933 174.262L223.111 174.363C223.644 174.672 224.077 175.499 224.077 176.21V179.935C224.077 180.646 223.636 180.986 223.095 180.692L222.949 180.615C222.408 180.321 221.967 179.502 221.967 178.791V174.989C221.967 174.278 222.4 173.945 222.933 174.254V174.262Z" fill="#FAFAFA"/>
<path d="M231.309 179.038L231.487 179.139C232.02 179.448 232.453 180.275 232.453 180.986V184.711C232.453 185.422 232.012 185.762 231.471 185.468L231.325 185.391C230.784 185.097 230.343 184.278 230.343 183.567V179.765C230.343 179.054 230.776 178.721 231.309 179.03V179.038Z" fill="#FAFAFA"/>
<path d="M236.308 181.944L236.486 182.044C237.019 182.353 237.452 183.18 237.452 183.891V187.616C237.452 188.327 237.011 188.667 236.47 188.374L236.324 188.289C235.783 187.995 235.342 187.176 235.342 186.465V182.663C235.342 181.952 235.775 181.619 236.308 181.928V181.944Z" fill="#FAFAFA"/>
<path d="M241.3 184.842L241.478 184.942C242.011 185.252 242.443 186.078 242.443 186.789V190.514C242.443 191.225 242.003 191.565 241.462 191.272L241.315 191.187C240.774 190.893 240.334 190.074 240.334 189.363V185.561C240.334 184.85 240.767 184.517 241.3 184.827V184.842Z" fill="#FAFAFA"/>
<path d="M246.292 187.74L246.469 187.84C247.002 188.15 247.435 188.977 247.435 189.688V193.412C247.435 194.123 246.995 194.464 246.454 194.17L246.307 194.093C245.766 193.799 245.326 192.98 245.326 192.269V188.466C245.326 187.755 245.758 187.423 246.292 187.732V187.74Z" fill="#FAFAFA"/>
<path d="M254.667 192.524L254.845 192.624C255.378 192.933 255.811 193.76 255.811 194.471V198.196C255.811 198.907 255.37 199.247 254.829 198.954L254.682 198.876C254.142 198.583 253.701 197.763 253.701 197.052V193.25C253.701 192.539 254.134 192.207 254.667 192.516V192.524Z" fill="#FAFAFA"/>
<path d="M259.659 195.422L259.836 195.522C260.37 195.831 260.802 196.658 260.802 197.369V201.094C260.802 201.805 260.362 202.145 259.821 201.852L259.674 201.774C259.133 201.481 258.693 200.662 258.693 199.951V196.148C258.693 195.437 259.126 195.105 259.659 195.414V195.422Z" fill="#FAFAFA"/>
<path d="M264.658 198.328L264.835 198.428C265.369 198.737 265.801 199.564 265.801 200.283V204.008C265.801 204.719 265.361 205.059 264.82 204.765L264.673 204.688C264.132 204.394 263.692 203.575 263.692 202.864V199.062C263.692 198.351 264.125 198.018 264.658 198.328Z" fill="#FAFAFA"/>
<path d="M269.649 201.226L269.827 201.326C270.36 201.635 270.793 202.462 270.793 203.173V206.898C270.793 207.609 270.353 207.949 269.812 207.655L269.665 207.578C269.124 207.285 268.684 206.465 268.684 205.754V201.952C268.684 201.241 269.116 200.909 269.649 201.218V201.226Z" fill="#FAFAFA"/>
<path opacity="0.35" d="M283.032 245.794C283.032 247.919 281.525 248.792 279.686 247.726L189.082 195.406C187.243 194.34 185.736 191.735 185.736 189.61V139.099L283.032 195.283V245.794Z" fill="white"/>
<path d="M161.559 210.19L237.328 289.551C238.116 290.378 238.835 290.625 239.321 290.339C239.739 290.092 239.994 289.466 239.994 288.484V194.757C239.994 193.729 239.715 192.493 239.252 191.318C238.765 190.066 238.077 188.892 237.32 188.096L161.551 108.689C159.303 106.332 158.082 103.364 158.082 100.358V201.852C158.082 204.858 159.303 207.833 161.551 210.183L161.559 210.19Z" fill="#37474F"/>
<path d="M163.499 120.111C163.282 120.111 163.112 119.941 163.112 119.725V118.565C163.112 118.411 163.205 118.264 163.352 118.21C163.499 118.148 163.669 118.187 163.777 118.303L164.58 119.145C164.727 119.3 164.719 119.547 164.565 119.694C164.41 119.84 164.163 119.833 164.016 119.678L163.885 119.539V119.732C163.885 119.949 163.715 120.119 163.499 120.119V120.111Z" fill="#455A64"/>
<path d="M234.593 274.272C234.376 274.272 234.206 274.102 234.206 273.886V271.606C234.206 271.39 234.376 271.22 234.593 271.22C234.809 271.22 234.979 271.39 234.979 271.606V273.886C234.979 274.102 234.809 274.272 234.593 274.272ZM234.593 268.19C234.376 268.19 234.206 268.02 234.206 267.804V265.524C234.206 265.308 234.376 265.137 234.593 265.137C234.809 265.137 234.979 265.308 234.979 265.524V267.804C234.979 268.02 234.809 268.19 234.593 268.19ZM234.593 262.108C234.376 262.108 234.206 261.938 234.206 261.722V259.442C234.206 259.225 234.376 259.055 234.593 259.055C234.809 259.055 234.979 259.225 234.979 259.442V261.722C234.979 261.938 234.809 262.108 234.593 262.108ZM234.593 256.026C234.376 256.026 234.206 255.856 234.206 255.64V253.36C234.206 253.143 234.376 252.973 234.593 252.973C234.809 252.973 234.979 253.143 234.979 253.36V255.64C234.979 255.856 234.809 256.026 234.593 256.026ZM234.593 249.944C234.376 249.944 234.206 249.774 234.206 249.558V247.278C234.206 247.061 234.376 246.891 234.593 246.891C234.809 246.891 234.979 247.061 234.979 247.278V249.558C234.979 249.774 234.809 249.944 234.593 249.944ZM234.593 243.862C234.376 243.862 234.206 243.692 234.206 243.475V241.196C234.206 240.979 234.376 240.809 234.593 240.809C234.809 240.809 234.979 240.979 234.979 241.196V243.475C234.979 243.692 234.809 243.862 234.593 243.862ZM234.593 237.78C234.376 237.78 234.206 237.61 234.206 237.393V235.114C234.206 234.897 234.376 234.727 234.593 234.727C234.809 234.727 234.979 234.897 234.979 235.114V237.393C234.979 237.61 234.809 237.78 234.593 237.78ZM234.593 231.706C234.376 231.706 234.206 231.535 234.206 231.319V229.039C234.206 228.823 234.376 228.653 234.593 228.653C234.809 228.653 234.979 228.823 234.979 229.039V231.319C234.979 231.535 234.809 231.706 234.593 231.706ZM234.593 225.623C234.376 225.623 234.206 225.453 234.206 225.237V222.957C234.206 222.741 234.376 222.571 234.593 222.571C234.809 222.571 234.979 222.741 234.979 222.957V225.237C234.979 225.453 234.809 225.623 234.593 225.623ZM234.593 219.541C234.376 219.541 234.206 219.371 234.206 219.155V216.875C234.206 216.659 234.376 216.489 234.593 216.489C234.809 216.489 234.979 216.659 234.979 216.875V219.155C234.979 219.371 234.809 219.541 234.593 219.541ZM234.593 213.459C234.376 213.459 234.206 213.289 234.206 213.073V210.793C234.206 210.577 234.376 210.407 234.593 210.407C234.809 210.407 234.979 210.577 234.979 210.793V213.073C234.979 213.289 234.809 213.459 234.593 213.459ZM234.593 207.377C234.376 207.377 234.206 207.207 234.206 206.991V204.711C234.206 204.495 234.376 204.325 234.593 204.325C234.809 204.325 234.979 204.495 234.979 204.711V206.991C234.979 207.207 234.809 207.377 234.593 207.377ZM234.593 201.295C234.376 201.295 234.206 201.125 234.206 200.909V198.629C234.206 198.413 234.376 198.243 234.593 198.243C234.809 198.243 234.979 198.413 234.979 198.629V200.909C234.979 201.125 234.809 201.295 234.593 201.295ZM234.593 195.182C234.376 195.182 234.206 195.043 234.206 194.827C234.206 194.664 234.145 194.154 233.867 193.428C233.782 193.204 233.689 193.003 233.604 192.833C233.511 192.64 233.581 192.408 233.774 192.315C233.959 192.222 234.199 192.292 234.291 192.485C234.384 192.678 234.485 192.895 234.585 193.15C234.902 193.953 234.979 194.556 234.979 194.765C234.979 194.974 234.809 195.182 234.593 195.182ZM231.471 190.182C231.371 190.182 231.27 190.143 231.193 190.066L229.617 188.42C229.47 188.266 229.478 188.018 229.632 187.871C229.787 187.725 230.034 187.732 230.181 187.887L231.757 189.533C231.904 189.688 231.896 189.935 231.742 190.082C231.664 190.151 231.572 190.19 231.479 190.19L231.471 190.182ZM227.268 185.777C227.167 185.777 227.067 185.738 226.99 185.661L225.413 184.015C225.267 183.861 225.274 183.613 225.429 183.466C225.583 183.32 225.831 183.327 225.977 183.482L227.554 185.128C227.701 185.282 227.693 185.53 227.538 185.677C227.461 185.746 227.368 185.785 227.268 185.785V185.777ZM223.072 181.38C222.972 181.38 222.871 181.341 222.794 181.264L221.218 179.618C221.071 179.463 221.079 179.216 221.233 179.069C221.388 178.922 221.635 178.93 221.782 179.084L223.358 180.731C223.505 180.885 223.497 181.132 223.343 181.279C223.265 181.349 223.173 181.387 223.08 181.387L223.072 181.38ZM218.877 176.982C218.776 176.982 218.676 176.944 218.598 176.867L217.022 175.22C216.875 175.066 216.883 174.819 217.038 174.672C217.192 174.525 217.439 174.533 217.586 174.687L219.162 176.333C219.309 176.488 219.302 176.735 219.147 176.882C219.07 176.952 218.977 176.99 218.884 176.99L218.877 176.982ZM214.673 172.585C214.573 172.585 214.472 172.546 214.395 172.469L212.819 170.823C212.672 170.669 212.68 170.421 212.834 170.274C212.989 170.128 213.236 170.135 213.383 170.29L214.959 171.936C215.106 172.091 215.098 172.338 214.944 172.485C214.866 172.554 214.774 172.593 214.673 172.593V172.585ZM210.478 168.18C210.377 168.18 210.277 168.141 210.199 168.064L208.623 166.418C208.476 166.263 208.484 166.016 208.639 165.869C208.793 165.723 209.04 165.73 209.187 165.885L210.763 167.531C210.91 167.685 210.903 167.933 210.748 168.08C210.671 168.149 210.578 168.188 210.485 168.188L210.478 168.18ZM206.282 163.783C206.181 163.783 206.081 163.744 206.004 163.667L204.427 162.021C204.281 161.866 204.288 161.619 204.443 161.472C204.597 161.325 204.845 161.333 204.992 161.487L206.568 163.134C206.715 163.288 206.707 163.535 206.552 163.682C206.475 163.752 206.382 163.79 206.282 163.79V163.783ZM202.086 159.385C201.986 159.385 201.885 159.347 201.808 159.27L200.232 157.623C200.085 157.469 200.093 157.222 200.247 157.075C200.402 156.928 200.649 156.936 200.796 157.09L202.372 158.736C202.519 158.891 202.511 159.138 202.357 159.285C202.279 159.355 202.187 159.393 202.086 159.393V159.385ZM197.883 154.98C197.782 154.98 197.682 154.942 197.605 154.864L196.028 153.218C195.882 153.064 195.889 152.817 196.044 152.67C196.198 152.523 196.446 152.531 196.593 152.685L198.169 154.331C198.316 154.486 198.308 154.733 198.153 154.88C198.076 154.949 197.983 154.988 197.891 154.988L197.883 154.98ZM193.687 150.583C193.587 150.583 193.486 150.544 193.409 150.467L191.833 148.821C191.686 148.666 191.694 148.419 191.848 148.272C192.003 148.126 192.25 148.133 192.397 148.288L193.973 149.934C194.12 150.088 194.112 150.336 193.958 150.483C193.88 150.552 193.788 150.591 193.687 150.591V150.583ZM189.492 146.186C189.391 146.186 189.291 146.147 189.213 146.07L187.637 144.424C187.49 144.269 187.498 144.022 187.653 143.875C187.807 143.728 188.054 143.736 188.201 143.89L189.778 145.537C189.924 145.691 189.917 145.938 189.762 146.085C189.685 146.155 189.592 146.193 189.499 146.193L189.492 146.186ZM185.288 141.788C185.188 141.788 185.087 141.75 185.01 141.673L183.434 140.026C183.287 139.872 183.295 139.625 183.449 139.478C183.604 139.331 183.851 139.339 183.998 139.493L185.574 141.139C185.721 141.294 185.713 141.541 185.559 141.688C185.481 141.758 185.389 141.796 185.296 141.796L185.288 141.788ZM181.093 137.383C180.992 137.383 180.892 137.345 180.814 137.267L179.238 135.621C179.091 135.467 179.099 135.219 179.254 135.073C179.408 134.926 179.655 134.934 179.802 135.088L181.379 136.734C181.525 136.889 181.518 137.136 181.363 137.283C181.286 137.352 181.193 137.391 181.093 137.391V137.383ZM176.897 132.986C176.797 132.986 176.696 132.947 176.619 132.87L175.043 131.224C174.896 131.069 174.903 130.822 175.058 130.675C175.213 130.529 175.46 130.536 175.607 130.691L177.183 132.337C177.33 132.491 177.322 132.739 177.167 132.886C177.09 132.955 176.997 132.994 176.905 132.994L176.897 132.986ZM172.701 128.589C172.601 128.589 172.5 128.55 172.423 128.473L170.847 126.827C170.7 126.672 170.708 126.425 170.862 126.278C171.017 126.131 171.264 126.139 171.411 126.293L172.987 127.94C173.134 128.094 173.126 128.341 172.972 128.488C172.894 128.558 172.802 128.596 172.701 128.596V128.589ZM168.498 124.191C168.398 124.191 168.297 124.153 168.22 124.076L166.644 122.429C166.497 122.275 166.504 122.028 166.659 121.881C166.814 121.734 167.061 121.742 167.208 121.896L168.784 123.542C168.931 123.697 168.923 123.944 168.768 124.091C168.691 124.161 168.598 124.199 168.498 124.199V124.191Z" fill="#455A64"/>
<path d="M234.593 279.234C234.492 279.234 234.384 279.195 234.315 279.118L233.511 278.283C233.364 278.129 233.372 277.881 233.527 277.734C233.681 277.588 233.928 277.595 234.075 277.75L234.207 277.889V277.696C234.207 277.479 234.377 277.309 234.593 277.309C234.809 277.309 234.979 277.479 234.979 277.696V278.855C234.979 279.01 234.887 279.156 234.74 279.21C234.693 279.226 234.647 279.241 234.593 279.241V279.234Z" fill="#455A64"/>
<path d="M231.077 275.555C230.977 275.555 230.876 275.516 230.799 275.439L229.169 273.731C229.022 273.577 229.029 273.329 229.184 273.183C229.339 273.036 229.586 273.043 229.733 273.198L231.363 274.906C231.51 275.06 231.502 275.308 231.348 275.455C231.27 275.524 231.178 275.563 231.077 275.563V275.555ZM226.735 271.011C226.634 271.011 226.534 270.972 226.456 270.895L224.826 269.187C224.679 269.033 224.687 268.785 224.842 268.638C224.996 268.492 225.243 268.499 225.39 268.654L227.021 270.362C227.167 270.516 227.16 270.764 227.005 270.91C226.928 270.98 226.835 271.019 226.735 271.019V271.011ZM222.4 266.467C222.299 266.467 222.199 266.428 222.122 266.351L220.491 264.643C220.345 264.488 220.352 264.241 220.507 264.094C220.661 263.947 220.909 263.955 221.055 264.11L222.686 265.818C222.833 265.972 222.825 266.219 222.67 266.366C222.593 266.436 222.5 266.474 222.4 266.474V266.467ZM218.057 261.923C217.957 261.923 217.857 261.884 217.779 261.807L216.149 260.099C216.002 259.944 216.01 259.697 216.164 259.55C216.319 259.403 216.566 259.411 216.713 259.566L218.343 261.273C218.49 261.428 218.482 261.675 218.328 261.822C218.251 261.892 218.158 261.93 218.057 261.93V261.923ZM213.715 257.371C213.615 257.371 213.514 257.332 213.437 257.255L211.806 255.547C211.66 255.392 211.667 255.145 211.822 254.998C211.976 254.851 212.224 254.859 212.371 255.014L214.001 256.722C214.148 256.876 214.14 257.123 213.985 257.27C213.908 257.34 213.815 257.378 213.715 257.378V257.371ZM209.38 252.827C209.28 252.827 209.179 252.788 209.102 252.711L207.472 251.003C207.325 250.848 207.333 250.601 207.487 250.454C207.642 250.307 207.889 250.315 208.036 250.469L209.666 252.177C209.813 252.332 209.805 252.579 209.651 252.726C209.573 252.796 209.481 252.834 209.38 252.834V252.827ZM205.038 248.282C204.937 248.282 204.837 248.244 204.76 248.166L203.129 246.459C202.983 246.304 202.99 246.057 203.145 245.91C203.299 245.763 203.547 245.771 203.693 245.925L205.324 247.633C205.471 247.788 205.463 248.035 205.308 248.182C205.231 248.251 205.138 248.29 205.038 248.29V248.282ZM200.695 243.738C200.595 243.738 200.494 243.7 200.417 243.622L198.787 241.914C198.64 241.76 198.648 241.513 198.802 241.366C198.957 241.219 199.204 241.227 199.351 241.381L200.981 243.089C201.128 243.244 201.12 243.491 200.966 243.638C200.889 243.707 200.796 243.746 200.695 243.746V243.738ZM196.361 239.194C196.26 239.194 196.16 239.155 196.082 239.078L194.452 237.37C194.305 237.216 194.313 236.968 194.468 236.822C194.622 236.675 194.869 236.682 195.016 236.837L196.647 238.545C196.793 238.7 196.786 238.947 196.631 239.094C196.554 239.163 196.461 239.202 196.361 239.202V239.194ZM192.018 234.65C191.918 234.65 191.817 234.611 191.74 234.534L190.11 232.826C189.963 232.672 189.971 232.424 190.125 232.277C190.28 232.131 190.527 232.138 190.674 232.293L192.304 234.001C192.451 234.155 192.443 234.403 192.289 234.549C192.211 234.619 192.119 234.658 192.018 234.658V234.65ZM187.676 230.098C187.575 230.098 187.475 230.059 187.398 229.982L185.767 228.274C185.62 228.12 185.628 227.872 185.783 227.726C185.937 227.579 186.184 227.586 186.331 227.741L187.962 229.449C188.108 229.603 188.101 229.851 187.946 229.998C187.869 230.067 187.776 230.106 187.676 230.106V230.098ZM183.341 225.554C183.241 225.554 183.14 225.515 183.063 225.438L181.432 223.73C181.286 223.575 181.293 223.328 181.448 223.181C181.602 223.035 181.85 223.042 181.997 223.197L183.627 224.905C183.774 225.059 183.766 225.307 183.611 225.453C183.534 225.523 183.441 225.562 183.341 225.562V225.554ZM178.999 221.01C178.898 221.01 178.798 220.971 178.72 220.894L177.09 219.186C176.943 219.031 176.951 218.784 177.106 218.637C177.26 218.49 177.507 218.498 177.654 218.653L179.284 220.361C179.431 220.515 179.424 220.762 179.269 220.909C179.192 220.979 179.099 221.017 178.999 221.017V221.01ZM174.664 216.466C174.563 216.466 174.463 216.427 174.386 216.35L172.755 214.642C172.609 214.487 172.616 214.24 172.771 214.093C172.925 213.946 173.173 213.954 173.319 214.108L174.95 215.816C175.097 215.971 175.089 216.218 174.934 216.365C174.857 216.435 174.764 216.473 174.664 216.473V216.466ZM170.321 211.921C170.221 211.921 170.12 211.883 170.043 211.806L168.413 210.098C168.266 209.943 168.274 209.696 168.428 209.549C168.583 209.402 168.83 209.41 168.977 209.564L170.607 211.272C170.754 211.427 170.746 211.674 170.592 211.821C170.515 211.891 170.422 211.929 170.321 211.929V211.921ZM165.979 207.377C165.878 207.377 165.778 207.339 165.701 207.261L165.191 206.728C164.789 206.311 164.441 205.855 164.148 205.383C164.032 205.206 164.094 204.966 164.271 204.85C164.449 204.734 164.689 204.796 164.804 204.974C165.067 205.399 165.384 205.808 165.747 206.187L166.257 206.72C166.404 206.875 166.396 207.122 166.242 207.269C166.164 207.339 166.072 207.377 165.971 207.377H165.979ZM163.499 201.821C163.282 201.821 163.112 201.651 163.112 201.434V199.077C163.112 198.861 163.282 198.691 163.499 198.691C163.715 198.691 163.885 198.861 163.885 199.077V201.434C163.885 201.651 163.715 201.821 163.499 201.821ZM163.499 195.538C163.282 195.538 163.112 195.368 163.112 195.151V192.794C163.112 192.578 163.282 192.408 163.499 192.408C163.715 192.408 163.885 192.578 163.885 192.794V195.151C163.885 195.368 163.715 195.538 163.499 195.538ZM163.499 189.247C163.282 189.247 163.112 189.077 163.112 188.861V186.504C163.112 186.287 163.282 186.117 163.499 186.117C163.715 186.117 163.885 186.287 163.885 186.504V188.861C163.885 189.077 163.715 189.247 163.499 189.247ZM163.499 182.964C163.282 182.964 163.112 182.794 163.112 182.578V180.221C163.112 180.004 163.282 179.834 163.499 179.834C163.715 179.834 163.885 180.004 163.885 180.221V182.578C163.885 182.794 163.715 182.964 163.499 182.964ZM163.499 176.681C163.282 176.681 163.112 176.511 163.112 176.295V173.938C163.112 173.721 163.282 173.551 163.499 173.551C163.715 173.551 163.885 173.721 163.885 173.938V176.295C163.885 176.511 163.715 176.681 163.499 176.681ZM163.499 170.398C163.282 170.398 163.112 170.228 163.112 170.012V167.655C163.112 167.438 163.282 167.268 163.499 167.268C163.715 167.268 163.885 167.438 163.885 167.655V170.012C163.885 170.228 163.715 170.398 163.499 170.398ZM163.499 164.107C163.282 164.107 163.112 163.937 163.112 163.721V161.364C163.112 161.147 163.282 160.977 163.499 160.977C163.715 160.977 163.885 161.147 163.885 161.364V163.721C163.885 163.937 163.715 164.107 163.499 164.107ZM163.499 157.824C163.282 157.824 163.112 157.654 163.112 157.438V155.081C163.112 154.864 163.282 154.694 163.499 154.694C163.715 154.694 163.885 154.864 163.885 155.081V157.438C163.885 157.654 163.715 157.824 163.499 157.824ZM163.499 151.541C163.282 151.541 163.112 151.371 163.112 151.155V148.798C163.112 148.581 163.282 148.411 163.499 148.411C163.715 148.411 163.885 148.581 163.885 148.798V151.155C163.885 151.371 163.715 151.541 163.499 151.541ZM163.499 145.258C163.282 145.258 163.112 145.088 163.112 144.872V142.515C163.112 142.298 163.282 142.128 163.499 142.128C163.715 142.128 163.885 142.298 163.885 142.515V144.872C163.885 145.088 163.715 145.258 163.499 145.258ZM163.499 138.968C163.282 138.968 163.112 138.798 163.112 138.581V136.224C163.112 136.008 163.282 135.838 163.499 135.838C163.715 135.838 163.885 136.008 163.885 136.224V138.581C163.885 138.798 163.715 138.968 163.499 138.968ZM163.499 132.685C163.282 132.685 163.112 132.515 163.112 132.298V129.941C163.112 129.725 163.282 129.555 163.499 129.555C163.715 129.555 163.885 129.725 163.885 129.941V132.298C163.885 132.515 163.715 132.685 163.499 132.685ZM163.499 126.402C163.282 126.402 163.112 126.232 163.112 126.015V123.658C163.112 123.442 163.282 123.272 163.499 123.272C163.715 123.272 163.885 123.442 163.885 123.658V126.015C163.885 126.232 163.715 126.402 163.499 126.402Z" fill="#455A64"/>
<path d="M244.514 188.289L239.26 191.318C239.716 192.493 240.002 193.729 240.002 194.757V288.484C240.002 289.466 239.747 290.092 239.329 290.339L244.491 287.356C244.916 287.116 245.171 286.483 245.171 285.501V191.774C245.171 190.569 244.947 189.386 244.522 188.289H244.514Z" fill="#263238"/>
<path d="M226.155 227.185C226.155 224.657 224.895 221.288 223.342 219.657C221.789 218.027 220.53 218.753 220.53 221.28C220.53 223.807 221.789 227.177 223.342 228.807C224.895 230.438 226.155 229.712 226.155 227.185Z" fill="#FAFAFA"/>
<path d="M298.053 193.072L311.072 200.592L298.053 208.111V193.072Z" fill="#37474F"/>
<path d="M307.935 202.408L310.864 200.716C311.791 200.182 312.247 199.479 312.247 198.784C312.247 198.088 311.783 197.385 310.864 196.852L298.045 189.448V193.072L306.985 198.235C307.402 198.474 307.402 199.085 306.985 199.325L304.79 200.592L307.927 202.408H307.935Z" fill="#455A64"/>
<path d="M289.522 209.418C285.829 211.55 282.831 216.527 282.831 220.531C282.831 222.463 283.526 223.815 284.662 224.456C285.883 225.144 287.838 226.288 287.838 226.288L307.727 213.398C308.646 212.864 309.11 212.169 309.11 211.465V196.967C309.11 197.663 308.646 198.366 307.727 198.899L289.515 209.418H289.522Z" fill="#455A64"/>
<path d="M292.66 211.226C288.966 213.359 285.968 218.336 285.968 222.339C285.968 226.342 288.966 227.857 292.66 225.724L310.872 215.206C311.791 214.673 312.255 213.977 312.255 213.274V198.776C312.255 199.471 311.791 200.175 310.872 200.708L292.66 211.226Z" fill="#37474F"/>
<path d="M293.787 213.398C295.912 212.169 297.635 213.166 297.635 215.623C297.635 218.081 295.912 221.064 293.787 222.293C291.663 223.521 289.939 222.524 289.939 220.067C289.939 217.609 291.663 214.626 293.787 213.398Z" fill="#FAFAFA"/>
<path d="M242.497 185.12L165.755 104.693C164.99 103.89 164.464 103.016 164.171 102.112L161.559 108.696L237.328 188.103C238.178 189.069 238.819 190.143 239.252 191.326L244.506 188.296C244.058 187.176 243.432 186.109 242.489 185.12H242.497Z" fill="#455A64"/>
<path d="M241.068 89.7779L245.125 82.1425L241.856 72.7142V66.9413L251.855 72.7142V78.4871L247.559 85.9293C247.489 86.053 247.381 86.138 247.265 86.1921L241.061 89.7779H241.068Z" fill="#263238"/>
<path d="M213.792 19.1812C213.792 17.2723 215.137 14.9462 216.79 13.9879L219.232 12.5813C220.886 11.6231 223.567 11.6231 225.228 12.5813L272.493 39.7458C274.146 40.7041 275.491 43.0225 275.491 44.9391V86.1147C275.491 88.0236 274.146 90.3498 272.493 91.308L270.051 92.7146C268.398 93.6729 265.716 93.6729 264.055 92.7146L245.588 82.1193L241.3 89.546C241.029 90.0174 240.319 89.9556 240.141 89.4378L235.605 76.3541L216.79 65.5501C215.137 64.5918 213.792 62.2734 213.792 60.3568V19.1812Z" fill="#37474F"/>
<path d="M275.483 86.1148C275.483 88.0237 274.138 90.3498 272.485 91.3081L270.043 92.7147C268.544 93.5802 266.218 93.6575 264.565 92.9542C265.979 93.4875 267.053 92.6915 267.053 90.9836V49.8079C267.053 48.8497 266.721 47.7909 266.172 46.8558L274.602 41.9871C275.143 42.9299 275.483 43.9887 275.483 44.9392V86.1148Z" fill="#263238"/>
<path d="M213.893 18.3312C214.241 17.056 215.4 16.6542 216.783 17.4502L264.048 44.6224C264.874 45.1015 265.624 45.9052 266.157 46.8558L274.587 41.9871C274.038 41.0365 273.304 40.225 272.477 39.7459L225.22 12.5737C223.559 11.6231 220.87 11.6231 219.224 12.5737L216.775 13.988C215.361 14.7994 214.179 16.6155 213.885 18.3234L213.893 18.3312Z" fill="#455A64"/>
<path d="M258.747 51.5932L224.193 31.6391C223.513 31.2449 222.957 31.5618 222.957 32.35V56.2223C222.957 57.0106 223.505 57.9689 224.193 58.3553L258.747 78.3094C259.427 78.7035 259.983 78.3867 259.983 77.5984V53.7261C259.983 52.9378 259.435 51.9796 258.747 51.5932Z" fill="#3C5AE7"/>
<path d="M255.138 74.1748C255.038 74.1748 254.945 74.1516 254.853 74.0975L226.658 57.8221C226.48 57.7216 226.372 57.5284 226.372 57.3274C226.372 56.3151 225.823 55.3645 224.95 54.8622C224.772 54.7617 224.664 54.5685 224.664 54.3676V37.8448C224.664 37.6438 224.772 37.4506 224.95 37.3502C225.128 37.2497 225.344 37.2497 225.522 37.3502C225.877 37.5588 226.302 37.5588 226.658 37.3502C227.013 37.1415 227.229 36.7783 227.229 36.361C227.229 36.16 227.338 35.9668 227.515 35.8664C227.693 35.7659 227.909 35.7659 228.087 35.8664L256.282 52.1496C256.46 52.2501 256.568 52.4433 256.568 52.6442C256.568 53.6566 257.117 54.6071 257.99 55.1095C258.167 55.2099 258.276 55.4031 258.276 55.6041V72.1269C258.276 72.3278 258.167 72.521 257.99 72.6215C257.812 72.7219 257.596 72.7219 257.418 72.6215C257.062 72.4128 256.637 72.4128 256.282 72.6215C255.927 72.8301 255.71 73.1933 255.71 73.6107C255.71 73.8116 255.602 74.0048 255.424 74.1053C255.339 74.1594 255.239 74.1826 255.138 74.1826V74.1748ZM227.508 56.9874L254.752 72.7219C254.938 72.2737 255.27 71.8873 255.718 71.6323C256.158 71.3772 256.661 71.2768 257.14 71.3386V55.9055C256.174 55.2254 255.548 54.1512 255.448 52.9688L228.203 37.2342C228.017 37.6825 227.685 38.0689 227.237 38.3239C226.797 38.5789 226.294 38.6794 225.815 38.6176V54.0507C226.781 54.7308 227.407 55.805 227.508 56.9874Z" fill="#455A64"/>
<path d="M243.749 62.1344C242.953 62.1344 242.08 61.8716 241.184 61.3615C238.217 59.6459 235.798 55.465 235.798 52.0337C235.798 50.2485 236.432 48.9038 237.575 48.2391C238.727 47.5745 240.203 47.7059 241.748 48.5946C244.715 50.3103 247.134 54.4912 247.134 57.9225C247.134 59.7077 246.5 61.0524 245.356 61.717C244.87 61.9952 244.329 62.1344 243.741 62.1344H243.749ZM239.198 48.9579C238.812 48.9579 238.456 49.0429 238.155 49.2206C237.375 49.6688 236.95 50.6658 236.95 52.0259C236.95 55.094 239.113 58.8344 241.763 60.3646C242.946 61.0447 244.02 61.1683 244.8 60.7201C245.58 60.2719 246.005 59.2749 246.005 57.9148C246.005 54.8467 243.842 51.1063 241.192 49.5761C240.473 49.1665 239.801 48.9579 239.198 48.9579Z" fill="#455A64"/>
<path d="M44.1428 1.0974C41.4538 -0.43277 37.915 -0.409585 33.928 1.507C24.4858 6.05115 16.1023 19.5059 15.1905 31.5695C14.6728 38.3935 16.6663 43.3086 20.2052 45.4647C21.1092 46.0212 24.6249 48.0073 25.4671 48.5096C28.1715 50.1171 31.7567 50.1325 35.8133 48.1773C45.2554 43.6332 53.639 30.1785 54.5507 18.1148C55.0761 11.1826 53.0054 6.22117 49.3661 4.11911C48.5007 3.61678 45.0313 1.60746 44.1428 1.0974Z" fill="#3C5AE7"/>
<path opacity="0.25" d="M44.1428 1.0974C41.4538 -0.43277 37.915 -0.409585 33.928 1.507C24.4858 6.05115 16.1023 19.5059 15.1905 31.5695C14.6728 38.3935 16.6663 43.3086 20.2052 45.4647C21.1092 46.0212 24.6249 48.0073 25.4671 48.5096C28.1715 50.1171 31.7567 50.1325 35.8133 48.1773C45.2554 43.6332 53.639 30.1785 54.5507 18.1148C55.0761 11.1826 53.0054 6.22117 49.3661 4.11911C48.5007 3.61678 45.0313 1.60746 44.1428 1.0974Z" fill="black"/>
<path opacity="0.1" d="M53.1372 25.4875L24.7104 9.07286C19.5489 15.2631 15.786 23.71 15.191 31.5695C14.6733 38.3935 16.6668 43.3086 20.2057 45.4647C21.1097 46.0212 24.6254 48.0073 25.4676 48.5096C28.172 50.1171 31.7572 50.1325 35.8138 48.1773C43.3474 44.5528 50.2165 35.2404 53.1372 25.4875Z" fill="black"/>
<path opacity="0.1" d="M16.7594 23.6713C15.9327 26.2989 15.3841 28.9651 15.1832 31.5618C14.6655 38.3857 16.659 43.3009 20.1979 45.457C21.1019 46.0134 24.6176 47.9996 25.4598 48.5019C28.1642 50.1094 31.7494 50.1248 35.806 48.1696C39.2367 46.5235 42.5205 43.695 45.364 40.1864L16.7594 23.6713Z" fill="black"/>
<path d="M39.1053 4.49006C29.6632 9.03421 21.2796 22.4889 20.3678 34.5526C19.4561 46.6162 26.3716 52.7137 35.8137 48.1696C45.2558 43.6254 53.6394 30.1707 54.5511 18.1071C55.4552 6.05114 48.5474 -0.0463681 39.1053 4.49006Z" fill="#3C5AE7"/>
<path opacity="0.2" d="M39.1053 4.49006C29.6632 9.03421 21.2796 22.4889 20.3678 34.5526C19.4561 46.6162 26.3716 52.7137 35.8137 48.1696C45.2558 43.6254 53.6394 30.1707 54.5511 18.1071C55.4552 6.05114 48.5474 -0.0463681 39.1053 4.49006Z" fill="black"/>
<path d="M48.4548 20.866C48.0144 24.5523 46.5077 28.6096 44.2128 32.296C41.918 35.9823 39.09 38.8726 36.2543 40.4414C33.2485 42.103 30.5519 42.103 28.6666 40.4414C26.7812 38.7799 25.9931 35.7118 26.4644 31.8091C26.8971 28.1228 28.4039 24.0655 30.6987 20.3791C32.9936 16.6928 35.8216 13.8025 38.665 12.2337C41.663 10.5721 44.3597 10.5721 46.245 12.2337C48.1303 13.8952 48.9185 16.9633 48.4548 20.866Z" fill="#3C5AE7"/>
<path opacity="0.4" d="M48.4548 20.866C48.0144 24.5523 46.5077 28.6096 44.2128 32.296C41.918 35.9823 39.09 38.8726 36.2543 40.4414C33.2485 42.103 30.5519 42.103 28.6666 40.4414C26.7812 38.7799 25.9931 35.7118 26.4644 31.8091C26.8971 28.1228 28.4039 24.0655 30.6987 20.3791C32.9936 16.6928 35.8216 13.8025 38.665 12.2337C41.663 10.5721 44.3597 10.5721 46.245 12.2337C48.1303 13.8952 48.9185 16.9633 48.4548 20.866Z" fill="black"/>
<path d="M50.1316 5.99705C47.52 3.69406 43.757 3.54723 39.5305 5.57973C35.1262 7.70497 30.7992 11.9091 27.3608 17.427C23.9224 22.9449 21.7975 29.0888 21.3726 34.7149C20.963 40.1169 22.1839 44.3596 24.7878 46.6626C27.3995 48.9656 31.1624 49.1124 35.3889 47.0799C39.7932 44.9624 44.1202 40.7583 47.5586 35.2404C50.997 29.7225 53.1219 23.5786 53.5469 17.9448C53.9487 12.5428 52.7433 8.30777 50.1316 5.99705ZM46.2451 12.2337C48.1304 13.8952 48.9185 16.9633 48.4549 20.866C48.0145 24.5524 46.5078 28.6096 44.2129 32.296C41.9181 35.9823 39.0901 38.8726 36.2543 40.4414C33.2486 42.103 30.552 42.103 28.6666 40.4414C26.7813 38.7799 25.9932 35.7118 26.4645 31.8091C26.8972 28.1228 28.4039 24.0655 30.6988 20.3791C32.9936 16.6928 35.8216 13.8025 38.6651 12.2337C41.6631 10.5721 44.3597 10.5721 46.2451 12.2337Z" fill="#3C5AE7"/>
<path opacity="0.2" d="M39.0359 13.0755C44.6764 9.95336 48.5398 13.3615 47.6667 20.6878C46.7936 28.0141 41.5239 36.4764 35.8833 39.5986C30.2428 42.7207 26.3794 39.3126 27.2525 31.9863C28.1257 24.66 33.3953 16.1977 39.0359 13.0755Z" fill="black"/>
<path d="M39.0359 13.0755C44.6764 9.95336 48.5398 13.3615 47.6667 20.6878C46.7936 28.0141 41.5239 36.4764 35.8833 39.5986C30.2428 42.7207 26.3794 39.3126 27.2525 31.9863C28.1257 24.66 33.3953 16.1977 39.0359 13.0755Z" fill="#3C5AE7"/>
<path opacity="0.6" d="M39.0359 13.0755C44.6764 9.95336 48.5398 13.3615 47.6667 20.6878C46.7936 28.0141 41.5239 36.4764 35.8833 39.5986C30.2428 42.7207 26.3794 39.3126 27.2525 31.9863C28.1257 24.66 33.3953 16.1977 39.0359 13.0755Z" fill="black"/>
<path d="M46.0513 19.2586C45.1781 26.5848 39.9085 35.0472 34.2679 38.1694C31.9344 39.46 29.91 39.63 28.3956 38.8726C27.3447 37.3656 26.8966 35.0085 27.252 31.9791C28.1251 24.6528 33.3948 16.1905 39.0354 13.0683C41.3688 11.7777 43.3933 11.6077 44.9077 12.365C45.9585 13.872 46.4067 16.2291 46.0513 19.2586Z" fill="#3C5AE7"/>
<path opacity="0.5" d="M46.0513 19.2586C45.1781 26.5848 39.9085 35.0472 34.2679 38.1694C31.9344 39.46 29.91 39.63 28.3956 38.8726C27.3447 37.3656 26.8966 35.0085 27.252 31.9791C28.1251 24.6528 33.3948 16.1905 39.0354 13.0683C41.3688 11.7777 43.3933 11.6077 44.9077 12.365C45.9585 13.872 46.4067 16.2291 46.0513 19.2586Z" fill="black"/>
<path d="M40.5889 23.4859C39.9089 23.0608 38.9199 23.2231 37.8923 23.5245C37.5832 23.6172 37.2896 23.7177 37.0037 23.8104C37.2355 23.3545 37.6527 22.9526 38.1859 22.628C39.5381 21.8089 40.1098 22.5044 40.2489 23.1922L43.5251 20.2555C43.4324 19.9 43.301 19.5986 43.1542 19.359C42.9842 19.0963 42.7833 18.8953 42.5592 18.7562C42.4124 18.6635 40.1871 17.4425 39.963 17.3806C39.7699 17.3265 39.5612 17.3033 39.3526 17.3033L39.3372 16.9092L37.2278 15.75L34.6547 17.2956L34.6702 17.7593L34.732 19.359C34.732 19.359 33.4648 19.8845 32.0894 22.2957C32.0276 22.3962 31.9813 22.4889 31.9349 22.5894C31.3863 23.625 31.0927 24.7456 31.139 25.8893C31.1854 27.0022 31.5254 27.6282 32.0276 27.9373C32.0817 27.9682 33.8202 28.8878 34.0984 29.0733C34.1602 29.112 34.2298 29.1506 34.2993 29.1815C34.3457 29.2047 34.4075 29.2202 34.4538 29.2433H34.4693C34.5311 29.2665 34.5852 29.282 34.647 29.2974C34.7011 29.3129 34.7475 29.3206 34.8093 29.3206C34.8324 29.3206 34.8556 29.3283 34.8788 29.3206C34.9174 29.3283 34.9638 29.3361 35.0024 29.3361C35.3656 29.3593 35.7597 29.3129 36.1537 29.2356C36.3469 29.197 36.5478 29.1506 36.7487 29.0888C37.0346 29.0115 37.3282 28.9188 37.5986 28.8337C37.6914 28.8028 37.7764 28.7797 37.8536 28.7487C37.6373 29.1274 37.2664 29.5138 36.6714 29.8693C36.3701 30.0548 36.0996 30.1707 35.8601 30.2403L34.6625 29.5757L31.5563 32.3887C31.7495 32.9374 32.0431 33.3315 32.4217 33.5866C32.8003 33.8416 34.2993 34.6144 34.6316 34.8076C34.8943 34.9622 35.1956 35.0549 35.5356 35.0781L35.551 35.5341L37.6605 36.6933L40.2566 35.1322L40.1717 33.0765C41.2534 32.2496 42.1343 31.2836 42.7215 30.2325L42.7369 30.2016C43.3319 29.1274 43.641 27.9682 43.5946 26.7549C43.5483 25.6034 43.2237 24.9619 42.7215 24.6451C42.3274 24.3978 40.8902 23.6636 40.5966 23.4781L40.5889 23.4859Z" fill="#3C5AE7"/>
<path opacity="0.3" d="M40.5889 23.4859C39.9089 23.0608 38.9199 23.2231 37.8923 23.5245C37.5832 23.6172 37.2896 23.7177 37.0037 23.8104C37.2355 23.3545 37.6527 22.9526 38.1859 22.628C39.5381 21.8089 40.1098 22.5044 40.2489 23.1922L43.5251 20.2555C43.4324 19.9 43.301 19.5986 43.1542 19.359C42.9842 19.0963 42.7833 18.8953 42.5592 18.7562C42.4124 18.6635 40.1871 17.4425 39.963 17.3806C39.7699 17.3265 39.5612 17.3033 39.3526 17.3033L39.3372 16.9092L37.2278 15.75L34.6547 17.2956L34.6702 17.7593L34.732 19.359C34.732 19.359 33.4648 19.8845 32.0894 22.2957C32.0276 22.3962 31.9813 22.4889 31.9349 22.5894C31.3863 23.625 31.0927 24.7456 31.139 25.8893C31.1854 27.0022 31.5254 27.6282 32.0276 27.9373C32.0817 27.9682 33.8202 28.8878 34.0984 29.0733C34.1602 29.112 34.2298 29.1506 34.2993 29.1815C34.3457 29.2047 34.4075 29.2202 34.4538 29.2433H34.4693C34.5311 29.2665 34.5852 29.282 34.647 29.2974C34.7011 29.3129 34.7475 29.3206 34.8093 29.3206C34.8324 29.3206 34.8556 29.3283 34.8788 29.3206C34.9174 29.3283 34.9638 29.3361 35.0024 29.3361C35.3656 29.3593 35.7597 29.3129 36.1537 29.2356C36.3469 29.197 36.5478 29.1506 36.7487 29.0888C37.0346 29.0115 37.3282 28.9188 37.5986 28.8337C37.6914 28.8028 37.7764 28.7797 37.8536 28.7487C37.6373 29.1274 37.2664 29.5138 36.6714 29.8693C36.3701 30.0548 36.0996 30.1707 35.8601 30.2403L34.6625 29.5757L31.5563 32.3887C31.7495 32.9374 32.0431 33.3315 32.4217 33.5866C32.8003 33.8416 34.2993 34.6144 34.6316 34.8076C34.8943 34.9622 35.1956 35.0549 35.5356 35.0781L35.551 35.5341L37.6605 36.6933L40.2566 35.1322L40.1717 33.0765C41.2534 32.2496 42.1343 31.2836 42.7215 30.2325L42.7369 30.2016C43.3319 29.1274 43.641 27.9682 43.5946 26.7549C43.5483 25.6034 43.2237 24.9619 42.7215 24.6451C42.3274 24.3978 40.8902 23.6636 40.5966 23.4781L40.5889 23.4859Z" fill="black"/>
<g opacity="0.1">
<path d="M40.0012 24.6837C41.0057 24.3901 41.9716 24.2278 42.6515 24.6219C42.2034 24.3437 40.8666 23.6636 40.5885 23.4859C39.9085 23.0608 38.9195 23.2231 37.8918 23.5245C37.5827 23.6173 37.2891 23.7177 37.0032 23.8105C36.8719 24.0809 36.7946 24.3746 36.8101 24.6837C36.8641 25.9975 38.3322 25.1861 40.0089 24.6837H40.0012Z" fill="black"/>
<path d="M35.5199 35.0858L35.5354 35.5418L37.6448 36.701L37.5598 34.6453C36.7717 34.9776 36.084 35.1167 35.5122 35.0781L35.5199 35.0858Z" fill="black"/>
<path d="M33.6578 33.5556L31.5483 32.3964C31.7415 32.9451 32.0351 33.3393 32.4137 33.5943C32.7769 33.8339 34.1445 34.5449 34.5618 34.7767C34.1677 34.5217 33.8664 34.1198 33.6655 33.5556H33.6578Z" fill="black"/>
<path d="M40.1171 28.6174C40.0322 28.4242 39.8699 28.3392 39.6381 28.3237C39.2672 28.2928 38.6954 28.4783 37.9073 28.7256C37.8687 28.741 37.8377 28.7487 37.8377 28.7487C37.6214 29.1274 37.2505 29.5138 36.6555 29.8693C36.3542 30.0548 36.0838 30.1707 35.8442 30.2403L36.756 30.7426C36.9492 31.5463 37.6214 31.7241 38.765 31.0363C39.8467 30.3871 40.2176 29.6298 40.1944 29.0115C40.1867 28.8569 40.1635 28.7256 40.1171 28.6251V28.6174Z" fill="black"/>
<path d="M34.647 17.3033L36.7564 18.4626L36.8337 20.526L34.7242 19.359L34.647 17.3033Z" fill="black"/>
</g>
<path d="M36.7717 18.9263L36.8336 20.526C36.8336 20.526 35.5664 21.0515 34.191 23.4627C34.1292 23.5631 34.0828 23.6559 34.0365 23.7563C33.4879 24.7919 33.1942 25.9125 33.2406 27.0563C33.2947 28.285 33.6965 28.911 34.2837 29.1815C34.3301 29.2047 34.3919 29.2202 34.4383 29.2433H34.4537C34.5155 29.2665 34.5696 29.282 34.6314 29.2974C34.6855 29.3129 34.7319 29.3206 34.7937 29.3206C34.8169 29.3206 34.8401 29.3283 34.8632 29.3206C34.9019 29.3206 34.9482 29.3361 34.9869 29.3361C35.35 29.3593 35.7441 29.3129 36.1382 29.2356C36.3313 29.197 36.5322 29.1506 36.7331 29.0888C37.019 29.0115 37.3126 28.9188 37.5831 28.8337C37.699 28.7951 37.8071 28.7565 37.9153 28.7255C38.7034 28.4628 39.2752 28.2928 39.6461 28.3237C39.8779 28.3391 40.0402 28.4242 40.1252 28.6174C40.1715 28.7178 40.1947 28.8492 40.2024 29.0038C40.2256 29.622 39.8547 30.3794 38.773 31.0285C37.6217 31.7163 36.9572 31.5386 36.764 30.7349L33.6579 33.5479C34.2142 35.1167 35.5432 35.5031 37.5753 34.6453L37.6603 36.701L40.2565 35.1399L40.1715 33.0842C41.2533 32.2573 42.1341 31.2913 42.7214 30.2403L42.7368 30.2094C43.3318 29.1351 43.6409 27.9759 43.5945 26.7626C43.4863 24.0577 41.8019 24.1582 40.0093 24.6837C38.3403 25.1783 36.8645 25.9898 36.8104 24.6837C36.7795 23.8645 37.3358 23.1458 38.1857 22.6358C39.5379 21.8166 40.1097 22.5121 40.2488 23.1999L43.525 20.2632C43.4322 19.9077 43.3009 19.6063 43.1541 19.3668C42.8759 18.934 42.505 18.6712 42.0723 18.5553C41.3074 18.3466 40.357 18.563 39.4143 18.9803L39.337 16.9169L36.764 18.4626L36.7795 18.9263H36.7717Z" fill="#3C5AE7"/>
<path d="M40.2491 35.1399L37.6529 36.701L37.5679 34.653L37.9001 36.2528L40.2491 35.1399Z" fill="#F5F5F5"/>
<path d="M36.7644 30.7426L33.6582 33.5556L36.5712 31.0904C36.5712 31.0904 36.9421 32.5433 38.7811 31.0363C37.6298 31.7241 36.9653 31.5463 36.7721 30.7426" fill="#F5F5F5"/>
<path d="M43.5252 20.2632C43.4325 19.9077 43.3011 19.6063 43.1543 19.3668C42.8761 18.934 42.5052 18.6712 42.0725 18.5553C42.0725 18.5553 43.0693 18.9262 43.247 20.3096L40.249 23.1999L43.5252 20.2632Z" fill="#F5F5F5"/>
<path d="M39.4066 18.9803L39.1285 17.2724L36.7563 18.4626L39.3294 16.9169L39.4066 18.9803Z" fill="#F5F5F5"/>
<path d="M35.2342 46.6935C41.7865 43.7491 47.5584 35.2404 47.5584 35.2404C44.12 40.7583 39.8007 44.9624 35.3887 47.0799C31.1622 49.1124 27.3992 48.9656 24.7876 46.6626C24.7876 46.6626 28.5737 49.692 35.2342 46.6935Z" fill="#F5F5F5"/>
<path d="M25.5527 18.3698C29.0375 12.1873 33.9131 6.98625 39.1132 4.49006C44.5143 1.8934 49.0885 2.77441 51.847 6.26754C51.847 6.26754 47.2109 0.803732 39.0901 5.01558C30.9615 9.22742 25.5605 18.3621 25.5605 18.3621L25.5527 18.3698Z" fill="#F5F5F5"/>
</svg>
