<svg width="393" height="852" viewBox="0 0 393 852" fill="none" xmlns="http://www.w3.org/2000/svg">
<g clip-path="url(#clip0_2710_5166)">
<rect width="393" height="852" fill="#26292E"/>
<g opacity="0.4">
<mask id="mask0_2710_5166" style="mask-type:luminance" maskUnits="userSpaceOnUse" x="-519" y="-373" width="1907" height="2365">
<path d="M1387.44 -41.521L-49.7493 -373L-518.552 1659.58L918.637 1991.06L1387.44 -41.521Z" fill="white"/>
</mask>
<g mask="url(#mask0_2710_5166)">
<path d="M410.751 667.668L388.902 662.629C394.275 639.331 417.888 624.816 441.525 630.268L436.557 651.804C424.969 649.131 413.409 656.254 410.775 667.674L410.751 667.668Z" fill="#4C61AD"/>
<path d="M380.002 705.075L384.969 683.539C396.558 686.212 408.118 679.088 410.751 667.669L432.601 672.708C427.227 696.006 403.614 710.52 379.978 705.069L380.002 705.075Z" fill="#4C61AD"/>
<path d="M391.261 752.169L369.412 747.13C374.786 723.832 398.399 709.318 422.035 714.769L417.068 736.305C405.479 733.632 393.919 740.755 391.286 752.175L391.261 752.169Z" fill="#4C61AD"/>
<path d="M360.512 789.575L365.479 768.039C377.068 770.712 388.627 763.589 391.261 752.169L413.111 757.209C407.737 780.507 384.124 795.021 360.488 789.569L360.512 789.575Z" fill="#4C61AD"/>
<path d="M371.772 836.67L349.922 831.63C355.296 808.332 378.909 793.818 402.545 799.269L397.578 820.805C385.989 818.132 374.43 825.256 371.796 836.675L371.772 836.67Z" fill="#4C61AD"/>
<path d="M341.022 874.076L345.989 852.54C357.578 855.213 369.138 848.09 371.772 836.67L393.621 841.709C388.247 865.007 364.634 879.522 340.998 874.07L341.022 874.076Z" fill="#4C61AD"/>
<path d="M387.946 350.923L392.913 329.388C404.502 332.06 416.061 324.937 418.695 313.517L440.545 318.557C435.171 341.855 411.558 356.369 387.922 350.918L387.946 350.923Z" fill="#4C61AD"/>
<path d="M399.206 398.018L377.357 392.979C382.73 369.681 406.343 355.167 429.979 360.618L425.012 382.154C413.424 379.481 401.864 386.604 399.23 398.024L399.206 398.018Z" fill="#4C61AD"/>
<path d="M368.456 435.424L373.423 413.888C385.012 416.561 396.572 409.438 399.206 398.018L421.055 403.057C415.682 426.355 392.068 440.87 368.432 435.418L368.456 435.424Z" fill="#4C61AD"/>
<path d="M379.716 482.519L357.866 477.479C363.24 454.181 386.853 439.667 410.489 445.119L405.522 466.654C393.933 463.981 382.374 471.105 379.74 482.524L379.716 482.519Z" fill="#4C61AD"/>
<path d="M348.967 519.924L353.934 498.389C365.523 501.061 377.082 493.938 379.716 482.518L401.566 487.558C396.192 510.856 372.579 525.37 348.943 519.919L348.967 519.924Z" fill="#4C61AD"/>
<path d="M360.227 567.02L338.377 561.98C343.751 538.682 367.364 524.168 391 529.619L386.033 551.155C374.444 548.482 362.885 555.605 360.251 567.025L360.227 567.02Z" fill="#4C61AD"/>
<path d="M329.477 604.426L334.444 582.89C346.033 585.563 357.592 578.44 360.226 567.02L382.076 572.06C376.702 595.358 353.089 609.872 329.453 604.42L329.477 604.426Z" fill="#4C61AD"/>
<path d="M340.737 651.52L318.888 646.481C324.261 623.183 347.874 608.668 371.51 614.12L366.543 635.655C354.955 632.983 343.395 640.106 340.761 651.526L340.737 651.52Z" fill="#4C61AD"/>
<path d="M309.987 688.926L314.954 667.39C326.543 670.063 338.103 662.939 340.737 651.52L362.586 656.559C357.213 679.857 333.599 694.372 309.963 688.92L309.987 688.926Z" fill="#4C61AD"/>
<path d="M321.247 736.021L299.398 730.982C304.771 707.684 328.385 693.17 352.021 698.621L347.054 720.157C335.465 717.484 323.905 724.607 321.271 736.027L321.247 736.021Z" fill="#4C61AD"/>
<path d="M290.498 773.427L295.465 751.891C307.054 754.564 318.613 747.441 321.247 736.021L343.097 741.06C337.723 764.359 314.11 778.873 290.474 773.421L290.498 773.427Z" fill="#4C61AD"/>
<path d="M301.758 820.521L279.908 815.482C285.282 792.184 308.895 777.67 332.531 783.121L327.564 804.657C315.975 801.984 304.416 809.107 301.782 820.527L301.758 820.521Z" fill="#4C61AD"/>
<path d="M271.008 857.928L275.975 836.392C287.564 839.065 299.124 831.941 301.757 820.522L323.607 825.561C318.233 848.859 294.62 863.374 270.984 857.922L271.008 857.928Z" fill="#4C61AD"/>
<path d="M407.149 43.866L385.299 38.8265C390.673 15.5285 414.286 1.01424 437.922 6.46575L432.955 28.0014C421.367 25.3285 409.807 32.4519 407.173 43.8716L407.149 43.866Z" fill="#4C61AD"/>
<path d="M376.4 81.2725L381.367 59.7369C392.956 62.4098 404.515 55.2864 407.149 43.8667L428.999 48.9062C423.625 72.2042 400.012 86.7185 376.376 81.267L376.4 81.2725Z" fill="#4C61AD"/>
<path d="M387.66 128.366L365.81 123.327C371.184 100.029 394.797 85.5147 418.433 90.9662L413.466 112.502C401.877 109.829 390.318 116.952 387.684 128.372L387.66 128.366Z" fill="#4C61AD"/>
<path d="M356.911 165.772L361.878 144.237C373.467 146.91 385.026 139.786 387.66 128.366L409.51 133.406C404.136 156.704 380.523 171.218 356.887 165.767L356.911 165.772Z" fill="#4C61AD"/>
<path d="M368.17 212.867L346.32 207.828C351.694 184.53 375.307 170.016 398.943 175.467L393.976 197.003C382.387 194.33 370.828 201.453 368.194 212.873L368.17 212.867Z" fill="#4C61AD"/>
<path d="M337.42 250.273L342.388 228.737C353.976 231.41 365.536 224.287 368.17 212.867L390.019 217.906C384.646 241.204 361.032 255.719 337.396 250.267L337.42 250.273Z" fill="#4C61AD"/>
<path d="M348.68 297.369L326.831 292.329C332.204 269.031 355.818 254.517 379.454 259.968L374.487 281.504C362.898 278.831 351.338 285.955 348.705 297.374L348.68 297.369Z" fill="#4C61AD"/>
<path d="M317.931 334.775L322.898 313.239C334.487 315.912 346.047 308.789 348.68 297.369L370.53 302.409C365.156 325.707 341.543 340.221 317.907 334.769L317.931 334.775Z" fill="#4C61AD"/>
<path d="M329.191 381.869L307.342 376.829C312.715 353.531 336.328 339.017 359.965 344.468L354.997 366.004C343.409 363.331 331.849 370.455 329.215 381.874L329.191 381.869Z" fill="#4C61AD"/>
<path d="M298.441 419.274L303.409 397.739C314.997 400.412 326.557 393.288 329.191 381.869L351.04 386.908C345.667 410.206 322.053 424.72 298.417 419.269L298.441 419.274Z" fill="#4C61AD"/>
<path d="M309.701 466.37L287.852 461.331C293.225 438.033 316.838 423.519 340.475 428.97L335.507 450.506C323.919 447.833 312.359 454.956 309.725 466.376L309.701 466.37Z" fill="#4C61AD"/>
<path d="M278.951 503.775L283.919 482.239C295.507 484.912 307.067 477.789 309.701 466.369L331.55 471.409C326.177 494.707 302.563 509.221 278.927 503.769L278.951 503.775Z" fill="#4C61AD"/>
<path d="M290.212 550.87L268.362 545.831C273.736 522.533 297.349 508.019 320.985 513.47L316.018 535.006C304.429 532.333 292.87 539.456 290.236 550.876L290.212 550.87Z" fill="#4C61AD"/>
<path d="M259.462 588.276L264.429 566.741C276.018 569.413 287.577 562.29 290.211 550.87L312.061 555.91C306.687 579.208 283.074 593.722 259.438 588.271L259.462 588.276Z" fill="#4C61AD"/>
<path d="M270.722 635.372L248.873 630.332C254.246 607.034 277.859 592.52 301.496 597.971L296.528 619.507C284.94 616.834 273.38 623.957 270.746 635.377L270.722 635.372Z" fill="#4C61AD"/>
<path d="M239.973 672.777L244.94 651.241C256.529 653.914 268.088 646.791 270.722 635.371L292.572 640.411C287.198 663.709 263.585 678.223 239.949 672.771L239.973 672.777Z" fill="#4C61AD"/>
<path d="M251.232 719.873L229.383 714.833C234.756 691.535 258.369 677.021 282.006 682.472L277.038 704.008C265.45 701.335 253.89 708.458 251.256 719.878L251.232 719.873Z" fill="#4C61AD"/>
<path d="M220.483 757.278L225.45 735.742C237.039 738.415 248.599 731.292 251.232 719.872L273.082 724.912C267.708 748.21 244.095 762.724 220.459 757.272L220.483 757.278Z" fill="#4C61AD"/>
<path d="M231.743 804.373L209.894 799.334C215.267 776.036 238.88 761.522 262.517 766.973L257.549 788.509C245.961 785.836 234.401 792.959 231.767 804.379L231.743 804.373Z" fill="#4C61AD"/>
<path d="M200.993 841.779L205.96 820.243C217.549 822.916 229.109 815.793 231.742 804.373L253.592 809.413C248.218 832.711 224.605 847.225 200.969 841.774L200.993 841.779Z" fill="#4C61AD"/>
<path d="M212.253 888.874L190.404 883.834C195.777 860.536 219.391 846.022 243.027 851.474L238.06 873.009C226.471 870.336 214.911 877.46 212.277 888.879L212.253 888.874Z" fill="#4C61AD"/>
<path d="M337.134 27.7178L315.285 22.6783C320.658 -0.619717 344.272 -15.134 367.908 -9.68244L362.941 11.8532C351.352 9.18031 339.792 16.3037 337.158 27.7234L337.134 27.7178Z" fill="#4C61AD"/>
<path d="M306.385 65.1236L311.352 43.588C322.941 46.2609 334.5 39.1375 337.134 27.7178L358.984 32.7573C353.61 56.0553 329.997 70.5696 306.361 65.118L306.385 65.1236Z" fill="#4C61AD"/>
<path d="M317.644 112.218L295.795 107.179C301.168 83.8808 324.781 69.3665 348.417 74.818L343.45 96.3537C331.862 93.6808 320.302 100.804 317.668 112.224L317.644 112.218Z" fill="#4C61AD"/>
<path d="M286.894 149.624L291.861 128.088C303.45 130.761 315.01 123.638 317.644 112.218L339.493 117.258C334.12 140.556 310.506 155.07 286.87 149.619L286.894 149.624Z" fill="#4C61AD"/>
<path d="M298.154 196.719L276.305 191.679C281.679 168.381 305.292 153.867 328.928 159.318L323.961 180.854C312.372 178.181 300.813 185.304 298.179 196.724L298.154 196.719Z" fill="#4C61AD"/>
<path d="M267.405 234.125L272.372 212.589C283.961 215.262 295.521 208.138 298.155 196.719L320.004 201.758C314.631 225.056 291.017 239.571 267.381 234.119L267.405 234.125Z" fill="#4C61AD"/>
<path d="M278.665 281.22L256.816 276.181C262.189 252.882 285.803 238.368 309.439 243.82L304.472 265.355C292.883 262.683 281.323 269.806 278.689 281.226L278.665 281.22Z" fill="#4C61AD"/>
<path d="M247.916 318.626L252.883 297.09C264.471 299.763 276.031 292.64 278.665 281.22L300.514 286.26C295.141 309.558 271.527 324.072 247.891 318.62L247.916 318.626Z" fill="#4C61AD"/>
<path d="M259.175 365.721L237.325 360.682C242.699 337.383 266.312 322.869 289.948 328.321L284.981 349.856C273.392 347.183 261.833 354.307 259.199 365.727L259.175 365.721Z" fill="#4C61AD"/>
<path d="M228.426 403.127L233.393 381.591C244.982 384.264 256.541 377.14 259.175 365.721L281.025 370.76C275.651 394.058 252.038 408.572 228.402 403.121L228.426 403.127Z" fill="#4C61AD"/>
<path d="M239.686 450.222L217.836 445.182C223.21 421.884 246.823 407.37 270.459 412.821L265.492 434.357C253.903 431.684 242.344 438.808 239.71 450.227L239.686 450.222Z" fill="#4C61AD"/>
<path d="M208.937 487.627L213.904 466.091C225.493 468.764 237.052 461.64 239.686 450.221L261.536 455.26C256.162 478.558 232.549 493.072 208.913 487.621L208.937 487.627Z" fill="#4C61AD"/>
<path d="M220.196 534.723L198.347 529.683C203.72 506.385 227.334 491.871 250.97 497.322L246.003 518.858C234.414 516.185 222.854 523.309 220.22 534.728L220.196 534.723Z" fill="#4C61AD"/>
<path d="M189.447 572.128L194.414 550.593C206.003 553.265 217.563 546.142 220.197 534.722L242.046 539.762C236.673 563.06 213.059 577.574 189.423 572.123L189.447 572.128Z" fill="#4C61AD"/>
<path d="M200.706 619.223L178.857 614.183C184.231 590.885 207.844 576.371 231.48 581.822L226.513 603.358C214.924 600.685 203.365 607.809 200.731 619.228L200.706 619.223Z" fill="#4C61AD"/>
<path d="M169.957 656.628L174.924 635.093C186.513 637.766 198.072 630.642 200.706 619.223L222.556 624.262C217.182 647.56 193.569 662.074 169.933 656.623L169.957 656.628Z" fill="#4C61AD"/>
<path d="M181.217 703.725L159.367 698.685C164.741 675.387 188.354 660.873 211.99 666.324L207.023 687.86C195.434 685.187 183.875 692.311 181.241 703.73L181.217 703.725Z" fill="#4C61AD"/>
<path d="M150.468 741.13L155.435 719.594C167.023 722.267 178.583 715.144 181.217 703.724L203.066 708.763C197.693 732.061 174.079 746.576 150.443 741.124L150.468 741.13Z" fill="#4C61AD"/>
<path d="M161.728 788.224L139.878 783.185C145.252 759.887 168.865 745.372 192.501 750.824L187.534 772.36C175.945 769.687 164.386 776.81 161.752 788.23L161.728 788.224Z" fill="#4C61AD"/>
<path d="M130.978 825.63L135.945 804.095C147.534 806.768 159.094 799.644 161.728 788.225L183.577 793.264C178.204 816.562 154.59 831.076 130.954 825.625L130.978 825.63Z" fill="#4C61AD"/>
<path d="M142.237 872.725L120.388 867.686C125.762 844.388 149.375 829.874 173.011 835.325L168.044 856.861C156.455 854.188 144.896 861.311 142.262 872.731L142.237 872.725Z" fill="#4C61AD"/>
<path d="M267.119 11.5689L245.269 6.52941C250.643 -16.7686 274.256 -31.2829 297.892 -25.8314L292.925 -4.29576C281.336 -6.96862 269.777 0.154761 267.143 11.5744L267.119 11.5689Z" fill="#4C61AD"/>
<path d="M236.369 48.9744L241.337 27.4388C252.925 30.1117 264.485 22.9883 267.119 11.5686L288.968 16.6081C283.595 39.9061 259.981 54.4204 236.345 48.9689L236.369 48.9744Z" fill="#4C61AD"/>
<path d="M247.629 96.0698L225.779 91.0304C231.153 67.7323 254.766 53.2181 278.402 58.6696L273.435 80.2052C261.847 77.5324 250.287 84.6557 247.653 96.0754L247.629 96.0698Z" fill="#4C61AD"/>
<path d="M216.88 133.476L221.847 111.941C233.435 114.614 244.995 107.49 247.629 96.0706L269.478 101.11C264.105 124.408 240.492 138.922 216.856 133.471L216.88 133.476Z" fill="#4C61AD"/>
<path d="M228.14 180.57L206.29 175.53C211.664 152.232 235.277 137.718 258.913 143.17L253.946 164.705C242.358 162.032 230.798 169.156 228.164 180.575L228.14 180.57Z" fill="#4C61AD"/>
<path d="M197.39 217.976L202.358 196.44C213.946 199.113 225.506 191.99 228.14 180.57L249.989 185.609C244.616 208.907 221.002 223.422 197.366 217.97L197.39 217.976Z" fill="#4C61AD"/>
<path d="M208.65 265.072L186.8 260.032C192.174 236.734 215.787 222.22 239.423 227.671L234.456 249.207C222.868 246.534 211.308 253.657 208.674 265.077L208.65 265.072Z" fill="#4C61AD"/>
<path d="M177.9 302.478L182.868 280.942C194.456 283.615 206.016 276.491 208.65 265.072L230.499 270.111C225.126 293.409 201.512 307.924 177.876 302.472L177.9 302.478Z" fill="#4C61AD"/>
<path d="M189.16 349.571L167.311 344.532C172.684 321.234 196.297 306.72 219.934 312.171L214.966 333.707C203.378 331.034 191.818 338.157 189.184 349.577L189.16 349.571Z" fill="#4C61AD"/>
<path d="M158.411 386.977L163.379 365.442C174.967 368.115 186.527 360.991 189.161 349.572L211.01 354.611C205.637 377.909 182.023 392.423 158.387 386.972L158.411 386.977Z" fill="#4C61AD"/>
<path d="M169.671 434.074L147.821 429.034C153.195 405.736 176.808 391.222 200.444 396.673L195.477 418.209C183.889 415.536 172.329 422.659 169.695 434.079L169.671 434.074Z" fill="#4C61AD"/>
<path d="M138.922 471.478L143.889 449.943C155.477 452.616 167.037 445.492 169.671 434.073L191.52 439.112C186.147 462.41 162.534 476.924 138.898 471.473L138.922 471.478Z" fill="#4C61AD"/>
<path d="M150.181 518.573L128.331 513.534C133.705 490.236 157.318 475.722 180.954 481.173L175.987 502.709C164.399 500.036 152.839 507.159 150.205 518.579L150.181 518.573Z" fill="#4C61AD"/>
<path d="M119.431 555.979L124.399 534.443C135.987 537.116 147.547 529.993 150.181 518.573L172.03 523.613C166.657 546.911 143.043 561.425 119.407 555.974L119.431 555.979Z" fill="#4C61AD"/>
<path d="M130.692 603.074L108.842 598.035C114.216 574.737 137.829 560.222 161.465 565.674L156.498 587.21C144.91 584.537 133.35 591.66 130.716 603.08L130.692 603.074Z" fill="#4C61AD"/>
<path d="M99.9425 640.48L104.91 618.944C116.498 621.617 128.058 614.494 130.692 603.074L152.541 608.114C147.168 631.412 123.554 645.926 99.9183 640.474L99.9425 640.48Z" fill="#4C61AD"/>
<path d="M111.202 687.575L89.3529 682.536C94.7264 659.238 118.34 644.724 141.976 650.175L137.009 671.711C125.42 669.038 113.86 676.161 111.226 687.581L111.202 687.575Z" fill="#4C61AD"/>
<path d="M80.4527 724.98L85.4198 703.444C97.0085 706.117 108.568 698.994 111.202 687.574L133.051 692.614C127.678 715.912 104.065 730.426 80.4285 724.974L80.4527 724.98Z" fill="#4C61AD"/>
<path d="M91.7119 772.076L69.8624 767.036C75.2359 743.738 98.8492 729.224 122.485 734.676L117.518 756.211C105.93 753.538 94.3699 760.662 91.736 772.082L91.7119 772.076Z" fill="#4C61AD"/>
<path d="M60.9632 809.482L65.9303 787.946C77.519 790.619 89.0786 783.496 91.7125 772.076L113.562 777.116C108.188 800.414 84.5751 814.928 60.939 809.476L60.9632 809.482Z" fill="#4C61AD"/>
<path d="M72.2229 856.577L50.3734 851.537C55.7469 828.239 79.3602 813.725 102.996 819.176L98.0292 840.712C86.4405 838.039 74.8809 845.163 72.247 856.582L72.2229 856.577Z" fill="#4C61AD"/>
<path d="M41.4735 893.982L46.4405 872.447C58.0292 875.119 69.5888 867.996 72.2227 856.576L94.0722 861.616C88.6986 884.914 65.0854 899.428 41.4493 893.977L41.4735 893.982Z" fill="#4C61AD"/>
<path d="M197.104 -4.57933L175.255 -9.61878C180.629 -32.9168 204.242 -47.4311 227.878 -41.9796L222.911 -20.444C211.322 -23.1168 199.762 -15.9934 197.129 -4.57376L197.104 -4.57933Z" fill="#4C61AD"/>
<path d="M166.355 32.8265L171.322 11.2909C182.911 13.9637 194.471 6.84035 197.105 -4.57932L218.954 0.460132C213.58 23.7582 189.967 38.2724 166.331 32.8209L166.355 32.8265Z" fill="#4C61AD"/>
<path d="M177.616 79.9212L155.766 74.8817C161.14 51.5837 184.753 37.0694 208.389 42.5209L203.422 64.0565C191.833 61.3837 180.274 68.5071 177.64 79.9267L177.616 79.9212Z" fill="#4C61AD"/>
<path d="M146.866 117.327L151.833 95.7911C163.422 98.464 174.981 91.3406 177.615 79.9209L199.465 84.9604C194.091 108.258 170.478 122.773 146.842 117.321L146.866 117.327Z" fill="#4C61AD"/>
<path d="M158.126 164.422L136.276 159.383C141.65 136.085 165.263 121.57 188.899 127.022L183.932 148.558C172.343 145.885 160.784 153.008 158.15 164.428L158.126 164.422Z" fill="#4C61AD"/>
<path d="M127.376 201.827L132.343 180.292C143.932 182.965 155.492 175.841 158.126 164.422L179.975 169.461C174.601 192.759 150.988 207.273 127.352 201.822L127.376 201.827Z" fill="#4C61AD"/>
<path d="M138.636 248.923L116.786 243.883C122.16 220.585 145.773 206.071 169.409 211.523L164.442 233.058C152.853 230.385 141.294 237.509 138.66 248.928L138.636 248.923Z" fill="#4C61AD"/>
<path d="M107.886 286.329L112.853 264.793C124.442 267.466 136.002 260.343 138.636 248.923L160.485 253.962C155.111 277.26 131.498 291.775 107.862 286.323L107.886 286.329Z" fill="#4C61AD"/>
<path d="M119.145 333.423L97.296 328.384C102.67 305.086 126.283 290.572 149.919 296.023L144.952 317.559C133.363 314.886 121.803 322.009 119.17 333.429L119.145 333.423Z" fill="#4C61AD"/>
<path d="M88.3963 370.83L93.3634 349.294C104.952 351.967 116.512 344.844 119.146 333.424L140.995 338.463C135.621 361.761 112.008 376.276 88.3721 370.824L88.3963 370.83Z" fill="#4C61AD"/>
<path d="M99.6564 417.925L77.807 412.886C83.1805 389.588 106.794 375.074 130.43 380.525L125.463 402.061C113.874 399.388 102.314 406.511 99.6806 417.931L99.6564 417.925Z" fill="#4C61AD"/>
<path d="M68.9068 455.33L73.8739 433.795C85.4625 436.467 97.0222 429.344 99.656 417.924L121.506 422.964C116.132 446.262 92.5187 460.776 68.8826 455.325L68.9068 455.33Z" fill="#4C61AD"/>
<path d="M80.1667 502.425L58.3172 497.386C63.6908 474.088 87.3041 459.573 110.94 465.025L105.973 486.56C94.3844 483.888 82.8247 491.011 80.1908 502.431L80.1667 502.425Z" fill="#4C61AD"/>
<path d="M49.4173 539.831L54.3844 518.296C65.973 520.969 77.5327 513.845 80.1665 502.426L102.016 507.465C96.6425 530.763 73.0292 545.277 49.3931 539.826L49.4173 539.831Z" fill="#4C61AD"/>
<path d="M60.6777 586.926L38.8282 581.886C44.2018 558.588 67.815 544.074 91.4511 549.525L86.484 571.061C74.8954 568.388 63.3357 575.511 60.7018 586.931L60.6777 586.926Z" fill="#4C61AD"/>
<path d="M29.9283 624.331L34.8953 602.796C46.484 605.469 58.0437 598.345 60.6775 586.926L82.527 591.965C77.1535 615.263 53.5402 629.777 29.9041 624.326L29.9283 624.331Z" fill="#4C61AD"/>
<path d="M41.1875 671.427L19.338 666.387C24.7115 643.089 48.3248 628.575 71.9609 634.027L66.9938 655.562C55.4051 652.889 43.8455 660.013 41.2116 671.432L41.1875 671.427Z" fill="#4C61AD"/>
<path d="M10.4383 708.833L15.4054 687.297C26.994 689.97 38.5537 682.846 41.1875 671.427L63.037 676.466C57.6635 699.764 34.0502 714.279 10.4141 708.827L10.4383 708.833Z" fill="#4C61AD"/>
<path d="M21.6977 755.927L-0.151777 750.888C5.22178 727.59 28.8351 713.075 52.4711 718.527L47.5041 740.062C35.9154 737.39 24.3557 744.513 21.7218 755.933L21.6977 755.927Z" fill="#4C61AD"/>
<path d="M-9.05146 793.334L-4.08439 771.798C7.50428 774.471 19.0639 767.347 21.6978 755.928L43.5473 760.967C38.1737 784.265 14.5605 798.78 -9.0756 793.328L-9.05146 793.334Z" fill="#4C61AD"/>
<path d="M2.20869 840.428L-19.6408 835.389C-14.2672 812.091 9.34605 797.576 32.9821 803.028L28.015 824.564C16.4264 821.891 4.8667 829.014 2.23282 840.434L2.20869 840.428Z" fill="#4C61AD"/>
<path d="M-28.5407 877.835L-23.5736 856.299C-11.985 858.972 -0.425339 851.849 2.20854 840.429L24.058 845.468C18.6845 868.766 -4.9288 883.281 -28.5649 877.829L-28.5407 877.835Z" fill="#4C61AD"/>
<path d="M96.3399 16.6788L101.307 -4.85683C112.896 -2.18397 124.455 -9.30736 127.089 -20.727L148.939 -15.6876C143.565 7.61048 119.952 22.1247 96.3158 16.6732L96.3399 16.6788Z" fill="#4C61AD"/>
<path d="M107.6 63.7727L85.7503 58.7333C91.1239 35.4352 114.737 20.921 138.373 26.3725L133.406 47.9081C121.817 45.2352 110.258 52.3586 107.624 63.7783L107.6 63.7727Z" fill="#4C61AD"/>
<path d="M76.8499 101.179L81.817 79.6429C93.4056 82.3158 104.965 75.1924 107.599 63.7727L129.449 68.8122C124.075 92.1102 100.462 106.624 76.8258 101.173L76.8499 101.179Z" fill="#4C61AD"/>
<path d="M88.1101 148.273L66.2606 143.234C71.6341 119.936 95.2474 105.421 118.883 110.873L113.916 132.409C102.328 129.736 90.7681 136.859 88.1342 148.279L88.1101 148.273Z" fill="#4C61AD"/>
<path d="M57.3604 185.679L62.3275 164.143C73.9161 166.816 85.4758 159.693 88.1097 148.273L109.959 153.313C104.586 176.611 80.9723 191.125 57.3363 185.673L57.3604 185.679Z" fill="#4C61AD"/>
<path d="M68.6206 232.774L46.7711 227.735C52.1446 204.437 75.7579 189.923 99.394 195.374L94.4269 216.91C82.8382 214.237 71.2786 221.36 68.6447 232.78L68.6206 232.774Z" fill="#4C61AD"/>
<path d="M37.8709 270.18L42.838 248.645C54.4266 251.317 65.9863 244.194 68.6202 232.774L90.4696 237.814C85.0961 261.112 61.4828 275.626 37.8468 270.175L37.8709 270.18Z" fill="#4C61AD"/>
<path d="M49.1308 317.275L27.2813 312.236C32.6549 288.938 56.2682 274.423 79.9042 279.875L74.9372 301.411C63.3485 298.738 51.7888 305.861 49.155 317.281L49.1308 317.275Z" fill="#4C61AD"/>
<path d="M18.3809 354.681L23.348 333.145C34.9367 335.818 46.4963 328.695 49.1302 317.275L70.9796 322.315C65.6061 345.613 41.9928 360.127 18.3568 354.675L18.3809 354.681Z" fill="#4C61AD"/>
<path d="M29.6408 401.776L7.79134 396.737C13.1649 373.439 36.7782 358.925 60.4142 364.376L55.4472 385.912C43.8585 383.239 32.2988 390.362 29.665 401.782L29.6408 401.776Z" fill="#4C61AD"/>
<path d="M-1.10761 439.181L3.85946 417.646C15.4481 420.318 27.0078 413.195 29.6416 401.775L51.4911 406.815C46.1176 430.113 22.5043 444.627 -1.13176 439.176L-1.10761 439.181Z" fill="#4C61AD"/>
<path d="M10.1516 486.276L-11.6979 481.237C-6.32436 457.939 17.2889 443.425 40.925 448.876L35.9579 470.412C24.3692 467.739 12.8096 474.862 10.1757 486.282L10.1516 486.276Z" fill="#4C61AD"/>
<path d="M-20.5981 523.682L-15.631 502.147C-4.04235 504.82 7.51729 497.696 10.1512 486.277L32.0006 491.316C26.6271 514.614 3.01382 529.128 -20.6222 523.677L-20.5981 523.682Z" fill="#4C61AD"/>
<path d="M-9.33818 570.777L-31.1877 565.738C-25.8141 542.44 -2.20084 527.926 21.4352 533.377L16.4681 554.913C4.87948 552.24 -6.68016 559.363 -9.31404 570.783L-9.33818 570.777Z" fill="#4C61AD"/>
<path d="M-40.0881 608.183L-35.121 586.647C-23.5323 589.32 -11.9727 582.197 -9.33882 570.777L12.5107 575.817C7.1371 599.115 -16.4762 613.629 -40.1122 608.177L-40.0881 608.183Z" fill="#4C61AD"/>
<path d="M-28.8279 655.279L-50.6774 650.239C-45.3039 626.941 -21.6906 612.427 1.94547 617.878L-3.0216 639.414C-14.6103 636.741 -26.1699 643.864 -28.8038 655.284L-28.8279 655.279Z" fill="#4C61AD"/>
<path d="M26.3248 0.529121L31.2918 -21.0065C42.8805 -18.3336 54.4401 -25.457 57.074 -36.8767L78.9235 -31.8372C73.5499 -8.53918 49.9367 5.97507 26.3006 0.523554L26.3248 0.529121Z" fill="#4C61AD"/>
<path d="M37.5847 47.6245L15.7352 42.5851C21.1087 19.287 44.722 4.77277 68.3581 10.2243L63.391 31.7599C51.8023 29.087 40.2427 36.2104 37.6088 47.6301L37.5847 47.6245Z" fill="#4C61AD"/>
<path d="M6.83501 85.0303L11.8021 63.4947C23.3907 66.1676 34.9504 59.0442 37.5843 47.6245L59.4338 52.664C54.0602 75.962 30.4469 90.4763 6.81087 85.0248L6.83501 85.0303Z" fill="#4C61AD"/>
<path d="M18.0954 132.124L-3.75407 127.085C1.61949 103.787 25.2327 89.2723 48.8688 94.7238L43.9017 116.259C32.3131 113.587 20.7534 120.71 18.1195 132.13L18.0954 132.124Z" fill="#4C61AD"/>
<path d="M-12.6538 169.53L-7.6867 147.995C3.90197 150.668 15.4616 143.544 18.0955 132.125L39.945 137.164C34.5714 160.462 10.9582 174.976 -12.6779 169.525L-12.6538 169.53Z" fill="#4C61AD"/>
<path d="M-1.39483 216.626L-23.2443 211.587C-17.8707 188.289 5.74251 173.775 29.3786 179.226L24.4115 200.762C12.8228 198.089 1.26319 205.212 -1.37069 216.632L-1.39483 216.626Z" fill="#4C61AD"/>
<path d="M-32.1435 254.032L-27.1764 232.497C-15.5878 235.17 -4.02812 228.046 -1.39424 216.626L20.4552 221.666C15.0817 244.964 -8.53159 259.478 -32.1676 254.027L-32.1435 254.032Z" fill="#4C61AD"/>
<path d="M-20.8843 301.125L-42.7338 296.086C-37.3602 272.788 -13.747 258.274 9.88907 263.725L4.92201 285.261C-6.66667 282.588 -18.2263 289.711 -20.8602 301.131L-20.8843 301.125Z" fill="#4C61AD"/>
<path d="M-51.6335 338.532L-46.6664 316.996C-35.0778 319.669 -23.5181 312.546 -20.8842 301.126L0.965245 306.165C-4.40831 329.464 -28.0216 343.978 -51.6576 338.526L-51.6335 338.532Z" fill="#4C61AD"/>
</g>
</g>
<rect width="393" height="852" fill="black" fill-opacity="0.5"/>
</g>
<defs>
<clipPath id="clip0_2710_5166">
<rect width="393" height="852" fill="white"/>
</clipPath>
</defs>
</svg>
