<svg width="362" height="367" viewBox="0 0 362 367" fill="none" xmlns="http://www.w3.org/2000/svg">
<path d="M247.294 35.9438C278.47 48.7345 318.856 48.1631 337.927 75.8829C356.995 103.6 341.146 140.985 342.661 174.563C344.199 208.653 362.145 244.222 346.901 274.774C331.485 305.672 294.48 317.41 263.606 333.008C232.506 348.719 200.812 372.454 166.579 365.874C132.634 359.35 115.679 322.37 89.7336 299.591C65.1048 277.968 30.9001 265.43 17.9356 235.372C4.61329 204.484 7.08803 167.852 19.4149 136.556C31.0899 106.915 61.1456 90.8934 83.7166 68.3635C107.388 44.7356 122.421 7.45699 155.272 0.94616C188.137 -5.56746 216.306 23.2307 247.294 35.9438Z" fill="#C3CCF5"/>
<g opacity="0.46">
<path d="M49.1681 248.82C43.1779 251.607 35.1838 248.685 32.4075 242.69C31.4623 240.643 31.0734 238.374 30.1875 236.3C27.9783 231.158 23.0199 227.863 18.5745 224.465C10.4508 218.243 3.03462 210.265 0.544569 200.337C0.00442803 198.193 -0.281847 195.892 0.398732 193.785C1.53303 190.274 5.2492 188.054 8.93297 187.779C12.6113 187.503 16.2357 188.843 19.4873 190.588C27.8811 195.076 34.5843 202.266 39.8129 210.222C45.0414 218.178 48.9088 226.928 52.7492 235.641" fill="#3C5AE7"/>
<path d="M49.692 208.801C42.4865 202.001 36.626 193.78 32.5479 184.754C31.1652 181.692 29.9823 178.148 31.284 175.048C31.5865 174.335 32.0186 173.66 32.6236 173.179C33.6012 172.396 34.93 172.169 36.1777 172.304C40.461 172.763 43.3346 176.825 45.3979 180.606C49.5786 188.276 52.8789 196.513 54.1968 205.15" fill="#3C5AE7"/>
<path d="M312.536 248.82C318.526 251.607 326.52 248.685 329.296 242.69C330.242 240.643 330.63 238.374 331.516 236.3C333.725 231.158 338.684 227.863 343.129 224.465C351.253 218.243 358.669 210.265 361.159 200.337C361.699 198.193 361.986 195.892 361.305 193.785C360.171 190.274 356.455 188.054 352.771 187.779C349.092 187.503 345.468 188.843 342.216 190.588C333.823 195.076 327.119 202.266 321.891 210.222C316.662 218.178 312.795 226.928 308.955 235.641" fill="#3C5AE7"/>
<path d="M312.012 208.801C319.217 202.001 325.078 193.78 329.156 184.754C330.539 181.692 331.721 178.148 330.42 175.048C330.117 174.335 329.685 173.66 329.08 173.179C328.103 172.396 326.774 172.169 325.526 172.304C321.243 172.763 318.369 176.825 316.306 180.606C312.125 188.276 308.825 196.513 307.507 205.15" fill="#3C5AE7"/>
<path d="M6.54554 164.526C10.8073 165.39 14.6099 167.994 17.2079 171.451C17.6454 172.029 23.1603 182.302 20.8053 181.881C13.1731 180.504 6.21066 172.337 6.54554 164.526Z" fill="#3C5AE7"/>
<path d="M352.139 164.737C351.631 169.058 349.357 173.06 346.127 175.939C345.587 176.42 335.81 182.777 336.037 180.395C336.772 172.677 344.328 165.055 352.144 164.737H352.139Z" fill="#3C5AE7"/>
<path d="M25.6287 171.742C23.8733 168.517 25.2452 163.98 28.4915 162.268C29.9013 165.595 28.6697 169.83 25.6936 171.883" fill="#3C5AE7"/>
<path d="M335.87 167.61C333.126 165.169 332.883 160.432 335.367 157.726C337.82 160.383 338.09 164.785 335.983 167.718" fill="#3C5AE7"/>
</g>
<path d="M291.54 94.8098H57.227C49.3158 94.8098 42.9025 101.223 42.9025 109.134V244.299C42.9025 252.211 49.3158 258.624 57.227 258.624H291.54C299.452 258.624 305.865 252.211 305.865 244.299V109.134C305.865 101.223 299.452 94.8098 291.54 94.8098Z" fill="#A3B0CF"/>
<path d="M298.011 94.8098H63.698C55.7867 94.8098 49.3734 101.223 49.3734 109.134V244.299C49.3734 252.211 55.7867 258.624 63.698 258.624H298.011C305.922 258.624 312.336 252.211 312.336 244.299V109.134C312.336 101.223 305.922 94.8098 298.011 94.8098Z" fill="white"/>
<path d="M128.796 110.01C128.796 108.292 127.402 106.898 125.685 106.898C123.967 106.898 122.573 108.292 122.573 110.01C122.573 111.727 123.967 113.121 125.685 113.121C127.402 113.121 128.796 111.727 128.796 110.01Z" fill="#1B314F"/>
<path d="M125.528 110.123C134.122 110.123 141.089 103.155 141.089 94.5615C141.089 85.9678 134.122 79 125.528 79C116.934 79 109.966 85.9678 109.966 94.5615" stroke="#3C5AE7" stroke-width="2" stroke-miterlimit="10"/>
<path d="M184.117 110.01C184.117 108.292 182.724 106.898 181.006 106.898C179.288 106.898 177.895 108.292 177.895 110.01C177.895 111.727 179.288 113.121 181.006 113.121C182.724 113.121 184.117 111.727 184.117 110.01Z" fill="#1B314F"/>
<path d="M180.855 110.123C189.448 110.123 196.416 103.155 196.416 94.5615C196.416 85.9678 189.448 79 180.855 79C172.261 79 165.293 85.9678 165.293 94.5615" stroke="#3C5AE7" stroke-width="2" stroke-miterlimit="10"/>
<path d="M239.438 110.01C239.438 108.292 238.045 106.898 236.327 106.898C234.61 106.898 233.216 108.292 233.216 110.01C233.216 111.727 234.61 113.121 236.327 113.121C238.045 113.121 239.438 111.727 239.438 110.01Z" fill="#1B314F"/>
<path d="M236.176 110.123C244.77 110.123 251.737 103.155 251.737 94.5615C251.737 85.9678 244.77 79 236.176 79C227.582 79 220.614 85.9678 220.614 94.5615" stroke="#3C5AE7" stroke-width="2" stroke-miterlimit="10"/>
<path d="M148.435 132.279H84.4933C82.3112 132.279 80.5395 130.508 80.5395 128.325C80.5395 126.143 82.3112 124.372 84.4933 124.372H148.435C150.617 124.372 152.389 126.143 152.389 128.325C152.389 130.508 150.617 132.279 148.435 132.279Z" fill="#FFB264"/>
<path d="M173.584 132.279H161.372C159.189 132.279 157.418 130.508 157.418 128.325C157.418 126.143 159.189 124.372 161.372 124.372H173.584C175.766 124.372 177.538 126.143 177.538 128.325C177.538 130.508 175.766 132.279 173.584 132.279Z" fill="#E37059"/>
<path d="M148.435 135.871H80.5395V137.308H148.435V135.871Z" fill="#A3B0CF"/>
<g opacity="0.54">
<path d="M281.753 142.359H79.6807V241.95H281.753V142.359Z" stroke="#BFC8DE" stroke-width="0.98" stroke-miterlimit="10"/>
<path d="M79.7672 167.129H282.023" stroke="#BFC8DE" stroke-width="0.98" stroke-miterlimit="10"/>
<path d="M108.33 141.98V241.847" stroke="#BFC8DE" stroke-miterlimit="10"/>
<path d="M137.427 141.98V241.847" stroke="#BFC8DE" stroke-miterlimit="10"/>
<path d="M166.525 141.98V241.847" stroke="#BFC8DE" stroke-miterlimit="10"/>
<path d="M195.622 141.98V241.847" stroke="#BFC8DE" stroke-miterlimit="10"/>
<path d="M224.725 141.98V241.847" stroke="#BFC8DE" stroke-miterlimit="10"/>
<path d="M253.822 141.98V241.847" stroke="#BFC8DE" stroke-miterlimit="10"/>
<path d="M79.7672 191.917H282.023" stroke="#BFC8DE" stroke-width="0.98" stroke-miterlimit="10"/>
<path d="M79.7672 216.704H282.023" stroke="#BFC8DE" stroke-width="0.98" stroke-miterlimit="10"/>
</g>
<g opacity="0.88">
<path d="M147.117 180.125C147.166 177.651 149.186 175.658 151.671 175.658V171.591C146.907 171.591 143.05 175.453 143.05 180.212C143.05 180.104 145.049 180.098 147.117 180.125Z" fill="#FFB264"/>
<path d="M156.224 180.217C156.224 182.734 154.182 184.77 151.671 184.77V188.838C156.435 188.838 160.291 184.976 160.291 180.217H156.224Z" fill="#FFB264"/>
<path d="M147.117 180.217C147.117 180.185 147.117 180.158 147.117 180.131C145.043 180.104 143.05 180.109 143.05 180.217C143.05 184.981 146.912 188.838 151.671 188.838V184.771C149.154 184.771 147.117 182.729 147.117 180.217Z" fill="#1B314F"/>
<path d="M156.224 180.217H160.291C160.291 175.453 156.429 171.596 151.671 171.596V175.663C154.188 175.663 156.224 177.705 156.224 180.217Z" fill="#1B314F"/>
<path d="M151.671 177.543C150.212 177.543 149.029 178.71 149.002 180.163C150.31 180.179 151.671 180.217 151.671 180.217V177.549V177.543Z" fill="#1B314F"/>
<path d="M151.671 182.885C153.145 182.885 154.339 181.692 154.339 180.217H151.671V182.885Z" fill="#1B314F"/>
<path d="M149.002 180.163C149.002 180.163 149.002 180.196 149.002 180.217C149.002 181.692 150.196 182.886 151.671 182.886V180.217C151.671 180.217 150.31 180.18 149.002 180.163Z" fill="#1B314F"/>
</g>
<g style="mix-blend-mode:multiply">
<path d="M209.244 163.3C213.779 163.3 217.455 159.624 217.455 155.09C217.455 150.555 213.779 146.879 209.244 146.879C204.71 146.879 201.034 150.555 201.034 155.09C201.034 159.624 204.71 163.3 209.244 163.3Z" fill="#FFB264"/>
</g>
<path d="M210.276 154.625H212.491V152.411H210.276V154.625Z" fill="white"/>
<path d="M206.754 154.625H208.969V152.411H206.754V154.625Z" fill="white"/>
<path d="M206.754 157.915H208.969V155.7H206.754V157.915Z" fill="white"/>
<path d="M128.094 221.749H115.611C113.305 221.749 111.436 223.618 111.436 225.924V231.914C111.436 234.22 113.305 236.089 115.611 236.089H128.094C130.4 236.089 132.269 234.22 132.269 231.914V225.924C132.269 223.618 130.4 221.749 128.094 221.749Z" fill="#F5C679"/>
<path d="M120.224 228.133H116.578V228.608H120.224V228.133Z" fill="white"/>
<path d="M124.885 226.869H116.578V227.344H124.885V226.869Z" fill="white"/>
<path d="M130.297 154.193H114.131C113.434 154.193 112.872 153.631 112.872 152.934C112.872 152.238 113.434 151.676 114.131 151.676H130.297C130.994 151.676 131.556 152.238 131.556 152.934C131.556 153.631 130.994 154.193 130.297 154.193Z" fill="#E37059"/>
<path d="M118.441 159.584H114.131C113.434 159.584 112.872 159.022 112.872 158.325C112.872 157.628 113.434 157.067 114.131 157.067H118.441C119.138 157.067 119.7 157.628 119.7 158.325C119.7 159.022 119.138 159.584 118.441 159.584Z" fill="#A3B0CF"/>
<g style="mix-blend-mode:multiply">
<path d="M218.486 203.767H202.32C201.623 203.767 201.061 203.205 201.061 202.509C201.061 201.812 201.623 201.25 202.32 201.25H218.486C219.183 201.25 219.745 201.812 219.745 202.509C219.745 203.205 219.183 203.767 218.486 203.767Z" fill="#FFB264"/>
</g>
<path d="M206.636 209.158H202.325C201.628 209.158 201.067 208.596 201.067 207.899C201.067 207.203 201.628 206.641 202.325 206.641H206.636C207.332 206.641 207.894 207.203 207.894 207.899C207.894 208.596 207.332 209.158 206.636 209.158Z" fill="#A3B0CF"/>
<path d="M182.588 224.428L183.453 227.085C183.555 227.409 183.858 227.625 184.198 227.625H186.991C187.747 227.625 188.065 228.598 187.45 229.041L185.192 230.683C184.916 230.882 184.803 231.233 184.906 231.558L185.77 234.215C186.002 234.933 185.181 235.533 184.565 235.09L182.308 233.448C182.032 233.248 181.659 233.248 181.389 233.448L179.132 235.09C178.516 235.533 177.695 234.939 177.927 234.215L178.791 231.558C178.894 231.233 178.78 230.882 178.505 230.683L176.247 229.041C175.631 228.598 175.95 227.625 176.706 227.625H179.499C179.839 227.625 180.136 227.409 180.244 227.085L181.108 224.428C181.341 223.709 182.362 223.709 182.599 224.428H182.588Z" fill="#FFB264"/>
<path d="M241.682 237.28C246.314 236.178 249.176 231.53 248.074 226.899C246.972 222.267 242.324 219.405 237.693 220.507C233.061 221.609 230.199 226.257 231.301 230.888C232.403 235.52 237.051 238.382 241.682 237.28Z" fill="#D4603F"/>
<path d="M236.451 228.198L239.325 231.071L244.532 225.864" stroke="white" stroke-miterlimit="10"/>
<path d="M91.3207 200.894L98.8611 208.44" stroke="#3C5AE7" stroke-width="5" stroke-miterlimit="10" stroke-linecap="round"/>
<path d="M98.8611 200.894L91.3207 208.44" stroke="#3C5AE7" stroke-width="5" stroke-miterlimit="10" stroke-linecap="round"/>
<path d="M266.629 152.4L274.169 159.94" stroke="#D4603F" stroke-width="5" stroke-miterlimit="10" stroke-linecap="round"/>
<path d="M274.169 152.4L266.629 159.94" stroke="#D4603F" stroke-width="5" stroke-miterlimit="10" stroke-linecap="round"/>
<path d="M69.4126 132.398C71.4058 128.439 69.2182 126.986 68.543 126.17C66.9982 124.058 63.9194 122.433 61.7858 122.616C61.7858 122.616 58.9609 121.676 56.6221 124.015C56.2494 124.388 50.1674 128.639 58.68 137.108" fill="#F5C679"/>
<path d="M59.0311 131.658C58.9879 131.794 58.8421 131.858 58.7124 131.81C58.1669 131.599 57.092 131.097 56.4006 132.474C56.0495 133.171 56.3358 134.051 56.9084 134.408C57.3567 134.689 58.0481 134.964 58.4046 134.905C58.7016 135.634 58.2101 140.846 57.7996 141.262C55.2663 143.839 54.6614 143.795 54.6614 143.795C54.6614 143.795 63.7736 157.618 64.0112 145.837C64.0112 145.837 65.0051 139.015 65.0645 139.026C65.9071 139.177 69.0778 139.193 69.5207 133.041C69.9312 127.343 66.0314 126.295 65.0105 126.106C64.1517 125.944 61.2781 125.069 59.0311 131.653V131.658Z" fill="#D4603F"/>
<path d="M65.0428 139.047L62.6284 138.518L62.7797 138.815C63.228 139.712 64.4163 139.836 65.0483 139.047H65.0428Z" fill="#A32404"/>
<path d="M67.9488 126.041C68.57 127.208 62.3584 130.643 61.2673 131.091C59.3444 131.88 58.129 131.907 57.7996 131.102C57.7996 131.102 63.9734 118.571 67.9488 126.041Z" fill="#F5C679"/>
<path d="M64.6021 120.599C65.5896 118.215 64.4575 115.481 62.0735 114.494C59.6895 113.506 56.9564 114.639 55.969 117.023C54.9815 119.407 56.1136 122.14 58.4975 123.127C60.8815 124.115 63.6146 122.982 64.6021 120.599Z" fill="#F5C679"/>
<path d="M58.6368 133.339C57.9185 130.978 56.9192 132.696 56.9192 132.696L58.6368 133.339Z" fill="#A32404"/>
<path d="M64.2435 133.268C64.9618 133.516 65.3399 134.305 65.0861 135.018C64.8322 135.731 64.049 136.115 63.336 135.861C62.6176 135.612 62.2395 134.824 62.4934 134.111C62.7419 133.392 63.5305 133.014 64.2435 133.268Z" fill="#C73514"/>
<path d="M68.7536 136.498C68.2027 136.169 67.9434 135.494 68.1595 134.862C68.3269 134.376 68.9265 134.133 69.3964 134.046C69.3964 134.046 69.3316 135.623 68.7536 136.493V136.498Z" fill="#C73514"/>
<path d="M65.1995 131.399C64.9024 131.491 65.8098 131.032 66.1663 131.048C66.5282 131.064 66.9009 131.232 66.8847 131.545C66.8847 131.545 65.9125 131.172 65.1995 131.399Z" fill="#1B314F"/>
<path d="M69.4667 132.539C69.6557 132.787 69.4505 132.123 69.148 131.928C68.8455 131.734 68.4458 131.664 68.2729 131.928C68.2729 131.928 69.0129 131.944 69.4667 132.544V132.539Z" fill="#1B314F"/>
<path d="M66.08 133.511C65.9936 133.825 66.053 134.116 66.2042 134.154C66.3555 134.197 66.5499 133.976 66.6363 133.657C66.7228 133.344 66.6633 133.052 66.5121 133.014C66.3609 132.971 66.1664 133.193 66.08 133.511Z" fill="#1B314F"/>
<path d="M68.0299 133.943C67.9489 134.246 68.0029 134.521 68.1487 134.559C68.2946 134.597 68.4782 134.386 68.5593 134.084C68.6403 133.781 68.5863 133.506 68.4404 133.468C68.2946 133.43 68.1109 133.641 68.0299 133.943Z" fill="#1B314F"/>
<path d="M67.225 133.387L67.5707 134.948L66.7065 134.748L67.225 133.387Z" fill="#A32404"/>
<path d="M65.9611 134.986L68.0568 135.434C68.0568 135.434 67.3006 136.503 66.6741 136.147C66.0475 135.79 65.9611 134.986 65.9611 134.986Z" fill="white"/>
<path d="M62.8607 252.31L63.9572 261.795C63.9572 261.795 66.539 264.636 67.8894 262.983C68.5646 262.156 70.7197 261.217 71.0438 260.73C70.3038 260.32 68.543 259.132 68.543 259.132L68.9535 252.126L62.8553 252.315L62.8607 252.31Z" fill="#D4603F"/>
<path d="M68.6293 258.97L75.111 263.194C75.3865 263.399 75.1921 263.745 74.7978 263.75C74.7978 263.75 63.1253 263.685 63.1091 263.512C63.0065 262.454 63.5088 260.239 63.5088 260.083C63.5088 259.532 65.1994 261.136 66.3445 261.465C66.9603 261.255 68.4457 258.835 68.6293 258.97Z" fill="white"/>
<path d="M37.5875 252.451L35.3135 260.936C35.3135 260.936 38.0196 264.642 39.3699 262.983C40.0451 262.157 42.2003 261.217 42.5244 260.731C41.7844 260.32 40.0235 259.132 40.0235 259.132L42.5622 252.332L37.5821 252.456L37.5875 252.451Z" fill="#D4603F"/>
<path d="M40.11 258.97L46.5917 263.194C46.8671 263.399 46.6727 263.745 46.2784 263.75C46.2784 263.75 33.6769 263.566 33.6607 263.399C34.2116 262.048 34.849 259.197 35.5242 258.095C35.5998 257.976 36.4478 259.991 37.5929 260.32C38.2087 260.109 39.9317 258.84 40.1154 258.975L40.11 258.97Z" fill="white"/>
<path d="M51.8904 167.108C49.4166 171.483 48.1094 174.686 46.6835 180.249C45.036 186.699 32.2023 245.12 31.4245 256.858C33.4554 257.349 46.9643 258.446 48.2499 258.37C50.7075 246.768 58.1075 200.159 59.8575 192.781C60.1276 191.646 60.7001 191.825 60.6407 192.991C60.1006 203.589 57.8536 245.407 56.8705 258.192C60.1924 258.375 69.472 258.348 70.7036 258.192C72.0431 243.743 78.7679 185.003 68.0353 167.27C63.1308 166.595 56.8651 166.956 51.8904 167.102V167.108Z" fill="#3C5AE7"/>
<mask id="mask0_1367_830" style="mask-type:luminance" maskUnits="userSpaceOnUse" x="31" y="166" width="44" height="93">
<path d="M51.8904 167.108C49.4166 171.483 48.1094 174.686 46.6835 180.249C45.036 186.699 32.2023 245.12 31.4245 256.858C33.4554 257.349 46.9643 258.446 48.2499 258.37C50.7075 246.768 58.1075 200.159 59.8575 192.781C60.1276 191.646 60.7001 191.825 60.6407 192.991C60.1006 203.589 57.8536 245.407 56.8705 258.192C60.1924 258.375 69.472 258.348 70.7036 258.192C72.0431 243.743 78.7679 185.003 68.0353 167.27C63.1308 166.595 56.8651 166.956 51.8904 167.102V167.108Z" fill="white"/>
</mask>
<g mask="url(#mask0_1367_830)">
<path d="M32.7965 213.863C38.0358 217.822 41.7034 223.742 42.9187 230.197C43.5777 233.697 43.5939 237.51 42.1625 240.826C40.823 243.927 38.2249 246.271 35.3027 247.87C31.6297 249.874 27.4707 250.716 23.4088 251.548C23.1549 251.602 23.263 251.991 23.5168 251.937C30.3388 250.538 38.3761 248.702 42.0113 242.047C43.7775 238.812 44.0098 234.971 43.5183 231.385C43.0645 228.074 41.9681 224.865 40.3422 221.949C38.5057 218.659 35.9995 215.775 32.9963 213.506C32.7857 213.35 32.5858 213.701 32.7911 213.857L32.7965 213.863Z" fill="#F9FAFE"/>
<path d="M56.9354 212.68C55.1313 213.128 53.5757 214.7 52.3388 216.002C51.0047 217.406 49.7245 218.972 48.9953 220.787C47.2615 225.087 47.5207 230.062 49.3626 234.28C50.4375 236.738 52.0687 238.936 54.1591 240.627C54.3589 240.789 54.6506 240.503 54.4454 240.34C50.8912 237.462 48.7145 233.113 48.304 228.576C48.1041 226.356 48.3148 224.093 48.9953 221.97C49.6111 220.047 50.6806 218.47 52.0093 216.963C53.3381 215.456 55.0395 213.571 57.0434 213.074C57.2973 213.009 57.1893 212.62 56.9354 212.685V212.68Z" fill="#F9FAFE"/>
<path d="M47.1588 171.111C51.3071 178.197 59.285 182.394 67.4789 181.703C69.9149 181.497 72.2916 180.882 74.5223 179.888C74.76 179.78 74.5547 179.434 74.3171 179.537C66.7065 182.918 57.6483 181.476 51.5015 175.858C49.9243 174.416 48.5848 172.747 47.5045 170.905C47.3748 170.678 47.0237 170.884 47.1534 171.111H47.1588Z" fill="#F9FAFE"/>
<path d="M60.0952 194.126C65.556 197.691 68.3809 204.075 68.7968 210.433C69.2668 217.525 66.6201 224.32 62.7851 230.17C60.4409 233.745 57.6591 237.013 54.7154 240.108C54.5371 240.297 54.8234 240.583 55.0016 240.394C60.2572 234.863 65.1347 228.657 67.6463 221.365C69.8231 215.051 69.8879 208.018 67.1062 201.872C65.6262 198.598 63.3144 195.746 60.295 193.775C60.0736 193.634 59.8737 193.98 60.0898 194.126H60.0952Z" fill="#F9FAFE"/>
<path d="M73.6905 183.928C70.0014 185.116 69.5639 189.664 69.5261 192.943C69.4882 196.535 70.4821 200.413 73.6905 202.449C73.912 202.59 74.1173 202.239 73.8958 202.098C70.8926 200.192 69.9312 196.557 69.9312 193.191C69.9312 190.069 70.2336 185.462 73.7986 184.317C74.047 184.236 73.939 183.847 73.6905 183.928Z" fill="#F9FAFE"/>
<path d="M46.3378 175.15C48.3957 177.36 50.216 179.774 51.7608 182.367C53.3056 184.959 54.5695 187.687 54.8666 190.658C55.1637 193.629 54.1968 196.351 52.2091 198.566C50.2214 200.78 47.8934 202.347 45.4411 203.773C42.6432 205.404 39.6778 206.722 36.7233 208.04C36.4856 208.148 36.6908 208.493 36.9285 208.391C42.3515 205.976 48.2445 203.465 52.3495 199.014C54.2346 196.972 55.3689 194.482 55.3311 191.679C55.2933 188.724 54.1698 185.862 52.7655 183.301C51.091 180.244 49.0007 177.414 46.624 174.864C46.4458 174.675 46.1595 174.961 46.3378 175.15Z" fill="#F9FAFE"/>
<path d="M76.6559 233.788C72.1619 236.192 67.4843 238.72 64.3299 242.852C61.5103 246.541 60.3058 251.365 60.8081 255.961C61.089 258.554 61.9046 261.06 63.2496 263.296C63.3846 263.518 63.7357 263.318 63.6007 263.091C61.2186 259.121 60.5435 254.271 61.5697 249.771C62.6716 244.926 65.745 241.161 69.7421 238.342C71.9945 236.748 74.4305 235.441 76.8611 234.139C77.0934 234.015 76.8881 233.664 76.6559 233.788Z" fill="#F9FAFE"/>
<path d="M67.1549 259.175C66.0692 257.063 66.982 254.487 68.5646 252.893C70.3093 251.138 72.7453 250.306 75.0355 249.539C75.284 249.458 75.176 249.064 74.9275 249.15C72.4482 249.976 69.7475 250.9 67.9759 252.931C66.4581 254.67 65.7019 257.236 66.8038 259.38C66.9226 259.613 67.2737 259.407 67.1549 259.175Z" fill="#F9FAFE"/>
<path d="M52.1065 246.725C49.1897 248.026 45.9056 248.372 43.9017 251.143C41.8978 253.914 41.7898 257.652 42.1409 261.006C42.1679 261.265 42.573 261.265 42.546 261.006C42.2057 257.717 42.2273 254.135 44.2528 251.348C46.1973 248.669 49.4868 248.334 52.3117 247.076C52.5494 246.968 52.3441 246.622 52.1065 246.725Z" fill="#F9FAFE"/>
</g>
<path d="M77.7308 158.455C77.7956 158.725 84.0828 152.103 84.0828 152.103C84.0828 152.103 89.6841 144.703 90.073 145.124C90.6402 145.74 88.4688 149.04 88.4688 149.04C88.4688 149.04 88.6092 149.418 89.0359 149.607C89.4626 149.796 89.6949 150.077 89.8353 150.644C89.9758 151.211 90.5429 151.541 90.6348 151.87C90.7266 152.2 88.62 154.685 87.4263 155.549C87.4263 155.549 84.7796 158.325 82.0519 161.733" fill="#D4603F"/>
<path d="M84.2664 152.054C84.2664 152.054 85.4007 148.846 85.8706 148.943C86.3406 149.035 88.4147 149.932 88.3715 150.736C88.3229 151.536 86.5296 150.877 86.5296 150.877C86.5296 150.877 86.8591 152.67 85.9625 152.902C85.0658 153.14 84.2664 152.054 84.2664 152.054Z" fill="#D4603F"/>
<path d="M87.0104 151.087C87.0104 151.087 86.951 151.568 87.6099 151.709C87.6099 151.709 87.7558 152.724 88.6092 152.535C88.6092 152.535 88.458 153.027 88.9765 153.118C88.9765 153.118 86.6809 155.571 87.0104 151.087Z" fill="#A32404"/>
<path d="M86.6269 149.17C87.0806 149.316 87.5182 149.499 87.9557 149.694C88.1771 149.791 88.3824 149.872 88.6092 150.029C88.7173 150.11 88.8361 150.212 88.8901 150.39C88.9549 150.574 88.8685 150.79 88.7497 150.898C88.2798 151.271 87.7504 151.282 87.2751 151.26C87.1563 151.249 87.0212 151.238 87.0158 151.249C86.9996 151.201 87.0158 151.368 87.0266 151.476C87.0428 151.714 87.0698 151.951 87.0698 152.189H87.0482L86.9132 151.498C86.9132 151.384 86.8214 151.26 86.9132 151.147C87.0212 151.066 87.1509 151.103 87.2643 151.093C87.7234 151.093 88.2365 151.055 88.5876 150.747C88.6687 150.671 88.7119 150.552 88.6795 150.444C88.6471 150.336 88.566 150.25 88.4742 150.18C88.2906 150.039 88.0637 149.953 87.8584 149.839L86.5999 149.191L86.6107 149.17H86.6269Z" fill="#A32404"/>
<path d="M88.5174 148.954C88.5174 149.067 88.4796 149.148 88.4363 149.229C88.3985 149.31 88.3337 149.37 88.2851 149.44C88.2149 149.488 88.1555 149.553 88.0745 149.596C87.9934 149.64 87.907 149.677 87.7882 149.688L87.772 149.672C88.0042 149.418 88.2473 149.175 88.5012 148.938L88.5174 148.954Z" fill="#A32404"/>
<path d="M89.4788 150.142C89.3762 150.38 89.2249 150.585 89.0629 150.779C88.9008 150.974 88.7064 151.141 88.5119 151.303C88.2959 151.449 88.1068 151.595 87.853 151.703C87.7233 151.752 87.5775 151.795 87.4263 151.773C87.2858 151.746 87.14 151.665 87.0914 151.53L87.1076 151.519C87.2642 151.719 87.5721 151.681 87.7665 151.557C87.9772 151.433 88.1771 151.287 88.3715 151.136C88.7658 150.839 89.1277 150.498 89.4518 150.126L89.468 150.142H89.4788Z" fill="#A32404"/>
<path d="M87.6369 151.676C87.7558 151.935 87.8854 152.216 88.0799 152.286C88.2581 152.362 88.485 152.27 88.6902 152.108C88.9063 151.968 89.0953 151.757 89.3114 151.568C89.522 151.379 89.7327 151.185 89.9703 151.012L89.9865 151.023C89.8083 151.249 89.6247 151.465 89.4356 151.676C89.2412 151.887 89.0521 152.103 88.8198 152.276C88.5984 152.438 88.2797 152.584 88.0042 152.427C87.7396 152.27 87.6747 151.946 87.6207 151.676H87.6423H87.6369Z" fill="#A32404"/>
<path d="M88.6794 152.438C88.7442 152.589 88.8253 152.713 88.9171 152.783C88.9765 152.816 88.9711 152.816 89.0413 152.826C89.0953 152.837 89.1548 152.832 89.2196 152.826C89.3438 152.832 89.468 152.783 89.6409 152.762C89.8029 152.756 89.8947 152.745 90.0622 152.664L90.0784 152.681C89.9812 152.805 89.8353 152.891 89.6841 152.924C89.5383 152.967 89.3924 153.032 89.2304 153.037C89.0791 153.037 88.8955 153.026 88.7929 152.886C88.6956 152.756 88.6578 152.594 88.6632 152.438H88.6848H88.6794Z" fill="#A32404"/>
<path d="M64.8322 143.59C64.8322 143.59 69.2289 143.255 70.5415 145.929C71.854 148.603 74.9004 159.26 74.9004 159.26L83.7857 152.443L86.4216 156.532C86.4216 156.532 75.1705 172.364 71.8702 171.337C68.5699 170.311 64.7998 147.236 64.8376 143.59H64.8322Z" fill="#D4603F"/>
<path d="M72.3186 150.779C71.6488 148.727 70.9898 146.853 70.5415 145.934C69.2344 143.261 64.8322 143.595 64.8322 143.595C64.816 145.34 65.664 151.525 66.9226 157.618C68.732 155.349 70.5361 153.075 72.3186 150.785V150.779Z" fill="#BFC8DE" stroke="#BFC8DE" stroke-miterlimit="10"/>
<path d="M68.8184 164.456L68.0352 167.275L52.0038 167.184L52.0471 164.504L68.8184 164.456Z" fill="#D4603F"/>
<path d="M64.4001 142.888C65.0699 143.558 70.8818 154.609 71.0222 158.012C71.1735 161.771 71.6002 168.928 71.6002 168.928C71.6002 168.928 50.432 167.697 50.0485 167.848C48.9412 157.769 48.2661 146.453 50.9668 144.854C50.9668 144.854 55.0394 143.055 57.2864 141.419C57.2864 141.419 64.2975 150.736 64.4055 142.888H64.4001Z" fill="#BFC8DE"/>
<g style="mix-blend-mode:multiply">
<path d="M52.8465 145.61C52.3766 146.08 52.0633 146.399 52.0633 146.399C49.3572 147.998 48.9359 157.769 50.0378 167.848C50.3132 167.735 61.5104 168.35 67.6572 168.701C62.0505 161.426 56.9894 153.772 52.8465 145.61Z" fill="#BFC8DE"/>
</g>
<path d="M69.9129 188.53L60.8808 170.43C60.011 168.687 57.8929 167.979 56.1499 168.849L38.0694 177.871C36.3264 178.741 35.6185 180.859 36.4883 182.602L45.5205 200.702C46.3902 202.445 48.5083 203.153 50.2513 202.283L68.3318 193.26C70.0749 192.391 70.7827 190.273 69.9129 188.53Z" fill="white"/>
<path d="M56.6167 191.485C60.4139 190.291 62.5258 186.24 61.3267 182.443C60.133 178.645 56.0819 176.533 52.2847 177.733C48.4875 178.926 46.3756 182.977 47.5747 186.775C48.7684 190.572 52.8195 192.684 56.6167 191.485Z" fill="#3C5AE7"/>
<path d="M54.6019 184.56L61.4023 187.85C62.2989 186.191 62.5474 184.193 61.937 182.254L54.6019 184.565V184.56Z" fill="#F5C679"/>
<path d="M61.3267 182.443C60.133 178.645 56.0819 176.533 52.2847 177.733L54.6019 184.56L61.3267 182.443Z" fill="#1B314F"/>
<path d="M48.4877 195.366L42.3932 183.153L41.1076 183.794L47.2021 196.008L48.4877 195.366Z" fill="#D4603F"/>
<path d="M47.148 173.4C47.0346 173.373 46.9535 173.449 46.959 173.568C47.0022 174.103 47.2128 174.4 47.5369 175.188C47.6827 175.458 47.996 176.188 48.7144 177.063C49.4274 177.938 50.4267 179.137 49.8919 179.283C49.5138 179.385 47.9798 177.749 47.78 177.473C47.3479 176.89 46.3918 176.117 46.354 176.09C46.1865 175.988 47.067 177.754 47.6935 178.597C48.3201 179.439 49.0115 180.249 48.8765 180.557C48.7414 180.865 48.0608 180.158 48.0608 180.158C48.0608 180.158 48.3633 180.908 48.1095 181.011C47.942 181.081 46.8023 180.05 46.0731 179.315C46.4188 180.352 45.9543 180.212 45.9543 180.212C45.9543 180.212 44.2907 178.267 44.0962 177.538C43.9342 176.955 43.286 176.036 43.151 175.874C43.0213 175.718 41.8276 173.492 41.5359 171.629C40.1046 169.673 28.821 154.188 30.4846 153.199C42.8917 145.848 55.3636 143.012 57.3783 147.981C58.7934 151.476 48.2931 155.452 48.2931 155.452L40.0776 158.979L45.2575 170.586C46.0137 170.964 47.9582 171.958 48.5092 172.407" fill="#D4603F"/>
<path d="M45.3817 146.572C51.5285 144.849 56.6005 141.846 57.3783 147.982C57.6969 150.482 53.9538 152.864 50.9452 154.301C49.1087 151.714 47.256 149.138 45.3817 146.572Z" fill="#BFC8DE" stroke="#BFC8DE" stroke-miterlimit="10"/>
<path d="M70.5578 260.196L69.2452 262.411" stroke="#001A61" stroke-width="0.34" stroke-miterlimit="10"/>
<path d="M69.7367 259.704L68.4242 261.919" stroke="#001A61" stroke-width="0.34" stroke-miterlimit="10"/>
<path d="M42.0328 260.196L40.7203 262.411" stroke="#001A61" stroke-width="0.34" stroke-miterlimit="10"/>
<path d="M41.2172 259.704L39.9047 261.919" stroke="#001A61" stroke-width="0.34" stroke-miterlimit="10"/>
<path d="M273.3 112.942C273.3 112.942 277.464 107.249 276.627 107.022C275.795 106.801 274.013 109.448 273.673 107.816C272.954 104.359 276.697 107.465 276.627 106.882C276.195 103.425 272.236 105.656 272.236 105.656C272.236 105.656 272.414 99.3578 271.825 99.2768C271.237 99.1903 270.443 104.16 270.443 104.16C270.443 104.16 270.07 99.0607 269.557 99.2443C269.044 99.428 269.27 104.203 269.27 104.203C269.27 104.203 268.52 100.984 268.228 101.805C267.942 102.62 268.909 109.896 268.909 109.896L273.305 112.948L273.3 112.942Z" fill="#E37059"/>
<path d="M275.612 252.839L273.095 262.221L258.624 261.708L258.662 260.563L267.061 256.075L267.812 252.737L275.612 252.839Z" fill="#E37059"/>
<path d="M315.55 254.368L317.392 263.907L331.862 264.42L331.905 263.28L323.846 258.203L322.955 254.805L315.55 254.368Z" fill="#E37059"/>
<path d="M323.949 258.208L321.405 260.741C320.735 261.406 319.714 261.395 319.071 260.709L316.387 257.835L317.494 263.912L331.97 264.431L332.013 263.285L323.954 258.208H323.949Z" fill="#FFB264" stroke="#FFB264" stroke-miterlimit="10"/>
<path d="M266.905 256.069L269.26 258.775C269.881 259.488 270.896 259.548 271.593 258.91L274.477 256.237L272.938 262.222L258.462 261.703L258.505 260.558L266.905 256.069Z" fill="#FFB264" stroke="#FFB264" stroke-miterlimit="10"/>
<path d="M306.956 176.015L322.906 254.908L314.145 255.875L292.07 200.381C291.432 198.188 289.034 198.123 288.186 200.24L276.681 252.98L266.597 252.861C266.597 252.861 266.024 200.419 281.099 165.428L306.951 176.01L306.956 176.015Z" fill="#151F36"/>
<path d="M306.934 136.865L293.533 134.197C284.173 132.334 270.837 141.149 268.671 131.621C267.504 126.489 268.741 121.131 271.804 117.177L274.369 113.861L268.385 109.032C268.385 109.032 230.18 151.163 281.062 146.415L274.396 178.527C274.396 178.527 287.916 180.936 308.387 181.983L314.372 153.685" fill="#3C5AE7"/>
<mask id="mask1_1367_830" style="mask-type:luminance" maskUnits="userSpaceOnUse" x="254" y="109" width="61" height="73">
<path d="M306.934 136.865L293.533 134.197C284.173 132.334 270.837 141.149 268.671 131.621C267.504 126.489 268.741 121.131 271.804 117.177L274.369 113.861L268.385 109.032C268.385 109.032 230.18 151.163 281.062 146.415L274.396 178.527C274.396 178.527 287.916 180.936 308.387 181.983L314.372 153.685" fill="white"/>
</mask>
<g mask="url(#mask1_1367_830)">
<path d="M270.929 117.188C261.433 117.901 260.396 135.094 269.611 137.13C272.511 137.773 275.498 136.752 278.177 135.72C278.42 135.628 278.312 135.234 278.069 135.331C275.865 136.179 273.527 137 271.134 136.914C268.919 136.838 266.921 135.817 265.619 134.024C263.178 130.664 263.08 125.598 264.911 121.952C266.078 119.624 268.271 117.793 270.929 117.593C271.188 117.571 271.188 117.166 270.929 117.188Z" fill="#F9FAFE"/>
<path d="M252.083 124.329C255.524 126.576 259.126 128.996 261.46 132.458C262.718 134.327 263.469 136.444 263.599 138.702C263.739 141.192 263.323 143.747 262.702 146.151C262.032 148.738 260.963 151.222 259.272 153.307C259.11 153.507 259.397 153.799 259.559 153.594C262.594 149.84 263.945 144.633 264.026 139.863C264.063 137.541 263.561 135.283 262.427 133.252C261.379 131.378 259.904 129.773 258.3 128.364C256.431 126.727 254.368 125.333 252.294 123.978C252.072 123.837 251.872 124.183 252.088 124.329H252.083Z" fill="#F9FAFE"/>
<path d="M276.06 147.511C277.902 146.172 279.798 144.805 281.98 144.065C283.951 143.396 286.036 143.369 288.029 143.941C292.145 145.129 295.246 148.457 296.699 152.416C298.206 156.521 298.276 161.398 297.136 165.606C296.547 167.778 295.435 169.679 293.701 171.126C292.129 172.439 290.233 173.319 288.305 173.968C283.114 175.712 277.459 176.247 272.014 175.901C271.755 175.885 271.755 176.29 272.014 176.306C277.237 176.636 282.606 176.134 287.624 174.61C291.627 173.395 295.451 171.224 297.05 167.156C297.909 164.974 298.2 162.544 298.265 160.21C298.33 157.877 298.092 155.581 297.433 153.372C296.213 149.256 293.436 145.68 289.407 144.006C287.376 143.163 285.123 142.877 282.963 143.363C280.3 143.963 278.021 145.583 275.849 147.166C275.639 147.317 275.844 147.668 276.054 147.517L276.06 147.511Z" fill="#F9FAFE"/>
<path d="M295.689 182.95C297.417 178.905 300.69 175.588 304.752 173.876C309.3 171.953 314.615 172.202 319.012 174.416C319.244 174.535 319.45 174.184 319.217 174.065C312.357 170.608 303.888 172.056 298.643 177.679C297.255 179.164 296.142 180.876 295.343 182.745C295.24 182.983 295.591 183.188 295.694 182.95H295.689Z" fill="#F9FAFE"/>
<path d="M286.377 129.049C286.674 134.456 289.979 139.215 294.295 142.299C296.672 144.001 299.443 145.313 302.359 145.724C305.276 146.134 308.144 145.535 310.818 144.411C314.086 143.034 317.003 140.965 319.86 138.891C320.071 138.74 319.865 138.388 319.655 138.54C315.107 141.851 309.975 145.524 304.093 145.453C298.211 145.383 292.961 141.727 289.769 137.243C288.057 134.834 286.949 132.02 286.782 129.055C286.766 128.796 286.36 128.796 286.377 129.055V129.049Z" fill="#F9FAFE"/>
</g>
<g style="mix-blend-mode:multiply" opacity="0.55">
<path d="M285.88 163.921C282.385 167.135 278.874 170.338 275.423 173.6L274.396 178.537C274.396 178.537 287.916 180.946 308.387 181.994L314.372 153.696L308.749 140.97C301.166 148.657 293.841 156.591 285.88 163.926V163.921Z" fill="#3A6791"/>
</g>
<path d="M307.518 127.84L306.859 135.877C306.859 135.877 305.282 141.554 299.119 139.545C295.251 138.281 295.781 134.289 295.781 134.289L298.395 129.141L306.454 126.349C306.454 126.349 307.313 127.219 307.388 127.494C307.464 127.764 307.512 127.84 307.512 127.84H307.518Z" fill="#E37059"/>
<path d="M306.459 126.349L298.865 129.525C298.865 129.525 298.141 131.388 298.686 132.366C299.81 134.392 303.953 133.97 305.039 129.303" fill="#001C39"/>
<path d="M308.809 125.328C308.809 125.328 307.907 125.085 306.988 125.711L307.518 119.926C307.518 119.926 305.843 117.804 304.525 118.23C303.207 118.657 302.03 117.463 301.441 116.961C300.852 116.459 300.674 115.151 300.674 115.151C300.674 115.151 298.449 109.642 300.15 109.291C301.852 108.94 308.738 111.036 310.451 113.245C312.098 115.373 313.362 119.721 309.041 125.538" fill="#FFB264"/>
<path d="M307.296 124.993C307.302 125.182 307.496 125.306 307.669 125.231C308.258 124.961 309.338 124.691 309.063 126.484C308.69 128.92 306.383 127.672 306.081 127.91C305.465 128.396 303.467 130.049 301.29 130.206C299.967 130.297 298.233 129.779 297.39 128.158C296.548 126.538 295.699 127.148 300.647 114.73C300.647 114.73 300.739 115.443 301.468 116.011C302.197 116.583 303.218 117.123 303.942 117.329C304.752 117.555 308.144 118.701 307.999 120.245C307.874 121.579 307.253 123.864 307.291 124.993H307.296Z" fill="#E37059"/>
<path d="M297.514 123.816C297.514 123.816 298.141 124.448 300.053 124.928C300.053 124.928 298.595 125.901 297.952 125.387C297.309 124.874 297.509 123.816 297.509 123.816H297.514Z" fill="white"/>
<path d="M308.76 126.181L307.134 126.678C307.134 126.678 308.42 124.55 308.76 126.181Z" fill="#C74040"/>
<path d="M299.967 121.671C299.869 121.947 299.902 122.211 300.042 122.255C300.177 122.303 300.372 122.12 300.464 121.844C300.561 121.569 300.528 121.304 300.388 121.261C300.253 121.212 300.058 121.396 299.967 121.671Z" fill="#001C39"/>
<path d="M298.427 120.861C298.33 121.137 298.362 121.401 298.503 121.445C298.638 121.493 298.832 121.309 298.924 121.034C299.021 120.759 298.989 120.494 298.848 120.451C298.713 120.402 298.519 120.586 298.427 120.861Z" fill="#001C39"/>
<path d="M302.813 120.256C303.094 120.64 302.916 119.295 302.457 118.992C301.998 118.69 301.414 118.765 301.155 119.16C301.155 119.16 302.138 119.338 302.813 120.256Z" fill="#001C39"/>
<path d="M299.059 118.809C299.61 118.927 299.961 119.154 299.961 119.154C300.037 118.722 299.745 118.295 299.291 118.123" fill="#001C39"/>
<path d="M299.194 121.115L297.693 122.962C297.666 122.994 297.676 123.038 297.709 123.054L298.584 123.432C298.616 123.443 298.649 123.432 298.659 123.394L299.286 121.169C299.302 121.109 299.232 121.072 299.194 121.12V121.115Z" fill="#C74040"/>
<path d="M293.539 134.197L297.044 131.68L300.037 139.706L296.801 143.18L293.539 134.197Z" fill="#FAE9CF"/>
<path d="M307.102 133.479L300.037 139.706L300.874 143.655L308.776 138.027L307.102 133.479Z" fill="#FAE9CF"/>
<path d="M308.004 170.484C308.004 170.484 301.49 171.953 301.906 172.596C302.17 173.012 303.596 173.276 304.574 173.417C305.011 173.481 305.211 174.005 304.947 174.411C304.153 175.626 302.694 177.846 301.565 179.391C299.94 181.627 300.447 182.194 303.845 178.91C307.242 175.631 301.819 182.502 302.338 182.826C302.856 183.15 305.811 179.277 306.389 179.374C306.961 179.477 303.845 183.328 304.488 184.084C305.13 184.841 307.669 180.449 308.036 180.384C308.409 180.32 306.648 183.398 306.972 183.647C308.117 184.533 312.071 176.058 312.26 175.34C312.449 174.627 308.009 170.473 308.009 170.473L308.004 170.484Z" fill="#E37059"/>
<path d="M306.87 169.193L314.442 177.619C314.442 177.619 342.886 157.385 336.059 150.261C330.695 144.665 309.894 132.479 306.907 139.701C303.92 146.923 319.779 156.586 319.779 156.586L306.87 169.198V169.193Z" fill="#3C5AE7"/>
<mask id="mask2_1367_830" style="mask-type:luminance" maskUnits="userSpaceOnUse" x="306" y="137" width="32" height="41">
<path d="M306.87 169.193L314.442 177.619C314.442 177.619 342.886 157.385 336.059 150.261C330.695 144.665 309.894 132.479 306.907 139.701C303.92 146.923 319.779 156.586 319.779 156.586L306.87 169.198V169.193Z" fill="white"/>
</mask>
<g mask="url(#mask2_1367_830)">
<path d="M321.459 135.455C318.845 139.571 319.152 145.027 321.632 149.137C324.332 153.62 329.485 155.808 334.611 155.397C337.598 155.16 340.493 154.085 342.87 152.248C343.075 152.092 342.87 151.741 342.665 151.897C338.641 155.008 333.029 155.927 328.248 154.133C323.619 152.394 320.519 148.019 320.082 143.131C319.844 140.522 320.4 137.886 321.81 135.666C321.95 135.444 321.599 135.239 321.459 135.461V135.455Z" fill="#F9FAFE"/>
<path d="M306.605 166.751C313.692 161.815 322.944 163.451 329.961 167.594C332.078 168.842 334.055 170.306 335.935 171.883C336.134 172.05 336.421 171.764 336.221 171.597C329.745 166.157 321.48 161.917 312.8 163.683C310.505 164.153 308.317 165.055 306.394 166.395C306.184 166.541 306.383 166.892 306.6 166.746L306.605 166.751Z" fill="#F9FAFE"/>
</g>
<path d="M277.788 92.2876H258.462C256.359 92.2876 254.654 93.9925 254.654 96.0956V104.646C254.654 106.749 256.359 108.454 258.462 108.454H277.788C279.892 108.454 281.596 106.749 281.596 104.646V96.0956C281.596 93.9925 279.892 92.2876 277.788 92.2876Z" fill="#FFB264"/>
<path d="M273.213 108.692C273.213 108.692 276.449 104.381 277.167 104.981C277.886 105.58 273.932 113.483 273.932 113.483" fill="#E37059"/>
<path d="M267.828 96.749H259.688V97.8131H267.828V96.749Z" fill="white"/>
<path d="M278.231 99.5793H259.688V100.643H278.231V99.5793Z" fill="white"/>
</svg>
